<svg width="46" height="45" viewBox="0 0 46 45" fill="none" xmlns="http://www.w3.org/2000/svg">
<path d="M41.9775 11.25V20.625C36.9775 20.625 33.2275 19.375 30.7275 16.875V30C30.7308 32.7587 29.8647 35.4483 28.2523 37.6867C26.6398 39.9251 24.3631 41.5986 21.7454 42.4694C19.1278 43.3402 16.3023 43.364 13.6703 42.5375C11.0383 41.711 8.73367 40.0762 7.08373 37.8652C5.43379 35.6543 4.52245 32.9797 4.47916 30.2214C4.43586 27.463 5.26281 24.7611 6.84255 22.4995C8.42229 20.2379 10.6745 18.5316 13.2792 17.6229C15.884 16.7142 18.7088 16.6493 21.3525 17.4375M21.3525 30C21.3525 29.2583 21.1326 28.5333 20.7205 27.9166C20.3085 27.2999 19.7228 26.8193 19.0376 26.5355C18.3524 26.2516 17.5984 26.1774 16.8709 26.3221C16.1435 26.4668 15.4753 26.8239 14.9509 27.3484C14.4264 27.8728 14.0693 28.541 13.9246 29.2684C13.7799 29.9958 13.8542 30.7498 14.138 31.4351C14.4218 32.1203 14.9025 32.706 15.5191 33.118C16.1358 33.5301 16.8609 33.75 17.6025 33.75C18.5971 33.75 19.5509 33.3549 20.2542 32.6516C20.9574 31.9484 21.3525 30.9946 21.3525 30V1.875H30.7275C33.2275 8.125 36.9775 11.25 41.9775 11.25" fill="url(#paint0_linear_582_1226)"/>
<path d="M21.3525 17.4375C18.7088 16.6493 15.884 16.7142 13.2792 17.6229C10.6745 18.5316 8.42229 20.2379 6.84255 22.4995C5.26281 24.7611 4.43586 27.463 4.47916 30.2214C4.52245 32.9797 5.43379 35.6543 7.08373 37.8652C8.73367 40.0762 11.0383 41.711 13.6703 42.5375C16.3023 43.364 19.1278 43.3402 21.7454 42.4694C24.3631 41.5986 26.6398 39.9251 28.2523 37.6867C29.8647 35.4483 30.7308 32.7587 30.7275 30V16.875C33.2275 19.375 36.9775 20.625 41.9775 20.625V11.25C36.9775 11.25 33.2275 8.125 30.7275 1.875H21.3525V30M21.3525 30C21.3525 29.2583 21.1326 28.5333 20.7205 27.9166C20.3085 27.2999 19.7228 26.8193 19.0376 26.5355C18.3524 26.2516 17.5984 26.1774 16.8709 26.3221C16.1435 26.4668 15.4753 26.8239 14.9509 27.3484C14.4264 27.8728 14.0693 28.541 13.9246 29.2684C13.7799 29.9958 13.8542 30.7498 14.138 31.4351C14.4218 32.1203 14.9025 32.706 15.5191 33.118C16.1358 33.5301 16.8609 33.75 17.6025 33.75C18.5971 33.75 19.5509 33.3549 20.2542 32.6516C20.9574 31.9484 21.3525 30.9946 21.3525 30Z" stroke="url(#paint1_linear_582_1226)" stroke-width="2.72727" stroke-linecap="round" stroke-linejoin="round"/>
<line x1="18.9184" y1="14" x2="18.9184" y2="30" stroke="white" stroke-width="2.2"/>
<defs>
<linearGradient id="paint0_linear_582_1226" x1="4.47754" y1="43.1404" x2="48.4317" y2="6.6151" gradientUnits="userSpaceOnUse">
<stop stop-color="#639BDF"/>
<stop offset="1" stop-color="#80C9EB"/>
</linearGradient>
<linearGradient id="paint1_linear_582_1226" x1="4.47754" y1="43.1404" x2="48.4317" y2="6.6151" gradientUnits="userSpaceOnUse">
<stop stop-color="#639BDF"/>
<stop offset="1" stop-color="#80C9EB"/>
</linearGradient>
</defs>
</svg>
