<svg width="46" height="45" viewBox="0 0 46 45" fill="none" xmlns="http://www.w3.org/2000/svg">
<path d="M10.9178 9.76312C16.1141 9.50437 20.156 9.375 23.0435 9.375C25.931 9.375 29.9744 9.50469 35.1738 9.76406C36.5343 9.83197 37.824 10.3913 38.8034 11.3382C39.7827 12.2852 40.3851 13.5553 40.4988 14.9128C40.7369 17.7566 40.856 20.2619 40.856 22.4288C40.856 24.6213 40.7341 27.1612 40.4903 30.0487C40.3772 31.3907 39.7863 32.6475 38.8252 33.5907C37.864 34.534 36.5963 35.1011 35.2525 35.1891C30.8081 35.4797 26.7385 35.625 23.0435 35.625C19.3497 35.625 15.2816 35.4797 10.8391 35.1891C9.49571 35.1012 8.22839 34.5345 7.2673 33.5918C6.3062 32.6491 5.71507 31.393 5.60127 30.0516C5.35439 27.1422 5.23096 24.6012 5.23096 22.4288C5.23096 20.2819 5.35127 17.7756 5.59189 14.91C5.70597 13.5528 6.30858 12.2831 7.28787 11.3366C8.26717 10.3901 9.55662 9.83098 10.9169 9.76312H10.9178Z" fill="url(#paint0_linear_582_1227)" stroke="url(#paint1_linear_582_1227)" stroke-width="2.72727" stroke-linejoin="round"/>
<path d="M20.2329 18.3842V26.6304C20.2329 26.7756 20.2722 26.9182 20.3466 27.0428C20.4211 27.1675 20.528 27.2696 20.6559 27.3384C20.7838 27.4072 20.928 27.44 21.0731 27.4333C21.2181 27.4267 21.3587 27.3809 21.4798 27.3007L27.6645 23.2132C27.775 23.1403 27.8658 23.0413 27.9288 22.9249C27.9918 22.8084 28.0251 22.6782 28.0257 22.5458C28.0262 22.4134 27.9941 22.283 27.932 22.166C27.87 22.049 27.78 21.9492 27.6701 21.8754L21.4845 17.7167C21.3636 17.6354 21.2229 17.5886 21.0774 17.5811C20.932 17.5737 20.7872 17.6059 20.6587 17.6744C20.5301 17.7428 20.4226 17.845 20.3476 17.9698C20.2726 18.0947 20.233 18.2376 20.2329 18.3832V18.3842Z" fill="white" stroke="white" stroke-width="2.72727" stroke-linejoin="round"/>
<defs>
<linearGradient id="paint0_linear_582_1227" x1="5.23096" y1="35.625" x2="33.0216" y2="1.13665" gradientUnits="userSpaceOnUse">
<stop stop-color="#639BDF"/>
<stop offset="1" stop-color="#80C9EB"/>
</linearGradient>
<linearGradient id="paint1_linear_582_1227" x1="5.23096" y1="35.625" x2="33.0216" y2="1.13665" gradientUnits="userSpaceOnUse">
<stop stop-color="#639BDF"/>
<stop offset="1" stop-color="#80C9EB"/>
</linearGradient>
</defs>
</svg>
