<?xml version="1.0" standalone="no"?>
<!DOCTYPE svg PUBLIC "-//W3C//DTD SVG 1.1//EN" "http://www.w3.org/Graphics/SVG/1.1/DTD/svg11.dtd" >
<svg xmlns="http://www.w3.org/2000/svg" xmlns:xlink="http://www.w3.org/1999/xlink" version="1.1">
<metadata>
Created by FontForge 20170731 at Thu Jul 27 19:06:40 2017
 By Aleksey,,,
Copyright 2017 The Mardoto Project Authors (https://github.com/vahanhovh/mardoto)
</metadata>
<defs>
<font id="Mardoto-BoldItalic" horiz-adv-x="1140" >
  <font-face 
    font-family="Mardoto"
    font-weight="700"
    font-style="italic"
    font-stretch="normal"
    units-per-em="2048"
    panose-1="0 0 8 0 0 0 0 0 0 0"
    ascent="1536"
    descent="-512"
    x-height="1082"
    cap-height="1456"
    bbox="-375 -555 3228 2146"
    underline-thickness="100"
    underline-position="-300"
    slope="-12"
    unicode-range="U+000D-2212"
  />
<missing-glyph horiz-adv-x="1351" 
d="M1107 -555h-856v2701h856v-2701zM454 1965v-89h175v-100h-178v-89h448v89h-178v100h178v89h-445zM451 1617v-281h448v92h-178v189h-270zM629 1428h-89v97h89v-97zM451 1263v-89h178v-100h-178v-89h270v189h178v89h-448zM810 1101v-179h-359v-91h448v270h-89zM629 771
v-151h92v62h89v-127h-270v216h-89v-305h448v305h-270zM451 304v-305h448v305h-448zM810 88h-270v127h270v-127zM451 -63v-90h189l-189 -126v-90h448v90h-275l189 126h86v90h-448z" />
    <glyph glyph-name="uni0535054E.liga" unicode="&#x535;&#x54e;" horiz-adv-x="2942" 
d="M2843 243l-38 -243h-600l38 243l23 145q-126 -62 -257 -62q-148 0 -260 47.5t-174.5 140.5t-62.5 227q0 49 9 101l13 78h-1039l-67 -424q-6 -39 -6 -73q0 -201 220 -201q126 0 202 65.5t96 195.5l27 167h301l-24 -154q-26 -166 -113.5 -282t-220.5 -175t-296 -59
q-148 0 -259.5 47.5t-173.5 141t-62 227.5q0 53 8 100l83 529l22 138l59 373h301l-59 -373h1341l-52 -321q-6 -39 -6 -73q0 -103 57 -152t164 -49q120 0 200 80.5t104 212.5l28 180l78 495h301l-103 -654l-6 -31l-96 -608h300z" />
    <glyph glyph-name="uni05390545.liga" unicode="&#x539;&#x545;" horiz-adv-x="3218" 
d="M3116 928.5q-77 -83.5 -202 -139.5q106 -42 165.5 -116.5t59.5 -179.5q0 -35 -5 -63q-23 -144 -111 -245t-227.5 -153t-314.5 -52q-157 0 -278.5 45.5t-189.5 132.5t-68 207q0 34 6 70h301q-3 -19 -3 -38q0 -90 70.5 -133t190.5 -43q132 0 219.5 52.5t104.5 161.5
q4 32 4 45q0 93 -65 139.5t-177 46.5h-965l-37 -235q-34 -216 -169 -333.5t-380 -117.5q-137 0 -237.5 45.5t-154 130t-53.5 199.5q0 44 7 86l4 27q34 212 177 322.5t383 110.5h196l15 92q3 21 3 42q0 79 -47.5 142t-139 100t-217.5 37q-134 0 -244 -43t-178.5 -119
t-83.5 -172l-155 -980h-301l155 980q27 172 131.5 301.5t283 202t420.5 72.5q218 0 371 -60t231 -169t78 -255q0 -41 -8 -92l-13 -79h966q115 0 187.5 57.5t87.5 154.5q3 17 3 33q0 78 -62 123.5t-177 45.5q-126 0 -197.5 -53t-84.5 -141h-300q21 133 108 231.5t218.5 151
t283.5 52.5q151 0 267.5 -42t182 -124t65.5 -199q0 -33 -6 -71q-17 -108 -94 -191.5zM1330 666h-187q-99 0 -159.5 -64t-75.5 -162q-4 -32 -4 -45q0 -77 43.5 -125t125.5 -48q88 0 146.5 58t73.5 151z" />
    <glyph glyph-name="uni0544053E.liga" unicode="&#x544;&#x53e;" horiz-adv-x="3148" 
d="M3190 1115h-254q68 -121 68 -283q0 -61 -11 -133l-10 -60q-32 -202 -131.5 -351t-249.5 -228.5t-332 -79.5q-161 0 -283 63t-189 181.5t-67 280.5q0 60 11 134l10 60q21 130 74.5 239.5t134.5 194.5q-84 20 -146 61t-98 99h-347l-126 -797q-26 -166 -113.5 -282
t-220.5 -175t-296 -59q-148 0 -259.5 47.5t-173.5 141t-62 227.5q0 53 8 100l164 1040h301l-164 -1040q-6 -39 -6 -73q0 -201 220 -201q251 0 298 261l167 1053h868q-2 -16 -2 -22q0 -46 29.5 -81.5t83.5 -55t126 -19.5h1016zM2699 817q0 144 -67.5 219t-194.5 75
q-152 0 -251 -105t-130 -303l-10 -64q-10 -60 -10 -117q0 -143 67.5 -219t195.5 -76q151 0 250 105.5t130 302.5l10 64q10 60 10 118z" />
    <glyph glyph-name="uni05440546.liga" unicode="&#x544;&#x546;" horiz-adv-x="3165" 
d="M3104 880l-60 -384q-26 -166 -113 -282t-220 -175t-298 -59q-147 0 -258.5 48t-173.5 142t-62 228q0 44 8 98l110 702q-38 -2 -55 -2q-50 0 -88.5 5.5t-100.5 16.5q-68 13 -122.5 20t-128.5 7q-22 0 -78 -2q-46 -2 -78.5 -30t-39.5 -72l-102 -645q-26 -166 -113.5 -282
t-220.5 -175t-296 -59q-148 0 -259.5 47.5t-173.5 141.5t-62 228q0 43 8 99l164 1040h301l-164 -1040q-6 -39 -6 -72q0 -202 220 -202q126 0 201.5 65.5t96.5 195.5l130 818q11 67 49.5 120.5t97 84t125.5 30.5q117 0 202 -9t197 -27q96 -15 155.5 -21.5t132.5 -6.5
q153 0 358 38l-41 -259l-121 -768q-5 -29 -5 -64q0 -98 56 -147.5t165 -49.5q125 0 202 67t100 207l60 384h301z" />
    <glyph glyph-name="uni05440576.liga" unicode="&#x544;&#x576;" horiz-adv-x="2769" 
d="M2722 1082l-171 -1082h-272l10 111q-65 -66 -139 -98.5t-168 -32.5q-146 0 -230 73.5t-84 225.5q0 51 8 99l127 808q-33 4 -66.5 14t-39.5 12q-56 16 -96 24.5t-92 8.5q-13 0 -45 -2q-46 -4 -78.5 -31.5t-39.5 -70.5l-102 -645q-26 -166 -113.5 -282t-220.5 -175
t-296 -59q-148 0 -259.5 47.5t-173.5 141.5t-62 228q0 43 8 99l164 1040h301l-164 -1040q-6 -39 -6 -72q0 -202 220 -202q126 0 201.5 65.5t96.5 195.5l130 818q11 67 49.5 120.5t97 84t125.5 30.5q83 0 153 -10t158 -28q85 -17 142.5 -25t123.5 -8q106 0 222 26l-41 -259
h-0.5t-0.5 -1l-134 -851q-4 -32 -4 -43q0 -63 35 -92.5t96 -29.5q147 0 219 103l121 764h290z" />
    <glyph glyph-name="uni0574056F.liga" unicode="&#x574;&#x56f;" horiz-adv-x="2442" 
d="M2373 1082l-237 -1498h-290l84 527q-57 -66 -130 -98.5t-167 -32.5q-146 0 -230 73.5t-84 224.5q0 52 8 100l133 842l-47 13q-51 14 -80.5 20t-63.5 6q-44 0 -77.5 -29t-40.5 -73l-183 -1157h-272l10 111q-65 -66 -139 -98.5t-168 -32.5q-146 0 -230 73.5t-84 224.5
q0 52 8 100l111 704h289l-111 -702q-4 -32 -4 -43q0 -63 35 -92.5t96 -29.5q147 0 219 103l153 963q11 73 53 131t105.5 91t136.5 33q48 0 89.5 -6.5t113.5 -21.5q81 -17 137.5 -25.5t126.5 -8.5q73 0 149 11l-45 -277l-131 -828q-4 -32 -4 -43q0 -63 35 -92.5t96 -29.5
q147 0 219 103l121 764h290z" />
    <glyph glyph-name="uni0578055B0582.liga" unicode="&#x578;&#x55b;&#x582;" horiz-adv-x="1824" 
d="M457 764l-121 -764h-289l171 1082h271l-9 -124q70 73 148.5 108.5t174.5 35.5q140 0 219 -70.5t79 -224.5q0 -45 -10 -113l-110 -694h-290l109 690q5 33 5 55q0 68 -37 95.5t-112 27.5q-122 0 -199 -104zM1447 1772l-391 -497h-237l311 497h317zM1731 233l-37 -233h-518
l171 1082h289l-134 -849h229z" />
    <glyph glyph-name="uni0578055C0582.liga" unicode="&#x578;&#x55c;&#x582;" horiz-adv-x="1824" 
d="M905 1311q7 48 36 109t76.5 113t108.5 71q79 25 111 68.5t43 113.5l1 9h270l-4 -25q-12 -77 -28.5 -130.5t-56 -99.5t-110.5 -67q-86 -25 -135.5 -86t-59.5 -124l-1 -9h-260zM457 764l-121 -764h-289l171 1082h271l-9 -124q70 73 148.5 108.5t174.5 35.5q140 0 219 -70.5
t79 -224.5q0 -45 -10 -113l-110 -694h-290l109 690q5 33 5 55q0 68 -37 95.5t-112 27.5q-122 0 -199 -104zM1731 233l-37 -233h-518l171 1082h289l-134 -849h229z" />
    <glyph glyph-name="uni0578055E0582.liga" unicode="&#x578;&#x55e;&#x582;" horiz-adv-x="1824" 
d="M1290.5 1529.5q40.5 28.5 49.5 86.5q2 16 2 22q0 41 -28.5 62t-82.5 21q-44 0 -87.5 -26t-75.5 -76.5t-43 -120.5l-38 -243h-240l40 256q22 139 96 235t175.5 143t206.5 47q144 0 233.5 -61.5t89.5 -183.5q0 -23 -5 -55q-24 -152 -125 -245.5t-304 -93.5l33 204
q63 0 103.5 28.5zM457 764l-121 -764h-289l171 1082h271l-9 -124q70 73 148.5 108.5t174.5 35.5q140 0 219 -70.5t79 -224.5q0 -45 -10 -113l-110 -694h-290l109 690q5 33 5 55q0 68 -37 95.5t-112 27.5q-122 0 -199 -104zM1731 233l-37 -233h-518l171 1082h289l-134 -849
h229z" />
    <glyph glyph-name="uniFB13.liga" unicode="&#x574;&#x576;" horiz-adv-x="2402" 
d="M2355 1082l-171 -1082h-272l10 111q-65 -66 -139 -98.5t-168 -32.5q-146 0 -230 73.5t-84 224.5q0 52 8 100l133 844q-18 5 -32 10q-44 14 -74.5 20.5t-66.5 6.5q-44 0 -77.5 -29t-40.5 -73l-183 -1157h-272l10 111q-128 -131 -317 -131q-144 0 -224.5 71.5t-80.5 221.5
q0 48 9 105l111 704h289l-111 -702q-4 -32 -4 -43q0 -63 35 -92.5t96 -29.5q147 0 219 103l153 963q11 73 53 131t105.5 91t136.5 33q48 0 90 -7t108 -21q71 -17 127 -25.5t125 -8.5q71 0 147 11l-15 -94l-160 -1011q-4 -32 -4 -43q0 -63 35 -92.5t96 -29.5q147 0 219 103
l121 764h290z" />
    <glyph glyph-name="uniFB14.liga" unicode="&#x574;&#x565;" horiz-adv-x="2414" 
d="M1616 380q-4 -32 -4 -43q0 -63 35 -92.5t96 -29.5q147 0 219 103l52 324h290l-102 -642h-272l10 111q-65 -66 -139 -98.5t-168 -32.5q-146 0 -230 73.5t-84 224.5q0 52 8 100l133 842q-14 3 -25.5 6.5t-22.5 6.5q-44 13 -75.5 19.5t-67.5 6.5q-44 0 -77.5 -29t-40.5 -73
l-183 -1157h-272l10 111q-65 -66 -139 -98.5t-168 -32.5q-146 0 -230 73.5t-84 224.5q0 52 8 100l111 704h289l-111 -702q-4 -32 -4 -43q0 -63 35 -92.5t96 -29.5q147 0 219 103l153 963q11 73 53 131t105.5 91t136.5 33q48 0 89.5 -6.5t113.5 -21.5q81 -17 137.5 -25.5
t126.5 -8.5q73 0 149 11l-38 -231l-27 -172h719l-37 -233h-719z" />
    <glyph glyph-name=".notdef" horiz-adv-x="1351" 
d="M1107 -555h-856v2701h856v-2701zM454 1965v-89h175v-100h-178v-89h448v89h-178v100h178v89h-445zM451 1617v-281h448v92h-178v189h-270zM629 1428h-89v97h89v-97zM451 1263v-89h178v-100h-178v-89h270v189h178v89h-448zM810 1101v-179h-359v-91h448v270h-89zM629 771
v-151h92v62h89v-127h-270v216h-89v-305h448v305h-270zM451 304v-305h448v305h-448zM810 88h-270v127h270v-127zM451 -63v-90h189l-189 -126v-90h448v90h-275l189 126h86v90h-448z" />
    <glyph glyph-name=".null" horiz-adv-x="0" 
 />
    <glyph glyph-name="nonmarkingreturn" unicode="&#xd;" horiz-adv-x="505" 
 />
    <glyph glyph-name="NULL" horiz-adv-x="0" 
 />
    <glyph glyph-name="NULL" horiz-adv-x="0" 
 />
    <glyph glyph-name="space" unicode=" " horiz-adv-x="505" 
 />
    <glyph glyph-name="exclam" unicode="!" horiz-adv-x="540" 
d="M576 1456l-207 -1008h-236l143 1008h300zM59 212.5q20 36.5 56.5 57.5t81.5 21q44 0 80 -20t57 -55.5t21 -79.5q0 -65 -44.5 -108.5t-110.5 -45.5q-43 0 -79.5 19t-58.5 53t-22 77q-1 45 19 81.5z" />
    <glyph glyph-name="quotedbl" unicode="&#x22;" horiz-adv-x="637" 
d="M381 1383l-98 -396h-162l87 550h198zM697 1383l-99 -396h-160l86 550h197z" />
    <glyph glyph-name="numbersign" unicode="#" horiz-adv-x="1184" 
d="M469 0l142 410h-180l-141 -410h-186l142 410h-218l31 173h246l98 284h-223l31 173h251l144 416h184l-143 -416h179l144 416h186l-143 -416h209l-30 -173h-239l-98 -284h215l-31 -173h-243l-141 -410h-186zM490 583h179l99 284h-180z" />
    <glyph glyph-name="dollar" unicode="$" 
d="M946.5 184q-59.5 -88 -156 -138t-217.5 -62l-39 -199h-156l39 200q-122 19 -203 84t-119 165t-34 224l282 -1q-4 -107 35.5 -176t139.5 -69q85 0 144.5 48.5t71.5 130.5q2 11 2 32q0 66 -40 107.5t-116 75.5q-113 51 -191.5 105.5t-126.5 133t-48 186.5q0 20 1 31
q7 120 66.5 208.5t156.5 139.5t216 63l41 215h156l-41 -220q161 -34 235.5 -160.5t70.5 -302.5l-283 1q1 11 1 33q0 206 -147 206q-79 0 -129.5 -50.5t-62.5 -130.5q-2 -22 -2 -30q0 -62 38.5 -102.5t115.5 -76.5q118 -56 197 -113t124.5 -135t45.5 -183q0 -21 -1 -31
q-7 -121 -66.5 -209z" />
    <glyph glyph-name="percent" unicode="%" horiz-adv-x="1467" 
d="M187 1176q8 88 52 156.5t116 107t160 38.5q89 0 156 -38.5t101.5 -107t30.5 -156.5l-7 -77q-8 -88 -51 -156t-114 -105.5t-159 -37.5t-156 38t-103.5 106t-31.5 155zM1260 1237l-876 -1126l-139 85l878 1124zM369 1097l-1 -17q0 -49 23 -80.5t72 -33.5q57 -1 94.5 37.5
t47.5 95.5l11 79q1 7 1 22q0 48 -24 79.5t-74 31.5q-55 0 -92 -39t-47 -96zM720 356q8 88 52 156.5t116 106.5t160 38q89 0 156 -38t102 -106t31 -156l-6 -77q-8 -88 -51.5 -156.5t-114.5 -106.5t-159 -38q-89 0 -157 38t-103.5 106.5t-31.5 156.5zM904 277q-4 -55 20.5 -93
t79.5 -38q57 0 91.5 37.5t44.5 96.5l10 79q1 7 1 21q0 49 -24 80t-74 31q-55 0 -92 -38.5t-47 -95.5z" />
    <glyph glyph-name="ampersand" unicode="&#x26;" horiz-adv-x="1304" 
d="M880 0l-55 85q-87 -52 -178 -78.5t-179 -26.5q-91 0 -173 28t-145 82q-58 49 -86 117t-28 143q0 78 28.5 149.5t78.5 117.5q103 93 209 157q-44 94 -65.5 156.5t-21.5 130.5q0 16 1 25q7 113 63 202t147.5 139t204.5 50q93 0 170.5 -40.5t122.5 -112.5t45 -163
q0 -106 -60 -190t-161 -154l-120 -78l189 -283q85 122 101 259h238q-20 -284 -191 -467l167 -248h-302zM524.5 992q13.5 -35 38.5 -82l83 50q55 35 89.5 75t42.5 94q1 5 1 16q0 43 -28.5 71.5t-75.5 28.5q-46 0 -84 -25.5t-59 -67t-21 -88.5q0 -37 13.5 -72zM324 368
q0 -68 41.5 -111.5t114.5 -43.5q87 0 206 61l-216 328l-24 -15q-105 -76 -120 -187q-2 -11 -2 -32z" />
    <glyph glyph-name="quotesingle" unicode="'" horiz-adv-x="322" 
d="M389 1373l-88 -387h-180l87 550h206z" />
    <glyph glyph-name="parenleft" unicode="(" horiz-adv-x="697" 
d="M119 588q28 207 104.5 411t200.5 366q131 170 323 255l48 -161q-145 -112 -236 -259.5t-154 -380.5q-37 -137 -55.5 -282t-18.5 -279q0 -183 32 -311q37 -156 154 -251l-63 -151q-160 89 -244 260.5t-100 388.5q-7 81 -7 167q0 107 12 203z" />
    <glyph glyph-name="parenright" unicode=")" horiz-adv-x="700" 
d="M-105 -300q144 111 235.5 260t154.5 380q36 133 54.5 278.5t18.5 282.5q0 189 -31 314q-38 157 -153 248l62 154q161 -88 248 -258.5t109 -388.5q8 -80 8 -174q0 -177 -34.5 -342t-103.5 -330q-87 -209 -216.5 -359t-303.5 -223z" />
    <glyph glyph-name="asterisk" unicode="*" horiz-adv-x="901" 
d="M135 704l258 263l-293 92l86 170l286 -128l44 355h191l-80 -347l308 118l26 -193l-328 -89l160 -271l-160 -104l-126 292l-223 -278z" />
    <glyph glyph-name="plus" unicode="+" horiz-adv-x="1084" 
d="M1017 555h-350l-71 -409h-268l71 409h-353l46 261h352l68 390h268l-68 -390h350z" />
    <glyph glyph-name="comma" unicode="," horiz-adv-x="486" 
d="M312 246l-31 -196q-20 -121 -85.5 -229t-164.5 -187l-148 80l94 157q43 75 60 164l37 211h238z" />
    <glyph glyph-name="hyphen" unicode="-" horiz-adv-x="771" 
d="M679 741l-41 -234h-548l42 234h547z" />
    <glyph glyph-name="period" unicode="." horiz-adv-x="578" 
d="M65 225q21 35 57 54.5t81 19.5q43 0 79 -19t57.5 -53.5t21.5 -78.5q1 -45 -19 -81.5t-56 -57.5t-81 -21q-45 -1 -82 19t-58 56.5t-21 82.5q0 44 21 79z" />
    <glyph glyph-name="slash" unicode="/" horiz-adv-x="743" 
d="M871 1456l-795 -1581h-222l794 1581h223z" />
    <glyph glyph-name="zero" unicode="0" 
d="M1049 604q-26 -173 -90.5 -313t-173.5 -225q-54 -42 -128 -64t-154 -22q-87 0 -162.5 25.5t-120.5 72.5q-68 70 -100.5 173t-32.5 225q0 60 8 127l38 253q25 171 90.5 311t176.5 225q54 42 128 63.5t153 21.5q86 0 161.5 -25.5t121.5 -72.5q68 -71 100 -173.5t32 -223.5
q0 -59 -8 -126zM812 898q1 9 5.5 51.5t4.5 84.5q0 90 -25 145q-15 32 -50 49.5t-79 17.5q-38 0 -73 -13.5t-59 -38.5q-49 -52 -76 -131t-41 -178l-51 -354l-7 -108q-8 -211 153 -211q154 0 213 192q24 78 35 157z" />
    <glyph glyph-name="one" unicode="1" 
d="M919 1459l-245 -1459h-282l192 1109l-353 -107l44 246l607 210z" />
    <glyph glyph-name="two" unicode="2" 
d="M1008 233l-37 -233h-969l33 210l523 491l15 14q62 60 104.5 106.5t78 105t44.5 117.5q3 21 3 41q0 71 -37.5 116.5t-111.5 45.5q-68 0 -118 -34t-79 -90.5t-38 -124.5l-280 -1q8 139 81 249t191.5 171t258.5 61q121 0 217 -43t151 -126t55 -199q0 -13 -2 -39
q-8 -110 -66.5 -210.5t-153.5 -195.5q-60 -60 -166 -162l-298 -268z" />
    <glyph glyph-name="three" unicode="3" 
d="M386 630l36 227l135 -1q101 1 171 56t82 154q2 18 2 27q0 71 -43 112t-120 41q-78 0 -135 -45t-71 -121l-282 -2q7 125 78.5 216.5t187.5 139.5q110 44 229 44q86 0 168 -25.5t153 -80.5q62 -49 91.5 -117t29.5 -143q0 -71 -24 -136.5t-64 -105.5q-80 -80 -180 -128
q89 -43 136 -122.5t47 -178.5q0 -149 -78.5 -255t-212.5 -159q-122 -48 -246 -48q-91 0 -175 28t-151 87q-126 111 -124 306h281q-1 -86 48 -136.5t137 -50.5q62 0 114 26t86 73t42 109q3 23 3 42q0 160 -185 166z" />
    <glyph glyph-name="four" unicode="4" 
d="M38 512l743 944h295l-157 -908h160l-41 -233h-160l-55 -315h-282l55 315h-578zM330 550l307 -2l99 521l-27 -38z" />
    <glyph glyph-name="five" unicode="5" 
d="M154 720l195 736h796l-38 -240h-558l-96 -316q91 56 210 56q124 0 208.5 -57.5t126.5 -154t42 -215.5q0 -18 -2 -54q-11 -141 -81 -254t-184.5 -177.5t-254.5 -64.5q-128 0 -230 54t-160.5 151t-60.5 223h277q4 -86 47.5 -139.5t128.5 -53.5q72 0 123 40t78.5 102.5
t35.5 135.5q2 28 2 42q0 92 -44 149t-139 57q-103 0 -190 -79z" />
    <glyph glyph-name="six" unicode="6" 
d="M971 231q-71 -116 -187 -184t-257 -68q-157 0 -260.5 83t-147.5 223q-30 96 -30 200q0 42 4 75l11 89q31 246 142.5 430.5t287 286.5t395.5 106h58l-22 -239h-13q-192 3 -326.5 -96.5t-211.5 -282.5q63 62 138 91.5t151 29.5q65 0 122 -20.5t96 -55.5q68 -62 101.5 -156
t33.5 -202q0 -18 -2 -54q-12 -140 -83 -256zM371 521q-4 -31 -4 -72q0 -116 45 -181q17 -25 50.5 -39.5t73.5 -14.5q46 0 89 21.5t74 64.5q74 106 74 223q0 66 -25 133q-17 45 -54.5 67t-85.5 22q-34 0 -67.5 -10t-59.5 -28q-60 -40 -97 -98z" />
    <glyph glyph-name="seven" unicode="7" 
d="M1191 1456l-27 -176l-740 -1280h-311l737 1223h-696l37 233h1000z" />
    <glyph glyph-name="eight" unicode="8" 
d="M931.5 176.5q-71.5 -96.5 -185 -146.5t-246.5 -50q-124 0 -225 44t-160 130t-59 206q0 20 1 30q9 128 84.5 218.5t201.5 148.5q-68 52 -102.5 129t-34.5 162q0 94 40.5 180.5t115.5 143.5q69 53 152.5 79.5t170.5 26.5q89 0 170 -27.5t140 -80.5q55 -49 81 -115t26 -139
q0 -69 -22 -133.5t-58 -105.5q-70 -81 -172 -133q162 -111 162 -305q0 -21 -1 -31q-8 -135 -79.5 -231.5zM817 1093q0 66 -34.5 109t-103.5 43q-54 0 -96 -27t-67.5 -72t-31.5 -99q-2 -22 -2 -33q0 -66 34.5 -109t102.5 -43q54 0 96.5 27.5t67.5 73.5t32 100q2 20 2 30z
M736 460q0 75 -42.5 123t-120.5 48q-61 0 -110.5 -29t-80 -79.5t-38.5 -111.5q-2 -22 -2 -32q0 -74 42.5 -120.5t121.5 -46.5q61 0 110 28.5t79.5 77.5t38.5 110q2 22 2 32z" />
    <glyph glyph-name="nine" unicode="9" 
d="M206 -16l22 243h43q361 7 490 358q-63 -58 -133.5 -86t-140.5 -28q-60 0 -113.5 19.5t-93.5 53.5q-71 61 -106.5 154.5t-35.5 202.5q0 18 2 54q12 142 83.5 261.5t187.5 191.5q54 33 120.5 51t134.5 18q77 0 146.5 -23.5t117.5 -69.5q77 -74 116 -183.5t39 -233.5
q0 -38 -5 -85l-14 -107q-32 -232 -137 -409t-279.5 -278.5t-408.5 -103.5h-35zM419 908q0 -90 38.5 -153t124.5 -63q119 0 205 125l17 119q5 37 5 73q0 112 -40 179q-16 26 -48 41t-70 15q-46 0 -88.5 -23.5t-71.5 -72.5q-58 -97 -69 -191q-3 -24 -3 -49z" />
    <glyph glyph-name="colon" unicode=":" horiz-adv-x="571" 
d="M205 1044q21 35 57 54.5t81 19.5q43 0 79 -19t57.5 -53.5t21.5 -78.5q1 -45 -19 -81.5t-56 -57.5t-81 -21q-45 -1 -82 19t-58 56.5t-21 82.5q0 44 21 79zM63 225q21 35 57 54.5t81 19.5q43 0 79 -19t57.5 -53.5t21.5 -78.5q1 -45 -19 -81.5t-56 -57.5t-81 -21
q-45 -1 -82 19t-58 56.5t-21 82.5q0 44 21 79z" />
    <glyph glyph-name="semicolon" unicode=";" horiz-adv-x="531" 
d="M188 1044q21 35 57 54.5t81 19.5q43 0 79 -19t57.5 -53.5t21.5 -78.5q1 -45 -19 -81.5t-56 -57.5t-81 -21q-45 -1 -82 19t-58 56.5t-21 82.5q0 44 21 79zM333 246l-31 -196q-20 -121 -85.5 -229t-164.5 -187l-148 80l94 157q43 75 60 164l37 211h238z" />
    <glyph glyph-name="less" unicode="&#x3c;" horiz-adv-x="1012" 
d="M809 144l-773 366l41 235l900 365l-51 -292l-588 -205l518 -201z" />
    <glyph glyph-name="equal" unicode="=" horiz-adv-x="1137" 
d="M1068 982l-42 -236h-869l42 236h869zM993 549l-41 -235h-870l42 235h869z" />
    <glyph glyph-name="greater" unicode="&#x3e;" horiz-adv-x="1026" 
d="M201 1096l785 -365l-42 -236l-911 -365l51 291l600 208l-530 202z" />
    <glyph glyph-name="question" unicode="?" horiz-adv-x="989" 
d="M567 448l-247 -1q9 123 51.5 213.5t133.5 164.5q17 14 16 13q68 56 103 88.5t57 69.5t30 85q3 20 3 39q0 56 -29.5 89.5t-91.5 33.5q-72 0 -117.5 -48.5t-60.5 -123.5l-283 -2q10 128 73 220t166.5 140t231.5 48q116 0 206.5 -41t141.5 -120t51 -191q0 -22 -1 -33
q-6 -86 -48 -156.5t-96.5 -121.5t-152.5 -129q-103 -82 -132 -211zM248 217q20 36 56 57t81 21q65 0 110.5 -42t47.5 -107q1 -68 -43 -113t-113 -47q-43 0 -79 19t-57.5 53t-22.5 78q0 45 20 81z" />
    <glyph glyph-name="at" unicode="@" horiz-adv-x="1778" 
d="M1066 -367q-70 -46 -163.5 -66t-193.5 -20q-263 0 -424.5 122.5t-217.5 339.5q-30 117 -30 248q0 168 49.5 341.5t144.5 328.5q139 226 348 357.5t466 131.5q249 0 408 -119t217 -327q34 -122 34 -251q0 -118 -26.5 -230t-70.5 -209q-64 -142 -169.5 -223.5t-251.5 -77.5
q-77 1 -136.5 37.5t-80.5 106.5q-64 -73 -133.5 -107.5t-136.5 -34.5q-54 0 -98 21t-70 56q-33 45 -51 108.5t-18 138.5q0 108 36 220q46 144 124 253.5t171 162.5q88 50 198 50q90 0 166 -32q70 -32 139 -79l-138 -578q-8 -44 -8 -70q0 -43 19 -68t66 -25q157 0 237 250
q56 177 56 341q0 135 -38.5 242.5t-108.5 174.5q-54 52 -141 79.5t-188 27.5q-100 0 -198 -27.5t-177 -80.5q-160 -109 -270 -287t-153 -381q-26 -124 -26 -235q0 -129 36 -233.5t109 -177.5q57 -56 141.5 -83.5t184.5 -27.5q83 0 170 18t168 52zM682 323q-2 -28 -2 -40
q0 -56 22.5 -90.5t73.5 -34.5q40 0 78 26.5t66 66.5t42 79l126 475q-39 12 -77 12q-93 0 -158.5 -59.5t-103.5 -158.5q-37 -93 -54 -176z" />
    <glyph glyph-name="A" unicode="A" horiz-adv-x="1338" 
d="M-104 0l778 1456h271l277 -1456h-301l-45 300h-508l-150 -300h-322zM488 543h352l-81 543z" />
    <glyph glyph-name="B" unicode="B" horiz-adv-x="1268" 
d="M1056.5 190q-77.5 -98 -200.5 -144.5t-271 -45.5h-564l253 1456l450 -1q319 -2 444 -161q29 -37 43.5 -86.5t14.5 -104.5q0 -67 -21 -130t-59 -106q-70 -77 -177 -124q86 -32 131 -108t45 -172q0 -18 -1 -27q-10 -148 -87.5 -246zM526 1213l-64 -366l187 -1q107 0 184 45
t93 144q3 21 3 39q0 71 -46.5 103t-133.5 35zM859 487q0 141 -157 147l-276 1l-69 -393l231 -1q103 1 177.5 51.5t89.5 147.5q4 23 4 47z" />
    <glyph glyph-name="C" unicode="C" horiz-adv-x="1301" 
d="M1207 486q-19 -154 -104.5 -268.5t-217.5 -176t-286 -61.5q-197 0 -317.5 98.5t-163.5 269.5q-27 104 -27 214q0 54 8 118l12 95q27 190 115 349.5t228 256.5q67 46 155.5 71t182.5 25q112 0 211 -36.5t164 -109.5q126 -142 139 -371l-292 1q0 129 -51 197.5t-175 73.5
q-232 7 -324 -245q-38 -104 -58 -241.5t-20 -258.5q0 -256 209 -262q131 -5 212.5 62.5t108.5 196.5z" />
    <glyph glyph-name="D" unicode="D" horiz-adv-x="1292" 
d="M21 0l253 1456l418 -1q189 -4 319 -99t188 -256q41 -117 41 -243q0 -47 -6 -97l-5 -42q-26 -209 -127.5 -371t-260 -253t-350.5 -94h-470zM526 1213l-169 -971l122 -1q127 0 219.5 56.5t148.5 154.5t77 225q19 111 19 203q0 170 -73 259q-58 69 -184 73z" />
    <glyph glyph-name="E" unicode="E" horiz-adv-x="1117" 
d="M21 0l253 1456h947l-43 -243h-652l-61 -347h559l-42 -235h-557l-68 -389h656l-42 -242h-950z" />
    <glyph glyph-name="F" unicode="F" horiz-adv-x="1089" 
d="M21 0l253 1456h923l-43 -243h-628l-66 -376h559l-42 -242h-558l-104 -595h-294z" />
    <glyph glyph-name="G" unicode="G" horiz-adv-x="1353" 
d="M1273 765l-91 -582q-88 -110 -244.5 -157.5t-321.5 -44.5q-193 2 -315.5 99.5t-170.5 264.5q-31 105 -31 224q0 60 7 115l12 87q27 194 114.5 354.5t229.5 256.5q68 46 158.5 71t185.5 25q109 0 206 -33.5t162 -98.5q126 -128 143 -355l-282 1q-10 119 -65.5 181
t-175.5 62q-115 0 -193.5 -65.5t-123.5 -177.5q-39 -96 -57.5 -200t-22.5 -186q-2 -38 -2 -62q0 -152 66 -243q27 -38 80 -58.5t118 -20.5q61 0 122 18.5t112 53.5l49 251h-265l39 220h557z" />
    <glyph glyph-name="H" unicode="H" horiz-adv-x="1405" 
d="M881 0l108 624h-565l-109 -624h-294l253 1456h294l-103 -590h566l102 590h293l-252 -1456h-293z" />
    <glyph glyph-name="I" unicode="I" horiz-adv-x="580" 
d="M584 1456l-252 -1456h-293l252 1456h293z" />
    <glyph glyph-name="J" unicode="J" horiz-adv-x="1110" 
d="M844 1456h293l-171 -1008q-19 -137 -90.5 -243.5t-184 -166t-251.5 -59.5q-142 0 -241 54.5t-148.5 156t-45.5 241.5l294 -1q-1 -11 -1 -33q0 -82 34.5 -128.5t119.5 -46.5q90 0 146.5 63t72.5 157z" />
    <glyph glyph-name="K" unicode="K" horiz-adv-x="1262" 
d="M837 0l-260 582l-192 -178l-70 -404h-294l253 1456h294l-112 -641l147 166l439 475h382l-627 -661l374 -795h-334z" />
    <glyph glyph-name="L" unicode="L" horiz-adv-x="1076" 
d="M975 242l-43 -242h-911l253 1456h294l-211 -1214h618z" />
    <glyph glyph-name="M" unicode="M" horiz-adv-x="1740" 
d="M829 403l544 1053h389l-253 -1456h-294l72 415l142 646l-557 -1061h-201l-195 1098l-95 -717l-66 -381h-294l253 1456h377z" />
    <glyph glyph-name="N" unicode="N" horiz-adv-x="1404" 
d="M1425 1456l-252 -1456h-284l-405 972l-169 -972h-294l253 1456h284l405 -973l169 973h293z" />
    <glyph glyph-name="O" unicode="O" horiz-adv-x="1372" 
d="M1305 689q-27 -192 -117.5 -354t-235.5 -259q-70 -47 -157.5 -71.5t-178.5 -24.5q-97 0 -184 28t-147 82q-95 85 -143 213.5t-48 277.5q0 61 7 114l8 66q27 191 118 355t236 263q71 48 158.5 72.5t178.5 24.5q98 0 185 -28t147 -81q95 -86 142.5 -215t47.5 -279
q0 -46 -7 -113zM964 1155.5q-56 73.5 -176 73.5q-117 0 -197.5 -69t-127.5 -187q-37 -95 -54.5 -203.5t-17.5 -213.5q0 -40 1 -59q4 -123 60.5 -197t176.5 -74q115 0 195 68.5t127 186.5q38 97 56 209t18 224q0 31 -1 46q-4 122 -60 195.5z" />
    <glyph glyph-name="P" unicode="P" horiz-adv-x="1282" 
d="M405 514l-90 -514h-294l253 1456l534 -1q134 -4 240 -56t167 -148t61 -225q0 -13 -2 -43q-12 -154 -95.5 -260t-213.5 -158t-283 -52zM526 1213l-80 -457l243 -2q115 1 194.5 59t94.5 168q3 24 3 45q0 82 -46 132t-133 54z" />
    <glyph glyph-name="Q" unicode="Q" horiz-adv-x="1372" 
d="M1157 -104l-199 -156l-254 248q-63 -7 -96 -7q-195 0 -317 102t-169 276q-30 109 -30 226q0 45 7 110l8 66q27 191 118.5 355.5t235.5 262.5q71 48 158.5 72.5t178.5 24.5q97 0 184 -28t147 -81q95 -85 142.5 -212.5t47.5 -276.5q0 -60 -7 -115l-8 -67
q-26 -191 -111 -347.5t-236 -253.5zM961.5 1156q-55.5 73 -176.5 73q-115 0 -194 -67t-126 -182q-76 -188 -76 -418q0 -42 1 -64q6 -124 61.5 -198t176.5 -74q113 0 192 66t126 181q78 192 78 430q0 38 -1 57q-6 123 -61.5 196z" />
    <glyph glyph-name="R" unicode="R" horiz-adv-x="1268" 
d="M817 0l-171 534h-238l-93 -534h-294l253 1456l511 -1q132 -4 236 -47.5t164.5 -130t60.5 -214.5q0 -26 -1 -39q-21 -299 -319 -416l204 -592v-16h-313zM526 1213l-76 -437l217 -2q112 1 189.5 60t92.5 167q4 23 4 49q0 156 -177 162z" />
    <glyph glyph-name="S" unicode="S" horiz-adv-x="1221" 
d="M825 427q0 47 -25 78q-35 44 -186 102q-155 60 -246.5 122.5t-136.5 141.5q-20 34 -30.5 78t-10.5 92q0 71 24 138t74 119q83 87 205 132.5t252 45.5q140 0 251 -53.5t173.5 -155.5t60.5 -241h-292q5 114 -47.5 164t-136.5 50q-45 0 -92 -13t-83 -31q-48 -25 -73.5 -67.5
t-25.5 -87.5q0 -24 8 -45.5t22 -35.5q34 -34 79 -55t116 -47q131 -48 221 -107.5t142 -142.5q22 -37 34 -85t12 -101q0 -75 -24 -146.5t-71 -122.5q-79 -87 -199 -130.5t-254 -43.5q-151 0 -272.5 56.5t-190.5 165.5t-66 259l293 -1l-1 -24q0 -217 238 -217q93 0 165.5 42.5
t88.5 128.5q4 19 4 38z" />
    <glyph glyph-name="T" unicode="T" horiz-adv-x="1229" 
d="M144 1213l43 243h1151l-43 -243h-431l-210 -1213h-293l210 1213h-427z" />
    <glyph glyph-name="U" unicode="U" horiz-adv-x="1308" 
d="M1051 1456h294l-164 -959q-21 -158 -102.5 -275t-210 -180t-287.5 -63q-145 0 -255.5 54.5t-172 156t-61.5 238.5q0 37 4 68l163 960h294l-163 -961q-4 -28 -4 -61q0 -98 51 -155t160 -57q119 0 193.5 73t95.5 195z" />
    <glyph glyph-name="V" unicode="V" horiz-adv-x="1299" 
d="M1433 1456l-720 -1456h-305l-262 1456h314l147 -1091l490 1091h336z" />
    <glyph glyph-name="W" unicode="W" horiz-adv-x="1738" 
d="M1845 1456l-540 -1456h-295l-77 970l-381 -970h-295l-87 1456h286l29 -1027l392 1027h249l70 -1030l351 1030h298z" />
    <glyph glyph-name="X" unicode="X" horiz-adv-x="1263" 
d="M495 1456l185 -499l342 499h352l-534 -736l301 -720h-324l-191 508l-350 -508h-357l548 748l-293 708h321z" />
    <glyph glyph-name="Y" unicode="Y" horiz-adv-x="1229" 
d="M463 1456l178 -654l406 654h337l-637 -945l-88 -511h-297l95 545l-303 910z" />
    <glyph glyph-name="Z" unicode="Z" horiz-adv-x="1205" 
d="M176 1213l43 243h1061l-33 -187l-869 -1025l707 -2l-42 -242h-1077l33 191l872 1020z" />
    <glyph glyph-name="bracketleft" unicode="[" horiz-adv-x="553" 
d="M708 1695l-35 -223h-139l-248 -1589h139l-35 -222h-422l318 2034h422z" />
    <glyph glyph-name="backslash" unicode="\" horiz-adv-x="839" 
d="M470 -125l-316 1581h275l316 -1581h-275z" />
    <glyph glyph-name="bracketright" unicode="]" horiz-adv-x="553" 
d="M147 1472l35 223h422l-318 -2034h-422l35 222h139l249 1589h-140z" />
    <glyph glyph-name="asciicircum" unicode="^" horiz-adv-x="869" 
d="M58 729l417 727h205l163 -727h-211l-88 453l-248 -453h-238z" />
    <glyph glyph-name="underscore" unicode="_" horiz-adv-x="888" 
d="M781 0l-39 -226h-886l40 226h885z" />
    <glyph glyph-name="grave" unicode="`" horiz-adv-x="658" 
d="M495 1536l142 -309l-211 1l-223 306z" />
    <glyph glyph-name="a" unicode="a" horiz-adv-x="1065" 
d="M626 0q-13 38 -11 98q-59 -59 -129.5 -88.5t-143.5 -29.5q-66 0 -127.5 23t-107.5 66q-46 41 -68.5 99.5t-22.5 123.5t22.5 125.5t63.5 100.5q76 75 192.5 109.5t248.5 34.5l132 -2l15 66q4 28 4 41q0 57 -31.5 89.5t-95.5 32.5q-135 0 -161 -131l-283 -1q6 115 76.5 194
t185.5 118q107 35 205 35q80 0 155 -25t136 -79q96 -85 96 -230q0 -22 -3 -48l-78 -484l-10 -97q-1 -9 -1 -26q0 -52 19 -96l-1 -19h-277zM621 305l35 188l-96 1q-97 -1 -171 -44.5t-86 -132.5q-2 -14 -2 -21q0 -44 29 -70t78 -27q121 -4 213 106z" />
    <glyph glyph-name="b" unicode="b" horiz-adv-x="1118" 
d="M301 117l-41 -117h-258l266 1536h284l-108 -552q56 59 126.5 88.5t143.5 29.5q66 0 124.5 -23t95.5 -65q60 -66 88 -162t28 -206q0 -42 -5 -92l-2 -16q-46 -338 -231 -484q-94 -74 -235 -74q-183 0 -276 137zM418 756l-77 -431q20 -57 65.5 -84.5t101.5 -27.5q40 0 77 13
t61 34q89 81 114 273q8 74 8 129q0 96 -31 150q-31 57 -121 57q-117 0 -198 -113z" />
    <glyph glyph-name="c" unicode="c" horiz-adv-x="1037" 
d="M611 255.5q51 43.5 66 117.5l266 1q-8 -118 -75 -209t-172 -139.5t-224 -46.5q-138 3 -233.5 67.5t-142.5 172t-47 239.5q0 34 3 67l3 29q16 151 84.5 276t184.5 198.5t268 73.5q128 0 221 -53.5t141.5 -149.5t46.5 -221h-264q1 85 -37.5 138.5t-122.5 53.5
q-133 0 -190 -127t-57 -309l1 -41q5 -181 155 -181q74 0 125 43.5z" />
    <glyph glyph-name="d" unicode="d" horiz-adv-x="1120" 
d="M655 0l16 116q-60 -70 -134 -103.5t-150 -33.5q-65 0 -123 24.5t-96 66.5q-62 69 -91.5 167t-29.5 206q0 46 4 82l2 16q45 329 229 480q47 39 109 60t128 21q78 0 147.5 -30t117.5 -89l106 553h283l-266 -1536h-252zM336 526q-6 -56 -6 -92q0 -103 34 -162
q32 -57 118 -57q111 0 197 110l77 433q-21 57 -65 85t-98 28q-39 0 -75 -13t-59 -36q-51 -48 -81 -121.5t-40 -153.5z" />
    <glyph glyph-name="e" unicode="e" horiz-adv-x="1074" 
d="M937 174q-65 -95 -177 -144.5t-236 -49.5q-140 0 -246.5 61.5t-164.5 169t-58 242.5q0 16 2 48l3 40q15 153 87 281.5t190 205.5q54 35 126 55t148 20q104 0 192 -40t139 -125q78 -128 78 -290q0 -42 -4 -78l-16 -123h-664q-3 -103 52 -168t159 -65q143 0 260 119z
M450 807q-57 -63 -93 -163h388l6 25q3 21 3 41q0 72 -40.5 116t-117.5 44q-89 0 -146 -63z" />
    <glyph glyph-name="f" unicode="f" horiz-adv-x="712" 
d="M722 871h-208l-151 -871h-284l152 871h-157l37 211l156 1l12 93q15 118 71 204t146.5 132.5t208.5 46.5q62 0 164 -21l-25 -225q-48 13 -88 13q-70 0 -124 -39q-53 -39 -67 -117l-15 -88h209z" />
    <glyph glyph-name="g" unicode="g" horiz-adv-x="1135" 
d="M934 37q-20 -144 -95.5 -248.5t-193.5 -159.5t-263 -55q-116 0 -222 44.5t-177 129.5l140 172q49 -63 114 -93t134 -30q51 0 98 16t81 44q74 61 103 168l18 71q-57 -58 -127 -86.5t-142 -28.5q-66 0 -124.5 23t-97.5 65q-65 69 -97 169t-32 210q0 44 4 77l2 22
q18 144 79 271t162 206q105 83 260 78q169 -1 258 -124l37 105l259 -1zM333 453q0 -116 42 -182q35 -56 123 -56q111 0 195 99l84 456q-21 47 -67 73.5t-102 26.5q-54 0 -103.5 -25t-80.5 -73q-66 -103 -87 -246q-4 -46 -4 -73z" />
    <glyph glyph-name="h" unicode="h" horiz-adv-x="1113" 
d="M415 772l-137 -772h-282l266 1536h283l-112 -573q61 69 140.5 104.5t159.5 35.5t144 -34t95 -97q50 -103 50 -225q0 -32 -3 -65l-114 -682h-283l115 686q3 26 3 48q0 64 -31.5 99t-105.5 35q-107 0 -188 -96z" />
    <glyph glyph-name="i" unicode="i" horiz-adv-x="527" 
d="M257 1437.5q20 35.5 56.5 55.5t81.5 20q66 0 111 -40.5t47 -105.5q0 -45 -21 -80.5t-58 -55t-82 -19.5q-42 0 -77 18t-56 51.5t-21 75.5q-1 45 19 80.5zM490 1082l-188 -1082h-284l188 1082h284z" />
    <glyph glyph-name="j" unicode="j" horiz-adv-x="517" 
d="M253 1437.5q20 35.5 56 55.5t81 20q66 0 111 -40.5t47 -105.5q0 -45 -20.5 -80.5t-56.5 -55t-80 -19.5q-43 0 -78.5 18t-57 51.5t-21.5 75.5q-1 45 19 80.5zM206 1082h284l-194 -1142q-22 -175 -126 -277.5t-279 -102.5q-57 0 -154 19l23 230q54 -12 91 -12
q135 0 160 148z" />
    <glyph glyph-name="k" unicode="k" horiz-adv-x="1061" 
d="M662 0l-192 431l-130 -113l-55 -318h-282l266 1537h283l-145 -833l56 59l319 319h361l-471 -464l300 -618h-310z" />
    <glyph glyph-name="l" unicode="l" horiz-adv-x="527" 
d="M568 1536l-266 -1536h-284l267 1536h283z" />
    <glyph glyph-name="m" unicode="m" horiz-adv-x="1720" 
d="M420 767l-135 -767h-283l187 1082l264 1l-22 -122q126 141 308 141q94 0 165.5 -40.5t97.5 -124.5q70 83 159 124.5t178 41.5q81 0 145.5 -34t94.5 -95q47 -95 47 -218q0 -32 -3 -67l-115 -689h-283l116 692q3 24 3 47q0 62 -27.5 96t-95.5 34q-112 0 -195 -120l-4 -27
l-126 -722h-282l116 689q3 26 3 48q0 63 -29 97t-98 34q-103 0 -186 -101z" />
    <glyph glyph-name="n" unicode="n" horiz-adv-x="1113" 
d="M414 765l-135 -765h-282l188 1082l262 1l-22 -127q64 72 147.5 109.5t166.5 37.5q81 0 145.5 -34t92.5 -96q46 -99 46 -220q0 -31 -3 -64l-115 -689h-283l116 692q3 23 3 44q0 63 -29.5 97t-98.5 35q-110 4 -199 -103z" />
    <glyph glyph-name="o" unicode="o" horiz-adv-x="1123" 
d="M145 828q75 131 195 202.5t269 71.5q143 0 243 -65t151 -175t51 -246q0 -31 -3 -63q-15 -161 -86 -291.5t-191 -206t-275 -75.5q-142 0 -243.5 63.5t-153 172.5t-51.5 243q0 32 3 65q16 173 91 304zM337 523q-3 -37 -3 -72q0 -126 49 -190q17 -22 52.5 -36t77.5 -14
q53 0 101.5 25t78.5 79q79 140 79 311q0 36 -3 64q-7 81 -48 130.5t-123 49.5t-136.5 -47.5t-84.5 -127.5q-29 -78 -38 -150z" />
    <glyph glyph-name="p" unicode="p" horiz-adv-x="1118" 
d="M312 97l-99 -513h-283l259 1498l260 1l-17 -108q57 64 129.5 95.5t148.5 31.5q67 0 126 -23.5t97 -64.5q60 -66 88 -162.5t28 -206.5q0 -50 -4 -89l-3 -22q-16 -141 -74 -267.5t-154 -206.5q-97 -81 -243 -81q-162 0 -259 118zM420 764l-81 -446q21 -54 65 -80t98 -26
q40 0 77 13t61 36q50 47 79.5 120t40.5 153q7 72 7 117q0 101 -34 160q-34 57 -122 57q-113 0 -191 -104z" />
    <glyph glyph-name="q" unicode="q" horiz-adv-x="1122" 
d="M1095 1082l-260 -1498h-284l101 510q-56 -57 -125 -85.5t-140 -28.5q-66 0 -124 23.5t-96 66.5q-61 69 -90 167t-29 207q0 47 4 83q47 363 246 507q45 32 104.5 50.5t122.5 18.5q82 0 154.5 -33t118.5 -101l45 114zM336 528q-6 -56 -6 -93q0 -104 34 -164q31 -58 118 -58
q113 0 195 105l82 451q-21 52 -64.5 77t-97.5 25q-40 0 -76.5 -13t-60.5 -35q-51 -47 -81 -120t-41 -154z" />
    <glyph glyph-name="r" unicode="r" horiz-adv-x="726" 
d="M411 710l-126 -710h-283l188 1082l265 1l-25 -132q103 154 252 154q42 -2 97 -15l-35 -278q-73 10 -96 10q-152 3 -237 -112z" />
    <glyph glyph-name="s" unicode="s" horiz-adv-x="1022" 
d="M632 325q0 58 -87 88l-93 26q-149 38 -243 110t-94 199q0 115 66.5 196t177.5 122q101 37 203 37q162 0 288 -89q124 -87 125 -262l-280 1q1 141 -138 142q-61 0 -111.5 -32t-61.5 -90q-1 -6 -1 -16q0 -34 26 -54.5t52 -29t83 -22.5q104 -25 183 -62.5t128 -97.5
q24 -30 37 -72t13 -89q0 -59 -20 -114t-59 -94q-70 -70 -172 -106t-210 -36q-115 0 -213.5 43t-159 126.5t-62.5 197.5l267 -2q3 -157 169 -157q67 0 120 29t65 89q2 7 2 19z" />
    <glyph glyph-name="t" unicode="t" horiz-adv-x="671" 
d="M540 6q-76 -26 -152 -26q-68 0 -125 22t-93 71q-56 76 -56 185q0 14 2 42l93 571h-154l37 211h153l47 267h283l-47 -267h179l-37 -211h-178l-93 -543q-2 -22 -2 -32q0 -39 19.5 -57t69.5 -18q31 0 74 6z" />
    <glyph glyph-name="u" unicode="u" horiz-adv-x="1113" 
d="M642 0l22 113q-58 -65 -137 -99t-160 -34q-80 0 -146 32t-100 91q-57 98 -57 223q0 28 3 56l117 700h282l-119 -703q-3 -19 -3 -38q0 -58 29 -92t94 -34q124 0 208 102l134 765h284l-188 -1082h-263z" />
    <glyph glyph-name="v" unicode="v" horiz-adv-x="1005" 
d="M1070 1082l-523 -1082h-269l-186 1082h287l80 -723l307 723h304z" />
    <glyph glyph-name="w" unicode="w" horiz-adv-x="1460" 
d="M1517 1082l-454 -1082h-236l-81 678l-316 -678h-236l-80 1082h264l18 -681l308 681h204l72 -686l256 686h281z" />
    <glyph glyph-name="x" unicode="x" horiz-adv-x="1012" 
d="M403 1082l120 -320l227 320h317l-392 -543l220 -539h-285l-135 339l-238 -339h-319l408 568l-210 514h287z" />
    <glyph glyph-name="y" unicode="y" horiz-adv-x="998" 
d="M451 -163q-60 -130 -150 -204t-222 -74q-52 2 -135 22l22 220l39 -3q146 -2 210 117l54 100l-177 1067h292l77 -671l310 671h313z" />
    <glyph glyph-name="z" unicode="z" horiz-adv-x="1012" 
d="M128 849l41 233h843l-32 -185l-609 -662l509 -2l-41 -233h-873l33 191l605 656z" />
    <glyph glyph-name="braceleft" unicode="{" horiz-adv-x="657" 
d="M171 311q3 26 3 49q0 68 -31.5 107.5t-104.5 45.5l19 207q185 8 215 223l32 229q58 325 404 429l47 -166q-92 -36 -139 -116t-63 -194l-27 -196q-27 -214 -226 -316q63 -47 94 -114.5t31 -148.5q0 -13 -2 -41l-27 -204q-8 -53 -8 -101q0 -71 24 -122.5t85 -80.5l-64 -160
q-144 48 -219 152t-75 249q0 20 4 64z" />
    <glyph glyph-name="bar" unicode="|" horiz-adv-x="503" 
d="M473 1456l-270 -1726h-172l270 1726h172z" />
    <glyph glyph-name="braceright" unicode="}" horiz-adv-x="657" 
d="M490 928q-3 -25 -3 -49q0 -69 31.5 -109t104.5 -46l-19 -207q-186 -8 -215 -221l-31 -223q-59 -334 -405 -437l-47 167q92 34 138.5 113t62.5 189l29 212q30 209 230 307q-65 46 -97.5 114.5t-32.5 150.5q0 14 2 40l27 204q8 53 8 101q0 71 -24 122.5t-85 80.5l64 158
q143 -48 218 -151.5t75 -248.5q0 -30 -3 -63z" />
    <glyph glyph-name="asciitilde" unicode="~" horiz-adv-x="1289" 
d="M1206 795q-7 -107 -49 -203.5t-116 -156.5q-75 -61 -181 -61q-42 0 -80.5 9.5t-67.5 26.5q-62 34 -116 91q-57 57 -86.5 74.5t-65.5 17.5q-67 0 -104.5 -52.5t-51.5 -127.5l-209 3q7 107 49 202t116 153q36 28 81.5 43.5t96.5 15.5q70 0 140.5 -32t134.5 -100
q37 -40 71 -63.5t74 -23.5q68 0 107.5 54.5t50.5 128.5z" />
    <glyph glyph-name="uni00A0" unicode="&#xa0;" horiz-adv-x="505" 
 />
    <glyph glyph-name="exclamdown" unicode="&#xa1;" horiz-adv-x="562" 
d="M480 874q-20 -36 -55.5 -57.5t-79.5 -21.5q-44 -1 -80 17.5t-57.5 53t-21.5 78.5q-1 44 18.5 80t55.5 57.5t81 21.5q43 1 79 -17.5t57.5 -53.5t22.5 -78q0 -44 -20 -80zM-37 -369l208 1008h235l-142 -1008h-301z" />
    <glyph glyph-name="cent" unicode="&#xa2;" horiz-adv-x="1144" 
d="M971 375q-7 -106 -60 -186.5t-139 -130.5t-191 -69l-49 -234h-196l50 236q-157 35 -231 159.5t-74 293.5q0 44 4 80l3 29q17 141 75.5 255.5t159 189.5t238.5 96l47 224h196l-47 -227q142 -35 212 -147.5t67 -265.5h-263q1 85 -36.5 138.5t-121.5 53.5q-87 0 -141.5 -55
t-84.5 -166q-30 -109 -28 -256q0 -182 152 -182q74 0 125.5 44t67.5 118z" />
    <glyph glyph-name="sterling" unicode="&#xa3;" horiz-adv-x="1181" 
d="M2 0l25 242l93 -4q52 21 74.5 67t33.5 117l20 155h-158l41 235h151l27 227q15 129 80 228t169.5 153.5t233.5 54.5q131 0 225 -50.5t142 -145t45 -221.5l-279 1q3 80 -29.5 128t-111.5 48q-76 0 -123 -57t-59 -138l-27 -228h301l-41 -235h-291l-16 -139
q-15 -114 -101 -200l639 4l-44 -242h-1020z" />
    <glyph glyph-name="currency" unicode="&#xa4;" horiz-adv-x="1375" 
d="M1222 104l-149 -131l-100 133q-88 -63 -182.5 -94.5t-186.5 -31.5q-94 0 -178.5 32t-152.5 94l-154 -132l-122 158l154 126q-43 139 -43 264q0 260 177 455l-115 157l148 130l109 -143q171 112 341 112q197 0 334 -116l170 148l123 -159l-168 -138q46 -141 46 -273
q0 -249 -162 -440zM290 533q0 -96 38 -179.5t112 -134.5t175 -51q118 0 219.5 61.5t169.5 166.5q42 63 65.5 136.5t23.5 149.5q0 119 -62 225q-43 72 -112 106t-150 34q-58 0 -114.5 -16t-102.5 -44q-103 -63 -171.5 -166.5t-85.5 -221.5q-5 -37 -5 -66z" />
    <glyph glyph-name="yen" unicode="&#xa5;" horiz-adv-x="1065" 
d="M898 279h-279l-49 -279h-292l49 279h-297l30 173h296l21 116h-297l30 174h245l-190 714h292l120 -562l315 562h319l-439 -712l208 -2l-33 -174h-278l-20 -116h280z" />
    <glyph glyph-name="brokenbar" unicode="&#xa6;" horiz-adv-x="501" 
d="M526 1456l-132 -758h-254l132 758h254zM227 -270h-255l139 795h254z" />
    <glyph glyph-name="section" unicode="&#xa7;" horiz-adv-x="1248" 
d="M914 -293q-80 -87 -210 -125q-120 -36 -240 -36q-203 0 -351 102q-143 98 -139 317h280q-5 -183 218 -183q90 0 161.5 33.5t87.5 111.5q2 8 2 23q0 86 -133 130l-102 34q-120 38 -210.5 86.5t-145.5 120.5q-26 35 -39.5 80t-13.5 94q0 57 17 111t48 91q56 68 142 115
q-43 51 -64.5 114t-21.5 130q0 75 25.5 143.5t70.5 114.5q79 81 196.5 121.5t244.5 40.5q142 0 249 -47.5t166 -143.5t56 -236h-280q4 106 -47 151.5t-134 45.5q-42 0 -85.5 -10t-79.5 -24q-48 -20 -73.5 -60.5t-25.5 -85.5q0 -24 7.5 -43.5t21.5 -32.5q37 -36 97 -54
l106 -33q121 -36 212.5 -84.5t146.5 -122.5q26 -35 39 -80.5t13 -94.5q0 -57 -17 -110.5t-47 -90.5q-56 -68 -142 -115q84 -97 84 -243q0 -22 -1 -33q-9 -135 -89 -222zM723 311q100 62 116 150q3 15 3 28q0 48 -37.5 81.5t-111.5 61.5l-215 74q-55 -34 -83 -82.5t-28 -96.5
q0 -49 26 -77q37 -40 99 -62z" />
    <glyph glyph-name="dieresis" unicode="&#xa8;" horiz-adv-x="927" 
d="M227 1430q18 30 49 47t67 17t67.5 -16.5t50 -46.5t18.5 -67q0 -35 -18 -64t-48.5 -45.5t-66.5 -16.5q-55 0 -95 35.5t-42 89.5q0 37 18 67zM699.5 1428q17.5 30 48.5 47.5t67 17.5q55 0 95.5 -35.5t42.5 -89.5q0 -37 -18 -67t-49 -47t-67 -17q-55 0 -95 35.5t-42 89.5
q0 36 17.5 66z" />
    <glyph glyph-name="copyright" unicode="&#xa9;" horiz-adv-x="1559" 
d="M232.5 1094.5q108.5 173.5 279.5 279.5q82 51 176 77t189 26q99 0 190 -28.5t162 -82.5q123 -95 189.5 -240t66.5 -311q0 -44 -4 -80q-21 -198 -129.5 -371.5t-279.5 -280.5q-82 -52 -175.5 -78t-189.5 -26q-99 0 -190.5 28.5t-161.5 83.5q-123 95 -189.5 240t-66.5 311
q0 44 4 80q21 199 129.5 372.5zM218 630q0 -129 48.5 -242t140.5 -189q55 -46 130.5 -70t158.5 -24q80 0 158.5 21.5t147.5 64.5q145 89 240 234t118 311q6 47 6 92q0 129 -48.5 242t-139.5 188q-56 46 -130.5 70t-158.5 24q-79 0 -158 -21.5t-148 -64.5
q-146 -89 -241 -233.5t-118 -310.5q-6 -46 -6 -92zM1078 597q-10 -148 -98 -231.5t-236 -83.5q-101 0 -171.5 47t-105.5 126t-35 175q0 26 1 39l12 119q11 106 57.5 194.5t127.5 141t188 52.5q98 0 168.5 -38.5t106.5 -110t35 -168.5l-152 2q1 8 1 25q0 76 -35.5 116
t-116.5 40q-98 0 -155.5 -73.5t-71.5 -179.5l-14 -121q-3 -25 -3 -52q0 -84 33.5 -140t111.5 -59q168 -7 200 179z" />
    <glyph glyph-name="ordfeminine" unicode="&#xaa;" horiz-adv-x="882" 
d="M620 702l-3 72q-91 -83 -201 -83q-67 0 -118.5 26.5t-80.5 76t-29 115.5q0 92 52.5 147t141.5 76q79 19 161 19l106 -2l12 55q4 26 4 38q0 86 -91 86q-110 0 -137 -99l-173 13q5 77 48.5 130t111 79t145.5 26q79 0 139 -31t93 -88t33 -133q0 -16 -1 -25l-53 -347l-4 -59
q-1 -43 8 -92h-164zM610 896l28 137h-83q-71 -3 -126 -30.5t-66 -87.5q-2 -12 -2 -18q0 -61 88 -64q70 0 161 63z" />
    <glyph glyph-name="guillemotleft" unicode="&#xab;" horiz-adv-x="1002" 
d="M276 123l-217 389v21l330 391h204l-315 -416l160 -382zM650 123l-217 389v21l330 391h204l-315 -416l160 -382z" />
    <glyph glyph-name="logicalnot" unicode="&#xac;" horiz-adv-x="1095" 
d="M157 805h812l-75 -431h-196l46 260h-617z" />
    <glyph glyph-name="uni00AD" unicode="&#xad;" horiz-adv-x="771" 
d="M679 741l-41 -234h-548l42 234h547z" />
    <glyph glyph-name="registered" unicode="&#xae;" horiz-adv-x="1559" 
d="M232.5 1094q108.5 173 279.5 279q83 51 177 77t190 26q99 0 190 -28t160 -82q123 -95 189.5 -240t66.5 -311q0 -44 -4 -80q-21 -198 -129.5 -371.5t-279.5 -280.5q-82 -52 -175.5 -78t-189.5 -26q-99 0 -190.5 28.5t-161.5 83.5q-123 95 -189.5 240t-66.5 311q0 44 4 80
q21 199 129.5 372zM217 628q0 -128 49.5 -240.5t140.5 -188.5q55 -46 130.5 -70t158.5 -24q80 0 158.5 21.5t147.5 64.5q145 89 240 234t118 311q6 47 6 92q0 129 -48.5 242t-139.5 188q-56 46 -130.5 70t-158.5 24q-79 0 -158 -21.5t-148 -64.5q-146 -89 -241 -233.5
t-118 -310.5q-7 -54 -7 -94zM642 653l-53 -337h-149l134 850l256 -1q80 -2 145.5 -28.5t105 -79.5t39.5 -132q0 -69 -35 -115.5t-101 -85.5q73 -53 73 -170q0 -13 -2 -39q-10 -86 -8 -119l4 -63l-1 -19l-148 1q-4 24 -4 55q0 53 12 146q2 22 2 32q0 49 -24 74.5t-79 28.5z
M701 1033l-38 -246l115 -1q71 3 128 32.5t70 90.5q3 18 3 32q0 50 -36 69t-101 22z" />
    <glyph glyph-name="macron" unicode="&#xaf;" horiz-adv-x="995" 
d="M967 1455l-26 -167h-672l27 167h671z" />
    <glyph glyph-name="degree" unicode="&#xb0;" horiz-adv-x="772" 
d="M264 1328.5q37 67.5 100.5 108t139.5 40.5q70 0 126 -36t87.5 -96t31.5 -129q0 -75 -36 -141t-98.5 -106.5t-137.5 -40.5q-70 0 -127 35t-90 94.5t-33 127.5q0 76 37 143.5zM368 1177q0 -41 26.5 -71t67.5 -30q54 0 95.5 38.5t49.5 92.5q1 6 1 19q0 42 -24.5 72t-66.5 31
q-35 0 -67.5 -19t-54 -50.5t-26.5 -66.5q-1 -5 -1 -16z" />
    <glyph glyph-name="plusminus" unicode="&#xb1;" horiz-adv-x="1068" 
d="M992 702h-318l-57 -365h-249l58 365h-325l38 241h324l54 343h248l-54 -343h319zM892 237l-38 -236h-839l37 236h840z" />
    <glyph glyph-name="uni00B2" unicode="&#xb2;" horiz-adv-x="750" 
d="M715 831l-30 -164h-603l26 150l314 252q69 59 95 92q15 18 26.5 44t11.5 48q0 54 -70 54q-48 0 -79 -32t-42 -81l-203 -2q4 83 46 146t111.5 97.5t152.5 34.5q78 0 142.5 -25.5t103.5 -78.5t39 -131q0 -70 -35.5 -126.5t-84 -96.5t-127.5 -94l-130 -85z" />
    <glyph glyph-name="uni00B3" unicode="&#xb3;" horiz-adv-x="750" 
d="M331 1001l26 137h70q51 3 89.5 25.5t48.5 69.5q2 10 2 15q0 27 -23 41t-55 15q-80 0 -108 -61l-207 -2q4 76 45.5 127t106 76t140.5 25q75 0 143.5 -21.5t113 -69.5t44.5 -123q0 -70 -42.5 -113t-117.5 -76q60 -20 88.5 -64.5t28.5 -100.5q0 -42 -15.5 -82t-39.5 -64
q-49 -49 -121.5 -74t-148.5 -25q-84 0 -151.5 27.5t-108 83.5t-42.5 138l194 -1q6 -81 102 -81q49 0 88 24t48 69q2 14 2 20q0 33 -26 48t-67 16z" />
    <glyph glyph-name="acute" unicode="&#xb4;" horiz-adv-x="660" 
d="M187 1227l239 309h327l-318 -309h-248z" />
    <glyph glyph-name="uni00B5" unicode="&#xb5;" horiz-adv-x="1223" 
d="M327 26l-87 -442h-282l260 1498h282l-103 -621q-6 -58 -6 -89q0 -72 29.5 -114.5t105.5 -42.5q125 0 210 103l135 764h283l-188 -1082h-249l9 69q-106 -91 -227 -91q-95 0 -172 48z" />
    <glyph glyph-name="paragraph" unicode="&#xb6;" horiz-adv-x="974" 
d="M741 0h-215l91 520l-61 1q-126 3 -220.5 54.5t-145.5 143t-51 211.5q0 33 2 50q13 145 86.5 253t191.5 166t262 58l313 -1z" />
    <glyph glyph-name="periodcentered" unicode="&#xb7;" horiz-adv-x="598" 
d="M174 777.5q21 35.5 57 55.5t81 20q66 0 111.5 -42t47.5 -109q0 -45 -20 -81.5t-56 -57.5t-81 -21q-44 -1 -81 18.5t-58.5 56t-21.5 81.5q0 44 21 79.5z" />
    <glyph glyph-name="cedilla" unicode="&#xb8;" horiz-adv-x="533" 
d="M12 6l210 3l-20 -64q125 -26 125 -162q0 -94 -56.5 -148.5t-150.5 -76.5q-90 -20 -166 -23l8 169q114 7 129 89q1 5 1 13q0 32 -29 42.5t-57.5 12.5t-36.5 3z" />
    <glyph glyph-name="uni00B9" unicode="&#xb9;" horiz-adv-x="750" 
d="M653 1455l-128 -788h-199l94 544l-191 -40l30 168l368 115z" />
    <glyph glyph-name="ordmasculine" unicode="&#xba;" horiz-adv-x="909" 
d="M201 1120q10 101 58 182t128 128t181 47q96 0 166 -43t106.5 -117t36.5 -166q0 -20 -1 -30l-7 -77q-10 -101 -57.5 -181.5t-127 -127t-180.5 -46.5q-96 0 -166 43t-107 117t-37 165q0 20 1 30zM367 1041q-2 -24 -2 -36q0 -75 31 -123t105 -48q81 0 131.5 61.5t63.5 148.5
l9 78q2 26 2 38q0 74 -31.5 121.5t-105.5 47.5q-82 0 -132 -60.5t-62 -147.5z" />
    <glyph glyph-name="guillemotright" unicode="&#xbb;" horiz-adv-x="1002" 
d="M306 926l218 -389v-21l-332 -391h-202l315 416l-161 382zM687 926l218 -389v-21l-332 -391h-202l315 416l-161 382z" />
    <glyph glyph-name="onequarter" unicode="&#xbc;" horiz-adv-x="1436" 
d="M617 1452l-128 -788h-199l95 544l-191 -40l30 168l368 115zM1249 1245l-876 -1126l-138 85l878 1124zM1273 160h-85l-28 -160h-202l28 160h-333l13 150l419 479h212l-80 -462h85zM865 329l152 -3l44 215l-18 -25z" />
    <glyph glyph-name="onehalf" unicode="&#xbd;" horiz-adv-x="1522" 
d="M602 1458l-128 -788h-199l95 544l-191 -40l30 168l368 115zM1209 1245l-876 -1126l-138 85l878 1124zM1360 164l-30 -164h-603l26 150l318 256q66 57 91.5 88.5t32.5 67.5q3 14 3 24q0 54 -68 54q-49 0 -79.5 -31.5t-41.5 -81.5l-203 -2q4 83 46 146t111.5 97.5
t152.5 34.5q78 0 142.5 -25.5t103.5 -78.5t39 -131q0 -70 -35.5 -126.5t-84 -96.5t-127.5 -94l-130 -85z" />
    <glyph glyph-name="threequarters" unicode="&#xbe;" horiz-adv-x="1615" 
d="M377 1001l25 137h71q51 3 89.5 25.5t48.5 69.5q1 5 1 13q0 28 -22 42.5t-55 15.5q-80 0 -108 -61l-207 -2q4 76 45.5 127t106 76t140.5 25q74 0 142.5 -21t113 -69t44.5 -123q0 -71 -42 -114t-117 -76q59 -20 87.5 -64.5t28.5 -100.5q0 -42 -15.5 -82t-39.5 -64
q-49 -49 -120.5 -74t-148.5 -25q-84 0 -152 27.5t-108.5 83.5t-42.5 138l195 -1q6 -81 102 -81q55 0 96 29.5t41 83.5q0 62 -92 64zM1406 1245l-876 -1126l-138 85l878 1124zM1428 160h-85l-28 -160h-202l28 160h-333l13 150l419 479h212l-80 -462h85zM1020 329l152 -3
l44 215l-18 -25z" />
    <glyph glyph-name="questiondown" unicode="&#xbf;" horiz-adv-x="989" 
d="M723.5 875q-19.5 -36 -55.5 -57.5t-80 -21.5q-44 -1 -80.5 17.5t-58 53t-21.5 78.5q-1 44 19 80t56 57.5t80 21.5q43 1 79.5 -18t58 -53.5t21.5 -77.5q1 -44 -18.5 -80zM643 644q-7 -121 -48 -209.5t-129 -163.5l-26 -22q-66 -56 -99.5 -88.5t-56 -72t-30.5 -90.5
q-2 -11 -2 -32q0 -55 30 -86.5t90 -31.5q74 0 120.5 48t61.5 125l283 2q-10 -127 -72 -219t-163.5 -140.5t-228.5 -48.5q-119 0 -211.5 40t-145 119t-52.5 192q0 22 1 33q6 87 49.5 159t99.5 124t153 130q56 45 74 122q16 75 56 109z" />
    <glyph glyph-name="Agrave" unicode="&#xc0;" horiz-adv-x="1338" 
d="M822 1846l142 -309l-211 1l-223 306zM-104 0l778 1456h271l277 -1456h-301l-45 300h-508l-150 -300h-322zM488 543h352l-81 543z" />
    <glyph glyph-name="Aacute" unicode="&#xc1;" horiz-adv-x="1338" 
d="M690 1537l239 309h327l-318 -309h-248zM-104 0l778 1456h271l277 -1456h-301l-45 300h-508l-150 -300h-322zM488 543h352l-81 543z" />
    <glyph glyph-name="Acircumflex" unicode="&#xc2;" horiz-adv-x="1338" 
d="M952 1848l261 -277l1 -21l-216 5l-124 143l-175 -142l-228 -5v23l321 273zM-104 0l778 1456h271l277 -1456h-301l-45 300h-508l-150 -300h-322zM488 543h352l-81 543z" />
    <glyph glyph-name="Atilde" unicode="&#xc3;" horiz-adv-x="1338" 
d="M1235 1833q-4 -70 -31 -132t-77.5 -100.5t-122.5 -38.5q-75 2 -132 47q-26 21 -56.5 32.5t-60.5 11.5q-40 0 -70 -23.5t-43 -73.5l-164 9q4 67 32 129t78.5 101.5t119.5 39.5q77 0 136 -46q27 -21 57.5 -32.5t59.5 -11.5q40 0 70 24t43 75zM-104 0l778 1456h271
l277 -1456h-301l-45 300h-508l-150 -300h-322zM488 543h352l-81 543z" />
    <glyph glyph-name="Adieresis" unicode="&#xc4;" horiz-adv-x="1338" 
d="M501 1740q18 30 49 47t67 17t67.5 -16.5t50 -46.5t18.5 -67q0 -35 -18 -64t-48.5 -45.5t-66.5 -16.5q-55 0 -95 35.5t-42 89.5q0 37 18 67zM973.5 1738q17.5 30 48.5 47.5t67 17.5q55 0 95.5 -35.5t42.5 -89.5q0 -37 -18 -67t-49 -47t-67 -17q-55 0 -95 35.5t-42 89.5
q0 36 17.5 66zM-104 0l778 1456h271l277 -1456h-301l-45 300h-508l-150 -300h-322zM488 543h352l-81 543z" />
    <glyph glyph-name="Aring" unicode="&#xc5;" horiz-adv-x="1338" 
d="M682 1831.5q31 48.5 82 76.5t110 28q56 0 104.5 -26t77 -72t28.5 -103q0 -59 -31 -106.5t-82 -74.5t-110 -27q-56 0 -104 25.5t-77 70.5t-29 102q0 58 31 106.5zM785.5 1647q22.5 -24 60.5 -24q34 0 63 18t46.5 48t17.5 64q0 37 -22.5 61.5t-60.5 24.5q-34 0 -63 -18.5
t-46.5 -49t-17.5 -64.5q0 -36 22.5 -60zM-104 0l778 1456h271l277 -1456h-301l-45 300h-508l-150 -300h-322zM488 543h352l-81 543z" />
    <glyph glyph-name="AE" unicode="&#xc6;" horiz-adv-x="1868" 
d="M1749 236l-42 -236h-872l45 334h-422l-221 -334h-348l1016 1456h995l-42 -236h-579l-47 -354h487l-41 -236h-477l-53 -394h601zM616 583l296 -2l74 551z" />
    <glyph glyph-name="Ccedilla" unicode="&#xc7;" horiz-adv-x="1301" 
d="M807.5 287.5q81.5 67.5 108.5 196.5l291 2q-18 -145 -95.5 -255.5t-197 -174t-262.5 -74.5l-12 -40q125 -26 125 -162q0 -94 -56.5 -148.5t-150.5 -76.5q-90 -20 -166 -23l8 169q114 7 129 89q1 5 1 13q0 32 -29 42.5t-57.5 12.5t-36.5 3l41 136q-131 33 -213.5 124.5
t-116.5 226.5q-27 104 -27 214q0 54 8 118l12 95q27 190 115 349.5t228 256.5q67 46 155.5 71t182.5 25q112 0 211 -36.5t164 -109.5q126 -142 139 -371l-292 1q0 129 -51 197.5t-175 73.5q-232 7 -324 -245q-38 -104 -58 -241.5t-20 -258.5q0 -256 209 -262
q131 -5 212.5 62.5z" />
    <glyph glyph-name="Egrave" unicode="&#xc8;" horiz-adv-x="1117" 
d="M768 1849l142 -309l-211 1l-223 306zM21 0l253 1456h947l-43 -243h-652l-61 -347h559l-42 -235h-557l-68 -389h656l-42 -242h-950z" />
    <glyph glyph-name="Eacute" unicode="&#xc9;" horiz-adv-x="1117" 
d="M636 1540l239 309h327l-318 -309h-248zM21 0l253 1456h947l-43 -243h-652l-61 -347h559l-42 -235h-557l-68 -389h656l-42 -242h-950z" />
    <glyph glyph-name="Ecircumflex" unicode="&#xca;" horiz-adv-x="1117" 
d="M898 1851l261 -277l1 -21l-216 5l-124 143l-175 -142l-228 -5v23l321 273zM21 0l253 1456h947l-43 -243h-652l-61 -347h559l-42 -235h-557l-68 -389h656l-42 -242h-950z" />
    <glyph glyph-name="Edieresis" unicode="&#xcb;" horiz-adv-x="1117" 
d="M447 1743q18 30 49 47t67 17t67.5 -16.5t50 -46.5t18.5 -67q0 -35 -18 -64t-48.5 -45.5t-66.5 -16.5q-55 0 -95 35.5t-42 89.5q0 37 18 67zM919.5 1741q17.5 30 48.5 47.5t67 17.5q55 0 95.5 -35.5t42.5 -89.5q0 -37 -18 -67t-49 -47t-67 -17q-55 0 -95 35.5t-42 89.5
q0 36 17.5 66zM21 0l253 1456h947l-43 -243h-652l-61 -347h559l-42 -235h-557l-68 -389h656l-42 -242h-950z" />
    <glyph glyph-name="Igrave" unicode="&#xcc;" horiz-adv-x="580" 
d="M441 1849l142 -309l-211 1l-223 306zM584 1456l-252 -1456h-293l252 1456h293z" />
    <glyph glyph-name="Iacute" unicode="&#xcd;" horiz-adv-x="580" 
d="M308 1540l239 309h327l-318 -309h-248zM584 1456l-252 -1456h-293l252 1456h293z" />
    <glyph glyph-name="Icircumflex" unicode="&#xce;" horiz-adv-x="580" 
d="M570 1851l261 -277l1 -21l-216 5l-124 143l-175 -142l-228 -5v23l321 273zM584 1456l-252 -1456h-293l252 1456h293z" />
    <glyph glyph-name="Idieresis" unicode="&#xcf;" horiz-adv-x="580" 
d="M119 1743q18 30 49 47t67 17t67.5 -16.5t50 -46.5t18.5 -67q0 -35 -18 -64t-48.5 -45.5t-66.5 -16.5q-55 0 -95 35.5t-42 89.5q0 37 18 67zM591.5 1741q17.5 30 48.5 47.5t67 17.5q55 0 95.5 -35.5t42.5 -89.5q0 -37 -18 -67t-49 -47t-67 -17q-55 0 -95 35.5t-42 89.5
q0 36 17.5 66zM584 1456l-252 -1456h-293l252 1456h293z" />
    <glyph glyph-name="Eth" unicode="&#xd0;" horiz-adv-x="1322" 
d="M50 0l111 641h-144l32 183h144l110 632l418 -1q189 -4 319 -99t188 -256q41 -117 41 -243q0 -47 -6 -97l-5 -42q-26 -209 -127.5 -371t-260 -253t-350.5 -94h-470zM386 242l122 -1q127 0 219.5 56.5t148.5 154.5t77 225q19 111 19 203q0 170 -73 259q-58 69 -184 73
l-160 1l-68 -389h243l-32 -183h-243z" />
    <glyph glyph-name="Ntilde" unicode="&#xd1;" horiz-adv-x="1404" 
d="M1269 1833q-4 -70 -31 -132t-77.5 -100.5t-122.5 -38.5q-75 2 -132 47q-26 21 -56.5 32.5t-60.5 11.5q-40 0 -70 -23.5t-43 -73.5l-164 9q4 67 32 129t78.5 101.5t119.5 39.5q77 0 136 -46q27 -21 57.5 -32.5t59.5 -11.5q40 0 70 24t43 75zM1425 1456l-252 -1456h-284
l-405 972l-169 -972h-294l253 1456h284l405 -973l169 973h293z" />
    <glyph glyph-name="Ograve" unicode="&#xd2;" horiz-adv-x="1372" 
d="M837 1846l142 -309l-211 1l-223 306zM1305 689q-27 -192 -117.5 -354t-235.5 -259q-70 -47 -157.5 -71.5t-178.5 -24.5q-97 0 -184 28t-147 82q-95 85 -143 213.5t-48 277.5q0 61 7 114l8 66q27 191 118 355t236 263q71 48 158.5 72.5t178.5 24.5q98 0 185 -28t147 -81
q95 -86 142.5 -215t47.5 -279q0 -46 -7 -113zM964 1155.5q-56 73.5 -176 73.5q-117 0 -197.5 -69t-127.5 -187q-37 -95 -54.5 -203.5t-17.5 -213.5q0 -40 1 -59q4 -123 60.5 -197t176.5 -74q115 0 195 68.5t127 186.5q38 97 56 209t18 224q0 31 -1 46q-4 122 -60 195.5z" />
    <glyph glyph-name="Oacute" unicode="&#xd3;" horiz-adv-x="1372" 
d="M704 1537l239 309h327l-318 -309h-248zM1305 689q-27 -192 -117.5 -354t-235.5 -259q-70 -47 -157.5 -71.5t-178.5 -24.5q-97 0 -184 28t-147 82q-95 85 -143 213.5t-48 277.5q0 61 7 114l8 66q27 191 118 355t236 263q71 48 158.5 72.5t178.5 24.5q98 0 185 -28t147 -81
q95 -86 142.5 -215t47.5 -279q0 -46 -7 -113zM964 1155.5q-56 73.5 -176 73.5q-117 0 -197.5 -69t-127.5 -187q-37 -95 -54.5 -203.5t-17.5 -213.5q0 -40 1 -59q4 -123 60.5 -197t176.5 -74q115 0 195 68.5t127 186.5q38 97 56 209t18 224q0 31 -1 46q-4 122 -60 195.5z" />
    <glyph glyph-name="Ocircumflex" unicode="&#xd4;" horiz-adv-x="1372" 
d="M966 1848l261 -277l1 -21l-216 5l-124 143l-175 -142l-228 -5v23l321 273zM1305 689q-27 -192 -117.5 -354t-235.5 -259q-70 -47 -157.5 -71.5t-178.5 -24.5q-97 0 -184 28t-147 82q-95 85 -143 213.5t-48 277.5q0 61 7 114l8 66q27 191 118 355t236 263
q71 48 158.5 72.5t178.5 24.5q98 0 185 -28t147 -81q95 -86 142.5 -215t47.5 -279q0 -46 -7 -113zM964 1155.5q-56 73.5 -176 73.5q-117 0 -197.5 -69t-127.5 -187q-37 -95 -54.5 -203.5t-17.5 -213.5q0 -40 1 -59q4 -123 60.5 -197t176.5 -74q115 0 195 68.5t127 186.5
q38 97 56 209t18 224q0 31 -1 46q-4 122 -60 195.5z" />
    <glyph glyph-name="Otilde" unicode="&#xd5;" horiz-adv-x="1372" 
d="M1249 1833q-4 -70 -31 -132t-77.5 -100.5t-122.5 -38.5q-75 2 -132 47q-26 21 -56.5 32.5t-60.5 11.5q-40 0 -70 -23.5t-43 -73.5l-164 9q4 67 32 129t78.5 101.5t119.5 39.5q77 0 136 -46q27 -21 57.5 -32.5t59.5 -11.5q40 0 70 24t43 75zM1305 689
q-27 -192 -117.5 -354t-235.5 -259q-70 -47 -157.5 -71.5t-178.5 -24.5q-97 0 -184 28t-147 82q-95 85 -143 213.5t-48 277.5q0 61 7 114l8 66q27 191 118 355t236 263q71 48 158.5 72.5t178.5 24.5q98 0 185 -28t147 -81q95 -86 142.5 -215t47.5 -279q0 -46 -7 -113z
M964 1155.5q-56 73.5 -176 73.5q-117 0 -197.5 -69t-127.5 -187q-37 -95 -54.5 -203.5t-17.5 -213.5q0 -40 1 -59q4 -123 60.5 -197t176.5 -74q115 0 195 68.5t127 186.5q38 97 56 209t18 224q0 31 -1 46q-4 122 -60 195.5z" />
    <glyph glyph-name="Odieresis" unicode="&#xd6;" horiz-adv-x="1372" 
d="M515 1740q18 30 49 47t67 17t67.5 -16.5t50 -46.5t18.5 -67q0 -35 -18 -64t-48.5 -45.5t-66.5 -16.5q-55 0 -95 35.5t-42 89.5q0 37 18 67zM987.5 1738q17.5 30 48.5 47.5t67 17.5q55 0 95.5 -35.5t42.5 -89.5q0 -37 -18 -67t-49 -47t-67 -17q-55 0 -95 35.5t-42 89.5
q0 36 17.5 66zM1305 689q-27 -192 -117.5 -354t-235.5 -259q-70 -47 -157.5 -71.5t-178.5 -24.5q-97 0 -184 28t-147 82q-95 85 -143 213.5t-48 277.5q0 61 7 114l8 66q27 191 118 355t236 263q71 48 158.5 72.5t178.5 24.5q98 0 185 -28t147 -81q95 -86 142.5 -215
t47.5 -279q0 -46 -7 -113zM964 1155.5q-56 73.5 -176 73.5q-117 0 -197.5 -69t-127.5 -187q-37 -95 -54.5 -203.5t-17.5 -213.5q0 -40 1 -59q4 -123 60.5 -197t176.5 -74q115 0 195 68.5t127 186.5q38 97 56 209t18 224q0 31 -1 46q-4 122 -60 195.5z" />
    <glyph glyph-name="multiply" unicode="&#xd7;" horiz-adv-x="1055" 
d="M944 361l-181 -156l-242 308l-348 -308l-148 182l353 313l-244 312l181 156l241 -309l349 309l148 -182l-352 -313z" />
    <glyph glyph-name="Oslash" unicode="&#xd8;" horiz-adv-x="1369" 
d="M326 51l-112 -146l-202 1l194 244q-108 182 -108 411q0 65 9 134l9 65q27 193 117.5 356t235.5 262q73 50 160 74.5t178 24.5q87 0 167.5 -21.5t144.5 -62.5l98 125l202 -1l-183 -229q94 -177 94 -393q0 -66 -9 -135l-9 -65q-27 -193 -117.5 -356t-235.5 -261
q-144 -99 -342 -99q-165 0 -291 72zM386 551q-2 -34 -2 -52q0 -46 6 -91l575 764q-27 28 -72 44t-97 16q-55 0 -108 -18.5t-94 -56.5q-86 -78 -135.5 -215.5t-69.5 -354.5zM1026 762q19 141 19 224q0 23 -1 34l-564 -752q27 -21 67.5 -33t86.5 -12q52 0 102.5 17t89.5 52
q76 67 122.5 172.5t66.5 229.5z" />
    <glyph glyph-name="Ugrave" unicode="&#xd9;" horiz-adv-x="1308" 
d="M802 1846l142 -309l-211 1l-223 306zM1051 1456h294l-164 -959q-21 -158 -102.5 -275t-210 -180t-287.5 -63q-145 0 -255.5 54.5t-172 156t-61.5 238.5q0 37 4 68l163 960h294l-163 -961q-4 -28 -4 -61q0 -98 51 -155t160 -57q119 0 193.5 73t95.5 195z" />
    <glyph glyph-name="Uacute" unicode="&#xda;" horiz-adv-x="1308" 
d="M669 1537l239 309h327l-318 -309h-248zM1051 1456h294l-164 -959q-21 -158 -102.5 -275t-210 -180t-287.5 -63q-145 0 -255.5 54.5t-172 156t-61.5 238.5q0 37 4 68l163 960h294l-163 -961q-4 -28 -4 -61q0 -98 51 -155t160 -57q119 0 193.5 73t95.5 195z" />
    <glyph glyph-name="Ucircumflex" unicode="&#xdb;" horiz-adv-x="1308" 
d="M932 1848l261 -277l1 -21l-216 5l-124 143l-175 -142l-228 -5v23l321 273zM1051 1456h294l-164 -959q-21 -158 -102.5 -275t-210 -180t-287.5 -63q-145 0 -255.5 54.5t-172 156t-61.5 238.5q0 37 4 68l163 960h294l-163 -961q-4 -28 -4 -61q0 -98 51 -155t160 -57
q119 0 193.5 73t95.5 195z" />
    <glyph glyph-name="Udieresis" unicode="&#xdc;" horiz-adv-x="1308" 
d="M480 1740q18 30 49 47t67 17t67.5 -16.5t50 -46.5t18.5 -67q0 -35 -18 -64t-48.5 -45.5t-66.5 -16.5q-55 0 -95 35.5t-42 89.5q0 37 18 67zM952.5 1738q17.5 30 48.5 47.5t67 17.5q55 0 95.5 -35.5t42.5 -89.5q0 -37 -18 -67t-49 -47t-67 -17q-55 0 -95 35.5t-42 89.5
q0 36 17.5 66zM1051 1456h294l-164 -959q-21 -158 -102.5 -275t-210 -180t-287.5 -63q-145 0 -255.5 54.5t-172 156t-61.5 238.5q0 37 4 68l163 960h294l-163 -961q-4 -28 -4 -61q0 -98 51 -155t160 -57q119 0 193.5 73t95.5 195z" />
    <glyph glyph-name="Yacute" unicode="&#xdd;" horiz-adv-x="1229" 
d="M635 1537l239 309h327l-318 -309h-248zM463 1456l178 -654l406 654h337l-637 -945l-88 -511h-297l95 545l-303 910z" />
    <glyph glyph-name="Thorn" unicode="&#xde;" horiz-adv-x="1209" 
d="M358 287l-51 -287h-283l253 1456h283l-47 -267l197 -1q129 -3 234 -50t166.5 -137t61.5 -217q0 -25 -1 -38q-12 -151 -93 -254.5t-215 -155.5q-130 -50 -273 -50zM473 956l-75 -436l199 -2q73 1 135 27t103.5 76.5t52.5 122.5q3 21 3 40q0 78 -50 123t-136 48z" />
    <glyph glyph-name="germandbls" unicode="&#xdf;" horiz-adv-x="1253" 
d="M307 0h-281l188 1102q19 142 86.5 246.5t178 159.5t254.5 52q103 -2 186.5 -42.5t131.5 -115t48 -175.5q0 -19 -1 -29q-3 -46 -19 -88t-34 -72.5t-55 -87.5q-51 -79 -51 -155q0 -48 21 -84q30 -54 75 -108q55 -67 84 -122t26 -117q-6 -126 -70.5 -213t-168 -130
t-227.5 -43q-167 0 -282 55l70 233q88 -54 188 -54q84 0 143 38q35 23 53.5 60t18.5 78q0 46 -23 84q-32 51 -78 102q-57 61 -86.5 115t-26.5 119q4 58 27.5 108t68.5 118l14 22q22 35 34 74t12 75q0 50 -23 82q-14 20 -44 32.5t-64 12.5q-40 0 -75 -18t-56 -55
q-44 -78 -56 -161z" />
    <glyph glyph-name="agrave" unicode="&#xe0;" horiz-adv-x="1065" 
d="M632 1536l142 -309l-211 1l-223 306zM626 0q-13 38 -11 98q-59 -59 -129.5 -88.5t-143.5 -29.5q-66 0 -127.5 23t-107.5 66q-46 41 -68.5 99.5t-22.5 123.5t22.5 125.5t63.5 100.5q76 75 192.5 109.5t248.5 34.5l132 -2l15 66q4 28 4 41q0 57 -31.5 89.5t-95.5 32.5
q-135 0 -161 -131l-283 -1q6 115 76.5 194t185.5 118q107 35 205 35q80 0 155 -25t136 -79q96 -85 96 -230q0 -22 -3 -48l-78 -484l-10 -97q-1 -9 -1 -26q0 -52 19 -96l-1 -19h-277zM621 305l35 188l-96 1q-97 -1 -171 -44.5t-86 -132.5q-2 -14 -2 -21q0 -44 29 -70t78 -27
q121 -4 213 106z" />
    <glyph glyph-name="aacute" unicode="&#xe1;" horiz-adv-x="1065" 
d="M499 1227l239 309h327l-318 -309h-248zM626 0q-13 38 -11 98q-59 -59 -129.5 -88.5t-143.5 -29.5q-66 0 -127.5 23t-107.5 66q-46 41 -68.5 99.5t-22.5 123.5t22.5 125.5t63.5 100.5q76 75 192.5 109.5t248.5 34.5l132 -2l15 66q4 28 4 41q0 57 -31.5 89.5t-95.5 32.5
q-135 0 -161 -131l-283 -1q6 115 76.5 194t185.5 118q107 35 205 35q80 0 155 -25t136 -79q96 -85 96 -230q0 -22 -3 -48l-78 -484l-10 -97q-1 -9 -1 -26q0 -52 19 -96l-1 -19h-277zM621 305l35 188l-96 1q-97 -1 -171 -44.5t-86 -132.5q-2 -14 -2 -21q0 -44 29 -70t78 -27
q121 -4 213 106z" />
    <glyph glyph-name="acircumflex" unicode="&#xe2;" horiz-adv-x="1065" 
d="M762 1538l261 -277l1 -21l-216 5l-124 143l-175 -142l-228 -5v23l321 273zM626 0q-13 38 -11 98q-59 -59 -129.5 -88.5t-143.5 -29.5q-66 0 -127.5 23t-107.5 66q-46 41 -68.5 99.5t-22.5 123.5t22.5 125.5t63.5 100.5q76 75 192.5 109.5t248.5 34.5l132 -2l15 66
q4 28 4 41q0 57 -31.5 89.5t-95.5 32.5q-135 0 -161 -131l-283 -1q6 115 76.5 194t185.5 118q107 35 205 35q80 0 155 -25t136 -79q96 -85 96 -230q0 -22 -3 -48l-78 -484l-10 -97q-1 -9 -1 -26q0 -52 19 -96l-1 -19h-277zM621 305l35 188l-96 1q-97 -1 -171 -44.5
t-86 -132.5q-2 -14 -2 -21q0 -44 29 -70t78 -27q121 -4 213 106z" />
    <glyph glyph-name="atilde" unicode="&#xe3;" horiz-adv-x="1065" 
d="M1045 1523q-4 -70 -31 -132t-77.5 -100.5t-122.5 -38.5q-75 2 -132 47q-26 21 -56.5 32.5t-60.5 11.5q-40 0 -70 -23.5t-43 -73.5l-164 9q4 67 32 129t78.5 101.5t119.5 39.5q77 0 136 -46q27 -21 57.5 -32.5t59.5 -11.5q40 0 70 24t43 75zM626 0q-13 38 -11 98
q-59 -59 -129.5 -88.5t-143.5 -29.5q-66 0 -127.5 23t-107.5 66q-46 41 -68.5 99.5t-22.5 123.5t22.5 125.5t63.5 100.5q76 75 192.5 109.5t248.5 34.5l132 -2l15 66q4 28 4 41q0 57 -31.5 89.5t-95.5 32.5q-135 0 -161 -131l-283 -1q6 115 76.5 194t185.5 118
q107 35 205 35q80 0 155 -25t136 -79q96 -85 96 -230q0 -22 -3 -48l-78 -484l-10 -97q-1 -9 -1 -26q0 -52 19 -96l-1 -19h-277zM621 305l35 188l-96 1q-97 -1 -171 -44.5t-86 -132.5q-2 -14 -2 -21q0 -44 29 -70t78 -27q121 -4 213 106z" />
    <glyph glyph-name="adieresis" unicode="&#xe4;" horiz-adv-x="1065" 
d="M310 1430q18 30 49 47t67 17t67.5 -16.5t50 -46.5t18.5 -67q0 -35 -18 -64t-48.5 -45.5t-66.5 -16.5q-55 0 -95 35.5t-42 89.5q0 37 18 67zM782.5 1428q17.5 30 48.5 47.5t67 17.5q55 0 95.5 -35.5t42.5 -89.5q0 -37 -18 -67t-49 -47t-67 -17q-55 0 -95 35.5t-42 89.5
q0 36 17.5 66zM626 0q-13 38 -11 98q-59 -59 -129.5 -88.5t-143.5 -29.5q-66 0 -127.5 23t-107.5 66q-46 41 -68.5 99.5t-22.5 123.5t22.5 125.5t63.5 100.5q76 75 192.5 109.5t248.5 34.5l132 -2l15 66q4 28 4 41q0 57 -31.5 89.5t-95.5 32.5q-135 0 -161 -131l-283 -1
q6 115 76.5 194t185.5 118q107 35 205 35q80 0 155 -25t136 -79q96 -85 96 -230q0 -22 -3 -48l-78 -484l-10 -97q-1 -9 -1 -26q0 -52 19 -96l-1 -19h-277zM621 305l35 188l-96 1q-97 -1 -171 -44.5t-86 -132.5q-2 -14 -2 -21q0 -44 29 -70t78 -27q121 -4 213 106z" />
    <glyph glyph-name="aring" unicode="&#xe5;" horiz-adv-x="1065" 
d="M492 1521.5q31 48.5 82 76.5t110 28q56 0 104.5 -26t77 -72t28.5 -103q0 -59 -31 -106.5t-82 -74.5t-110 -27q-56 0 -104 25.5t-77 70.5t-29 102q0 58 31 106.5zM595.5 1337q22.5 -24 60.5 -24q34 0 63 18t46.5 48t17.5 64q0 37 -22.5 61.5t-60.5 24.5q-34 0 -63 -18.5
t-46.5 -49t-17.5 -64.5q0 -36 22.5 -60zM626 0q-13 38 -11 98q-59 -59 -129.5 -88.5t-143.5 -29.5q-66 0 -127.5 23t-107.5 66q-46 41 -68.5 99.5t-22.5 123.5t22.5 125.5t63.5 100.5q76 75 192.5 109.5t248.5 34.5l132 -2l15 66q4 28 4 41q0 57 -31.5 89.5t-95.5 32.5
q-135 0 -161 -131l-283 -1q6 115 76.5 194t185.5 118q107 35 205 35q80 0 155 -25t136 -79q96 -85 96 -230q0 -22 -3 -48l-78 -484l-10 -97q-1 -9 -1 -26q0 -52 19 -96l-1 -19h-277zM621 305l35 188l-96 1q-97 -1 -171 -44.5t-86 -132.5q-2 -14 -2 -21q0 -44 29 -70t78 -27
q121 -4 213 106z" />
    <glyph glyph-name="ae" unicode="&#xe6;" horiz-adv-x="1678" 
d="M1518 98q-69 -61 -174.5 -89.5t-215.5 -28.5q-109 0 -204.5 35t-154.5 112q-84 -76 -182.5 -112t-197.5 -36q-83 0 -155.5 23.5t-122.5 63.5q-48 39 -72.5 99t-24.5 128t23.5 130t65.5 99q77 68 191 98.5t241 30.5l167 -2l13 59q4 28 4 40q0 56 -31 89t-93 33
q-66 0 -117.5 -32t-64.5 -93l-282 18q6 118 79.5 195.5t191.5 113.5q108 32 218 32q92 0 170 -26t131 -85q70 52 154.5 80t169.5 28q97 0 179 -38t130 -112q76 -116 76 -266q0 -40 -4 -73l-25 -162l-641 1q-2 -26 -2 -37q0 -94 54.5 -146.5t158.5 -52.5q71 0 139.5 19.5
t146.5 56.5zM1075.5 807.5q-58.5 -62.5 -95.5 -163.5h368l7 30q5 30 5 53q0 64 -32 103.5t-102 39.5q-92 0 -150.5 -62.5zM641 271l38 190l-139 1q-87 -3 -157.5 -40.5t-84.5 -114.5q-2 -16 -2 -22q0 -48 37.5 -71t94.5 -23q92 0 213 80z" />
    <glyph glyph-name="ccedilla" unicode="&#xe7;" horiz-adv-x="1037" 
d="M737 678q1 85 -37.5 138.5t-122.5 53.5q-133 0 -190 -127t-57 -309l1 -41q5 -181 155 -181q74 0 125 43.5t66 117.5l266 1q-7 -108 -64 -193.5t-148 -136.5t-197 -62l-12 -40q125 -26 125 -162q0 -94 -56.5 -148.5t-150.5 -76.5q-90 -20 -166 -23l8 169q114 7 129 89
q1 5 1 13q0 32 -29 42.5t-57.5 12.5t-36.5 3l43 141q-139 45 -211 168t-72 288q0 33 3 67l3 29q16 151 84.5 276t184.5 198.5t268 73.5q128 0 221 -53.5t141.5 -149.5t46.5 -221h-264z" />
    <glyph glyph-name="egrave" unicode="&#xe8;" horiz-adv-x="1074" 
d="M614 1537l142 -309l-211 1l-223 306zM937 174q-65 -95 -177 -144.5t-236 -49.5q-140 0 -246.5 61.5t-164.5 169t-58 242.5q0 16 2 48l3 40q15 153 87 281.5t190 205.5q54 35 126 55t148 20q104 0 192 -40t139 -125q78 -128 78 -290q0 -42 -4 -78l-16 -123h-664
q-3 -103 52 -168t159 -65q143 0 260 119zM450 807q-57 -63 -93 -163h388l6 25q3 21 3 41q0 72 -40.5 116t-117.5 44q-89 0 -146 -63z" />
    <glyph glyph-name="eacute" unicode="&#xe9;" horiz-adv-x="1074" 
d="M482 1228l239 309h327l-318 -309h-248zM937 174q-65 -95 -177 -144.5t-236 -49.5q-140 0 -246.5 61.5t-164.5 169t-58 242.5q0 16 2 48l3 40q15 153 87 281.5t190 205.5q54 35 126 55t148 20q104 0 192 -40t139 -125q78 -128 78 -290q0 -42 -4 -78l-16 -123h-664
q-3 -103 52 -168t159 -65q143 0 260 119zM450 807q-57 -63 -93 -163h388l6 25q3 21 3 41q0 72 -40.5 116t-117.5 44q-89 0 -146 -63z" />
    <glyph glyph-name="ecircumflex" unicode="&#xea;" horiz-adv-x="1074" 
d="M744 1539l261 -277l1 -21l-216 5l-124 143l-175 -142l-228 -5v23l321 273zM937 174q-65 -95 -177 -144.5t-236 -49.5q-140 0 -246.5 61.5t-164.5 169t-58 242.5q0 16 2 48l3 40q15 153 87 281.5t190 205.5q54 35 126 55t148 20q104 0 192 -40t139 -125q78 -128 78 -290
q0 -42 -4 -78l-16 -123h-664q-3 -103 52 -168t159 -65q143 0 260 119zM450 807q-57 -63 -93 -163h388l6 25q3 21 3 41q0 72 -40.5 116t-117.5 44q-89 0 -146 -63z" />
    <glyph glyph-name="edieresis" unicode="&#xeb;" horiz-adv-x="1074" 
d="M293 1431q18 30 49 47t67 17t67.5 -16.5t50 -46.5t18.5 -67q0 -35 -18 -64t-48.5 -45.5t-66.5 -16.5q-55 0 -95 35.5t-42 89.5q0 37 18 67zM765.5 1429q17.5 30 48.5 47.5t67 17.5q55 0 95.5 -35.5t42.5 -89.5q0 -37 -18 -67t-49 -47t-67 -17q-55 0 -95 35.5t-42 89.5
q0 36 17.5 66zM937 174q-65 -95 -177 -144.5t-236 -49.5q-140 0 -246.5 61.5t-164.5 169t-58 242.5q0 16 2 48l3 40q15 153 87 281.5t190 205.5q54 35 126 55t148 20q104 0 192 -40t139 -125q78 -128 78 -290q0 -42 -4 -78l-16 -123h-664q-3 -103 52 -168t159 -65
q143 0 260 119zM450 807q-57 -63 -93 -163h388l6 25q3 21 3 41q0 72 -40.5 116t-117.5 44q-89 0 -146 -63z" />
    <glyph glyph-name="igrave" unicode="&#xec;" horiz-adv-x="544" 
d="M367 1521l142 -309l-211 1l-223 306zM496 1082l-188 -1082h-283l188 1082h283z" />
    <glyph glyph-name="iacute" unicode="&#xed;" horiz-adv-x="544" 
d="M235 1212l239 309h327l-318 -309h-248zM496 1082l-188 -1082h-283l188 1082h283z" />
    <glyph glyph-name="icircumflex" unicode="&#xee;" horiz-adv-x="544" 
d="M497 1523l261 -277l1 -21l-216 5l-124 143l-175 -142l-228 -5v23l321 273zM496 1082l-188 -1082h-283l188 1082h283z" />
    <glyph glyph-name="idieresis" unicode="&#xef;" horiz-adv-x="544" 
d="M46 1415q18 30 49 47t67 17t67.5 -16.5t50 -46.5t18.5 -67q0 -35 -18 -64t-48.5 -45.5t-66.5 -16.5q-55 0 -95 35.5t-42 89.5q0 37 18 67zM518.5 1413q17.5 30 48.5 47.5t67 17.5q55 0 95.5 -35.5t42.5 -89.5q0 -37 -18 -67t-49 -47t-67 -17q-55 0 -95 35.5t-42 89.5
q0 36 17.5 66zM496 1082l-188 -1082h-283l188 1082h283z" />
    <glyph glyph-name="eth" unicode="&#xf0;" horiz-adv-x="1144" 
d="M269.5 35.5q-100.5 56.5 -156 156.5t-55.5 225q0 13 2 43q12 140 74.5 255.5t169 183.5t245.5 68q137 0 249 -77q-5 140 -91 264l-210 -122l-63 128l161 90q-76 62 -234 106l108 224q220 -52 370 -180l191 112l61 -130l-146 -79q72 -128 108 -255.5t36 -264.5
q0 -73 -8 -133l-9 -74q-22 -156 -98 -293t-197 -221q-119 -83 -277 -83q-130 0 -230.5 56.5zM340 415q0 -86 42 -145t128 -59q81 0 138 50t91 135q33 82 44 152l17 104l4 17q-25 38 -74.5 59t-108.5 21t-112 -22t-85 -64q-67 -88 -81 -203q-3 -22 -3 -45z" />
    <glyph glyph-name="ntilde" unicode="&#xf1;" horiz-adv-x="1113" 
d="M1069 1523q-4 -70 -31 -132t-77.5 -100.5t-122.5 -38.5q-75 2 -132 47q-26 21 -56.5 32.5t-60.5 11.5q-40 0 -70 -23.5t-43 -73.5l-164 9q4 67 32 129t78.5 101.5t119.5 39.5q77 0 136 -46q27 -21 57.5 -32.5t59.5 -11.5q40 0 70 24t43 75zM414 765l-135 -765h-282
l188 1082l262 1l-22 -127q64 72 147.5 109.5t166.5 37.5q81 0 145.5 -34t92.5 -96q46 -99 46 -220q0 -31 -3 -64l-115 -689h-283l116 692q3 23 3 44q0 63 -29.5 97t-98.5 35q-110 4 -199 -103z" />
    <glyph glyph-name="ograve" unicode="&#xf2;" horiz-adv-x="1123" 
d="M645 1536l142 -309l-211 1l-223 306zM145 828q75 131 195 202.5t269 71.5q143 0 243 -65t151 -175t51 -246q0 -31 -3 -63q-15 -161 -86 -291.5t-191 -206t-275 -75.5q-142 0 -243.5 63.5t-153 172.5t-51.5 243q0 32 3 65q16 173 91 304zM337 523q-3 -37 -3 -72
q0 -126 49 -190q17 -22 52.5 -36t77.5 -14q53 0 101.5 25t78.5 79q79 140 79 311q0 36 -3 64q-7 81 -48 130.5t-123 49.5t-136.5 -47.5t-84.5 -127.5q-29 -78 -38 -150z" />
    <glyph glyph-name="oacute" unicode="&#xf3;" horiz-adv-x="1123" 
d="M513 1227l239 309h327l-318 -309h-248zM145 828q75 131 195 202.5t269 71.5q143 0 243 -65t151 -175t51 -246q0 -31 -3 -63q-15 -161 -86 -291.5t-191 -206t-275 -75.5q-142 0 -243.5 63.5t-153 172.5t-51.5 243q0 32 3 65q16 173 91 304zM337 523q-3 -37 -3 -72
q0 -126 49 -190q17 -22 52.5 -36t77.5 -14q53 0 101.5 25t78.5 79q79 140 79 311q0 36 -3 64q-7 81 -48 130.5t-123 49.5t-136.5 -47.5t-84.5 -127.5q-29 -78 -38 -150z" />
    <glyph glyph-name="ocircumflex" unicode="&#xf4;" horiz-adv-x="1123" 
d="M775 1538l261 -277l1 -21l-216 5l-124 143l-175 -142l-228 -5v23l321 273zM145 828q75 131 195 202.5t269 71.5q143 0 243 -65t151 -175t51 -246q0 -31 -3 -63q-15 -161 -86 -291.5t-191 -206t-275 -75.5q-142 0 -243.5 63.5t-153 172.5t-51.5 243q0 32 3 65
q16 173 91 304zM337 523q-3 -37 -3 -72q0 -126 49 -190q17 -22 52.5 -36t77.5 -14q53 0 101.5 25t78.5 79q79 140 79 311q0 36 -3 64q-7 81 -48 130.5t-123 49.5t-136.5 -47.5t-84.5 -127.5q-29 -78 -38 -150z" />
    <glyph glyph-name="otilde" unicode="&#xf5;" horiz-adv-x="1123" 
d="M1058 1523q-4 -70 -31 -132t-77.5 -100.5t-122.5 -38.5q-75 2 -132 47q-26 21 -56.5 32.5t-60.5 11.5q-40 0 -70 -23.5t-43 -73.5l-164 9q4 67 32 129t78.5 101.5t119.5 39.5q77 0 136 -46q27 -21 57.5 -32.5t59.5 -11.5q40 0 70 24t43 75zM145 828q75 131 195 202.5
t269 71.5q143 0 243 -65t151 -175t51 -246q0 -31 -3 -63q-15 -161 -86 -291.5t-191 -206t-275 -75.5q-142 0 -243.5 63.5t-153 172.5t-51.5 243q0 32 3 65q16 173 91 304zM337 523q-3 -37 -3 -72q0 -126 49 -190q17 -22 52.5 -36t77.5 -14q53 0 101.5 25t78.5 79
q79 140 79 311q0 36 -3 64q-7 81 -48 130.5t-123 49.5t-136.5 -47.5t-84.5 -127.5q-29 -78 -38 -150z" />
    <glyph glyph-name="odieresis" unicode="&#xf6;" horiz-adv-x="1123" 
d="M324 1430q18 30 49 47t67 17t67.5 -16.5t50 -46.5t18.5 -67q0 -35 -18 -64t-48.5 -45.5t-66.5 -16.5q-55 0 -95 35.5t-42 89.5q0 37 18 67zM796.5 1428q17.5 30 48.5 47.5t67 17.5q55 0 95.5 -35.5t42.5 -89.5q0 -37 -18 -67t-49 -47t-67 -17q-55 0 -95 35.5t-42 89.5
q0 36 17.5 66zM145 828q75 131 195 202.5t269 71.5q143 0 243 -65t151 -175t51 -246q0 -31 -3 -63q-15 -161 -86 -291.5t-191 -206t-275 -75.5q-142 0 -243.5 63.5t-153 172.5t-51.5 243q0 32 3 65q16 173 91 304zM337 523q-3 -37 -3 -72q0 -126 49 -190q17 -22 52.5 -36
t77.5 -14q53 0 101.5 25t78.5 79q79 140 79 311q0 36 -3 64q-7 81 -48 130.5t-123 49.5t-136.5 -47.5t-84.5 -127.5q-29 -78 -38 -150z" />
    <glyph glyph-name="divide" unicode="&#xf7;" horiz-adv-x="1133" 
d="M508 1166.5q21 35.5 58.5 55.5t83.5 20q65 0 109.5 -41t46.5 -106q0 -45 -20.5 -81t-57 -56t-81.5 -20q-67 0 -112.5 40.5t-47.5 106.5q0 46 21 81.5zM1096 802l-41 -231h-999l41 231h999zM367 354.5q21 35.5 58.5 55.5t84.5 20q64 0 108.5 -41.5t46.5 -105.5
q0 -45 -20.5 -81t-56.5 -56t-82 -20q-43 0 -79.5 18t-58 51.5t-21.5 77.5q-1 46 20 81.5z" />
    <glyph glyph-name="oslash" unicode="&#xf8;" horiz-adv-x="1121" 
d="M302 8l-101 -150l-174 1l151 216q-130 142 -130 372q0 45 4 81l4 30q20 152 94 276t194 196.5t274 72.5q98 0 191 -31l97 144l175 -1l-150 -213q124 -144 124 -362q0 -38 -5 -86l-2 -22q-19 -155 -92.5 -281t-195 -199.5t-276.5 -73.5q-92 0 -182 30zM321 393
q0 -36 6 -72l355 541q-38 12 -70 12q-55 0 -95.5 -16t-74 -56t-64.5 -111q-47 -111 -56 -266q-1 -11 -1 -32zM782 652q1 10 1 31q0 29 -5 67l-352 -532q31 -7 58 -9q123 -3 191 91.5t92 231.5z" />
    <glyph glyph-name="ugrave" unicode="&#xf9;" horiz-adv-x="1113" 
d="M653 1536l142 -309l-211 1l-223 306zM642 0l22 113q-58 -65 -137 -99t-160 -34q-80 0 -146 32t-100 91q-57 98 -57 223q0 28 3 56l117 700h282l-119 -703q-3 -19 -3 -38q0 -58 29 -92t94 -34q124 0 208 102l134 765h284l-188 -1082h-263z" />
    <glyph glyph-name="uacute" unicode="&#xfa;" horiz-adv-x="1113" 
d="M521 1227l239 309h327l-318 -309h-248zM642 0l22 113q-58 -65 -137 -99t-160 -34q-80 0 -146 32t-100 91q-57 98 -57 223q0 28 3 56l117 700h282l-119 -703q-3 -19 -3 -38q0 -58 29 -92t94 -34q124 0 208 102l134 765h284l-188 -1082h-263z" />
    <glyph glyph-name="ucircumflex" unicode="&#xfb;" horiz-adv-x="1113" 
d="M783 1538l261 -277l1 -21l-216 5l-124 143l-175 -142l-228 -5v23l321 273zM642 0l22 113q-58 -65 -137 -99t-160 -34q-80 0 -146 32t-100 91q-57 98 -57 223q0 28 3 56l117 700h282l-119 -703q-3 -19 -3 -38q0 -58 29 -92t94 -34q124 0 208 102l134 765h284l-188 -1082
h-263z" />
    <glyph glyph-name="udieresis" unicode="&#xfc;" horiz-adv-x="1113" 
d="M332 1430q18 30 49 47t67 17t67.5 -16.5t50 -46.5t18.5 -67q0 -35 -18 -64t-48.5 -45.5t-66.5 -16.5q-55 0 -95 35.5t-42 89.5q0 37 18 67zM804.5 1428q17.5 30 48.5 47.5t67 17.5q55 0 95.5 -35.5t42.5 -89.5q0 -37 -18 -67t-49 -47t-67 -17q-55 0 -95 35.5t-42 89.5
q0 36 17.5 66zM642 0l22 113q-58 -65 -137 -99t-160 -34q-80 0 -146 32t-100 91q-57 98 -57 223q0 28 3 56l117 700h282l-119 -703q-3 -19 -3 -38q0 -58 29 -92t94 -34q124 0 208 102l134 765h284l-188 -1082h-263z" />
    <glyph glyph-name="yacute" unicode="&#xfd;" horiz-adv-x="998" 
d="M470 1227l239 309h327l-318 -309h-248zM451 -163q-60 -130 -150 -204t-222 -74q-52 2 -135 22l22 220l39 -3q146 -2 210 117l54 100l-177 1067h292l77 -671l310 671h313z" />
    <glyph glyph-name="thorn" unicode="&#xfe;" horiz-adv-x="1127" 
d="M314 96l-99 -512h-283l338 1952h284l-108 -549q55 58 125 86.5t143 28.5q66 0 125 -23t96 -65q60 -66 88 -163t28 -206q0 -51 -4 -90q-48 -355 -241 -503q-94 -73 -232 -73q-164 0 -260 117zM421 764l-80 -446q40 -106 165 -106q209 0 258 343q5 45 5 90q0 106 -34 167
q-33 57 -120 57q-114 0 -194 -105z" />
    <glyph glyph-name="ydieresis" unicode="&#xff;" horiz-adv-x="998" 
d="M281 1430q18 30 49 47t67 17t67.5 -16.5t50 -46.5t18.5 -67q0 -35 -18 -64t-48.5 -45.5t-66.5 -16.5q-55 0 -95 35.5t-42 89.5q0 37 18 67zM753.5 1428q17.5 30 48.5 47.5t67 17.5q55 0 95.5 -35.5t42.5 -89.5q0 -37 -18 -67t-49 -47t-67 -17q-55 0 -95 35.5t-42 89.5
q0 36 17.5 66zM451 -163q-60 -130 -150 -204t-222 -74q-52 2 -135 22l22 220l39 -3q146 -2 210 117l54 100l-177 1067h292l77 -671l310 671h313z" />
    <glyph glyph-name="dotlessi" unicode="&#x131;" horiz-adv-x="544" 
d="M496 1082l-188 -1082h-283l188 1082h283z" />
    <glyph glyph-name="OE" unicode="&#x152;" horiz-adv-x="1924" 
d="M1759 242l-42 -242h-843l-212 -17l-71 -1q-151 3 -265.5 70t-177 182.5t-62.5 259.5q0 35 5 82l47 304q25 174 116.5 309.5t235 211.5t319.5 76l73 -2l208 -19h878l-43 -243h-653l-61 -347h558l-41 -235h-557l-68 -389h656zM373 575q-6 -42 -6 -82q0 -124 59.5 -201
t189.5 -77q60 0 183 9l187 1008q-64 8 -100 12t-77 4q-79 0 -145.5 -23t-120.5 -81q-95 -104 -121 -261z" />
    <glyph glyph-name="oe" unicode="&#x153;" horiz-adv-x="1793" 
d="M1615 101q-74 -65 -183 -93.5t-222 -26.5q-102 1 -192 37t-147 110q-80 -72 -179.5 -110t-199.5 -38q-107 0 -197 43t-143 126q-87 136 -87 322q0 27 3 57l2 21q19 154 92 280t193.5 200t274.5 74q105 0 197 -36t150 -112q79 72 173.5 109.5t188.5 37.5q95 0 176 -38
t129 -109q78 -113 78 -268q0 -41 -4 -74l-25 -163h-629q-1 -8 -1 -24q0 -91 46 -149t138 -61q137 -5 303 75zM1175.5 807.5q-53.5 -63.5 -90.5 -161.5h356l6 30q4 23 4 50q0 66 -33 105.5t-105 39.5q-84 0 -137.5 -63.5zM346 438q0 -110 42 -172q17 -25 53.5 -40.5
t79.5 -15.5q52 0 100.5 25.5t78.5 78.5q61 105 76 218q6 59 6 109q0 55 -9.5 96.5t-31.5 76.5q-17 27 -52 41.5t-76 14.5q-38 0 -74 -12.5t-62 -35.5q-53 -48 -83.5 -122t-41.5 -156q-6 -57 -6 -106z" />
    <glyph glyph-name="circumflex" unicode="&#x2c6;" horiz-adv-x="986" 
d="M715 1538l261 -277l1 -21l-216 5l-124 143l-175 -142l-228 -5v23l321 273z" />
    <glyph glyph-name="ring" unicode="&#x2da;" horiz-adv-x="662" 
d="M273 1427.5q31 48.5 82 76.5t110 28q56 0 104.5 -26t77 -72t28.5 -103q0 -59 -31 -106.5t-82 -74.5t-110 -27q-56 0 -104 25.5t-77 70.5t-29 102q0 58 31 106.5zM376.5 1243q22.5 -24 60.5 -24q34 0 63 18t46.5 48t17.5 64q0 37 -22.5 61.5t-60.5 24.5q-34 0 -63 -18.5
t-46.5 -49t-17.5 -64.5q0 -36 22.5 -60z" />
    <glyph glyph-name="tilde" unicode="&#x2dc;" horiz-adv-x="956" 
d="M978 1526q-4 -70 -31 -132t-77.5 -100.5t-122.5 -38.5q-75 2 -132 47q-26 21 -56.5 32.5t-60.5 11.5q-40 0 -70 -23.5t-43 -73.5l-164 9q4 67 32 129t78.5 101.5t119.5 39.5q77 0 136 -46q27 -21 57.5 -32.5t59.5 -11.5q40 0 70 24t43 75z" />
    <glyph glyph-name="uni0531" unicode="&#x531;" horiz-adv-x="1556" 
d="M1404 -33l-274 247q-85 -114 -218.5 -174t-297.5 -60q-148 0 -259.5 47.5t-173.5 141t-62 227.5q0 53 8 100l164 1040h301l-164 -1040q-6 -39 -6 -73q0 -201 220 -201q126 0 202 65.5t96 195.5l167 1053h301l-164 -1040l-1 -6l213 -192z" />
    <glyph glyph-name="uni0532" unicode="&#x532;" horiz-adv-x="1375" 
d="M1005 1053q5 29 5 64q0 98 -56 147.5t-165 49.5q-125 0 -202 -67t-99 -207l-67 -424h877l-39 -243h-877l-59 -373h-301l59 373l16 97l90 570q26 166 115 282t224.5 175t300.5 59q146 0 255 -47.5t169.5 -140.5t60.5 -227q0 -53 -8 -101l-25 -154h-301z" />
    <glyph glyph-name="uni0533" unicode="&#x533;" horiz-adv-x="1600" 
d="M1544 464h-300l-73 -464h-300l73 464l6 40q-146 -82 -291 -82q-156 0 -274.5 54t-183.5 155t-65 238q0 43 8 97l7 46q26 166 118 289t234 189t315 66q156 0 274 -54t182.5 -154.5t64.5 -238.5q0 -43 -8 -97l-7 -46q0 -3 -2 -9l-39 -250h300zM916 748q85 78 107 215l4 23
l4 23q5 29 5 65q0 110 -64.5 172t-182.5 62q-142 0 -229 -79.5t-109 -219.5l-7 -42q-5 -37 -5 -62q0 -109 65 -172t184 -63q143 0 228 78z" />
    <glyph glyph-name="uni0534" unicode="&#x534;" horiz-adv-x="1557" 
d="M1501 464h-298l-74 -464h-301l74 464h-1l39 243l55 346q5 29 5 64q0 98 -56 147.5t-165 49.5q-125 0 -202 -67t-99 -207l-61 -384h-301l61 384q26 166 112.5 282t219.5 175t298 59q147 0 258.5 -48t174 -142t62.5 -228q0 -44 -8 -98l-53 -333h299z" />
    <glyph glyph-name="uni0535" unicode="&#x535;" horiz-adv-x="1371" 
d="M428 496q-6 -39 -6 -73q0 -201 220 -201q126 0 202 65.5t96 195.5l27 167h301l-24 -154q-26 -166 -113.5 -282t-220.5 -175t-296 -59q-148 0 -259.5 47.5t-173.5 141t-62 227.5q0 53 8 100l83 529l22 138l59 373h301l-59 -373h877l-38 -243h-877z" />
    <glyph glyph-name="uni0536" unicode="&#x536;" horiz-adv-x="1340" 
d="M1189 670.5q-94 -124.5 -142 -154t-176 -95.5h16q165 0 254.5 -86t89.5 -239q0 -41 -8 -94v-2h-301q4 21 4 45q0 63 -35.5 98t-108.5 35h-481l-28 -178h-300l28 178l20 122l47 299h300l-28 -178h79l22 7q101 28 212 81t221.5 177t142.5 323q6 39 6 72q0 113 -63.5 173
t-173.5 60q-129 0 -213 -69.5t-107 -215.5l-20 -123h-300l20 125q42 261 207 393t441 132q154 0 269 -51t178 -151.5t63 -245.5q0 -58 -10 -117q-31 -196 -125 -320.5z" />
    <glyph glyph-name="uni0537" unicode="&#x537;" horiz-adv-x="1255" 
d="M504 920l-108 -677h112q142 0 245.5 -43t159 -123t55.5 -187q0 -33 -6 -69h-300q2 16 2 22q0 46 -29.5 81.5t-83.5 55.5t-126 20h-367l38 243l205 1293h300l-59 -373h752l-38 -243h-752z" />
    <glyph glyph-name="uni0538" unicode="&#x538;" horiz-adv-x="1395" 
d="M1075.5 1508q111.5 -48 174 -142t62.5 -228q0 -44 -8 -98l-61 -384h-301l63 397q5 29 5 64q0 98 -56 147.5t-165 49.5q-125 0 -202 -67t-99 -207l-126 -797h876l-38 -243h-1178l38 243h1l126 797q26 166 112.5 282t219.5 175t298 59q147 0 258.5 -48z" />
    <glyph glyph-name="uni0539" unicode="&#x539;" horiz-adv-x="1886" 
d="M1871 901l-38 -235h-202l-37 -235q-34 -216 -169 -333.5t-380 -117.5q-137 0 -237.5 45.5t-154 130t-53.5 199.5q0 44 7 86l4 27q34 212 177 322.5t383 110.5h196l15 92q3 21 3 42q0 79 -47.5 142t-139 100t-217.5 37q-134 0 -244 -43t-178.5 -119t-83.5 -172l-155 -980
h-301l155 980q27 172 131.5 301.5t283 202t420.5 72.5q218 0 371 -60t231 -169t78 -255q0 -41 -8 -92l-13 -79h203zM1330 666h-187q-99 0 -159.5 -64t-75.5 -162q-4 -32 -4 -45q0 -77 43.5 -125t125.5 -48q88 0 146.5 58t73.5 151z" />
    <glyph glyph-name="uni053A" unicode="&#x53a;" horiz-adv-x="1514" 
d="M1515 920h-302l-60 -380q-30 -193 -100.5 -315.5t-196.5 -183.5t-321 -61q-156 0 -268 55.5t-171 159t-59 244.5q0 56 9 116l5 33q27 174 114 304t224 200.5t313 70.5h249l59 373h301l-59 -373h301zM912 920h-238q-79 0 -146 -41t-112.5 -119.5t-63.5 -188.5
q-9 -55 -9 -102q0 -120 56 -183.5t164 -63.5q122 0 193 78.5t96 239.5z" />
    <glyph glyph-name="uni053B" unicode="&#x53b;" horiz-adv-x="1371" 
d="M1057.5 1162.5q111.5 -47.5 173.5 -141t62 -227.5q0 -53 -8 -100l-52 -330h-301l52 330q6 39 6 72q0 202 -221 202q-82 0 -145.5 -38.5t-104 -106.5t-54.5 -156l-106 -667h-301l104 654l2 11l137 871h300l-61 -388q126 62 258 62q148 0 259.5 -47.5z" />
    <glyph glyph-name="uni053C" unicode="&#x53c;" horiz-adv-x="1075" 
d="M863.5 200q103.5 -43 159 -123t55.5 -187q0 -33 -6 -69h-300q2 16 2 22q0 46 -29.5 81.5t-83.5 55.5t-126 20h-477l38 243l205 1293h300l-205 -1293h222q142 0 245.5 -43z" />
    <glyph glyph-name="uni053D" unicode="&#x53d;" horiz-adv-x="1855" 
d="M1829 1163l-105 -667q-26 -165 -109 -281.5t-205.5 -175.5t-267.5 -59q-131 0 -232 47t-158.5 139.5t-57.5 224.5q0 50 9 105l67 424h-266l-146 -920h-300l243 1536h300l-59 -373h566l-106 -667q-8 -50 -8 -86q0 -188 176 -188q103 0 167 65.5t84 195.5l108 680h300z" />
    <glyph glyph-name="uni053E" unicode="&#x53e;" horiz-adv-x="1589" 
d="M1631 1115h-254q68 -121 68 -283q0 -61 -11 -133l-10 -60q-32 -202 -131.5 -351t-249.5 -228.5t-332 -79.5q-161 0 -283 63t-189 181.5t-67 280.5q0 60 11 134l10 60q21 130 74.5 239.5t134.5 194.5q-139 33 -215.5 120.5t-76.5 213.5q0 33 6 69h300q-2 -16 -2 -22
q0 -46 29.5 -81.5t83.5 -55t126 -19.5h1016zM1140 817q0 144 -67.5 219t-194.5 75q-152 0 -251 -105t-130 -303l-10 -64q-10 -60 -10 -117q0 -143 67.5 -219t195.5 -76q151 0 250 105.5t130 302.5l10 64q10 60 10 118z" />
    <glyph glyph-name="uni053F" unicode="&#x53f;" horiz-adv-x="1380" 
d="M1326 1082l-171 -1082h-300l60 380q-124 -54 -256 -54q-149 0 -260.5 47.5t-173.5 141.5t-62 228q0 43 8 99l110 694h301l-110 -694q-6 -39 -6 -72q0 -202 221 -202q126 0 202.5 65.5t96.5 195.5l40 253h300z" />
    <glyph glyph-name="uni0540" unicode="&#x540;" horiz-adv-x="1200" 
d="M201 1536h507q232 0 350.5 -87.5t118.5 -257.5q0 -45 -7 -90q-19 -121 -70 -196t-164 -115q179 -58 179 -250q0 -37 -6 -73l-74 -468h-301l71 448q4 24 4 50q0 89 -60 134t-177 45h-457l37 235h457q72 0 128 25t90 69t43 99q3 17 3 32q0 71 -52.5 113.5t-150.5 43.5h-507
z" />
    <glyph glyph-name="uni0541" unicode="&#x541;" horiz-adv-x="1454" 
d="M1152.5 1491q124.5 -65 188 -180t63.5 -265q0 -58 -9 -118l-5 -29q-18 -112 -75.5 -245t-145.5 -255q15 -18 28.5 -35.5t26.5 -33.5q82 -103 124 -145l-234 -236q-36 44 -80 103q-71 91 -87 111q-108 -87 -230.5 -135t-256.5 -48q-191 0 -308 74t-117 231q0 33 6 70
q31 193 173 281t354 88q227 0 403 -130q89 143 114 295l4 29q7 41 7 87q0 85 -29 154t-90.5 110t-155.5 41q-152 0 -242.5 -70.5t-109.5 -188.5l-6 -43h-300l7 45q23 147 110.5 261t233.5 178t339 64q175 0 299.5 -65zM345 338q0 -49 37 -80t107 -31q60 0 133.5 34.5
t146.5 96.5q-134 120 -240 120q-79 0 -126 -31t-56 -87q-2 -16 -2 -22z" />
    <glyph glyph-name="uni0542" unicode="&#x542;" horiz-adv-x="1565" 
d="M1466 243l-38 -243h-600l38 243h1l128 810q5 29 5 64q0 98 -56 147.5t-165 49.5q-125 0 -202 -67t-99 -207l-61 -384h-301l61 384q26 166 112.5 282t219.5 175t298 59q147 0 258.5 -48t174 -142t62.5 -228q0 -44 -8 -98l-126 -797h298z" />
    <glyph glyph-name="uni0543" unicode="&#x543;" horiz-adv-x="1511" 
d="M694 1082h239q150 0 261 -61.5t170 -170t59 -248.5q0 -53 -9 -110l-78 -492h-301v1h-910l38 235h-1l54 339q21 136 58 264h-217l38 243h273q122 242 314 358t441 116q102 0 193.5 -12t155 -26.5t63.5 -15.5l-50 -249q0 2 -50 18t-130.5 29.5t-182.5 13.5
q-270 0 -428 -232zM579 839q-39 -117 -63 -269l-52 -326h609l27 169q11 74 11 128q0 104 -39 169.5t-121.5 97t-215.5 31.5h-156z" />
    <glyph glyph-name="uni0544" unicode="&#x544;" horiz-adv-x="1559" 
d="M1669 1293h-299l-126 -797q-26 -166 -113.5 -282t-220.5 -175t-296 -59q-148 0 -259.5 47.5t-173.5 141t-62 227.5q0 53 8 100l164 1040h301l-164 -1040q-6 -39 -6 -73q0 -201 220 -201q251 0 298 261l167 1053h600z" />
    <glyph glyph-name="uni0545" unicode="&#x545;" horiz-adv-x="1332" 
d="M79 666l38 235h631q115 0 187.5 57.5t87.5 154.5q3 17 3 33q0 78 -62 123.5t-177 45.5q-126 0 -197.5 -53t-84.5 -141h-300q21 133 108 231.5t218.5 151t283.5 52.5q151 0 267.5 -42t182 -124t65.5 -199q0 -33 -6 -71q-17 -108 -94 -191.5t-202 -139.5
q106 -42 165.5 -116.5t59.5 -179.5q0 -35 -5 -63q-23 -144 -111 -245t-227.5 -153t-314.5 -52q-157 0 -278.5 45.5t-189.5 132.5t-68 207q0 34 6 70h301q-3 -19 -3 -38q0 -90 70.5 -133t190.5 -43q132 0 219.5 52.5t104.5 161.5q4 32 4 45q0 93 -65 139.5t-177 46.5h-631z
" />
    <glyph glyph-name="uni0546" unicode="&#x546;" horiz-adv-x="1604" 
d="M1543 880l-60 -384q-26 -166 -113 -282t-220 -175t-298 -59q-147 0 -258.5 47.5t-173.5 141.5t-62 228q0 52 8 99l126 797h-299l38 243h600l-38 -243h-1l-128 -810q-5 -29 -5 -64q0 -98 56 -147.5t165 -49.5q125 0 202 67t100 207l60 384h301z" />
    <glyph glyph-name="uni0547" unicode="&#x547;" horiz-adv-x="1282" 
d="M508.5 881.5q-118.5 -109.5 -152.5 -324.5q-6 -40 -6 -75q0 -85 32.5 -143.5t89 -87.5t126.5 -29q77 0 143.5 34t111.5 98.5t59 152.5l4 23h301l-4 -25q-27 -169 -112.5 -286.5t-222 -178t-314.5 -60.5q-156 0 -272.5 58.5t-180 167t-63.5 254.5q0 48 10 115
q42 258 183 390.5t296 184.5l-235 115l46 291l943 -461l-46 -291l-460 225q-158 -38 -276.5 -147.5z" />
    <glyph glyph-name="uni0548" unicode="&#x548;" horiz-adv-x="1374" 
d="M1010 1117q0 98 -56 147.5t-165 49.5q-125 0 -202 -67t-99 -207l-165 -1040h-301l165 1040q26 166 112.5 282t219.5 175t298 59q147 0 258.5 -48t174 -142t62.5 -228q0 -44 -8 -98l-165 -1040h-301l167 1053q5 29 5 64z" />
    <glyph glyph-name="uni0549" unicode="&#x549;" horiz-adv-x="1279" 
d="M1080.5 1507q117.5 -49 182 -147t64.5 -239q0 -51 -9 -110q-45 -280 -192.5 -432t-303.5 -219l239 -117l-46 -291l-943 461l46 291l415 -203q175 40 312 162t175 366q4 25 4 53q0 73 -33.5 125.5t-91 79.5t-129.5 27q-77 0 -143.5 -34t-111.5 -99t-59 -152l-4 -23h-301
l4 25q27 169 112.5 286.5t222 178t314.5 60.5q159 0 276.5 -49z" />
    <glyph glyph-name="uni054A" unicode="&#x54a;" horiz-adv-x="1751" 
d="M1371 1496q153 -60 230.5 -168.5t77.5 -253.5q0 -43 -8 -94l-155 -980h-301l155 980q4 21 4 47q0 99 -67 171t-188 100l-134 -845h-301l134 846q-98 -21 -173 -66t-120.5 -107t-57.5 -133l-37 -235h-301l35 222q27 172 132.5 301.5t283.5 202t418 72.5q220 0 373 -60z
" />
    <glyph glyph-name="uni054B" unicode="&#x54b;" horiz-adv-x="1339" 
d="M1224 722q-80 -119 -153 -179t-157 -115q97 -9 168.5 -55t109 -121.5t37.5 -169.5q0 -31 -7 -80l-301 -2q2 10 2 29q0 44 -20.5 78t-55 52.5t-74.5 18.5h-462l-28 -178h-301l92 579h301l-25 -155l66 1q44 11 72 20q15 11 27.5 30t12.5 43q0 77 -148 152
q-97 49 -159.5 124.5t-62.5 185.5q0 34 5 61q41 249 208 382t440 133q163 0 281.5 -51t182.5 -150t64 -241q0 -46 -10 -113q-25 -160 -105 -279zM1036 1091q0 105 -67.5 161.5t-185.5 56.5q-133 0 -212.5 -61.5t-100.5 -188.5q-3 -18 -3 -33q0 -46 23 -80t56.5 -56.5
t88.5 -50.5q54 -28 89 -53t59.5 -65.5t24.5 -98.5q178 159 222 407q6 33 6 62z" />
    <glyph glyph-name="uni054C" unicode="&#x54c;" horiz-adv-x="1567" 
d="M1511 464h-298l-74 -464h-301l74 464h-1l39 243l55 346q5 29 5 64q0 98 -56 147.5t-165 49.5q-125 0 -202 -67t-99 -207l-165 -1040h-301l165 1040q26 166 112.5 282t219.5 175t298 59q147 0 258.5 -48t174 -142t62.5 -228q0 -44 -8 -98l-53 -333h299z" />
    <glyph glyph-name="uni054D" unicode="&#x54d;" horiz-adv-x="1375" 
d="M1107 1536h301l-164 -1040q-26 -166 -113.5 -282t-220.5 -175t-296 -59q-148 0 -259.5 47.5t-173.5 141t-62 227.5q0 53 8 100l164 1040h301l-164 -1040q-6 -39 -6 -73q0 -201 220 -201q251 0 298 261z" />
    <glyph glyph-name="uni054E" unicode="&#x54e;" horiz-adv-x="1571" 
d="M1472 243l-38 -243h-600l38 243l23 145q-126 -62 -257 -62q-148 0 -260 47.5t-174.5 140.5t-62.5 227q0 49 9 101l52 321h301l-52 -321q-6 -39 -6 -73q0 -103 57 -152t164 -49q120 0 200 80.5t104 212.5l28 180l78 495h301l-103 -654l-6 -31l-96 -608h300z" />
    <glyph glyph-name="uni054F" unicode="&#x54f;" horiz-adv-x="1232" 
d="M834 436q0 54 -30 93.5t-82 68t-133 58.5q-129 48 -220 99.5t-147.5 127.5t-56.5 181q0 36 5 63q20 128 100 225t208 150.5t288 53.5q141 0 249 -50.5t167.5 -141.5t59.5 -207q0 -35 -6 -73h-300q4 24 4 50q0 86 -52 134.5t-154 48.5q-113 0 -182 -53.5t-82 -137.5
q-2 -14 -2 -20q0 -65 68 -114.5t200 -94.5q206 -69 304.5 -165t98.5 -243q0 -42 -7 -83q-21 -134 -96.5 -229.5t-200 -146t-288.5 -50.5q-149 0 -268.5 45t-189 137.5t-69.5 229.5q0 40 8 93h301q-6 -40 -6 -74q0 -109 64 -151t187 -42q74 0 129.5 25.5t87.5 67.5t40 92
q3 18 3 33z" />
    <glyph glyph-name="uni0550" unicode="&#x550;" horiz-adv-x="1329" 
d="M323 0h-301l165 1040q26 166 113 282t220 175t296 59q149 0 260.5 -47.5t173.5 -141.5t62 -228q0 -43 -8 -99l-61 -384h-301l61 384q6 39 6 72q0 202 -221 202q-126 0 -202 -65.5t-96 -195.5z" />
    <glyph glyph-name="uni0551" unicode="&#x551;" horiz-adv-x="1352" 
d="M117 905h256q-31 32 -51 86.5t-20 113.5q0 22 3 44q31 196 169 301.5t379 105.5q218 0 331 -87t113 -253q0 -45 -7 -87q-18 -109 -83 -203t-159 -137q111 -45 168 -119.5t57 -175.5q0 -36 -5 -64q-23 -144 -111 -245t-227.5 -153t-314.5 -52q-157 0 -278.5 45.5
t-189.5 132.5t-68 207q0 34 6 70h301q-3 -19 -3 -38q0 -90 70.5 -133t190.5 -43q132 0 219.5 52.5t104.5 161.5q4 32 4 45q0 92 -64.5 136t-177.5 46h-651zM579 1069q0 -78 43.5 -119.5t138.5 -41.5q112 0 171 56.5t76 164.5q5 35 5 60q0 164 -182 164q-111 0 -170.5 -58
t-76.5 -166q-5 -35 -5 -60z" />
    <glyph glyph-name="uni0552" unicode="&#x552;" horiz-adv-x="699" 
d="M692 696h-274l-110 -696h-300l110 696l8 48l125 792h300l-94 -597h274z" />
    <glyph glyph-name="uni0553" unicode="&#x553;" horiz-adv-x="1674" 
d="M927 177l-28 -177h-289l28 177h-21q-158 0 -278 57t-185.5 164t-65.5 252q0 53 9 108q28 181 128.5 316.5t252 208.5t329.5 73h18l28 180h289l-28 -180h26q156 0 273 -58t181 -166.5t64 -256.5q0 -55 -9 -115q-27 -175 -126 -307.5t-247.5 -204t-323.5 -71.5h-25z
M677 426l108 681h-18q-156 0 -257.5 -88t-128.5 -261q-6 -40 -6 -77q0 -126 74 -190.5t207 -64.5h21zM1074 1107l-108 -681h20q153 0 253 85t126 249q7 43 7 87q0 129 -72.5 194.5t-205.5 65.5h-20z" />
    <glyph glyph-name="uni0554" unicode="&#x554;" horiz-adv-x="1531" 
d="M1230.5 1506q119.5 -50 186.5 -143.5t67 -219.5q0 -31 -7 -80l-6 -42q-24 -150 -115 -262t-231.5 -172t-310.5 -60q-150 0 -281 83l-32 -204h908l-38 -243h-908l-26 -163h-300l26 163h-220l38 243h220l95 601l2 14l6 42q24 150 114 261.5t229.5 171.5t309.5 60
q154 0 273.5 -50zM1181 1107q0 94 -64.5 146.5t-186.5 52.5q-86 0 -155.5 -30t-113.5 -86t-56 -131l-6 -37q-4 -21 -4 -46q0 -93 64 -146t187 -53q86 0 155.5 30.5t114 86t55.5 128.5l6 37q4 23 4 48z" />
    <glyph glyph-name="uni0555" unicode="&#x555;" horiz-adv-x="1378" 
d="M1337 732q-36 -230 -139 -400t-255 -261t-334 -91q-159 0 -278 69.5t-184 200t-65 310.5q0 88 14 172l11 69q36 231 139 401.5t255.5 262t334.5 91.5q159 0 277.5 -69.5t183.5 -201t65 -311.5q0 -88 -14 -173zM1045 806q15 93 15 169q0 164 -65 249t-188 85
q-151 0 -253 -127.5t-141 -369.5l-13 -79q-15 -93 -15 -170q0 -164 65 -250t188 -86q151 0 253 129t141 372z" />
    <glyph glyph-name="uni0556" unicode="&#x556;" horiz-adv-x="1586" 
d="M1303 935q124 -50 190.5 -142t66.5 -216q0 -38 -6 -77l-5 -35q-24 -149 -126.5 -258t-284 -168t-435.5 -59q-349 0 -523 115.5t-174 323.5q0 45 7 87h301l-1 -8q-3 -19 -3 -37q0 -73 43.5 -127.5t109 -83.5t127.5 -29l82 521q-231 0 -355 85.5t-124 242.5q0 33 6 69
q20 125 97 214.5t204.5 136t297.5 46.5h300l-38 -243l-49 -308h1q167 0 291 -50zM498 1111q0 -61 50 -93.5t163 -32.5l49 308q-125 0 -186.5 -40t-73.5 -114q-2 -20 -2 -28zM1255 526q0 63 -38 112.5t-102.5 76.5t-141.5 27h-1l-82 -521h1q84 0 162 31.5t131 88.5t64 128
l4 25q3 17 3 32z" />
    <glyph glyph-name="uni0559" unicode="&#x559;" horiz-adv-x="464" 
d="M419 1601q-5 -27 -5 -67q0 -104 50 -209l-149 -79q-56 55 -91.5 143t-35.5 174q0 31 4 54l25 155h229z" />
    <glyph glyph-name="uni055A" unicode="&#x55a;" horiz-adv-x="470" 
d="M501 1772l-25 -155q-15 -95 -84.5 -200.5t-156.5 -170.5l-123 79q112 143 133 276l27 171h229z" />
    <glyph glyph-name="uni055B" unicode="&#x55b;" horiz-adv-x="292" 
d="M254 1772l-391 -497h-237l311 497h317z" />
    <glyph glyph-name="uni055C" unicode="&#x55c;" horiz-adv-x="317" 
d="M-366 1311q7 48 36 109t76.5 113t108.5 71q79 25 111 68.5t43 113.5l1 9h270l-4 -25q-12 -77 -28.5 -130.5t-56 -99.5t-110.5 -67q-86 -25 -135.5 -86t-59.5 -124l-1 -9h-260z" />
    <glyph glyph-name="uni055D" unicode="&#x55d;" horiz-adv-x="289" 
d="M334 1275h-237l-233 497h317z" />
    <glyph glyph-name="uni055E" unicode="&#x55e;" horiz-adv-x="541" 
d="M180.5 1529.5q40.5 28.5 49.5 86.5q2 16 2 22q0 41 -28.5 62t-82.5 21q-44 0 -87.5 -26t-75.5 -76.5t-43 -120.5l-38 -243h-240l40 256q22 139 96 235t175.5 143t206.5 47q144 0 233.5 -61.5t89.5 -183.5q0 -23 -5 -55q-24 -152 -125 -245.5t-304 -93.5l33 204
q63 0 103.5 28.5z" />
    <glyph glyph-name="uni055F" unicode="&#x55f;" horiz-adv-x="815" 
d="M203.5 1374.5q-88.5 75.5 -88.5 189.5q0 27 5 57q13 83 60.5 155.5t135 118.5t212.5 46h78l-30 -194h-21q-89 0 -140.5 -37.5t-51.5 -105.5q0 -55 44.5 -84t127.5 -29h339l-30 -192h-339q-213 0 -301.5 75.5z" />
    <glyph glyph-name="uni0561" unicode="&#x561;" horiz-adv-x="1802" 
d="M1344 316l121 766h290l-171 -1082h-272l9 119q-68 -71 -146.5 -105t-175.5 -34q-105 0 -175 41.5t-96 123.5q-69 -84 -152 -124.5t-189 -40.5q-143 0 -222.5 71.5t-79.5 225.5q0 51 9 111l110 694h290l-109 -690q-5 -35 -5 -57q0 -68 35 -94.5t104 -26.5q128 0 198 121
l118 747h289l-109 -688q-5 -35 -5 -55q0 -70 35.5 -97.5t105.5 -27.5q120 0 193 102z" />
    <glyph glyph-name="uni0562" unicode="&#x562;" horiz-adv-x="1225" 
d="M806 690q5 33 5 55q0 68 -37 95.5t-112 27.5q-122 0 -199 -104l-88 -553h718l-33 -211h-718l-66 -416h-289l82 518l17 109l138 871h271l-9 -124q70 73 148.5 108.5t174.5 35.5q140 0 219 -70.5t79 -224.5q0 -45 -10 -113l-40 -253h-290z" />
    <glyph glyph-name="uni0563" unicode="&#x563;" horiz-adv-x="1310" 
d="M1180 0h-228l-66 -416h-290l66 416l15 92q-61 -57 -126 -84.5t-143 -27.5q-114 0 -194.5 52.5t-122 147.5t-41.5 219q0 60 11 131l3 21q26 165 95.5 289.5t176 193t241.5 68.5q174 0 257 -131l35 111h254l-134 -849h228zM342 427q0 -99 40 -156.5t126 -57.5
q132 0 204 106l71 448q-37 102 -169 102q-109 0 -173 -87.5t-90 -251.5q-9 -54 -9 -103z" />
    <glyph glyph-name="uni0564" unicode="&#x564;" horiz-adv-x="1339" 
d="M1209 0h-228l-66 -416h-290l175 1106q5 33 5 55q0 68 -37 95.5t-112 27.5q-122 0 -199 -104l-121 -764h-289l171 1082h271l-9 -124q70 73 148.5 108.5t174.5 35.5q140 0 219 -70.5t79 -224.5q0 -45 -10 -113l-73 -461h228z" />
    <glyph glyph-name="uni0565" unicode="&#x565;" horiz-adv-x="1204" 
d="M406 380q-4 -32 -4 -43q0 -63 35 -92.5t96 -29.5q147 0 219 103l52 324h290l-102 -642h-272l10 111q-65 -66 -139 -98.5t-168 -32.5q-146 0 -230 73.5t-84 225.5q0 51 8 99l183 1158h289l-72 -454h719l-37 -233h-719z" />
    <glyph glyph-name="uni0566" unicode="&#x566;" horiz-adv-x="1237" 
d="M1151 -183l-37 -233h-518l37 233l44 275q-119 -112 -279 -112q-112 0 -190.5 51.5t-118 145t-39.5 216.5q0 71 11 137l3 21q26 165 95.5 289.5t176 193t241.5 68.5q174 0 257 -131l35 111h254l-200 -1265h228zM712 319l71 448q-37 102 -169 102q-109 0 -173 -87.5
t-90 -251.5q-9 -54 -9 -103q0 -99 40 -156.5t126 -57.5q132 0 204 106z" />
    <glyph glyph-name="uni0567" unicode="&#x567;" horiz-adv-x="1084" 
d="M500 849l-97 -616h82q145 0 233.5 -63t88.5 -190q0 -24 -5 -61q-25 -156 -149 -233.5t-321 -77.5l37 233q70 0 107.5 24.5t37.5 68.5q0 66 -120 66h-317l134 849l37 233l72 454h289l-72 -454h599l-37 -233h-599z" />
    <glyph glyph-name="uni0568" unicode="&#x568;" horiz-adv-x="1187" 
d="M806 690q5 33 5 55q0 68 -37 95.5t-112 27.5q-122 0 -199 -104l-150 -947h718l-37 -233h-1007l237 1498h271l-9 -124q70 73 148.5 108.5t174.5 35.5q140 0 219 -70.5t79 -224.5q0 -45 -10 -113l-110 -694h-290z" />
    <glyph glyph-name="uni0569" unicode="&#x569;" horiz-adv-x="1613" 
d="M1550 478h-166l-22 -135q-18 -115 -77.5 -196.5t-153.5 -124t-213 -42.5q-118 0 -203 35.5t-129.5 101t-44.5 152.5q0 25 5 58l4 24q17 106 76 187.5t159 127t235 45.5h102q-12 69 -85.5 113t-200.5 44q-122 0 -229.5 -27.5t-143.5 -76.5l-187 -1180h-289l237 1498h271
l-9 -124q68 71 180 107.5t256 36.5q123 0 239 -44t189 -132t68 -215h169zM1094 477h-111q-58 0 -98 -38.5t-50 -105.5q-2 -16 -2 -24q0 -48 30 -79t81 -31q44 0 80 36t47 102z" />
    <glyph glyph-name="uni056A" unicode="&#x56a;" horiz-adv-x="1284" 
d="M1334 848h-228l-50 -318q-31 -197 -104 -317.5t-192 -176.5t-293 -56q-141 0 -242 54.5t-153.5 152t-52.5 224.5q0 52 9 106l5 34q25 158 105.5 277.5t207 186t285.5 66.5h222l72 455h290l-72 -455h228zM816 848h-212q-119 0 -189 -81.5t-95 -236.5q-10 -68 -10 -112
q0 -101 43.5 -153t140.5 -52q91 0 143.5 33t81 100t47.5 184z" />
    <glyph glyph-name="uni056B" unicode="&#x56b;" horiz-adv-x="1216" 
d="M488 771l-188 -1187h-289l309 1952h289l-90 -571q68 69 141 103t159 34q146 0 228.5 -73t82.5 -231q0 -51 -9 -111l-109 -687h-290l108 684q5 33 5 55q0 70 -37 99.5t-112 29.5q-126 0 -198 -97z" />
    <glyph glyph-name="uni056C" unicode="&#x56c;" horiz-adv-x="628" 
d="M542 -183l-37 -233h-518l237 1498h289l-200 -1265h229z" />
    <glyph glyph-name="uni056D" unicode="&#x56d;" horiz-adv-x="1812" 
d="M1765 1082l-171 -1082h-272l10 111q-65 -66 -139 -98.5t-168 -32.5q-146 0 -230 73.5t-84 224.5q0 52 8 100l74 471h-293l-200 -1265h-289l200 1265l37 233l72 454h289l-72 -454h582l-111 -702q-4 -32 -4 -43q0 -63 35 -92.5t96 -29.5q147 0 219 103l121 764h290z" />
    <glyph glyph-name="uni056E" unicode="&#x56e;" horiz-adv-x="1175" 
d="M1190 849h-161q37 -88 37 -196q0 -52 -9 -112l-2 -11q-25 -160 -100.5 -284.5t-197 -195t-280.5 -70.5q-141 0 -244.5 55.5t-158 154.5t-54.5 227q0 46 8 100l5 34q21 133 81 239.5t154.5 177.5t215.5 98q-47 56 -72 111.5t-25 117.5q0 14 4 46q8 48 20.5 91t23 70
t13.5 34h289q-3 -6 -13.5 -29t-22.5 -62t-20 -85q-3 -16 -3 -33q0 -47 22 -87.5t52 -71t93 -86.5h382zM772 601q0 70 -24 130t-68 118h-88q-118 0 -182.5 -81t-89.5 -238q-8 -50 -8 -89q0 -104 47.5 -166t144.5 -62q112 0 174 83t89 241q5 28 5 64z" />
    <glyph glyph-name="uni056F" unicode="&#x56f;" horiz-adv-x="1232" 
d="M636 -416l84 527q-57 -66 -130 -98.5t-167 -32.5q-146 0 -230 73.5t-84 224.5q0 52 8 100l183 1158h289l-183 -1156q-4 -32 -4 -43q0 -63 35 -92.5t96 -29.5q147 0 219 103l121 764h290l-237 -1498h-290z" />
    <glyph glyph-name="uni0570" unicode="&#x570;" horiz-adv-x="1210" 
d="M482 771l-122 -771h-289l243 1536h289l-90 -571q68 69 141 103t159 34q146 0 228.5 -73t82.5 -231q0 -51 -9 -111l-109 -687h-290l108 684q5 33 5 55q0 70 -37 99.5t-112 29.5q-126 0 -198 -97z" />
    <glyph glyph-name="uni0571" unicode="&#x571;" horiz-adv-x="1118" 
d="M1024 1385q36 -31 36 -80q0 -6 -2 -22l-1 -9q-9 -59 -48 -106.5t-82 -73.5q-58 -36 -124 -79q108 -60 168 -171t60 -246q0 -33 -5 -76l-83 -522h-276l-2 116q-95 -136 -288 -136q-109 0 -188 51.5t-121 143t-42 207.5q0 54 9 109l4 25q20 125 74.5 217.5t154.5 175
t274 187.5l150 87h-166q-129 0 -198.5 57.5t-69.5 166.5q0 35 5 62l10 64h290q-2 -18 -2 -26q0 -46 29 -69t80 -23l254 1q64 0 100 -31zM730 575q0 102 -36.5 175.5t-103.5 108.5q-127 -106 -187 -195t-74 -178l-3 -16q-6 -39 -6 -71q0 -89 40.5 -137t116.5 -48
q72 0 125.5 25.5t94.5 78.5l26 164q7 45 7 93z" />
    <glyph glyph-name="uni0572" unicode="&#x572;" horiz-adv-x="1266" 
d="M1180 -183l-37 -233h-518l175 1106q5 33 5 55q0 68 -37 95.5t-112 27.5q-122 0 -199 -104l-121 -764h-289l171 1082h271l-9 -124q70 73 148.5 108.5t174.5 35.5q140 0 219 -70.5t79 -224.5q0 -45 -10 -113l-139 -877h228z" />
    <glyph glyph-name="uni0573" unicode="&#x573;" horiz-adv-x="1226" 
d="M785.5 1264q-114.5 -61 -191.5 -182h122q137 0 235 -48t149 -138.5t51 -216.5q0 -50 -9 -107l-91 -572h-279l9 126q-52 -65 -138.5 -105.5t-194.5 -40.5q-98 0 -177.5 37.5t-126 115t-46.5 191.5q0 51 8 98q38 237 103 426h-141l37 234h205q122 229 299.5 351t406.5 124
q77 1 142 -6t104 -21l-46 -230q-60 25 -150 25q-166 0 -280.5 -61zM488 848q-51 -162 -94 -428q-4 -30 -4 -44q0 -75 43.5 -118.5t132.5 -43.5q63 0 134.5 34t114.5 93l30 191q7 43 7 86q0 122 -69.5 176t-206.5 54h-88z" />
    <glyph glyph-name="uni0574" unicode="&#x574;" horiz-adv-x="1210" 
d="M1402 1303h-228l-206 -1303h-272l10 111q-65 -66 -139 -98.5t-168 -32.5q-146 0 -230 73.5t-84 224.5q0 52 8 100l111 704h289l-111 -702q-4 -32 -4 -43q0 -63 35 -92.5t96 -29.5q147 0 219 103l156 985l37 233h518z" />
    <glyph glyph-name="uni0575" unicode="&#x575;" horiz-adv-x="606" 
d="M268 1082h290l-181 -1142q-28 -182 -139.5 -279.5t-287.5 -97.5q-73 0 -143 17l37 229q45 -9 90 -9q132 0 153 140z" />
    <glyph glyph-name="uni0576" unicode="&#x576;" horiz-adv-x="1210" 
d="M1163 1082l-171 -1082h-272l10 111q-65 -66 -139 -98.5t-168 -32.5q-146 0 -230 73.5t-84 224.5q0 52 8 100l146 925h-229l37 233h518l-183 -1156q-4 -32 -4 -43q0 -63 35 -92.5t96 -29.5q147 0 219 103l121 764h290z" />
    <glyph glyph-name="uni0577" unicode="&#x577;" horiz-adv-x="1112" 
d="M243 -97q0 -42 35.5 -64t97.5 -22h560l-37 -233h-560q-176 0 -287 56t-111 205q0 31 6 67q17 106 75 180t133.5 121.5t202.5 110.5l58 29l28 14q97 49 159 87t112 92.5t61 122.5q3 20 3 37q0 71 -42.5 117t-116.5 46q-55 0 -101.5 -27t-76.5 -72.5t-39 -99.5l-4 -27h-290
l7 37q18 116 91 212.5t187.5 153t249.5 56.5q127 0 225 -47t151.5 -127.5t53.5 -177.5q0 -29 -4 -53q-23 -145 -97.5 -245t-165.5 -159.5t-227 -127.5l-34 -17q-34 -17 -52 -25q-73 -35 -120.5 -62.5t-85 -63t-43.5 -75.5q-2 -14 -2 -19z" />
    <glyph glyph-name="uni0578" unicode="&#x578;" horiz-adv-x="1185" 
d="M457 764l-121 -764h-289l171 1082h271l-9 -124q70 73 148.5 108.5t174.5 35.5q140 0 219 -70.5t79 -224.5q0 -45 -10 -113l-110 -694h-290l109 690q5 33 5 55q0 68 -37 95.5t-112 27.5q-122 0 -199 -104z" />
    <glyph glyph-name="uni0579" unicode="&#x579;" horiz-adv-x="883" 
d="M32.5 83.5q63.5 86.5 147 161t226.5 187.5q21 17 21 38q0 12 -10 25l-68 68q-50 47 -77.5 78.5t-45 68.5t-17.5 81q0 17 3 35q10 68 53.5 138.5t109.5 117.5h290q-156 -113 -156 -217q0 -41 24 -73.5t81 -83.5q47 -43 75 -72q48 -49 48 -118q0 -49 -25.5 -100t-71.5 -92
q-147 -132 -220.5 -201t-121.5 -127t-54 -98q-1 -5 -1 -14q0 -35 29 -52t78 -17h407l-37 -233h-443q-138 0 -233 53.5t-95 196.5q0 33 6 72q14 91 77.5 177.5z" />
    <glyph glyph-name="uni057A" unicode="&#x57a;" horiz-adv-x="1824" 
d="M1344 316l121 766h290l-237 -1498h-290l85 535q-62 -70 -139 -104.5t-175 -34.5q-105 0 -175 41.5t-96 123.5q-69 -84 -152 -124.5t-189 -40.5q-143 0 -222.5 71.5t-79.5 225.5q0 51 9 111l110 694h290l-109 -690q-5 -35 -5 -57q0 -68 35 -94.5t104 -26.5q128 0 198 121
l118 747h289l-109 -688q-5 -35 -5 -55q0 -70 35.5 -97.5t105.5 -27.5q120 0 193 102z" />
    <glyph glyph-name="uni057B" unicode="&#x57b;" horiz-adv-x="1218" 
d="M11 18q37 57 90 96.5t128 77.5q46 42 46 72q0 19 -13.5 36t-42.5 43q-36 33 -60.5 61.5t-42.5 73t-18 104.5q0 32 6 68q20 125 90 227.5t191.5 163.5t287.5 61q150 0 253 -49.5t153.5 -135t50.5 -192.5q0 -37 -6 -75q-24 -154 -111.5 -263t-194 -173.5t-245.5 -125.5
q-8 -4 -18.5 -8t-22.5 -10q-121 -51 -196.5 -93.5t-82.5 -84.5q-2 -14 -2 -18q0 -33 30.5 -45t105.5 -12h590l-37 -233h-643q-139 0 -240 53.5t-101 187.5q0 23 5 56q13 80 50 137zM392 626q0 -43 21.5 -75t63.5 -74q34 -34 50.5 -57.5t16.5 -50.5q0 -26 -19 -55
q82 32 142.5 70t107 103t61.5 163q3 20 3 38q0 78 -50 129.5t-142 51.5q-62 0 -117 -30.5t-91 -81t-45 -107.5q-2 -16 -2 -24z" />
    <glyph glyph-name="uni057C" unicode="&#x57c;" horiz-adv-x="1202" 
d="M1109 233l-37 -233h-518l37 233q0 -6 49 66t95.5 173.5t64.5 217.5q5 33 5 55q0 68 -37 95.5t-112 27.5q-122 0 -199 -104l-121 -764h-289l171 1082h271l-9 -124q70 73 148.5 108.5t174.5 35.5q140 0 219 -70.5t79 -224.5q0 -45 -10 -113q-18 -116 -65 -218.5t-96 -175.5
t-49 -67h228z" />
    <glyph glyph-name="uni057D" unicode="&#x57d;" horiz-adv-x="1186" 
d="M696 0l10 111q-65 -66 -139 -98.5t-168 -32.5q-146 0 -230 73.5t-84 224.5q0 52 8 100l111 704h289l-111 -702q-4 -32 -4 -43q0 -63 35 -92.5t96 -29.5q147 0 219 103l121 764h290l-171 -1082h-272z" />
    <glyph glyph-name="uni057E" unicode="&#x57e;" horiz-adv-x="1253" 
d="M939 -183h228l-37 -233h-518l37 233l47 294q-57 -66 -130 -98.5t-167 -32.5q-146 0 -230 73.5t-84 224.5q0 52 8 100l111 704h289l-111 -702q-4 -32 -4 -43q0 -63 35 -92.5t96 -29.5q147 0 219 103l193 1218h290z" />
    <glyph glyph-name="uni057F" unicode="&#x57f;" horiz-adv-x="1782" 
d="M1619 1038q79 -71 79 -225q0 -50 -9 -112l-110 -694h-290l109 690q5 37 5 58q0 67 -34.5 93.5t-103.5 26.5q-62 0 -109 -24.5t-84 -75.5l-122 -775h-289l17 110q-73 -68 -144 -99t-147 -31q-143 0 -222.5 71.5t-79.5 225.5q0 51 9 111l110 694h290l-109 -690
q-5 -35 -5 -57q0 -68 35 -94.5t104 -26.5q62 0 108.5 24.5t83.5 75.5l121 768h289l-16 -103q73 68 144.5 99t147.5 31q143 0 222 -71z" />
    <glyph glyph-name="uni0580" unicode="&#x580;" horiz-adv-x="1191" 
d="M463 764l-187 -1180h-289l237 1498h271l-9 -124q70 73 148.5 108.5t174.5 35.5q140 0 219 -70.5t79 -224.5q0 -45 -10 -113l-110 -694h-290l109 690q5 33 5 55q0 68 -37 95.5t-112 27.5q-122 0 -199 -104z" />
    <glyph glyph-name="uni0581" unicode="&#x581;" horiz-adv-x="1180" 
d="M235 -407.5q-73 18.5 -135.5 57t-98.5 93.5l156 176q87 -120 244 -120q115 0 189 62t92 175l9 58q-120 -114 -281 -114q-113 0 -195 52.5t-124.5 147t-42.5 218.5q0 62 10 122l5 29q26 164 99 289t183 194.5t244 69.5q179 0 259 -122l27 102h262l-165 -1045
q-23 -146 -105 -250t-208.5 -158.5t-281.5 -54.5q-69 0 -142 18.5zM349 528q-8 -50 -8 -90q0 -102 44.5 -162.5t134.5 -60.5q131 0 206 100l72 454q-42 99 -173 99q-109 0 -180 -89t-93 -230z" />
    <glyph glyph-name="uni0582" unicode="&#x582;" horiz-adv-x="652" 
d="M559 233l-37 -233h-518l171 1082h289l-134 -849h229z" />
    <glyph glyph-name="uni0583" unicode="&#x583;" horiz-adv-x="1782" 
d="M1619 1038q79 -71 79 -225q0 -50 -9 -112l-110 -694h-290l109 690q5 37 5 58q0 67 -34.5 93.5t-103.5 26.5q-62 0 -109 -24.5t-83 -75.5l-189 -1191h-289l83 526q-73 -68 -144 -99t-147 -31q-143 0 -222.5 71.5t-79.5 225.5q0 51 9 111l110 694h290l-109 -690
q-5 -35 -5 -57q0 -68 35 -94.5t104 -26.5q62 0 108.5 24.5t83.5 75.5l193 1222h289l-88 -557q74 68 145 99t147 31q143 0 222 -71z" />
    <glyph glyph-name="uni0584" unicode="&#x584;" horiz-adv-x="1237" 
d="M1049 1006q91 -96 91 -270q0 -62 -10 -123l-3 -21q-37 -230 -166 -356t-331 -126q-162 0 -246 115l-36 -225h711l-37 -233h-711l-29 -183h-290l29 183h-123l37 233h123l171 1082h269l-5 -105q123 125 291 125q174 0 265 -96zM848 688q0 180 -176 180q-134 0 -203 -105
l-50 -313q38 -107 172 -107q106 0 167 66t83 204q7 47 7 75z" />
    <glyph glyph-name="uni0585" unicode="&#x585;" 
d="M65 551q25 159 103.5 284t203 196t282.5 71q141 0 241.5 -55.5t152 -154.5t51.5 -229q0 -55 -9 -112l-3 -21q-25 -160 -102.5 -284.5t-202 -195t-283.5 -70.5q-140 0 -241 54.5t-154 152.5t-53 226q0 50 9 104zM344 432q0 -102 44 -160.5t138 -58.5q222 0 275 338
q8 53 8 97q0 101 -43.5 161t-137.5 60q-222 0 -276 -339q-8 -54 -8 -98z" />
    <glyph glyph-name="uni0586" unicode="&#x586;" horiz-adv-x="1594" 
d="M1318 941q121 -49 181.5 -138.5t60.5 -212.5q0 -46 -7 -89l-5 -33q-33 -208 -199 -333t-486 -150l-64 -401h-290l64 401q-277 23 -412 134.5t-135 296.5q0 47 7 90h290l-1 -8q-3 -21 -3 -41q0 -73 41 -128t107.5 -84t141.5 -29l86 540q-239 0 -355 85.5t-116 235.5
q0 33 6 69q19 117 88 204.5t190 136.5t291 49h309l-86 -546q175 0 296 -49zM517 1113q0 -70 53.5 -96.5t161.5 -26.5l49 312h-19q-106 0 -167 -34t-75 -122q-3 -18 -3 -33zM1266 537q0 64 -33 113.5t-96.5 77.5t-151.5 28l-86 -540q96 0 174 33.5t126 92.5t60 132l4 24
q3 20 3 39z" />
    <glyph glyph-name="uni0587" unicode="&#x587;" horiz-adv-x="1370" 
d="M1277 233l-37 -233h-520l10 111q-128 -131 -317 -131q-144 0 -224.5 72t-80.5 222q0 49 9 104l183 1158h289l-183 -1156q-4 -32 -4 -43q0 -63 35 -92.5t96 -29.5q147 0 219 103l121 764h290l-134 -849h248z" />
    <glyph glyph-name="uni0589" unicode="&#x589;" horiz-adv-x="620" 
d="M192 1073q52 44 126 44q65 0 102.5 -35t37.5 -92q0 -50 -24.5 -91.5t-67.5 -66t-97 -24.5q-66 0 -104 36t-38 93q0 7 2 25q11 67 63 111zM22.5 207.5q24.5 41.5 68 66t97.5 24.5q65 0 103 -35.5t38 -92.5q0 -50 -24.5 -91.5t-68 -65.5t-97.5 -24q-65 0 -103 35.5
t-38 91.5q0 50 24.5 91.5z" />
    <glyph glyph-name="uni058A" unicode="&#x58a;" horiz-adv-x="848" 
d="M579 504q-119 -26 -244 -26q-226 0 -365 92l69 237q6 -2 14.5 -7t13.5 -8q73 -39 171 -60t204 -21q94 0 185 16.5t167 50.5l-34 -216q-62 -32 -181 -58z" />
    <glyph glyph-name="uni058F" unicode="&#x58f;" horiz-adv-x="1572" 
d="M1220 574l-20 -127h299l-39 -243h-299l-32 -204h-301l32 204h-299l39 243h299l20 127h-299l38 243h300l37 236q5 29 5 64q0 98 -56 147.5t-165 49.5q-125 0 -202 -67t-99 -207l-61 -384h-301l61 384q26 166 115 282t224.5 175t300.5 59q146 0 255 -47.5t169.5 -140.5
t60.5 -227q0 -53 -8 -101l-35 -223h298l-38 -243h-299z" />
    <glyph glyph-name="endash" unicode="&#x2013;" horiz-adv-x="1265" 
d="M1201 832l-49 -236h-1008l49 236h1008z" />
    <glyph glyph-name="emdash" unicode="&#x2014;" horiz-adv-x="1526" 
d="M1511 832l-65 -236h-1344l65 236h1344z" />
    <glyph glyph-name="quoteleft" unicode="&#x2018;" horiz-adv-x="465" 
d="M177 1048l23 150q17 108 78 204.5t151 168.5l133 -82q-107 -155 -132 -274l-29 -167h-224z" />
    <glyph glyph-name="quoteright" unicode="&#x2019;" horiz-adv-x="456" 
d="M528 1536l-24 -154q-15 -106 -73.5 -203t-145.5 -171l-142 84q107 159 131 273l30 171h224z" />
    <glyph glyph-name="quotesinglbase" unicode="&#x201a;" horiz-adv-x="493" 
d="M310 230l-26 -163q-17 -107 -77.5 -203.5t-150.5 -168.5l-134 82q98 141 123 267l33 186h232z" />
    <glyph glyph-name="quotedblleft" unicode="&#x201c;" horiz-adv-x="816" 
d="M185 1048l23 150q17 108 78 204.5t151 168.5l133 -82q-107 -155 -132 -274l-29 -167h-224zM517 1048l23 150q17 108 78 204.5t151 168.5l133 -82q-107 -155 -132 -274l-29 -167h-224z" />
    <glyph glyph-name="quotedblright" unicode="&#x201d;" horiz-adv-x="822" 
d="M542 1536l-24 -154q-15 -106 -73.5 -203t-145.5 -171l-142 84q107 159 131 273l30 171h224zM878 1536l-24 -154q-15 -106 -73.5 -203t-145.5 -171l-142 84q107 159 131 273l30 171h224z" />
    <glyph glyph-name="quotedblbase" unicode="&#x201e;" horiz-adv-x="800" 
d="M315 263l-29 -183q-39 -247 -227 -405l-140 81q96 148 125 283l40 224h231zM648 263l-30 -195q-17 -111 -79 -213t-153 -180l-141 81q106 163 133 289l38 218h232z" />
    <glyph glyph-name="bullet" unicode="&#x2022;" horiz-adv-x="714" 
d="M158 760q3 68 34 122t84 85t122 31q67 0 116.5 -29t76.5 -81t27 -118l-1 -41q-3 -68 -34 -120t-84.5 -81t-121.5 -29q-65 0 -114.5 28t-77.5 78.5t-28 114.5z" />
    <glyph glyph-name="ellipsis" unicode="&#x2026;" horiz-adv-x="1480" 
d="M72 225q21 35 57 54.5t81 19.5q43 0 79 -19t57.5 -53.5t21.5 -78.5q1 -45 -19 -81.5t-56 -57.5t-81 -21q-45 -1 -82 19t-58 56.5t-21 82.5q0 44 21 79zM531 225q21 35 57 54.5t81 19.5q43 0 79 -19t57.5 -53.5t21.5 -78.5q1 -45 -19 -81.5t-56 -57.5t-81 -21
q-45 -1 -82 19t-58 56.5t-21 82.5q0 44 21 79zM981 225q21 35 57 54.5t81 19.5q43 0 79 -19t57.5 -53.5t21.5 -78.5q1 -45 -19 -81.5t-56 -57.5t-81 -21q-45 -1 -82 19t-58 56.5t-21 82.5q0 44 21 79z" />
    <glyph glyph-name="guilsinglleft" unicode="&#x2039;" horiz-adv-x="620" 
d="M307 123l-217 389v21l330 391h204l-315 -416l160 -382z" />
    <glyph glyph-name="guilsinglright" unicode="&#x203a;" horiz-adv-x="600" 
d="M302 926l218 -389v-21l-332 -391h-202l315 416l-161 382z" />
    <glyph glyph-name="fraction" unicode="&#x2044;" horiz-adv-x="887" 
d="M969 1237l-876 -1126l-138 85l878 1124z" />
    <glyph glyph-name="uni2074" unicode="&#x2074;" horiz-adv-x="750" 
d="M723 827h-85l-28 -160h-202l28 160h-333l13 150l419 479h212l-80 -462h85zM315 996l152 -3l44 215l-18 -25z" />
    <glyph glyph-name="Euro" unicode="&#x20ac;" 
d="M967 8q-128 -28 -228 -28q-243 0 -388 153q-112 116 -112 294q0 46 7 91l-175 -2l27 152h163l22 125h-163l27 151l154 -1q68 251 233.5 392t418.5 141q104 0 247 -32l-59 -243q-94 36 -187 36q-63 0 -120 -18.5t-103 -59.5q-90 -79 -135 -216l332 1l-26 -151h-324
l-22 -125h325l-27 -152h-316q-5 -40 -5 -67q0 -107 58 -166t179 -59q88 0 184 30z" />
    <glyph glyph-name="minus" unicode="&#x2212;" horiz-adv-x="1104" 
d="M1021 832l-41 -236h-840l41 236h840z" />
    </font>
</defs>
</svg>
