<?xml version="1.0" standalone="no"?>
<!DOCTYPE svg PUBLIC "-//W3C//DTD SVG 1.1//EN" "http://www.w3.org/Graphics/SVG/1.1/DTD/svg11.dtd" >
<svg xmlns="http://www.w3.org/2000/svg" xmlns:xlink="http://www.w3.org/1999/xlink" version="1.1">
<metadata>
Created by FontForge 20170731 at Thu Jul 27 19:06:38 2017
 By Aleksey,,,
Copyright 2017 The Mardoto Project Authors (https://github.com/vahanhovh/mardoto)
</metadata>
<defs>
<font id="Mardoto-MediumItalic" horiz-adv-x="1129" >
  <font-face 
    font-family="Mardoto Medium"
    font-weight="500"
    font-style="italic"
    font-stretch="normal"
    units-per-em="2048"
    panose-1="0 0 6 0 0 0 0 0 0 0"
    ascent="1536"
    descent="-512"
    x-height="1082"
    cap-height="1456"
    bbox="-405 -555 3168 2146"
    underline-thickness="100"
    underline-position="-300"
    slope="-12"
    unicode-range="U+000D-2212"
  />
<missing-glyph horiz-adv-x="1351" 
d="M1107 -555h-856v2701h856v-2701zM454 1965v-89h175v-100h-178v-89h448v89h-178v100h178v89h-445zM451 1617v-281h448v92h-178v189h-270zM629 1428h-89v97h89v-97zM451 1263v-89h178v-100h-178v-89h270v189h178v89h-448zM810 1101v-179h-359v-91h448v270h-89zM629 771
v-151h92v62h89v-127h-270v216h-89v-305h448v305h-270zM451 304v-305h448v305h-448zM810 88h-270v127h270v-127zM451 -63v-90h189l-189 -126v-90h448v90h-275l189 126h86v90h-448z" />
    <glyph glyph-name="uni0535054E.liga" unicode="&#x535;&#x54e;" horiz-adv-x="2924" 
d="M2811 203l-32 -203h-555l32 203l34 212q-136 -79 -286 -79q-142 0 -253 46.5t-174.5 138.5t-63.5 224q0 41 8 94l16 101h-1085l-72 -457q-6 -39 -6 -72q0 -116 65.5 -172.5t185.5 -56.5q139 0 227.5 74.5t111.5 226.5l27 167h253l-27 -167q-25 -162 -110 -275.5
t-212.5 -170.5t-281.5 -57q-143 0 -254 47t-174 139.5t-63 224.5q0 47 7 92l167 1053h251l-62 -393h1336l-49 -304q-6 -40 -6 -74q0 -114 65.5 -170.5t184.5 -56.5q89 0 161.5 42t120.5 119t64 180l27 170h1l77 487h252l-77 -487l-11 -72l-123 -774h303z" />
    <glyph glyph-name="uni05390545.liga" unicode="&#x539;&#x545;" horiz-adv-x="3190" 
d="M3077.5 930.5q-69.5 -91.5 -191.5 -141.5q104 -39 154 -116t50 -177q0 -38 -5 -67q-23 -143 -105.5 -243.5t-216.5 -153t-308 -52.5q-152 0 -270 40t-186 122.5t-68 203.5q0 34 6 73h243q-4 -30 -4 -44q0 -94 73 -143t220 -49q336 0 373 246q4 25 4 53q0 99 -66 150
t-196 51l-993 1v-1l-40 -253q-33 -207 -164 -328.5t-371 -121.5q-137 0 -234.5 45.5t-148.5 128t-51 192.5q0 39 6 79l5 27q21 133 89.5 230t184 150t272.5 53h231l20 128q4 30 4 45q0 89 -55.5 156t-152.5 103.5t-218 36.5q-129 0 -244.5 -42.5t-192 -120t-92.5 -178.5
l-160 -1013h-253l160 1013q26 166 130.5 288.5t274.5 188.5t389 66q198 0 349.5 -56.5t235.5 -162t84 -246.5q0 -37 -6 -78l-20 -128h1002q127 0 201 64.5t95 173.5q4 26 4 39q0 54 -30.5 97.5t-92 68.5t-150.5 25q-151 0 -235 -57.5t-100 -159.5h-242q19 122 96 217
t203.5 149t287.5 54q153 0 267.5 -46t176.5 -130t62 -194q0 -26 -5 -63q-16 -101 -85.5 -192.5zM1214.5 248q65.5 64 83.5 182l40 254l-221 -1q-113 -1 -184 -70t-89 -179q-5 -32 -5 -55q0 -88 50.5 -141.5t148.5 -53.5q111 0 176.5 64z" />
    <glyph glyph-name="uni0544053E.liga" unicode="&#x544;&#x53e;" horiz-adv-x="3107" 
d="M3134 1139h-262q88 -127 88 -311q0 -61 -11 -133l-11 -67q-32 -201 -125 -347t-236.5 -223.5t-323.5 -77.5q-158 0 -279 62t-188.5 179.5t-67.5 277.5q0 58 11 129l11 67q22 142 78 258.5t140 200.5q-182 40 -235 179h-371l-135 -850q-25 -163 -108 -276t-210 -170
t-284 -57q-140 0 -252 47t-176.5 140.5t-64.5 225.5q0 47 7 90l167 1053h253l-167 -1053q-6 -39 -6 -74q0 -114 65 -170.5t186 -56.5q138 0 227 75t112 226l167 1053h828q-3 -18 -3 -35q0 -72 55 -115.5t178 -43.5h181q36 2 55 2q20 0 56 -2h684zM2706 817q0 155 -75.5 237
t-216.5 82q-108 0 -195.5 -50.5t-145.5 -149.5t-80 -240l-10 -66q-10 -61 -10 -119q0 -157 77 -240t216 -83q169 0 277.5 113.5t142.5 328.5l10 66q10 61 10 121z" />
    <glyph glyph-name="uni05440546.liga" unicode="&#x544;&#x546;" horiz-adv-x="3045" 
d="M2974 880l-63 -397q-25 -163 -108 -276t-210 -170t-284 -57q-140 0 -251.5 47t-176.5 140t-65 225q0 46 7 91l124 784q-52 1 -100.5 8t-122.5 20q-83 14 -138 21t-114 7q-53 0 -93 -34.5t-48 -87.5l-114 -718q-26 -163 -111 -276t-214 -170t-287 -57q-139 0 -248.5 46.5
t-172.5 138.5t-63 224q0 41 8 94l167 1053h253l-167 -1053q-6 -40 -6 -75q0 -114 65 -170t186 -56q137 0 226 75t113 226l125 788q12 75 56 135.5t109.5 95t141.5 34.5q70 0 136 -5t166 -15q111 -10 171.5 -14.5t128.5 -4.5q125 0 240 19l-34 -213l-130 -820q-6 -40 -6 -75
q0 -114 65 -170t186 -56q138 0 227 75t112 226l63 397h251z" />
    <glyph glyph-name="uni05440576.liga" unicode="&#x544;&#x576;" horiz-adv-x="2728" 
d="M2659 1082l-171 -1082h-229l11 106q-65 -64 -140.5 -95t-173.5 -31q-145 0 -229 73t-84 225q0 47 9 101l141 891q-24 3 -51.5 9t-53.5 13q-57 15 -105 23t-111 8q-53 0 -93 -34.5t-48 -87.5l-114 -718q-26 -163 -111 -276t-214 -170t-287 -57q-139 0 -248.5 46.5
t-172.5 138.5t-63 224q0 41 8 94l167 1053h253l-167 -1053q-6 -40 -6 -75q0 -114 65 -170t186 -56q137 0 226 75t113 226l125 788q12 75 56 135.5t109.5 95t141.5 34.5q74 0 131 -5.5t134 -15.5q66 -9 108.5 -13.5t92.5 -4.5q96 0 211 19l-12 -78l-168 -1057q-5 -35 -5 -57
q0 -145 145 -145q174 0 258 125l123 778h243z" />
    <glyph glyph-name="uni0574056F.liga" unicode="&#x574;&#x56f;" horiz-adv-x="2443" 
d="M2352 1082l-237 -1498h-243l83 522q-58 -64 -133 -95t-173 -31q-145 0 -229 73t-84 225q0 47 9 101l144 912l-83 16q-61 13 -96.5 18.5t-71.5 5.5q-44 0 -77.5 -29t-40.5 -73l-195 -1229h-229l11 106q-127 -126 -324 -126q-143 0 -223 71.5t-80 221.5q0 49 9 106l111 703
h243l-111 -701q-5 -35 -5 -57q0 -145 145 -145q174 0 258 125l158 997q11 67 49.5 120.5t97 84t125.5 30.5q70 0 129.5 -5.5t146.5 -17.5q71 -10 124 -15.5t108 -5.5q40 0 97 5l-16 -99l-161 -1017q-5 -35 -5 -57q0 -145 145 -145q174 0 258 125l123 778h243z" />
    <glyph glyph-name="uni0578055B0582.liga" unicode="&#x578;&#x55b;&#x582;" horiz-adv-x="1790" 
d="M404 772l-122 -772h-243l171 1082h229l-11 -124q71 73 150 108.5t175 35.5q143 0 222.5 -70t79.5 -222q0 -48 -9 -105l-112 -705h-243l111 702q5 28 5 60q0 76 -41 109t-123 33q-144 0 -239 -132zM1393 1772l-391 -497h-197l311 497h277zM1666 195l-31 -195h-478
l171 1082h243l-140 -887h235z" />
    <glyph glyph-name="uni0578055C0582.liga" unicode="&#x578;&#x55c;&#x582;" horiz-adv-x="1790" 
d="M819 1311q7 48 36 109t76.5 113t108.5 71q79 25 111 68.5t43 113.5l1 9h230l-4 -25q-12 -77 -28.5 -130.5t-56 -99.5t-110.5 -67q-86 -25 -135.5 -86t-59.5 -124l-1 -9h-220zM404 772l-122 -772h-243l171 1082h229l-11 -124q71 73 150 108.5t175 35.5q143 0 222.5 -70
t79.5 -222q0 -48 -9 -105l-112 -705h-243l111 702q5 28 5 60q0 76 -41 109t-123 33q-144 0 -239 -132zM1666 195l-31 -195h-478l171 1082h243l-140 -887h235z" />
    <glyph glyph-name="uni0578055E0582.liga" unicode="&#x578;&#x55e;&#x582;" horiz-adv-x="1790" 
d="M1348 1616q1 5 1 16q0 44 -34 74t-99 30q-86 0 -146 -64t-77 -174l-38 -243h-210l40 256q23 140 90.5 232t163.5 135t206 43q89 0 161 -29.5t114 -87t42 -138.5q0 -27 -4 -50q-15 -95 -68.5 -167t-141.5 -112t-201 -40l33 204q150 0 168 115zM404 772l-122 -772h-243
l171 1082h229l-11 -124q71 73 150 108.5t175 35.5q143 0 222.5 -70t79.5 -222q0 -48 -9 -105l-112 -705h-243l111 702q5 28 5 60q0 76 -41 109t-123 33q-144 0 -239 -132zM1666 195l-31 -195h-478l171 1082h243l-140 -887h235z" />
    <glyph glyph-name="uniFB13.liga" unicode="&#x574;&#x576;" horiz-adv-x="2423" 
d="M2354 1082l-171 -1082h-229l11 106q-65 -64 -140.5 -95t-173.5 -31q-145 0 -229 73t-84 225q0 47 9 101l144 911l-79 16q-58 13 -97 19t-77 6q-44 0 -77.5 -29t-40.5 -73l-195 -1229h-229l11 106q-127 -126 -324 -126q-143 0 -223 71.5t-80 221.5q0 49 9 106l111 703h243
l-111 -701q-5 -35 -5 -57q0 -145 145 -145q174 0 258 125l158 997q11 67 49.5 120.5t97 84t125.5 30.5q70 0 129 -5.5t148 -17.5q71 -10 124 -15.5t108 -5.5q41 0 98 5l-2 -13l-175 -1103q-5 -35 -5 -57q0 -145 145 -145q174 0 258 125l123 778h243z" />
    <glyph glyph-name="uniFB14.liga" unicode="&#x574;&#x565;" horiz-adv-x="2449" 
d="M1588 381q-5 -35 -5 -57q0 -145 145 -145q174 0 258 125l57 358h243l-105 -662h-229l11 106q-65 -64 -140.5 -95t-173.5 -31q-145 0 -229 73t-84 225q0 47 9 101l80 508l5 28l59 376q-29 5 -85 17q-55 11 -92 17t-74 6q-44 0 -77.5 -29t-40.5 -73l-195 -1229h-229l11 106
q-127 -126 -324 -126q-143 0 -223 71.5t-80 221.5q0 49 9 106l111 703h243l-111 -701q-5 -35 -5 -57q0 -145 145 -145q174 0 258 125l158 997q11 67 49.5 120.5t97 84t125.5 30.5q70 0 129.5 -5.5t146.5 -17.5q71 -10 124 -15.5t108 -5.5q40 0 97 5l-17 -105l-49 -310h715
l-31 -195h-715z" />
    <glyph glyph-name=".notdef" horiz-adv-x="1351" 
d="M1107 -555h-856v2701h856v-2701zM454 1965v-89h175v-100h-178v-89h448v89h-178v100h178v89h-445zM451 1617v-281h448v92h-178v189h-270zM629 1428h-89v97h89v-97zM451 1263v-89h178v-100h-178v-89h270v189h178v89h-448zM810 1101v-179h-359v-91h448v270h-89zM629 771
v-151h92v62h89v-127h-270v216h-89v-305h448v305h-270zM451 304v-305h448v305h-448zM810 88h-270v127h270v-127zM451 -63v-90h189l-189 -126v-90h448v90h-275l189 126h86v90h-448z" />
    <glyph glyph-name=".null" horiz-adv-x="0" 
 />
    <glyph glyph-name="nonmarkingreturn" unicode="&#xd;" horiz-adv-x="505" 
 />
    <glyph glyph-name="NULL" horiz-adv-x="0" 
 />
    <glyph glyph-name="NULL" horiz-adv-x="0" 
 />
    <glyph glyph-name="space" unicode=" " horiz-adv-x="505" 
 />
    <glyph glyph-name="exclam" unicode="!" horiz-adv-x="533" 
d="M545 1456l-202 -1027h-203l153 1027h252zM94.5 210q38.5 38 96.5 38q56 0 94 -36t38 -92q0 -58 -37.5 -96t-95.5 -39q-57 -2 -95.5 34.5t-38.5 94.5t38.5 96z" />
    <glyph glyph-name="quotedbl" unicode="&#x22;" horiz-adv-x="644" 
d="M392 1387l-93 -374h-138l83 523h171zM684 1387l-93 -374h-138l83 523h171z" />
    <glyph glyph-name="numbersign" unicode="#" horiz-adv-x="1213" 
d="M517 0l146 410h-211l-146 -410h-169l146 410h-223l28 158h250l112 313h-234l28 159h262l148 416h169l-149 -416h211l148 416h170l-148 -416h199l-28 -159h-227l-111 -313h212l-28 -158h-240l-146 -410h-169zM507 568h211l111 313h-210z" />
    <glyph glyph-name="dollar" unicode="$" 
d="M928.5 183q-58.5 -87 -153.5 -136.5t-215 -63.5l-36 -195h-156l37 197q-167 25 -251.5 140t-84.5 287q0 22 1 33l237 -1q-1 -10 -1 -29q0 -105 48.5 -170.5t153.5 -65.5q64 0 119 25t90 72.5t43 111.5q2 20 2 28q0 75 -49 123t-135 84q-166 69 -259.5 163.5t-93.5 245.5
q0 23 1 34q8 116 63.5 203t147.5 138.5t208 65.5l40 219h156l-41 -223q150 -31 220 -145t70 -275q0 -29 -1 -44h-236q1 12 1 38q0 100 -38 167t-133 67q-91 0 -151 -58t-71 -151q-2 -18 -2 -27q0 -75 49 -121t139 -86q167 -72 258 -167t91 -244q0 -22 -1 -33
q-8 -120 -66.5 -207z" />
    <glyph glyph-name="percent" unicode="%" horiz-adv-x="1459" 
d="M190 1174q8 87 52 156t115 108t158 39q82 0 145.5 -36t98 -99t34.5 -143l-1 -23l-6 -77q-9 -86 -52.5 -154t-114 -106.5t-156.5 -38.5t-151 39t-98 107t-29 153zM351 1097q-1 -7 -1 -21q0 -57 28.5 -94t85.5 -37q62 0 102.5 45t50.5 109l9 78q1 8 1 23q0 57 -27.5 94.5
t-85.5 37.5q-61 0 -102.5 -45.5t-51.5 -110.5zM1248 1238l-879 -1127l-120 80l879 1127zM729 357q8 86 51.5 154.5t114 107.5t157.5 39q83 0 146 -36t97.5 -99t34.5 -143q0 -15 -1 -23l-7 -78q-8 -86 -51.5 -154.5t-113.5 -107.5t-157 -39q-86 0 -151 39.5t-98 108
t-29 153.5zM888 277q-1 -7 -1 -20q0 -57 29 -95t85 -38q64 0 104 44.5t50 110.5l9 79q1 7 1 22q0 58 -28 95t-86 37q-62 0 -103 -45t-51 -110z" />
    <glyph glyph-name="ampersand" unicode="&#x26;" horiz-adv-x="1270" 
d="M899 0l-61 96q-85 -58 -177.5 -87t-183.5 -29q-90 0 -171.5 28.5t-143.5 82.5q-56 49 -84 116.5t-28 141.5q0 79 30 152t82 121q98 89 214 161q-34 65 -52.5 106t-32 89.5t-13.5 97.5q0 15 1 23q8 110 61 196t141 133.5t198 47.5q90 0 166 -37.5t120.5 -105t44.5 -154.5
q0 -109 -61 -192t-165 -154l-124 -82l213 -325q85 126 104 268h204q-24 -267 -185 -443l161 -251h-258zM496 1082q0 -44 16.5 -86t45.5 -93l95 59q64 40 101.5 84t43.5 106q1 5 1 15q0 51 -35 83t-90 32q-48 0 -86 -24.5t-61.5 -65t-29.5 -87.5q-1 -8 -1 -23zM290 361
q0 -83 52.5 -134.5t140.5 -51.5q106 0 238 83l-239 374l-35 -23q-139 -101 -155 -215q-2 -22 -2 -33z" />
    <glyph glyph-name="quotesingle" unicode="'" horiz-adv-x="336" 
d="M385 1399l-83 -379h-157l81 516h180z" />
    <glyph glyph-name="parenleft" unicode="(" horiz-adv-x="694" 
d="M124 588q30 208 108.5 414t203.5 371q132 174 324 259l36 -144q-153 -117 -248.5 -275t-161.5 -403q-36 -134 -53.5 -270.5t-17.5 -264.5q0 -199 38 -342q40 -158 157 -263l-56 -133q-155 97 -237.5 270t-101.5 391q-7 80 -7 166q0 112 13 207z" />
    <glyph glyph-name="parenright" unicode=")" horiz-adv-x="701" 
d="M-108 -327q151 117 246 272t162 399q37 134 55 273.5t18 272.5q0 202 -38 345q-42 160 -157 263l57 133q156 -96 240.5 -269.5t104.5 -390.5q7 -77 7 -161q0 -369 -154 -717q-184 -416 -504 -558z" />
    <glyph glyph-name="asterisk" unicode="*" horiz-adv-x="879" 
d="M139 710l244 267l-279 88l79 162l278 -120l47 350h175l-75 -345l302 112l24 -179l-318 -88l150 -272l-148 -97l-126 289l-219 -277z" />
    <glyph glyph-name="plus" unicode="+" horiz-adv-x="1108" 
d="M1031 580h-369l-75 -434h-230l76 434h-371l39 221h370l70 405h230l-71 -405h370z" />
    <glyph glyph-name="comma" unicode="," horiz-adv-x="437" 
d="M276 235l-25 -160q-39 -245 -239 -404l-130 80q63 88 99.5 157.5t50.5 146.5l32 180h212z" />
    <glyph glyph-name="hyphen" unicode="-" horiz-adv-x="653" 
d="M600 717l-35 -195h-511l35 195h511z" />
    <glyph glyph-name="period" unicode="." horiz-adv-x="555" 
d="M88.5 218.5q40.5 39.5 102.5 39.5q56 0 94 -37.5t38 -94.5q1 -59 -38.5 -98.5t-98.5 -40.5q-59 -2 -98.5 35t-39.5 96q0 61 40.5 100.5z" />
    <glyph glyph-name="slash" unicode="/" horiz-adv-x="787" 
d="M898 1456l-831 -1581h-197l831 1581h197z" />
    <glyph glyph-name="zero" unicode="0" 
d="M1031 615q-58 -385 -255 -547q-54 -43 -128.5 -66t-154.5 -23q-86 0 -161.5 26.5t-118.5 75.5q-61 69 -88.5 168.5t-27.5 218.5q0 74 9 146l35 235q25 174 87.5 315t169.5 226q53 42 127.5 64.5t154.5 22.5q87 0 162 -26t118 -74q116 -130 116 -377q0 -68 -10 -151z
M683 1282q-189 9 -259 -216q-30 -100 -40 -177l-44 -298q-14 -92 -14 -161q0 -112 32 -179q18 -39 57.5 -58t88.5 -19q36 0 70 9.5t58 27.5q59 42 98 132.5t64 261.5l42 283q11 92 11 175q0 213 -164 219z" />
    <glyph glyph-name="one" unicode="1" 
d="M888 1461l-247 -1461h-237l202 1165l-368 -122l38 215l576 203h36z" />
    <glyph glyph-name="two" unicode="2" 
d="M994 195l-31 -195h-952l28 178l530 507l24 23q71 68 114.5 116.5t79.5 109t44 125.5q2 13 2 37q0 81 -46 134t-132 53q-77 0 -134.5 -35.5t-92 -96.5t-44.5 -137l-235 -2q10 136 81.5 241.5t186 164t249.5 58.5q116 0 209 -42t147 -122.5t54 -192.5q0 -24 -1 -36
q-9 -102 -62.5 -196.5t-122.5 -169.5t-177 -177l-367 -345h648z" />
    <glyph glyph-name="three" unicode="3" 
d="M386 647l30 192l128 -1q74 1 135.5 27.5t101.5 78.5t48 126q2 22 2 32q0 84 -47.5 132.5t-137.5 48.5q-93 0 -159 -56.5t-81 -148.5l-235 -2q9 122 77.5 212.5t175 139t227.5 48.5q120 0 214.5 -43.5t148.5 -127.5t54 -200q0 -24 -1 -36q-8 -110 -81.5 -191.5
t-186.5 -134.5q91 -41 138.5 -120t47.5 -180q0 -18 -1 -27q-9 -134 -81 -232.5t-185 -151t-245 -52.5q-127 0 -226.5 50t-154 143t-50.5 219l236 -1q-3 -99 51.5 -157.5t155.5 -58.5q71 0 128 30t92.5 85t43.5 126q2 24 2 35q0 92 -56 142t-157 53z" />
    <glyph glyph-name="four" unicode="4" 
d="M30 484l770 972h252l-163 -936h177l-34 -195h-176l-57 -325h-237l56 325h-609zM291 520h361l113 608l-23 -32z" />
    <glyph glyph-name="five" unicode="5" 
d="M189 725l187 731h763l-33 -209h-561l-101 -349q44 26 104 42t122 16q89 0 165 -36t123 -114q36 -60 55 -133t19 -151q0 -113 -41 -219t-122 -187q-70 -69 -160 -103.5t-186 -34.5q-92 0 -175.5 31.5t-139.5 88.5q-114 117 -118 297h229q6 -100 56.5 -159.5t148.5 -59.5
q80 0 138 43t91 112.5t41 149.5q2 15 2 44q0 103 -52.5 168.5t-159.5 65.5q-56 0 -105 -21t-98 -62z" />
    <glyph glyph-name="six" unicode="6" 
d="M947 229.5q-67 -115.5 -178 -183t-251 -67.5q-152 0 -249.5 83t-138.5 223q-27 95 -27 190q0 43 4 76l10 80q30 235 132 422.5t269 296.5q169 112 413 114h37l-20 -201l-13 1q-205 2 -341 -109t-211 -313q65 62 141 92t153 30q65 0 122 -20t96 -54q67 -61 100.5 -152
t33.5 -197q0 -38 -2 -57q-13 -139 -80 -254.5zM342 529q-4 -44 -4 -70q0 -62 12.5 -119t40.5 -100q19 -30 57.5 -47.5t84.5 -17.5q50 0 97.5 23.5t81.5 71.5q82 117 82 250q0 77 -27 150q-19 51 -61 75.5t-96 24.5q-39 0 -78.5 -12.5t-69.5 -33.5q-69 -49 -110 -118z" />
    <glyph glyph-name="seven" unicode="7" 
d="M1180 1456l-22 -146l-765 -1310h-260l762 1261h-726l31 195h980z" />
    <glyph glyph-name="eight" unicode="8" 
d="M911 177.5q-70 -96.5 -181 -147t-242 -50.5q-119 0 -215 44.5t-152 129t-56 200.5q0 22 1 34q9 128 86 219.5t203 149.5q-70 52 -105 127t-35 160q0 93 40.5 180.5t113.5 145.5q67 53 148.5 80t165.5 27q87 0 165 -28t134 -81q50 -49 74.5 -112.5t24.5 -132.5
q0 -70 -22.5 -135t-60.5 -109q-71 -81 -175 -134q168 -108 168 -304q0 -24 -1 -36q-9 -131 -79 -227.5zM798 1231q-42 51 -122 51q-67 0 -119 -35.5t-80.5 -94.5t-28.5 -126q0 -79 42.5 -130t122.5 -51q67 0 118.5 35.5t80 94.5t28.5 127q0 78 -42 129zM759 449
q0 57 -22.5 103.5t-65.5 73t-104 26.5q-70 0 -126.5 -33.5t-91.5 -90.5t-43 -126q-2 -24 -2 -36q0 -87 49.5 -139.5t141.5 -52.5q71 0 127.5 31.5t91.5 87t43 125.5q2 22 2 31z" />
    <glyph glyph-name="nine" unicode="9" 
d="M207 -8l19 203l14 -1q216 -2 347.5 103t197.5 313q-68 -67 -143.5 -98.5t-150.5 -31.5q-61 0 -115 19.5t-92 54.5q-68 61 -103 152t-35 195q0 30 3 60q12 140 79.5 258t178.5 189q52 33 116.5 50.5t131.5 17.5q78 0 146.5 -23.5t115.5 -70.5q72 -72 107.5 -178t35.5 -226
q0 -55 -5 -94l-8 -64q-31 -241 -130.5 -427t-265.5 -292q-172 -109 -424 -109h-20zM381 918q0 -57 14 -109t45 -88q20 -24 52.5 -37.5t71.5 -13.5q36 0 72 11.5t67 34.5q64 46 107 112l13 97q4 44 4 74q0 135 -49 217q-19 30 -56.5 48t-81.5 18q-51 0 -98.5 -25.5
t-79.5 -76.5q-67 -105 -78 -212q-3 -24 -3 -50z" />
    <glyph glyph-name="colon" unicode=":" horiz-adv-x="537" 
d="M229.5 1067.5q40.5 39.5 102.5 39.5q56 0 94 -37.5t38 -94.5q1 -59 -38.5 -98.5t-98.5 -40.5q-59 -2 -98.5 35t-39.5 96q0 61 40.5 100.5zM82.5 218.5q40.5 39.5 102.5 39.5q56 0 94 -37.5t38 -94.5q1 -59 -38.5 -98.5t-98.5 -40.5q-59 -2 -98.5 35t-39.5 96
q0 61 40.5 100.5z" />
    <glyph glyph-name="semicolon" unicode=";" horiz-adv-x="482" 
d="M210.5 1067.5q40.5 39.5 102.5 39.5q56 0 94 -37.5t38 -94.5q1 -59 -38.5 -98.5t-98.5 -40.5q-59 -2 -98.5 35t-39.5 96q0 61 40.5 100.5zM293 235l-25 -160q-39 -245 -239 -404l-130 80q63 88 99.5 157.5t50.5 146.5l32 180h212z" />
    <glyph glyph-name="less" unicode="&#x3c;" horiz-adv-x="1010" 
d="M800 171l-750 372l34 193l880 372l-45 -253l-613 -229l535 -224z" />
    <glyph glyph-name="equal" unicode="=" horiz-adv-x="1112" 
d="M1044 982l-35 -201h-839l36 201h838zM971 558l-36 -202h-838l35 202h839z" />
    <glyph glyph-name="greater" unicode="&#x3e;" horiz-adv-x="1034" 
d="M210 1097l774 -372l-34 -194l-903 -372l44 250l640 232l-561 228z" />
    <glyph glyph-name="question" unicode="?" horiz-adv-x="967" 
d="M318 428q12 123 59 210.5t142 170.5l21 18q69 59 104.5 94.5t58.5 76t30 93.5q2 12 2 36q0 68 -36 109t-108 41q-82 0 -135.5 -50t-71.5 -133l-236 -1q11 119 73 205.5t160.5 132t217.5 45.5q111 0 197 -40.5t134 -117t48 -182.5q0 -11 -2 -37q-7 -89 -50 -162.5
t-99.5 -128t-157.5 -137.5q-109 -89 -133 -242zM277 211.5q39 38.5 97 38.5q56 0 94 -36t39 -92q0 -58 -38 -96t-96 -39q-57 -2 -95.5 34t-39.5 93q0 59 39 97.5z" />
    <glyph glyph-name="at" unicode="@" horiz-adv-x="1778" 
d="M1066 -367q-66 -41 -160.5 -63.5t-198.5 -22.5q-123 0 -235.5 33.5t-190.5 100.5q-114 99 -171 246.5t-57 325.5q0 108 19 213q44 251 178.5 470.5t337.5 354.5q99 66 220 100t245 34q125 0 234 -34t183 -99q112 -99 168.5 -246.5t56.5 -323.5q0 -95 -17 -199
q-24 -139 -84 -262.5t-156 -202.5q-102 -83 -250 -79q-79 1 -138 40.5t-76 113.5q-59 -71 -123.5 -112.5t-140.5 -41.5q-111 0 -167 69t-63 181q-2 36 -2 54q0 109 32 222t88.5 212t128.5 167q115 107 265 107q82 0 150 -26.5t143 -79.5l-133 -568q-10 -52 -10 -89
q0 -108 92 -108q88 0 149.5 68t102.5 190q55 168 55 355q0 79 -10 148q-26 184 -144 289t-339 105q-205 0 -367.5 -105t-274.5 -289q-88 -146 -134.5 -309t-46.5 -323q0 -64 10 -142q26 -188 141.5 -297.5t329.5 -109.5q168 0 331 72zM669 278q0 -61 24.5 -98t80.5 -37
q42 0 82.5 28t71 69t44.5 81l130 499q-48 18 -94 18q-101 0 -169.5 -70.5t-114.5 -201.5q-44 -128 -54 -257q-1 -10 -1 -31z" />
    <glyph glyph-name="A" unicode="A" horiz-adv-x="1322" 
d="M-93 0l786 1456h222l283 -1456h-248l-56 340h-546l-174 -340h-267zM452 543h408l-99 604z" />
    <glyph glyph-name="B" unicode="B" horiz-adv-x="1254" 
d="M1033.5 191.5q-75.5 -97.5 -195 -145t-262.5 -46.5h-537l252 1456l473 -1q192 -6 313.5 -89.5t121.5 -257.5q0 -24 -1 -37q-16 -210 -258 -318q89 -32 134.5 -111.5t45.5 -180.5q0 -19 -1 -29q-10 -143 -85.5 -240.5zM502 1253l-71 -409l229 -2q112 1 193 55t96 160
q3 20 3 37q0 153 -196 158zM878 483q0 167 -183 173l-296 1l-79 -455l260 -1q75 0 138 27t105 79.5t52 126.5q3 26 3 49z" />
    <glyph glyph-name="C" unicode="C" horiz-adv-x="1297" 
d="M1187 476q-22 -150 -104.5 -262.5t-209.5 -173t-279 -60.5q-191 0 -307.5 98.5t-157.5 267.5q-25 100 -25 208q0 60 7 115l17 118q28 187 115.5 344t227.5 252q67 45 153.5 69.5t176.5 24.5q108 0 204 -36t158 -108q119 -140 128 -359h-245q-4 143 -61.5 221t-195.5 78
q-125 0 -211 -68.5t-136 -189.5q-42 -101 -63.5 -230t-25.5 -211q-1 -17 -1 -54q0 -38 1 -59q6 -127 65.5 -202.5t188.5 -75.5q137 0 220.5 75.5t119.5 214.5z" />
    <glyph glyph-name="D" unicode="D" horiz-adv-x="1298" 
d="M39 0l252 1456l402 -1q191 -4 317 -97t180 -254q37 -110 37 -238q0 -56 -5 -99l-7 -58q-25 -210 -128 -370.5t-264.5 -249.5t-357.5 -89h-426zM502 1253l-182 -1051l147 -1q142 0 247 64t168 174.5t84 251.5l11 76q8 61 8 113q0 90 -22.5 166.5t-70.5 128.5
q-67 72 -205 77z" />
    <glyph glyph-name="E" unicode="E" horiz-adv-x="1123" 
d="M39 0l252 1456h919l-36 -203h-672l-70 -403h581l-35 -199h-580l-78 -449h679l-35 -202h-925z" />
    <glyph glyph-name="F" unicode="F" horiz-adv-x="1092" 
d="M39 0l252 1456h899l-36 -203h-652l-75 -434h569l-36 -202h-568l-107 -617h-246z" />
    <glyph glyph-name="G" unicode="G" horiz-adv-x="1353" 
d="M1251 747l-85 -557q-86 -113 -236 -163t-315 -47q-190 3 -309.5 100.5t-165.5 264.5q-29 108 -29 221q0 59 7 114l13 95q28 194 114 353t225 254q66 46 154 70t181 24q107 0 201.5 -32t157.5 -95q122 -123 138 -340l-240 1q-20 263 -266 263q-250 0 -360 -285
q-38 -98 -56.5 -211t-18.5 -216q0 -50 5 -100q12 -124 76.5 -199.5t190.5 -78.5q176 -5 287 87l54 286h-291l34 191h534z" />
    <glyph glyph-name="H" unicode="H" horiz-adv-x="1412" 
d="M915 0l112 648h-629l-113 -648h-246l253 1456h246l-106 -606h630l105 606h247l-252 -1456h-247z" />
    <glyph glyph-name="I" unicode="I" horiz-adv-x="561" 
d="M553 1456l-253 -1456h-246l253 1456h246z" />
    <glyph glyph-name="J" unicode="J" horiz-adv-x="1103" 
d="M871 1456h246l-174 -1020q-19 -135 -88.5 -239t-179.5 -161t-247 -57q-131 0 -226 49t-145 140.5t-50 217.5l1 31l247 -1q-1 -10 -1 -29q0 -95 44 -150t143 -55q104 0 170.5 71.5t85.5 181.5z" />
    <glyph glyph-name="K" unicode="K" horiz-adv-x="1252" 
d="M877 0l-314 628l-201 -184l-77 -444h-246l253 1456h246l-117 -670l151 156l505 514h316l-648 -655l408 -801h-276z" />
    <glyph glyph-name="L" unicode="L" horiz-adv-x="1076" 
d="M963 202l-36 -202h-888l253 1456h246l-218 -1254h643z" />
    <glyph glyph-name="M" unicode="M" horiz-adv-x="1739" 
d="M818 342l599 1114h325l-252 -1456h-246l85 493l128 605l-600 -1098h-177l-223 1134l-91 -667l-81 -467h-246l252 1456h314z" />
    <glyph glyph-name="N" unicode="N" horiz-adv-x="1411" 
d="M1414 1456l-253 -1456h-239l-456 1043l-181 -1043h-246l252 1456h239l457 -1046l181 1046h246z" />
    <glyph glyph-name="O" unicode="O" horiz-adv-x="1372" 
d="M1290 692q-26 -190 -114 -353t-230 -261q-69 -48 -155.5 -73t-177.5 -25q-97 0 -182.5 28.5t-142.5 82.5q-90 85 -134.5 210t-44.5 270q0 64 7 120l9 74q27 189 116.5 352t231.5 262q69 48 155.5 72.5t176.5 24.5q97 0 182.5 -28t142.5 -82q90 -84 133.5 -209t43.5 -272
q0 -65 -7 -121zM986.5 1190.5q-63.5 77.5 -195.5 77.5q-125 0 -213 -73t-140 -199q-41 -97 -61.5 -212.5t-20.5 -226.5q0 -42 3 -81q9 -131 72.5 -210t193.5 -79q127 0 214.5 73t139.5 200q41 100 61.5 220t20.5 235q0 24 -2 68q-9 130 -72.5 207.5z" />
    <glyph glyph-name="P" unicode="P" horiz-adv-x="1271" 
d="M379 541l-94 -541h-246l252 1456l527 -1q128 -3 230.5 -52t161 -141t58.5 -216q0 -15 -2 -45q-13 -151 -93.5 -255t-206.5 -155t-278 -51zM502 1253l-88 -509l284 -2q129 0 216.5 66.5t104.5 191.5q3 23 3 42q0 94 -55.5 150t-155.5 60z" />
    <glyph glyph-name="Q" unicode="Q" horiz-adv-x="1372" 
d="M1144 -115l-174 -137l-255 244q-66 -11 -115 -11q-193 0 -311 102.5t-160 276.5q-27 108 -27 218q0 47 7 113l10 73q26 189 114.5 351.5t231.5 262.5q69 48 156 73t177 25q97 0 182.5 -28t142.5 -82q89 -84 133.5 -209t44.5 -270q0 -57 -8 -123l-9 -66
q-26 -196 -111.5 -354.5t-237.5 -256.5zM979.5 1190.5q-63.5 77.5 -194.5 77.5q-126 0 -214 -74t-141 -203q-80 -198 -80 -423q0 -45 3 -92q9 -131 72 -210t194 -79q126 0 213.5 72t138.5 196q42 104 62 218t22 193q2 57 -3 117q-9 130 -72.5 207.5z" />
    <glyph glyph-name="R" unicode="R" horiz-adv-x="1241" 
d="M847 0l-185 561h-279l-98 -561h-246l252 1456l483 -1q130 -3 231.5 -46t160 -129t58.5 -210q0 -15 -2 -45q-12 -147 -98 -249.5t-229 -158.5l215 -602l-1 -15h-262zM502 1253l-85 -489l239 -2q81 1 149.5 30t113.5 85.5t55 136.5q3 23 3 44q0 91 -54.5 141t-154.5 53z
" />
    <glyph glyph-name="S" unicode="S" horiz-adv-x="1200" 
d="M845 417q0 59 -33.5 98t-81.5 62t-133 53q-253 89 -350 230q-24 35 -37 81t-13 98q0 70 24.5 138t71.5 120q79 87 198 133t247 46q136 0 243.5 -54t167.5 -155t56 -237l-246 1q1 9 1 27q0 118 -59.5 169.5t-151.5 51.5q-54 0 -108.5 -15.5t-93.5 -37.5q-88 -51 -103 -160
q-2 -18 -2 -27q0 -36 17 -65t55 -57q44 -32 169 -76q132 -46 223 -105t140 -141q21 -35 32 -81t11 -96q0 -74 -24 -144.5t-72 -121.5q-81 -88 -203 -131.5t-256 -40.5q-140 2 -254.5 57.5t-179.5 159t-61 244.5l247 -1q-1 -8 -1 -24q0 -116 72 -176t198 -60q109 0 190 51
t97 152q3 18 3 34z" />
    <glyph glyph-name="T" unicode="T" horiz-adv-x="1207" 
d="M155 1253l36 203h1122l-36 -203h-439l-217 -1253h-247l218 1253h-437z" />
    <glyph glyph-name="U" unicode="U" horiz-adv-x="1296" 
d="M1079 1456h247l-165 -972q-21 -153 -102 -267.5t-207.5 -176.5t-280.5 -62q-140 0 -246.5 53.5t-165.5 152.5t-59 231q0 37 4 68l165 973h245l-165 -974q-4 -27 -4 -59q0 -109 56.5 -173.5t171.5 -67.5q92 -3 163.5 33t116 103.5t59.5 158.5z" />
    <glyph glyph-name="V" unicode="V" horiz-adv-x="1286" 
d="M1408 1456l-736 -1456h-239l-279 1456h262l177 -1136l535 1136h280z" />
    <glyph glyph-name="W" unicode="W" horiz-adv-x="1749" 
d="M1849 1456l-553 -1456h-237l-101 1059l-440 -1059h-237l-98 1456h239l48 -1084l439 1084h207l95 -1093l387 1093h251z" />
    <glyph glyph-name="X" unicode="X" horiz-adv-x="1257" 
d="M461 1456l214 -525l377 525h298l-549 -733l319 -723h-274l-220 534l-388 -534h-300l561 746l-310 710h272z" />
    <glyph glyph-name="Y" unicode="Y" horiz-adv-x="1211" 
d="M423 1456l204 -687l444 687h286l-642 -933l-91 -523h-248l96 549l-310 907h261z" />
    <glyph glyph-name="Z" unicode="Z" horiz-adv-x="1197" 
d="M195 1253l35 203h1024l-30 -172l-910 -1082h747l-36 -202h-1053l31 176l910 1077h-718z" />
    <glyph glyph-name="bracketleft" unicode="[" horiz-adv-x="545" 
d="M694 1679l-31 -190h-160l-254 -1624h161l-30 -190h-398l313 2004h399z" />
    <glyph glyph-name="backslash" unicode="\" horiz-adv-x="830" 
d="M488 -125l-316 1581h224l316 -1581h-224z" />
    <glyph glyph-name="bracketright" unicode="]" horiz-adv-x="545" 
d="M151 1489l30 190h398l-313 -2004h-399l30 190h161l254 1624h-161z" />
    <glyph glyph-name="asciicircum" unicode="^" horiz-adv-x="850" 
d="M67 729l416 727h168l163 -727h-191l-91 461l-253 -461h-212z" />
    <glyph glyph-name="underscore" unicode="_" horiz-adv-x="896" 
d="M790 0l-34 -192h-892l34 192h892z" />
    <glyph glyph-name="grave" unicode="`" horiz-adv-x="640" 
d="M455 1536l143 -302h-181l-216 302h254z" />
    <glyph glyph-name="a" unicode="a" horiz-adv-x="1076" 
d="M655 0q-6 21 -8 51v51q-66 -62 -140 -92t-148 -30q-66 0 -126 23t-107 66q-45 40 -67 96.5t-22 119.5q0 66 23 127t65 103q76 76 191 111.5t245 35.5l156 -1l13 73q3 20 3 37q0 66 -37.5 106t-109.5 42q-76 1 -133 -38.5t-72 -109.5l-236 -2q6 109 77 185.5t182 114.5
q100 34 200 34q168 0 277 -101q89 -83 89 -226q0 -30 -2 -46l-84 -514l-7 -82q-3 -60 15 -116l-1 -18h-236zM548.5 207.5q64.5 35.5 111.5 96.5l37 205l-113 1q-116 -1 -204 -44t-102 -146q-1 -7 -1 -21q0 -57 37 -90.5t98 -34.5q72 -2 136.5 33.5z" />
    <glyph glyph-name="b" unicode="b" horiz-adv-x="1118" 
d="M391.5 14q-73.5 35 -120.5 105l-38 -119h-217l266 1536h237l-108 -560q60 63 135 94.5t152 31.5q69 0 129 -24t98 -66q59 -66 86 -160.5t27 -202.5q0 -43 -5 -96l-2 -16q-43 -321 -224 -473q-101 -85 -253 -85q-89 0 -162.5 35zM385 765l-77 -446q25 -74 78 -108t118 -34
q42 0 81.5 13t65.5 35q59 49 93.5 127.5t51.5 200.5q6 47 6 100q0 124 -44 191q-39 61 -140 61q-138 0 -233 -140z" />
    <glyph glyph-name="c" unicode="c" horiz-adv-x="1041" 
d="M636 225q62 51 82 132l223 1q-12 -110 -78 -196.5t-166 -134t-210 -47.5q-155 0 -254 74t-140 205q-29 93 -29 193q0 35 3 69l3 26q19 167 90.5 292.5t185.5 194t255 68.5q122 0 212.5 -51.5t139 -144t48.5 -212.5h-221q-1 94 -48 154t-139 60q-102 0 -168 -67.5
t-96.5 -173t-30.5 -223.5q0 -39 3 -75q7 -89 52.5 -142t137.5 -53q83 0 145 51z" />
    <glyph glyph-name="d" unicode="d" horiz-adv-x="1122" 
d="M680 0l17 113q-63 -68 -138.5 -101t-152.5 -33q-69 0 -128.5 24.5t-97.5 67.5q-61 69 -90 167t-29 206q0 46 4 82l2 22q18 142 77.5 268.5t157.5 206.5q47 38 110.5 59t130.5 21q81 0 154 -30.5t121 -91.5l104 555h238l-267 -1536h-213zM302 527q-6 -56 -6 -89
q0 -125 48 -197q39 -62 138 -62q131 0 227 133l82 464q-25 67 -77 99t-115 32q-43 0 -84 -14.5t-68 -38.5q-60 -52 -95.5 -133.5t-47.5 -172.5z" />
    <glyph glyph-name="e" unicode="e" horiz-adv-x="1066" 
d="M924 182q-68 -98 -178 -150t-234 -52q-138 0 -239 61.5t-154 168t-53 238.5q0 16 2 52l3 42q15 148 85.5 276.5t185.5 207.5q56 38 124.5 57.5t139.5 19.5q74 0 140 -20.5t111 -59.5q73 -63 109.5 -159t36.5 -211q0 -37 -5 -85l-14 -103h-682q-1 -10 -1 -30
q0 -72 25.5 -131t77.5 -93.5t129 -34.5q150 0 271 132zM323 643l447 -1l4 21q4 32 4 48q0 86 -46.5 141.5t-135.5 55.5q-183 0 -273 -265z" />
    <glyph glyph-name="f" unicode="f" horiz-adv-x="704" 
d="M706 903h-212l-157 -903h-238l157 903h-161l32 179h160l14 103q15 114 68 198.5t141 130.5t202 46q63 0 151 -20l-26 -190q-51 10 -93 10q-171 0 -203 -175l-16 -103h213z" />
    <glyph glyph-name="g" unicode="g" horiz-adv-x="1126" 
d="M911 30q-19 -138 -90 -241t-183 -159t-250 -56q-117 0 -224 47t-173 136l125 142q51 -69 119.5 -102.5t141.5 -33.5q54 0 103.5 18t86.5 49q80 67 108 183l19 85q-61 -59 -134 -88t-147 -29q-68 0 -128 23.5t-98 66.5q-63 69 -93 167t-30 208q0 45 4 80l2 22
q18 144 79 270.5t161 205.5q48 37 113.5 58t133.5 21q85 0 160 -32.5t121 -97.5l36 110l217 -1zM306 527q-5 -43 -5 -82q0 -130 51 -205q40 -61 139 -61q131 0 227 127l83 476q-27 64 -78.5 94t-113.5 30q-43 0 -84 -14t-70 -38q-61 -52 -98 -134t-49 -172z" />
    <glyph glyph-name="h" unicode="h" horiz-adv-x="1103" 
d="M384 774l-135 -774h-236l266 1536h237l-110 -574q133 139 297 139q154 0 226.5 -92.5t72.5 -243.5q0 -33 -3 -68l-117 -697h-237l118 700q3 26 3 48q0 74 -35 115.5t-117 41.5q-129 0 -230 -131z" />
    <glyph glyph-name="i" unicode="i" horiz-adv-x="508" 
d="M292.5 1456.5q38.5 37.5 96.5 37.5q57 0 95 -35t38 -91q0 -58 -38.5 -96t-96.5 -38t-95.5 35.5t-37.5 92.5t38.5 94.5zM456 1082l-188 -1082h-237l188 1082h237z" />
    <glyph glyph-name="j" unicode="j" horiz-adv-x="498" 
d="M281.5 1456q38.5 38 96.5 38q57 0 95 -35t38 -91q1 -58 -38 -96t-97 -38q-57 0 -95 35t-38 91q0 58 38.5 96zM214 1082h237l-199 -1177q-19 -158 -109.5 -251.5t-244.5 -93.5q-66 0 -143 19l20 191q51 -10 89 -10q124 0 149 149z" />
    <glyph glyph-name="k" unicode="k" horiz-adv-x="1037" 
d="M677 0l-229 464l-136 -120l-59 -344h-237l266 1536h237l-152 -872l83 85l344 333l304 -1l-481 -461l317 -620h-257z" />
    <glyph glyph-name="l" unicode="l" horiz-adv-x="508" 
d="M535 1536l-267 -1536h-237l267 1536h237z" />
    <glyph glyph-name="m" unicode="m" horiz-adv-x="1730" 
d="M389 786l-137 -786h-236l187 1082l221 1l-21 -115q129 134 309 134q97 0 170.5 -40.5t101.5 -124.5q73 83 164 124.5t181 41.5q82 0 147 -32.5t97 -89.5q51 -94 51 -216q0 -31 -3 -64l-117 -701h-237l118 703q3 24 3 46q0 76 -37 116t-122 40q-143 0 -224 -162l-3 -22
l-124 -721h-238l118 701q3 24 3 45q0 159 -152 159q-131 0 -220 -119z" />
    <glyph glyph-name="n" unicode="n" horiz-adv-x="1105" 
d="M385 773l-135 -773h-237l187 1082l223 1l-23 -126q65 71 149.5 107.5t168.5 36.5q80 0 144 -32t93 -91q47 -94 47 -213q0 -32 -3 -65l-117 -700h-237l118 703q3 26 3 47q0 74 -35.5 114.5t-117.5 40.5q-126 0 -228 -132z" />
    <glyph glyph-name="o" unicode="o" horiz-adv-x="1131" 
d="M69 545q16 152 87.5 279.5t188.5 204.5q56 37 125 55.5t141 18.5q77 0 147 -21t119 -61q84 -68 127.5 -173t43.5 -229q0 -33 -3 -66q-16 -167 -90 -297.5t-192 -203t-262 -72.5q-155 0 -258 74.5t-147 205.5q-33 96 -33 202q0 31 3 62zM303 523q-4 -29 -4 -69
q0 -65 15 -122.5t47 -98.5q23 -29 62 -44t85 -15q43 0 83 13t70 39q60 52 97 134.5t47 171.5l2 21q4 31 4 71q0 65 -14.5 123t-46.5 100q-23 29 -62.5 45t-85.5 16q-42 0 -82 -13.5t-70 -39.5q-61 -54 -98 -137t-47 -173z" />
    <glyph glyph-name="p" unicode="p" horiz-adv-x="1118" 
d="M278 99l-97 -515h-237l260 1498l216 1l-18 -111q62 65 139 97.5t155 32.5q70 0 130.5 -24t97.5 -66q59 -66 86.5 -161.5t27.5 -204.5q0 -42 -5 -92q-47 -355 -245 -503q-96 -72 -233 -72q-176 0 -277 120zM389 780l-84 -480q25 -62 76 -94t113 -32q55 0 106.5 24t88.5 69
q79 95 106 286q5 45 5 86q0 131 -48 204q-41 62 -140 62q-128 0 -223 -125z" />
    <glyph glyph-name="q" unicode="q" horiz-adv-x="1128" 
d="M1080 1082l-260 -1498h-237l98 510q-59 -57 -130.5 -85.5t-145.5 -28.5q-68 0 -127.5 23.5t-97.5 66.5q-61 68 -90 165.5t-29 206.5q0 48 4 85l2 22q18 145 77.5 271t158.5 204q47 37 111 57.5t133 20.5q84 0 158.5 -32t122.5 -96l37 109zM302 528q-5 -45 -5 -87
q0 -130 48 -203q39 -63 138 -63q126 0 223 122l86 493q-27 61 -78 90t-112 29q-44 0 -84.5 -14t-68.5 -39q-60 -52 -96 -134t-49 -173z" />
    <glyph glyph-name="r" unicode="r" horiz-adv-x="698" 
d="M382 741l-130 -741h-236l187 1082l225 1l-24 -123q102 145 250 145q35 0 93 -13l-24 -232q-59 10 -96 10q-156 0 -245 -129z" />
    <glyph glyph-name="s" unicode="s" horiz-adv-x="1026" 
d="M664 321q0 41 -29.5 67t-63.5 38t-96 28q-173 44 -256 116.5t-83 182.5q0 112 65 192.5t173 121.5q93 36 196 36q157 0 277 -90q115 -88 114 -256l-235 1q1 75 -42.5 118t-120.5 43q-73 0 -129.5 -37t-67.5 -104q-2 -14 -2 -20q0 -33 21 -56q25 -28 151 -60
q127 -33 205 -74.5t117 -100.5q17 -26 26.5 -62.5t9.5 -77.5q0 -56 -18.5 -109.5t-57.5 -94.5q-66 -70 -165 -106.5t-203 -36.5q-113 0 -209.5 42.5t-154 125t-57.5 195.5l229 -1q2 -177 188 -179q79 0 142 33.5t74 103.5q2 14 2 21z" />
    <glyph glyph-name="t" unicode="t" horiz-adv-x="662" 
d="M514 3q-65 -23 -141 -23q-63 0 -115 21.5t-82 70.5q-46 73 -46 172q0 12 2 40l101 619h-174l32 179h173l46 263h237l-46 -263h185l-31 -179h-185l-103 -607q-2 -20 -2 -28q0 -40 18.5 -61t62.5 -23q37 0 86 9z" />
    <glyph glyph-name="u" unicode="u" horiz-adv-x="1104" 
d="M660 0l21 107q-59 -63 -138 -95.5t-161 -32.5t-149.5 32.5t-100.5 92.5q-53 97 -53 218q0 30 3 61l117 699h237l-118 -702q-3 -22 -3 -45q0 -156 139 -156q149 0 242 124l136 779h237l-187 -1082h-222z" />
    <glyph glyph-name="v" unicode="v" horiz-adv-x="984" 
d="M1038 1082l-533 -1082h-206l-198 1082h237l105 -770l342 770h253z" />
    <glyph glyph-name="w" unicode="w" horiz-adv-x="1476" 
d="M1528 1082l-475 -1082h-195l-95 740l-350 -740h-195l-99 1082h224l41 -733l341 733h180l87 -747l297 747h239z" />
    <glyph glyph-name="x" unicode="x" horiz-adv-x="1000" 
d="M371 1082l140 -354l255 354h276l-413 -543l241 -539h-249l-151 369l-266 -369h-276l427 561l-233 521h249z" />
    <glyph glyph-name="y" unicode="y" horiz-adv-x="967" 
d="M410 -165q-130 -275 -360 -275q-37 0 -125 19l20 188l41 -4q83 -3 138 32.5t96 111.5l59 112l-180 1063h247l93 -733l341 733h262z" />
    <glyph glyph-name="z" unicode="z" horiz-adv-x="1000" 
d="M138 886l35 196h822l-29 -165l-654 -722h549l-34 -195h-853l30 171l649 715h-515z" />
    <glyph glyph-name="braceleft" unicode="{" horiz-adv-x="666" 
d="M194 310q3 26 3 49q0 76 -34.5 119.5t-115.5 49.5l17 178q199 7 231 232l31 222q57 337 412 440l35 -143q-102 -37 -155.5 -121t-72.5 -204l-27 -203q-28 -214 -219 -315q60 -45 89 -112t29 -146q0 -31 -2 -47l-27 -204q-7 -54 -7 -95q0 -80 29 -139.5t100 -90.5
l-56 -138q-144 47 -218 150.5t-74 248.5q0 21 4 65z" />
    <glyph glyph-name="bar" unicode="|" horiz-adv-x="499" 
d="M467 1456l-270 -1726h-165l270 1726h165z" />
    <glyph glyph-name="braceright" unicode="}" horiz-adv-x="666" 
d="M476 928q-3 -25 -3 -49q0 -76 34.5 -119.5t115.5 -49.5l-18 -178q-199 -7 -231 -236l-30 -217q-57 -339 -412 -442l-35 144q190 67 226 326l28 202q29 218 229 315q-66 43 -97 110.5t-31 149.5q0 30 2 45l27 204q7 54 7 94q0 81 -28.5 140.5t-99.5 90.5l55 137
q144 -47 218.5 -150t74.5 -248q0 -21 -4 -65z" />
    <glyph glyph-name="asciitilde" unicode="~" horiz-adv-x="1320" 
d="M1226 789q-7 -103 -50 -195.5t-117 -149.5q-38 -30 -84 -44t-94 -14q-43 0 -83.5 11t-72.5 30q-66 38 -121 95q-39 39 -64.5 58.5t-46.5 26.5t-50 7q-71 0 -111 -54.5t-53 -133.5l-188 -1q9 103 52 192.5t119.5 144.5t180.5 55q141 0 277 -136q40 -43 75.5 -67.5
t79.5 -24.5q74 0 117.5 58t57.5 138z" />
    <glyph glyph-name="uni00A0" unicode="&#xa0;" horiz-adv-x="505" 
 />
    <glyph glyph-name="exclamdown" unicode="&#xa1;" horiz-adv-x="527" 
d="M424.5 878q-38.5 -39 -97.5 -39q-57 0 -95 36t-38 92q0 58 38.5 96.5t97.5 38.5q56 0 94 -35.5t39 -91.5q0 -58 -38.5 -97zM-26 -365l201 1027h204l-155 -1027h-250z" />
    <glyph glyph-name="cent" unicode="&#xa2;" horiz-adv-x="1115" 
d="M957 358q-11 -100 -66 -177t-138.5 -125t-183.5 -67l-47 -234h-196l48 237q-151 38 -221.5 160t-70.5 286q0 46 4 82l7 52q18 133 76 242.5t155 182.5t228 96l46 225h195l-46 -226q138 -34 208.5 -142t69.5 -256h-223q1 91 -43 150.5t-132 62.5q-94 4 -157.5 -46.5
t-99.5 -138.5q-27 -65 -40 -144t-13 -155q0 -19 2 -53q6 -90 49.5 -143t135.5 -53q84 0 147 50.5t82 132.5z" />
    <glyph glyph-name="sterling" unicode="&#xa3;" horiz-adv-x="1170" 
d="M-2 0l22 202l79 -3q57 22 85 79t40 136l25 185h-158l35 199h151l30 241q15 128 81 227t171 154.5t233 55.5q125 0 214.5 -49.5t134.5 -140.5t41 -214l-239 1l1 22q0 82 -41.5 130.5t-126.5 48.5q-63 0 -111 -33.5t-76.5 -87.5t-36.5 -116l-29 -239h302l-35 -199h-294
l-23 -177q-18 -129 -106 -223l679 3l-36 -202h-1012z" />
    <glyph glyph-name="currency" unicode="&#xa4;" horiz-adv-x="1395" 
d="M1234 107l-152 -134l-101 133q-88 -63 -182.5 -94.5t-186.5 -31.5q-93 0 -178 32t-153 94l-153 -132l-120 155l155 128q-43 135 -43 255q0 105 30 205q44 143 146 259l-115 155l151 133l110 -143q171 112 341 112q197 0 334 -116l169 148l121 -156l-168 -141
q46 -135 46 -268q0 -120 -40 -232.5t-122 -211.5zM302 532q0 -88 33 -166.5t95 -132.5q38 -33 91 -50.5t112 -17.5q55 0 110 15.5t104 45.5q102 64 169.5 168.5t83.5 221.5q4 29 4 65q0 90 -32 168.5t-94 132.5q-39 33 -92 51t-112 18q-55 0 -109.5 -15.5t-103.5 -45.5
q-103 -64 -170.5 -168.5t-83.5 -222.5q-5 -37 -5 -67z" />
    <glyph glyph-name="yen" unicode="&#xa5;" horiz-adv-x="1056" 
d="M890 301h-293l-53 -301h-246l52 301h-299l27 151h298l25 138h-300l27 152h246l-208 714h253l148 -606l358 606h275l-455 -714h222l-27 -152h-293l-25 -138h295z" />
    <glyph glyph-name="brokenbar" unicode="&#xa6;" horiz-adv-x="494" 
d="M505 1456l-132 -758h-224l132 758h224zM205 -270h-224l139 795h223z" />
    <glyph glyph-name="section" unicode="&#xa7;" horiz-adv-x="1235" 
d="M885.5 -315q-79.5 -86 -206.5 -125q-117 -36 -235 -36q-204 0 -346 107q-138 103 -132 320h241q-6 -113 60.5 -171.5t183.5 -58.5q103 0 186 44t99 136q2 18 2 25q0 55 -39 92t-105 61l-31 11l-79 26q-121 38 -212 88.5t-143 123.5q-49 68 -49 170q0 60 18 115.5t50 93.5
q59 68 145 114q-42 49 -62.5 110.5t-20.5 127.5q0 75 25 143.5t70 114.5q78 80 192 120t239 40q140 0 244.5 -49t160 -145.5t49.5 -235.5l-236 1q5 109 -54 171t-171 62q-65 0 -125.5 -19t-103 -60t-51.5 -105q-2 -10 -2 -29q0 -56 36.5 -91.5t102.5 -57.5l26 -9
q62 -21 85 -28q130 -40 219.5 -89.5t141.5 -123.5q23 -32 36.5 -77t13.5 -94q0 -92 -51.5 -176.5t-165.5 -143.5q85 -94 85 -234q0 -12 -2 -40q-9 -133 -88.5 -219zM718 275q126 59 146 173q2 10 2 28q0 56 -39 94t-109 64l-256 90q-121 -56 -140 -174q-3 -16 -3 -31
q0 -57 37 -94.5t107 -63.5z" />
    <glyph glyph-name="dieresis" unicode="&#xa8;" horiz-adv-x="874" 
d="M246.5 1450.5q35.5 35.5 88.5 35.5q51 0 86.5 -33.5t35.5 -83.5q0 -52 -36.5 -86.5t-88.5 -34.5q-51 0 -86.5 32.5t-35.5 82.5q1 52 36.5 87.5zM689.5 1449q35.5 36 88.5 36q50 0 86 -33t36 -82q0 -53 -36 -88t-89 -35q-51 0 -86 32t-35 81q0 53 35.5 89z" />
    <glyph glyph-name="copyright" unicode="&#xa9;" horiz-adv-x="1557" 
d="M235.5 1094.5q109.5 173.5 281.5 279.5q82 51 175.5 77t188.5 26q99 0 190 -28.5t162 -82.5q121 -95 187.5 -238t66.5 -306q0 -39 -5 -87q-21 -198 -130.5 -372t-280.5 -281q-83 -52 -176.5 -78t-188.5 -26q-100 0 -191 28.5t-161 83.5q-122 94 -188.5 238.5t-66.5 308.5
q0 38 5 85q22 199 131.5 372.5zM218 633q0 -130 49.5 -244.5t142.5 -190.5q56 -46 131.5 -70t158.5 -24q79 0 158 21.5t147 64.5q144 89 239 235t117 311q6 47 6 91q0 129 -49 242t-142 189q-56 46 -131.5 70t-158.5 24q-80 0 -158.5 -21.5t-146.5 -64.5
q-144 -89 -239 -233.5t-118 -310.5q-6 -45 -6 -89zM1080 596q-12 -147 -101.5 -230.5t-236.5 -83.5q-101 0 -170.5 47t-104.5 125.5t-35 173.5q0 13 2 41l12 119q12 107 59.5 195t128.5 140.5t188 52.5q98 0 168 -38t105 -109t33 -168l-152 1l1 21q0 154 -149 159
q-100 1 -157 -73t-71 -179l-14 -122q-3 -24 -3 -49q0 -84 34.5 -141.5t113.5 -60.5q166 -7 198 178z" />
    <glyph glyph-name="ordfeminine" unicode="&#xaa;" horiz-adv-x="887" 
d="M621 704l-3 70q-89 -82 -202 -82q-65 0 -115.5 26t-79 74t-28.5 112q0 95 53 151t143 78q79 19 161 19l104 -1l12 53q2 16 2 23q0 49 -29 75.5t-72 26.5q-42 0 -78.5 -26t-49.5 -73l-171 14q6 77 50 129.5t111 78.5t144 26q80 0 140 -30.5t92.5 -86.5t32.5 -132
q0 -19 -1 -28l-52 -335l-5 -71q-2 -47 7 -91h-166zM615 897l27 137h-86q-71 -3 -125.5 -30.5t-63.5 -87.5q-1 -6 -1 -16q0 -63 91 -66q70 0 158 63z" />
    <glyph glyph-name="guillemotleft" unicode="&#xab;" horiz-adv-x="974" 
d="M294 138l-223 388l1 21l340 391h181l-320 -412l165 -387zM643 138l-223 388l1 21l340 391h181l-320 -412l165 -387z" />
    <glyph glyph-name="logicalnot" unicode="&#xac;" horiz-adv-x="1100" 
d="M159 805h811l-75 -431h-196l46 260h-617z" />
    <glyph glyph-name="uni00AD" unicode="&#xad;" horiz-adv-x="653" 
d="M600 717l-35 -195h-511l35 195h511z" />
    <glyph glyph-name="registered" unicode="&#xae;" horiz-adv-x="1557" 
d="M235.5 1094q109.5 173 281.5 279q83 51 177 77t189 26q99 0 190 -28t160 -82q121 -95 187.5 -238t66.5 -306q0 -39 -5 -87q-21 -198 -130.5 -372t-280.5 -281q-83 -52 -176.5 -78t-188.5 -26q-100 0 -191 28.5t-161 83.5q-122 94 -188.5 238.5t-66.5 308.5q0 38 5 85
q22 199 131.5 372zM218 633q0 -130 49.5 -244.5t142.5 -190.5q56 -46 131.5 -70t158.5 -24q79 0 158 21.5t147 64.5q144 89 239 235t117 311q6 47 6 91q0 129 -49 242t-142 189q-56 46 -131.5 70t-158.5 24q-80 0 -158.5 -21.5t-146.5 -64.5q-144 -89 -239 -233.5
t-118 -310.5q-6 -45 -6 -89zM643 653l-53 -337h-148l133 850l260 -1q123 -3 204.5 -61.5t81.5 -173.5q0 -72 -37.5 -120.5t-105.5 -88.5q79 -51 79 -172q0 -22 -1 -34q-11 -92 -9 -119l4 -63l-1 -18h-149q-4 37 -3 73l13 128q1 10 1 28q0 51 -24 77.5t-81 29.5zM702 1033
l-39 -246l130 -1q68 3 120.5 33t63.5 90q3 17 3 30q0 52 -37 72t-102 21z" />
    <glyph glyph-name="macron" unicode="&#xaf;" horiz-adv-x="958" 
d="M951 1450l-25 -158h-668l26 158h667z" />
    <glyph glyph-name="degree" unicode="&#xb0;" horiz-adv-x="756" 
d="M265 1332q37 66 99.5 106t136.5 40q67 0 121 -35t84.5 -93.5t30.5 -124.5q0 -73 -35.5 -138t-97 -105t-134.5 -40q-68 0 -123.5 34.5t-87 92t-31.5 124.5q0 73 37 139zM390.5 1114q27.5 -30 69.5 -30q39 0 71.5 21t52 55t19.5 72q0 42 -25.5 73t-68.5 32
q-38 0 -71.5 -21.5t-54 -56.5t-20.5 -73q0 -42 27.5 -72z" />
    <glyph glyph-name="plusminus" unicode="&#xb1;" horiz-adv-x="1066" 
d="M996 700h-332l-61 -388h-210l61 388h-348l32 199h346l60 377h210l-59 -377h333zM882 197l-31 -196h-824l31 196h824z" />
    <glyph glyph-name="uni00B2" unicode="&#xb2;" horiz-adv-x="745" 
d="M708 816l-27 -149h-595l24 136l312 256q83 70 110 105q14 19 24 44.5t10 48.5q0 29 -19 46.5t-62 18.5q-54 0 -88.5 -33.5t-47.5 -88.5l-184 -1q6 82 49.5 143t112.5 94t151 33q73 0 135 -25t99.5 -76t37.5 -124q0 -67 -34.5 -123t-80.5 -97t-121 -96l-157 -110z" />
    <glyph glyph-name="uni00B3" unicode="&#xb3;" horiz-adv-x="745" 
d="M329 1005l23 128h71q57 3 99 28t50 76q1 5 1 14q0 34 -26.5 51t-65.5 17q-88 0 -117 -74l-187 -1q7 75 49.5 125.5t107.5 75t140 24.5q71 0 135.5 -22t105.5 -69t41 -118q0 -70 -42.5 -115.5t-115.5 -77.5q55 -20 84 -66t29 -102q0 -57 -29.5 -109t-81.5 -80
q-103 -54 -212 -54q-56 0 -108 16t-94 46q-83 59 -83 180l177 -1q2 -48 30 -69.5t71 -21.5q26 0 53.5 7.5t47.5 18.5q25 14 39.5 41.5t14.5 55.5q0 19 -7 33.5t-20 21.5q-36 19 -81 20z" />
    <glyph glyph-name="acute" unicode="&#xb4;" horiz-adv-x="648" 
d="M200 1234l237 302h285l-316 -302h-206z" />
    <glyph glyph-name="uni00B5" unicode="&#xb5;" horiz-adv-x="1175" 
d="M287 36l-86 -452h-236l260 1498h236l-102 -621q-7 -54 -7 -99q0 -89 31 -138q30 -49 117 -49q146 0 234 121l137 786h236l-187 -1082h-212l14 87q-103 -109 -242 -109q-114 0 -193 58z" />
    <glyph glyph-name="paragraph" unicode="&#xb6;" horiz-adv-x="976" 
d="M725 0h-204l90 520l-65 1q-124 3 -217.5 54t-144.5 141t-51 208q0 28 3 56q14 145 88 253t192.5 166t262.5 58l299 -1z" />
    <glyph glyph-name="periodcentered" unicode="&#xb7;" horiz-adv-x="561" 
d="M197.5 812q39.5 39 99.5 39q59 0 98 -37t39 -95q0 -59 -39.5 -98t-98.5 -40q-59 -2 -98.5 35t-39.5 97t39.5 99z" />
    <glyph glyph-name="cedilla" unicode="&#xb8;" horiz-adv-x="513" 
d="M26 3l174 1l-21 -58q63 -15 93 -58.5t30 -100.5q0 -43 -16 -83.5t-42 -63.5q-51 -46 -128.5 -66.5t-164.5 -23.5l7 140q138 6 152 96q1 4 1 13q0 35 -30.5 47t-60.5 14.5t-38 3.5z" />
    <glyph glyph-name="uni00B9" unicode="&#xb9;" horiz-adv-x="745" 
d="M642 1455l-130 -788h-182l98 567l-203 -48l28 154l365 115h24z" />
    <glyph glyph-name="ordmasculine" unicode="&#xba;" horiz-adv-x="907" 
d="M201 1121q11 101 59.5 182t129 128t181.5 47q95 0 164 -42.5t105 -115.5t36 -163q0 -23 -1 -35l-7 -77q-12 -102 -61.5 -184t-131 -127.5t-184.5 -42.5q-92 2 -159.5 45t-103 115.5t-35.5 162.5q0 21 1 31zM367 1042q-2 -24 -2 -36q0 -74 32 -122.5t105 -48.5
q83 0 131.5 61t61.5 149l9 78q2 24 2 36q0 74 -32.5 122.5t-107.5 48.5q-81 0 -130.5 -61t-60.5 -147z" />
    <glyph glyph-name="guillemotright" unicode="&#xbb;" horiz-adv-x="974" 
d="M300 938l223 -388l-1 -21l-340 -391h-180l320 412l-166 387zM662 938l223 -388l-1 -21l-340 -391h-180l320 412l-166 387z" />
    <glyph glyph-name="onequarter" unicode="&#xbc;" horiz-adv-x="1453" 
d="M601 1452l-130 -788h-182l99 567l-203 -48l27 154l366 115h23zM1245 1246l-880 -1127l-120 80l879 1127zM685 296l433 493h192l-82 -474h93l-27 -151h-92l-29 -164h-183l30 164h-347zM875 315h170l51 245l-18 -25z" />
    <glyph glyph-name="onehalf" unicode="&#xbd;" horiz-adv-x="1542" 
d="M593 1455l-130 -788h-182l99 567l-203 -48l27 154l366 115h23zM1203 1246l-880 -1127l-120 80l879 1127zM1362 149l-27 -149h-595l24 136l312 256q83 70 110 105q14 19 24 44.5t10 48.5q0 29 -19 46.5t-62 18.5q-55 0 -89.5 -33.5t-46.5 -88.5l-184 -1q6 82 49 143
t112 94t152 33q73 0 134.5 -25t99 -76t37.5 -124q0 -67 -34.5 -123t-80.5 -97t-120 -96l-157 -110z" />
    <glyph glyph-name="threequarters" unicode="&#xbe;" horiz-adv-x="1584" 
d="M377 1005l22 128h72q57 3 99 28t50 76q1 5 1 14q0 34 -26.5 51t-66.5 17q-87 0 -116 -74l-187 -1q7 75 49.5 125.5t107.5 75t140 24.5q70 0 134.5 -21.5t105.5 -68.5t41 -117q0 -72 -42.5 -117.5t-114.5 -77.5q55 -20 84 -66t29 -102q0 -57 -29.5 -109t-81.5 -80
q-103 -54 -213 -54q-57 0 -108.5 16t-93.5 46q-81 58 -83 180l178 -1q2 -48 30 -69.5t71 -21.5q26 0 53.5 7.5t47.5 18.5q25 14 39.5 41.5t14.5 55.5q0 18 -7 33t-20 22q-36 19 -81 20zM1383 1246l-880 -1127l-120 80l879 1127zM803 296l433 493h192l-82 -474h93l-27 -151
h-92l-29 -164h-183l30 164h-347zM993 315h170l51 245l-18 -25z" />
    <glyph glyph-name="questiondown" unicode="&#xbf;" horiz-adv-x="967" 
d="M658 879.5q-38 -38.5 -96 -39.5q-57 -2 -96 34.5t-39 93.5q0 58 38.5 96.5t96.5 38.5q57 0 95 -35.5t38 -91.5q1 -58 -37 -96.5zM612 663q-11 -122 -58 -210.5t-144 -173.5l-16 -14q-59 -52 -94.5 -88t-62 -82t-33.5 -100q-3 -20 -3 -38q0 -67 37.5 -105.5t111.5 -38.5
q83 0 138 51.5t71 135.5h237q-12 -120 -74 -207.5t-161 -133.5t-219 -46q-113 0 -199.5 40t-135 117t-48.5 184q0 12 2 38q7 89 51 164t101 131t147 131q60 49 78 130q16 79 56 114z" />
    <glyph glyph-name="Agrave" unicode="&#xc0;" horiz-adv-x="1322" 
d="M802 1846l143 -302h-181l-216 302h254zM-93 0l786 1456h222l283 -1456h-248l-56 340h-546l-174 -340h-267zM452 543h408l-99 604z" />
    <glyph glyph-name="Aacute" unicode="&#xc1;" horiz-adv-x="1322" 
d="M701 1544l237 302h285l-316 -302h-206zM-93 0l786 1456h222l283 -1456h-248l-56 340h-546l-174 -340h-267zM452 543h408l-99 604z" />
    <glyph glyph-name="Acircumflex" unicode="&#xc2;" horiz-adv-x="1322" 
d="M936 1847l233 -274v-17l-185 3l-117 155l-173 -154l-193 -4v19l298 272h137zM-93 0l786 1456h222l283 -1456h-248l-56 340h-546l-174 -340h-267zM452 543h408l-99 604z" />
    <glyph glyph-name="Atilde" unicode="&#xc3;" horiz-adv-x="1322" 
d="M1221 1824q-6 -68 -34 -127.5t-78 -96t-119 -36.5q-75 0 -132 49q-24 21 -54.5 33.5t-60.5 12.5q-41 0 -72 -26t-45 -80l-150 8q6 68 34.5 128t78.5 97.5t119 37.5q76 0 134 -48q26 -22 57 -34.5t60 -12.5q41 0 73 25.5t47 79.5zM-93 0l786 1456h222l283 -1456h-248
l-56 340h-546l-174 -340h-267zM452 543h408l-99 604z" />
    <glyph glyph-name="Adieresis" unicode="&#xc4;" horiz-adv-x="1322" 
d="M541.5 1760.5q35.5 35.5 88.5 35.5q51 0 86.5 -33.5t35.5 -83.5q0 -52 -36.5 -86.5t-88.5 -34.5q-51 0 -86.5 32.5t-35.5 82.5q1 52 36.5 87.5zM984.5 1759q35.5 36 88.5 36q50 0 86 -33t36 -82q0 -53 -36 -88t-89 -35q-51 0 -86 32t-35 81q0 53 35.5 89zM-93 0l786 1456
h222l283 -1456h-248l-56 340h-546l-174 -340h-267zM452 543h408l-99 604z" />
    <glyph glyph-name="Aring" unicode="&#xc5;" horiz-adv-x="1322" 
d="M676 1833.5q31 49.5 82 78.5t110 29q56 0 103.5 -26.5t75.5 -72.5t28 -102q0 -60 -31 -108.5t-82.5 -76.5t-110.5 -28q-56 0 -103 25.5t-75 70.5t-28 101q0 60 31 109.5zM775 1647.5q25 -26.5 63 -26.5q34 0 64 18.5t48.5 49.5t18.5 65q0 39 -24.5 65.5t-63.5 26.5
q-34 0 -64.5 -19t-48.5 -50t-18 -65q0 -38 25 -64.5zM-93 0l786 1456h222l283 -1456h-248l-56 340h-546l-174 -340h-267zM452 543h408l-99 604z" />
    <glyph glyph-name="AE" unicode="&#xc6;" horiz-adv-x="1867" 
d="M1753 196l-35 -196h-871l46 341h-480l-239 -341h-296l1062 1456h972l-34 -196h-628l-55 -409h534l-35 -196h-524l-61 -459h644zM562 555h359l85 636z" />
    <glyph glyph-name="Ccedilla" unicode="&#xc7;" horiz-adv-x="1297" 
d="M827.5 258.5q83.5 75.5 119.5 214.5l240 3q-21 -144 -97.5 -253t-194 -171.5t-260.5 -70.5l-15 -42q63 -15 93 -58.5t30 -100.5q0 -43 -16 -83.5t-42 -63.5q-51 -46 -128.5 -66.5t-164.5 -23.5l7 140q138 6 152 96q1 4 1 13q0 35 -30.5 47t-60.5 14.5t-38 3.5l43 136
q-135 30 -219 122.5t-118 230.5q-25 100 -25 208q0 60 7 115l17 118q28 187 115.5 344t227.5 252q67 45 153.5 69.5t176.5 24.5q108 0 204 -36t158 -108q119 -140 128 -359h-245q-4 143 -61.5 221t-195.5 78q-125 0 -211 -68.5t-136 -189.5q-42 -101 -63.5 -230t-25.5 -211
q-1 -17 -1 -54q0 -38 1 -59q6 -127 65.5 -202.5t188.5 -75.5q137 0 220.5 75.5z" />
    <glyph glyph-name="Egrave" unicode="&#xc8;" horiz-adv-x="1123" 
d="M747 1854l143 -302h-181l-216 302h254zM39 0l252 1456h919l-36 -203h-672l-70 -403h581l-35 -199h-580l-78 -449h679l-35 -202h-925z" />
    <glyph glyph-name="Eacute" unicode="&#xc9;" horiz-adv-x="1123" 
d="M646 1552l237 302h285l-316 -302h-206zM39 0l252 1456h919l-36 -203h-672l-70 -403h581l-35 -199h-580l-78 -449h679l-35 -202h-925z" />
    <glyph glyph-name="Ecircumflex" unicode="&#xca;" horiz-adv-x="1123" 
d="M881 1855l233 -274v-17l-185 3l-117 155l-173 -154l-193 -4v19l298 272h137zM39 0l252 1456h919l-36 -203h-672l-70 -403h581l-35 -199h-580l-78 -449h679l-35 -202h-925z" />
    <glyph glyph-name="Edieresis" unicode="&#xcb;" horiz-adv-x="1123" 
d="M486.5 1768.5q35.5 35.5 88.5 35.5q51 0 86.5 -33.5t35.5 -83.5q0 -52 -36.5 -86.5t-88.5 -34.5q-51 0 -86.5 32.5t-35.5 82.5q1 52 36.5 87.5zM929.5 1767q35.5 36 88.5 36q50 0 86 -33t36 -82q0 -53 -36 -88t-89 -35q-51 0 -86 32t-35 81q0 53 35.5 89zM39 0l252 1456
h919l-36 -203h-672l-70 -403h581l-35 -199h-580l-78 -449h679l-35 -202h-925z" />
    <glyph glyph-name="Igrave" unicode="&#xcc;" horiz-adv-x="561" 
d="M420 1854l143 -302h-181l-216 302h254zM553 1456l-253 -1456h-246l253 1456h246z" />
    <glyph glyph-name="Iacute" unicode="&#xcd;" horiz-adv-x="561" 
d="M319 1552l237 302h285l-316 -302h-206zM553 1456l-253 -1456h-246l253 1456h246z" />
    <glyph glyph-name="Icircumflex" unicode="&#xce;" horiz-adv-x="561" 
d="M554 1855l233 -274v-17l-185 3l-117 155l-173 -154l-193 -4v19l298 272h137zM553 1456l-253 -1456h-246l253 1456h246z" />
    <glyph glyph-name="Idieresis" unicode="&#xcf;" horiz-adv-x="561" 
d="M159.5 1768.5q35.5 35.5 88.5 35.5q51 0 86.5 -33.5t35.5 -83.5q0 -52 -36.5 -86.5t-88.5 -34.5q-51 0 -86.5 32.5t-35.5 82.5q1 52 36.5 87.5zM602.5 1767q35.5 36 88.5 36q50 0 86 -33t36 -82q0 -53 -36 -88t-89 -35q-51 0 -86 32t-35 81q0 53 35.5 89zM553 1456
l-253 -1456h-246l253 1456h246z" />
    <glyph glyph-name="Eth" unicode="&#xd0;" horiz-adv-x="1328" 
d="M70 0l113 652h-154l31 171h153l109 633l402 -1q191 -4 317 -97t180 -254q37 -110 37 -238q0 -56 -5 -99l-7 -58q-25 -210 -128 -370.5t-264.5 -249.5t-357.5 -89h-426zM498 201q142 0 247 64t168 174.5t84 251.5l11 76q8 61 8 113q0 90 -22.5 166.5t-70.5 128.5
q-67 72 -205 77l-185 1l-74 -430h252l-30 -171h-252l-78 -450z" />
    <glyph glyph-name="Ntilde" unicode="&#xd1;" horiz-adv-x="1411" 
d="M1261 1824q-6 -68 -34 -127.5t-78 -96t-119 -36.5q-75 0 -132 49q-24 21 -54.5 33.5t-60.5 12.5q-41 0 -72 -26t-45 -80l-150 8q6 68 34.5 128t78.5 97.5t119 37.5q76 0 134 -48q26 -22 57 -34.5t60 -12.5q41 0 73 25.5t47 79.5zM1414 1456l-253 -1456h-239l-456 1043
l-181 -1043h-246l252 1456h239l457 -1046l181 1046h246z" />
    <glyph glyph-name="Ograve" unicode="&#xd2;" horiz-adv-x="1372" 
d="M825 1846l143 -302h-181l-216 302h254zM1290 692q-26 -190 -114 -353t-230 -261q-69 -48 -155.5 -73t-177.5 -25q-97 0 -182.5 28.5t-142.5 82.5q-90 85 -134.5 210t-44.5 270q0 64 7 120l9 74q27 189 116.5 352t231.5 262q69 48 155.5 72.5t176.5 24.5q97 0 182.5 -28
t142.5 -82q90 -84 133.5 -209t43.5 -272q0 -65 -7 -121zM986.5 1190.5q-63.5 77.5 -195.5 77.5q-125 0 -213 -73t-140 -199q-41 -97 -61.5 -212.5t-20.5 -226.5q0 -42 3 -81q9 -131 72.5 -210t193.5 -79q127 0 214.5 73t139.5 200q41 100 61.5 220t20.5 235q0 24 -2 68
q-9 130 -72.5 207.5z" />
    <glyph glyph-name="Oacute" unicode="&#xd3;" horiz-adv-x="1372" 
d="M724 1544l237 302h285l-316 -302h-206zM1290 692q-26 -190 -114 -353t-230 -261q-69 -48 -155.5 -73t-177.5 -25q-97 0 -182.5 28.5t-142.5 82.5q-90 85 -134.5 210t-44.5 270q0 64 7 120l9 74q27 189 116.5 352t231.5 262q69 48 155.5 72.5t176.5 24.5q97 0 182.5 -28
t142.5 -82q90 -84 133.5 -209t43.5 -272q0 -65 -7 -121zM986.5 1190.5q-63.5 77.5 -195.5 77.5q-125 0 -213 -73t-140 -199q-41 -97 -61.5 -212.5t-20.5 -226.5q0 -42 3 -81q9 -131 72.5 -210t193.5 -79q127 0 214.5 73t139.5 200q41 100 61.5 220t20.5 235q0 24 -2 68
q-9 130 -72.5 207.5z" />
    <glyph glyph-name="Ocircumflex" unicode="&#xd4;" horiz-adv-x="1372" 
d="M959 1847l233 -274v-17l-185 3l-117 155l-173 -154l-193 -4v19l298 272h137zM1290 692q-26 -190 -114 -353t-230 -261q-69 -48 -155.5 -73t-177.5 -25q-97 0 -182.5 28.5t-142.5 82.5q-90 85 -134.5 210t-44.5 270q0 64 7 120l9 74q27 189 116.5 352t231.5 262
q69 48 155.5 72.5t176.5 24.5q97 0 182.5 -28t142.5 -82q90 -84 133.5 -209t43.5 -272q0 -65 -7 -121zM986.5 1190.5q-63.5 77.5 -195.5 77.5q-125 0 -213 -73t-140 -199q-41 -97 -61.5 -212.5t-20.5 -226.5q0 -42 3 -81q9 -131 72.5 -210t193.5 -79q127 0 214.5 73
t139.5 200q41 100 61.5 220t20.5 235q0 24 -2 68q-9 130 -72.5 207.5z" />
    <glyph glyph-name="Otilde" unicode="&#xd5;" horiz-adv-x="1372" 
d="M1245 1824q-6 -68 -34 -127.5t-78 -96t-119 -36.5q-75 0 -132 49q-24 21 -54.5 33.5t-60.5 12.5q-41 0 -72 -26t-45 -80l-150 8q6 68 34.5 128t78.5 97.5t119 37.5q76 0 134 -48q26 -22 57 -34.5t60 -12.5q41 0 73 25.5t47 79.5zM1290 692q-26 -190 -114 -353t-230 -261
q-69 -48 -155.5 -73t-177.5 -25q-97 0 -182.5 28.5t-142.5 82.5q-90 85 -134.5 210t-44.5 270q0 64 7 120l9 74q27 189 116.5 352t231.5 262q69 48 155.5 72.5t176.5 24.5q97 0 182.5 -28t142.5 -82q90 -84 133.5 -209t43.5 -272q0 -65 -7 -121zM986.5 1190.5
q-63.5 77.5 -195.5 77.5q-125 0 -213 -73t-140 -199q-41 -97 -61.5 -212.5t-20.5 -226.5q0 -42 3 -81q9 -131 72.5 -210t193.5 -79q127 0 214.5 73t139.5 200q41 100 61.5 220t20.5 235q0 24 -2 68q-9 130 -72.5 207.5z" />
    <glyph glyph-name="Odieresis" unicode="&#xd6;" horiz-adv-x="1372" 
d="M564.5 1760.5q35.5 35.5 88.5 35.5q51 0 86.5 -33.5t35.5 -83.5q0 -52 -36.5 -86.5t-88.5 -34.5q-51 0 -86.5 32.5t-35.5 82.5q1 52 36.5 87.5zM1007.5 1759q35.5 36 88.5 36q50 0 86 -33t36 -82q0 -53 -36 -88t-89 -35q-51 0 -86 32t-35 81q0 53 35.5 89zM1290 692
q-26 -190 -114 -353t-230 -261q-69 -48 -155.5 -73t-177.5 -25q-97 0 -182.5 28.5t-142.5 82.5q-90 85 -134.5 210t-44.5 270q0 64 7 120l9 74q27 189 116.5 352t231.5 262q69 48 155.5 72.5t176.5 24.5q97 0 182.5 -28t142.5 -82q90 -84 133.5 -209t43.5 -272
q0 -65 -7 -121zM986.5 1190.5q-63.5 77.5 -195.5 77.5q-125 0 -213 -73t-140 -199q-41 -97 -61.5 -212.5t-20.5 -226.5q0 -42 3 -81q9 -131 72.5 -210t193.5 -79q127 0 214.5 73t139.5 200q41 100 61.5 220t20.5 235q0 24 -2 68q-9 130 -72.5 207.5z" />
    <glyph glyph-name="multiply" unicode="&#xd7;" horiz-adv-x="1060" 
d="M931 353l-158 -138l-251 320l-361 -320l-127 160l363 322l-251 323l158 138l251 -320l361 320l127 -160l-363 -322z" />
    <glyph glyph-name="Oslash" unicode="&#xd8;" horiz-adv-x="1371" 
d="M320 56l-119 -151l-179 1l192 239q-52 86 -77 182t-25 214t23 255q31 187 121.5 342t230.5 247q138 92 330 92q186 0 323 -103l112 143h179l-196 -243q38 -81 57 -169.5t19 -191.5q0 -113 -24 -254q-35 -200 -131 -357t-234 -241q-131 -82 -310 -82q-165 0 -292 77z
M365 355l638 832q-33 40 -88 61.5t-118 21.5q-59 0 -115.5 -19t-98.5 -55q-86 -74 -137.5 -191.5t-73.5 -263.5q-23 -163 -23 -243q0 -75 16 -143zM1074 973q0 39 -3 76l-620 -811q32 -25 78.5 -39t97.5 -14q54 0 106 16t94 48q84 64 138.5 175.5t77.5 252.5q21 125 29 231
q2 44 2 65z" />
    <glyph glyph-name="Ugrave" unicode="&#xd9;" horiz-adv-x="1296" 
d="M784 1846l143 -302h-181l-216 302h254zM1079 1456h247l-165 -972q-21 -153 -102 -267.5t-207.5 -176.5t-280.5 -62q-140 0 -246.5 53.5t-165.5 152.5t-59 231q0 37 4 68l165 973h245l-165 -974q-4 -27 -4 -59q0 -109 56.5 -173.5t171.5 -67.5q92 -3 163.5 33t116 103.5
t59.5 158.5z" />
    <glyph glyph-name="Uacute" unicode="&#xda;" horiz-adv-x="1296" 
d="M683 1544l237 302h285l-316 -302h-206zM1079 1456h247l-165 -972q-21 -153 -102 -267.5t-207.5 -176.5t-280.5 -62q-140 0 -246.5 53.5t-165.5 152.5t-59 231q0 37 4 68l165 973h245l-165 -974q-4 -27 -4 -59q0 -109 56.5 -173.5t171.5 -67.5q92 -3 163.5 33t116 103.5
t59.5 158.5z" />
    <glyph glyph-name="Ucircumflex" unicode="&#xdb;" horiz-adv-x="1296" 
d="M918 1847l233 -274v-17l-185 3l-117 155l-173 -154l-193 -4v19l298 272h137zM1079 1456h247l-165 -972q-21 -153 -102 -267.5t-207.5 -176.5t-280.5 -62q-140 0 -246.5 53.5t-165.5 152.5t-59 231q0 37 4 68l165 973h245l-165 -974q-4 -27 -4 -59q0 -109 56.5 -173.5
t171.5 -67.5q92 -3 163.5 33t116 103.5t59.5 158.5z" />
    <glyph glyph-name="Udieresis" unicode="&#xdc;" horiz-adv-x="1296" 
d="M524.5 1760.5q35.5 35.5 88.5 35.5q51 0 86.5 -33.5t35.5 -83.5q0 -52 -36.5 -86.5t-88.5 -34.5q-51 0 -86.5 32.5t-35.5 82.5q1 52 36.5 87.5zM967.5 1759q35.5 36 88.5 36q50 0 86 -33t36 -82q0 -53 -36 -88t-89 -35q-51 0 -86 32t-35 81q0 53 35.5 89zM1079 1456h247
l-165 -972q-21 -153 -102 -267.5t-207.5 -176.5t-280.5 -62q-140 0 -246.5 53.5t-165.5 152.5t-59 231q0 37 4 68l165 973h245l-165 -974q-4 -27 -4 -59q0 -109 56.5 -173.5t171.5 -67.5q92 -3 163.5 33t116 103.5t59.5 158.5z" />
    <glyph glyph-name="Yacute" unicode="&#xdd;" horiz-adv-x="1211" 
d="M646 1544l237 302h285l-316 -302h-206zM423 1456l204 -687l444 687h286l-642 -933l-91 -523h-248l96 549l-310 907h261z" />
    <glyph glyph-name="Thorn" unicode="&#xde;" horiz-adv-x="1190" 
d="M329 300l-53 -300h-237l253 1456h237l-49 -279l222 -1q124 -3 224 -49t158 -133t58 -207q0 -13 -2 -41q-12 -144 -91 -245t-202.5 -151.5t-266.5 -50.5zM447 982l-85 -487l226 -2q79 1 146.5 30t112.5 86t56 136q3 20 3 39q0 89 -56 141t-153 56z" />
    <glyph glyph-name="germandbls" unicode="&#xdf;" horiz-adv-x="1218" 
d="M264 0h-237l189 1106q18 133 78.5 235.5t161.5 160t234 57.5q103 0 183.5 -37t126.5 -109t46 -171q0 -21 -1 -32q-5 -62 -29.5 -112.5t-73.5 -123.5l-16 -24q-25 -38 -39.5 -80t-14.5 -82q0 -52 24 -90q34 -57 82 -108q60 -65 92 -122t29 -122q-6 -118 -66 -200.5
t-156.5 -124.5t-212.5 -42q-179 0 -295 67l68 193q101 -65 211 -65q83 0 143.5 42t72.5 120q2 18 2 26q0 53 -29 99.5t-83 102.5q-57 59 -88 111.5t-31 115.5q0 62 25 114t74 120l27 40q23 36 36.5 77.5t13.5 80.5q0 54 -25 92q-16 24 -49.5 38.5t-73.5 14.5
q-44 0 -84 -20.5t-64 -61.5q-50 -84 -64 -182z" />
    <glyph glyph-name="agrave" unicode="&#xe0;" horiz-adv-x="1076" 
d="M634 1536l143 -302h-181l-216 302h254zM655 0q-6 21 -8 51v51q-66 -62 -140 -92t-148 -30q-66 0 -126 23t-107 66q-45 40 -67 96.5t-22 119.5q0 66 23 127t65 103q76 76 191 111.5t245 35.5l156 -1l13 73q3 20 3 37q0 66 -37.5 106t-109.5 42q-76 1 -133 -38.5
t-72 -109.5l-236 -2q6 109 77 185.5t182 114.5q100 34 200 34q168 0 277 -101q89 -83 89 -226q0 -30 -2 -46l-84 -514l-7 -82q-3 -60 15 -116l-1 -18h-236zM548.5 207.5q64.5 35.5 111.5 96.5l37 205l-113 1q-116 -1 -204 -44t-102 -146q-1 -7 -1 -21q0 -57 37 -90.5
t98 -34.5q72 -2 136.5 33.5z" />
    <glyph glyph-name="aacute" unicode="&#xe1;" horiz-adv-x="1076" 
d="M533 1234l237 302h285l-316 -302h-206zM655 0q-6 21 -8 51v51q-66 -62 -140 -92t-148 -30q-66 0 -126 23t-107 66q-45 40 -67 96.5t-22 119.5q0 66 23 127t65 103q76 76 191 111.5t245 35.5l156 -1l13 73q3 20 3 37q0 66 -37.5 106t-109.5 42q-76 1 -133 -38.5
t-72 -109.5l-236 -2q6 109 77 185.5t182 114.5q100 34 200 34q168 0 277 -101q89 -83 89 -226q0 -30 -2 -46l-84 -514l-7 -82q-3 -60 15 -116l-1 -18h-236zM548.5 207.5q64.5 35.5 111.5 96.5l37 205l-113 1q-116 -1 -204 -44t-102 -146q-1 -7 -1 -21q0 -57 37 -90.5
t98 -34.5q72 -2 136.5 33.5z" />
    <glyph glyph-name="acircumflex" unicode="&#xe2;" horiz-adv-x="1076" 
d="M768 1537l233 -274v-17l-185 3l-117 155l-173 -154l-193 -4v19l298 272h137zM655 0q-6 21 -8 51v51q-66 -62 -140 -92t-148 -30q-66 0 -126 23t-107 66q-45 40 -67 96.5t-22 119.5q0 66 23 127t65 103q76 76 191 111.5t245 35.5l156 -1l13 73q3 20 3 37q0 66 -37.5 106
t-109.5 42q-76 1 -133 -38.5t-72 -109.5l-236 -2q6 109 77 185.5t182 114.5q100 34 200 34q168 0 277 -101q89 -83 89 -226q0 -30 -2 -46l-84 -514l-7 -82q-3 -60 15 -116l-1 -18h-236zM548.5 207.5q64.5 35.5 111.5 96.5l37 205l-113 1q-116 -1 -204 -44t-102 -146
q-1 -7 -1 -21q0 -57 37 -90.5t98 -34.5q72 -2 136.5 33.5z" />
    <glyph glyph-name="atilde" unicode="&#xe3;" horiz-adv-x="1076" 
d="M1053 1514q-6 -68 -34 -127.5t-78 -96t-119 -36.5q-75 0 -132 49q-24 21 -54.5 33.5t-60.5 12.5q-41 0 -72 -26t-45 -80l-150 8q6 68 34.5 128t78.5 97.5t119 37.5q76 0 134 -48q26 -22 57 -34.5t60 -12.5q41 0 73 25.5t47 79.5zM655 0q-6 21 -8 51v51q-66 -62 -140 -92
t-148 -30q-66 0 -126 23t-107 66q-45 40 -67 96.5t-22 119.5q0 66 23 127t65 103q76 76 191 111.5t245 35.5l156 -1l13 73q3 20 3 37q0 66 -37.5 106t-109.5 42q-76 1 -133 -38.5t-72 -109.5l-236 -2q6 109 77 185.5t182 114.5q100 34 200 34q168 0 277 -101q89 -83 89 -226
q0 -30 -2 -46l-84 -514l-7 -82q-3 -60 15 -116l-1 -18h-236zM548.5 207.5q64.5 35.5 111.5 96.5l37 205l-113 1q-116 -1 -204 -44t-102 -146q-1 -7 -1 -21q0 -57 37 -90.5t98 -34.5q72 -2 136.5 33.5z" />
    <glyph glyph-name="adieresis" unicode="&#xe4;" horiz-adv-x="1076" 
d="M373.5 1450.5q35.5 35.5 88.5 35.5q51 0 86.5 -33.5t35.5 -83.5q0 -52 -36.5 -86.5t-88.5 -34.5q-51 0 -86.5 32.5t-35.5 82.5q1 52 36.5 87.5zM816.5 1449q35.5 36 88.5 36q50 0 86 -33t36 -82q0 -53 -36 -88t-89 -35q-51 0 -86 32t-35 81q0 53 35.5 89zM655 0
q-6 21 -8 51v51q-66 -62 -140 -92t-148 -30q-66 0 -126 23t-107 66q-45 40 -67 96.5t-22 119.5q0 66 23 127t65 103q76 76 191 111.5t245 35.5l156 -1l13 73q3 20 3 37q0 66 -37.5 106t-109.5 42q-76 1 -133 -38.5t-72 -109.5l-236 -2q6 109 77 185.5t182 114.5
q100 34 200 34q168 0 277 -101q89 -83 89 -226q0 -30 -2 -46l-84 -514l-7 -82q-3 -60 15 -116l-1 -18h-236zM548.5 207.5q64.5 35.5 111.5 96.5l37 205l-113 1q-116 -1 -204 -44t-102 -146q-1 -7 -1 -21q0 -57 37 -90.5t98 -34.5q72 -2 136.5 33.5z" />
    <glyph glyph-name="aring" unicode="&#xe5;" horiz-adv-x="1076" 
d="M508 1523.5q31 49.5 82 78.5t110 29q56 0 103.5 -26.5t75.5 -72.5t28 -102q0 -60 -31 -108.5t-82.5 -76.5t-110.5 -28q-56 0 -103 25.5t-75 70.5t-28 101q0 60 31 109.5zM607 1337.5q25 -26.5 63 -26.5q34 0 64 18.5t48.5 49.5t18.5 65q0 39 -24.5 65.5t-63.5 26.5
q-34 0 -64.5 -19t-48.5 -50t-18 -65q0 -38 25 -64.5zM655 0q-6 21 -8 51v51q-66 -62 -140 -92t-148 -30q-66 0 -126 23t-107 66q-45 40 -67 96.5t-22 119.5q0 66 23 127t65 103q76 76 191 111.5t245 35.5l156 -1l13 73q3 20 3 37q0 66 -37.5 106t-109.5 42q-76 1 -133 -38.5
t-72 -109.5l-236 -2q6 109 77 185.5t182 114.5q100 34 200 34q168 0 277 -101q89 -83 89 -226q0 -30 -2 -46l-84 -514l-7 -82q-3 -60 15 -116l-1 -18h-236zM548.5 207.5q64.5 35.5 111.5 96.5l37 205l-113 1q-116 -1 -204 -44t-102 -146q-1 -7 -1 -21q0 -57 37 -90.5
t98 -34.5q72 -2 136.5 33.5z" />
    <glyph glyph-name="ae" unicode="&#xe6;" horiz-adv-x="1677" 
d="M1516 98q-71 -61 -173.5 -89.5t-209.5 -28.5q-112 0 -208.5 39t-153.5 121q-167 -161 -412 -161q-99 0 -176.5 35t-121 103t-43.5 163q0 137 75 219t202 116q114 29 226 29l192 -1l13 72q3 20 3 38q0 69 -36.5 111.5t-112.5 42.5q-78 0 -137.5 -41t-71.5 -114l-237 18
q9 114 79.5 189.5t181.5 111.5q99 32 196 32q93 0 185 -30q85 -28 136 -102q73 64 161.5 97t177.5 33q96 0 176 -38.5t125 -111.5q72 -115 72 -263q0 -33 -5 -76l-21 -141h-669q-3 -24 -3 -48q0 -110 59 -178.5t176 -68.5q74 0 144 23t154 67zM948 642h437l6 32q5 32 5 57
q0 79 -41 128t-127 49q-186 0 -280 -266zM650 265l40 211l-168 1q-60 -1 -117 -19.5t-97.5 -58t-49.5 -99.5q-2 -14 -2 -21q0 -56 42 -85.5t105 -29.5q113 0 247 101z" />
    <glyph glyph-name="ccedilla" unicode="&#xe7;" horiz-adv-x="1041" 
d="M425 840.5q-66 -67.5 -96.5 -173t-30.5 -223.5q0 -39 3 -75q7 -89 52.5 -142t137.5 -53q83 0 145 51t82 132l223 1q-11 -106 -73 -190.5t-156.5 -133t-200.5 -54.5l-15 -41q63 -15 93 -58.5t30 -100.5q0 -43 -16 -83.5t-42 -63.5q-51 -46 -128.5 -66.5t-164.5 -23.5
l7 140q138 6 152 96q1 4 1 13q0 35 -30.5 47t-60.5 14.5t-38 3.5l44 139h12q-99 27 -164.5 95t-97.5 168q-29 93 -29 193q0 35 3 69l3 26q19 167 90.5 292.5t185.5 194t255 68.5q122 0 212.5 -51.5t139 -144t48.5 -212.5h-221q-1 94 -48 154t-139 60q-102 0 -168 -67.5z" />
    <glyph glyph-name="egrave" unicode="&#xe8;" horiz-adv-x="1066" 
d="M610 1536l143 -302h-181l-216 302h254zM924 182q-68 -98 -178 -150t-234 -52q-138 0 -239 61.5t-154 168t-53 238.5q0 16 2 52l3 42q15 148 85.5 276.5t185.5 207.5q56 38 124.5 57.5t139.5 19.5q74 0 140 -20.5t111 -59.5q73 -63 109.5 -159t36.5 -211q0 -37 -5 -85
l-14 -103h-682q-1 -10 -1 -30q0 -72 25.5 -131t77.5 -93.5t129 -34.5q150 0 271 132zM323 643l447 -1l4 21q4 32 4 48q0 86 -46.5 141.5t-135.5 55.5q-183 0 -273 -265z" />
    <glyph glyph-name="eacute" unicode="&#xe9;" horiz-adv-x="1066" 
d="M509 1234l237 302h285l-316 -302h-206zM924 182q-68 -98 -178 -150t-234 -52q-138 0 -239 61.5t-154 168t-53 238.5q0 16 2 52l3 42q15 148 85.5 276.5t185.5 207.5q56 38 124.5 57.5t139.5 19.5q74 0 140 -20.5t111 -59.5q73 -63 109.5 -159t36.5 -211q0 -37 -5 -85
l-14 -103h-682q-1 -10 -1 -30q0 -72 25.5 -131t77.5 -93.5t129 -34.5q150 0 271 132zM323 643l447 -1l4 21q4 32 4 48q0 86 -46.5 141.5t-135.5 55.5q-183 0 -273 -265z" />
    <glyph glyph-name="ecircumflex" unicode="&#xea;" horiz-adv-x="1066" 
d="M744 1537l233 -274v-17l-185 3l-117 155l-173 -154l-193 -4v19l298 272h137zM924 182q-68 -98 -178 -150t-234 -52q-138 0 -239 61.5t-154 168t-53 238.5q0 16 2 52l3 42q15 148 85.5 276.5t185.5 207.5q56 38 124.5 57.5t139.5 19.5q74 0 140 -20.5t111 -59.5
q73 -63 109.5 -159t36.5 -211q0 -37 -5 -85l-14 -103h-682q-1 -10 -1 -30q0 -72 25.5 -131t77.5 -93.5t129 -34.5q150 0 271 132zM323 643l447 -1l4 21q4 32 4 48q0 86 -46.5 141.5t-135.5 55.5q-183 0 -273 -265z" />
    <glyph glyph-name="edieresis" unicode="&#xeb;" horiz-adv-x="1066" 
d="M350.5 1450.5q35.5 35.5 88.5 35.5q51 0 86.5 -33.5t35.5 -83.5q0 -52 -36.5 -86.5t-88.5 -34.5q-51 0 -86.5 32.5t-35.5 82.5q1 52 36.5 87.5zM793.5 1449q35.5 36 88.5 36q50 0 86 -33t36 -82q0 -53 -36 -88t-89 -35q-51 0 -86 32t-35 81q0 53 35.5 89zM924 182
q-68 -98 -178 -150t-234 -52q-138 0 -239 61.5t-154 168t-53 238.5q0 16 2 52l3 42q15 148 85.5 276.5t185.5 207.5q56 38 124.5 57.5t139.5 19.5q74 0 140 -20.5t111 -59.5q73 -63 109.5 -159t36.5 -211q0 -37 -5 -85l-14 -103h-682q-1 -10 -1 -30q0 -72 25.5 -131
t77.5 -93.5t129 -34.5q150 0 271 132zM323 643l447 -1l4 21q4 32 4 48q0 86 -46.5 141.5t-135.5 55.5q-183 0 -273 -265z" />
    <glyph glyph-name="igrave" unicode="&#xec;" horiz-adv-x="523" 
d="M342 1529l143 -302h-181l-216 302h254zM459 1082l-188 -1082h-237l188 1082h237z" />
    <glyph glyph-name="iacute" unicode="&#xed;" horiz-adv-x="523" 
d="M242 1227l237 302h285l-316 -302h-206zM459 1082l-188 -1082h-237l188 1082h237z" />
    <glyph glyph-name="icircumflex" unicode="&#xee;" horiz-adv-x="523" 
d="M476 1530l233 -274v-17l-185 3l-117 155l-173 -154l-193 -4v19l298 272h137zM459 1082l-188 -1082h-237l188 1082h237z" />
    <glyph glyph-name="idieresis" unicode="&#xef;" horiz-adv-x="523" 
d="M82.5 1443.5q35.5 35.5 88.5 35.5q51 0 86.5 -33.5t35.5 -83.5q0 -52 -36.5 -86.5t-88.5 -34.5q-51 0 -86.5 32.5t-35.5 82.5q1 52 36.5 87.5zM525.5 1442q35.5 36 88.5 36q50 0 86 -33t36 -82q0 -53 -36 -88t-89 -35q-51 0 -86 32t-35 81q0 53 35.5 89zM459 1082
l-188 -1082h-237l188 1082h237z" />
    <glyph glyph-name="eth" unicode="&#xf0;" horiz-adv-x="1155" 
d="M280 36q-97 57 -149.5 155t-52.5 219q0 33 2 50q12 138 77 256.5t173 189.5q52 34 112.5 51.5t123.5 17.5q72 0 140 -23.5t125 -69.5q-4 156 -99 291l-226 -137l-63 121l185 108q-89 74 -257 121l91 194q226 -56 372 -184l200 121l61 -121l-164 -94q143 -244 143 -516
q0 -62 -10 -144l-12 -87q-22 -151 -95 -283t-189 -213q-113 -80 -265 -80q-126 0 -223 57zM314 416q0 -64 21.5 -119.5t66 -89.5t111.5 -34q88 0 150.5 54t100.5 145q35 88 47 169l15 104l6 39q-27 49 -83 75.5t-123 26.5q-63 0 -121 -24.5t-95 -71.5q-79 -100 -94 -230
q-2 -14 -2 -44z" />
    <glyph glyph-name="ntilde" unicode="&#xf1;" horiz-adv-x="1105" 
d="M1060 1514q-6 -68 -34 -127.5t-78 -96t-119 -36.5q-75 0 -132 49q-24 21 -54.5 33.5t-60.5 12.5q-41 0 -72 -26t-45 -80l-150 8q6 68 34.5 128t78.5 97.5t119 37.5q76 0 134 -48q26 -22 57 -34.5t60 -12.5q41 0 73 25.5t47 79.5zM385 773l-135 -773h-237l187 1082l223 1
l-23 -126q65 71 149.5 107.5t168.5 36.5q80 0 144 -32t93 -91q47 -94 47 -213q0 -32 -3 -65l-117 -700h-237l118 703q3 26 3 47q0 74 -35.5 114.5t-117.5 40.5q-126 0 -228 -132z" />
    <glyph glyph-name="ograve" unicode="&#xf2;" horiz-adv-x="1131" 
d="M631 1536l143 -302h-181l-216 302h254zM69 545q16 152 87.5 279.5t188.5 204.5q56 37 125 55.5t141 18.5q77 0 147 -21t119 -61q84 -68 127.5 -173t43.5 -229q0 -33 -3 -66q-16 -167 -90 -297.5t-192 -203t-262 -72.5q-155 0 -258 74.5t-147 205.5q-33 96 -33 202
q0 31 3 62zM303 523q-4 -29 -4 -69q0 -65 15 -122.5t47 -98.5q23 -29 62 -44t85 -15q43 0 83 13t70 39q60 52 97 134.5t47 171.5l2 21q4 31 4 71q0 65 -14.5 123t-46.5 100q-23 29 -62.5 45t-85.5 16q-42 0 -82 -13.5t-70 -39.5q-61 -54 -98 -137t-47 -173z" />
    <glyph glyph-name="oacute" unicode="&#xf3;" horiz-adv-x="1131" 
d="M530 1234l237 302h285l-316 -302h-206zM69 545q16 152 87.5 279.5t188.5 204.5q56 37 125 55.5t141 18.5q77 0 147 -21t119 -61q84 -68 127.5 -173t43.5 -229q0 -33 -3 -66q-16 -167 -90 -297.5t-192 -203t-262 -72.5q-155 0 -258 74.5t-147 205.5q-33 96 -33 202
q0 31 3 62zM303 523q-4 -29 -4 -69q0 -65 15 -122.5t47 -98.5q23 -29 62 -44t85 -15q43 0 83 13t70 39q60 52 97 134.5t47 171.5l2 21q4 31 4 71q0 65 -14.5 123t-46.5 100q-23 29 -62.5 45t-85.5 16q-42 0 -82 -13.5t-70 -39.5q-61 -54 -98 -137t-47 -173z" />
    <glyph glyph-name="ocircumflex" unicode="&#xf4;" horiz-adv-x="1131" 
d="M765 1537l233 -274v-17l-185 3l-117 155l-173 -154l-193 -4v19l298 272h137zM69 545q16 152 87.5 279.5t188.5 204.5q56 37 125 55.5t141 18.5q77 0 147 -21t119 -61q84 -68 127.5 -173t43.5 -229q0 -33 -3 -66q-16 -167 -90 -297.5t-192 -203t-262 -72.5
q-155 0 -258 74.5t-147 205.5q-33 96 -33 202q0 31 3 62zM303 523q-4 -29 -4 -69q0 -65 15 -122.5t47 -98.5q23 -29 62 -44t85 -15q43 0 83 13t70 39q60 52 97 134.5t47 171.5l2 21q4 31 4 71q0 65 -14.5 123t-46.5 100q-23 29 -62.5 45t-85.5 16q-42 0 -82 -13.5t-70 -39.5
q-61 -54 -98 -137t-47 -173z" />
    <glyph glyph-name="otilde" unicode="&#xf5;" horiz-adv-x="1131" 
d="M1050 1514q-6 -68 -34 -127.5t-78 -96t-119 -36.5q-75 0 -132 49q-24 21 -54.5 33.5t-60.5 12.5q-41 0 -72 -26t-45 -80l-150 8q6 68 34.5 128t78.5 97.5t119 37.5q76 0 134 -48q26 -22 57 -34.5t60 -12.5q41 0 73 25.5t47 79.5zM69 545q16 152 87.5 279.5t188.5 204.5
q56 37 125 55.5t141 18.5q77 0 147 -21t119 -61q84 -68 127.5 -173t43.5 -229q0 -33 -3 -66q-16 -167 -90 -297.5t-192 -203t-262 -72.5q-155 0 -258 74.5t-147 205.5q-33 96 -33 202q0 31 3 62zM303 523q-4 -29 -4 -69q0 -65 15 -122.5t47 -98.5q23 -29 62 -44t85 -15
q43 0 83 13t70 39q60 52 97 134.5t47 171.5l2 21q4 31 4 71q0 65 -14.5 123t-46.5 100q-23 29 -62.5 45t-85.5 16q-42 0 -82 -13.5t-70 -39.5q-61 -54 -98 -137t-47 -173z" />
    <glyph glyph-name="odieresis" unicode="&#xf6;" horiz-adv-x="1131" 
d="M370.5 1450.5q35.5 35.5 88.5 35.5q51 0 86.5 -33.5t35.5 -83.5q0 -52 -36.5 -86.5t-88.5 -34.5q-51 0 -86.5 32.5t-35.5 82.5q1 52 36.5 87.5zM813.5 1449q35.5 36 88.5 36q50 0 86 -33t36 -82q0 -53 -36 -88t-89 -35q-51 0 -86 32t-35 81q0 53 35.5 89zM69 545
q16 152 87.5 279.5t188.5 204.5q56 37 125 55.5t141 18.5q77 0 147 -21t119 -61q84 -68 127.5 -173t43.5 -229q0 -33 -3 -66q-16 -167 -90 -297.5t-192 -203t-262 -72.5q-155 0 -258 74.5t-147 205.5q-33 96 -33 202q0 31 3 62zM303 523q-4 -29 -4 -69q0 -65 15 -122.5
t47 -98.5q23 -29 62 -44t85 -15q43 0 83 13t70 39q60 52 97 134.5t47 171.5l2 21q4 31 4 71q0 65 -14.5 123t-46.5 100q-23 29 -62.5 45t-85.5 16q-42 0 -82 -13.5t-70 -39.5q-61 -54 -98 -137t-47 -173z" />
    <glyph glyph-name="divide" unicode="&#xf7;" horiz-adv-x="1135" 
d="M547.5 1191.5q39.5 38.5 99.5 38.5q59 0 98 -36.5t39 -94.5q0 -59 -40 -97.5t-99 -38.5t-98 36t-39 94q0 60 39.5 98.5zM1083 795l-38 -212h-983l38 212h983zM406 374q40 39 100 39q58 0 97 -36t39 -94q1 -59 -38 -97.5t-99 -39.5q-58 -2 -98 34t-41 95q0 60 40 99z" />
    <glyph glyph-name="oslash" unicode="&#xf8;" horiz-adv-x="1126" 
d="M297 11l-100 -149l-154 1l146 211q-67 72 -97.5 166t-30.5 201q0 39 5 87l2 21q19 153 93.5 279.5t192.5 201.5q118 74 265 74q107 0 205 -37l97 145l154 -1l-145 -210q120 -139 120 -359q0 -39 -5 -89l-2 -21q-19 -153 -93 -279t-192 -201q-117 -74 -276 -74
q-93 0 -185 33zM311 275l405 615q-44 21 -97 21q-118 0 -191.5 -81t-105 -199t-31.5 -238q0 -60 20 -118zM804 794l-399 -607q42 -16 88 -16q93 0 158.5 52t104.5 140q35 79 49.5 164t14.5 156q0 53 -16 111z" />
    <glyph glyph-name="ugrave" unicode="&#xf9;" horiz-adv-x="1104" 
d="M636 1536l143 -302h-181l-216 302h254zM660 0l21 107q-59 -63 -138 -95.5t-161 -32.5t-149.5 32.5t-100.5 92.5q-53 97 -53 218q0 30 3 61l117 699h237l-118 -702q-3 -22 -3 -45q0 -156 139 -156q149 0 242 124l136 779h237l-187 -1082h-222z" />
    <glyph glyph-name="uacute" unicode="&#xfa;" horiz-adv-x="1104" 
d="M536 1234l237 302h285l-316 -302h-206zM660 0l21 107q-59 -63 -138 -95.5t-161 -32.5t-149.5 32.5t-100.5 92.5q-53 97 -53 218q0 30 3 61l117 699h237l-118 -702q-3 -22 -3 -45q0 -156 139 -156q149 0 242 124l136 779h237l-187 -1082h-222z" />
    <glyph glyph-name="ucircumflex" unicode="&#xfb;" horiz-adv-x="1104" 
d="M771 1537l233 -274v-17l-185 3l-117 155l-173 -154l-193 -4v19l298 272h137zM660 0l21 107q-59 -63 -138 -95.5t-161 -32.5t-149.5 32.5t-100.5 92.5q-53 97 -53 218q0 30 3 61l117 699h237l-118 -702q-3 -22 -3 -45q0 -156 139 -156q149 0 242 124l136 779h237
l-187 -1082h-222z" />
    <glyph glyph-name="udieresis" unicode="&#xfc;" horiz-adv-x="1104" 
d="M376.5 1450.5q35.5 35.5 88.5 35.5q51 0 86.5 -33.5t35.5 -83.5q0 -52 -36.5 -86.5t-88.5 -34.5q-51 0 -86.5 32.5t-35.5 82.5q1 52 36.5 87.5zM819.5 1449q35.5 36 88.5 36q50 0 86 -33t36 -82q0 -53 -36 -88t-89 -35q-51 0 -86 32t-35 81q0 53 35.5 89zM660 0l21 107
q-59 -63 -138 -95.5t-161 -32.5t-149.5 32.5t-100.5 92.5q-53 97 -53 218q0 30 3 61l117 699h237l-118 -702q-3 -22 -3 -45q0 -156 139 -156q149 0 242 124l136 779h237l-187 -1082h-222z" />
    <glyph glyph-name="yacute" unicode="&#xfd;" horiz-adv-x="967" 
d="M481 1234l237 302h285l-316 -302h-206zM410 -165q-130 -275 -360 -275q-37 0 -125 19l20 188l41 -4q83 -3 138 32.5t96 111.5l59 112l-180 1063h247l93 -733l341 733h262z" />
    <glyph glyph-name="thorn" unicode="&#xfe;" horiz-adv-x="1140" 
d="M285 98l-97 -514h-238l339 1952h237l-106 -553q59 59 133 88.5t150 29.5q70 0 129.5 -23.5t97.5 -65.5q59 -66 86 -160.5t27 -202.5q0 -43 -5 -96l-2 -22q-17 -140 -76 -266.5t-156 -205.5q-100 -80 -244 -80q-177 0 -275 119zM396 782l-85 -484q26 -64 77.5 -94.5
t113.5 -30.5q44 0 85 14.5t69 39.5q59 53 94.5 134t47.5 172q7 72 7 116q0 123 -47 194q-41 62 -140 62q-127 0 -222 -123z" />
    <glyph glyph-name="ydieresis" unicode="&#xff;" horiz-adv-x="967" 
d="M322.5 1450.5q35.5 35.5 88.5 35.5q51 0 86.5 -33.5t35.5 -83.5q0 -52 -36.5 -86.5t-88.5 -34.5q-51 0 -86.5 32.5t-35.5 82.5q1 52 36.5 87.5zM765.5 1449q35.5 36 88.5 36q50 0 86 -33t36 -82q0 -53 -36 -88t-89 -35q-51 0 -86 32t-35 81q0 53 35.5 89zM410 -165
q-130 -275 -360 -275q-37 0 -125 19l20 188l41 -4q83 -3 138 32.5t96 111.5l59 112l-180 1063h247l93 -733l341 733h262z" />
    <glyph glyph-name="dotlessi" unicode="&#x131;" horiz-adv-x="523" 
d="M459 1082l-188 -1082h-237l188 1082h237z" />
    <glyph glyph-name="OE" unicode="&#x152;" horiz-adv-x="1913" 
d="M1714 202l-35 -202h-826l-215 -18l-68 -1q-163 3 -277.5 83.5t-166.5 218.5q-36 95 -36 202q0 45 6 91l48 303q25 171 112.5 307.5t227 214t312.5 77.5l70 -2l210 -20h850l-36 -203h-672l-70 -403h581l-35 -199h-580l-78 -449h678zM332 575q-5 -36 -5 -85q0 -167 83 -251
q34 -35 82 -49.5t116 -14.5q39 0 153 10l21 2l197 1082q-117 17 -193 17q-115 0 -200 -53.5t-136.5 -145t-69.5 -205.5z" />
    <glyph glyph-name="oe" unicode="&#x153;" horiz-adv-x="1795" 
d="M1619 106q-72 -66 -174.5 -96.5t-213.5 -30.5q-110 0 -205 44t-150 130q-86 -91 -185.5 -133t-199.5 -42q-76 0 -144 23t-113 61q-79 67 -120 168t-41 220q0 42 4 77l2 22q19 152 91 278t189 202q114 75 260 75q115 0 215 -45q93 -41 149 -132q83 88 182.5 132t197.5 44
q94 0 172 -39t124 -110q72 -114 72 -259q0 -35 -5 -80l-22 -144h-656q-3 -24 -3 -47q0 -104 50 -174.5t152 -73.5q148 -5 308 91zM1175 834.5q-62 -74.5 -105 -185.5l423 -1l6 29q4 23 4 50q0 80 -42.5 131t-126.5 51q-97 0 -159 -74.5zM310 433q0 -63 12 -112t39 -88
q21 -29 60 -45t85 -16q42 0 82 13.5t70 39.5q60 52 96.5 134t48.5 173q6 59 6 109q0 65 -12 116t-40 90q-21 30 -60 45.5t-86 15.5q-43 0 -83 -13.5t-69 -39.5q-60 -53 -95.5 -136t-47.5 -175q-6 -60 -6 -111z" />
    <glyph glyph-name="circumflex" unicode="&#x2c6;" horiz-adv-x="969" 
d="M694 1537l233 -274v-17l-185 3l-117 155l-173 -154l-193 -4v19l298 272h137z" />
    <glyph glyph-name="ring" unicode="&#x2da;" horiz-adv-x="669" 
d="M281 1471.5q31 49.5 82 78.5t110 29q56 0 103.5 -26.5t75.5 -72.5t28 -102q0 -60 -31 -108.5t-82.5 -76.5t-110.5 -28q-56 0 -103 25.5t-75 70.5t-28 101q0 60 31 109.5zM380 1285.5q25 -26.5 63 -26.5q34 0 64 18.5t48.5 49.5t18.5 65q0 39 -24.5 65.5t-63.5 26.5
q-34 0 -64.5 -19t-48.5 -50t-18 -65q0 -38 25 -64.5z" />
    <glyph glyph-name="tilde" unicode="&#x2dc;" horiz-adv-x="954" 
d="M966 1514q-6 -68 -34 -127.5t-78 -96t-119 -36.5q-75 0 -132 49q-24 21 -54.5 33.5t-60.5 12.5q-41 0 -72 -26t-45 -80l-150 8q6 68 34.5 128t78.5 97.5t119 37.5q76 0 134 -48q26 -22 57 -34.5t60 -12.5q41 0 73 25.5t47 79.5z" />
    <glyph glyph-name="uni0531" unicode="&#x531;" horiz-adv-x="1531" 
d="M1369 -33l-252 255q-81 -118 -212.5 -180t-291.5 -62q-143 0 -254 47t-174 139.5t-63 224.5q0 47 7 92l167 1053h251l-167 -1053q-6 -39 -6 -72q0 -116 65.5 -172.5t185.5 -56.5q139 0 227.5 74.5t111.5 226.5l167 1053h253l-167 -1053l-2 -11l201 -204z" />
    <glyph glyph-name="uni0532" unicode="&#x532;" horiz-adv-x="1366" 
d="M1030 1053q6 41 6 75q0 114 -65 170t-186 56q-137 0 -226 -75t-113 -226l-72 -457h883l-32 -203h-884l-62 -393h-251l62 393l32 203h1l72 457q25 163 108 276t210 170t284 57q140 0 252 -47t176.5 -140.5t64.5 -225.5q0 -47 -7 -90l-27 -167h-253z" />
    <glyph glyph-name="uni0533" unicode="&#x533;" horiz-adv-x="1573" 
d="M1501 484h-303l-77 -484h-252l82 520q-158 -98 -327 -98q-152 0 -267 53.5t-178 154t-63 237.5q0 45 8 99l7 46q26 166 116 289t229 189t307 66q152 0 266 -53.5t177 -154t63 -237.5q0 -43 -8 -99l-3 -21l-48 -304h303zM897 714q94 84 122 233l7 44l3 20q6 39 6 75
q0 124 -71.5 193t-203.5 69q-158 0 -255 -89t-122 -248l-7 -47q-6 -37 -6 -71q0 -122 72 -192.5t205 -70.5q156 0 250 84z" />
    <glyph glyph-name="uni0534" unicode="&#x534;" horiz-adv-x="1557" 
d="M1485 484h-302l-77 -484h-253l167 1053q6 41 6 75q0 114 -65 170t-186 56q-137 0 -226 -75t-113 -226l-63 -397h-251l63 397q25 163 108 276t210 170t284 57q140 0 252 -47t176.5 -140.5t64.5 -225.5q0 -47 -7 -90l-58 -366h302z" />
    <glyph glyph-name="uni0535" unicode="&#x535;" horiz-adv-x="1362" 
d="M380 483q-6 -39 -6 -72q0 -116 65.5 -172.5t185.5 -56.5q139 0 227.5 74.5t111.5 226.5l27 167h253l-27 -167q-25 -162 -110 -275.5t-212.5 -170.5t-281.5 -57q-143 0 -254 47t-174 139.5t-63 224.5q0 47 7 92l167 1053h251l-62 -393h884l-32 -203h-885z" />
    <glyph glyph-name="uni0536" unicode="&#x536;" horiz-adv-x="1418" 
d="M1171.5 605q-139.5 -136 -274.5 -204q170 -1 257 -79t87 -225q0 -41 -8 -95v-2h-251q4 23 4 47q0 71 -39.5 111t-121.5 40h-530l-31 -198h-251l31 198l32 203h1l31 198h251l-31 -198h137q116 37 241 98t245.5 186.5t148.5 309.5q7 51 7 82q0 134 -72.5 205.5t-202.5 71.5
q-157 0 -252.5 -73t-123.5 -252l-16 -103h-251l16 105q83 525 649 525q152 0 265.5 -55.5t175.5 -160.5t62 -250q0 -54 -9 -113q-37 -236 -176.5 -372z" />
    <glyph glyph-name="uni0537" unicode="&#x537;" horiz-adv-x="1281" 
d="M464 940l-117 -737h186q208 0 320 -78t112 -231q0 -34 -6 -73h-252q2 18 2 28q0 70 -62 110.5t-191 40.5h-393l32 203l211 1333h252l-62 -393h792l-32 -203h-792z" />
    <glyph glyph-name="uni0538" unicode="&#x538;" horiz-adv-x="1388" 
d="M1049 1509q112 -47 176.5 -140.5t64.5 -225.5q0 -47 -7 -90l-63 -397h-253l63 397q6 41 6 75q0 114 -65 170t-186 56q-137 0 -226 -75t-113 -226l-135 -850h884l-32 -203h-1135l32 203l135 850q25 163 108 276t210 170t284 57q140 0 252 -47z" />
    <glyph glyph-name="uni0539" unicode="&#x539;" horiz-adv-x="1869" 
d="M1789 683l-198 1v-1l-40 -253q-33 -207 -164 -328.5t-371 -121.5q-137 0 -234.5 45.5t-148.5 128t-51 192.5q0 39 6 79l5 27q21 133 89.5 230t184 150t272.5 53h231l20 128q4 30 4 45q0 89 -55.5 156t-152.5 103.5t-218 36.5q-129 0 -244.5 -42.5t-192 -120t-92.5 -178.5
l-160 -1013h-253l160 1013q26 166 130.5 288.5t274.5 188.5t389 66q198 0 349.5 -56.5t235.5 -162t84 -246.5q0 -37 -6 -78l-20 -128h198zM1214.5 248q65.5 64 83.5 182l40 254l-221 -1q-113 -1 -184 -70t-89 -179q-5 -32 -5 -55q0 -88 50.5 -141.5t148.5 -53.5
q111 0 176.5 64z" />
    <glyph glyph-name="uni053A" unicode="&#x53a;" horiz-adv-x="1544" 
d="M1519 941h-302l-64 -401q-29 -188 -98 -311t-190.5 -186t-305.5 -63q-154 0 -269 55t-177.5 158.5t-62.5 244.5q0 52 9 107l6 33q27 174 113 301.5t222.5 195.5t312.5 68h283l62 393h253l-62 -393h302zM964 941h-273q-94 0 -171.5 -42.5t-130.5 -127.5t-73 -208
q-8 -56 -8 -97q0 -138 70.5 -210t192.5 -72q140 0 219.5 84.5t109.5 271.5z" />
    <glyph glyph-name="uni053B" unicode="&#x53b;" horiz-adv-x="1347" 
d="M1031 1153.5q111 -46.5 174.5 -138.5t63.5 -224q0 -41 -8 -94l-52 -333h-251l52 333q6 41 6 74q0 114 -65.5 170.5t-184.5 56.5q-89 0 -161.5 -42t-120.5 -119t-64 -180l-27 -170h-1l-77 -487h-252l77 487l12 72l154 977h252l-66 -418q138 82 286 82q142 0 253 -46.5z
" />
    <glyph glyph-name="uni053C" unicode="&#x53c;" horiz-adv-x="1044" 
d="M893 125q112 -78 112 -231q0 -34 -6 -73h-252q2 18 2 28q0 70 -62 110.5t-191 40.5h-433l32 203l211 1333h252l-211 -1333h226q208 0 320 -78z" />
    <glyph glyph-name="uni053D" unicode="&#x53d;" horiz-adv-x="1818" 
d="M1779 1143l-105 -660q-25 -162 -103.5 -275.5t-194 -170.5t-254.5 -57q-123 0 -223.5 46.5t-160 139t-59.5 222.5q0 42 8 95l73 457h-296l-149 -940h-252l243 1536h252l-62 -393h548l-105 -660q-8 -54 -8 -92q0 -107 51 -158t152 -51q242 0 288 301l105 660h252z" />
    <glyph glyph-name="uni053E" unicode="&#x53e;" horiz-adv-x="1569" 
d="M1596 1139h-262q88 -127 88 -311q0 -61 -11 -133l-11 -67q-32 -201 -125 -347t-236.5 -223.5t-323.5 -77.5q-158 0 -279 62t-188.5 179.5t-67.5 277.5q0 58 11 129l11 67q22 142 78 258.5t140 200.5q-127 28 -191.5 104t-64.5 197q0 32 7 81h252q-3 -18 -3 -35
q0 -72 55 -115.5t178 -43.5h181q36 2 55 2q20 0 56 -2h684zM1168 817q0 155 -75.5 237t-216.5 82q-108 0 -195.5 -50.5t-145.5 -149.5t-80 -240l-10 -66q-10 -61 -10 -119q0 -157 77 -240t216 -83q169 0 277.5 113.5t142.5 328.5l10 66q10 61 10 121z" />
    <glyph glyph-name="uni053F" unicode="&#x53f;" horiz-adv-x="1381" 
d="M1302 1049l-27 -170l-1 -9l-138 -870h-252l66 415q-137 -79 -286 -79q-142 0 -253 46.5t-174.5 138.5t-63.5 224q0 41 8 94l110 697h251l-110 -697q-6 -40 -6 -74q0 -114 65.5 -170.5t184.5 -56.5q89 0 161.5 42t120.5 119t64 180l27 170h1l5 33h252z" />
    <glyph glyph-name="uni0540" unicode="&#x540;" horiz-adv-x="1266" 
d="M241 1536h517q222 0 330 -81t108 -245q0 -52 -8 -99q-11 -73 -32 -127t-66 -103.5t-124 -90.5q166 -66 166 -244q0 -33 -7 -79l-74 -468h-253l71 448q4 25 4 54q0 191 -248 191h-467l32 203h467q118 0 190 57.5t88 161.5q4 21 4 46q0 83 -54.5 128t-158.5 45h-517z" />
    <glyph glyph-name="uni0541" unicode="&#x541;" horiz-adv-x="1471" 
d="M1164 1487.5q123 -68.5 183.5 -185t60.5 -260.5q0 -57 -9 -114l-5 -29q-22 -138 -84.5 -277.5t-157.5 -260.5l48 -60q30 -38 61.5 -75.5t58.5 -63.5l-195 -187l-57 73l-99 126q-114 -92 -243.5 -143t-266.5 -51q-122 0 -217 33t-149.5 100.5t-54.5 166.5q0 25 5 60
q18 117 89.5 199t180 123t240.5 41q130 0 234.5 -43t194.5 -120q61 84 101.5 172.5t54.5 176.5l4 29q8 53 8 98q0 97 -33.5 173t-101.5 119.5t-168 43.5q-169 0 -273 -75t-125 -206l-7 -43h-255l7 45q21 131 102 240.5t224.5 176t341.5 66.5q179 0 302 -68.5zM296 313
q0 -62 47 -95t128 -33q71 0 159.5 44.5t178.5 121.5q-157 148 -288 148q-90 0 -150.5 -41t-72.5 -118q-2 -18 -2 -27z" />
    <glyph glyph-name="uni0542" unicode="&#x542;" horiz-adv-x="1553" 
d="M1440 203l-32 -203h-555l32 203l135 850q6 41 6 75q0 114 -65 170t-186 56q-137 0 -226 -75t-113 -226l-63 -397h-251l63 397q25 163 108 276t210 170t284 57q140 0 252 -47t176.5 -140.5t64.5 -225.5q0 -47 -7 -90l-135 -850h302z" />
    <glyph glyph-name="uni0543" unicode="&#x543;" horiz-adv-x="1596" 
d="M155 1082h294q126 240 320 357t424 117q115 0 206.5 -12t148 -26t56.5 -16l-52 -209q0 2 -45 18t-123.5 29.5t-185.5 13.5q-150 0 -272 -68t-210 -204h217q164 0 282.5 -61.5t180.5 -171t62 -251.5q0 -52 -9 -106l-78 -492h-1171l23 146l3 17l6 40l59 372q28 178 80 325
h-244zM1152 203l33 210q14 89 14 156q0 111 -39.5 184t-128 110t-236.5 37h-169q-56 -147 -85 -330l-58 -367h669z" />
    <glyph glyph-name="uni0544" unicode="&#x544;" horiz-adv-x="1538" 
d="M1656 1333h-304l-135 -850q-25 -163 -108 -276t-210 -170t-284 -57q-140 0 -252 47t-176.5 140.5t-64.5 225.5q0 47 7 90l167 1053h253l-167 -1053q-6 -39 -6 -74q0 -114 65 -170.5t186 -56.5q138 0 227 75t112 226l167 1053h555z" />
    <glyph glyph-name="uni0545" unicode="&#x545;" horiz-adv-x="1321" 
d="M81 683l32 202h643q127 0 201 64.5t95 173.5q4 26 4 39q0 54 -30.5 97.5t-92 68.5t-150.5 25q-151 0 -235 -57.5t-100 -159.5h-242q19 122 96 217t203.5 149t287.5 54q153 0 267.5 -46t176.5 -130t62 -194q0 -26 -5 -63q-16 -101 -85.5 -192.5t-191.5 -141.5
q104 -39 154 -116t50 -177q0 -38 -5 -67q-23 -143 -105.5 -243.5t-216.5 -153t-308 -52.5q-152 0 -270 40t-186 122.5t-68 203.5q0 34 6 73h243q-4 -30 -4 -44q0 -94 73 -143t220 -49q336 0 373 246q4 25 4 53q0 99 -66 150t-196 51h-634z" />
    <glyph glyph-name="uni0546" unicode="&#x546;" horiz-adv-x="1508" 
d="M1437 880l-63 -397q-25 -163 -108 -276t-210 -170t-284 -57q-140 0 -252 47t-176.5 140.5t-64.5 225.5q0 47 7 90l135 850h-302l32 203h555l-32 -203l-135 -850q-6 -39 -6 -74q0 -114 65 -170.5t186 -56.5q138 0 227 75t112 226l63 397h251z" />
    <glyph glyph-name="uni0547" unicode="&#x547;" horiz-adv-x="1343" 
d="M529.5 913q-161.5 -104 -201.5 -356q-7 -41 -7 -84q0 -136 77.5 -213.5t213.5 -77.5q96 0 175 43t130 117t66 165l4 23h251l-4 -25q-40 -255 -203.5 -390t-430.5 -135q-157 0 -277.5 59.5t-187 169.5t-66.5 257q0 52 9 109q36 221 142 350t210.5 177.5t192.5 66.5
l-297 145l38 242l943 -461l-38 -242l-379 185q-199 -21 -360.5 -125z" />
    <glyph glyph-name="uni0548" unicode="&#x548;" horiz-adv-x="1361" 
d="M1036 1128q0 114 -65 170t-186 56q-137 0 -226 -75t-113 -226l-167 -1053h-251l167 1053q25 163 108 276t210 170t284 57q140 0 252 -47t176.5 -140.5t64.5 -225.5q0 -47 -7 -90l-167 -1053h-253l167 1053q6 41 6 75z" />
    <glyph glyph-name="uni0549" unicode="&#x549;" horiz-adv-x="1340" 
d="M1098 1506.5q119 -49.5 184.5 -147.5t65.5 -240q0 -51 -9 -108q-37 -229 -151.5 -374t-220.5 -206t-194 -92l296 -145l-39 -242l-943 461l39 242l375 -183q203 32 373.5 156.5t214.5 400.5q5 32 5 56q0 77 -35.5 138.5t-103 96t-158.5 34.5q-96 0 -175 -43t-130 -117
t-66 -165l-4 -23h-251l4 25q27 169 111.5 286.5t219.5 178t313 60.5q160 0 279 -49.5z" />
    <glyph glyph-name="uni054A" unicode="&#x54a;" horiz-adv-x="1718" 
d="M1323.5 1500q151.5 -56 234 -161t82.5 -246q0 -31 -7 -80l-160 -1013h-253l160 1013q4 30 4 44q0 110 -82.5 185.5t-217.5 100.5l-141 -890h-253l141 890q-104 -18 -190.5 -63.5t-142.5 -114t-69 -152.5l-40 -255h-253l40 255q26 165 132.5 287.5t277 189t385.5 66.5
q201 0 352.5 -56z" />
    <glyph glyph-name="uni054B" unicode="&#x54b;" horiz-adv-x="1432" 
d="M1233 701q-87 -125 -155.5 -180.5t-162.5 -119.5q165 -4 252.5 -83.5t87.5 -225.5q0 -39 -8 -90v-2h-251q4 23 4 47q0 71 -39.5 111t-121.5 40h-545l-31 -198h-251l92 579h251l-28 -178h126q49 14 82 26h-1q5 1 26.5 16.5t39.5 39.5t18 52q0 79 -162 151
q-69 30 -121.5 66t-89 95t-36.5 143q0 36 5 65q41 256 194 378.5t427 122.5q162 0 279.5 -51.5t180 -151.5t62.5 -242q0 -57 -10 -116q-27 -169 -114 -294zM1105 1095q0 80 -37.5 136.5t-101.5 85.5t-143 29q-147 0 -238 -59t-115 -214q-2 -10 -2 -29q0 -61 38 -107.5
t86 -75t110 -56.5q60 -27 97 -76t37 -114q0 -16 -1 -24q212 169 263 432q7 35 7 72z" />
    <glyph glyph-name="uni054C" unicode="&#x54c;" horiz-adv-x="1567" 
d="M1495 484h-302l-77 -484h-253l167 1053q6 41 6 75q0 114 -65 170t-186 56q-137 0 -226 -75t-113 -226l-167 -1053h-251l167 1053q25 163 108 276t210 170t284 57q140 0 252 -47t176.5 -140.5t64.5 -225.5q0 -47 -7 -90l-58 -366h302z" />
    <glyph glyph-name="uni054D" unicode="&#x54d;" horiz-adv-x="1360" 
d="M1131 1536h253l-167 -1053q-25 -162 -110 -275.5t-212.5 -170.5t-281.5 -57q-143 0 -254 47t-174 139.5t-63 224.5q0 47 7 92l167 1053h251l-167 -1053q-6 -39 -6 -72q0 -116 65.5 -172.5t185.5 -56.5q139 0 227.5 74.5t111.5 226.5z" />
    <glyph glyph-name="uni054E" unicode="&#x54e;" horiz-adv-x="1562" 
d="M1449 203l-32 -203h-555l32 203l34 212q-136 -79 -286 -79q-142 0 -253 46.5t-174.5 138.5t-63.5 224q0 41 8 94l49 304h251l-49 -304q-6 -40 -6 -74q0 -114 65.5 -170.5t184.5 -56.5q89 0 161.5 42t120.5 119t64 180l27 170h1l77 487h252l-77 -487l-11 -72l-123 -774
h303z" />
    <glyph glyph-name="uni054F" unicode="&#x54f;" horiz-adv-x="1232" 
d="M862 440q0 60 -31.5 101t-88 69.5t-152.5 62.5q-198 69 -303 160t-105 233q0 36 5 65q19 124 94.5 220.5t196.5 150.5t272 54q146 0 253.5 -53t165 -145t57.5 -205q0 -40 -5 -69h-252q5 35 5 60q0 99 -59.5 155t-178.5 56q-129 0 -204.5 -60t-91.5 -162q-2 -18 -2 -26
q0 -74 68 -127.5t207 -98.5q141 -46 229.5 -101.5t132 -128t43.5 -169.5q0 -42 -7 -83q-20 -129 -94 -223.5t-194 -145t-276 -50.5q-145 0 -263 44.5t-187.5 134.5t-69.5 222q0 43 7 84h253q-5 -33 -5 -57q0 -112 75.5 -170t200.5 -58q85 0 149.5 28t102.5 77t48 112
q4 30 4 43z" />
    <glyph glyph-name="uni0550" unicode="&#x550;" horiz-adv-x="1316" 
d="M281 0h-253l167 1053q25 162 110 275.5t212.5 170.5t281.5 57q143 0 254 -47t174 -139.5t63 -224.5q0 -47 -7 -92l-63 -397h-251l63 397q6 39 6 74q0 114 -65.5 170.5t-185.5 56.5q-139 0 -227 -74.5t-112 -226.5z" />
    <glyph glyph-name="uni0551" unicode="&#x551;" horiz-adv-x="1338" 
d="M113 885h256q-32 32 -55.5 89.5t-23.5 123.5q0 28 4 51q31 196 161.5 301.5t357.5 105.5q207 0 321 -88.5t114 -254.5q0 -43 -7 -84q-16 -101 -72 -185t-136 -145q103 -39 154 -120t51 -183q0 -39 -5 -67q-23 -143 -105.5 -243.5t-216.5 -153t-308 -52.5q-152 0 -270 40
t-186 122.5t-68 203.5q0 34 6 73h243q-4 -30 -4 -44q0 -94 73 -143t220 -49q164 0 259 63.5t114 182.5q4 24 4 51q0 100 -69 151.5t-200 51.5h-644zM524 1068q0 -183 203 -183q122 0 190 63.5t87 182.5q5 37 5 62q0 89 -50.5 137t-153.5 48q-132 0 -194.5 -62.5
t-81.5 -184.5q-5 -37 -5 -63z" />
    <glyph glyph-name="uni0552" unicode="&#x552;" horiz-adv-x="692" 
d="M659 667h-303l-106 -667h-252l243 1536h252l-105 -666h303z" />
    <glyph glyph-name="uni0553" unicode="&#x553;" horiz-adv-x="1644" 
d="M882 191l-28 -181h-243l28 181h-30q-154 0 -271.5 57.5t-182 164.5t-64.5 251q0 51 9 106q27 175 127 308.5t249.5 206.5t323.5 73h24l30 188h243l-30 -188h28q154 0 270.5 -58.5t181 -166.5t64.5 -253q0 -52 -9 -108q-27 -173 -125.5 -305t-246 -204t-317.5 -72h-31z
M671 393l121 763h-24q-176 0 -287.5 -100t-140.5 -286q-8 -51 -8 -90q0 -139 81.5 -213t233.5 -74h24zM1035 1156l-121 -763h24q174 0 285 98.5t139 280.5q8 53 8 93q0 141 -80.5 216t-230.5 75h-24z" />
    <glyph glyph-name="uni0554" unicode="&#x554;" horiz-adv-x="1589" 
d="M1232.5 1505.5q118.5 -50.5 185 -144.5t66.5 -222q0 -38 -6 -79l-7 -41q-24 -152 -109.5 -264t-220.5 -172t-304 -60q-92 0 -175 27t-151 75l-38 -239h962l-32 -203h-962l-29 -183h-252l29 183h-204l32 203h204l97 610l3 23l7 41q24 152 109 264t220 172t303 60
q154 0 272.5 -50.5zM1231 1117q0 110 -72 170.5t-212 60.5q-151 0 -248.5 -77.5t-118.5 -212.5l-3 -19l-7 -44q-2 -24 -2 -36q0 -107 70.5 -167.5t211.5 -60.5q101 0 179.5 35.5t127.5 100.5t62 151l7 40q5 35 5 59z" />
    <glyph glyph-name="uni0555" unicode="&#x555;" horiz-adv-x="1346" 
d="M1294 729q-37 -232 -133.5 -400.5t-242 -258.5t-325.5 -90q-155 0 -273 69t-183.5 200t-65.5 310q0 77 14 170l13 77q36 230 134.5 399.5t244.5 260t323 90.5q158 0 275.5 -69t181.5 -199.5t64 -309.5q0 -77 -14 -172zM1054 810q15 96 15 175q0 178 -73 270.5t-209 92.5
q-108 0 -196.5 -61.5t-150 -182.5t-89.5 -294l-13 -81q-14 -85 -14 -169q0 -179 73.5 -274.5t208.5 -95.5q169 0 281.5 138.5t153.5 400.5z" />
    <glyph glyph-name="uni0556" unicode="&#x556;" horiz-adv-x="1557" 
d="M1278.5 928q114.5 -47 173.5 -135t59 -210q0 -46 -7 -88l-5 -35q-36 -228 -240 -354t-581 -126q-673 0 -673 426q0 44 8 100h252l-1 -8q-4 -25 -4 -54q0 -80 39.5 -139t106.5 -90t148 -31h30l93 588h-40q-210 0 -325.5 77.5t-115.5 232.5q0 35 6 72q29 191 175.5 286.5
t380.5 95.5h291l-32 -203l-57 -358h40q164 0 278.5 -47zM709 975l57 358h-40q-131 0 -194 -42.5t-78 -136.5q-4 -21 -4 -44q0 -70 52 -102.5t167 -32.5h40zM1255 534q0 70 -37.5 124.5t-103 84t-146.5 29.5h-40l-93 -588h30q91 0 173.5 31.5t138.5 94.5t70 153l5 30
q3 21 3 41z" />
    <glyph glyph-name="uni0559" unicode="&#x559;" horiz-adv-x="418" 
d="M362 1615q-4 -28 -4 -63q0 -110 53 -215l-136 -77q-59 58 -93.5 143t-34.5 170q0 33 4 57l23 142h213z" />
    <glyph glyph-name="uni055A" unicode="&#x55a;" horiz-adv-x="418" 
d="M492 1772l-23 -142q-15 -94 -82 -198t-158 -172l-112 77q112 137 137 278l25 157h213z" />
    <glyph glyph-name="uni055B" unicode="&#x55b;" horiz-adv-x="262" 
d="M184 1772l-391 -497h-197l311 497h277z" />
    <glyph glyph-name="uni055C" unicode="&#x55c;" horiz-adv-x="287" 
d="M-396 1311q7 48 36 109t76.5 113t108.5 71q79 25 111 68.5t43 113.5l1 9h230l-4 -25q-12 -77 -28.5 -130.5t-56 -99.5t-110.5 -67q-86 -25 -135.5 -86t-59.5 -124l-1 -9h-220z" />
    <glyph glyph-name="uni055D" unicode="&#x55d;" horiz-adv-x="309" 
d="M354 1275h-197l-233 497h277z" />
    <glyph glyph-name="uni055E" unicode="&#x55e;" horiz-adv-x="532" 
d="M210 1616q1 5 1 16q0 44 -34 74t-99 30q-86 0 -146 -64t-77 -174l-38 -243h-210l40 256q23 140 90.5 232t163.5 135t206 43q89 0 161 -29.5t114 -87t42 -138.5q0 -27 -4 -50q-15 -95 -68.5 -167t-141.5 -112t-201 -40l33 204q150 0 168 115z" />
    <glyph glyph-name="uni055F" unicode="&#x55f;" horiz-adv-x="845" 
d="M227.5 1382.5q-85.5 72.5 -85.5 183.5q0 25 5 55q13 82 59.5 152t130 113t199.5 43h88l-26 -170h-31q-109 0 -160 -42.5t-51 -116.5q0 -120 187 -120h339l-27 -170h-339q-203 0 -288.5 72.5z" />
    <glyph glyph-name="uni0561" unicode="&#x561;" horiz-adv-x="1802" 
d="M1367 298l124 784h242l-171 -1082h-228l11 113q-69 -68 -147.5 -100.5t-176.5 -32.5q-108 0 -180.5 41.5t-99.5 123.5q-73 -83 -158 -124t-191 -41q-149 0 -230.5 71t-81.5 221q0 47 9 104l111 706h243l-111 -702q-5 -37 -5 -60q0 -79 42.5 -110.5t125.5 -31.5
q81 0 141 43.5t93 118.5l117 742h243l-111 -700q-5 -35 -5 -57q0 -78 42.5 -112.5t124.5 -34.5q146 0 227 120z" />
    <glyph glyph-name="uni0562" unicode="&#x562;" horiz-adv-x="1215" 
d="M813 702q5 28 5 60q0 76 -41 109t-123 33q-144 0 -239 -132l-91 -577h715l-31 -195h-715l-66 -416h-243l237 1498h229l-11 -124q71 73 150 108.5t175 35.5q143 0 222.5 -70t79.5 -222q0 -48 -9 -105l-46 -285h-243z" />
    <glyph glyph-name="uni0563" unicode="&#x563;" horiz-adv-x="1305" 
d="M1150 0h-236l-66 -416h-243l81 509q-125 -113 -294 -113q-112 0 -191.5 52.5t-120 146.5t-40.5 218q0 62 11 134l3 20q26 165 96 289.5t178 193t243 68.5q181 0 268 -126l29 106h217l-140 -887h236zM718 299l78 490q-52 118 -194 118q-124 0 -202.5 -100t-103.5 -256
l-3 -21q-9 -54 -9 -104q0 -115 49 -183t151 -68q146 0 234 124z" />
    <glyph glyph-name="uni0564" unicode="&#x564;" horiz-adv-x="1324" 
d="M1169 0h-235l-66 -416h-243l177 1118q5 28 5 60q0 76 -41 109t-123 33q-144 0 -239 -132l-122 -772h-243l171 1082h229l-11 -124q71 73 150 108.5t175 35.5q143 0 222.5 -70t79.5 -222q0 -48 -9 -105l-81 -510h235z" />
    <glyph glyph-name="uni0565" unicode="&#x565;" horiz-adv-x="1217" 
d="M356 381q-5 -35 -5 -56q0 -78 39.5 -112t105.5 -34q174 0 258 125l57 358h243l-105 -662h-229l11 106q-65 -64 -140.5 -95t-173.5 -31q-145 0 -228.5 73.5t-83.5 225.5q0 52 8 100l80 508l31 195l72 454h243l-72 -454h715l-31 -195h-715z" />
    <glyph glyph-name="uni0566" unicode="&#x566;" horiz-adv-x="1222" 
d="M1115 -221l-31 -195h-479l81 509q-125 -113 -294 -113q-112 0 -191.5 52.5t-120 146.5t-40.5 218q0 62 11 134l3 20q26 165 96 289.5t178 193t243 68.5q181 0 268 -126l29 106h217l-206 -1303h236zM718 299l78 490q-52 118 -194 118q-124 0 -202.5 -100t-103.5 -256
l-3 -21q-9 -54 -9 -104q0 -115 49 -183t151 -68q146 0 234 124z" />
    <glyph glyph-name="uni0567" unicode="&#x567;" horiz-adv-x="1089" 
d="M446 887l-109 -692h118q141 0 221.5 -56.5t80.5 -175.5q0 -34 -5 -63q-46 -292 -444 -292l31 195q88 0 125.5 27t44.5 72q2 14 2 20q0 36 -31.5 57t-109.5 21h-307l140 887l31 195l72 454h243l-72 -454h625l-31 -195h-625z" />
    <glyph glyph-name="uni0568" unicode="&#x568;" horiz-adv-x="1185" 
d="M813 702q5 28 5 60q0 76 -41 109t-123 33q-144 0 -239 -132l-157 -993h715l-31 -195h-958l237 1498h229l-11 -124q71 73 150 108.5t175 35.5q143 0 222.5 -70t79.5 -222q0 -48 -9 -105l-112 -705h-243z" />
    <glyph glyph-name="uni0569" unicode="&#x569;" horiz-adv-x="1596" 
d="M1499 516h-170l-27 -168q-28 -175 -141.5 -271.5t-292.5 -96.5q-119 0 -201 38t-123 104.5t-41 150.5q0 26 5 59l3 24q26 164 140.5 259.5t312.5 95.5h151q2 91 -82.5 142t-244.5 51q-121 0 -224.5 -34.5t-148.5 -97.5l-188 -1188h-243l237 1498h229l-11 -124
q67 69 194 106.5t261 37.5q126 0 232.5 -41.5t170.5 -122t64 -190.5q0 -11 -2 -37h171zM1086 516h-143q-79 0 -129 -48t-63 -130q-2 -18 -2 -26q0 -60 39.5 -97t102.5 -37q61 0 108 42.5t59 121.5z" />
    <glyph glyph-name="uni056A" unicode="&#x56a;" horiz-adv-x="1335" 
d="M1317 887h-234l-56 -353l-1 -4q-31 -197 -100 -317.5t-179 -176.5t-271 -56q-135 0 -231 54.5t-145 153t-49 227.5q0 55 9 115l3 21q25 156 106.5 276.5t206 187.5t274.5 67h220l72 454h243l-72 -454h235zM840 887h-211q-83 0 -151.5 -43.5t-113 -120t-59.5 -172.5
l-3 -21q-9 -55 -9 -107q0 -114 49.5 -181t154.5 -67q90 0 145.5 35.5t87.5 111.5t53 208l2 11z" />
    <glyph glyph-name="uni056B" unicode="&#x56b;" horiz-adv-x="1209" 
d="M438 773l-188 -1189h-242l309 1952h242l-91 -573q72 71 147.5 105t165.5 34q145 0 226.5 -70.5t81.5 -223.5q0 -49 -9 -106l-111 -702h-243l111 699q5 28 5 60q0 77 -41 111t-123 34q-147 0 -240 -131z" />
    <glyph glyph-name="uni056C" unicode="&#x56c;" horiz-adv-x="600" 
d="M493 -221l-31 -195h-478l237 1498h243l-206 -1303h235z" />
    <glyph glyph-name="uni056D" unicode="&#x56d;" horiz-adv-x="1788" 
d="M1719 1082l-171 -1082h-229l11 106q-65 -64 -140.5 -95t-173.5 -31q-145 0 -229 73t-84 225q0 47 9 101l80 508h-335l-206 -1303h-243l206 1303l31 195l72 454h243l-72 -454h578l-111 -701q-5 -35 -5 -56q0 -78 39.5 -112t105.5 -34q174 0 258 125l123 778h243z" />
    <glyph glyph-name="uni056E" unicode="&#x56e;" horiz-adv-x="1247" 
d="M63 551q21 135 85.5 244t164 180.5t224.5 95.5q-45 55 -69 108.5t-24 114.5q0 26 4 47q11 67 24 123.5t17 71.5h243q-2 -6 -8 -27.5t-15 -62t-17 -86.5q-3 -16 -3 -33q0 -47 22 -87.5t52 -71t93 -86.5h404l-31 -195h-207q55 -105 55 -235q0 -51 -9 -111l-2 -11
q-25 -161 -98 -285t-190 -194.5t-271 -70.5q-138 0 -241.5 57t-158.5 158.5t-55 232.5q0 55 8 102zM295 440q0 -120 56 -192.5t167 -72.5q127 0 203.5 98.5t101.5 256.5l1 7q5 28 5 64q0 81 -32.5 149.5t-90.5 136.5h-78q-133 0 -216 -92.5t-107 -243.5l-3 -21
q-7 -43 -7 -90z" />
    <glyph glyph-name="uni056F" unicode="&#x56f;" horiz-adv-x="1211" 
d="M640 -416l83 522q-58 -64 -133 -95t-173 -31q-145 0 -228.5 73.5t-83.5 225.5q0 52 8 100l183 1157h243l-183 -1155q-5 -35 -5 -56q0 -78 39.5 -112t105.5 -34q174 0 258 125l123 778h243l-237 -1498h-243z" />
    <glyph glyph-name="uni0570" unicode="&#x570;" horiz-adv-x="1198" 
d="M427 773l-122 -773h-242l243 1536h242l-91 -573q72 71 147.5 105t165.5 34q145 0 226.5 -70.5t81.5 -223.5q0 -49 -9 -106l-111 -702h-243l111 699q5 28 5 60q0 77 -41 111t-123 34q-147 0 -240 -131z" />
    <glyph glyph-name="uni0571" unicode="&#x571;" horiz-adv-x="1163" 
d="M1010 1369.5q36 -27.5 36 -76.5q0 -6 -2 -20l-2 -9q-11 -70 -53.5 -112.5t-98.5 -75.5l-89 -54q107 -58 167 -166.5t60 -241.5q0 -49 -7 -92l-83 -522h-226l1 116q-65 -66 -140 -100.5t-188 -34.5q-99 0 -177 48.5t-122 137t-44 205.5q0 45 8 101l4 24q20 124 83 224
t169 189t274 192l172 100h-204q-126 0 -199 58.5t-73 160.5q0 25 4 48l10 64h242q-3 -16 -3 -32q0 -49 29 -77t88 -28l262 1q66 0 102 -27.5zM778 565q0 112 -47.5 199t-127.5 128q-112 -80 -172 -143.5t-86 -120.5t-41 -135l-2 -14q-7 -43 -7 -88q0 -100 44.5 -157
t129.5 -57q95 0 160 39.5t116 102.5l26 163q7 49 7 83z" />
    <glyph glyph-name="uni0572" unicode="&#x572;" horiz-adv-x="1241" 
d="M1134 -221l-31 -195h-478l177 1118q5 28 5 60q0 76 -41 109t-123 33q-144 0 -239 -132l-122 -772h-243l171 1082h229l-11 -124q71 73 150 108.5t175 35.5q143 0 222.5 -70t79.5 -222q0 -48 -9 -105l-147 -926h235z" />
    <glyph glyph-name="uni0573" unicode="&#x573;" horiz-adv-x="1263" 
d="M784.5 1286.5q-120.5 -71.5 -204.5 -204.5h156q132 0 224.5 -47t140.5 -134.5t48 -208.5q0 -51 -9 -110l-92 -582h-236l10 113q-38 -41 -77.5 -69t-101.5 -46t-152 -18q-100 0 -184 38.5t-135 118t-51 194.5q0 40 8 91q42 267 121 481h-153l28 179h205q121 231 298.5 352
t407.5 123q155 2 241 -30l-45 -190q-53 21 -161 21q-166 0 -286.5 -71.5zM491 903q-73 -192 -119 -483q-4 -24 -4 -52q0 -92 55.5 -141t156.5 -49q92 0 161.5 36.5t116.5 126.5l33 211q8 51 8 89q0 133 -78 197.5t-226 64.5h-104z" />
    <glyph glyph-name="uni0574" unicode="&#x574;" horiz-adv-x="1232" 
d="M1372 1341h-235l-212 -1341h-229l11 106q-65 -64 -140.5 -95t-173.5 -31q-145 0 -228.5 73.5t-83.5 225.5q0 52 8 100l111 703h243l-111 -701q-5 -35 -5 -56q0 -78 39.5 -112t105.5 -34q174 0 258 125l164 1037l31 195h478z" />
    <glyph glyph-name="uni0575" unicode="&#x575;" horiz-adv-x="537" 
d="M234 1082h243l-186 -1178q-54 -341 -378 -341q-66 0 -128 17l31 191q48 -8 86 -8q124 0 146 141z" />
    <glyph glyph-name="uni0576" unicode="&#x576;" horiz-adv-x="1190" 
d="M1121 1082l-171 -1082h-229l11 106q-65 -64 -140.5 -95t-173.5 -31q-145 0 -228.5 73.5t-83.5 225.5q0 52 8 100l152 962h-236l31 195h479l-183 -1155q-5 -35 -5 -56q0 -78 39.5 -112t105.5 -34q174 0 258 125l123 778h243z" />
    <glyph glyph-name="uni0577" unicode="&#x577;" horiz-adv-x="1179" 
d="M199 -115q0 -48 42 -77t126 -29h560l-31 -195h-573q-145 0 -256.5 57.5t-111.5 202.5q0 23 5 58q18 113 75.5 188.5t129.5 120t187 96.5l58 27l50 23q100 46 170 85t126.5 97t68.5 131q4 21 4 49q0 82 -46 135t-146 53q-77 0 -132 -33.5t-86.5 -87.5t-41.5 -116l-6 -37
h-243l9 57q17 106 83 200t178 153t259 59q135 0 229.5 -49t142 -130t47.5 -175q0 -26 -5 -58q-22 -140 -97 -236t-165.5 -152t-227.5 -120l-65 -30q-21 -11 -53 -24q-75 -34 -124.5 -61.5t-89.5 -68.5t-48 -94q-2 -14 -2 -19z" />
    <glyph glyph-name="uni0578" unicode="&#x578;" horiz-adv-x="1174" 
d="M404 772l-122 -772h-243l171 1082h229l-11 -124q71 73 150 108.5t175 35.5q143 0 222.5 -70t79.5 -222q0 -48 -9 -105l-112 -705h-243l111 702q5 28 5 60q0 76 -41 109t-123 33q-144 0 -239 -132z" />
    <glyph glyph-name="uni0579" unicode="&#x579;" horiz-adv-x="876" 
d="M41 42.5q51 74.5 120.5 140t190.5 166.5l97 83q20 17 20 38q0 13 -9 25q-42 40 -62 58q-59 55 -92 90.5t-55 78.5t-22 91q0 68 44 138.5t112 130.5h242q-68 -61 -108.5 -116.5t-40.5 -103.5q0 -39 23.5 -68t78.5 -75q57 -46 92 -83q47 -50 47 -116q0 -53 -29 -109
t-81 -103q6 5 -62 -56q-119 -107 -178.5 -164t-96.5 -103.5t-42 -81.5q-2 -16 -2 -23q0 -51 38 -76t91 -25h407l-31 -195h-443q-132 0 -225 56.5t-93 188.5q0 25 5 60q13 79 64 153.5z" />
    <glyph glyph-name="uni057A" unicode="&#x57a;" horiz-adv-x="1824" 
d="M1367 298l124 784h242l-237 -1498h-242l84 529q-63 -67 -141 -100t-176 -33q-108 0 -180.5 41.5t-99.5 123.5q-73 -83 -158 -124t-191 -41q-149 0 -230.5 71t-81.5 221q0 47 9 104l111 706h243l-111 -702q-5 -37 -5 -60q0 -79 42.5 -110.5t125.5 -31.5q81 0 141 43.5
t93 118.5l117 742h243l-111 -700q-5 -35 -5 -57q0 -78 42.5 -112.5t124.5 -34.5q146 0 227 120z" />
    <glyph glyph-name="uni057B" unicode="&#x57b;" horiz-adv-x="1164" 
d="M58 31.5q62 68.5 167 136.5q65 43 65 75q0 16 -12.5 31.5t-39.5 40.5q-37 35 -62.5 66t-44.5 79.5t-19 112.5q0 33 6 72q20 124 88.5 227.5t185.5 166.5t274 63q140 0 236.5 -51t144 -137t47.5 -192q0 -38 -6 -77q-24 -154 -100.5 -256.5t-176 -163t-239.5 -117.5
l-31 -12q-85 -34 -146.5 -63.5t-112 -68.5t-56.5 -80q-2 -12 -2 -18q0 -43 39.5 -65.5t108.5 -22.5h590l-31 -194h-643q-130 0 -220 55.5t-90 183.5q0 24 5 59q13 81 75 149.5zM357 607q0 -39 13 -68.5t31 -50.5t48 -48q36 -34 53 -57.5t17 -56.5q0 -5 -2 -19l-1 -3
q91 41 154.5 81.5t112.5 104.5t63 155q5 33 5 59q0 93 -52 148t-153 55q-119 0 -193 -72.5t-93 -189.5q-3 -21 -3 -38z" />
    <glyph glyph-name="uni057C" unicode="&#x57c;" horiz-adv-x="1144" 
d="M964 456q-60 -113 -124.5 -190t-64.5 -71h245l-31 -195h-488l31 195q0 -7 64.5 70t124.5 189.5t81 247.5q5 28 5 60q0 76 -41 109t-123 33q-144 0 -239 -132l-122 -772h-243l171 1082h229l-11 -124q71 73 150 108.5t175 35.5q143 0 222.5 -70t79.5 -222q0 -48 -9 -105
q-22 -136 -82 -249z" />
    <glyph glyph-name="uni057D" unicode="&#x57d;" horiz-adv-x="1165" 
d="M696 0l11 106q-65 -64 -140.5 -95t-173.5 -31q-145 0 -229 73t-84 225q0 47 9 101l111 703h243l-111 -701q-5 -35 -5 -56q0 -78 39.5 -112t105.5 -34q174 0 258 125l123 778h243l-171 -1082h-229z" />
    <glyph glyph-name="uni057E" unicode="&#x57e;" horiz-adv-x="1231" 
d="M890 -221h234l-31 -195h-478l31 195h1l52 327q-58 -64 -133 -95t-173 -31q-145 0 -229 73t-84 225q0 47 9 101l111 703h243l-111 -701q-5 -35 -5 -56q0 -78 39.5 -112t105.5 -34q174 0 258 125l195 1232h243z" />
    <glyph glyph-name="uni057F" unicode="&#x57f;" horiz-adv-x="1802" 
d="M1601 1031q82 -71 82 -222q0 -47 -9 -103l-112 -706h-243l111 702q5 33 5 56q0 77 -43 111.5t-125 34.5q-145 0 -226 -118l-124 -786h-242l17 105q-132 -125 -300 -125q-149 0 -230.5 71t-81.5 221q0 47 9 104l111 706h243l-111 -702q-5 -33 -5 -56q0 -77 43 -111.5
t125 -34.5q146 0 227 120v-2l124 786h242l-16 -104q133 124 298 124q149 0 231 -71z" />
    <glyph glyph-name="uni0580" unicode="&#x580;" horiz-adv-x="1185" 
d="M415 772l-188 -1188h-243l237 1498h229l-11 -124q71 73 150 108.5t175 35.5q143 0 222.5 -70t79.5 -222q0 -48 -9 -105l-112 -705h-243l111 702q5 28 5 60q0 76 -41 109t-123 33q-144 0 -239 -132z" />
    <glyph glyph-name="uni0581" unicode="&#x581;" horiz-adv-x="1160" 
d="M223.5 -407.5q-73.5 18.5 -138 59t-99.5 101.5l138 145q93 -133 255 -133q122 0 202.5 67.5t100.5 192.5l11 73q-124 -118 -298 -118q-112 0 -192.5 53t-122.5 147.5t-42 218.5q0 62 10 122l5 29q26 164 98.5 289t181.5 194t241 69q187 0 271 -127l27 107h220l-166 -1052
q-23 -143 -101 -246t-197.5 -156.5t-265.5 -53.5q-65 0 -138.5 18.5zM293 529q-9 -52 -9 -100q0 -115 50.5 -182.5t153.5 -67.5q150 0 239 128l74 473q-46 124 -196 124q-126 0 -205 -99t-104 -255z" />
    <glyph glyph-name="uni0582" unicode="&#x582;" horiz-adv-x="627" 
d="M503 195l-31 -195h-478l171 1082h243l-140 -887h235z" />
    <glyph glyph-name="uni0583" unicode="&#x583;" horiz-adv-x="1802" 
d="M1601 1031q82 -71 82 -222q0 -47 -9 -103l-112 -706h-243l111 702q5 33 5 56q0 77 -43 111.5t-125 34.5q-145 0 -226 -118l-190 -1202h-242l82 521q-131 -125 -299 -125q-149 0 -230.5 71t-81.5 221q0 47 9 104l111 706h243l-111 -702q-5 -33 -5 -56q0 -77 43 -111.5
t125 -34.5q146 0 227 120v-1l196 1239h242l-88 -558q133 124 298 124q149 0 231 -71z" />
    <glyph glyph-name="uni0584" unicode="&#x584;" horiz-adv-x="1260" 
d="M1047.5 1005.5q92.5 -96.5 92.5 -273.5q0 -61 -10 -122l-4 -20q-21 -133 -89 -240t-173.5 -168.5t-232.5 -61.5q-177 0 -267 117l-37 -237h716l-31 -195h-716l-35 -221h-242l35 221h-140l31 195h140l171 1082h223l-7 -109q131 129 312 129q171 0 263.5 -96.5zM894 690
q0 103 -52.5 158.5t-156.5 55.5q-151 0 -235 -125l-53 -337q48 -127 197 -127q78 0 140 38t100 101t50 137l3 20q7 49 7 79z" />
    <glyph glyph-name="uni0585" unicode="&#x585;" 
d="M43 551q25 158 103 283t200.5 196.5t275.5 71.5q137 0 235 -56t149.5 -155.5t51.5 -228.5q0 -50 -7 -98l-5 -34q-25 -159 -102.5 -283.5t-200 -195.5t-276.5 -71q-137 0 -235 55.5t-149.5 155t-51.5 229.5q0 53 9 110zM282 530q-8 -54 -8 -98q0 -117 53 -187t161 -70
q86 0 151.5 47t106.5 127t57 181l3 21q8 53 8 96q0 117 -52.5 188.5t-159.5 71.5q-87 0 -153 -48t-107 -128.5t-57 -179.5z" />
    <glyph glyph-name="uni0586" unicode="&#x586;" horiz-adv-x="1545" 
d="M1346 861.5q133 -102.5 133 -284.5q0 -40 -8 -91l-5 -28q-32 -209 -194 -332t-480 -142l-63 -400h-243l63 400q-279 20 -411.5 129t-132.5 295q0 44 8 98h242l-1 -8q-4 -24 -4 -54q0 -77 37 -137t111.5 -94t181.5 -34l96 606q-232 0 -346.5 77.5t-114.5 225.5q0 34 6 71
q58 372 574 376v1h243l-91 -572h1q265 0 398 -102.5zM459 1118q0 -77 59 -115.5t186 -38.5l63 392q-144 -1 -217 -50.5t-88 -147.5q-3 -21 -3 -40zM1234 541q0 72 -35 127t-106 86t-174 31l-96 -606q115 0 201.5 38t137.5 104t65 151l3 19q4 23 4 50z" />
    <glyph glyph-name="uni0587" unicode="&#x587;" horiz-adv-x="1355" 
d="M1231 195l-31 -195h-480l11 106q-127 -126 -324 -126q-143 0 -223 71.5t-80 222.5q0 48 9 105l183 1157h243l-183 -1155q-5 -35 -5 -56q0 -78 39.5 -112t105.5 -34q174 0 258 125l123 778h243l-140 -887h251z" />
    <glyph glyph-name="uni0589" unicode="&#x589;" horiz-adv-x="549" 
d="M210.5 1026.5q20.5 36.5 58 58t85.5 21.5q58 0 90.5 -31t32.5 -80q0 -44 -21 -80t-58.5 -57t-85.5 -21q-58 0 -90 30.5t-32 79.5q0 43 20.5 79.5zM76 177.5q21 36.5 58.5 58t85.5 21.5q58 0 90 -31t32 -80q0 -44 -21 -80t-58.5 -57t-85.5 -21q-58 0 -90 30.5t-32 79.5
q0 43 21 79.5z" />
    <glyph glyph-name="uni058A" unicode="&#x58a;" horiz-adv-x="868" 
d="M592 524q-119 -26 -244 -26q-226 0 -365 92l64 207q7 -2 15.5 -7t13.5 -8q72 -39 170 -60t204 -21q95 0 185.5 16.5t167.5 50.5l-30 -186q-62 -32 -181 -58z" />
    <glyph glyph-name="uni058F" unicode="&#x58f;" horiz-adv-x="1568" 
d="M1207 634l-25 -157h302l-33 -203h-302l-43 -274h-253l43 274h-302l33 203h302l25 157h-303l33 203h302l34 216q6 41 6 75q0 114 -65 170t-186 56q-137 0 -226 -75t-113 -226l-63 -397h-251l63 397q25 162 112.5 275.5t219.5 170.5t290 57q138 0 245 -46t168 -138t61 -223
q0 -42 -8 -96l-34 -216h302l-33 -203h-301z" />
    <glyph glyph-name="endash" unicode="&#x2013;" horiz-adv-x="1291" 
d="M1187 818l-42 -196h-989l42 196h989z" />
    <glyph glyph-name="emdash" unicode="&#x2014;" horiz-adv-x="1546" 
d="M1506 818l-56 -196h-1319l56 196h1319z" />
    <glyph glyph-name="quoteleft" unicode="&#x2018;" horiz-adv-x="435" 
d="M175 1057l21 135q17 108 78 204t152 167l119 -79q-109 -148 -135 -273l-27 -154h-208z" />
    <glyph glyph-name="quoteright" unicode="&#x2019;" horiz-adv-x="431" 
d="M510 1536l-23 -141q-17 -108 -78 -204t-152 -167l-119 79q107 146 134 269l30 164h208z" />
    <glyph glyph-name="quotesinglbase" unicode="&#x201a;" horiz-adv-x="448" 
d="M278 203l-21 -125q-38 -227 -227 -377l-123 81q102 136 129 266l28 155h214z" />
    <glyph glyph-name="quotedblleft" unicode="&#x201c;" horiz-adv-x="774" 
d="M184 1057l21 135q17 108 78 204t152 167l119 -79q-109 -148 -135 -273l-27 -154h-208zM510 1057l21 135q17 108 78 204t152 167l119 -79q-110 -149 -135 -273l-27 -154h-208z" />
    <glyph glyph-name="quotedblright" unicode="&#x201d;" horiz-adv-x="782" 
d="M523 1536l-23 -141q-17 -108 -78 -204t-152 -167l-119 79q107 146 134 269l30 164h208zM847 1536l-23 -141q-17 -108 -78 -204t-152 -167l-119 79q107 146 134 269l30 164h208z" />
    <glyph glyph-name="quotedblbase" unicode="&#x201e;" horiz-adv-x="753" 
d="M287 255l-30 -181q-37 -235 -227 -393l-126 81q111 154 138 308l32 185h213zM604 255l-30 -177q-41 -242 -230 -397l-126 80q109 157 138 293l35 201h213z" />
    <glyph glyph-name="bullet" unicode="&#x2022;" horiz-adv-x="695" 
d="M159 764q4 64 32.5 115t78.5 80t114 29q63 0 109.5 -27.5t71.5 -76t25 -110.5l-2 -41q-3 -63 -32 -112t-79 -76.5t-114 -27.5q-61 0 -107.5 26t-72 73t-25.5 108z" />
    <glyph glyph-name="ellipsis" unicode="&#x2026;" horiz-adv-x="1413" 
d="M92.5 218.5q40.5 39.5 102.5 39.5q56 0 94 -37.5t38 -94.5q1 -59 -38.5 -98.5t-98.5 -40.5q-59 -2 -98.5 35t-39.5 96q0 61 40.5 100.5zM535.5 218.5q40.5 39.5 102.5 39.5q56 0 94 -37.5t38 -94.5q1 -59 -38.5 -98.5t-98.5 -40.5q-59 -2 -98.5 35t-39.5 96
q0 61 40.5 100.5zM963.5 218.5q40.5 39.5 102.5 39.5q56 0 94 -37.5t38 -94.5q1 -59 -38.5 -98.5t-98.5 -40.5q-59 -2 -98.5 35t-39.5 96q0 61 40.5 100.5z" />
    <glyph glyph-name="guilsinglleft" unicode="&#x2039;" horiz-adv-x="608" 
d="M315 138l-223 388l1 21l340 391h181l-320 -412l165 -387z" />
    <glyph glyph-name="guilsinglright" unicode="&#x203a;" horiz-adv-x="598" 
d="M292 938l223 -388l-1 -21l-340 -391h-180l320 412l-166 387z" />
    <glyph glyph-name="fraction" unicode="&#x2044;" horiz-adv-x="896" 
d="M969 1238l-880 -1127l-120 80l879 1127z" />
    <glyph glyph-name="uni2074" unicode="&#x2074;" horiz-adv-x="745" 
d="M113 963l433 493h192l-82 -474h93l-27 -151h-92l-29 -164h-183l30 164h-347zM303 982h170l51 245l-18 -25z" />
    <glyph glyph-name="Euro" unicode="&#x20ac;" 
d="M945 8q-128 -29 -226 -29q-245 0 -374 162q-98 122 -98 296q0 44 6 92l-176 -1l25 140h166l23 129h-167l24 140h160q62 250 220.5 395t406.5 145q102 0 247 -32l-50 -205q-104 37 -200 37q-155 0 -244 -96q-93 -99 -133 -244h353l-25 -140h-345l-23 -129h346l-25 -140
h-339q-5 -42 -5 -74q0 -122 60 -196t189 -74q93 0 196 31z" />
    <glyph glyph-name="minus" unicode="&#x2212;" horiz-adv-x="1120" 
d="M1016 818l-35 -196h-824l35 196h824z" />
    </font>
</defs>
</svg>
