<?xml version="1.0" standalone="no"?>
<!DOCTYPE svg PUBLIC "-//W3C//DTD SVG 1.1//EN" "http://www.w3.org/Graphics/SVG/1.1/DTD/svg11.dtd" >
<svg xmlns="http://www.w3.org/2000/svg" xmlns:xlink="http://www.w3.org/1999/xlink" version="1.1">
<metadata>
Created by FontForge 20170731 at Thu Jul 27 19:06:40 2017
 By Aleksey,,,
Copyright 2017 The Mardoto Project Authors (https://github.com/vahanhovh/mardoto)
</metadata>
<defs>
<font id="Mardoto-BlackItalic" horiz-adv-x="1151" >
  <font-face 
    font-family="Mardoto Black"
    font-weight="900"
    font-style="italic"
    font-stretch="normal"
    units-per-em="2048"
    panose-1="0 0 10 0 0 0 0 0 0 0"
    ascent="1536"
    descent="-512"
    x-height="1082"
    cap-height="1456"
    bbox="-471 -555 3295 2146"
    underline-thickness="100"
    underline-position="-300"
    slope="-12"
    unicode-range="U+000D-2212"
  />
<missing-glyph horiz-adv-x="1351" 
d="M1107 -555h-856v2701h856v-2701zM454 1965v-89h175v-100h-178v-89h448v89h-178v100h178v89h-445zM451 1617v-281h448v92h-178v189h-270zM629 1428h-89v97h89v-97zM451 1263v-89h178v-100h-178v-89h270v189h178v89h-448zM810 1101v-179h-359v-91h448v270h-89zM629 771
v-151h92v62h89v-127h-270v216h-89v-305h448v305h-270zM451 304v-305h448v305h-448zM810 88h-270v127h270v-127zM451 -63v-90h189l-189 -126v-90h448v90h-275l189 126h86v90h-448z" />
    <glyph glyph-name="uni0535054E.liga" unicode="&#x535;&#x54e;" horiz-adv-x="2987" 
d="M2871 261l-41 -261h-640l41 261h1l16 101q-112 -52 -228 -52q-154 0 -266.5 48.5t-173.5 143t-61 228.5q0 50 9 105l12 76h-1010l-67 -422q-4 -27 -4 -57q0 -182 190 -182q110 0 174.5 61t85.5 194l23 145h351l-23 -145q-27 -169 -111 -286.5t-217 -178t-306 -60.5
q-156 0 -273 49.5t-182 145.5t-65 232q0 44 8 98l64 406l11 67l88 558h352l-58 -364h849v-1h513l-3 -19l-52 -333q-4 -28 -4 -58q0 -181 189 -181q105 0 172.5 71t90.5 202l23 148l9 55l76 480h351l-85 -535l-21 -136l-2 -10l-94 -594h288z" />
    <glyph glyph-name="uni05390545.liga" unicode="&#x539;&#x545;" horiz-adv-x="3316" 
d="M3205.5 917q-66.5 -82 -173.5 -118q94 -31 146 -104.5t52 -178.5q0 -34 -6 -72q-36 -230 -211.5 -347t-452.5 -117q-159 0 -288 49t-204 142t-75 220q0 33 6 69h352q-3 -16 -3 -33q0 -79 61 -128.5t170 -49.5q263 0 294 201q3 18 3 33q0 55 -29 95t-79.5 60.5
t-112.5 20.5h-1001l-34 -218q-37 -235 -167 -348t-379 -113q-148 0 -251 51t-155.5 140.5t-52.5 203.5q0 39 6 81l4 26q35 220 178.5 333.5t390.5 113.5h151l5 32q3 23 3 43q0 82 -48.5 146t-133.5 100t-190 36q-123 0 -225.5 -40.5t-167 -111.5t-77.5 -157l-155 -977h-352
l152 961q27 168 127.5 302t281.5 213.5t438 79.5q225 0 383.5 -80t237.5 -206.5t79 -264.5q0 -31 -5 -68l-1 -8h1011q90 0 154 47t77 131q3 17 3 33q0 70 -52.5 108t-145.5 38q-67 0 -121 -20t-87 -56t-40 -81h-350q20 129 103 225.5t215.5 149t298.5 52.5q148 0 270 -54
t192 -144t70 -195q0 -26 -4 -49q-19 -115 -85.5 -197zM1302 659h-141q-75 0 -123 -50.5t-64 -148.5q-5 -33 -5 -56q0 -69 33 -105.5t96 -36.5q75 0 115 42t55 137z" />
    <glyph glyph-name="uni0544053E.liga" unicode="&#x544;&#x53e;" horiz-adv-x="3213" 
d="M3240 1096h-276q68 -124 68 -285q0 -69 -11 -132l-9 -55q-33 -202 -130.5 -347t-246.5 -221t-333 -76q-164 0 -290 67.5t-195.5 191.5t-69.5 288q0 69 11 134l9 55q41 243 170 400q-75 21 -130.5 61.5t-88.5 97.5h-336l-122 -770q-27 -169 -111 -286.5t-217 -178
t-306 -60.5q-156 0 -273 49.5t-182 145.5t-65 232q0 44 8 98l163 1031h352l-166 -1047q-4 -27 -4 -57q0 -182 190 -182q110 0 174.5 61t85.5 194l122 770h-1l41 261h957q-3 -19 -3 -38q0 -66 45 -103.5t144 -37.5h222q14 1 42 1q26 0 38 -1h765zM2679 806q0 254 -233 254
q-132 0 -217 -82t-112 -241l-17 -96q-10 -57 -10 -112q0 -125 59 -191t174 -66q133 0 221 95t116 270l9 55q10 68 10 114z" />
    <glyph glyph-name="uni05440546.liga" unicode="&#x544;&#x546;" horiz-adv-x="3106" 
d="M3050 880l-59 -375q-27 -169 -111 -286.5t-217 -178t-306 -60.5q-156 0 -273 49.5t-182 145.5t-65 232q0 44 8 98l106 668q-73 4 -194 29q-88 17 -145.5 25t-123.5 8q-49 0 -86 -31.5t-44 -80.5l-98 -618q-27 -169 -111 -286.5t-217 -178t-306 -60.5q-156 0 -273 49.5
t-182 145.5t-65 232q0 44 8 98l163 1031h352l-166 -1047q-4 -27 -4 -57q0 -182 190 -182q110 0 174.5 61t85.5 194l114 725q14 87 64.5 157t126.5 109.5t163 39.5q86 0 165 -7t191 -21q102 -13 177.5 -20t152.5 -7q149 0 293 31l-7 -46l-23 -145l-11 -70l-121 -762
q-4 -27 -4 -57q0 -182 190 -182q110 0 174.5 61t85.5 194l59 375h351z" />
    <glyph glyph-name="uni05440576.liga" unicode="&#x544;&#x576;" horiz-adv-x="2819" 
d="M2792 1082l-171 -1082h-316l8 116q-127 -136 -309 -136q-145 0 -226.5 72.5t-81.5 223.5q0 49 9 106l126 795q-24 4 -95 21q-66 18 -121.5 27.5t-126.5 9.5q-49 0 -86 -31.5t-44 -80.5l-98 -618q-27 -169 -111 -286.5t-217 -178t-306 -60.5q-156 0 -273 49.5t-182 145.5
t-65 232q0 44 8 98l163 1031h352l-166 -1047q-4 -27 -4 -57q0 -182 190 -182q110 0 174.5 61t85.5 194l114 725q14 87 64.5 157t126.5 109.5t163 39.5q89 0 157.5 -7.5t169.5 -22.5q78 -13 133 -19t117 -6q123 0 267 31l-41 -261h-1l-137 -871q-3 -19 -3 -37
q0 -103 117 -103q118 0 178 85l120 757h338z" />
    <glyph glyph-name="uni0574056F.liga" unicode="&#x574;&#x56f;" horiz-adv-x="2459" 
d="M2410 1082l-237 -1498h-338l84 532q-55 -69 -126 -102.5t-161 -33.5q-148 0 -232.5 74t-84.5 227q0 53 8 101l130 822q-8 3 -14 5.5t-11 4.5q-32 14 -62 21t-84 7q-40 0 -70.5 -26t-36.5 -66l-182 -1150h-316l8 116q-67 -72 -129.5 -104t-149.5 -32q-152 0 -244.5 77
t-92.5 233q0 39 8 92l111 700h337l-111 -702q-3 -19 -3 -37q0 -103 117 -103q118 0 178 85l144 905q14 87 64.5 157t126.5 109.5t163 39.5q101 0 154 -6.5t109 -18.5q43 -10 81 -14.5t102 -4.5q81 0 188 8l-47 -290l-131 -830q-3 -19 -3 -37q0 -103 117 -103q118 0 178 85
l120 757h338z" />
    <glyph glyph-name="uni0578055B0582.liga" unicode="&#x578;&#x55b;&#x582;" horiz-adv-x="1868" 
d="M1543 1772l-391 -497h-277l311 497h357zM1042.5 1031q78.5 -71 78.5 -228q0 -56 -10 -117l-109 -686h-339l108 682q5 32 5 52q0 62 -33 85t-100 23q-99 0 -158 -77l-121 -765h-337l171 1082h316l-9 -126q69 74 147 110t174 36q138 0 216.5 -71zM1778 234l-37 -234h-563
l171 1082h337l-134 -848h226z" />
    <glyph glyph-name="uni0578055C0582.liga" unicode="&#x578;&#x55c;&#x582;" horiz-adv-x="1868" 
d="M1222 1254h-290l9 57q7 48 36 109t76.5 113t108.5 71q79 25 111 68.5t43 113.5l1 9h300l-4 -25q-12 -77 -28.5 -130.5t-56 -99.5t-110.5 -67q-86 -25 -135.5 -86t-59.5 -124zM1042.5 1031q78.5 -71 78.5 -228q0 -56 -10 -117l-109 -686h-339l108 682q5 32 5 52
q0 62 -33 85t-100 23q-99 0 -158 -77l-121 -765h-337l171 1082h316l-9 -126q69 74 147 110t174 36q138 0 216.5 -71zM1778 234l-37 -234h-563l171 1082h337l-134 -848h226z" />
    <glyph glyph-name="uni0578055E0582.liga" unicode="&#x578;&#x55e;&#x582;" horiz-adv-x="1868" 
d="M1292 1687.5q-36 -23.5 -64.5 -72t-39.5 -117.5l-38 -243h-267l40 256q22 140 96 238t175.5 147.5t205.5 49.5q93 0 168.5 -29t120 -86.5t44.5 -141.5q0 -29 -4 -53q-14 -87 -66 -164t-149 -126t-234 -49l36 223q65 0 98.5 34t33.5 86q0 33 -20.5 52t-64.5 19
q-35 0 -71 -23.5zM1042.5 1031q78.5 -71 78.5 -228q0 -56 -10 -117l-109 -686h-339l108 682q5 32 5 52q0 62 -33 85t-100 23q-99 0 -158 -77l-121 -765h-337l171 1082h316l-9 -126q69 74 147 110t174 36q138 0 216.5 -71zM1778 234l-37 -234h-563l171 1082h337l-134 -848
h226z" />
    <glyph glyph-name="uniFB13.liga" unicode="&#x574;&#x576;" horiz-adv-x="2461" 
d="M2434 1082l-171 -1082h-316l8 116q-66 -70 -133.5 -103t-155.5 -33q-150 0 -238.5 75.5t-88.5 230.5q0 42 8 96l130 818q-11 3 -43 15q-38 14 -68.5 20.5t-83.5 6.5q-40 0 -70.5 -26t-36.5 -66l-182 -1150h-316l8 116q-66 -70 -133.5 -103t-155.5 -33q-150 0 -238.5 75.5
t-88.5 230.5q0 42 8 96l111 700h337l-111 -702q-3 -19 -3 -37q0 -103 117 -103q118 0 178 85l144 905q14 87 64.5 157t126.5 109.5t163 39.5q99 0 153.5 -6t117.5 -18q51 -10 91 -15t106 -5q83 0 190 8l-25 -155l-153 -965q-3 -19 -3 -37q0 -103 117 -103q118 0 178 85
l120 757h338z" />
    <glyph glyph-name="uniFB14.liga" unicode="&#x574;&#x565;" horiz-adv-x="2486" 
d="M1660 380q-3 -19 -3 -37q0 -103 117 -103q118 0 178 85l49 306h338l-100 -631h-316l8 116q-65 -69 -137 -102.5t-162 -33.5q-148 0 -232.5 74t-84.5 227q0 53 8 101l130 822q-8 3 -14 5.5t-11 4.5q-32 14 -62 21t-84 7q-40 0 -70.5 -26t-36.5 -66l-182 -1150h-316l8 116
q-66 -70 -133.5 -103t-155.5 -33q-150 0 -238.5 75.5t-88.5 230.5q0 42 8 96l111 700h337l-111 -702q-3 -19 -3 -37q0 -103 117 -103q118 0 178 85l144 905q14 87 64.5 157t126.5 109.5t163 39.5q101 0 154 -6.5t109 -18.5q43 -10 81 -14.5t102 -4.5q81 0 188 8l-28 -173
l-39 -245h707l-37 -234h-707z" />
    <glyph glyph-name=".notdef" horiz-adv-x="1351" 
d="M1107 -555h-856v2701h856v-2701zM454 1965v-89h175v-100h-178v-89h448v89h-178v100h178v89h-445zM451 1617v-281h448v92h-178v189h-270zM629 1428h-89v97h89v-97zM451 1263v-89h178v-100h-178v-89h270v189h178v89h-448zM810 1101v-179h-359v-91h448v270h-89zM629 771
v-151h92v62h89v-127h-270v216h-89v-305h448v305h-270zM451 304v-305h448v305h-448zM810 88h-270v127h270v-127zM451 -63v-90h189l-189 -126v-90h448v90h-275l189 126h86v90h-448z" />
    <glyph glyph-name=".null" horiz-adv-x="0" 
 />
    <glyph glyph-name="nonmarkingreturn" unicode="&#xd;" horiz-adv-x="505" 
 />
    <glyph glyph-name="NULL" horiz-adv-x="0" 
 />
    <glyph glyph-name="NULL" horiz-adv-x="0" 
 />
    <glyph glyph-name="space" unicode=" " horiz-adv-x="505" 
 />
    <glyph glyph-name="exclam" unicode="!" horiz-adv-x="549" 
d="M609 1456l-214 -995h-268l131 995h351zM48 239q25 39 67 60.5t92 21.5q48 0 89 -21t65.5 -59t24.5 -86q0 -50 -25 -90t-67 -62t-92 -22q-49 0 -90 21t-65 59.5t-24 88.5t25 89z" />
    <glyph glyph-name="quotedbl" unicode="&#x22;" horiz-adv-x="631" 
d="M371 1382l-105 -413h-185l89 568h225zM711 1382l-105 -413h-184l89 568h225z" />
    <glyph glyph-name="numbersign" unicode="#" horiz-adv-x="1154" 
d="M421 0l137 410h-149l-137 -410h-201l138 410h-214l32 183h242l89 264h-213l33 183h240l139 416h200l-139 -416h149l139 416h201l-139 -416h221l-32 -183h-249l-89 -264h219l-32 -183h-247l-137 -410h-201zM469 593h149l89 264h-149z" />
    <glyph glyph-name="dollar" unicode="$" 
d="M964.5 184.5q-60.5 -88.5 -159 -138.5t-220.5 -62l-39 -202h-156l39 203q-126 18 -211.5 84t-126 168.5t-36.5 230.5l328 -1q-8 -232 155 -232q70 0 115.5 44.5t54.5 114.5q2 12 2 33q0 58 -32.5 97t-93.5 70q-116 57 -187 105t-109 92.5t-59 96.5q-24 62 -24 140
q0 22 1 33q7 123 71 212.5t166 139.5t224 61l40 211h157l-42 -217q111 -23 183 -90t105.5 -163t30.5 -210l-329 1l1 32q0 180 -119 184q-68 0 -111 -46.5t-53 -116.5q-2 -18 -2 -27q0 -56 33 -94t94 -71q124 -65 204 -122.5t128 -134.5q46 -74 46 -183q0 -21 -1 -32
q-7 -122 -67.5 -210.5z" />
    <glyph glyph-name="percent" unicode="%" horiz-adv-x="1475" 
d="M183 1176q8 90 53 158t118 105.5t163 37.5q88 0 155.5 -34t105 -97.5t37.5 -147.5l-1 -22l-6 -77q-8 -91 -53 -158.5t-117.5 -104t-162.5 -36.5q-87 0 -154.5 34t-105.5 97t-38 146l1 22zM1270 1237l-877 -1126l-154 87l878 1125zM389 1095q-3 -47 16 -80t64 -34
q49 -2 82 32.5t42 85.5l11 78q1 6 1 19q0 44 -19.5 72t-63.5 28q-48 0 -81 -35t-42 -85zM712 357q8 90 53.5 158.5t119 105.5t164.5 37t159.5 -37.5t104 -105.5t31.5 -158l-6 -77q-8 -91 -52.5 -159t-117 -105t-163.5 -37t-160.5 37.5t-106 106t-32.5 157.5zM919 276
q-3 -44 17 -78.5t63 -36.5q108 -6 127 132l9 65q1 6 1 18q0 43 -20 71.5t-63 28.5q-50 0 -82.5 -34.5t-42.5 -84.5z" />
    <glyph glyph-name="ampersand" unicode="&#x26;" horiz-adv-x="1340" 
d="M857 0l-50 75q-87 -47 -177 -71t-175 -24q-92 0 -174 28t-147 82q-58 49 -87 116.5t-29 141.5t26.5 143.5t71.5 118.5q88 93 198 154l14 6q-37 85 -56.5 149t-19.5 129q0 19 1 28q8 116 66 207.5t153 142.5t211 51q96 0 175 -41.5t125.5 -116t46.5 -168.5
q0 -106 -60.5 -192t-159.5 -153l-113 -72l168 -248q78 117 94 243h273q-20 -290 -199 -477l172 -252h-348zM581 919l68 42q110 72 110 162q0 41 -22.5 68t-64.5 27q-39 0 -71 -22t-50 -58t-18 -75q0 -60 48 -144zM388 281q31 -41 90 -41q73 0 172 43l-195 296l-13 -8
q-38 -32 -61.5 -86t-23.5 -104q0 -59 31 -100z" />
    <glyph glyph-name="quotesingle" unicode="'" horiz-adv-x="307" 
d="M394 1358l-94 -397h-203l90 575h235z" />
    <glyph glyph-name="parenleft" unicode="(" horiz-adv-x="701" 
d="M801 1438q-136 -103 -221.5 -241t-147.5 -363q-62 -226 -79 -561q-2 -48 -2 -72q0 -158 41.5 -284.5t135.5 -202.5l-71 -164q-126 63 -204 178t-114 267q-34 143 -36 291v40q0 351 124 684q80 217 210.5 373t313.5 225z" />
    <glyph glyph-name="parenright" unicode=")" horiz-adv-x="700" 
d="M603 569q-29 -208 -109.5 -413.5t-208.5 -365.5q-138 -169 -335 -242l-52 170q181 137 278.5 348.5t138.5 483.5q32 216 32 379q0 151 -27 270q-34 152 -149 241l74 166q126 -63 207 -176.5t121 -265.5q45 -172 45 -366q0 -98 -11 -192z" />
    <glyph glyph-name="asterisk" unicode="*" horiz-adv-x="924" 
d="M134 696l263 267l-298 89l91 179l294 -134l38 359h209l-86 -350l315 123l30 -201l-338 -90l170 -271l-174 -109l-128 295l-226 -280z" />
    <glyph glyph-name="plus" unicode="+" horiz-adv-x="1061" 
d="M1001 537h-329l-69 -391h-307l68 391h-333l50 289h333l66 380h307l-66 -380h330z" />
    <glyph glyph-name="comma" unicode="," horiz-adv-x="535" 
d="M349 254l-37 -213q-20 -127 -88 -238.5t-172 -193.5l-166 79q40 80 92 162q49 75 67 182l39 222h265z" />
    <glyph glyph-name="hyphen" unicode="-" horiz-adv-x="893" 
d="M758 758l-45 -261h-585l45 261h585z" />
    <glyph glyph-name="period" unicode="." horiz-adv-x="601" 
d="M62 246q25 39 67 60.5t91 21.5q48 0 89 -21.5t65 -60t24 -87.5q0 -50 -25 -89t-67 -60.5t-91 -21.5q-48 0 -89 21.5t-65 60t-24 87.5q0 50 25 89z" />
    <glyph glyph-name="slash" unicode="/" horiz-adv-x="697" 
d="M842 1456l-758 -1581h-245l757 1581h246z" />
    <glyph glyph-name="zero" unicode="0" 
d="M1071 602q-59 -377 -275 -537q-56 -42 -131.5 -63.5t-154.5 -21.5q-86 0 -162 24.5t-124 70.5q-74 70 -110 175t-36 229q0 61 7 116l40 266q26 170 95 309.5t184 222.5q56 41 130.5 62t153.5 21q85 0 161 -24.5t124 -70.5q74 -70 109.5 -174.5t35.5 -228.5q0 -62 -7 -117
zM789 906l9 121q4 82 -22 135t-93 56q-76 5 -123.5 -44t-69.5 -132q-21 -76 -30 -136l-52 -353l-9 -122l-1 -26q0 -167 129 -167q131 0 181 178q19 74 30 143z" />
    <glyph glyph-name="one" unicode="1" 
d="M951 1457l-244 -1457h-329l186 1070l-339 -96l46 267l643 215z" />
    <glyph glyph-name="two" unicode="2" 
d="M1020 260l-41 -260h-987l36 232l518 481q60 58 102 104t77 103t43 114q3 21 3 42q0 64 -30 104t-95 40q-57 0 -98.5 -34.5t-64.5 -87t-30 -109.5l-327 -2q6 136 81.5 248.5t198 177.5t263.5 65q126 0 226 -43t157.5 -128.5t57.5 -206.5q0 -13 -2 -39q-9 -117 -72 -218.5
t-167 -199.5l-177 -166l-222 -215z" />
    <glyph glyph-name="three" unicode="3" 
d="M386 618l39 251l145 -1q91 2 149.5 53t69.5 141q1 8 1 23q0 60 -36 97t-99 37q-65 0 -113.5 -37.5t-62.5 -99.5l-331 -2q6 128 81.5 218t196.5 137q111 43 232 43q124 0 237 -46q106 -45 167 -129t61 -204q0 -21 -1 -31q-12 -206 -268 -326q99 -49 144.5 -128.5
t45.5 -173.5q0 -76 -27 -149t-70 -121q-82 -93 -207 -141.5t-261 -48.5q-132 0 -239 50.5t-168.5 147t-61.5 228.5h327q1 -74 45 -119.5t118 -45.5q54 0 101 23t78 65t38 95q3 23 3 43q0 144 -158 150z" />
    <glyph glyph-name="four" unicode="4" 
d="M38 516l723 938v7l340 -6l-154 -886h142l-45 -260h-142l-54 -309h-329l54 309h-546zM370 571l248 -2l88 454z" />
    <glyph glyph-name="five" unicode="5" 
d="M121 716l201 740h830l-42 -262h-556l-89 -291q37 24 94.5 39t120.5 15q88 0 165 -34t125 -109q39 -61 59.5 -135t20.5 -154q0 -115 -44 -223t-132 -187q-76 -68 -169.5 -102.5t-190.5 -34.5q-95 0 -183.5 32t-155.5 92q-134 119 -132 313h329q3 -77 38.5 -125.5
t109.5 -48.5q94 0 141 75.5t58 182.5q2 15 2 44q0 83 -37.5 132.5t-122.5 49.5q-107 0 -173 -74z" />
    <glyph glyph-name="six" unicode="6" 
d="M990.5 229.5q-75.5 -116.5 -196.5 -183.5t-262 -67q-162 0 -270 82t-155 222q-34 104 -34 209q0 24 4 74l12 100q29 236 146 419t300 286t403 107h67l-26 -266h-13q-178 3 -310 -87t-208 -256q61 57 134 85t147 28q65 0 122.5 -20.5t95.5 -56.5q66 -64 99.5 -159
t33.5 -203q0 -18 -2 -54q-12 -143 -87.5 -259.5zM399 515q-4 -31 -4 -74q0 -100 36 -154q14 -22 43.5 -35t63.5 -13q41 0 80.5 20.5t66.5 62.5q64 100 64 202q0 57 -22 120q-13 38 -47.5 59.5t-79.5 21.5q-48 0 -97.5 -26.5t-88.5 -78.5z" />
    <glyph glyph-name="seven" unicode="7" 
d="M1203 1456l-31 -195l-718 -1261h-360l715 1196h-668l42 260h1020z" />
    <glyph glyph-name="eight" unicode="8" 
d="M950.5 175q-74.5 -97 -191.5 -146t-253 -49q-126 0 -230.5 43t-166.5 128.5t-62 208.5q0 22 1 33q16 240 284 364q-67 53 -102 129.5t-35 161.5q0 95 43 182.5t121 143.5q73 52 158.5 78t173.5 26q90 0 173.5 -27.5t145.5 -79.5q58 -48 85.5 -114.5t27.5 -140.5
q0 -70 -22 -134t-57 -106q-69 -79 -170 -132q160 -112 160 -304q0 -21 -1 -31q-8 -137 -82.5 -234zM791 1086q0 58 -26 95t-84 37q-70 0 -111.5 -51.5t-50.5 -125.5q-2 -20 -2 -30q0 -59 26 -98t84 -39q70 0 111.5 53.5t50.5 129.5q2 20 2 29zM710 470q0 64 -33 105t-100 41
q-53 0 -95 -27t-67.5 -71.5t-32.5 -97.5q-2 -20 -2 -30q0 -66 34.5 -108.5t102.5 -42.5q52 0 93.5 27.5t66.5 72.5t31 97q2 22 2 34z" />
    <glyph glyph-name="nine" unicode="9" 
d="M204 -21l27 271h41q337 7 463 314q-59 -50 -124.5 -74.5t-130.5 -24.5q-59 0 -111.5 19t-93.5 54q-72 61 -108.5 155t-36.5 204q0 17 2 53q12 143 88 264t198 194q57 34 124.5 51.5t136.5 17.5q78 0 147.5 -23t119.5 -69q81 -75 122.5 -187t41.5 -239q0 -43 -4 -78
l-16 -124q-30 -226 -143 -401t-293.5 -274t-408.5 -103h-41zM460 899q0 -80 31.5 -136t106.5 -56q98 0 166 95l20 142q4 44 4 73q0 96 -30 152q-13 24 -39 36.5t-57 12.5q-30 0 -58 -11.5t-48 -32.5q-39 -43 -63 -105t-30 -120q-3 -24 -3 -50z" />
    <glyph glyph-name="colon" unicode=":" horiz-adv-x="607" 
d="M200 1044q25 39 67 60.5t91 21.5q48 0 89 -21.5t65 -60t24 -87.5q0 -50 -25 -89t-67 -60.5t-91 -21.5q-48 0 -89 21.5t-65 60t-24 87.5q0 50 25 89zM62 246q25 39 67 60.5t91 21.5q48 0 89 -21.5t65 -60t24 -87.5q0 -50 -25 -89t-67 -60.5t-91 -21.5q-48 0 -89 21.5
t-65 60t-24 87.5q0 50 25 89z" />
    <glyph glyph-name="semicolon" unicode=";" horiz-adv-x="582" 
d="M189 1044q25 39 67 60.5t91 21.5q48 0 89 -21.5t65 -60t24 -87.5q0 -50 -25 -89t-67 -60.5t-91 -21.5q-48 0 -89 21.5t-65 60t-24 87.5q0 50 25 89zM373 254l-37 -213q-20 -127 -88 -238.5t-172 -193.5l-166 79q40 80 92 162q49 75 67 182l39 222h265z" />
    <glyph glyph-name="less" unicode="&#x3c;" horiz-adv-x="1014" 
d="M821 124l-798 361l46 266l924 360l-57 -319l-564 -188l500 -185z" />
    <glyph glyph-name="equal" unicode="=" horiz-adv-x="1164" 
d="M1091 982l-45 -260h-902l46 260h901zM1015 543l-46 -260h-901l46 260h901z" />
    <glyph glyph-name="greater" unicode="&#x3e;" horiz-adv-x="1019" 
d="M192 1097l793 -361l-46 -266l-918 -360l55 319l563 189l-498 185z" />
    <glyph glyph-name="question" unicode="?" horiz-adv-x="1013" 
d="M321 459q7 123 46.5 216t126.5 162q77 61 110.5 91t55 65t28.5 83q4 28 4 40q0 47 -22.5 75.5t-72.5 28.5q-64 0 -100.5 -47.5t-50.5 -118.5l-330 -2q10 134 76 230t174 145.5t242 49.5q120 0 215.5 -40t151 -120.5t55.5 -196.5q0 -21 -1 -32q-6 -84 -46.5 -151.5
t-93 -116t-149.5 -124.5q-119 -94 -143 -235zM242 243q25 39 66.5 61.5t90.5 22.5t90.5 -21t66 -59.5t24.5 -88.5t-25 -89t-67 -60.5t-92 -21.5q-49 0 -90 21t-65 59.5t-24 87.5t25 88z" />
    <glyph glyph-name="at" unicode="@" horiz-adv-x="1779" 
d="M1067 -367q-70 -46 -163.5 -66t-193.5 -20q-267 0 -432 119.5t-225 332.5q-33 117 -33 252q0 168 51 343.5t148 330.5q141 225 354 355t472 130q247 0 407 -115t223 -316q38 -122 38 -257q0 -116 -27 -227t-71 -209q-66 -144 -174.5 -227.5t-259.5 -79.5q-75 1 -134 35.5
t-84 100.5q-61 -68 -130.5 -100.5t-135.5 -32.5q-56 0 -101.5 20.5t-72.5 56.5q-56 74 -68 177q-4 32 -4 73q0 107 33 216t92 203t135 158q126 105 288 105q85 0 155.5 -28t152.5 -84l-139 -588q-7 -33 -7 -57q0 -38 17.5 -60t60.5 -22q147 0 223 250q53 172 53 330
q0 132 -38 235t-107 169q-52 49 -136 75.5t-183 26.5q-97 0 -193.5 -26.5t-174.5 -78.5q-160 -106 -270 -281t-153 -376q-26 -119 -26 -227q0 -128 37 -232t111 -174q56 -53 138 -79t180 -26q81 0 168 17t172 48zM695 290q0 -121 89 -121q37 0 71.5 26.5t59.5 64.5t38 73
l121 462q-29 7 -63 7q-94 0 -157.5 -59.5t-103.5 -170.5q-39 -106 -53 -240q-2 -14 -2 -42z" />
    <glyph glyph-name="A" unicode="A" horiz-adv-x="1353" 
d="M-115 0l772 1456h322l270 -1456h-357l-34 272h-465l-129 -272h-379zM521 543h302l-63 503z" />
    <glyph glyph-name="B" unicode="B" horiz-adv-x="1282" 
d="M1080.5 186q-79.5 -98 -214.5 -143q-126 -43 -276 -43h-588l252 1456l458 -1q341 -2 476 -162q31 -37 47 -88.5t16 -108.5q0 -67 -20.5 -130t-56.5 -105q-66 -78 -178 -125q86 -29 130 -103t44 -169q0 -17 -1 -25q-9 -155 -88.5 -253zM550 1185l-59 -336l148 -1
q237 2 263 171q3 20 3 37q0 66 -43.5 95.5t-125.5 32.5zM836 487q0 60 -32.5 94t-99.5 37l-252 1l-61 -349l204 -1q92 1 157.5 44.5t79.5 129.5q4 21 4 44z" />
    <glyph glyph-name="C" unicode="C" horiz-adv-x="1304" 
d="M1218 496q-14 -161 -104 -279t-235 -180q-65 -27 -139.5 -42.5t-149.5 -15.5q-96 0 -181.5 26.5t-146.5 80.5q-94 82 -140.5 205.5t-46.5 272.5q0 57 8 124l11 79q27 192 116 354.5t231 259.5q68 46 157.5 71.5t184.5 25.5q114 0 216.5 -37t171.5 -110q135 -142 148 -380
l-341 1q4 125 -45 188t-173 63q-102 0 -167 -58t-102 -163q-61 -174 -73 -474q-1 -10 -1 -30q0 -225 194 -225q113 0 183.5 63t88.5 176z" />
    <glyph glyph-name="D" unicode="D" horiz-adv-x="1285" 
d="M2 0l252 1456l437 -1q189 -4 321 -98.5t192 -255.5q43 -114 43 -247q0 -40 -5 -93l-5 -41q-27 -213 -131.5 -376.5t-266 -253.5t-354.5 -90h-483zM550 1185l-159 -915l100 -1q118 0 201 59t129.5 156t63.5 215q15 104 15 185q0 73 -13.5 129.5t-43.5 98.5q-50 68 -163 72
z" />
    <glyph glyph-name="E" unicode="E" horiz-adv-x="1112" 
d="M2 0l252 1456h977l-47 -271h-634l-54 -307h535l-45 -261h-534l-61 -347h632l-47 -270h-974z" />
    <glyph glyph-name="F" unicode="F" horiz-adv-x="1086" 
d="M2 0l252 1456h947l-47 -271h-604l-58 -335h549l-47 -270h-549l-101 -580h-342z" />
    <glyph glyph-name="G" unicode="G" horiz-adv-x="1354" 
d="M1295 778l-94 -599q-93 -107 -255.5 -154t-331.5 -44q-196 2 -320.5 98.5t-173.5 263.5q-31 106 -31 226q0 62 7 118l11 80q27 195 117.5 356.5t235.5 258.5q143 95 337 95q507 0 538 -498l-327 1q-7 111 -56 169.5t-159 58.5q-105 0 -176 -65.5t-111 -175.5
q-34 -92 -50 -191.5t-19 -174.5q-2 -40 -2 -71q0 -57 11 -108.5t41 -96.5q24 -36 71 -55t105 -19q53 0 106.5 15t96.5 44l45 227h-237l42 241h579z" />
    <glyph glyph-name="H" unicode="H" horiz-adv-x="1396" 
d="M843 0l105 608h-498l-106 -608h-342l252 1456h343l-101 -578h499l100 578h342l-253 -1456h-341z" />
    <glyph glyph-name="I" unicode="I" horiz-adv-x="600" 
d="M619 1456l-252 -1456h-342l253 1456h341z" />
    <glyph glyph-name="J" unicode="J" horiz-adv-x="1116" 
d="M817 1456h342l-170 -999q-19 -141 -95 -250.5t-194.5 -169.5t-261.5 -58q-142 2 -241.5 58t-149 159t-45.5 245l345 -1q-1 -14 -1 -42q0 -70 25 -109.5t96 -39.5q76 0 120 58.5t60 149.5z" />
    <glyph glyph-name="K" unicode="K" horiz-adv-x="1271" 
d="M792 0l-206 538l-177 -167l-65 -371h-342l252 1456h343l-109 -623l142 173l378 450h443l-603 -658l334 -798h-390z" />
    <glyph glyph-name="L" unicode="L" horiz-adv-x="1077" 
d="M984 270l-47 -270h-935l252 1456h343l-206 -1186h593z" />
    <glyph glyph-name="M" unicode="M" horiz-adv-x="1741" 
d="M836 446l490 1010h454l-252 -1456h-344l62 357l148 658l-510 -1015h-227l-164 1053l-93 -730l-56 -323h-342l252 1456h443z" />
    <glyph glyph-name="N" unicode="N" horiz-adv-x="1395" 
d="M1436 1456l-253 -1456h-332l-347 919l-160 -919h-342l252 1456h334l347 -919l159 919h342z" />
    <glyph glyph-name="O" unicode="O" horiz-adv-x="1372" 
d="M1322 703q-27 -195 -119.5 -360t-241.5 -264q-72 -49 -162.5 -74t-184.5 -25q-99 0 -186.5 27.5t-148.5 80.5q-99 86 -149.5 215.5t-50.5 280.5q0 61 7 114l7 60q27 194 121 358t243 263q73 48 162 73t182 25q99 0 186.5 -27.5t148.5 -80.5q99 -86 149.5 -215t50.5 -281
q0 -45 -7 -110zM943.5 1125q-46.5 77 -162.5 77q-105 0 -175.5 -62.5t-110.5 -171.5q-72 -192 -69 -452q0 -115 45.5 -187.5t148.5 -75.5q109 -5 182.5 58t116.5 175q71 186 71 435q0 127 -46.5 204z" />
    <glyph glyph-name="P" unicode="P" horiz-adv-x="1294" 
d="M430 494l-86 -494h-342l252 1456l546 -1q137 -4 246.5 -57.5t173 -152t63.5 -231.5q0 -14 -2 -44q-12 -156 -99 -264t-227 -161q-134 -52 -285 -52zM550 1185l-73 -420l206 -2q101 2 169 55t83 150q4 32 4 47q0 72 -37.5 118.5t-112.5 50.5z" />
    <glyph glyph-name="Q" unicode="Q" horiz-adv-x="1372" 
d="M1170 -94l-228 -172l-256 251l-86 -4q-193 3 -315.5 104t-171.5 272q-32 113 -32 230q0 58 7 111l7 60q27 194 121 358t243 263q72 48 161 72.5t182 24.5q99 0 187.5 -28t149.5 -81q99 -86 149.5 -215.5t50.5 -280.5q0 -61 -7 -114l-7 -59q-28 -192 -114 -346t-236 -252z
M783 1202q-107 0 -177.5 -64.5t-110.5 -174.5q-68 -188 -68 -436q0 -120 44.5 -195.5t150.5 -78.5q112 -5 186.5 61.5t116.5 181.5q72 198 67 445q-6 261 -209 261z" />
    <glyph glyph-name="R" unicode="R" horiz-adv-x="1296" 
d="M783 0l-160 514h-189l-90 -514h-342l252 1456l539 -1q133 -3 240.5 -46.5t171.5 -131t64 -216.5q0 -24 -1 -37q-22 -305 -315 -424l195 -583v-17h-365zM550 1185l-70 -400l200 -2q99 1 164 56t79 153q3 21 3 40q0 68 -36 108.5t-108 43.5z" />
    <glyph glyph-name="S" unicode="S" horiz-adv-x="1244" 
d="M802 430q0 43 -23 72q-32 39 -182 101q-150 60 -240.5 125t-134.5 144q-18 33 -28.5 76t-10.5 89q0 73 25.5 142t78.5 121q86 86 213.5 131t260.5 45q143 0 256 -53.5t176.5 -155.5t61.5 -244h-339q3 88 -38.5 137.5t-128.5 49.5q-81 0 -146.5 -39.5t-79.5 -114.5
q-2 -14 -2 -20q0 -77 116 -128l87 -35q128 -48 221.5 -110t146.5 -147q24 -37 36 -86t12 -103q0 -77 -24.5 -149t-73.5 -124q-82 -87 -203.5 -131t-258.5 -44q-156 0 -281.5 57t-197 169t-68.5 268l343 -1q-12 -227 212 -227q79 0 138 37.5t72 111.5q4 17 4 36z" />
    <glyph glyph-name="T" unicode="T" horiz-adv-x="1253" 
d="M136 1185l48 271h1182l-47 -271h-425l-205 -1185h-343l206 1185h-416z" />
    <glyph glyph-name="U" unicode="U" horiz-adv-x="1320" 
d="M1021 1456h342l-162 -950q-23 -164 -105.5 -282.5t-213.5 -181.5t-296 -63q-148 0 -261.5 55t-177 158t-63.5 242q0 39 4 71l162 951h343l-161 -952q-4 -28 -4 -62q0 -192 181 -192q107 0 169 68t80 181z" />
    <glyph glyph-name="V" unicode="V" horiz-adv-x="1313" 
d="M1458 1456l-705 -1456h-373l-246 1456h372l114 -1058l445 1058h393z" />
    <glyph glyph-name="W" unicode="W" horiz-adv-x="1727" 
d="M1838 1456l-528 -1456h-353l-59 826l-314 -826h-355l-72 1456h333l19 -904l334 904h291l54 -910l305 910h345z" />
    <glyph glyph-name="X" unicode="X" horiz-adv-x="1269" 
d="M531 1456l154 -482l306 482h405l-517 -737l284 -719h-378l-160 491l-314 -491h-410l531 749l-277 707h376z" />
    <glyph glyph-name="Y" unicode="Y" horiz-adv-x="1247" 
d="M506 1456l150 -630l369 630h384l-627 -949l-87 -507h-349l94 540l-292 915z" />
    <glyph glyph-name="Z" unicode="Z" horiz-adv-x="1213" 
d="M160 1185l48 271h1100l-34 -195l-835 -989l670 -2l-47 -270h-1102l35 200l840 983z" />
    <glyph glyph-name="bracketleft" unicode="[" horiz-adv-x="561" 
d="M721 1706l-39 -246h-114l-244 -1564h115l-39 -245h-445l321 2055h445z" />
    <glyph glyph-name="backslash" unicode="\" horiz-adv-x="848" 
d="M448 -125l-315 1581h331l316 -1581h-332z" />
    <glyph glyph-name="bracketright" unicode="]" horiz-adv-x="561" 
d="M147 1460l39 246h445l-321 -2055h-446l39 245h116l244 1564h-116z" />
    <glyph glyph-name="asciicircum" unicode="^" horiz-adv-x="889" 
d="M49 729l417 727h244l164 -727h-235l-85 451l-243 -451h-262z" />
    <glyph glyph-name="underscore" unicode="_" horiz-adv-x="878" 
d="M773 0l-44 -251h-879l44 251h879z" />
    <glyph glyph-name="grave" unicode="`" horiz-adv-x="675" 
d="M537 1536l144 -314l-246 1l-229 311z" />
    <glyph glyph-name="a" unicode="a" horiz-adv-x="1055" 
d="M594 0q-14 45 -13 99q-55 -60 -122.5 -90t-138.5 -30q-65 0 -125.5 24t-108.5 67q-46 41 -68.5 99.5t-22.5 123.5q0 66 23 127t65 101q77 74 194.5 107.5t251.5 33.5l110 -2l12 61q4 30 4 44q0 46 -22 74.5t-72 28.5q-105 0 -130 -119l-330 -1q6 120 79 201t192 120
q110 35 211 35q83 0 160 -25t141 -79q101 -89 101 -239q0 -15 -2 -45l-74 -463l-13 -108q-2 -18 -2 -28q0 -49 22 -98l-1 -19h-321zM583 306l33 175l-85 1q-79 -2 -135.5 -46t-67.5 -122q-1 -7 -1 -20q0 -76 88 -76q94 0 168 88z" />
    <glyph glyph-name="b" unicode="b" horiz-adv-x="1118" 
d="M1056 533q-19 -147 -73.5 -272t-149.5 -203q-46 -37 -108 -58t-127 -21q-81 0 -152.5 33.5t-115.5 100.5l-42 -113h-298l267 1536h329l-107 -542q52 54 118 81t136 27q64 0 121 -22.5t95 -64.5q59 -66 86.5 -160t27.5 -203q0 -44 -5 -97zM452 757l-79 -435q18 -45 56 -65
t84 -20q26 0 50.5 5.5t40.5 14.5q37 19 68 70q55 92 65 344q3 78 -24.5 124.5t-99.5 46.5q-93 0 -161 -85z" />
    <glyph glyph-name="c" unicode="c" horiz-adv-x="1033" 
d="M587 279q40 40 50 107l309 1q-6 -122 -71.5 -214.5t-170.5 -142.5t-227 -50q-144 0 -243.5 63.5t-148.5 172t-49 245.5q0 33 3 66l4 32q18 151 88 274.5t186.5 196t267.5 72.5q132 0 227 -54.5t144 -152.5t46 -228l-309 1q3 77 -26 126t-104 49q-70 0 -111 -44.5
t-59 -118.5q-17 -75 -23 -130l-1 -23l-8 -115q-8 -173 121 -173q65 0 105 40z" />
    <glyph glyph-name="d" unicode="d" horiz-adv-x="1117" 
d="M628 0l14 117q-60 -70 -132 -104t-147 -34q-63 0 -119 23.5t-93 65.5q-59 67 -88 164t-29 204q0 41 5 89l2 16q47 339 232 486q46 36 105 55.5t121 19.5q74 0 140.5 -29t112.5 -86l105 549h331l-266 -1536h-294zM368 526l-6 -112q-3 -78 24 -126t94 -48q95 0 167 92
l75 417q-17 48 -54 71.5t-83 23.5q-34 0 -65.5 -12t-51.5 -34q-42 -45 -65.5 -112t-31.5 -139z" />
    <glyph glyph-name="e" unicode="e" horiz-adv-x="1083" 
d="M949 168q-63 -93 -177 -140.5t-238 -47.5q-143 0 -255 61t-174 169.5t-62 245.5q0 16 2 46l4 39q16 157 88 284.5t193.5 202t279.5 74.5q137 0 234 -60t146 -163.5t49 -232.5q0 -41 -4 -74l-19 -137h-642q0 -89 50 -141.5t141 -52.5q137 0 247 110zM472 791.5
q-48 -54.5 -81 -146.5h329l6 29q3 20 3 37q0 59 -32.5 95t-95.5 37q-81 3 -129 -51.5z" />
    <glyph glyph-name="f" unicode="f" horiz-adv-x="721" 
d="M740 848h-204l-147 -848h-331l147 848h-151l40 234l151 1l12 87q16 121 74.5 209t153.5 134t216 46q78 0 174 -22l-25 -249q-41 12 -79 12q-69 0 -117.5 -33t-62.5 -97l-15 -88h204z" />
    <glyph glyph-name="g" unicode="g" horiz-adv-x="1144" 
d="M956 42q-20 -149 -101.5 -254.5t-206.5 -159.5t-276 -54q-115 0 -219.5 42t-176.5 124l156 195q45 -58 106.5 -86t126.5 -28q50 0 95 15.5t77 42.5q70 59 97 161l11 48q-55 -54 -121.5 -81t-135.5 -27q-64 0 -121.5 22.5t-96.5 64.5q-66 69 -99 170t-33 213q0 25 4 75
l5 38q20 145 83.5 269.5t164.5 197.5q48 35 111 54t129 19q80 0 149 -29t112 -87l34 96l304 -1zM367 452q0 -100 32 -158q14 -25 42.5 -39.5t64.5 -14.5q40 0 82 18t79 55l84 457q-18 35 -57 54.5t-84 19.5q-49 0 -93 -23t-71 -70q-57 -97 -75 -225q-4 -44 -4 -74z" />
    <glyph glyph-name="h" unicode="h" horiz-adv-x="1121" 
d="M447 778l-138 -778h-329l267 1536h329l-112 -571q59 67 136 102t156 35t143.5 -35t95.5 -99q50 -103 50 -225q0 -39 -4 -71l-112 -672h-331l114 675q3 26 3 48q0 56 -26 87.5t-89 31.5q-88 0 -153 -64z" />
    <glyph glyph-name="i" unicode="i" horiz-adv-x="546" 
d="M246 1447q25 38 67 58.5t91 20.5q48 0 89.5 -20t66 -57.5t24.5 -86.5t-25 -87t-67 -58.5t-91 -20.5q-48 0 -89.5 20t-66 57.5t-24.5 86.5t25 87zM521 1082l-187 -1082h-330l188 1082h329z" />
    <glyph glyph-name="j" unicode="j" horiz-adv-x="537" 
d="M249.5 1446.5q25.5 37.5 67.5 58t90 20.5q49 0 90 -20t65.5 -57t24.5 -86t-24.5 -86.5t-66 -58t-90.5 -21.5q-49 0 -90.5 20t-66.5 57t-25 87q0 49 25.5 86.5zM199 1082h330l-190 -1116q-16 -125 -74.5 -216.5t-154 -140.5t-220.5 -49q-75 0 -173 19l27 256
q65 -12 95 -12q143 0 169 147z" />
    <glyph glyph-name="k" unicode="k" horiz-adv-x="1086" 
d="M647 0l-157 400l-120 -104l-51 -296h-329l267 1537h329l-152 -819l40 47l299 317l416 -1l-460 -459l280 -622h-362z" />
    <glyph glyph-name="l" unicode="l" horiz-adv-x="546" 
d="M600 1536l-266 -1536h-330l266 1536h330z" />
    <glyph glyph-name="m" unicode="m" horiz-adv-x="1711" 
d="M452 754l-133 -754h-329l188 1082l306 1l-21 -130q125 149 304 149q93 0 162.5 -40t93.5 -123q137 163 318 163q120 0 188 -59t89 -162q12 -60 12 -124q0 -41 -4 -76l-113 -681h-330l115 682q4 36 4 55q0 48 -20.5 76.5t-71.5 29.5q-87 0 -163 -88l-5 -33l-126 -722h-329
l114 680q4 38 4 56q0 50 -20.5 78t-73.5 29q-84 0 -159 -89z" />
    <glyph glyph-name="n" unicode="n" horiz-adv-x="1121" 
d="M446 766l-136 -766h-329l188 1082l307 1l-22 -128q125 148 301 148q120 0 188.5 -59t90.5 -162q13 -68 13 -129q0 -24 -4 -72l-114 -681h-331l115 683q3 23 3 43q0 56 -26.5 86t-89.5 30q-87 0 -154 -76z" />
    <glyph glyph-name="o" unicode="o" horiz-adv-x="1116" 
d="M43 545q17 156 89 283t193 200.5t277 73.5q146 0 249.5 -63.5t156 -173.5t52.5 -247q0 -32 -3 -65q-15 -163 -87.5 -293.5t-195 -205t-279.5 -74.5q-145 0 -248 63t-156 171.5t-53 245.5q0 31 3 64zM508 238q190 0 220 315q3 35 3 76q0 105 -33 162q-15 25 -45 38.5
t-66 13.5t-69.5 -13.5t-56.5 -39.5q-45 -51 -69.5 -139.5t-24.5 -200.5q0 -31 1 -47q6 -165 140 -165z" />
    <glyph glyph-name="p" unicode="p" horiz-adv-x="1118" 
d="M345 91l-98 -507h-329l260 1498l303 1l-16 -102q53 61 122.5 91t142.5 30q65 0 122.5 -23t94.5 -64q60 -66 88 -163t28 -206q0 -51 -4 -90q-50 -363 -245 -508q-91 -69 -224 -69q-155 0 -245 112zM452 757l-77 -430q16 -42 53 -65t82 -23q47 0 91 25.5t71 75.5
q57 103 64 329q2 173 -122 173q-96 0 -162 -85z" />
    <glyph glyph-name="q" unicode="q" horiz-adv-x="1116" 
d="M1109 1082l-260 -1498h-331l101 508q-53 -56 -119.5 -84t-135.5 -28q-64 0 -120.5 23.5t-93.5 66.5q-59 68 -87 165t-28 204q0 41 5 89l2 22q17 143 74 269.5t152 204.5q46 37 107 58t126 21q82 0 153 -34.5t115 -104.5l51 119zM362 416q-6 -176 120 -176q95 0 163 86
l79 432q-31 86 -139 86q-175 0 -214 -294z" />
    <glyph glyph-name="r" unicode="r" horiz-adv-x="753" 
d="M441 687l-122 -687h-329l188 1082l306 1l-25 -141q50 77 110.5 120t140.5 43q40 0 101 -14l-43 -314q-64 10 -106 10q-145 0 -221 -100z" />
    <glyph glyph-name="s" unicode="s" horiz-adv-x="1019" 
d="M598 324q0 56 -97 83l-77 20q-144 38 -238 112.5t-94 202.5q0 119 69 201.5t184 123.5q100 36 208 36q166 0 301 -88q131 -86 132 -266l-327 1q1 63 -25 95.5t-88 32.5q-51 0 -93.5 -29.5t-51.5 -78.5q-1 -5 -1 -15q0 -42 41.5 -62.5t103.5 -33.5q105 -25 186 -62.5
t131 -98.5q25 -30 38 -73t13 -92q0 -60 -21 -115.5t-62 -95.5q-73 -70 -180 -106t-216 -36q-115 0 -216 43t-164 126.5t-65 199.5l304 -1q3 -143 142 -143q59 0 105 26t57 79q1 5 1 14z" />
    <glyph glyph-name="t" unicode="t" horiz-adv-x="683" 
d="M568 7q-81 -26 -170 -26q-72 0 -133.5 21t-103.5 69q-64 73 -64 192q0 32 2 48l88 537h-133l40 234h133l47 269h329l-47 -269h173l-41 -234h-172l-85 -497q-3 -18 -3 -34q0 -37 19.5 -53.5t69.5 -16.5q14 0 74 4z" />
    <glyph glyph-name="u" unicode="u" horiz-adv-x="1121" 
d="M624 0l22 117q-59 -68 -137 -103t-159 -35q-78 0 -143 32t-100 90q-58 98 -58 223q0 28 3 58l117 700h329l-119 -704q-2 -18 -2 -25q0 -56 30.5 -84.5t78.5 -28.5q44 0 89.5 22t78.5 62l134 758h330l-188 -1082h-306z" />
    <glyph glyph-name="v" unicode="v" horiz-adv-x="1026" 
d="M1103 1082l-513 -1082h-334l-174 1082h339l56 -678l270 678h356z" />
    <glyph glyph-name="w" unicode="w" horiz-adv-x="1442" 
d="M1506 1082l-434 -1082h-278l-61 637l-286 -637h-278l-61 1082h309l-10 -644l277 644h230l53 -639l217 639h322z" />
    <glyph glyph-name="x" unicode="x" horiz-adv-x="1023" 
d="M438 1082l99 -296l199 296h356l-368 -542l198 -540h-329l-113 318l-212 -318h-359l387 570l-188 512h330z" />
    <glyph glyph-name="y" unicode="y" horiz-adv-x="1029" 
d="M492 -162q-64 -134 -154.5 -206t-228.5 -72q-59 0 -146 22l25 241h47q118 2 167 81l56 103l-175 1075h341l60 -607l279 607h364z" />
    <glyph glyph-name="z" unicode="z" horiz-adv-x="1023" 
d="M122 822l45 260h864l-34 -197l-571 -623l472 -2l-45 -260h-893l35 202l568 618z" />
    <glyph glyph-name="braceleft" unicode="{" horiz-adv-x="646" 
d="M148 310q4 36 4 53q0 62 -28 98.5t-94 41.5l23 228q169 6 197 213l32 227q58 327 407 429l49 -180q-78 -34 -117.5 -105t-56.5 -177l-31 -231q-33 -196 -230 -294q65 -46 98 -114.5t33 -148.5q0 -13 -2 -41l-27 -204q-9 -76 -9 -107q0 -62 19.5 -108t68.5 -72l-73 -177
q-144 48 -219 152.5t-75 249.5q0 32 3 63z" />
    <glyph glyph-name="bar" unicode="|" horiz-adv-x="508" 
d="M479 1456l-270 -1726h-179l270 1726h179z" />
    <glyph glyph-name="braceright" unicode="}" horiz-adv-x="646" 
d="M505 928q-4 -38 -4 -54q0 -62 28 -98.5t95 -41.5l-23 -228q-85 -3 -133 -55.5t-63 -141.5l-32 -232q-56 -336 -409 -440l-49 181q82 35 121.5 111t53.5 179l30 222q34 198 232 295q-67 45 -100 114t-33 151q0 13 2 39l27 204q9 79 9 109q0 62 -20 108t-69 72l74 174
q144 -48 219 -152t75 -249q0 -30 -3 -63z" />
    <glyph glyph-name="asciitilde" unicode="~" horiz-adv-x="1256" 
d="M1184 800q-7 -111 -48 -210t-115 -161q-39 -33 -86.5 -48t-97.5 -15q-40 0 -78 9t-66 24q-59 32 -111 88q-56 59 -82 74q-29 17 -61 17q-61 0 -95 -52t-45 -121l-231 3q7 112 48 209.5t115 158.5q35 29 81.5 45t98.5 16q71 0 141 -32t131 -99q33 -36 62.5 -57.5
t66.5 -22.5q61 0 95 52.5t45 121.5h232z" />
    <glyph glyph-name="uni00A0" unicode="&#xa0;" horiz-adv-x="505" 
 />
    <glyph glyph-name="exclamdown" unicode="&#xa1;" horiz-adv-x="598" 
d="M515 845q-25 -39 -67 -60.5t-92 -21.5q-49 0 -90 21t-65 59.5t-24 88.5t25 89t67 60.5t92 21.5q49 0 90 -21t65 -59.5t24 -88.5t-25 -89zM-46 -372l214 995h268l-130 -995h-352z" />
    <glyph glyph-name="cent" unicode="&#xa2;" horiz-adv-x="1174" 
d="M986 387q-6 -110 -58.5 -193t-139.5 -134.5t-196 -69.5l-49 -235h-196l49 235q-162 33 -239.5 158.5t-77.5 297.5q0 44 4 80l3 24q17 144 77 260t163.5 191t245.5 94l47 223h196l-48 -228q146 -35 216.5 -150t64.5 -273l-309 1q4 76 -24.5 126t-102.5 50
q-70 0 -112 -44.5t-61 -118.5q-17 -68 -25 -131l-10 -137l-1 -25q0 -149 119 -149q65 0 105 40t50 107z" />
    <glyph glyph-name="sterling" unicode="&#xa3;" horiz-adv-x="1193" 
d="M-3 0l47 269l90 -2q49 19 68.5 57t29.5 102l18 135h-159l46 261h151l27 217q15 131 80.5 229.5t170 152.5t236.5 54q134 0 231 -51.5t147 -148t48 -228.5l-321 1q3 72 -21 115t-91 43q-61 0 -95 -49t-45 -118l-25 -217h300l-46 -261h-287l-12 -111q-15 -105 -97 -184
l595 4l-46 -270h-1040z" />
    <glyph glyph-name="currency" unicode="&#xa4;" horiz-adv-x="1356" 
d="M1211 104l-149 -131l-101 133q-88 -63 -182.5 -94.5t-186.5 -31.5q-94 0 -178.5 32t-152.5 94l-153 -132l-123 158l155 126q-42 135 -42 264q0 261 176 455l-116 157l149 130l108 -143q171 112 341 112q197 0 334 -116l171 148l123 -159l-169 -138q46 -142 46 -276
q0 -44 -4 -77q-26 -204 -158 -360zM279 533q0 -96 38 -179t112 -133t175 -50q118 0 218.5 61t169.5 165q41 63 65 136t24 148q0 121 -63 225q-43 71 -112 104.5t-150 33.5q-57 0 -113.5 -15.5t-102.5 -43.5q-103 -63 -171 -165.5t-85 -220.5q-5 -37 -5 -66z" />
    <glyph glyph-name="yen" unicode="&#xa5;" horiz-adv-x="1075" 
d="M911 263h-264l-46 -263h-341l46 263h-295l34 189h293l18 100h-295l34 190h243l-174 714h335l92 -517l270 517h362l-424 -712l197 -2l-36 -190h-263l-17 -100h264z" />
    <glyph glyph-name="brokenbar" unicode="&#xa6;" horiz-adv-x="509" 
d="M548 1456l-132 -758h-286l132 758h286zM248 -270h-285l138 795h285z" />
    <glyph glyph-name="section" unicode="&#xa7;" horiz-adv-x="1263" 
d="M939 -278q-83 -87 -217 -125q-120 -35 -244 -35q-204 0 -356 98q-147 94 -144 316l326 -1q-2 -82 45.5 -115.5t136.5 -34.5q79 0 140.5 26.5t75.5 93.5q3 12 3 22q0 74 -122 113l-132 44q-157 55 -236 111.5t-111 127.5q-26 55 -26 131q0 54 15.5 105.5t46.5 89.5
q55 67 139 115q-45 52 -67.5 116.5t-22.5 132.5q0 76 26 145t73 115q83 81 203 122t249 41q143 0 253 -46.5t171.5 -142.5t59.5 -237h-326q2 91 -41.5 129.5t-113.5 38.5q-35 0 -72.5 -8.5t-67.5 -20.5q-41 -17 -63.5 -52.5t-22.5 -73.5q0 -20 6.5 -37.5t19.5 -28.5
q36 -33 90 -49l133 -42q154 -51 235 -107.5t115 -127.5q27 -58 27 -134q0 -200 -198 -310q87 -100 87 -247q0 -22 -1 -33q-9 -138 -92 -225zM724 342q44 35 66 75t22 77q0 42 -27 69q-36 36 -108 63l-182 63q-37 -32 -59 -75t-22 -84q0 -31 14.5 -56t43.5 -39
q70 -35 148 -61z" />
    <glyph glyph-name="dieresis" unicode="&#xa8;" horiz-adv-x="983" 
d="M231.5 1433.5q20.5 30.5 54.5 48t71 17.5q38 0 72 -17t55 -48t21 -70q0 -37 -20.5 -67.5t-54.5 -48t-71 -17.5t-71.5 17.5t-55.5 48.5t-21 69q0 37 20.5 67.5zM735.5 1433.5q20.5 30.5 54 48t70.5 17.5q38 0 72.5 -17t55.5 -48t21 -70q0 -37 -20.5 -67.5t-54.5 -48
t-71 -17.5t-71.5 17.5t-55.5 48.5t-21 69q0 37 20.5 67.5z" />
    <glyph glyph-name="copyright" unicode="&#xa9;" horiz-adv-x="1561" 
d="M231.5 1094.5q108.5 173.5 279.5 279.5q82 51 176 77t189 26q99 0 190 -28.5t162 -82.5q123 -96 190 -241t67 -310q0 -44 -4 -80q-21 -198 -130 -371.5t-280 -280.5q-82 -52 -175.5 -78t-189.5 -26q-99 0 -190.5 28.5t-161.5 83.5q-123 95 -189.5 240t-66.5 311
q0 44 4 80q21 199 129.5 372.5zM217 630q0 -129 48.5 -242t140.5 -189q55 -46 130.5 -70t158.5 -24q80 0 158.5 21.5t147.5 64.5q145 89 240 234t118 311q6 47 6 92q0 129 -48.5 242t-139.5 188q-56 46 -130.5 70t-158.5 24q-79 0 -158 -21.5t-148 -64.5
q-146 -89 -241 -233.5t-118 -310.5q-6 -46 -6 -92zM1077 597q-10 -148 -98 -231.5t-235 -83.5q-102 0 -172.5 47t-105.5 126t-35 175q0 26 1 39l12 119q11 106 57.5 194.5t127.5 141t188 52.5q98 0 168.5 -38.5t106.5 -110t35 -168.5l-152 2q1 8 1 25q0 76 -35.5 116
t-116.5 40q-98 0 -155 -73.5t-71 -179.5l-14 -121q-3 -24 -3 -51q0 -84 33 -140.5t111 -59.5q168 -7 200 179z" />
    <glyph glyph-name="ordfeminine" unicode="&#xaa;" horiz-adv-x="878" 
d="M616 702l-3 72q-91 -83 -201 -83q-66 0 -117.5 26t-80.5 74.5t-29 113.5q0 95 52 150.5t141 76.5q79 19 161 19l106 -2l12 55q4 26 4 38q0 86 -91 86q-110 0 -137 -99l-173 13q5 77 48.5 130t111 79t145.5 26q79 0 139 -30.5t93 -87t33 -132.5q0 -18 -1 -27l-53 -347
l-4 -59q-1 -43 8 -92h-164zM606 896l28 137h-83q-71 -3 -126 -30.5t-66 -87.5q-2 -12 -2 -18q0 -61 88 -64q70 0 161 63z" />
    <glyph glyph-name="guillemotleft" unicode="&#xab;" horiz-adv-x="1032" 
d="M256 114l-210 389l1 21l323 391h221l-307 -416l154 -382zM658 114l-210 389l1 21l323 391h221l-307 -416l154 -382z" />
    <glyph glyph-name="logicalnot" unicode="&#xac;" horiz-adv-x="1091" 
d="M156 805h812l-75 -431h-196l46 260h-617z" />
    <glyph glyph-name="uni00AD" unicode="&#xad;" horiz-adv-x="893" 
d="M758 758l-45 -261h-585l45 261h585z" />
    <glyph glyph-name="registered" unicode="&#xae;" horiz-adv-x="1561" 
d="M231.5 1094q108.5 173 279.5 279q83 51 177 77t190 26q99 0 190 -28t160 -82q123 -96 190 -241t67 -310q0 -44 -4 -80q-21 -198 -130 -371.5t-280 -280.5q-82 -52 -175.5 -78t-189.5 -26q-99 0 -190.5 28.5t-161.5 83.5q-123 95 -189.5 240t-66.5 311q0 44 4 80
q21 199 129.5 372zM216 628q0 -128 49.5 -240.5t140.5 -188.5q55 -46 130.5 -70t158.5 -24q80 0 158.5 21.5t147.5 64.5q145 89 240 234t118 311q6 47 6 92q0 129 -48.5 242t-139.5 188q-56 46 -130.5 70t-158.5 24q-79 0 -158 -21.5t-148 -64.5q-146 -89 -241 -233.5
t-118 -310.5q-7 -54 -7 -94zM641 653l-53 -337h-148l133 850l256 -1q80 -2 145.5 -29t105 -81t39.5 -134q0 -66 -34 -111t-97 -83q68 -55 68 -170q0 -14 -2 -42q-10 -86 -8 -119l4 -63l-1 -19l-148 1q-4 24 -4 55q0 53 12 146q2 22 2 32q0 49 -24 74.5t-79 28.5zM700 1033
l-38 -246l107 -1q75 3 134 31.5t72 91.5q3 18 3 32q0 50 -36 69t-101 22z" />
    <glyph glyph-name="macron" unicode="&#xaf;" horiz-adv-x="1034" 
d="M984 1458l-27 -173h-676l28 173h675z" />
    <glyph glyph-name="degree" unicode="&#xb0;" horiz-adv-x="790" 
d="M263.5 1326.5q38.5 68.5 104 109.5t143.5 41q71 0 129 -37t91 -98.5t33 -131.5q0 -77 -38 -144.5t-102.5 -108t-141.5 -40.5q-71 0 -130 36t-93 96.5t-34 130.5q0 78 38.5 146.5zM374 1172q0 -41 26.5 -71t67.5 -30q54 0 95.5 38.5t49.5 92.5q1 6 1 19q0 42 -24.5 72
t-66.5 31q-35 0 -67.5 -19t-54 -50.5t-26.5 -66.5q-1 -5 -1 -16z" />
    <glyph glyph-name="plusminus" unicode="&#xb1;" horiz-adv-x="1070" 
d="M987 703h-302l-55 -348h-286l55 348h-303l43 271h301l51 319h286l-50 -319h303zM900 265l-42 -264h-855l42 264h855z" />
    <glyph glyph-name="uni00B2" unicode="&#xb2;" horiz-adv-x="755" 
d="M720 842l-32 -175h-610l28 159l315 252q64 55 88 85q14 18 24 42t10 44q0 47 -60 47q-42 0 -68 -30.5t-36 -75.5l-222 -2q4 84 46.5 148t112 99t153.5 35q80 0 146.5 -25.5t107 -79.5t40.5 -134q0 -68 -32.5 -122t-78.5 -92t-119 -86l-30 -20l-98 -67z" />
    <glyph glyph-name="uni00B3" unicode="&#xb3;" horiz-adv-x="755" 
d="M336 999l26 142h72q47 3 82 24.5t43 64.5q1 4 1 12q0 25 -21.5 37.5t-51.5 12.5q-65 0 -90 -50l-227 -1q5 76 47.5 127.5t108.5 76t142 24.5q75 0 146 -21t118 -68.5t47 -123.5q0 -71 -42.5 -114t-118.5 -76q61 -20 90 -64.5t29 -100.5q0 -43 -16 -83t-42 -65
q-51 -48 -126 -72.5t-153 -24.5q-85 0 -154 28t-111 85.5t-44 140.5l214 -1q3 -40 28 -58t61 -18q22 0 45 6.5t40 15.5q22 13 35 36.5t13 47.5q0 29 -19 41q-25 16 -65 18z" />
    <glyph glyph-name="acute" unicode="&#xb4;" horiz-adv-x="671" 
d="M174 1222l241 314h367l-320 -314h-288z" />
    <glyph glyph-name="uni00B5" unicode="&#xb5;" horiz-adv-x="1275" 
d="M365 16l-84 -432h-329l260 1498h329l-103 -622q-6 -52 -6 -78q0 -64 27 -101.5t96 -37.5q109 0 185 90l133 749h329l-187 -1082h-296l6 54q-100 -76 -209 -76q-81 0 -151 38z" />
    <glyph glyph-name="paragraph" unicode="&#xb6;" horiz-adv-x="971" 
d="M756 0h-225l91 520l-61 1q-126 3 -220.5 54.5t-145.5 143t-51 211.5q0 33 2 50q13 145 86.5 253t191.5 166t262 58l322 -1z" />
    <glyph glyph-name="periodcentered" unicode="&#xb7;" horiz-adv-x="638" 
d="M173 773q25 39 67 60.5t92 21.5q48 0 89 -21.5t65 -60t24 -87.5q0 -50 -25 -89t-67 -60.5t-91 -21.5t-90 21t-65 59.5t-24 88.5t25 89z" />
    <glyph glyph-name="cedilla" unicode="&#xb8;" horiz-adv-x="553" 
d="M1 9l248 3l-20 -67q125 -26 125 -162q0 -99 -60.5 -156t-161.5 -79q-98 -21 -176 -22l12 188q91 12 104 84q1 4 1 12q0 30 -26.5 39.5t-53.5 11.5t-35 3z" />
    <glyph glyph-name="uni00B9" unicode="&#xb9;" horiz-adv-x="755" 
d="M667 1454l-128 -787h-219l92 529l-178 -36l32 177l376 116z" />
    <glyph glyph-name="ordmasculine" unicode="&#xba;" horiz-adv-x="911" 
d="M200 1120q10 101 58 182t128 128t181 47q96 0 166 -43t106.5 -117t36.5 -166q0 -20 -1 -30l-7 -77q-10 -101 -57.5 -181.5t-127 -127t-180.5 -46.5q-96 0 -166 43t-107 117t-37 165q0 20 1 30zM366 1041q-2 -24 -2 -36q0 -75 31 -123t105 -48q81 0 131.5 61.5t63.5 148.5
l9 78q2 26 2 38q0 74 -31.5 121.5t-105.5 47.5q-82 0 -132 -60.5t-62 -147.5z" />
    <glyph glyph-name="guillemotright" unicode="&#xbb;" horiz-adv-x="1032" 
d="M316 916l210 -389v-20l-324 -392h-221l306 416l-153 382zM717 916l210 -389v-20l-324 -392h-221l306 416l-153 382z" />
    <glyph glyph-name="onequarter" unicode="&#xbc;" horiz-adv-x="1418" 
d="M636 1451l-128 -787h-219l91 529l-177 -36l31 177l377 116zM1254 1245l-878 -1126l-153 87l877 1126zM1250 157h-77l-28 -157h-220l28 157h-322l12 160l409 472h231l-79 -454h77zM858 337l128 -3l40 194l-20 -25z" />
    <glyph glyph-name="onehalf" unicode="&#xbd;" horiz-adv-x="1501" 
d="M614 1459l-128 -787h-219l91 529l-177 -36l31 177l377 116zM1215 1245l-878 -1126l-153 87l877 1126zM1354 175l-32 -175h-610l28 159l315 252q64 55 88 85q14 18 24 42t10 44q0 47 -60 47q-42 0 -68 -30.5t-36 -75.5l-222 -2q4 84 46 148t111.5 99t154.5 35
q80 0 146 -25.5t106.5 -79t40.5 -132.5q0 -70 -33 -124.5t-80 -93t-121 -87.5l-25 -17l-98 -67z" />
    <glyph glyph-name="threequarters" unicode="&#xbe;" horiz-adv-x="1648" 
d="M378 999l26 142h72q47 3 82 24.5t43 64.5q1 4 1 11q0 26 -22 38.5t-52 12.5q-64 0 -89 -50l-227 -1q5 76 47.5 127.5t108 76t142.5 24.5q75 0 146 -21t118 -69t47 -124q0 -70 -42.5 -113t-118.5 -76q61 -20 90 -64.5t29 -100.5q0 -43 -16 -83t-42 -65q-51 -48 -126 -72.5
t-153 -24.5q-86 0 -155 28t-110.5 85.5t-43.5 140.5l214 -1q3 -40 27.5 -58t60.5 -18q23 0 45.5 6t39.5 16q22 13 35 37t13 47q0 29 -19 41q-25 16 -64 18zM1430 1245l-878 -1126l-153 87l877 1126zM1442 157h-77l-28 -157h-220l28 157h-322l12 160l409 472h231l-79 -454h77
zM1050 337l128 -3l40 194l-20 -25z" />
    <glyph glyph-name="questiondown" unicode="&#xbf;" horiz-adv-x="1013" 
d="M767 847.5q-25 -39.5 -67.5 -61.5t-92.5 -22q-48 0 -89 21t-65.5 59.5t-24.5 88.5q0 49 25 88t67 61t91 22q48 0 89.5 -21t66.5 -58.5t25 -86.5q0 -51 -25 -90.5zM674 632q-7 -125 -43 -213.5t-121 -158.5q-79 -66 -114 -98t-59 -71t-32 -91q-2 -20 -2 -30
q0 -44 21.5 -71.5t68.5 -27.5q67 0 104.5 46.5t52.5 119.5l329 2q-10 -137 -77.5 -234t-178 -145.5t-247.5 -44.5q-116 2 -208.5 42t-146 118.5t-53.5 191.5q0 23 1 35q5 82 44.5 149t92.5 117t138 116q8 7 24 19q60 47 77 121q16 72 56 106z" />
    <glyph glyph-name="Agrave" unicode="&#xc0;" horiz-adv-x="1353" 
d="M844 1846l144 -314l-246 1l-229 311zM-115 0l772 1456h322l270 -1456h-357l-34 272h-465l-129 -272h-379zM521 543h302l-63 503z" />
    <glyph glyph-name="Aacute" unicode="&#xc1;" horiz-adv-x="1353" 
d="M682 1532l241 314h367l-320 -314h-288zM-115 0l772 1456h322l270 -1456h-357l-34 272h-465l-129 -272h-379zM521 543h302l-63 503z" />
    <glyph glyph-name="Acircumflex" unicode="&#xc2;" horiz-adv-x="1353" 
d="M972 1846l288 -277v-22l-249 5l-131 135l-177 -134l-262 -4l-1 24l347 273h185zM-115 0l772 1456h322l270 -1456h-357l-34 272h-465l-129 -272h-379zM521 543h302l-63 503z" />
    <glyph glyph-name="Atilde" unicode="&#xc3;" horiz-adv-x="1353" 
d="M1257 1838q-4 -71 -32 -134.5t-80.5 -103t-124.5 -39.5q-73 0 -136 46q-58 43 -126 43q-41 0 -62 -24.5t-33 -67.5l-189 10q4 69 33.5 132.5t82.5 103.5t124 40q70 0 135 -45q60 -45 132 -42q39 1 60 24.5t35 66.5zM-115 0l772 1456h322l270 -1456h-357l-34 272h-465
l-129 -272h-379zM521 543h302l-63 503z" />
    <glyph glyph-name="Adieresis" unicode="&#xc4;" horiz-adv-x="1353" 
d="M482.5 1743.5q20.5 30.5 54.5 48t71 17.5q38 0 72 -17t55 -48t21 -70q0 -37 -20.5 -67.5t-54.5 -48t-71 -17.5t-71.5 17.5t-55.5 48.5t-21 69q0 37 20.5 67.5zM986.5 1743.5q20.5 30.5 54 48t70.5 17.5q38 0 72.5 -17t55.5 -48t21 -70q0 -37 -20.5 -67.5t-54.5 -48
t-71 -17.5t-71.5 17.5t-55.5 48.5t-21 69q0 37 20.5 67.5zM-115 0l772 1456h322l270 -1456h-357l-34 272h-465l-129 -272h-379zM521 543h302l-63 503z" />
    <glyph glyph-name="Aring" unicode="&#xc5;" horiz-adv-x="1353" 
d="M689 1831q31 48 82.5 75t110.5 27q56 0 104.5 -25.5t78 -71t29.5 -102.5q0 -59 -31.5 -106t-83 -73t-109.5 -26q-56 0 -105 24.5t-78 69t-29 101.5q0 59 31 107zM795.5 1648q20.5 -23 56.5 -23q34 0 62.5 17.5t45.5 47t17 62.5q0 36 -21 59.5t-58 23.5q-33 0 -61 -18.5
t-45 -48.5t-17 -62q0 -35 20.5 -58zM-115 0l772 1456h322l270 -1456h-357l-34 272h-465l-129 -272h-379zM521 543h302l-63 503z" />
    <glyph glyph-name="AE" unicode="&#xc6;" horiz-adv-x="1868" 
d="M1739 264l-46 -264h-872l44 329h-362l-205 -329h-396l965 1456h1019l-46 -264h-533l-42 -316h442l-46 -264h-431l-46 -348h555zM668 601l234 -2l62 470z" />
    <glyph glyph-name="Ccedilla" unicode="&#xc7;" horiz-adv-x="1304" 
d="M794.5 316q70.5 63 88.5 176l335 4q-14 -161 -104 -279t-235 -180q-98 -41 -206 -53l-12 -39q125 -26 125 -162q0 -99 -60.5 -156t-161.5 -79q-98 -21 -176 -22l12 188q91 12 104 84q1 4 1 12q0 30 -26.5 39.5t-53.5 11.5t-35 3l40 135q-101 27 -168 87
q-94 82 -140.5 205.5t-46.5 272.5q0 57 8 124l11 79q27 192 116 354.5t231 259.5q68 46 157.5 71.5t184.5 25.5q114 0 216.5 -37t171.5 -110q135 -142 148 -380l-341 1q4 125 -45 188t-173 63q-102 0 -167 -58t-102 -163q-61 -174 -73 -474q-1 -10 -1 -30q0 -225 194 -225
q113 0 183.5 63z" />
    <glyph glyph-name="Egrave" unicode="&#xc8;" horiz-adv-x="1112" 
d="M789 1846l144 -314l-246 1l-229 311zM2 0l252 1456h977l-47 -271h-634l-54 -307h535l-45 -261h-534l-61 -347h632l-47 -270h-974z" />
    <glyph glyph-name="Eacute" unicode="&#xc9;" horiz-adv-x="1112" 
d="M627 1532l241 314h367l-320 -314h-288zM2 0l252 1456h977l-47 -271h-634l-54 -307h535l-45 -261h-534l-61 -347h632l-47 -270h-974z" />
    <glyph glyph-name="Ecircumflex" unicode="&#xca;" horiz-adv-x="1112" 
d="M918 1846l288 -277v-22l-249 5l-131 135l-177 -134l-262 -4l-1 24l347 273h185zM2 0l252 1456h977l-47 -271h-634l-54 -307h535l-45 -261h-534l-61 -347h632l-47 -270h-974z" />
    <glyph glyph-name="Edieresis" unicode="&#xcb;" horiz-adv-x="1112" 
d="M427.5 1743.5q20.5 30.5 54.5 48t71 17.5q38 0 72 -17t55 -48t21 -70q0 -37 -20.5 -67.5t-54.5 -48t-71 -17.5t-71.5 17.5t-55.5 48.5t-21 69q0 37 20.5 67.5zM931.5 1743.5q20.5 30.5 54 48t70.5 17.5q38 0 72.5 -17t55.5 -48t21 -70q0 -37 -20.5 -67.5t-54.5 -48
t-71 -17.5t-71.5 17.5t-55.5 48.5t-21 69q0 37 20.5 67.5zM2 0l252 1456h977l-47 -271h-634l-54 -307h535l-45 -261h-534l-61 -347h632l-47 -270h-974z" />
    <glyph glyph-name="Igrave" unicode="&#xcc;" horiz-adv-x="600" 
d="M465 1846l144 -314l-246 1l-229 311zM619 1456l-252 -1456h-342l253 1456h341z" />
    <glyph glyph-name="Iacute" unicode="&#xcd;" horiz-adv-x="600" 
d="M302 1532l241 314h367l-320 -314h-288zM619 1456l-252 -1456h-342l253 1456h341z" />
    <glyph glyph-name="Icircumflex" unicode="&#xce;" horiz-adv-x="600" 
d="M593 1846l288 -277v-22l-249 5l-131 135l-177 -134l-262 -4l-1 24l347 273h185zM619 1456l-252 -1456h-342l253 1456h341z" />
    <glyph glyph-name="Idieresis" unicode="&#xcf;" horiz-adv-x="600" 
d="M102.5 1743.5q20.5 30.5 54.5 48t71 17.5q38 0 72 -17t55 -48t21 -70q0 -37 -20.5 -67.5t-54.5 -48t-71 -17.5t-71.5 17.5t-55.5 48.5t-21 69q0 37 20.5 67.5zM606.5 1743.5q20.5 30.5 54 48t70.5 17.5q38 0 72.5 -17t55.5 -48t21 -70q0 -37 -20.5 -67.5t-54.5 -48
t-71 -17.5t-71.5 17.5t-55.5 48.5t-21 69q0 37 20.5 67.5zM619 1456l-252 -1456h-342l253 1456h341z" />
    <glyph glyph-name="Eth" unicode="&#xd0;" horiz-adv-x="1315" 
d="M32 0l110 635h-138l34 191h137l109 630l437 -1q189 -4 321 -98.5t192 -255.5q43 -114 43 -247q0 -40 -5 -93l-5 -41q-27 -213 -131.5 -376.5t-266 -253.5t-354.5 -90h-483zM421 270l100 -1q118 0 201 59t129.5 156t63.5 215q15 104 15 185q0 73 -13.5 129.5t-43.5 98.5
q-50 68 -163 72l-130 1l-62 -359h231l-34 -191h-231z" />
    <glyph glyph-name="Ntilde" unicode="&#xd1;" horiz-adv-x="1395" 
d="M1282 1838q-4 -71 -32 -134.5t-80.5 -103t-124.5 -39.5q-73 0 -136 46q-58 43 -126 43q-41 0 -62 -24.5t-33 -67.5l-189 10q4 69 33.5 132.5t82.5 103.5t124 40q70 0 135 -45q60 -45 132 -42q39 1 60 24.5t35 66.5zM1436 1456l-253 -1456h-332l-347 919l-160 -919h-342
l252 1456h334l347 -919l159 919h342z" />
    <glyph glyph-name="Ograve" unicode="&#xd2;" horiz-adv-x="1372" 
d="M849 1846l144 -314l-246 1l-229 311zM1322 703q-27 -195 -119.5 -360t-241.5 -264q-72 -49 -162.5 -74t-184.5 -25q-99 0 -186.5 27.5t-148.5 80.5q-99 86 -149.5 215.5t-50.5 280.5q0 61 7 114l7 60q27 194 121 358t243 263q73 48 162 73t182 25q99 0 186.5 -27.5
t148.5 -80.5q99 -86 149.5 -215t50.5 -281q0 -45 -7 -110zM943.5 1125q-46.5 77 -162.5 77q-105 0 -175.5 -62.5t-110.5 -171.5q-72 -192 -69 -452q0 -115 45.5 -187.5t148.5 -75.5q109 -5 182.5 58t116.5 175q71 186 71 435q0 127 -46.5 204z" />
    <glyph glyph-name="Oacute" unicode="&#xd3;" horiz-adv-x="1372" 
d="M686 1532l241 314h367l-320 -314h-288zM1322 703q-27 -195 -119.5 -360t-241.5 -264q-72 -49 -162.5 -74t-184.5 -25q-99 0 -186.5 27.5t-148.5 80.5q-99 86 -149.5 215.5t-50.5 280.5q0 61 7 114l7 60q27 194 121 358t243 263q73 48 162 73t182 25q99 0 186.5 -27.5
t148.5 -80.5q99 -86 149.5 -215t50.5 -281q0 -45 -7 -110zM943.5 1125q-46.5 77 -162.5 77q-105 0 -175.5 -62.5t-110.5 -171.5q-72 -192 -69 -452q0 -115 45.5 -187.5t148.5 -75.5q109 -5 182.5 58t116.5 175q71 186 71 435q0 127 -46.5 204z" />
    <glyph glyph-name="Ocircumflex" unicode="&#xd4;" horiz-adv-x="1372" 
d="M977 1846l288 -277v-22l-249 5l-131 135l-177 -134l-262 -4l-1 24l347 273h185zM1322 703q-27 -195 -119.5 -360t-241.5 -264q-72 -49 -162.5 -74t-184.5 -25q-99 0 -186.5 27.5t-148.5 80.5q-99 86 -149.5 215.5t-50.5 280.5q0 61 7 114l7 60q27 194 121 358t243 263
q73 48 162 73t182 25q99 0 186.5 -27.5t148.5 -80.5q99 -86 149.5 -215t50.5 -281q0 -45 -7 -110zM943.5 1125q-46.5 77 -162.5 77q-105 0 -175.5 -62.5t-110.5 -171.5q-72 -192 -69 -452q0 -115 45.5 -187.5t148.5 -75.5q109 -5 182.5 58t116.5 175q71 186 71 435
q0 127 -46.5 204z" />
    <glyph glyph-name="Otilde" unicode="&#xd5;" horiz-adv-x="1372" 
d="M1261 1838q-4 -71 -32 -134.5t-80.5 -103t-124.5 -39.5q-73 0 -136 46q-58 43 -126 43q-41 0 -62 -24.5t-33 -67.5l-189 10q4 69 33.5 132.5t82.5 103.5t124 40q70 0 135 -45q60 -45 132 -42q39 1 60 24.5t35 66.5zM1322 703q-27 -195 -119.5 -360t-241.5 -264
q-72 -49 -162.5 -74t-184.5 -25q-99 0 -186.5 27.5t-148.5 80.5q-99 86 -149.5 215.5t-50.5 280.5q0 61 7 114l7 60q27 194 121 358t243 263q73 48 162 73t182 25q99 0 186.5 -27.5t148.5 -80.5q99 -86 149.5 -215t50.5 -281q0 -45 -7 -110zM943.5 1125q-46.5 77 -162.5 77
q-105 0 -175.5 -62.5t-110.5 -171.5q-72 -192 -69 -452q0 -115 45.5 -187.5t148.5 -75.5q109 -5 182.5 58t116.5 175q71 186 71 435q0 127 -46.5 204z" />
    <glyph glyph-name="Odieresis" unicode="&#xd6;" horiz-adv-x="1372" 
d="M486.5 1743.5q20.5 30.5 54.5 48t71 17.5q38 0 72 -17t55 -48t21 -70q0 -37 -20.5 -67.5t-54.5 -48t-71 -17.5t-71.5 17.5t-55.5 48.5t-21 69q0 37 20.5 67.5zM990.5 1743.5q20.5 30.5 54 48t70.5 17.5q38 0 72.5 -17t55.5 -48t21 -70q0 -37 -20.5 -67.5t-54.5 -48
t-71 -17.5t-71.5 17.5t-55.5 48.5t-21 69q0 37 20.5 67.5zM1322 703q-27 -195 -119.5 -360t-241.5 -264q-72 -49 -162.5 -74t-184.5 -25q-99 0 -186.5 27.5t-148.5 80.5q-99 86 -149.5 215.5t-50.5 280.5q0 61 7 114l7 60q27 194 121 358t243 263q73 48 162 73t182 25
q99 0 186.5 -27.5t148.5 -80.5q99 -86 149.5 -215t50.5 -281q0 -45 -7 -110zM943.5 1125q-46.5 77 -162.5 77q-105 0 -175.5 -62.5t-110.5 -171.5q-72 -192 -69 -452q0 -115 45.5 -187.5t148.5 -75.5q109 -5 182.5 58t116.5 175q71 186 71 435q0 127 -46.5 204z" />
    <glyph glyph-name="multiply" unicode="&#xd7;" horiz-adv-x="1051" 
d="M954 368l-205 -171l-232 299l-336 -298l-167 196l344 306l-238 305l205 171l232 -299l336 298l168 -196l-345 -306z" />
    <glyph glyph-name="Oslash" unicode="&#xd8;" horiz-adv-x="1368" 
d="M335 46l-109 -141l-222 1l193 248q-109 181 -109 413q0 71 8 131l8 59q27 195 120.5 359t243.5 263q76 51 164 75t178 24q79 0 154 -18t136 -49l84 107l221 -1l-168 -213q112 -183 112 -416q0 -58 -8 -128l-8 -61q-27 -196 -120.5 -359.5t-243.5 -262.5
q-149 -98 -347 -98q-160 0 -287 67zM442 698q-20 -141 -22 -229l510 695q-24 19 -60.5 30t-77.5 11q-47 0 -92 -15.5t-81 -48.5q-124 -115 -167 -381zM503 294q23 -20 59.5 -32t78.5 -12q46 0 89 14t78 44q70 60 113.5 161t68.5 252t27 271z" />
    <glyph glyph-name="Ugrave" unicode="&#xd9;" horiz-adv-x="1320" 
d="M819 1846l144 -314l-246 1l-229 311zM1021 1456h342l-162 -950q-23 -164 -105.5 -282.5t-213.5 -181.5t-296 -63q-148 0 -261.5 55t-177 158t-63.5 242q0 39 4 71l162 951h343l-161 -952q-4 -28 -4 -62q0 -192 181 -192q107 0 169 68t80 181z" />
    <glyph glyph-name="Uacute" unicode="&#xda;" horiz-adv-x="1320" 
d="M656 1532l241 314h367l-320 -314h-288zM1021 1456h342l-162 -950q-23 -164 -105.5 -282.5t-213.5 -181.5t-296 -63q-148 0 -261.5 55t-177 158t-63.5 242q0 39 4 71l162 951h343l-161 -952q-4 -28 -4 -62q0 -192 181 -192q107 0 169 68t80 181z" />
    <glyph glyph-name="Ucircumflex" unicode="&#xdb;" horiz-adv-x="1320" 
d="M947 1846l288 -277v-22l-249 5l-131 135l-177 -134l-262 -4l-1 24l347 273h185zM1021 1456h342l-162 -950q-23 -164 -105.5 -282.5t-213.5 -181.5t-296 -63q-148 0 -261.5 55t-177 158t-63.5 242q0 39 4 71l162 951h343l-161 -952q-4 -28 -4 -62q0 -192 181 -192
q107 0 169 68t80 181z" />
    <glyph glyph-name="Udieresis" unicode="&#xdc;" horiz-adv-x="1320" 
d="M456.5 1743.5q20.5 30.5 54.5 48t71 17.5q38 0 72 -17t55 -48t21 -70q0 -37 -20.5 -67.5t-54.5 -48t-71 -17.5t-71.5 17.5t-55.5 48.5t-21 69q0 37 20.5 67.5zM960.5 1743.5q20.5 30.5 54 48t70.5 17.5q38 0 72.5 -17t55.5 -48t21 -70q0 -37 -20.5 -67.5t-54.5 -48
t-71 -17.5t-71.5 17.5t-55.5 48.5t-21 69q0 37 20.5 67.5zM1021 1456h342l-162 -950q-23 -164 -105.5 -282.5t-213.5 -181.5t-296 -63q-148 0 -261.5 55t-177 158t-63.5 242q0 39 4 71l162 951h343l-161 -952q-4 -28 -4 -62q0 -192 181 -192q107 0 169 68t80 181z" />
    <glyph glyph-name="Yacute" unicode="&#xdd;" horiz-adv-x="1247" 
d="M628 1532l241 314h367l-320 -314h-288zM506 1456l150 -630l369 630h384l-627 -949l-87 -507h-349l94 540l-292 915z" />
    <glyph glyph-name="Thorn" unicode="&#xde;" horiz-adv-x="1228" 
d="M386 278l-49 -278h-329l252 1456h330l-45 -258l174 -1q134 -3 243.5 -50.5t174.5 -140t65 -223.5q0 -24 -1 -37q-12 -155 -97.5 -260.5t-226.5 -158.5q-135 -50 -281 -50zM500 938l-69 -400l176 -2q103 2 176 56t88 152q3 21 3 39q0 70 -43.5 110.5t-120.5 43.5z" />
    <glyph glyph-name="germandbls" unicode="&#xdf;" horiz-adv-x="1290" 
d="M355 0h-329l187 1099q20 149 95 254t194 158t270 50q106 -2 194 -44t140 -119.5t52 -181.5q0 -122 -69 -211q-38 -49 -58.5 -101.5t-20.5 -102.5q0 -65 35 -116l103 -148q51 -74 47 -159q-7 -133 -77 -223t-181 -133.5t-242 -43.5q-164 0 -276 52l82 254q80 -45 192 -45
q65 0 115 36t62 98q3 18 3 34q0 56 -38 106l-109 139q-46 62 -46 147q0 50 17 101t49 94q59 82 71 183q1 7 1 20q0 48 -30.5 78.5t-82.5 30.5q-74 0 -111 -57t-54 -154z" />
    <glyph glyph-name="agrave" unicode="&#xe0;" horiz-adv-x="1055" 
d="M631 1536l144 -314l-246 1l-229 311zM594 0q-14 45 -13 99q-55 -60 -122.5 -90t-138.5 -30q-65 0 -125.5 24t-108.5 67q-46 41 -68.5 99.5t-22.5 123.5q0 66 23 127t65 101q77 74 194.5 107.5t251.5 33.5l110 -2l12 61q4 30 4 44q0 46 -22 74.5t-72 28.5
q-105 0 -130 -119l-330 -1q6 120 79 201t192 120q110 35 211 35q83 0 160 -25t141 -79q101 -89 101 -239q0 -15 -2 -45l-74 -463l-13 -108q-2 -18 -2 -28q0 -49 22 -98l-1 -19h-321zM583 306l33 175l-85 1q-79 -2 -135.5 -46t-67.5 -122q-1 -7 -1 -20q0 -76 88 -76
q94 0 168 88z" />
    <glyph glyph-name="aacute" unicode="&#xe1;" horiz-adv-x="1055" 
d="M469 1222l241 314h367l-320 -314h-288zM594 0q-14 45 -13 99q-55 -60 -122.5 -90t-138.5 -30q-65 0 -125.5 24t-108.5 67q-46 41 -68.5 99.5t-22.5 123.5q0 66 23 127t65 101q77 74 194.5 107.5t251.5 33.5l110 -2l12 61q4 30 4 44q0 46 -22 74.5t-72 28.5
q-105 0 -130 -119l-330 -1q6 120 79 201t192 120q110 35 211 35q83 0 160 -25t141 -79q101 -89 101 -239q0 -15 -2 -45l-74 -463l-13 -108q-2 -18 -2 -28q0 -49 22 -98l-1 -19h-321zM583 306l33 175l-85 1q-79 -2 -135.5 -46t-67.5 -122q-1 -7 -1 -20q0 -76 88 -76
q94 0 168 88z" />
    <glyph glyph-name="acircumflex" unicode="&#xe2;" horiz-adv-x="1055" 
d="M759 1536l288 -277v-22l-249 5l-131 135l-177 -134l-262 -4l-1 24l347 273h185zM594 0q-14 45 -13 99q-55 -60 -122.5 -90t-138.5 -30q-65 0 -125.5 24t-108.5 67q-46 41 -68.5 99.5t-22.5 123.5q0 66 23 127t65 101q77 74 194.5 107.5t251.5 33.5l110 -2l12 61
q4 30 4 44q0 46 -22 74.5t-72 28.5q-105 0 -130 -119l-330 -1q6 120 79 201t192 120q110 35 211 35q83 0 160 -25t141 -79q101 -89 101 -239q0 -15 -2 -45l-74 -463l-13 -108q-2 -18 -2 -28q0 -49 22 -98l-1 -19h-321zM583 306l33 175l-85 1q-79 -2 -135.5 -46t-67.5 -122
q-1 -7 -1 -20q0 -76 88 -76q94 0 168 88z" />
    <glyph glyph-name="atilde" unicode="&#xe3;" horiz-adv-x="1055" 
d="M1044 1528q-4 -71 -32 -134.5t-80.5 -103t-124.5 -39.5q-73 0 -136 46q-58 43 -126 43q-41 0 -62 -24.5t-33 -67.5l-189 10q4 69 33.5 132.5t82.5 103.5t124 40q70 0 135 -45q60 -45 132 -42q39 1 60 24.5t35 66.5zM594 0q-14 45 -13 99q-55 -60 -122.5 -90t-138.5 -30
q-65 0 -125.5 24t-108.5 67q-46 41 -68.5 99.5t-22.5 123.5q0 66 23 127t65 101q77 74 194.5 107.5t251.5 33.5l110 -2l12 61q4 30 4 44q0 46 -22 74.5t-72 28.5q-105 0 -130 -119l-330 -1q6 120 79 201t192 120q110 35 211 35q83 0 160 -25t141 -79q101 -89 101 -239
q0 -15 -2 -45l-74 -463l-13 -108q-2 -18 -2 -28q0 -49 22 -98l-1 -19h-321zM583 306l33 175l-85 1q-79 -2 -135.5 -46t-67.5 -122q-1 -7 -1 -20q0 -76 88 -76q94 0 168 88z" />
    <glyph glyph-name="adieresis" unicode="&#xe4;" horiz-adv-x="1055" 
d="M269.5 1433.5q20.5 30.5 54.5 48t71 17.5q38 0 72 -17t55 -48t21 -70q0 -37 -20.5 -67.5t-54.5 -48t-71 -17.5t-71.5 17.5t-55.5 48.5t-21 69q0 37 20.5 67.5zM773.5 1433.5q20.5 30.5 54 48t70.5 17.5q38 0 72.5 -17t55.5 -48t21 -70q0 -37 -20.5 -67.5t-54.5 -48
t-71 -17.5t-71.5 17.5t-55.5 48.5t-21 69q0 37 20.5 67.5zM594 0q-14 45 -13 99q-55 -60 -122.5 -90t-138.5 -30q-65 0 -125.5 24t-108.5 67q-46 41 -68.5 99.5t-22.5 123.5q0 66 23 127t65 101q77 74 194.5 107.5t251.5 33.5l110 -2l12 61q4 30 4 44q0 46 -22 74.5
t-72 28.5q-105 0 -130 -119l-330 -1q6 120 79 201t192 120q110 35 211 35q83 0 160 -25t141 -79q101 -89 101 -239q0 -15 -2 -45l-74 -463l-13 -108q-2 -18 -2 -28q0 -49 22 -98l-1 -19h-321zM583 306l33 175l-85 1q-79 -2 -135.5 -46t-67.5 -122q-1 -7 -1 -20q0 -76 88 -76
q94 0 168 88z" />
    <glyph glyph-name="aring" unicode="&#xe5;" horiz-adv-x="1055" 
d="M477 1521q31 48 82.5 75t110.5 27q56 0 104.5 -25.5t78 -71t29.5 -102.5q0 -59 -31.5 -106t-83 -73t-109.5 -26q-56 0 -105 24.5t-78 69t-29 101.5q0 59 31 107zM583.5 1338q20.5 -23 56.5 -23q34 0 62.5 17.5t45.5 47t17 62.5q0 36 -21 59.5t-58 23.5q-33 0 -61 -18.5
t-45 -48.5t-17 -62q0 -35 20.5 -58zM594 0q-14 45 -13 99q-55 -60 -122.5 -90t-138.5 -30q-65 0 -125.5 24t-108.5 67q-46 41 -68.5 99.5t-22.5 123.5q0 66 23 127t65 101q77 74 194.5 107.5t251.5 33.5l110 -2l12 61q4 30 4 44q0 46 -22 74.5t-72 28.5q-105 0 -130 -119
l-330 -1q6 120 79 201t192 120q110 35 211 35q83 0 160 -25t141 -79q101 -89 101 -239q0 -15 -2 -45l-74 -463l-13 -108q-2 -18 -2 -28q0 -49 22 -98l-1 -19h-321zM583 306l33 175l-85 1q-79 -2 -135.5 -46t-67.5 -122q-1 -7 -1 -20q0 -76 88 -76q94 0 168 88z" />
    <glyph glyph-name="ae" unicode="&#xe6;" horiz-adv-x="1678" 
d="M1521 98q-74 -61 -182 -89.5t-220 -28.5q-106 0 -199.5 31.5t-153.5 102.5q-82 -68 -176 -101t-189 -33q-82 0 -156.5 22.5t-129.5 62.5q-53 38 -80 99.5t-27 131.5t25.5 133.5t70.5 100.5q82 67 201.5 96.5t248.5 29.5l141 -1l10 49q3 18 3 36q0 47 -24.5 74.5
t-78.5 27.5q-55 0 -95.5 -26t-51.5 -76l-329 18q5 122 81.5 200.5t201.5 113.5q111 32 226 32q187 0 295 -92q67 43 148 66t161 23q101 0 184 -37t134 -112q78 -118 78 -268q0 -40 -4 -72l-27 -177h-614q-1 -8 -1 -24q0 -169 192 -169q67 0 131.5 17t141.5 49zM1097 793
q-50 -55 -82 -148h297l7 30q4 21 4 50q0 50 -21 83t-70 35q-85 5 -135 -50zM632 273l42 171l4 14l-123 -5q-76 -4 -139 -38.5t-75 -102.5q-2 -8 -2 -21q0 -42 32.5 -60.5t82.5 -19.5q74 0 178 62z" />
    <glyph glyph-name="ccedilla" unicode="&#xe7;" horiz-adv-x="1033" 
d="M693 668q3 77 -26 126t-104 49q-70 0 -111 -44.5t-59 -118.5q-17 -75 -23 -130l-1 -23l-8 -115q-8 -173 121 -173q65 0 105 40t50 107l309 1q-5 -107 -56.5 -192t-136 -138t-187.5 -70l-13 -42q125 -26 125 -162q0 -99 -60.5 -156t-161.5 -79q-98 -21 -176 -22l12 188
q91 12 104 84q1 4 1 12q0 30 -26.5 39.5t-53.5 11.5t-35 3l41 138q-140 45 -213.5 168.5t-73.5 290.5q0 33 3 66l4 32q18 151 88 274.5t186.5 196t267.5 72.5q132 0 227 -54.5t144 -152.5t46 -228z" />
    <glyph glyph-name="egrave" unicode="&#xe8;" horiz-adv-x="1083" 
d="M618 1537l144 -314l-246 1l-229 311zM949 168q-63 -93 -177 -140.5t-238 -47.5q-143 0 -255 61t-174 169.5t-62 245.5q0 16 2 46l4 39q16 157 88 284.5t193.5 202t279.5 74.5q137 0 234 -60t146 -163.5t49 -232.5q0 -41 -4 -74l-19 -137h-642q0 -89 50 -141.5t141 -52.5
q137 0 247 110zM472 791.5q-48 -54.5 -81 -146.5h329l6 29q3 20 3 37q0 59 -32.5 95t-95.5 37q-81 3 -129 -51.5z" />
    <glyph glyph-name="eacute" unicode="&#xe9;" horiz-adv-x="1083" 
d="M455 1223l241 314h367l-320 -314h-288zM949 168q-63 -93 -177 -140.5t-238 -47.5q-143 0 -255 61t-174 169.5t-62 245.5q0 16 2 46l4 39q16 157 88 284.5t193.5 202t279.5 74.5q137 0 234 -60t146 -163.5t49 -232.5q0 -41 -4 -74l-19 -137h-642q0 -89 50 -141.5
t141 -52.5q137 0 247 110zM472 791.5q-48 -54.5 -81 -146.5h329l6 29q3 20 3 37q0 59 -32.5 95t-95.5 37q-81 3 -129 -51.5z" />
    <glyph glyph-name="ecircumflex" unicode="&#xea;" horiz-adv-x="1083" 
d="M746 1537l288 -277v-22l-249 5l-131 135l-177 -134l-262 -4l-1 24l347 273h185zM949 168q-63 -93 -177 -140.5t-238 -47.5q-143 0 -255 61t-174 169.5t-62 245.5q0 16 2 46l4 39q16 157 88 284.5t193.5 202t279.5 74.5q137 0 234 -60t146 -163.5t49 -232.5q0 -41 -4 -74
l-19 -137h-642q0 -89 50 -141.5t141 -52.5q137 0 247 110zM472 791.5q-48 -54.5 -81 -146.5h329l6 29q3 20 3 37q0 59 -32.5 95t-95.5 37q-81 3 -129 -51.5z" />
    <glyph glyph-name="edieresis" unicode="&#xeb;" horiz-adv-x="1083" 
d="M255.5 1434.5q20.5 30.5 54.5 48t71 17.5q38 0 72 -17t55 -48t21 -70q0 -37 -20.5 -67.5t-54.5 -48t-71 -17.5t-71.5 17.5t-55.5 48.5t-21 69q0 37 20.5 67.5zM759.5 1434.5q20.5 30.5 54 48t70.5 17.5q38 0 72.5 -17t55.5 -48t21 -70q0 -37 -20.5 -67.5t-54.5 -48
t-71 -17.5t-71.5 17.5t-55.5 48.5t-21 69q0 37 20.5 67.5zM949 168q-63 -93 -177 -140.5t-238 -47.5q-143 0 -255 61t-174 169.5t-62 245.5q0 16 2 46l4 39q16 157 88 284.5t193.5 202t279.5 74.5q137 0 234 -60t146 -163.5t49 -232.5q0 -41 -4 -74l-19 -137h-642
q0 -89 50 -141.5t141 -52.5q137 0 247 110zM472 791.5q-48 -54.5 -81 -146.5h329l6 29q3 20 3 37q0 59 -32.5 95t-95.5 37q-81 3 -129 -51.5z" />
    <glyph glyph-name="igrave" unicode="&#xec;" horiz-adv-x="566" 
d="M393 1515l144 -314l-246 1l-229 311zM533 1082l-188 -1082h-330l188 1082h330z" />
    <glyph glyph-name="iacute" unicode="&#xed;" horiz-adv-x="566" 
d="M231 1201l241 314h367l-320 -314h-288zM533 1082l-188 -1082h-330l188 1082h330z" />
    <glyph glyph-name="icircumflex" unicode="&#xee;" horiz-adv-x="566" 
d="M521 1515l288 -277v-22l-249 5l-131 135l-177 -134l-262 -4l-1 24l347 273h185zM533 1082l-188 -1082h-330l188 1082h330z" />
    <glyph glyph-name="idieresis" unicode="&#xef;" horiz-adv-x="566" 
d="M31.5 1412.5q20.5 30.5 54.5 48t71 17.5q38 0 72 -17t55 -48t21 -70q0 -37 -20.5 -67.5t-54.5 -48t-71 -17.5t-71.5 17.5t-55.5 48.5t-21 69q0 37 20.5 67.5zM535.5 1412.5q20.5 30.5 54 48t70.5 17.5q38 0 72.5 -17t55.5 -48t21 -70q0 -37 -20.5 -67.5t-54.5 -48
t-71 -17.5t-71.5 17.5t-55.5 48.5t-21 69q0 37 20.5 67.5zM533 1082l-188 -1082h-330l188 1082h330z" />
    <glyph glyph-name="eth" unicode="&#xf0;" horiz-adv-x="1131" 
d="M252 39q-100 57 -156 155t-56 221q0 15 2 45q12 142 73.5 256t168 180t247.5 66q126 0 237 -65q-8 127 -85 242l-198 -112l-60 133l143 77q-72 57 -216 98l126 244q220 -52 371 -175l183 103l58 -133l-131 -69q75 -127 112.5 -255.5t37.5 -265.5q0 -58 -8 -128l-10 -70
q-24 -161 -104 -300t-206 -223q-130 -87 -302 -84q-127 3 -227 60zM369 419q0 -76 34.5 -128.5t110.5 -52.5q180 0 238 294l22 125q-53 65 -175 65q-102 0 -158.5 -75.5t-69.5 -187.5q-2 -26 -2 -40z" />
    <glyph glyph-name="ntilde" unicode="&#xf1;" horiz-adv-x="1121" 
d="M1086 1528q-4 -71 -32 -134.5t-80.5 -103t-124.5 -39.5q-73 0 -136 46q-58 43 -126 43q-41 0 -62 -24.5t-33 -67.5l-189 10q4 69 33.5 132.5t82.5 103.5t124 40q70 0 135 -45q60 -45 132 -42q39 1 60 24.5t35 66.5zM446 766l-136 -766h-329l188 1082l307 1l-22 -128
q125 148 301 148q120 0 188.5 -59t90.5 -162q13 -68 13 -129q0 -24 -4 -72l-114 -681h-331l115 683q3 23 3 43q0 56 -26.5 86t-89.5 30q-87 0 -154 -76z" />
    <glyph glyph-name="ograve" unicode="&#xf2;" horiz-adv-x="1116" 
d="M659 1536l144 -314l-246 1l-229 311zM43 545q17 156 89 283t193 200.5t277 73.5q146 0 249.5 -63.5t156 -173.5t52.5 -247q0 -32 -3 -65q-15 -163 -87.5 -293.5t-195 -205t-279.5 -74.5q-145 0 -248 63t-156 171.5t-53 245.5q0 31 3 64zM508 238q190 0 220 315q3 35 3 76
q0 105 -33 162q-15 25 -45 38.5t-66 13.5t-69.5 -13.5t-56.5 -39.5q-45 -51 -69.5 -139.5t-24.5 -200.5q0 -31 1 -47q6 -165 140 -165z" />
    <glyph glyph-name="oacute" unicode="&#xf3;" horiz-adv-x="1116" 
d="M497 1222l241 314h367l-320 -314h-288zM43 545q17 156 89 283t193 200.5t277 73.5q146 0 249.5 -63.5t156 -173.5t52.5 -247q0 -32 -3 -65q-15 -163 -87.5 -293.5t-195 -205t-279.5 -74.5q-145 0 -248 63t-156 171.5t-53 245.5q0 31 3 64zM508 238q190 0 220 315
q3 35 3 76q0 105 -33 162q-15 25 -45 38.5t-66 13.5t-69.5 -13.5t-56.5 -39.5q-45 -51 -69.5 -139.5t-24.5 -200.5q0 -31 1 -47q6 -165 140 -165z" />
    <glyph glyph-name="ocircumflex" unicode="&#xf4;" horiz-adv-x="1116" 
d="M787 1536l288 -277v-22l-249 5l-131 135l-177 -134l-262 -4l-1 24l347 273h185zM43 545q17 156 89 283t193 200.5t277 73.5q146 0 249.5 -63.5t156 -173.5t52.5 -247q0 -32 -3 -65q-15 -163 -87.5 -293.5t-195 -205t-279.5 -74.5q-145 0 -248 63t-156 171.5t-53 245.5
q0 31 3 64zM508 238q190 0 220 315q3 35 3 76q0 105 -33 162q-15 25 -45 38.5t-66 13.5t-69.5 -13.5t-56.5 -39.5q-45 -51 -69.5 -139.5t-24.5 -200.5q0 -31 1 -47q6 -165 140 -165z" />
    <glyph glyph-name="otilde" unicode="&#xf5;" horiz-adv-x="1116" 
d="M1072 1528q-4 -71 -32 -134.5t-80.5 -103t-124.5 -39.5q-73 0 -136 46q-58 43 -126 43q-41 0 -62 -24.5t-33 -67.5l-189 10q4 69 33.5 132.5t82.5 103.5t124 40q70 0 135 -45q60 -45 132 -42q39 1 60 24.5t35 66.5zM43 545q17 156 89 283t193 200.5t277 73.5
q146 0 249.5 -63.5t156 -173.5t52.5 -247q0 -32 -3 -65q-15 -163 -87.5 -293.5t-195 -205t-279.5 -74.5q-145 0 -248 63t-156 171.5t-53 245.5q0 31 3 64zM508 238q190 0 220 315q3 35 3 76q0 105 -33 162q-15 25 -45 38.5t-66 13.5t-69.5 -13.5t-56.5 -39.5
q-45 -51 -69.5 -139.5t-24.5 -200.5q0 -31 1 -47q6 -165 140 -165z" />
    <glyph glyph-name="odieresis" unicode="&#xf6;" horiz-adv-x="1116" 
d="M297.5 1433.5q20.5 30.5 54.5 48t71 17.5q38 0 72 -17t55 -48t21 -70q0 -37 -20.5 -67.5t-54.5 -48t-71 -17.5t-71.5 17.5t-55.5 48.5t-21 69q0 37 20.5 67.5zM801.5 1433.5q20.5 30.5 54 48t70.5 17.5q38 0 72.5 -17t55.5 -48t21 -70q0 -37 -20.5 -67.5t-54.5 -48
t-71 -17.5t-71.5 17.5t-55.5 48.5t-21 69q0 37 20.5 67.5zM43 545q17 156 89 283t193 200.5t277 73.5q146 0 249.5 -63.5t156 -173.5t52.5 -247q0 -32 -3 -65q-15 -163 -87.5 -293.5t-195 -205t-279.5 -74.5q-145 0 -248 63t-156 171.5t-53 245.5q0 31 3 64zM508 238
q190 0 220 315q3 35 3 76q0 105 -33 162q-15 25 -45 38.5t-66 13.5t-69.5 -13.5t-56.5 -39.5q-45 -51 -69.5 -139.5t-24.5 -200.5q0 -31 1 -47q6 -165 140 -165z" />
    <glyph glyph-name="divide" unicode="&#xf7;" horiz-adv-x="1132" 
d="M490 1170.5q25 38.5 67 59.5t91 21q48 0 89.5 -20t66 -57.5t24.5 -86.5t-25 -87t-67 -58.5t-91 -20.5q-47 0 -88.5 19.5t-66.5 56.5t-25 85q0 50 25 88.5zM1107 807l-43 -244h-1014l43 244h1014zM349.5 361.5q24.5 38.5 66.5 59.5t92 21q48 0 89.5 -20t66 -57.5
t24.5 -86.5t-25 -87t-67 -58.5t-91 -20.5q-48 0 -89.5 19.5t-66 56.5t-24.5 85q0 50 24.5 88.5z" />
    <glyph glyph-name="oslash" unicode="&#xf8;" horiz-adv-x="1117" 
d="M304 4l-100 -149l-190 1l152 219q-131 141 -131 367q0 38 5 86l2 22q19 156 94 282t198.5 199t281.5 73q92 0 182 -28l96 143l190 -1l-150 -215q126 -140 126 -365q0 -47 -4 -84l-2 -22q-20 -157 -95 -283t-198 -198.5t-281 -72.5q-89 0 -176 26zM348 370l310 469
q-28 7 -53 7q-191 0 -240 -317q-16 -90 -17 -159zM748 701l-304 -460l42 -5q73 -1 120 34.5t76 104t50 177.5q15 96 16 149z" />
    <glyph glyph-name="ugrave" unicode="&#xf9;" horiz-adv-x="1121" 
d="M671 1536l144 -314l-246 1l-229 311zM624 0l22 117q-59 -68 -137 -103t-159 -35q-78 0 -143 32t-100 90q-58 98 -58 223q0 28 3 58l117 700h329l-119 -704q-2 -18 -2 -25q0 -56 30.5 -84.5t78.5 -28.5q44 0 89.5 22t78.5 62l134 758h330l-188 -1082h-306z" />
    <glyph glyph-name="uacute" unicode="&#xfa;" horiz-adv-x="1121" 
d="M509 1222l241 314h367l-320 -314h-288zM624 0l22 117q-59 -68 -137 -103t-159 -35q-78 0 -143 32t-100 90q-58 98 -58 223q0 28 3 58l117 700h329l-119 -704q-2 -18 -2 -25q0 -56 30.5 -84.5t78.5 -28.5q44 0 89.5 22t78.5 62l134 758h330l-188 -1082h-306z" />
    <glyph glyph-name="ucircumflex" unicode="&#xfb;" horiz-adv-x="1121" 
d="M799 1536l288 -277v-22l-249 5l-131 135l-177 -134l-262 -4l-1 24l347 273h185zM624 0l22 117q-59 -68 -137 -103t-159 -35q-78 0 -143 32t-100 90q-58 98 -58 223q0 28 3 58l117 700h329l-119 -704q-2 -18 -2 -25q0 -56 30.5 -84.5t78.5 -28.5q44 0 89.5 22t78.5 62
l134 758h330l-188 -1082h-306z" />
    <glyph glyph-name="udieresis" unicode="&#xfc;" horiz-adv-x="1121" 
d="M309.5 1433.5q20.5 30.5 54.5 48t71 17.5q38 0 72 -17t55 -48t21 -70q0 -37 -20.5 -67.5t-54.5 -48t-71 -17.5t-71.5 17.5t-55.5 48.5t-21 69q0 37 20.5 67.5zM813.5 1433.5q20.5 30.5 54 48t70.5 17.5q38 0 72.5 -17t55.5 -48t21 -70q0 -37 -20.5 -67.5t-54.5 -48
t-71 -17.5t-71.5 17.5t-55.5 48.5t-21 69q0 37 20.5 67.5zM624 0l22 117q-59 -68 -137 -103t-159 -35q-78 0 -143 32t-100 90q-58 98 -58 223q0 28 3 58l117 700h329l-119 -704q-2 -18 -2 -25q0 -56 30.5 -84.5t78.5 -28.5q44 0 89.5 22t78.5 62l134 758h330l-188 -1082
h-306z" />
    <glyph glyph-name="yacute" unicode="&#xfd;" horiz-adv-x="1029" 
d="M461 1222l241 314h367l-320 -314h-288zM492 -162q-64 -134 -154.5 -206t-228.5 -72q-59 0 -146 22l25 241h47q118 2 167 81l56 103l-175 1075h341l60 -607l279 607h364z" />
    <glyph glyph-name="thorn" unicode="&#xfe;" horiz-adv-x="1115" 
d="M344 89l-98 -505h-331l339 1952h331l-106 -540q51 53 116.5 79.5t133.5 26.5q64 0 121 -23t95 -65q60 -66 88 -161.5t28 -203.5q0 -41 -5 -93l-2 -22q-17 -141 -74 -267.5t-153 -206.5q-96 -81 -239 -81q-155 0 -244 110zM452 760l-79 -436q16 -40 53 -62.5t82 -22.5
q48 0 91.5 25.5t70.5 75.5q57 103 64 329q2 173 -122 173q-94 0 -160 -82z" />
    <glyph glyph-name="ydieresis" unicode="&#xff;" horiz-adv-x="1029" 
d="M261.5 1433.5q20.5 30.5 54.5 48t71 17.5q38 0 72 -17t55 -48t21 -70q0 -37 -20.5 -67.5t-54.5 -48t-71 -17.5t-71.5 17.5t-55.5 48.5t-21 69q0 37 20.5 67.5zM765.5 1433.5q20.5 30.5 54 48t70.5 17.5q38 0 72.5 -17t55.5 -48t21 -70q0 -37 -20.5 -67.5t-54.5 -48
t-71 -17.5t-71.5 17.5t-55.5 48.5t-21 69q0 37 20.5 67.5zM492 -162q-64 -134 -154.5 -206t-228.5 -72q-59 0 -146 22l25 241h47q118 2 167 81l56 103l-175 1075h341l60 -607l279 607h364z" />
    <glyph glyph-name="dotlessi" unicode="&#x131;" horiz-adv-x="566" 
d="M533 1082l-188 -1082h-330l188 1082h330z" />
    <glyph glyph-name="OE" unicode="&#x152;" horiz-adv-x="1935" 
d="M1805 270l-47 -270h-864l-218 -18h-65q-167 3 -293 80t-189 211q-47 100 -47 217q0 43 6 86l47 304q26 177 122 312.5t244.5 210t328.5 74.5l73 -2l207 -19h903l-47 -271h-634l-54 -307h535l-46 -261h-533l-61 -347h632zM417 575q-5 -42 -5 -75q0 -111 51 -182t163 -76
l32 -1q59 0 162 10l177 955q-59 9 -96.5 13t-77.5 4q-74 0 -136 -22t-111 -77q-88 -97 -111 -242z" />
    <glyph glyph-name="oe" unicode="&#x153;" horiz-adv-x="1790" 
d="M1612 98q-78 -62 -187.5 -90t-225.5 -28q-213 0 -335 127q-77 -61 -173 -93.5t-193 -32.5q-109 0 -201 41.5t-147 123.5q-92 134 -92 310q0 39 4 72l2 22q20 156 95 282t197.5 198.5t279.5 72.5q100 0 188.5 -30t149.5 -94q74 60 163.5 91t179.5 31q99 0 182.5 -37
t135.5 -109q82 -117 82 -268q0 -32 -5 -75l-27 -177l-601 1q-1 -89 44 -141t138 -52q122 0 284 65zM1177 790q-42 -54 -75 -145h288l6 30q5 28 5 52q0 52 -25.5 84.5t-82.5 32.5q-74 0 -116 -54zM421.5 283q32.5 -45 106.5 -45q72 0 119 43.5t71 116.5q37 111 37 260
q0 185 -142 185q-77 0 -126.5 -52.5t-75.5 -154.5q-24 -87 -24 -197l1 -36q1 -75 33.5 -120z" />
    <glyph glyph-name="circumflex" unicode="&#x2c6;" horiz-adv-x="1003" 
d="M741 1536l288 -277v-22l-249 5l-131 135l-177 -134l-262 -4l-1 24l347 273h185z" />
    <glyph glyph-name="ring" unicode="&#x2da;" horiz-adv-x="655" 
d="M266 1396q31 48 82.5 75t110.5 27q56 0 104.5 -25.5t78 -71t29.5 -102.5q0 -59 -31.5 -106t-83 -73t-109.5 -26q-56 0 -105 24.5t-78 69t-29 101.5q0 59 31 107zM372.5 1213q20.5 -23 56.5 -23q34 0 62.5 17.5t45.5 47t17 62.5q0 36 -21 59.5t-58 23.5q-33 0 -61 -18.5
t-45 -48.5t-17 -62q0 -35 20.5 -58z" />
    <glyph glyph-name="tilde" unicode="&#x2dc;" horiz-adv-x="958" 
d="M999 1533q-4 -71 -32 -134.5t-80.5 -103t-124.5 -39.5q-73 0 -136 46q-58 43 -126 43q-41 0 -62 -24.5t-33 -67.5l-189 10q4 69 33.5 132.5t82.5 103.5t124 40q70 0 135 -45q60 -45 132 -42q39 1 60 24.5t35 66.5z" />
    <glyph glyph-name="uni0531" unicode="&#x531;" horiz-adv-x="1612" 
d="M1400 -33l-276 250q-85 -116 -219 -176.5t-307 -60.5q-154 0 -269.5 48.5t-179.5 142.5t-64 227q0 53 10 107l182 1031h352l-185 -1047q-5 -38 -5 -63q0 -176 186 -176q110 0 175.5 61t89.5 194l182 1031h351l-171 -966l213 -192z" />
    <glyph glyph-name="uni0532" unicode="&#x532;" horiz-adv-x="1413" 
d="M966 1031q7 39 7 77q0 92 -46.5 135t-139.5 43q-217 0 -261 -239l-67 -422h848l-41 -261h-848l-58 -364h-352l163 1031q27 168 112.5 286t219.5 178.5t306 60.5q156 0 272.5 -49t180 -144.5t63.5 -231.5q0 -53 -8 -100l-23 -145h-351z" />
    <glyph glyph-name="uni0533" unicode="&#x533;" horiz-adv-x="1641" 
d="M1566 455h-289l-72 -455h-351l72 455l5 29q-134 -62 -260 -62q-159 0 -277.5 53.5t-183 154t-64.5 238.5q0 44 8 98l7 46q26 165 122 288.5t243 189.5t324 66q158 0 276.5 -53.5t182.5 -153.5t64 -237q0 -33 -5 -76h1l-9 -57l-2 -13l-1 -6l-39 -244h289zM906 762.5
q73 65.5 98 182.5l13 86q2 14 2 41q0 99 -55 154t-156 55q-123 0 -199.5 -72.5t-97.5 -201.5l-6 -38q-5 -35 -5 -60q0 -99 56 -155.5t159 -56.5q118 0 191 65.5z" />
    <glyph glyph-name="uni0534" unicode="&#x534;" horiz-adv-x="1563" 
d="M1488 455h-288l-72 -455h-352l72 455l41 261h1l52 331q4 27 4 57q0 182 -189 182q-110 0 -175 -61t-86 -194l-59 -375h-351l59 375q27 168 113.5 286t222 178.5t308.5 60.5q154 0 269 -49t178 -144t63 -231q0 -54 -8 -101l-50 -315h288z" />
    <glyph glyph-name="uni0535" unicode="&#x535;" horiz-adv-x="1408" 
d="M463 489q-4 -27 -4 -57q0 -182 190 -182q110 0 174.5 61t85.5 194l23 145h351l-23 -145q-27 -169 -111 -286.5t-217 -178t-306 -60.5q-156 0 -273 49.5t-182 145.5t-65 232q0 44 8 98l64 406l11 67l88 558h352l-58 -364h849l-42 -261h-848z" />
    <glyph glyph-name="uni0536" unicode="&#x536;" horiz-adv-x="1457" 
d="M1174 617q-139 -128 -269 -187h15q110 0 188.5 -41t119 -117t40.5 -178q0 -41 -8 -92v-2h-351q3 20 3 37q0 62 -35 97t-94 35h-432l-27 -169h-351l48 300l20 130l27 169h351l-27 -169h34q101 31 210.5 84.5t222.5 178t144 319.5q6 39 6 73q0 100 -52.5 150.5t-152.5 50.5
q-119 0 -189.5 -62t-91.5 -195l-20 -123h-351l20 125q27 169 114 286.5t224.5 178t315.5 60.5q159 0 280 -53t188 -155.5t67 -246.5q0 -51 -9 -107q-39 -249 -178 -377z" />
    <glyph glyph-name="uni0537" unicode="&#x537;" horiz-adv-x="1309" 
d="M539 911l-103 -650h131q137 0 240 -47t159.5 -132t56.5 -194q0 -38 -5 -67h-351q2 18 2 27q0 69 -56.5 110.5t-161.5 41.5h-407l41 261l103 650l7 45l92 580h351l-58 -364h741l-42 -261h-740z" />
    <glyph glyph-name="uni0538" unicode="&#x538;" horiz-adv-x="1432" 
d="M1081.5 1507q116.5 -49 180 -144.5t63.5 -231.5q0 -53 -8 -100l-59 -375h-351l59 375q7 39 7 77q0 92 -46.5 135t-139.5 43q-217 0 -261 -239l-125 -786h848l-41 -261h-1200l41 261l122 770q27 168 112.5 286t219.5 178.5t306 60.5q156 0 272.5 -49z" />
    <glyph glyph-name="uni0539" unicode="&#x539;" horiz-adv-x="1925" 
d="M1884 929l-43 -270h-187l-34 -218q-37 -235 -167 -348t-379 -113q-148 0 -251 51t-155.5 140.5t-52.5 203.5q0 39 6 81l4 26q35 220 178.5 333.5t390.5 113.5h151l5 32q3 23 3 43q0 82 -48.5 146t-133.5 100t-190 36q-123 0 -225.5 -40.5t-167 -111.5t-77.5 -157
l-155 -977h-352l152 961q27 168 127.5 302t281.5 213.5t438 79.5q225 0 383.5 -80t237.5 -206.5t79 -264.5q0 -31 -5 -68l-1 -8h187zM1302 659h-141q-75 0 -123 -50.5t-64 -148.5q-5 -33 -5 -56q0 -69 33 -105.5t96 -36.5q75 0 115 42t55 137z" />
    <glyph glyph-name="uni053A" unicode="&#x53a;" horiz-adv-x="1580" 
d="M1550 911h-287l-58 -368q-31 -192 -105.5 -315.5t-204.5 -185.5t-325 -62q-155 0 -274 66.5t-185 183.5t-66 263q0 53 11 116l6 33q47 259 218 394.5t440 135.5h231l58 364h353l-58 -364h288zM910 911h-213q-238 0 -290 -331q-11 -71 -11 -121q0 -107 47 -158t150 -51
q82 0 132.5 29t80 91.5t46.5 172.5z" />
    <glyph glyph-name="uni053B" unicode="&#x53b;" horiz-adv-x="1386" 
d="M1075.5 1177.5q112.5 -48.5 173.5 -143t61 -228.5q0 -49 -9 -105l-53 -337h-352l56 353q4 27 4 57q0 182 -190 182q-106 0 -175.5 -79t-90.5 -216l-24 -151l-81 -510h-351l243 1536h351l-57 -363q114 53 228 53q154 0 266.5 -48.5z" />
    <glyph glyph-name="uni053C" unicode="&#x53c;" horiz-adv-x="1153" 
d="M847 214q103 -47 159.5 -132t56.5 -194q0 -38 -5 -67h-351q2 18 2 27q0 69 -56.5 110.5t-161.5 41.5h-447l41 261l202 1275h351l-202 -1275h171q137 0 240 -47z" />
    <glyph glyph-name="uni053D" unicode="&#x53d;" horiz-adv-x="1919" 
d="M1896 1172l-106 -668q-27 -168 -107.5 -285.5t-203.5 -178t-275 -60.5q-137 0 -243.5 49t-167.5 144.5t-61 229.5q0 54 8 101l65 407h-265l-144 -911h-352l144 911l7 45l92 580h352l-58 -364h618l-109 -684q-6 -45 -6 -82q0 -80 33 -118.5t109 -38.5q63 0 104.5 26
t67 81.5t40.5 147.5l106 668h352z" />
    <glyph glyph-name="uni053E" unicode="&#x53e;" horiz-adv-x="1642" 
d="M1669 1096h-276q68 -124 68 -285q0 -69 -11 -132l-9 -55q-33 -202 -130.5 -347t-246.5 -221t-333 -76q-164 0 -290 67.5t-195.5 191.5t-69.5 288q0 69 11 134l9 55q41 243 170 400q-128 36 -197 126.5t-69 217.5q0 37 6 76h351q-3 -19 -3 -38q0 -66 45 -103.5t144 -37.5
h222q14 1 42 1q26 0 38 -1h765zM1108 806q0 254 -233 254q-132 0 -217 -82t-112 -241l-17 -96q-10 -57 -10 -112q0 -125 59 -191t174 -66q133 0 221 95t116 270l9 55q10 68 10 114z" />
    <glyph glyph-name="uni053F" unicode="&#x53f;" horiz-adv-x="1443" 
d="M1317 865l-1 -6l-136 -859h-351l56 354q-102 -44 -207 -44q-156 0 -273 49.5t-182 145.5t-65 232q0 44 8 98l111 701h352l-113 -717q-4 -28 -4 -58q0 -181 189 -181q106 0 173.5 73t90.5 206l2 15l9 56l24 150h351l-33 -206z" />
    <glyph glyph-name="uni0540" unicode="&#x540;" horiz-adv-x="1297" 
d="M172 1536h501q158 0 272.5 -42.5t176 -124.5t61.5 -199q0 -35 -6 -76q-18 -115 -76 -189t-174 -115q100 -27 148 -94.5t48 -162.5q0 -38 -5 -66l-74 -467h-358l71 447q4 23 4 49q0 162 -207 162h-471l43 271h461q108 0 165 42t71 126q3 20 3 37q0 65 -45 98t-141 33h-511
z" />
    <glyph glyph-name="uni0541" unicode="&#x541;" horiz-adv-x="1498" 
d="M1135 1483.5q126 -72.5 191 -195.5t65 -273q0 -53 -9 -109l-4 -29q-18 -115 -68.5 -243t-129.5 -243q29 -27 65.5 -63t55.5 -55l52 -52l-245 -265q-88 110 -158 189q-219 -165 -496 -165q-127 0 -232 32.5t-169 103t-64 178.5q0 26 5 61q21 132 96.5 217.5t188 125.5
t247.5 40q184 0 395 -137q79 139 102 286l5 29q6 36 6 71q0 81 -28 149t-83 109t-131 41q-134 0 -211.5 -71.5t-95.5 -185.5l-7 -43h-350l7 45q26 163 113 280.5t234.5 181t351.5 63.5q175 0 301 -72.5zM340 346q0 -42 39.5 -66.5t107.5 -24.5q51 0 112.5 28.5t123.5 79.5
q-132 100 -223 100q-72 0 -111.5 -27t-47.5 -76q-1 -5 -1 -14z" />
    <glyph glyph-name="uni0542" unicode="&#x542;" horiz-adv-x="1573" 
d="M1457 261l-41 -261h-640l41 261l125 786q4 27 4 57q0 182 -189 182q-110 0 -175 -61t-86 -194l-59 -375h-351l59 375q27 168 115.5 286t227 178.5t311.5 60.5q154 0 266.5 -48.5t173.5 -143t61 -228.5q0 -49 -9 -105l-122 -770h288z" />
    <glyph glyph-name="uni0543" unicode="&#x543;" horiz-adv-x="1565" 
d="M909 1232.5q-100 -46.5 -175 -150.5h169q154 0 275.5 -64t190 -177.5t68.5 -255.5q0 -48 -7 -93l-78 -492h-1238l41 261l50 314q22 137 55 246h-216l41 261h281q130 241 333 357.5t454 116.5q102 0 194 -10t155.5 -21.5t63.5 -12.5l-63 -277q0 1 -51.5 12.5t-133 21.5
t-181.5 10q-128 0 -228 -46.5zM612 821q-34 -114 -56 -251l-49 -309h534l24 152q13 83 13 137q0 96 -34.5 155t-110 87.5t-201.5 28.5h-120z" />
    <glyph glyph-name="uni0544" unicode="&#x544;" horiz-adv-x="1571" 
d="M1670 1275h-288l-122 -770q-27 -169 -111 -286.5t-217 -178t-306 -60.5q-156 0 -273 49.5t-182 145.5t-65 232q0 44 8 98l163 1031h352l-166 -1047q-4 -27 -4 -57q0 -182 190 -182q110 0 174.5 61t85.5 194l122 770h-1l41 261h640z" />
    <glyph glyph-name="uni0545" unicode="&#x545;" horiz-adv-x="1391" 
d="M84 659l43 270h656q90 0 154 47t77 131q3 17 3 33q0 70 -52.5 108t-145.5 38q-67 0 -121 -20t-87 -56t-40 -81h-350q20 129 103 225.5t215.5 149t298.5 52.5q148 0 270 -54t192 -144t70 -195q0 -26 -4 -49q-19 -115 -85.5 -197t-173.5 -118q94 -31 146 -104.5t52 -178.5
q0 -34 -6 -72q-36 -230 -211.5 -347t-452.5 -117q-159 0 -288 49t-204 142t-75 220q0 33 6 69h352q-3 -16 -3 -33q0 -79 61 -128.5t170 -49.5q263 0 294 201q3 18 3 33q0 55 -29 95t-79.5 60.5t-112.5 20.5h-646z" />
    <glyph glyph-name="uni0546" unicode="&#x546;" horiz-adv-x="1537" 
d="M1481 880l-59 -375q-27 -169 -111 -286.5t-217 -178t-306 -60.5q-156 0 -273 49.5t-182 145.5t-65 232q0 44 8 98l122 770h-288l41 261h640l-41 -261l-125 -786q-4 -27 -4 -57q0 -182 190 -182q110 0 174.5 61t85.5 194l59 375h351z" />
    <glyph glyph-name="uni0547" unicode="&#x547;" horiz-adv-x="1337" 
d="M391 547q-6 -37 -6 -70q0 -105 56 -164t156 -59q119 0 189 60t91 193l7 44h351l-7 -46q-27 -169 -114 -286.5t-224.5 -178t-315.5 -60.5q-158 0 -281.5 63.5t-192 178.5t-68.5 265q0 51 9 105l9 53q30 190 154.5 308.5t289.5 183.5l-209 99l50 320l976 -463l-51 -320
l-487 231q-140 -44 -240 -142t-133 -265z" />
    <glyph glyph-name="uni0548" unicode="&#x548;" horiz-adv-x="1389" 
d="M973 1108q0 92 -46.5 135t-139.5 43q-217 0 -261 -239l-166 -1047h-352l163 1031q27 168 112.5 286t219.5 178.5t306 60.5q156 0 272.5 -49t180 -144.5t63.5 -231.5q0 -53 -8 -100l-163 -1031h-351l163 1031q7 39 7 77z" />
    <glyph glyph-name="uni0549" unicode="&#x549;" horiz-adv-x="1326" 
d="M1075.5 1506q121.5 -50 189.5 -149.5t68 -242.5q0 -55 -8 -103q-40 -252 -181 -404t-302 -231l216 -103l-51 -321l-963 461l51 321l432 -207q167 49 291 167t158 335q6 36 6 65q0 98 -56.5 145t-161.5 47q-119 0 -189.5 -62t-91.5 -195l-4 -23h-351l4 25
q27 168 115.5 286t228 178.5t317.5 60.5q161 0 282.5 -50z" />
    <glyph glyph-name="uni054A" unicode="&#x54a;" horiz-adv-x="1759" 
d="M1370.5 1492q156.5 -64 235 -177t78.5 -261q0 -42 -8 -93l-152 -961h-352l155 977q3 23 3 42q0 86 -54.5 148.5t-148.5 92.5l-128 -807h-352l128 808q-119 -35 -197 -112.5t-96 -187.5l-32 -203h-352l32 203q27 174 129.5 307.5t285.5 210.5t442 77q227 0 383.5 -64z" />
    <glyph glyph-name="uni054B" unicode="&#x54b;" horiz-adv-x="1456" 
d="M1251.5 705.5q-79.5 -122.5 -151 -181t-133.5 -96.5q144 -13 222 -102t78 -232q0 -41 -8 -92l-351 -2q3 20 3 37q0 62 -35 97t-94 35h-432l-27 -169h-351l40 250l28 180l24 149h351l-24 -149h21q7 2 47 12t95 31h-1q5 2 14 13.5t9 28.5q0 30 -41 67t-142 78
q-61 25 -114 70t-86 109.5t-33 142.5q0 26 5 59q26 163 114.5 279t228.5 176t318 60q161 0 283 -52t190 -153t68 -245q0 -49 -9 -105q-27 -173 -106.5 -295.5zM1016 1083q0 96 -59 149.5t-162 53.5q-75 0 -134 -29t-95 -80.5t-47 -117.5q-3 -16 -3 -32q0 -68 47.5 -112
t126.5 -76q69 -29 111.5 -59t66.5 -86q112 140 143 335q5 32 5 54z" />
    <glyph glyph-name="uni054C" unicode="&#x54c;" horiz-adv-x="1589" 
d="M1514 455h-288l-72 -455h-351l72 455h-1l41 261h1l50 315q7 39 7 77q0 92 -46.5 135t-139.5 43q-217 0 -261 -239l-166 -1047h-352l163 1031q27 168 112.5 286t220 178.5t306.5 60.5q156 0 272 -49t179.5 -144.5t63.5 -231.5q0 -53 -8 -100l-50 -315h288z" />
    <glyph glyph-name="uni054D" unicode="&#x54d;" horiz-adv-x="1369" 
d="M1072 1536h351l-182 -1031q-30 -169 -116 -286.5t-220 -178t-307 -60.5q-154 0 -269.5 48.5t-179.5 142.5t-64 227q0 53 10 107l182 1031h352l-185 -1047q-5 -38 -5 -63q0 -176 186 -176q110 0 175.5 61t89.5 194z" />
    <glyph glyph-name="uni054E" unicode="&#x54e;" horiz-adv-x="1579" 
d="M1463 261l-41 -261h-640l41 261h1l16 101q-112 -52 -228 -52q-154 0 -266.5 48.5t-173.5 143t-61 228.5q0 50 9 105l50 317h352l-52 -333q-4 -28 -4 -58q0 -181 189 -181q105 0 172.5 71t90.5 202l23 148l9 55l76 480h351l-85 -535l-21 -136l-2 -10l-94 -594h288z" />
    <glyph glyph-name="uni054F" unicode="&#x54f;" horiz-adv-x="1326" 
d="M347 492q-5 -33 -5 -57q0 -93 54 -142t150 -49q226 0 256 183q3 18 3 35q0 62 -48.5 106t-165.5 82q-158 51 -253.5 101.5t-146.5 121t-51 173.5q0 40 7 81q22 137 105 233.5t211 146t284 49.5q143 0 257.5 -46.5t180.5 -135.5t66 -213q0 -37 -6 -76h-349q4 24 4 50
q0 156 -178 156q-92 0 -152.5 -45.5t-72.5 -118.5q-2 -16 -2 -24q0 -48 31.5 -80t84 -54t143.5 -49q137 -41 225.5 -93t135 -127t46.5 -180q0 -40 -8 -91q-22 -140 -108 -241t-222.5 -154.5t-308.5 -53.5q-157 0 -276 49.5t-184.5 144.5t-65.5 228q0 47 7 90h352z" />
    <glyph glyph-name="uni0550" unicode="&#x550;" horiz-adv-x="1340" 
d="M973 1108q0 92 -46.5 135t-139.5 43q-217 0 -261 -239l-166 -1047h-352l163 1031q26 167 116.5 285.5t229.5 179t312 60.5q154 0 265.5 -48t171.5 -142t60 -228q0 -50 -9 -107l-59 -375h-351l59 375q7 39 7 77z" />
    <glyph glyph-name="uni0551" unicode="&#x551;" horiz-adv-x="1391" 
d="M127 929h238q-34 27 -51.5 68.5t-17.5 94.5q0 24 5 57q31 196 169 301.5t379 105.5q218 0 331 -87t113 -253q0 -45 -7 -87q-17 -103 -76 -186t-141 -129q68 -21 121.5 -69t83 -113.5t29.5 -138.5q0 -29 -4 -53q-37 -230 -211.5 -345t-457.5 -115q-169 0 -296.5 47.5
t-198.5 139t-71 218.5q0 36 6 75h352q-3 -21 -3 -40q0 -81 59.5 -126t173.5 -45q133 0 206.5 48.5t89.5 152.5q3 20 3 38q0 82 -61 126.5t-173 44.5h-633zM610 1059q0 -135 149 -135q92 0 141.5 48t63.5 138q4 24 4 51q0 139 -149 139q-176 0 -205 -190q-4 -24 -4 -51z" />
    <glyph glyph-name="uni0552" unicode="&#x552;" horiz-adv-x="775" 
d="M739 638h-298l-101 -638h-352l243 1536h352l-101 -637h298z" />
    <glyph glyph-name="uni0553" unicode="&#x553;" horiz-adv-x="1767" 
d="M987 184l-29 -184h-352l29 184h-9q-167 0 -290.5 55t-190.5 159.5t-67 250.5q0 51 9 108q29 184 129.5 318.5t255 205.5t342.5 71h6l29 184h352l-29 -184q177 0 300.5 -54.5t186.5 -159.5t63 -253q0 -63 -10 -126q-28 -177 -126.5 -307t-250 -199t-335.5 -69h-13z
M775 1070h-6q-143 0 -234 -75t-117 -238q-6 -40 -6 -74q0 -114 68.5 -165.5t199.5 -51.5zM1127 1070l-95 -604h8q138 0 227.5 71t113.5 222q7 41 7 81q0 119 -66.5 174.5t-186.5 55.5h-8z" />
    <glyph glyph-name="uni0554" unicode="&#x554;" horiz-adv-x="1466" 
d="M1131 1505.5q125 -50.5 194.5 -145.5t69.5 -224q0 -37 -6 -76l-7 -41q-24 -152 -113 -264t-230 -172t-318 -60q-137 0 -260 64l-27 -172h883l-42 -261h-883l-24 -154h-351l24 154h-194l42 261h194l94 594q0 7 1 10l7 41q24 152 112.5 264t229.5 172t317 60
q162 0 287 -50.5zM1041 1102q0 85 -56.5 132t-164.5 47q-118 0 -193.5 -60.5t-92.5 -165.5l-3 -19h1l-6 -37q-1 -8 -1 -23q0 -84 54 -131t164 -47q118 0 195.5 61.5t93.5 163.5l5 32q4 21 4 47z" />
    <glyph glyph-name="uni0555" unicode="&#x555;" horiz-adv-x="1413" 
d="M1303 737q-37 -230 -144.5 -401.5t-266 -263.5t-344.5 -92q-162 0 -282.5 69.5t-185.5 200.5t-65 311q0 83 15 176l9 61q37 231 144.5 402.5t266 263.5t345.5 92q161 0 281 -70t185.5 -201.5t65.5 -311.5q0 -82 -15 -175zM957 802q16 99 16 182q0 297 -221 297
q-132 0 -222.5 -121t-131.5 -358l-12 -70q-17 -102 -17 -178q0 -147 56 -223t166 -76q133 0 225.5 123.5t129.5 353.5z" />
    <glyph glyph-name="uni0556" unicode="&#x556;" horiz-adv-x="1693" 
d="M1340.5 938.5q123.5 -50.5 191 -144t67.5 -217.5q0 -36 -6 -75l-5 -35q-23 -147 -136.5 -257t-305 -170t-441.5 -60q-231 0 -386 53t-231.5 151.5t-76.5 235.5q0 45 7 86h355l-1 -8q-4 -32 -4 -45q0 -67 34 -109.5t86.5 -61t111.5 -18.5l72 454q-154 0 -263 41
t-165.5 118t-56.5 183q0 38 5 67q20 126 99.5 218t210 141.5t299.5 49.5h338l-87 -547h3q162 0 285.5 -50.5zM545 1097q0 -55 40 -81.5t129 -26.5l44 276q-100 0 -150 -33.5t-61 -104.5q-2 -11 -2 -30zM1242 545q0 86 -60.5 129.5t-169.5 43.5h-2l-72 -454h2q122 0 200 54
t95 161l4 24q3 23 3 42z" />
    <glyph glyph-name="uni0559" unicode="&#x559;" horiz-adv-x="600" 
d="M448 1608q-7 -43 -7 -87q0 -58 12 -106.5t33 -99.5l-160 -80q-55 57 -92 145.5t-37 174.5q0 29 4 52l26 164h246z" />
    <glyph glyph-name="uni055A" unicode="&#x55a;" horiz-adv-x="498" 
d="M521 1772l-26 -164q-15 -95 -86 -200t-156 -172l-136 80q51 71 84.5 138.5t47.5 154.5l26 163h246z" />
    <glyph glyph-name="uni055B" unicode="&#x55b;" horiz-adv-x="236" 
d="M198 1772l-391 -497h-277l311 497h357z" />
    <glyph glyph-name="uni055C" unicode="&#x55c;" horiz-adv-x="251" 
d="M-462 1311q7 48 36 109t76.5 113t108.5 71q79 25 111 68.5t43 113.5l1 9h300l-4 -25q-12 -77 -28.5 -130.5t-56 -99.5t-110.5 -67q-86 -25 -135.5 -86t-59.5 -124l-1 -9h-290z" />
    <glyph glyph-name="uni055D" unicode="&#x55d;" horiz-adv-x="359" 
d="M404 1275h-277l-233 497h357z" />
    <glyph glyph-name="uni055E" unicode="&#x55e;" horiz-adv-x="455" 
d="M72.5 1554q33.5 34 33.5 86q0 33 -20.5 52t-64.5 19q-35 0 -71 -23.5t-64.5 -72t-39.5 -117.5l-38 -243h-267l40 256q22 140 96 238t175.5 147.5t205.5 49.5q93 0 168.5 -29t120 -86.5t44.5 -141.5q0 -29 -4 -53q-14 -87 -66 -164t-149 -126t-234 -49l36 223
q65 0 98.5 34z" />
    <glyph glyph-name="uni055F" unicode="&#x55f;" horiz-adv-x="805" 
d="M271.5 1342q-86.5 43 -120.5 106t-34 131q0 23 3 42q12 74 60 147.5t136 123t212 49.5h78l-37 -234h-21q-50 0 -84 -22t-39 -57q-1 -5 -1 -16q0 -38 31 -59.5t86 -21.5h339l-36 -232h-339q-147 0 -233.5 43z" />
    <glyph glyph-name="uni0561" unicode="&#x561;" horiz-adv-x="1783" 
d="M1300 329l119 753h337l-171 -1082h-316l8 127q-68 -75 -146 -111t-175 -36q-103 0 -170 41t-91 122q-69 -83 -149.5 -123t-183.5 -40q-136 0 -214 71t-78 228q0 56 10 117l108 686h338l-108 -681q-5 -37 -5 -58q0 -60 27 -81.5t82 -21.5q101 0 164 89l118 753h337
l-107 -679q-6 -36 -6 -62q0 -59 27.5 -80t83.5 -21q95 0 161 89z" />
    <glyph glyph-name="uni0562" unicode="&#x562;" horiz-adv-x="1176" 
d="M781 682q5 32 5 52q0 62 -33 85t-100 23q-99 0 -158 -77l-84 -531h707l-37 -234h-707l-66 -416h-337l237 1498h316l-9 -126q69 74 147 110t174 36q138 0 216.5 -71t78.5 -228q0 -56 -10 -117l-38 -235h-339z" />
    <glyph glyph-name="uni0563" unicode="&#x563;" horiz-adv-x="1353" 
d="M1206 0h-224l-66 -416h-339l80 506q-112 -110 -263 -110q-112 0 -189 51.5t-115.5 143.5t-38.5 214q0 72 11 138l4 25q26 166 94 290t173.5 192t239.5 68q167 0 246 -136l42 116h292l-134 -848h224zM695 327l68 429q-29 86 -145 86q-92 0 -143 -78t-75 -233
q-10 -65 -10 -111q0 -180 131 -180q117 0 174 87z" />
    <glyph glyph-name="uni0564" unicode="&#x564;" horiz-adv-x="1373" 
d="M1226 0h-224l-66 -416h-339l101 634l2 16l71 448q5 32 5 52q0 62 -33 85t-100 23q-99 0 -158 -77l-121 -765h-337l171 1082h316l-9 -126q69 74 147 110t174 36q138 0 216.5 -71t78.5 -228q0 -56 -10 -117l-72 -452h224z" />
    <glyph glyph-name="uni0565" unicode="&#x565;" horiz-adv-x="1264" 
d="M438 380q-3 -19 -3 -37q0 -103 117 -103q118 0 178 85l49 306h338l-100 -631h-316l8 116q-65 -69 -137 -102.5t-162 -33.5q-148 0 -232.5 74t-84.5 227q0 53 8 101l109 689l2 11l72 454h337l-72 -454h707l-37 -234h-707z" />
    <glyph glyph-name="uni0566" unicode="&#x566;" horiz-adv-x="1243" 
d="M1177 -182l-37 -234h-563l80 506q-112 -110 -263 -110q-112 0 -189 51.5t-115.5 143.5t-38.5 214q0 72 11 138l4 25q26 166 94 290t173.5 192t239.5 68q167 0 246 -136l42 116h292l-200 -1264h224zM695 327l68 429q-29 86 -145 86q-92 0 -143 -78t-75 -233
q-10 -65 -10 -111q0 -180 131 -180q117 0 174 87z" />
    <glyph glyph-name="uni0567" unicode="&#x567;" horiz-adv-x="1104" 
d="M522 848l-97 -614h34q162 0 254 -62t92 -190q0 -25 -5 -62q-25 -158 -151 -234.5t-343 -76.5l37 234q56 0 89 24.5t33 68.5q0 32 -25 48t-72 16h-317l37 234l97 614l37 234l72 454h337l-72 -454h577l-37 -234h-577z" />
    <glyph glyph-name="uni0568" unicode="&#x568;" horiz-adv-x="1198" 
d="M781 682q5 32 5 52q0 62 -33 85t-100 23q-99 0 -158 -77l-150 -947h707l-37 -234h-1044l37 234l200 1264h316l-9 -126q69 74 147 110t174 36q138 0 216.5 -71t78.5 -228q0 -56 -10 -117l-109 -686h-339z" />
    <glyph glyph-name="uni0569" unicode="&#x569;" horiz-adv-x="1575" 
d="M1522 478h-134l-21 -133q-30 -187 -144 -276t-318 -89q-123 0 -211.5 36.5t-135.5 103t-47 154.5q0 23 5 55l4 24q17 105 79 186.5t164.5 127.5t236.5 46h78q-10 79 -78 114t-167 35q-76 0 -146.5 -13.5t-121 -35.5t-70.5 -48l-187 -1181h-337l237 1498h316l-9 -126
q80 79 189.5 112.5t258.5 33.5q123 0 229 -46.5t169 -135t60 -207.5h4v-1h134zM993 233.5q21 32.5 33 105.5l22 139h-49v1h-30q-91 0 -114 -144q-4 -21 -4 -45q0 -89 78 -89q43 0 64 32.5z" />
    <glyph glyph-name="uni056A" unicode="&#x56a;" horiz-adv-x="1309" 
d="M1342 848h-229l-52 -328q-44 -280 -186.5 -410t-395.5 -130q-140 0 -242 53t-156 149.5t-54 223.5q0 54 8 101l6 34q25 159 104.5 281.5t206.5 191t291 68.5h170l72 454h337l-72 -454h229zM776 848h-160q-98 0 -158 -88.5t-84 -239.5q-8 -53 -8 -94q0 -88 35 -137
t109 -49q66 0 108 31t66 91.5t40 157.5z" />
    <glyph glyph-name="uni056B" unicode="&#x56b;" horiz-adv-x="1225" 
d="M521 777l-189 -1193h-337l309 1952h337l-90 -569q66 69 135.5 102t151.5 33q147 0 231 -75t84 -237q0 -51 -9 -113l-107 -677h-339l107 674q5 33 5 53q0 64 -33.5 89.5t-99.5 25.5q-102 0 -156 -65z" />
    <glyph glyph-name="uni056C" unicode="&#x56c;" horiz-adv-x="637" 
d="M571 -182l-37 -234h-563l37 234l200 1264h337l-200 -1264h226z" />
    <glyph glyph-name="uni056D" unicode="&#x56d;" horiz-adv-x="1824" 
d="M1797 1082l-171 -1082h-316l8 116q-65 -69 -137 -102.5t-162 -33.5q-148 0 -232.5 74t-84.5 227q0 53 8 101l74 466h-252l-200 -1264h-337l200 1264l37 234l72 454h337l-72 -454h589l-111 -702q-3 -19 -3 -37q0 -103 117 -103q118 0 178 85l120 757h338z" />
    <glyph glyph-name="uni056E" unicode="&#x56e;" horiz-adv-x="1190" 
d="M1195 848h-137q37 -88 37 -195q0 -57 -10 -116l-1 -7q-42 -267 -194 -408.5t-404 -141.5q-145 0 -248 54t-156 151.5t-53 225.5q0 52 9 106l5 34q31 195 141.5 329t285.5 180q-49 58 -75.5 114t-26.5 120q0 26 4 47q8 52 21 95.5t23 68.5t13 31h337q-3 -5 -13 -26.5
t-22.5 -60.5t-20.5 -89q-3 -16 -3 -33q0 -47 22 -87.5t52 -71t93 -86.5h358zM753 601q0 69 -24 129t-68 118h-49h-1q-100 0 -155 -82.5t-79 -235.5q-10 -63 -10 -107q0 -183 150 -183q70 0 114 29t71.5 94.5t46.5 180.5q4 27 4 57z" />
    <glyph glyph-name="uni056F" unicode="&#x56f;" horiz-adv-x="1237" 
d="M613 -416l84 532q-55 -69 -126 -102.5t-161 -33.5q-148 0 -232.5 74t-84.5 227q0 53 8 101l183 1154h337l-183 -1156q-3 -19 -3 -37q0 -103 117 -103q118 0 178 85l120 757h338l-237 -1498h-338z" />
    <glyph glyph-name="uni0570" unicode="&#x570;" horiz-adv-x="1215" 
d="M511 777l-123 -777h-337l243 1536h337l-90 -569q66 69 135.5 102t151.5 33q147 0 231 -75t84 -237q0 -51 -9 -113l-107 -677h-339l107 674q5 33 5 53q0 64 -33.5 89.5t-99.5 25.5q-102 0 -156 -65z" />
    <glyph glyph-name="uni0571" unicode="&#x571;" horiz-adv-x="1111" 
d="M1046 1369.5q32 -33.5 32 -79.5q0 -11 -1 -17l-2 -9q-17 -102 -124 -169l-119 -76q106 -59 164 -169.5t58 -246.5q0 -37 -7 -91l-81 -512h-324l8 126l55 346q4 28 4 64q0 95 -35.5 173.5t-102.5 114.5q-86 -77 -130.5 -150t-65.5 -163q-3 -15 -7 -40q-4 -34 -4 -48
q0 -78 35 -130t93 -52q71 0 116 23.5t75 69.5l-33 -207q-49 -54 -85 -83.5t-85 -46.5t-120 -17q-95 0 -174.5 53.5t-125.5 147t-46 207.5q0 34 7 85q4 26 7 38q28 114 75 198t144.5 172.5t271.5 196.5l154 91h-122q-127 0 -192.5 58t-65.5 170q0 33 6 72l10 64h337
q-3 -16 -3 -32q0 -47 28.5 -72.5t83.5 -25.5h202q57 0 89 -33.5z" />
    <glyph glyph-name="uni0572" unicode="&#x572;" horiz-adv-x="1263" 
d="M1197 -182l-37 -234h-563l37 234l137 864q5 32 5 52q0 62 -33 85t-100 23q-99 0 -158 -77l-121 -765h-337l171 1082h316l-9 -126q69 74 147 110t174 36q138 0 216.5 -71t78.5 -228q0 -56 -10 -117l-138 -868h224z" />
    <glyph glyph-name="uni0573" unicode="&#x573;" horiz-adv-x="1290" 
d="M881 1287.5q-63 -18.5 -121 -67.5t-108 -138h114q137 0 236 -52t150.5 -145.5t51.5 -215.5q0 -44 -8 -97l-91 -572h-325l8 126q-58 -68 -143.5 -107t-176.5 -39q-100 0 -181 36t-128.5 109.5t-47.5 182.5q0 42 7 84q41 261 104 456h-124l37 234h179q118 238 299 356.5
t440 118.5q69 0 126.5 -8t94.5 -17t37 -10l-59 -244q0 1 -31.5 8.5t-83 13.5t-116.5 6q-77 0 -140 -18.5zM555 848q-56 -181 -100 -458q-2 -16 -2 -22q0 -58 46 -93t111 -35q67 0 124 27.5t88 73.5l30 191q5 28 5 64q0 75 -29.5 132t-86 88.5t-135.5 31.5h-51z" />
    <glyph glyph-name="uni0574" unicode="&#x574;" horiz-adv-x="1222" 
d="M1424 1302h-225l-206 -1302h-316l8 116q-65 -69 -137 -102.5t-162 -33.5q-148 0 -232.5 74t-84.5 227q0 53 8 101l111 700h337l-111 -702q-3 -19 -3 -37q0 -103 117 -103q118 0 178 85l192 1211h563z" />
    <glyph glyph-name="uni0575" unicode="&#x575;" horiz-adv-x="618" 
d="M254 1082h338l-177 -1117q-20 -128 -84 -218.5t-164.5 -137t-229.5 -46.5q-81 0 -158 17l41 255q54 -9 94 -9q142 0 163 139z" />
    <glyph glyph-name="uni0576" unicode="&#x576;" horiz-adv-x="1248" 
d="M1221 1082l-171 -1082h-316l8 116q-66 -70 -133.5 -103t-155.5 -33q-150 0 -238.5 75.5t-88.5 230.5q0 42 8 96l146 920h-226l37 234h563l-37 -234l-146 -922q-3 -19 -3 -37q0 -103 117 -103q118 0 178 85l120 757h338z" />
    <glyph glyph-name="uni0577" unicode="&#x577;" horiz-adv-x="1145" 
d="M299.5 -161.5q30.5 -21.5 79.5 -21.5h570l-37 -233h-570q-419 0 -419 269q0 35 5 64q18 114 76.5 191.5t133 125t199.5 107.5q63 30 76 37l61 30q84 40 136.5 71.5t93 78t50.5 109.5q3 21 3 38q0 67 -36 102t-96 35q-68 0 -117.5 -45t-62.5 -130l-5 -34h-337l9 55
q18 117 91 211.5t188.5 148.5t255.5 54t242.5 -46.5t156 -127t53.5 -180.5q0 -27 -5 -60q-24 -150 -96 -249.5t-159 -156.5t-220 -121l-68 -33l-57 -28q-72 -34 -117 -59.5t-76.5 -61t-31.5 -79.5q0 -40 30.5 -61.5z" />
    <glyph glyph-name="uni0578" unicode="&#x578;" horiz-adv-x="1190" 
d="M485 765l-121 -765h-337l171 1082h316l-9 -126q69 74 147 110t174 36q138 0 216.5 -71t78.5 -228q0 -56 -10 -117l-109 -686h-339l108 682q5 32 5 52q0 62 -33 85t-100 23q-99 0 -158 -77z" />
    <glyph glyph-name="uni0579" unicode="&#x579;" horiz-adv-x="883" 
d="M-42.5 57.5q56.5 73.5 130 136.5t195.5 157l92 71q21 17 21 38q0 12 -10 25q-25 26 -72 71q-52 49 -81 81.5t-47.5 71t-18.5 82.5q0 17 3 35q10 65 61 135.5t120 120.5h338l-37 -36q-55 -52 -84.5 -88t-35.5 -71q-2 -16 -2 -23q0 -43 25.5 -76t83.5 -82q55 -46 87 -80
q50 -51 50 -121q0 -53 -29.5 -107t-83.5 -100q-90 -76 -192 -158q-126 -102 -184 -155.5t-63 -84.5q-1 -5 -1 -15q0 -34 27.5 -51t76.5 -17h410l-37 -233h-463q-144 0 -252.5 53t-108.5 192q0 35 9 77q16 78 72.5 151.5z" />
    <glyph glyph-name="uni057A" unicode="&#x57a;" horiz-adv-x="1805" 
d="M1300 329l119 753h337l-237 -1498h-337l86 543q-60 -73 -141.5 -110t-180.5 -37q-203 0 -251 163q-136 -163 -343 -163q-282 0 -282 294q0 58 10 122l108 686h338l-108 -681q-5 -37 -5 -58q0 -60 27 -81.5t82 -21.5q101 0 164 89l118 753h337l-107 -679q-6 -36 -6 -62
q0 -59 27.5 -80t83.5 -21q95 0 161 89z" />
    <glyph glyph-name="uni057B" unicode="&#x57b;" horiz-adv-x="1143" 
d="M21.5 68.5q65.5 72.5 163.5 129.5q59 30 59 62q0 16 -11.5 32.5t-39.5 48.5q-34 38 -57.5 69.5t-40.5 76t-17 99.5q0 29 4 54q22 135 92 239t191 163.5t288 59.5q149 0 251 -48t152.5 -133t50.5 -196q0 -44 -7 -85q-27 -172 -108 -283t-177.5 -170.5t-236.5 -119.5
l-20 -9l-42 -18q-105 -45 -165 -79.5t-65 -70.5q-1 -6 -1 -17q0 -32 25.5 -44t76.5 -12h580l-37 -233h-633q-147 0 -254 54t-107 202q0 25 5 62q15 94 80.5 166.5zM417 605q0 -45 16.5 -77t47.5 -73q24 -30 36 -51.5t12 -46.5q0 -9 -1 -14q202 88 235 297q4 24 4 50
q0 74 -38.5 113t-106.5 39q-77 0 -132 -52.5t-70 -149.5q-3 -18 -3 -35z" />
    <glyph glyph-name="uni057C" unicode="&#x57c;" horiz-adv-x="1236" 
d="M1126 234l-37 -234h-563l37 234q0 -7 47.5 56.5t94 163.5t66.5 228q5 32 5 52q0 62 -33 85t-100 23q-99 0 -158 -77l-121 -765h-337l171 1082h316l-9 -126q69 74 147 110t174 36q138 0 216.5 -71t78.5 -228q0 -56 -10 -117q-22 -137 -68.5 -237.5t-93.5 -161t-47 -53.5
h224z" />
    <glyph glyph-name="uni057D" unicode="&#x57d;" horiz-adv-x="1191" 
d="M677 0l8 116q-127 -136 -309 -136q-145 0 -226.5 72.5t-81.5 223.5q0 49 9 106l111 700h337l-111 -702q-3 -19 -3 -37q0 -103 117 -103q118 0 178 85l120 757h338l-171 -1082h-316z" />
    <glyph glyph-name="uni057E" unicode="&#x57e;" horiz-adv-x="1255" 
d="M964 -182h225l-37 -234h-563l84 532q-54 -68 -129.5 -102t-167.5 -34q-145 0 -226.5 72.5t-81.5 223.5q0 49 9 106l111 700h337l-111 -702q-3 -19 -3 -37q0 -103 117 -103q118 0 178 85l192 1211h338z" />
    <glyph glyph-name="uni057F" unicode="&#x57f;" horiz-adv-x="1774" 
d="M1626.5 1030.5q78.5 -71.5 78.5 -228.5q0 -56 -10 -116l-109 -686h-338l108 681q5 37 5 58q0 60 -27 81.5t-82 21.5q-47 0 -85.5 -21t-77.5 -66l-119 -755h-337l18 115q-64 -65 -134.5 -100t-154.5 -35q-136 0 -214 71t-78 228q0 56 10 117l108 686h338l-108 -681
q-5 -37 -5 -58q0 -60 27 -81.5t82 -21.5q47 0 86 21t77 65l119 756h337l-18 -116q64 66 134 101t155 35q136 0 214.5 -71.5z" />
    <glyph glyph-name="uni0580" unicode="&#x580;" horiz-adv-x="1200" 
d="M495 765l-187 -1181h-337l237 1498h316l-9 -126q69 74 147 110t174 36q138 0 216.5 -71t78.5 -228q0 -56 -10 -117l-109 -686h-339l108 682q5 32 5 52q0 62 -33 85t-100 23q-99 0 -158 -77z" />
    <glyph glyph-name="uni0581" unicode="&#x581;" horiz-adv-x="1207" 
d="M165.5 -383.5q-104.5 42.5 -156.5 119.5l173 198q80 -111 231 -111q111 0 176 54t82 161l8 50q-112 -108 -263 -108q-115 0 -197 53t-124.5 148t-42.5 220q0 64 10 127l3 21q26 164 99.5 289.5t184.5 194.5t246 69q169 0 247 -113l26 93h306l-164 -1040
q-24 -147 -109 -252.5t-218 -160.5t-298 -55q-115 0 -219.5 42.5zM392 441q0 -92 38 -146.5t113 -54.5q110 0 172 74l72 454q-38 74 -147 74q-94 0 -155.5 -82t-85.5 -232q-7 -42 -7 -87z" />
    <glyph glyph-name="uni0582" unicode="&#x582;" horiz-adv-x="694" 
d="M584 234l-37 -234h-563l171 1082h337l-134 -848h226z" />
    <glyph glyph-name="uni0583" unicode="&#x583;" horiz-adv-x="1774" 
d="M1626.5 1030.5q78.5 -71.5 78.5 -228.5q0 -56 -10 -116l-109 -686h-338l108 681q5 37 5 58q0 60 -27 81.5t-82 21.5q-47 0 -85.5 -20.5t-77.5 -65.5l-185 -1172h-337l84 531q-64 -65 -134.5 -100t-154.5 -35q-136 0 -214 71t-78 228q0 56 10 117l108 686h338l-108 -681
q-5 -37 -5 -58q0 -60 27 -81.5t82 -21.5q47 0 86 21t76 65l192 1210h337l-90 -570q64 66 134 101t155 35q136 0 214.5 -71.5z" />
    <glyph glyph-name="uni0584" unicode="&#x584;" horiz-adv-x="1209" 
d="M988.5 1052.5q79.5 -49.5 119 -136t39.5 -197.5q0 -51 -9 -107l-3 -21q-22 -136 -87.5 -243t-170 -167.5t-237.5 -60.5q-148 0 -227 109l-36 -229h724l-37 -234h-724l-29 -182h-337l29 182h-105l37 234h105l171 1082h314l-5 -100q117 120 274 120q115 0 194.5 -49.5z
M808 691q0 74 -33 112.5t-106 38.5q-118 0 -172 -86l-46 -287q30 -89 147 -89q90 0 137.5 59.5t65.5 172.5q7 41 7 79z" />
    <glyph glyph-name="uni0585" unicode="&#x585;" horiz-adv-x="1161" 
d="M51 551q25 160 105 284.5t209 195.5t294 71q145 0 245 -54.5t150.5 -152.5t50.5 -227q0 -50 -10 -117l-3 -21q-25 -160 -105 -284.5t-209 -195t-294 -70.5q-144 0 -244.5 53.5t-151.5 150t-51 223.5q0 53 9 110zM375 423q0 -183 150 -183q101 0 155 79t78 232q9 56 9 104
q0 187 -149 187q-100 0 -154.5 -80t-78.5 -232q-10 -63 -10 -107z" />
    <glyph glyph-name="uni0586" unicode="&#x586;" horiz-adv-x="1629" 
d="M1288 940q121 -50 185.5 -142t64.5 -216q0 -31 -7 -80l-5 -34q-20 -130 -105 -230.5t-232 -165t-348 -84.5l-64 -404h-338l64 403q-269 26 -403 137.5t-134 293.5q0 46 7 88h338l-1 -8q-4 -23 -4 -48q0 -71 33 -125t87 -82.5t113 -28.5l86 542q-153 0 -261 40.5
t-163.5 115t-55.5 174.5q0 25 5 60q19 116 96 204.5t205.5 137t296.5 48.5h338l-37 -234l-49 -312h2q165 0 286 -50zM485 1109q0 -63 43 -91t134 -28l49 312q-103 0 -156.5 -36t-66.5 -120q-3 -19 -3 -37zM1197 544q0 62 -27 110t-79.5 75t-125.5 27h-2l-86 -542h2
q78 0 144.5 34t110.5 93t55 132l4 24q4 21 4 47z" />
    <glyph glyph-name="uni0587" unicode="&#x587;" horiz-adv-x="1411" 
d="M1301 234l-37 -234h-563l8 116q-127 -136 -309 -136q-145 0 -226.5 72.5t-81.5 223.5q0 49 9 106l183 1154h337l-183 -1156q-3 -19 -3 -37q0 -103 117 -103q118 0 178 85l120 757h338l-134 -848h247z" />
    <glyph glyph-name="uni0589" unicode="&#x589;" horiz-adv-x="576" 
d="M205.5 1042.5q29.5 38.5 75.5 60.5t100 22q74 0 117.5 -39t43.5 -101q0 -54 -28 -99.5t-77 -72t-109 -26.5q-74 0 -118 39.5t-44 102.5q0 9 2 27q8 48 37.5 86.5zM68.5 229.5q28.5 45.5 77.5 71.5t109 26q74 0 117.5 -39t43.5 -102q0 -54 -28.5 -99.5t-77.5 -71.5
t-109 -26q-74 0 -117.5 39t-43.5 102q0 54 28.5 99.5z" />
    <glyph glyph-name="uni058A" unicode="&#x58a;" horiz-adv-x="828" 
d="M564 474q-119 -26 -244 -26q-226 0 -365 92l77 287q7 -2 16 -7.5t13 -7.5q72 -39 170 -60t204 -21q94 0 185 16.5t167 50.5l-42 -266q-62 -32 -181 -58z" />
    <glyph glyph-name="uni058F" unicode="&#x58f;" horiz-adv-x="1578" 
d="M1214 545l-15 -99h288l-42 -261h-288l-29 -185h-352l29 185h-288l42 261h288l15 99h-288l42 261h288l38 241q4 27 4 57q0 182 -189 182q-110 0 -175 -61t-86 -194l-59 -375h-351l59 375q27 168 115.5 286t227 178.5t311.5 60.5q154 0 266.5 -48.5t173.5 -143t61 -228.5
q0 -49 -9 -105l-36 -225h289l-42 -261h-288z" />
    <glyph glyph-name="endash" unicode="&#x2013;" horiz-adv-x="1238" 
d="M1216 842l-55 -264h-1026l55 264h1026z" />
    <glyph glyph-name="emdash" unicode="&#x2014;" horiz-adv-x="1505" 
d="M1516 842l-73 -264h-1368l73 264h1368z" />
    <glyph glyph-name="quoteleft" unicode="&#x2018;" horiz-adv-x="496" 
d="M180 1042l25 161q15 105 76 201.5t150 172.5l148 -83q-54 -88 -85 -151.5t-44 -133.5l-29 -167h-241z" />
    <glyph glyph-name="quoteright" unicode="&#x2019;" horiz-adv-x="483" 
d="M548 1536l-25 -163q-15 -105 -75.5 -201.5t-149.5 -172.5l-149 83q53 84 84.5 149t45.5 136l29 169h240z" />
    <glyph glyph-name="quotesinglbase" unicode="&#x201a;" horiz-adv-x="539" 
d="M343 249l-31 -186q-16 -106 -76.5 -202t-148.5 -172l-149 83q97 153 121 296l31 181h253z" />
    <glyph glyph-name="quotedblleft" unicode="&#x201c;" horiz-adv-x="859" 
d="M187 1042l25 161q15 105 76 201.5t150 172.5l148 -83q-54 -88 -85 -151.5t-44 -133.5l-29 -167h-241zM527 1042l25 161q15 105 76 201.5t150 172.5l148 -83q-54 -88 -85 -151.5t-44 -133.5l-29 -167h-241z" />
    <glyph glyph-name="quotedblright" unicode="&#x201d;" horiz-adv-x="865" 
d="M561 1536l-25 -163q-15 -105 -75.5 -201.5t-149.5 -172.5l-149 83q53 84 84.5 149t45.5 136l29 169h240zM912 1536l-25 -163q-15 -105 -75.5 -201.5t-149.5 -172.5l-149 83q53 84 84.5 149t45.5 136l29 169h240z" />
    <glyph glyph-name="quotedblbase" unicode="&#x201e;" horiz-adv-x="850" 
d="M346 269l-34 -200q-40 -239 -221 -399l-156 82q92 156 119 289l39 228h253zM697 269l-35 -206q-17 -111 -79 -212.5t-152 -180.5l-156 82q102 168 128 281l42 236h252z" />
    <glyph glyph-name="bullet" unicode="&#x2022;" horiz-adv-x="735" 
d="M157 756q3 72 36.5 128.5t90.5 88.5t130 32q70 0 123.5 -30t82 -84.5t28.5 -124.5l-1 -39q-4 -71 -37.5 -126t-90.5 -85t-129 -30q-68 0 -121 29t-83 82t-30 121z" />
    <glyph glyph-name="ellipsis" unicode="&#x2026;" horiz-adv-x="1549" 
d="M72 246q25 39 67 60.5t91 21.5q48 0 89 -21.5t65 -60t24 -87.5q0 -50 -25 -89t-67 -60.5t-91 -21.5q-48 0 -89 21.5t-65 60t-24 87.5q0 50 25 89zM546 246q25 39 67 60.5t91 21.5q48 0 89 -21.5t65 -60t24 -87.5q0 -50 -25 -89t-67 -60.5t-91 -21.5q-48 0 -89 21.5
t-65 60t-24 87.5q0 50 25 89zM1019 246q25 39 67 60.5t91 21.5q48 0 89 -21.5t65 -60t24 -87.5q0 -50 -25 -89t-67 -60.5t-91 -21.5q-48 0 -89 21.5t-65 60t-24 87.5q0 50 25 89z" />
    <glyph glyph-name="guilsinglleft" unicode="&#x2039;" horiz-adv-x="631" 
d="M298 114l-210 389l1 21l323 391h221l-307 -416l154 -382z" />
    <glyph glyph-name="guilsinglright" unicode="&#x203a;" horiz-adv-x="602" 
d="M315 916l210 -389v-20l-324 -392h-221l306 416l-153 382z" />
    <glyph glyph-name="fraction" unicode="&#x2044;" horiz-adv-x="876" 
d="M971 1237l-878 -1126l-153 87l877 1126z" />
    <glyph glyph-name="uni2074" unicode="&#x2074;" horiz-adv-x="755" 
d="M725 824h-77l-28 -157h-220l28 157h-322l12 160l409 472h231l-79 -454h77zM333 1004l128 -3l40 194l-20 -25z" />
    <glyph glyph-name="Euro" unicode="&#x20ac;" 
d="M986 8q-132 -28 -233 -28q-242 0 -398 146q-123 114 -123 297q0 42 6 87l-172 -2l29 160h159l22 122h-161l29 159l151 -1q72 252 247 390t434 138q99 0 244 -32l-71 -270q-81 34 -166 34q-251 0 -343 -260l309 1l-28 -159h-302l-21 -122h302l-28 -160h-293q-4 -27 -4 -57
q0 -199 226 -199q80 0 170 29z" />
    <glyph glyph-name="minus" unicode="&#x2212;" horiz-adv-x="1086" 
d="M1027 842l-46 -264h-855l46 264h855z" />
    </font>
</defs>
</svg>
