<svg width="114" height="110" viewBox="0 0 114 110" fill="none" xmlns="http://www.w3.org/2000/svg">
<path d="M1.39746 108.081V1.54053L109.397 10.0901V90.982L1.39746 108.081Z" fill="white" stroke="url(#paint0_linear_623_208)" stroke-width="2"/>
<path d="M43.7086 72.6997H54.2012M59.4477 30.7295C60.3753 30.7295 61.2649 31.098 61.9208 31.7539C62.5767 32.4098 62.9452 33.2994 62.9452 34.227L62.9449 74.4485C62.9449 75.3761 62.5764 76.2657 61.9205 76.9216C61.2646 77.5775 60.375 77.946 59.4474 77.946H38.4624C37.5348 77.946 36.6452 77.5775 35.9892 76.9216C35.3333 76.2657 34.9648 75.3761 34.9648 74.4485L34.9651 34.227C34.9651 33.2994 35.3336 32.4098 35.9895 31.7539C36.6454 31.098 37.535 30.7295 38.4626 30.7295H59.4477Z" stroke="url(#paint1_linear_623_208)" stroke-width="2.18919" stroke-linecap="round" stroke-linejoin="round"/>
<path d="M43.486 53.4901V59.328H53.2157V53.4901H43.486ZM51.2698 46.6793C51.2698 46.296 51.1943 45.9164 51.0476 45.5623C50.9009 45.2082 50.6859 44.8864 50.4148 44.6153C50.1438 44.3443 49.822 44.1293 49.4679 43.9826C49.1137 43.8359 48.7342 43.7604 48.3508 43.7604C47.9675 43.7604 47.588 43.8359 47.2338 43.9826C46.8797 44.1293 46.5579 44.3443 46.2869 44.6153C46.0158 44.8864 45.8008 45.2082 45.6541 45.5623C45.5074 45.9164 45.4319 46.296 45.4319 46.6793V51.5442H53.2157C53.7318 51.5442 54.2268 51.7492 54.5917 52.1141C54.9566 52.4791 55.1617 52.974 55.1617 53.4901V59.328C55.1617 59.8441 54.9566 60.339 54.5917 60.704C54.2268 61.0689 53.7318 61.2739 53.2157 61.2739H43.486C42.9699 61.2739 42.4749 61.0689 42.11 60.704C41.7451 60.339 41.54 59.8441 41.54 59.328V53.4901C41.54 52.974 41.7451 52.4791 42.11 52.1141C42.4749 51.7492 42.9699 51.5442 43.486 51.5442V46.6793C43.486 45.3891 43.9985 44.1517 44.9109 43.2393C45.8232 42.327 47.0606 41.8145 48.3508 41.8145C49.6411 41.8145 50.8785 42.327 51.7908 43.2393C52.7032 44.1517 53.2157 45.3891 53.2157 46.6793C53.2157 46.9374 53.1132 47.1848 52.9307 47.3673C52.7483 47.5498 52.5008 47.6523 52.2427 47.6523C51.9847 47.6523 51.7372 47.5498 51.5547 47.3673C51.3723 47.1848 51.2698 46.9374 51.2698 46.6793ZM48.3508 58.355C47.8348 58.355 47.3398 58.15 46.9749 57.785C46.6099 57.4201 46.4049 56.9251 46.4049 56.409C46.4049 55.893 46.6099 55.398 46.9749 55.0331C47.3398 54.6681 47.8348 54.4631 48.3508 54.4631C48.8669 54.4631 49.3619 54.6681 49.7268 55.0331C50.0918 55.398 50.2968 55.893 50.2968 56.409C50.2968 56.9251 50.0918 57.4201 49.7268 57.785C49.3619 58.15 48.8669 58.355 48.3508 58.355Z" fill="url(#paint2_linear_623_208)"/>
<path d="M79.8482 28.7818H78.136L77.7763 21.9187H80.2079L79.8482 28.7818ZM77.7476 31.1846C77.7476 30.7433 77.8675 30.4364 78.1073 30.2637C78.3471 30.0815 78.6396 29.9904 78.9849 29.9904C79.3206 29.9904 79.6084 30.0815 79.8482 30.2637C80.088 30.4364 80.2079 30.7433 80.2079 31.1846C80.2079 31.6066 80.088 31.9135 79.8482 32.1054C79.6084 32.2876 79.3206 32.3788 78.9849 32.3788C78.6396 32.3788 78.3471 32.2876 78.1073 32.1054C77.8675 31.9135 77.7476 31.6066 77.7476 31.1846Z" fill="url(#paint3_linear_623_208)"/>
<path d="M75.3119 34.7641C77.033 35.6469 79.0127 35.886 80.8945 35.4384C82.7762 34.9907 84.4362 33.8856 85.5753 32.3223C86.7143 30.759 87.2576 28.8403 87.1071 26.9119C86.9567 24.9835 86.1225 23.1722 84.7547 21.8045C83.387 20.4368 81.5757 19.6025 79.6473 19.4521C77.7189 19.3016 75.8002 19.8449 74.2369 20.984C72.6736 22.1231 71.5686 23.783 71.1209 25.6648C70.6732 27.5465 70.9123 29.5263 71.7952 31.2473L69.9917 36.5675L75.3119 34.7641Z" stroke="url(#paint4_linear_623_208)" stroke-width="2.18919" stroke-linecap="round" stroke-linejoin="round"/>
<defs>
<linearGradient id="paint0_linear_623_208" x1="1.39746" y1="108.081" x2="116.499" y2="1.38727" gradientUnits="userSpaceOnUse">
<stop stop-color="#5188D7"/>
<stop offset="1" stop-color="#80C9EB"/>
</linearGradient>
<linearGradient id="paint1_linear_623_208" x1="34.9648" y1="77.946" x2="77.823" y2="54.7218" gradientUnits="userSpaceOnUse">
<stop stop-color="#5188D7"/>
<stop offset="1" stop-color="#80C9EB"/>
</linearGradient>
<linearGradient id="paint2_linear_623_208" x1="41.54" y1="61.2739" x2="60.6865" y2="49.0183" gradientUnits="userSpaceOnUse">
<stop stop-color="#5188D7"/>
<stop offset="1" stop-color="#80C9EB"/>
</linearGradient>
<linearGradient id="paint3_linear_623_208" x1="77.7476" y1="32.3788" x2="82.4072" y2="31.3765" gradientUnits="userSpaceOnUse">
<stop stop-color="#5188D7"/>
<stop offset="1" stop-color="#80C9EB"/>
</linearGradient>
<linearGradient id="paint4_linear_623_208" x1="69.9917" y1="36.5675" x2="88.4883" y2="19.6538" gradientUnits="userSpaceOnUse">
<stop stop-color="#5188D7"/>
<stop offset="1" stop-color="#80C9EB"/>
</linearGradient>
</defs>
</svg>
