<svg width="54" height="55" viewBox="0 0 54 55" fill="none" xmlns="http://www.w3.org/2000/svg">
<path d="M33.0963 51.6851H28.699C28.1159 51.6851 27.5567 51.4507 27.1444 51.0337C26.732 50.6166 26.5004 50.051 26.5004 49.4611V41.6775C25.9173 41.6775 25.358 41.4432 24.9457 41.0261C24.5334 40.6091 24.3018 40.0434 24.3018 39.4536V32.7819C24.3018 31.8972 24.6492 31.0487 25.2677 30.4231C25.8862 29.7975 26.725 29.446 27.5997 29.446H34.1956C35.0703 29.446 35.9091 29.7975 36.5276 30.4231C37.1461 31.0487 37.4935 31.8972 37.4935 32.7819V39.4536C37.4935 40.0434 37.2619 40.6091 36.8496 41.0261C36.4373 41.4432 35.878 41.6775 35.2949 41.6775V49.4611C35.2949 50.051 35.0633 50.6166 34.6509 51.0337C34.2386 51.4507 33.6794 51.6851 33.0963 51.6851ZM27.5997 31.6699C27.4528 31.6601 27.3056 31.6821 27.1678 31.7345C27.03 31.7869 26.9049 31.8685 26.8008 31.9738C26.6967 32.0791 26.6161 32.2056 26.5643 32.345C26.5124 32.4844 26.4907 32.6333 26.5004 32.7819V39.4536H28.699V49.4611H33.0963V39.4536H35.2949V32.7819C35.3046 32.6333 35.2829 32.4844 35.231 32.345C35.1792 32.2056 35.0986 32.0791 34.9945 31.9738C34.8904 31.8685 34.7653 31.7869 34.6275 31.7345C34.4897 31.6821 34.3425 31.6601 34.1956 31.6699H27.5997ZM30.8976 28.3341C30.028 28.3341 29.1778 28.0732 28.4547 27.5845C27.7315 27.0958 27.1679 26.4011 26.8351 25.5884C26.5023 24.7757 26.4152 23.8813 26.5849 23.0186C26.7545 22.1558 27.1733 21.3632 27.7883 20.7412C28.4033 20.1192 29.1868 19.6956 30.0398 19.5239C30.8928 19.3523 31.7769 19.4404 32.5804 19.777C33.3839 20.1137 34.0707 20.6838 34.5538 21.4152C35.037 22.1467 35.2949 23.0066 35.2949 23.8863C35.2949 25.0659 34.8316 26.1972 34.007 27.0314C33.1823 27.8655 32.0639 28.3341 30.8976 28.3341ZM30.8976 21.6624C30.4628 21.6624 30.0377 21.7928 29.6762 22.0372C29.3146 22.2815 29.0328 22.6289 28.8664 23.0352C28.7 23.4416 28.6564 23.8887 28.7413 24.3201C28.8261 24.7515 29.0355 25.1478 29.343 25.4588C29.6505 25.7698 30.0422 25.9816 30.4687 26.0675C30.8952 26.1533 31.3373 26.1092 31.739 25.9409C32.1408 25.7726 32.4842 25.4875 32.7257 25.1218C32.9673 24.7561 33.0963 24.3261 33.0963 23.8863C33.0963 23.2965 32.8646 22.7308 32.4523 22.3137C32.04 21.8967 31.4808 21.6624 30.8976 21.6624Z" fill="white"/>
<path d="M2.55957 9.91081C2.55957 9.00375 2.9199 8.13384 3.56129 7.49244C4.20268 6.85105 5.0726 6.49072 5.97966 6.49072H16.2399C17.147 6.49072 18.0169 6.85105 18.6583 7.49244C19.2997 8.13384 19.66 9.00375 19.66 9.91081V20.1711C19.66 21.0782 19.2997 21.9481 18.6583 22.5895C18.0169 23.2308 17.147 23.5912 16.2399 23.5912H5.97966C5.0726 23.5912 4.20268 23.2308 3.56129 22.5895C2.9199 21.9481 2.55957 21.0782 2.55957 20.1711V9.91081Z" stroke="white" stroke-width="1.71005" stroke-linecap="round" stroke-linejoin="round"/>
<path d="M8.11705 14.1858C9.29759 14.1858 10.2546 13.2287 10.2546 12.0482C10.2546 10.8677 9.29759 9.91064 8.11705 9.91064C6.93651 9.91064 5.97949 10.8677 5.97949 12.0482C5.97949 13.2287 6.93651 14.1858 8.11705 14.1858Z" stroke="white" stroke-width="1.71005" stroke-linecap="round" stroke-linejoin="round"/>
<path d="M13.2694 15.5718L5.97949 23.5911H16.3535C17.2304 23.5911 18.0714 23.2427 18.6914 22.6227C19.3115 22.0026 19.6599 21.1616 19.6599 20.2847V20.171C19.6599 19.7725 19.5102 19.6195 19.2409 19.3245L15.7952 15.5667C15.6346 15.3915 15.4392 15.2517 15.2216 15.1563C15.0039 15.0608 14.7688 15.0117 14.5312 15.0122C14.2935 15.0127 14.0586 15.0627 13.8413 15.1591C13.6241 15.2554 13.4293 15.396 13.2694 15.5718Z" stroke="white" stroke-width="1.71005" stroke-linecap="round" stroke-linejoin="round"/>
<g clip-path="url(#clip0_488_2504)">
<path d="M37.0049 3.31518C37.0049 2.79686 37.2108 2.29976 37.5773 1.93325C37.9438 1.56674 38.4409 1.36084 38.9592 1.36084H44.8222C45.3406 1.36084 45.8376 1.56674 46.2042 1.93325C46.5707 2.29976 46.7766 2.79686 46.7766 3.31518V9.17819C46.7766 9.69651 46.5707 10.1936 46.2042 10.5601C45.8376 10.9266 45.3406 11.1325 44.8222 11.1325H38.9592C38.4409 11.1325 37.9438 10.9266 37.5773 10.5601C37.2108 10.1936 37.0049 9.69651 37.0049 9.17819V3.31518Z" stroke="white" stroke-width="1.46575" stroke-linecap="round" stroke-linejoin="round"/>
<path d="M41.1582 7.51611L41.1582 4.97705L43.3574 6.24658L41.1582 7.51611Z" stroke="white" stroke-width="1.46575"/>
</g>
<g clip-path="url(#clip1_488_2504)">
<path d="M45.5547 26.0344C45.5547 25.6456 45.7091 25.2728 45.984 24.9979C46.2589 24.723 46.6317 24.5686 47.0204 24.5686H51.4177C51.8064 24.5686 52.1793 24.723 52.4541 24.9979C52.729 25.2728 52.8835 25.6456 52.8835 26.0344V30.4316C52.8835 30.8204 52.729 31.1932 52.4541 31.4681C52.1793 31.7429 51.8064 31.8974 51.4177 31.8974H47.0204C46.6317 31.8974 46.2589 31.7429 45.984 31.4681C45.7091 31.1932 45.5547 30.8204 45.5547 30.4316V26.0344Z" stroke="white" stroke-width="1.09932" stroke-linecap="round" stroke-linejoin="round"/>
<path d="M47.9366 27.8666C48.4425 27.8666 48.8527 27.4565 48.8527 26.9505C48.8527 26.4446 48.4425 26.0344 47.9366 26.0344C47.4307 26.0344 47.0205 26.4446 47.0205 26.9505C47.0205 27.4565 47.4307 27.8666 47.9366 27.8666Z" stroke="white" stroke-width="0.732877" stroke-linecap="round" stroke-linejoin="round"/>
<path d="M50.1448 28.4605L47.0205 31.8974H51.4665C51.8423 31.8974 52.2027 31.7481 52.4685 31.4823C52.7342 31.2166 52.8835 30.8562 52.8835 30.4803V30.4316C52.8835 30.2608 52.8194 30.1953 52.704 30.0688L51.2272 28.4583C51.1584 28.3833 51.0747 28.3234 50.9814 28.2824C50.8881 28.2415 50.7874 28.2205 50.6855 28.2207C50.5837 28.2209 50.483 28.2423 50.3899 28.2836C50.2968 28.3249 50.2133 28.3852 50.1448 28.4605Z" stroke="white" stroke-width="1.09932" stroke-linecap="round" stroke-linejoin="round"/>
</g>
<defs>
<clipPath id="clip0_488_2504">
<rect width="11.726" height="11.726" fill="white" transform="translate(36.0273 0.383545)"/>
</clipPath>
<clipPath id="clip1_488_2504">
<rect width="8.79452" height="8.79452" fill="white" transform="translate(44.8223 23.8357)"/>
</clipPath>
</defs>
</svg>
