<svg width="113" height="107" viewBox="0 0 113 107" fill="none" xmlns="http://www.w3.org/2000/svg">
<path d="M0.46582 106.541V0L108.466 8.54955V89.4414L0.46582 106.541Z" fill="url(#paint0_linear_623_203)"/>
<path d="M31.3877 35.3921C32.547 35.3921 33.4862 36.3305 33.4863 37.4897V50.2759C33.4863 51.8178 34.0557 53.3034 35.0869 54.4429L35.2988 54.6655L39.3779 58.7446C40.4072 59.7735 42.0237 59.9394 43.2354 59.1274L43.2344 59.1265C44.835 58.0577 45.0627 55.7858 43.6943 54.4263H43.6953L42.4814 53.2134L39.9277 50.6597C39.3576 50.0895 39.3578 49.1625 39.9277 48.5923C40.4624 48.0576 41.311 48.0238 41.8848 48.4917L41.9951 48.5923L44.5498 51.146L47.7822 54.3784C49.2528 55.849 50.079 57.8452 50.0791 59.9253V66.2231C50.079 67.7336 48.8533 68.9595 47.3428 68.9595H42.0195C41.0172 68.9595 40.056 68.5892 39.3213 67.9243L39.1777 67.7876L31.2129 59.8149L31.2119 59.814C29.981 58.5829 29.29 56.9138 29.29 55.1685V37.4897C29.2901 36.3305 30.2285 35.3922 31.3877 35.3921ZM76.0762 35.3921H76.084C77.2432 35.3922 78.1815 36.3305 78.1816 37.4897V55.1685C78.1816 56.8048 77.5747 58.3745 76.4844 59.5786L76.2598 59.814L68.2861 67.7876C67.5354 68.5383 66.5134 68.9595 65.4443 68.9595H60.1211C58.6106 68.9595 57.3848 67.7336 57.3848 66.2231V59.9253C57.3849 57.8452 58.2111 55.849 59.6816 54.3784L62.9141 51.146L65.4688 48.5923C66.0033 48.0577 66.851 48.024 67.4248 48.4917L67.5361 48.5923C68.0704 49.1269 68.1035 49.9747 67.6357 50.5483L67.5361 50.6597L64.9814 53.2134L63.7686 54.4263C62.4042 55.7906 62.6249 58.0552 64.2285 59.1265V59.1274C65.3646 59.8887 66.8567 59.7905 67.8867 58.9272L68.0859 58.7446L72.165 54.6655C73.3297 53.5007 73.9775 51.9204 73.9775 50.2759V37.4897C73.9776 36.3305 74.9169 35.3921 76.0762 35.3921Z" stroke="white" stroke-width="2.18919"/>
<path d="M54.4644 28.0945C55.487 28.0945 56.475 28.4869 57.2095 29.196L57.3442 29.3318C57.9965 30.0275 58.3656 30.9415 58.3657 31.8992C58.3657 32.8571 57.9967 33.7717 57.3442 34.4675L57.2095 34.6033C57.0876 34.721 56.9576 34.8286 56.8228 34.9285C57.8245 35.2114 58.7714 35.671 59.6089 36.2927L59.8989 36.5183L59.9009 36.5203L61.8589 38.1189L61.8618 38.1218L62.0708 38.3113C62.9894 39.2368 63.1269 40.6849 62.3618 41.7576L62.1841 41.9812C61.3444 42.9334 59.9786 43.1799 58.8716 42.6541C59.0709 44.2427 59.3757 45.7421 59.4399 46.0505L59.4604 46.1589L59.478 46.3005L59.4878 46.5769C59.4688 47.8512 58.5507 48.914 57.3237 49.1882L57.0571 49.2351C56.0341 49.3633 55.0496 48.9186 54.4673 48.1404C53.9377 48.8519 53.0718 49.2792 52.1509 49.2556L51.8726 49.2351C50.3874 49.0503 49.2597 47.7301 49.4624 46.1921L49.9106 42.7273C48.9143 43.131 47.7382 42.9375 46.9341 42.1843L46.7407 41.9832C45.7395 40.8345 45.8801 39.0943 47.0708 38.1257H47.0698L49.0269 36.5271L49.3179 36.3005C50.1559 35.6748 51.1028 35.2122 52.105 34.9285C52.0212 34.8664 51.9388 34.8021 51.8599 34.7332L51.7192 34.6033C50.9835 33.8929 50.562 32.921 50.562 31.8992C50.5621 30.8776 50.9836 29.9063 51.7192 29.196L51.8599 29.0662C52.5773 28.439 53.5057 28.0945 54.4644 28.0945Z" stroke="white" stroke-width="2.18919"/>
<defs>
<linearGradient id="paint0_linear_623_203" x1="0.46582" y1="106.541" x2="115.568" y2="-0.15326" gradientUnits="userSpaceOnUse">
<stop stop-color="#5188D7"/>
<stop offset="1" stop-color="#80C9EB"/>
</linearGradient>
</defs>
</svg>
