<svg width="80" height="67" viewBox="0 0 80 67" fill="none" xmlns="http://www.w3.org/2000/svg">
<path d="M12.5775 47.913L14.0743 48.6614M18.5647 47.913L17.0679 48.6614M15.5711 56.8939C14.6866 56.8939 13.8107 56.7197 12.9935 56.3812C12.1763 56.0427 11.4337 55.5465 10.8083 54.9211C10.1828 54.2956 9.68667 53.5531 9.34817 52.7359C9.00967 51.9187 8.83545 51.0428 8.83545 50.1583C8.83545 49.2737 9.00967 48.3978 9.34817 47.5806C9.68667 46.7634 10.1828 46.0209 10.8083 45.3954C11.4337 44.77 12.1763 44.2738 12.9935 43.9353C13.8107 43.5968 14.6866 43.4226 15.5711 43.4226C17.3575 43.4226 19.0707 44.1323 20.3339 45.3954C21.5971 46.6586 22.3068 48.3719 22.3068 50.1583C22.3068 51.9447 21.5971 53.6579 20.3339 54.9211C19.0707 56.1843 17.3575 56.8939 15.5711 56.8939Z" stroke="white" stroke-width="2.19" stroke-linecap="round" stroke-linejoin="round"/>
<path d="M17.4412 53.1893C17.1974 52.9404 16.9063 52.7426 16.585 52.6076C16.2637 52.4726 15.9187 52.4031 15.5702 52.4031C15.2217 52.4031 14.8768 52.4726 14.5555 52.6076C14.2342 52.7426 13.9431 52.9404 13.6992 53.1893" stroke="white" stroke-width="2.19" stroke-linecap="round" stroke-linejoin="round"/>
<path d="M23.3394 39C24.5755 39 25.7609 39.491 26.6349 40.3651C27.509 41.2391 28 42.4245 28 43.6606V56.0889C28 57.3249 27.509 58.5104 26.6349 59.3844C25.7609 60.2584 24.5755 60.7495 23.3394 60.7495L17.5353 60.7543L9.76766 65.4149V60.7543H6.6606C5.42453 60.7543 4.23909 60.2633 3.36506 59.3893C2.49103 58.5152 2 57.3298 2 56.0937V43.6655C2 42.4294 2.49103 41.244 3.36506 40.3699C4.23909 39.4959 5.42453 39.0049 6.6606 39.0049L23.3394 39Z" stroke="white" stroke-width="2.19" stroke-linecap="round" stroke-linejoin="round"/>
<path d="M72.8508 2C74.2165 2 75.5262 2.5425 76.4918 3.50816C77.4575 4.47382 78 5.78354 78 7.14918V20.8803C78 22.246 77.4575 23.5557 76.4918 24.5214C75.5262 25.487 74.2165 26.0295 72.8508 26.0295L42.1639 26.0295L33.582 31.1787V26.0295H30.1492C28.7835 26.0295 27.4738 25.487 26.5082 24.5214C25.5425 23.5557 25 22.246 25 20.8803V7.14918C25 5.78353 25.5425 4.47382 26.5082 3.50816C27.4738 2.5425 28.7835 2 30.1492 2H72.8508Z" stroke="white" stroke-width="2.19" stroke-linecap="round" stroke-linejoin="round"/>
<path d="M37.4115 16.8159H35.3106L34.8692 8.3948H37.8528L37.4115 16.8159ZM34.8339 19.7642C34.8339 19.2228 34.9811 18.8462 35.2753 18.6343C35.5695 18.4107 35.9285 18.2989 36.3522 18.2989C36.7641 18.2989 37.1172 18.4107 37.4115 18.6343C37.7057 18.8462 37.8528 19.2228 37.8528 19.7642C37.8528 20.2821 37.7057 20.6587 37.4115 20.8941C37.1172 21.1177 36.7641 21.2295 36.3522 21.2295C35.9285 21.2295 35.5695 21.1177 35.2753 20.8941C34.9811 20.6587 34.8339 20.2821 34.8339 19.7642ZM47.4944 13.7264L47.0884 15.7214H49.3128V17.5044H46.753L46.0821 21H44.1931L44.8639 17.5044H43.1868L42.5336 21H40.6799L41.3154 17.5044H39.2675V15.7214H41.6509L42.0569 13.7264H39.8854V11.9257H42.3747L43.0455 8.41245H44.9346L44.2637 11.9257H45.9762L46.647 8.41245H48.5007L47.8299 11.9257H49.8954V13.7264H47.4944ZM43.5222 15.7214H45.217L45.6231 13.7264H43.9283L43.5222 15.7214ZM56.542 23.7894C55.5416 23.7894 54.7648 23.707 54.2116 23.5422C53.6702 23.3775 53.2936 23.1185 53.0818 22.7654C52.8699 22.4123 52.764 21.9533 52.764 21.3884V18.6696C52.764 18.293 52.6757 17.9929 52.4992 17.7693C52.3344 17.5456 52.0872 17.3867 51.7577 17.2926C51.4399 17.1867 51.0397 17.1337 50.5572 17.1337V15.0681C51.0397 15.0681 51.4399 15.0211 51.7577 14.9269C52.0872 14.821 52.3344 14.6562 52.4992 14.4326C52.6757 14.1972 52.764 13.8971 52.764 13.5322V10.7958C52.764 10.3721 52.817 10.0072 52.9229 9.70122C53.0406 9.39521 53.2407 9.14805 53.5231 8.95974C53.8056 8.77142 54.1881 8.63019 54.6707 8.53603C55.165 8.44188 55.7888 8.3948 56.542 8.3948V10.3368C56.236 10.3368 55.9712 10.3721 55.7476 10.4427C55.5239 10.5133 55.3474 10.6369 55.2179 10.8134C55.1002 10.9782 55.0414 11.2254 55.0414 11.5549V14.1325C55.0414 14.6739 54.8707 15.1034 54.5294 15.4212C54.1881 15.739 53.6879 15.945 53.0288 16.0391V16.1451C53.6879 16.2392 54.1881 16.4452 54.5294 16.763C54.8707 17.0807 55.0414 17.5103 55.0414 18.0517V20.6293C55.0414 20.9588 55.1002 21.206 55.2179 21.3707C55.3474 21.5473 55.5239 21.665 55.7476 21.7238C55.9712 21.7944 56.236 21.8356 56.542 21.8474V23.7894ZM59.7296 8.3948L64.4256 21H62.0423L57.3463 8.3948H59.7296ZM68.1169 16.8159H66.0161L65.5747 8.3948H68.5583L68.1169 16.8159ZM65.5394 19.7642C65.5394 19.2228 65.6865 18.8462 65.9807 18.6343C66.275 18.4107 66.634 18.2989 67.0577 18.2989C67.4696 18.2989 67.8227 18.4107 68.1169 18.6343C68.4112 18.8462 68.5583 19.2228 68.5583 19.7642C68.5583 20.2821 68.4112 20.6587 68.1169 20.8941C67.8227 21.1177 67.4696 21.2295 67.0577 21.2295C66.634 21.2295 66.275 21.1177 65.9807 20.8941C65.6865 20.6587 65.5394 20.2821 65.5394 19.7642Z" fill="white"/>
</svg>
