<svg width="114" height="110" viewBox="0 0 114 110" fill="none" xmlns="http://www.w3.org/2000/svg">
<path d="M1.39746 108.081V1.54053L109.397 10.0901V90.982L1.39746 108.081Z" fill="white" stroke="url(#paint0_linear_1023_3772)" stroke-width="2"/>
<path d="M31.5775 68.4536L33.0743 69.202M37.5647 68.4536L36.0679 69.202M34.5711 77.4344C33.6866 77.4344 32.8107 77.2602 31.9935 76.9217C31.1763 76.5832 30.4337 76.0871 29.8083 75.4616C29.1828 74.8361 28.6867 74.0936 28.3482 73.2764C28.0097 72.4592 27.8354 71.5833 27.8354 70.6988C27.8354 69.8142 28.0097 68.9384 28.3482 68.1212C28.6867 67.304 29.1828 66.5614 29.8083 65.936C30.4337 65.3105 31.1763 64.8144 31.9935 64.4759C32.8107 64.1374 33.6866 63.9631 34.5711 63.9631C36.3575 63.9631 38.0707 64.6728 39.3339 65.936C40.5971 67.1991 41.3068 68.9124 41.3068 70.6988C41.3068 72.4852 40.5971 74.1984 39.3339 75.4616C38.0707 76.7248 36.3575 77.4344 34.5711 77.4344Z" stroke="url(#paint1_linear_1023_3772)" stroke-width="2.19" stroke-linecap="round" stroke-linejoin="round"/>
<path d="M36.4412 73.7298C36.1974 73.4809 35.9063 73.2831 35.585 73.1481C35.2637 73.0131 34.9187 72.9436 34.5702 72.9436C34.2217 72.9436 33.8768 73.0131 33.5555 73.1481C33.2342 73.2831 32.9431 73.4809 32.6992 73.7298" stroke="url(#paint2_linear_1023_3772)" stroke-width="2.19" stroke-linecap="round" stroke-linejoin="round"/>
<path d="M42.3394 59.5405C43.5755 59.5405 44.7609 60.0316 45.6349 60.9056C46.509 61.7796 47 62.9651 47 64.2011V76.6294C47 77.8655 46.509 79.0509 45.6349 79.9249C44.7609 80.799 43.5755 81.29 42.3394 81.29L36.5353 81.2949L28.7677 85.9555V81.2949H25.6606C24.4245 81.2949 23.2391 80.8038 22.3651 79.9298C21.491 79.0558 21 77.8703 21 76.6343V64.206C21 62.9699 21.491 61.7845 22.3651 60.9105C23.2391 60.0364 24.4245 59.5454 25.6606 59.5454L42.3394 59.5405Z" stroke="url(#paint3_linear_1023_3772)" stroke-width="2.19" stroke-linecap="round" stroke-linejoin="round"/>
<path d="M91.8508 22.5405C93.2165 22.5405 94.5262 23.083 95.4918 24.0487C96.4575 25.0143 97 26.3241 97 27.6897V41.4209C97 42.7865 96.4575 44.0962 95.4918 45.0619C94.5262 46.0275 93.2165 46.5701 91.8508 46.5701L61.1639 46.5701L52.582 51.7192V46.5701H49.1492C47.7835 46.5701 46.4738 46.0275 45.5082 45.0619C44.5425 44.0962 44 42.7865 44 41.4209V27.6897C44 26.3241 44.5425 25.0143 45.5082 24.0487C46.4738 23.083 47.7835 22.5405 49.1492 22.5405H91.8508Z" stroke="url(#paint4_linear_1023_3772)" stroke-width="2.19" stroke-linecap="round" stroke-linejoin="round"/>
<path d="M56.4115 37.3564H54.3106L53.8692 28.9353H56.8528L56.4115 37.3564ZM53.8339 40.3047C53.8339 39.7633 53.9811 39.3867 54.2753 39.1748C54.5695 38.9512 54.9285 38.8394 55.3522 38.8394C55.7641 38.8394 56.1172 38.9512 56.4115 39.1748C56.7057 39.3867 56.8528 39.7633 56.8528 40.3047C56.8528 40.8226 56.7057 41.1992 56.4115 41.4346C56.1172 41.6582 55.7641 41.77 55.3522 41.77C54.9285 41.77 54.5695 41.6582 54.2753 41.4346C53.9811 41.1992 53.8339 40.8226 53.8339 40.3047ZM66.4944 34.2669L66.0884 36.2619H68.3128V38.045H65.753L65.0821 41.5405H63.1931L63.8639 38.045H62.1868L61.5336 41.5405H59.6799L60.3154 38.045H58.2675V36.2619H60.6509L61.0569 34.2669H58.8854V32.4662H61.3747L62.0455 28.953H63.9346L63.2637 32.4662H64.9762L65.647 28.953H67.5007L66.8299 32.4662H68.8954V34.2669H66.4944ZM62.5222 36.2619H64.217L64.6231 34.2669H62.9283L62.5222 36.2619ZM75.542 44.3299C74.5416 44.3299 73.7648 44.2475 73.2116 44.0828C72.6702 43.918 72.2936 43.659 72.0818 43.306C71.8699 42.9529 71.764 42.4939 71.764 41.9289V39.2102C71.764 38.8335 71.6757 38.5334 71.4992 38.3098C71.3344 38.0862 71.0872 37.9273 70.7577 37.8331C70.4399 37.7272 70.0397 37.6742 69.5572 37.6742V35.6087C70.0397 35.6087 70.4399 35.5616 70.7577 35.4674C71.0872 35.3615 71.3344 35.1967 71.4992 34.9731C71.6757 34.7377 71.764 34.4376 71.764 34.0727V31.3363C71.764 30.9126 71.817 30.5478 71.9229 30.2417C72.0406 29.9357 72.2407 29.6886 72.5231 29.5003C72.8056 29.312 73.1881 29.1707 73.6707 29.0766C74.165 28.9824 74.7888 28.9353 75.542 28.9353V30.8773C75.236 30.8773 74.9712 30.9126 74.7476 30.9832C74.5239 31.0538 74.3474 31.1774 74.2179 31.354C74.1002 31.5187 74.0414 31.7659 74.0414 32.0955V34.673C74.0414 35.2144 73.8707 35.644 73.5294 35.9618C73.1881 36.2795 72.6879 36.4855 72.0288 36.5797V36.6856C72.6879 36.7797 73.1881 36.9857 73.5294 37.3035C73.8707 37.6213 74.0414 38.0509 74.0414 38.5923V41.1698C74.0414 41.4993 74.1002 41.7465 74.2179 41.9113C74.3474 42.0878 74.5239 42.2055 74.7476 42.2644C74.9712 42.335 75.236 42.3762 75.542 42.3879V44.3299ZM78.7296 28.9353L83.4256 41.5405H81.0423L76.3463 28.9353H78.7296ZM87.1169 37.3564H85.0161L84.5747 28.9353H87.5583L87.1169 37.3564ZM84.5394 40.3047C84.5394 39.7633 84.6865 39.3867 84.9807 39.1748C85.275 38.9512 85.634 38.8394 86.0577 38.8394C86.4696 38.8394 86.8227 38.9512 87.1169 39.1748C87.4112 39.3867 87.5583 39.7633 87.5583 40.3047C87.5583 40.8226 87.4112 41.1992 87.1169 41.4346C86.8227 41.6582 86.4696 41.77 86.0577 41.77C85.634 41.77 85.275 41.6582 84.9807 41.4346C84.6865 41.1992 84.5394 40.8226 84.5394 40.3047Z" fill="url(#paint5_linear_1023_3772)"/>
<defs>
<linearGradient id="paint0_linear_1023_3772" x1="1.39746" y1="108.081" x2="116.499" y2="1.38726" gradientUnits="userSpaceOnUse">
<stop stop-color="#5188D7"/>
<stop offset="1" stop-color="#80C9EB"/>
</linearGradient>
<linearGradient id="paint1_linear_1023_3772" x1="27.8354" y1="77.4344" x2="42.3729" y2="64.141" gradientUnits="userSpaceOnUse">
<stop stop-color="#5188D7"/>
<stop offset="1" stop-color="#80C9EB"/>
</linearGradient>
<linearGradient id="paint2_linear_1023_3772" x1="32.6992" y1="73.7298" x2="33.071" y2="72.1116" gradientUnits="userSpaceOnUse">
<stop stop-color="#5188D7"/>
<stop offset="1" stop-color="#80C9EB"/>
</linearGradient>
<linearGradient id="paint3_linear_1023_3772" x1="21" y1="85.9555" x2="49.4618" y2="60.3381" gradientUnits="userSpaceOnUse">
<stop stop-color="#5188D7"/>
<stop offset="1" stop-color="#80C9EB"/>
</linearGradient>
<linearGradient id="paint4_linear_1023_3772" x1="44" y1="51.7192" x2="71.9398" y2="5.31245" gradientUnits="userSpaceOnUse">
<stop stop-color="#5188D7"/>
<stop offset="1" stop-color="#80C9EB"/>
</linearGradient>
<linearGradient id="paint5_linear_1023_3772" x1="52.8276" y1="46.5405" x2="77.5844" y2="12.5832" gradientUnits="userSpaceOnUse">
<stop stop-color="#5188D7"/>
<stop offset="1" stop-color="#80C9EB"/>
</linearGradient>
</defs>
</svg>
