<svg width="114" height="110" viewBox="0 0 114 110" fill="none" xmlns="http://www.w3.org/2000/svg">
<path d="M1.39746 108.081V1.54053L109.397 10.0901V90.982L1.39746 108.081Z" fill="white" stroke="url(#paint0_linear_623_212)" stroke-width="2"/>
<path d="M75.6477 44.2429V58.7069C75.6483 59.8467 75.4242 60.9755 74.9883 62.0288C74.5525 63.082 73.9133 64.039 73.1074 64.8451C72.3015 65.6513 71.3446 66.2907 70.2915 66.7268C69.2384 67.1629 68.1096 67.3873 66.9698 67.387H61.1837L56.4113 72.1594C56.2811 72.2973 56.1242 72.4071 55.9501 72.4822C55.776 72.5573 55.5884 72.596 55.3988 72.596C55.2092 72.596 55.0216 72.5573 54.8475 72.4822C54.6734 72.4071 54.5164 72.2973 54.3863 72.1594L49.6139 67.387H43.8235C42.6837 67.387 41.555 67.1625 40.502 66.7262C39.449 66.29 38.4923 65.6506 37.6864 64.8445C36.8806 64.0385 36.2414 63.0815 35.8054 62.0284C35.3695 60.9753 35.1452 59.8466 35.1455 58.7069V44.2429C35.1455 41.9414 36.0598 39.7341 37.6872 38.1067C39.3146 36.4792 41.5219 35.5649 43.8235 35.5649H66.9676C69.2691 35.5649 71.4764 36.4792 73.1038 38.1067C74.7312 39.7341 75.6477 41.9414 75.6477 44.2429Z" stroke="url(#paint1_linear_623_212)" stroke-width="2.18919" stroke-linecap="round" stroke-linejoin="round"/>
<path d="M50.0098 45.7294C50.5406 44.5716 51.4424 43.6239 52.5725 43.0363C53.7025 42.4487 54.9963 42.2547 56.249 42.485C57.107 42.6171 57.9222 42.9483 58.6293 43.452C59.3364 43.9557 59.9157 44.6179 60.3208 45.3857C60.613 46.0002 60.7716 46.6696 60.7863 47.3498C60.801 48.03 60.6714 48.7057 60.406 49.3322C60.1406 49.9587 59.7455 50.5218 59.2467 50.9846C58.7479 51.4473 58.1567 51.7991 57.5121 52.0168C56.8554 52.2663 56.2873 52.7046 55.8794 53.2766C55.4715 53.8485 55.2421 54.5284 55.22 55.2305V56.5571" stroke="url(#paint2_linear_623_212)" stroke-width="2.18919" stroke-miterlimit="10" stroke-linecap="round"/>
<path d="M55.1738 62.3257H55.187" stroke="url(#paint3_linear_623_212)" stroke-width="2.91892" stroke-linecap="round" stroke-linejoin="round"/>
<defs>
<linearGradient id="paint0_linear_623_212" x1="1.39746" y1="108.081" x2="116.499" y2="1.38727" gradientUnits="userSpaceOnUse">
<stop stop-color="#5188D7"/>
<stop offset="1" stop-color="#80C9EB"/>
</linearGradient>
<linearGradient id="paint1_linear_623_212" x1="35.1455" y1="72.596" x2="75.2675" y2="32.4685" gradientUnits="userSpaceOnUse">
<stop stop-color="#5188D7"/>
<stop offset="1" stop-color="#80C9EB"/>
</linearGradient>
<linearGradient id="paint2_linear_623_212" x1="50.0098" y1="56.5571" x2="64.4008" y2="46.5456" gradientUnits="userSpaceOnUse">
<stop stop-color="#5188D7"/>
<stop offset="1" stop-color="#80C9EB"/>
</linearGradient>
<linearGradient id="paint3_linear_623_212" x1="55.1738" y1="63.3257" x2="55.1999" y2="63.3254" gradientUnits="userSpaceOnUse">
<stop stop-color="#5188D7"/>
<stop offset="1" stop-color="#80C9EB"/>
</linearGradient>
</defs>
</svg>
