<svg width="113" height="107" viewBox="0 0 113 107" fill="none" xmlns="http://www.w3.org/2000/svg">
<path d="M0.397461 106.541V0L108.397 8.54955V89.4414L0.397461 106.541Z" fill="url(#paint0_linear_623_209)"/>
<path d="M30.5775 66.913L32.0743 67.6614M36.5647 66.913L35.0679 67.6614M33.5711 75.8939C32.6866 75.8939 31.8107 75.7197 30.9935 75.3812C30.1763 75.0427 29.4337 74.5465 28.8083 73.9211C28.1828 73.2956 27.6867 72.5531 27.3482 71.7359C27.0097 70.9187 26.8354 70.0428 26.8354 69.1583C26.8354 68.2737 27.0097 67.3978 27.3482 66.5806C27.6867 65.7634 28.1828 65.0209 28.8083 64.3954C29.4337 63.77 30.1763 63.2738 30.9935 62.9353C31.8107 62.5968 32.6866 62.4226 33.5711 62.4226C35.3575 62.4226 37.0707 63.1323 38.3339 64.3954C39.5971 65.6586 40.3068 67.3719 40.3068 69.1583C40.3068 70.9447 39.5971 72.6579 38.3339 73.9211C37.0707 75.1843 35.3575 75.8939 33.5711 75.8939Z" stroke="white" stroke-width="2.19" stroke-linecap="round" stroke-linejoin="round"/>
<path d="M35.4412 72.1893C35.1974 71.9404 34.9063 71.7426 34.585 71.6076C34.2637 71.4726 33.9187 71.4031 33.5702 71.4031C33.2217 71.4031 32.8768 71.4726 32.5555 71.6076C32.2342 71.7426 31.9431 71.9404 31.6992 72.1893" stroke="white" stroke-width="2.19" stroke-linecap="round" stroke-linejoin="round"/>
<path d="M41.3394 58C42.5755 58 43.7609 58.491 44.6349 59.3651C45.509 60.2391 46 61.4245 46 62.6606V75.0889C46 76.3249 45.509 77.5104 44.6349 78.3844C43.7609 79.2584 42.5755 79.7495 41.3394 79.7495L35.5353 79.7543L27.7677 84.4149V79.7543H24.6606C23.4245 79.7543 22.2391 79.2633 21.3651 78.3893C20.491 77.5152 20 76.3298 20 75.0937V62.6655C20 61.4294 20.491 60.244 21.3651 59.3699C22.2391 58.4959 23.4245 58.0049 24.6606 58.0049L41.3394 58Z" stroke="white" stroke-width="2.19" stroke-linecap="round" stroke-linejoin="round"/>
<path d="M90.8508 21C92.2165 21 93.5262 21.5425 94.4918 22.5082C95.4575 23.4738 96 24.7835 96 26.1492V39.8803C96 41.246 95.4575 42.5557 94.4918 43.5214C93.5262 44.487 92.2165 45.0295 90.8508 45.0295L60.1639 45.0295L51.582 50.1787V45.0295H48.1492C46.7835 45.0295 45.4738 44.487 44.5082 43.5214C43.5425 42.5557 43 41.246 43 39.8803V26.1492C43 24.7835 43.5425 23.4738 44.5082 22.5082C45.4738 21.5425 46.7835 21 48.1492 21H90.8508Z" stroke="white" stroke-width="2.19" stroke-linecap="round" stroke-linejoin="round"/>
<path d="M55.4115 35.8159H53.3106L52.8692 27.3948H55.8528L55.4115 35.8159ZM52.8339 38.7642C52.8339 38.2228 52.9811 37.8462 53.2753 37.6343C53.5695 37.4107 53.9285 37.2989 54.3522 37.2989C54.7641 37.2989 55.1172 37.4107 55.4115 37.6343C55.7057 37.8462 55.8528 38.2228 55.8528 38.7642C55.8528 39.2821 55.7057 39.6587 55.4115 39.8941C55.1172 40.1177 54.7641 40.2295 54.3522 40.2295C53.9285 40.2295 53.5695 40.1177 53.2753 39.8941C52.9811 39.6587 52.8339 39.2821 52.8339 38.7642ZM65.4944 32.7264L65.0884 34.7214H67.3128V36.5044H64.753L64.0821 40H62.1931L62.8639 36.5044H61.1868L60.5336 40H58.6799L59.3154 36.5044H57.2675V34.7214H59.6509L60.0569 32.7264H57.8854V30.9257H60.3747L61.0455 27.4125H62.9346L62.2637 30.9257H63.9762L64.647 27.4125H66.5007L65.8299 30.9257H67.8954V32.7264H65.4944ZM61.5222 34.7214H63.217L63.6231 32.7264H61.9283L61.5222 34.7214ZM74.542 42.7894C73.5416 42.7894 72.7648 42.707 72.2116 42.5422C71.6702 42.3775 71.2936 42.1185 71.0818 41.7654C70.8699 41.4123 70.764 40.9533 70.764 40.3884V37.6696C70.764 37.293 70.6757 36.9929 70.4992 36.7693C70.3344 36.5456 70.0872 36.3867 69.7577 36.2926C69.4399 36.1867 69.0397 36.1337 68.5572 36.1337V34.0681C69.0397 34.0681 69.4399 34.0211 69.7577 33.9269C70.0872 33.821 70.3344 33.6562 70.4992 33.4326C70.6757 33.1972 70.764 32.8971 70.764 32.5322V29.7958C70.764 29.3721 70.817 29.0072 70.9229 28.7012C71.0406 28.3952 71.2407 28.1481 71.5231 27.9597C71.8056 27.7714 72.1881 27.6302 72.6707 27.536C73.165 27.4419 73.7888 27.3948 74.542 27.3948V29.3368C74.236 29.3368 73.9712 29.3721 73.7476 29.4427C73.5239 29.5133 73.3474 29.6369 73.2179 29.8134C73.1002 29.9782 73.0414 30.2254 73.0414 30.5549V33.1325C73.0414 33.6739 72.8707 34.1034 72.5294 34.4212C72.1881 34.739 71.6879 34.945 71.0288 35.0391V35.1451C71.6879 35.2392 72.1881 35.4452 72.5294 35.763C72.8707 36.0807 73.0414 36.5103 73.0414 37.0517V39.6293C73.0414 39.9588 73.1002 40.206 73.2179 40.3707C73.3474 40.5473 73.5239 40.665 73.7476 40.7238C73.9712 40.7944 74.236 40.8356 74.542 40.8474V42.7894ZM77.7296 27.3948L82.4256 40H80.0423L75.3463 27.3948H77.7296ZM86.1169 35.8159H84.0161L83.5747 27.3948H86.5583L86.1169 35.8159ZM83.5394 38.7642C83.5394 38.2228 83.6865 37.8462 83.9807 37.6343C84.275 37.4107 84.634 37.2989 85.0577 37.2989C85.4696 37.2989 85.8227 37.4107 86.1169 37.6343C86.4112 37.8462 86.5583 38.2228 86.5583 38.7642C86.5583 39.2821 86.4112 39.6587 86.1169 39.8941C85.8227 40.1177 85.4696 40.2295 85.0577 40.2295C84.634 40.2295 84.275 40.1177 83.9807 39.8941C83.6865 39.6587 83.5394 39.2821 83.5394 38.7642Z" fill="white"/>
<defs>
<linearGradient id="paint0_linear_623_209" x1="0.397461" y1="106.541" x2="115.499" y2="-0.153268" gradientUnits="userSpaceOnUse">
<stop stop-color="#5188D7"/>
<stop offset="1" stop-color="#80C9EB"/>
</linearGradient>
</defs>
</svg>
