<svg width="56" height="45" viewBox="0 0 56 45" fill="none" xmlns="http://www.w3.org/2000/svg">
<path d="M53.0716 12.611H51.7424V3.30698C51.7414 2.60228 51.461 1.92674 50.9627 1.42844C50.4644 0.930145 49.7888 0.649736 49.0841 0.648682H25.1594C24.4547 0.649736 23.7792 0.930145 23.2809 1.42844C22.7826 1.92674 22.5022 2.60228 22.5011 3.30698V12.611H21.172C20.4673 12.6121 19.7917 12.8925 19.2934 13.3908C18.7951 13.8891 18.5147 14.5646 18.5137 15.2693V20.5859C18.5147 21.2906 18.7951 21.9662 19.2934 22.4645C19.7917 22.9628 20.4673 23.2432 21.172 23.2442H22.5011V28.5608C22.5046 31.0274 23.486 33.3918 25.2301 35.1359C26.9742 36.88 29.3387 37.8614 31.8052 37.8649H42.4384C44.9049 37.8614 47.2694 36.88 49.0135 35.1359C50.7575 33.3918 51.7389 31.0274 51.7424 28.5608V23.2442H53.0716C53.7763 23.2432 54.4518 22.9628 54.9501 22.4645C55.4484 21.9662 55.7288 21.2906 55.7299 20.5859V15.2693C55.7288 14.5646 55.4484 13.8891 54.9501 13.3908C54.4518 12.8925 53.7763 12.6121 53.0716 12.611ZM49.0841 3.30698V7.80217L45.6908 6.10617C45.5063 6.01399 45.3029 5.96599 45.0967 5.96599C44.8904 5.96599 44.687 6.01399 44.5026 6.10617L39.7801 8.46675L35.0576 6.10617C34.8731 6.01399 34.6697 5.96599 34.4635 5.96599C34.2572 5.96599 34.0538 6.01399 33.8693 6.10617L29.1469 8.46675L25.1594 6.47302V3.30698H49.0841ZM53.0716 20.5859H49.0841V28.5608C49.082 30.3228 48.3812 32.0119 47.1353 33.2578C45.8894 34.5036 44.2003 35.2045 42.4384 35.2066H31.8052C30.0433 35.2045 28.3541 34.5036 27.1083 33.2578C25.8624 32.0119 25.1615 30.3228 25.1594 28.5608V20.5859H21.172V15.2693H25.1594V9.445L28.5527 11.1423C28.7372 11.2345 28.9406 11.2825 29.1469 11.2825C29.3531 11.2825 29.5565 11.2345 29.741 11.1423L34.4635 8.78043L39.1859 11.141C39.3704 11.2332 39.5738 11.2812 39.7801 11.2812C39.9863 11.2812 40.1897 11.2332 40.3742 11.141L45.0967 8.78175L49.0841 10.7755V15.2693H53.0716V20.5859Z" fill="white"/>
<path d="M31.8052 29.0039C31.8052 29.0039 33.666 27.2317 38.0079 27.2317C42.3498 27.2317 44.2106 29.0039 44.2106 29.0039" stroke="white" stroke-width="2.2" stroke-linecap="square"/>
<path d="M27.8179 16.5986H34.4636V19.2569H27.8179V16.5986ZM39.7802 16.5986H46.426V19.2569H39.7802V16.5986Z" fill="white"/>
<path d="M30.9192 26.9189V19.2115C30.9192 16.0153 30.9192 14.4172 29.8874 13.543C28.8555 12.6673 27.2778 12.93 24.1225 13.4569L22.5828 13.7137C20.1892 14.1122 18.9925 14.3121 17.7841 14.3121C16.5756 14.3121 15.3789 14.1122 12.9854 13.7137L11.4471 13.4569C8.29174 12.9315 6.71406 12.6688 5.68222 13.543C4.65039 14.4172 4.64893 16.0153 4.64893 19.2115V26.9189C4.64893 34.9314 10.8356 38.8208 14.7177 40.4715C15.77 40.9195 16.2969 41.1428 17.7841 41.1428C19.2727 41.1428 19.7981 40.9195 20.8504 40.4715C24.7325 38.8208 30.9192 34.9314 30.9192 26.9189Z" fill="#6EACE3" stroke="white" stroke-width="2.18919"/>
<path d="M9.75684 22.5405C10.1815 21.6896 11.3287 21.0811 12.6758 21.0811C14.0228 21.0811 15.17 21.6896 15.5947 22.5405M19.9731 22.5405C20.3978 21.6896 21.5449 21.0811 22.892 21.0811C24.2391 21.0811 25.3862 21.6896 25.8109 22.5405M12.6758 29.8378C12.6758 29.8378 14.2082 31.2973 17.7839 31.2973C21.3595 31.2973 22.892 29.8378 22.892 29.8378" stroke="white" stroke-width="2.18919" stroke-linecap="round"/>
</svg>

