<svg width="113" height="107" viewBox="0 0 113 107" fill="none" xmlns="http://www.w3.org/2000/svg">
<path d="M0 107V0L108.466 8.58642V89.8272L0 107Z" fill="url(#paint0_linear_623_199)"/>
<path d="M60.0963 77.6851H55.699C55.1159 77.6851 54.5567 77.4507 54.1444 77.0337C53.732 76.6166 53.5004 76.051 53.5004 75.4611V67.6775C52.9173 67.6775 52.358 67.4432 51.9457 67.0261C51.5334 66.6091 51.3018 66.0434 51.3018 65.4536V58.7819C51.3018 57.8972 51.6492 57.0487 52.2677 56.4231C52.8862 55.7975 53.725 55.446 54.5997 55.446H61.1956C62.0703 55.446 62.9091 55.7975 63.5276 56.4231C64.1461 57.0487 64.4935 57.8972 64.4935 58.7819V65.4536C64.4935 66.0434 64.2619 66.6091 63.8496 67.0261C63.4373 67.4432 62.878 67.6775 62.2949 67.6775V75.4611C62.2949 76.051 62.0633 76.6166 61.6509 77.0337C61.2386 77.4507 60.6794 77.6851 60.0963 77.6851ZM54.5997 57.6699C54.4528 57.6601 54.3056 57.6821 54.1678 57.7345C54.03 57.7869 53.9049 57.8685 53.8008 57.9738C53.6967 58.0791 53.6161 58.2056 53.5643 58.345C53.5124 58.4844 53.4907 58.6333 53.5004 58.7819V65.4536H55.699V75.4611H60.0963V65.4536H62.2949V58.7819C62.3046 58.6333 62.2829 58.4844 62.231 58.345C62.1792 58.2056 62.0986 58.0791 61.9945 57.9738C61.8904 57.8685 61.7653 57.7869 61.6275 57.7345C61.4897 57.6821 61.3425 57.6601 61.1956 57.6699H54.5997ZM57.8976 54.3341C57.028 54.3341 56.1778 54.0732 55.4547 53.5845C54.7315 53.0958 54.1679 52.4011 53.8351 51.5884C53.5023 50.7757 53.4152 49.8813 53.5849 49.0186C53.7545 48.1558 54.1733 47.3632 54.7883 46.7412C55.4033 46.1192 56.1868 45.6956 57.0398 45.5239C57.8928 45.3523 58.7769 45.4404 59.5804 45.777C60.3839 46.1137 61.0707 46.6838 61.5538 47.4152C62.037 48.1467 62.2949 49.0066 62.2949 49.8863C62.2949 51.0659 61.8316 52.1972 61.007 53.0314C60.1823 53.8655 59.0639 54.3341 57.8976 54.3341ZM57.8976 47.6624C57.4628 47.6624 57.0377 47.7928 56.6762 48.0372C56.3146 48.2815 56.0328 48.6289 55.8664 49.0352C55.7 49.4416 55.6564 49.8887 55.7413 50.3201C55.8261 50.7515 56.0355 51.1478 56.343 51.4588C56.6505 51.7698 57.0422 51.9816 57.4687 52.0675C57.8952 52.1533 58.3373 52.1092 58.739 51.9409C59.1408 51.7726 59.4842 51.4875 59.7257 51.1218C59.9673 50.7561 60.0963 50.3261 60.0963 49.8863C60.0963 49.2965 59.8646 48.7308 59.4523 48.3137C59.04 47.8967 58.4808 47.6624 57.8976 47.6624Z" fill="white"/>
<path d="M29.5596 35.9108C29.5596 35.0037 29.9199 34.1338 30.5613 33.4924C31.2027 32.8511 32.0726 32.4907 32.9797 32.4907H43.2399C44.147 32.4907 45.0169 32.8511 45.6583 33.4924C46.2997 34.1338 46.66 35.0037 46.66 35.9108V46.1711C46.66 47.0782 46.2997 47.9481 45.6583 48.5895C45.0169 49.2308 44.147 49.5912 43.2399 49.5912H32.9797C32.0726 49.5912 31.2027 49.2308 30.5613 48.5895C29.9199 47.9481 29.5596 47.0782 29.5596 46.1711V35.9108Z" stroke="white" stroke-width="1.71005" stroke-linecap="round" stroke-linejoin="round"/>
<path d="M35.117 40.1858C36.2976 40.1858 37.2546 39.2287 37.2546 38.0482C37.2546 36.8677 36.2976 35.9106 35.117 35.9106C33.9365 35.9106 32.9795 36.8677 32.9795 38.0482C32.9795 39.2287 33.9365 40.1858 35.117 40.1858Z" stroke="white" stroke-width="1.71005" stroke-linecap="round" stroke-linejoin="round"/>
<path d="M40.2694 41.5718L32.9795 49.5911H43.3535C44.2304 49.5911 45.0714 49.2427 45.6914 48.6227C46.3115 48.0026 46.6599 47.1616 46.6599 46.2847V46.171C46.6599 45.7725 46.5102 45.6195 46.2409 45.3245L42.7952 41.5667C42.6346 41.3915 42.4392 41.2517 42.2216 41.1563C42.0039 41.0608 41.7688 41.0117 41.5312 41.0122C41.2935 41.0127 41.0586 41.0627 40.8413 41.1591C40.6241 41.2554 40.4293 41.396 40.2694 41.5718Z" stroke="white" stroke-width="1.71005" stroke-linecap="round" stroke-linejoin="round"/>
<g clip-path="url(#clip0_623_199)">
<path d="M64.0049 29.3152C64.0049 28.7969 64.2108 28.2998 64.5773 27.9333C64.9438 27.5667 65.4409 27.3608 65.9592 27.3608H71.8222C72.3406 27.3608 72.8376 27.5667 73.2042 27.9333C73.5707 28.2998 73.7766 28.7969 73.7766 29.3152V35.1782C73.7766 35.6965 73.5707 36.1936 73.2042 36.5601C72.8376 36.9266 72.3406 37.1325 71.8222 37.1325H65.9592C65.4409 37.1325 64.9438 36.9266 64.5773 36.5601C64.2108 36.1936 64.0049 35.6965 64.0049 35.1782V29.3152Z" stroke="white" stroke-width="1.46575" stroke-linecap="round" stroke-linejoin="round"/>
<path d="M68.1582 33.5161L68.1582 30.9771L70.3574 32.2466L68.1582 33.5161Z" stroke="white" stroke-width="1.46575"/>
</g>
<g clip-path="url(#clip1_623_199)">
<path d="M72.5547 52.0344C72.5547 51.6456 72.7091 51.2728 72.984 50.9979C73.2589 50.723 73.6317 50.5686 74.0204 50.5686H78.4177C78.8064 50.5686 79.1793 50.723 79.4541 50.9979C79.729 51.2728 79.8835 51.6456 79.8835 52.0344V56.4316C79.8835 56.8204 79.729 57.1932 79.4541 57.4681C79.1793 57.7429 78.8064 57.8974 78.4177 57.8974H74.0204C73.6317 57.8974 73.2589 57.7429 72.984 57.4681C72.7091 57.1932 72.5547 56.8204 72.5547 56.4316V52.0344Z" stroke="white" stroke-width="1.09932" stroke-linecap="round" stroke-linejoin="round"/>
<path d="M74.9366 53.8666C75.4425 53.8666 75.8527 53.4565 75.8527 52.9505C75.8527 52.4446 75.4425 52.0344 74.9366 52.0344C74.4307 52.0344 74.0205 52.4446 74.0205 52.9505C74.0205 53.4565 74.4307 53.8666 74.9366 53.8666Z" stroke="white" stroke-width="0.732877" stroke-linecap="round" stroke-linejoin="round"/>
<path d="M77.1448 54.4605L74.0205 57.8974H78.4665C78.8423 57.8974 79.2027 57.7481 79.4685 57.4823C79.7342 57.2166 79.8835 56.8562 79.8835 56.4803V56.4316C79.8835 56.2608 79.8194 56.1953 79.704 56.0688L78.2272 54.4583C78.1584 54.3833 78.0747 54.3234 77.9814 54.2824C77.8881 54.2415 77.7874 54.2205 77.6855 54.2207C77.5837 54.2209 77.483 54.2423 77.3899 54.2836C77.2968 54.3249 77.2133 54.3852 77.1448 54.4605Z" stroke="white" stroke-width="1.09932" stroke-linecap="round" stroke-linejoin="round"/>
</g>
<defs>
<linearGradient id="paint0_linear_623_199" x1="-2.02033e-07" y1="107" x2="115.598" y2="-0.153921" gradientUnits="userSpaceOnUse">
<stop stop-color="#5188D7"/>
<stop offset="1" stop-color="#80C9EB"/>
</linearGradient>
<clipPath id="clip0_623_199">
<rect width="11.726" height="11.726" fill="white" transform="translate(63.0273 26.3835)"/>
</clipPath>
<clipPath id="clip1_623_199">
<rect width="8.79452" height="8.79452" fill="white" transform="translate(71.8223 49.8357)"/>
</clipPath>
</defs>
</svg>
