<svg width="56" height="64" viewBox="0 0 56 64" fill="none" xmlns="http://www.w3.org/2000/svg">
<path d="M10.7086 57.1592H21.2012M26.4477 15.189C27.3753 15.189 28.2649 15.5575 28.9208 16.2134C29.5767 16.8693 29.9452 17.7589 29.9452 18.6865L29.9449 58.9079C29.9449 59.8355 29.5764 60.7251 28.9205 61.381C28.2646 62.037 27.375 62.4054 26.4474 62.4054H5.46236C4.53476 62.4054 3.64515 62.037 2.98924 61.381C2.33333 60.7251 1.96484 59.8355 1.96484 58.9079L1.96511 18.6865C1.96511 17.7589 2.33359 16.8693 2.9895 16.2134C3.64542 15.5575 4.53502 15.189 5.46262 15.189H26.4477Z" stroke="white" stroke-width="2.18919" stroke-linecap="round" stroke-linejoin="round"/>
<path d="M10.486 37.9496V43.7874H20.2157V37.9496H10.486ZM18.2698 31.1388C18.2698 30.7555 18.1943 30.3759 18.0476 30.0218C17.9009 29.6676 17.6859 29.3458 17.4148 29.0748C17.1438 28.8038 16.822 28.5888 16.4679 28.4421C16.1137 28.2954 15.7342 28.2199 15.3508 28.2199C14.9675 28.2199 14.588 28.2954 14.2338 28.4421C13.8797 28.5888 13.5579 28.8038 13.2869 29.0748C13.0158 29.3458 12.8008 29.6676 12.6541 30.0218C12.5074 30.3759 12.4319 30.7555 12.4319 31.1388V36.0037H20.2157C20.7318 36.0037 21.2268 36.2087 21.5917 36.5736C21.9566 36.9385 22.1617 37.4335 22.1617 37.9496V43.7874C22.1617 44.3035 21.9566 44.7985 21.5917 45.1634C21.2268 45.5284 20.7318 45.7334 20.2157 45.7334H10.486C9.96989 45.7334 9.47493 45.5284 9.10999 45.1634C8.74506 44.7985 8.54004 44.3035 8.54004 43.7874V37.9496C8.54004 37.4335 8.74506 36.9385 9.10999 36.5736C9.47493 36.2087 9.96989 36.0037 10.486 36.0037V31.1388C10.486 29.8485 10.9985 28.6112 11.9109 27.6988C12.8232 26.7865 14.0606 26.2739 15.3508 26.2739C16.6411 26.2739 17.8785 26.7865 18.7908 27.6988C19.7032 28.6112 20.2157 29.8485 20.2157 31.1388C20.2157 31.3968 20.1132 31.6443 19.9307 31.8268C19.7483 32.0093 19.5008 32.1118 19.2427 32.1118C18.9847 32.1118 18.7372 32.0093 18.5547 31.8268C18.3723 31.6443 18.2698 31.3968 18.2698 31.1388ZM15.3508 42.8145C14.8348 42.8145 14.3398 42.6094 13.9749 42.2445C13.6099 41.8796 13.4049 41.3846 13.4049 40.8685C13.4049 40.3524 13.6099 39.8575 13.9749 39.4925C14.3398 39.1276 14.8348 38.9226 15.3508 38.9226C15.8669 38.9226 16.3619 39.1276 16.7268 39.4925C17.0918 39.8575 17.2968 40.3524 17.2968 40.8685C17.2968 41.3846 17.0918 41.8796 16.7268 42.2445C16.3619 42.6094 15.8669 42.8145 15.3508 42.8145Z" fill="white"/>
<path d="M46.8482 13.2412H45.136L44.7763 6.37817H47.2079L46.8482 13.2412ZM44.7476 15.644C44.7476 15.2028 44.8675 14.8959 45.1073 14.7232C45.3471 14.541 45.6396 14.4498 45.9849 14.4498C46.3206 14.4498 46.6084 14.541 46.8482 14.7232C47.088 14.8959 47.2079 15.2028 47.2079 15.644C47.2079 16.0661 47.088 16.373 46.8482 16.5649C46.6084 16.7471 46.3206 16.8382 45.9849 16.8382C45.6396 16.8382 45.3471 16.7471 45.1073 16.5649C44.8675 16.373 44.7476 16.0661 44.7476 15.644Z" fill="white"/>
<path d="M42.3119 19.2235C44.033 20.1064 46.0127 20.3455 47.8945 19.8978C49.7762 19.4502 51.4362 18.3451 52.5753 16.7818C53.7143 15.2185 54.2576 13.2998 54.1071 11.3714C53.9567 9.44298 53.1225 7.63171 51.7547 6.26398C50.387 4.89625 48.5757 4.062 46.6473 3.91156C44.7189 3.76112 42.8002 4.30438 41.2369 5.44345C39.6736 6.58252 38.5686 8.2425 38.1209 10.1242C37.6732 12.006 37.9123 13.9857 38.7952 15.7068L36.9917 21.027L42.3119 19.2235Z" stroke="white" stroke-width="2.18919" stroke-linecap="round" stroke-linejoin="round"/>
</svg>
