<svg width="113" height="110" viewBox="0 0 113 110" fill="none" xmlns="http://www.w3.org/2000/svg">
<path d="M1 108.081V1.54053L109 10.0901V90.982L1 108.081Z" fill="white" stroke="url(#paint0_linear_623_198)" stroke-width="2"/>
<path d="M80.0716 44.1516H78.7424V34.8475C78.7414 34.1428 78.461 33.4673 77.9627 32.969C77.4644 32.4707 76.7888 32.1903 76.0841 32.1892H52.1594C51.4547 32.1903 50.7792 32.4707 50.2809 32.969C49.7826 33.4673 49.5022 34.1428 49.5011 34.8475V44.1516H48.172C47.4673 44.1526 46.7917 44.433 46.2934 44.9313C45.7951 45.4296 45.5147 46.1052 45.5137 46.8099V52.1265C45.5147 52.8312 45.7951 53.5067 46.2934 54.005C46.7917 54.5033 47.4673 54.7837 48.172 54.7848H49.5011V60.1014C49.5046 62.5679 50.486 64.9324 52.2301 66.6764C53.9742 68.4205 56.3387 69.4019 58.8052 69.4054H69.4384C71.9049 69.4019 74.2694 68.4205 76.0135 66.6764C77.7575 64.9324 78.7389 62.5679 78.7424 60.1014V54.7848H80.0716C80.7763 54.7837 81.4518 54.5033 81.9501 54.005C82.4484 53.5067 82.7288 52.8312 82.7299 52.1265V46.8099C82.7288 46.1052 82.4484 45.4296 81.9501 44.9313C81.4518 44.433 80.7763 44.1526 80.0716 44.1516ZM76.0841 34.8475V39.3427L72.6908 37.6467C72.5063 37.5545 72.3029 37.5065 72.0967 37.5065C71.8904 37.5065 71.687 37.5545 71.5026 37.6467L66.7801 40.0073L62.0576 37.6467C61.8731 37.5545 61.6697 37.5065 61.4635 37.5065C61.2572 37.5065 61.0538 37.5545 60.8693 37.6467L56.1469 40.0073L52.1594 38.0135V34.8475H76.0841ZM80.0716 52.1265H76.0841V60.1014C76.082 61.8633 75.3812 63.5524 74.1353 64.7983C72.8894 66.0442 71.2003 66.745 69.4384 66.7471H58.8052C57.0433 66.745 55.3541 66.0442 54.1083 64.7983C52.8624 63.5524 52.1615 61.8633 52.1594 60.1014V52.1265H48.172V46.8099H52.1594V40.9855L55.5527 42.6829C55.7372 42.775 55.9406 42.823 56.1469 42.823C56.3531 42.823 56.5565 42.775 56.741 42.6829L61.4635 40.321L66.1859 42.6815C66.3704 42.7737 66.5738 42.8217 66.7801 42.8217C66.9863 42.8217 67.1897 42.7737 67.3742 42.6815L72.0967 40.3223L76.0841 42.316V46.8099H80.0716V52.1265Z" fill="url(#paint1_linear_623_198)"/>
<path d="M58.8052 60.5444C58.8052 60.5444 60.666 58.7722 65.0079 58.7722C69.3498 58.7722 71.2106 60.5444 71.2106 60.5444" stroke="url(#paint2_linear_623_198)" stroke-width="2.2" stroke-linecap="square"/>
<path d="M54.8179 48.1392H61.4636V50.7975H54.8179V48.1392ZM66.7802 48.1392H73.426V50.7975H66.7802V48.1392Z" fill="url(#paint3_linear_623_198)"/>
<path d="M57.9192 58.4595V50.7521C57.9192 47.5558 57.9192 45.9577 56.8874 45.0835C55.8555 44.2078 54.2778 44.4705 51.1225 44.9974L49.5828 45.2543C47.1892 45.6527 45.9925 45.8527 44.7841 45.8527C43.5756 45.8527 42.3789 45.6527 39.9854 45.2543L38.4471 44.9974C35.2917 44.472 33.7141 44.2093 32.6822 45.0835C31.6504 45.9577 31.6489 47.5558 31.6489 50.7521V58.4595C31.6489 66.4719 37.8356 70.3614 41.7177 72.012C42.77 72.4601 43.2969 72.6834 44.7841 72.6834C46.2727 72.6834 46.7981 72.4601 47.8504 72.012C51.7325 70.3614 57.9192 66.4719 57.9192 58.4595Z" fill="white" stroke="url(#paint4_linear_623_198)" stroke-width="2.18919"/>
<path d="M36.7568 54.081C37.1815 53.2302 38.3287 52.6216 39.6758 52.6216C41.0228 52.6216 42.17 53.2302 42.5947 54.081M46.9731 54.081C47.3978 53.2302 48.5449 52.6216 49.892 52.6216C51.2391 52.6216 52.3862 53.2302 52.8109 54.081M39.6758 61.3783C39.6758 61.3783 41.2082 62.8378 44.7839 62.8378C48.3595 62.8378 49.892 61.3783 49.892 61.3783" stroke="url(#paint5_linear_623_198)" stroke-width="2.18919" stroke-linecap="round"/>
<defs>
<linearGradient id="paint0_linear_623_198" x1="1" y1="108.081" x2="116.102" y2="1.38727" gradientUnits="userSpaceOnUse">
<stop stop-color="#5188D7"/>
<stop offset="1" stop-color="#80C9EB"/>
</linearGradient>
<linearGradient id="paint1_linear_623_198" x1="45.5137" y1="69.4054" x2="85.6754" y2="32.6805" gradientUnits="userSpaceOnUse">
<stop stop-color="#5188D7"/>
<stop offset="1" stop-color="#80C9EB"/>
</linearGradient>
<linearGradient id="paint2_linear_623_198" x1="58.8052" y1="58.7722" x2="59.3908" y2="62.521" gradientUnits="userSpaceOnUse">
<stop stop-color="#5188D7"/>
<stop offset="1" stop-color="#80C9EB"/>
</linearGradient>
<linearGradient id="paint3_linear_623_198" x1="54.8179" y1="50.7975" x2="55.6963" y2="45.1743" gradientUnits="userSpaceOnUse">
<stop stop-color="#5188D7"/>
<stop offset="1" stop-color="#80C9EB"/>
</linearGradient>
<linearGradient id="paint4_linear_623_198" x1="31.6489" y1="72.6834" x2="61.7879" y2="46.9829" gradientUnits="userSpaceOnUse">
<stop stop-color="#5188D7"/>
<stop offset="1" stop-color="#80C9EB"/>
</linearGradient>
<linearGradient id="paint5_linear_623_198" x1="36.7568" y1="62.8378" x2="47.1362" y2="47.9231" gradientUnits="userSpaceOnUse">
<stop stop-color="#5188D7"/>
<stop offset="1" stop-color="#80C9EB"/>
</linearGradient>
</defs>
</svg>
