<svg width="112" height="107" viewBox="0 0 112 107" fill="none" xmlns="http://www.w3.org/2000/svg">
<path d="M0 106.541V0L108 8.54955V89.4414L0 106.541Z" fill="url(#paint0_linear_623_197)"/>
<path d="M79.0716 42.611H77.7424V33.307C77.7414 32.6023 77.461 31.9267 76.9627 31.4284C76.4644 30.9301 75.7888 30.6497 75.0841 30.6487H51.1594C50.4547 30.6497 49.7792 30.9301 49.2809 31.4284C48.7826 31.9267 48.5022 32.6023 48.5011 33.307V42.611H47.172C46.4673 42.6121 45.7917 42.8925 45.2934 43.3908C44.7951 43.8891 44.5147 44.5646 44.5137 45.2693V50.5859C44.5147 51.2906 44.7951 51.9662 45.2934 52.4645C45.7917 52.9628 46.4673 53.2432 47.172 53.2442H48.5011V58.5608C48.5046 61.0274 49.486 63.3918 51.2301 65.1359C52.9742 66.88 55.3387 67.8614 57.8052 67.8649H68.4384C70.9049 67.8614 73.2694 66.88 75.0135 65.1359C76.7575 63.3918 77.7389 61.0274 77.7424 58.5608V53.2442H79.0716C79.7763 53.2432 80.4518 52.9628 80.9501 52.4645C81.4484 51.9662 81.7288 51.2906 81.7299 50.5859V45.2693C81.7288 44.5646 81.4484 43.8891 80.9501 43.3908C80.4518 42.8925 79.7763 42.6121 79.0716 42.611ZM75.0841 33.307V37.8022L71.6908 36.1062C71.5063 36.014 71.3029 35.966 71.0967 35.966C70.8904 35.966 70.687 36.014 70.5026 36.1062L65.7801 38.4667L61.0576 36.1062C60.8731 36.014 60.6697 35.966 60.4635 35.966C60.2572 35.966 60.0538 36.014 59.8693 36.1062L55.1469 38.4667L51.1594 36.473V33.307H75.0841ZM79.0716 50.5859H75.0841V58.5608C75.082 60.3228 74.3812 62.0119 73.1353 63.2578C71.8894 64.5036 70.2003 65.2045 68.4384 65.2066H57.8052C56.0433 65.2045 54.3541 64.5036 53.1083 63.2578C51.8624 62.0119 51.1615 60.3228 51.1594 58.5608V50.5859H47.172V45.2693H51.1594V39.445L54.5527 41.1423C54.7372 41.2345 54.9406 41.2825 55.1469 41.2825C55.3531 41.2825 55.5565 41.2345 55.741 41.1423L60.4635 38.7804L65.1859 41.141C65.3704 41.2332 65.5738 41.2812 65.7801 41.2812C65.9863 41.2812 66.1897 41.2332 66.3742 41.141L71.0967 38.7818L75.0841 40.7755V45.2693H79.0716V50.5859Z" fill="white"/>
<path d="M57.8052 59.0039C57.8052 59.0039 59.666 57.2317 64.0079 57.2317C68.3498 57.2317 70.2106 59.0039 70.2106 59.0039" stroke="white" stroke-width="2.2" stroke-linecap="square"/>
<path d="M53.8179 46.5986H60.4636V49.2569H53.8179V46.5986ZM65.7802 46.5986H72.426V49.2569H65.7802V46.5986Z" fill="white"/>
<path d="M56.9192 56.9189V49.2115C56.9192 46.0153 56.9192 44.4172 55.8874 43.543C54.8555 42.6673 53.2778 42.93 50.1225 43.4569L48.5828 43.7137C46.1892 44.1122 44.9925 44.3121 43.7841 44.3121C42.5756 44.3121 41.3789 44.1122 38.9854 43.7137L37.4471 43.4569C34.2917 42.9315 32.7141 42.6688 31.6822 43.543C30.6504 44.4172 30.6489 46.0153 30.6489 49.2115V56.9189C30.6489 64.9314 36.8356 68.8208 40.7177 70.4715C41.77 70.9195 42.2969 71.1428 43.7841 71.1428C45.2727 71.1428 45.7981 70.9195 46.8504 70.4715C50.7325 68.8208 56.9192 64.9314 56.9192 56.9189Z" fill="#6EACE3" stroke="white" stroke-width="2.18919"/>
<path d="M35.7568 52.5405C36.1815 51.6896 37.3287 51.0811 38.6758 51.0811C40.0228 51.0811 41.17 51.6896 41.5947 52.5405M45.9731 52.5405C46.3978 51.6896 47.5449 51.0811 48.892 51.0811C50.2391 51.0811 51.3862 51.6896 51.8109 52.5405M38.6758 59.8378C38.6758 59.8378 40.2082 61.2973 43.7839 61.2973C47.3595 61.2973 48.892 59.8378 48.892 59.8378" stroke="white" stroke-width="2.18919" stroke-linecap="round"/>
<defs>
<linearGradient id="paint0_linear_623_197" x1="-2.01166e-07" y1="106.541" x2="115.102" y2="-0.15326" gradientUnits="userSpaceOnUse">
<stop stop-color="#5188D7"/>
<stop offset="1" stop-color="#80C9EB"/>
</linearGradient>
</defs>
</svg>
