<svg width="113" height="107" viewBox="0 0 113 107" fill="none" xmlns="http://www.w3.org/2000/svg">
<path d="M0.397461 106.541V0L108.397 8.54955V89.4414L0.397461 106.541Z" fill="url(#paint0_linear_623_207)"/>
<path d="M42.7086 71.1592H53.2012M58.4477 29.189C59.3753 29.189 60.2649 29.5575 60.9208 30.2134C61.5767 30.8693 61.9452 31.7589 61.9452 32.6865L61.9449 72.9079C61.9449 73.8355 61.5764 74.7251 60.9205 75.381C60.2646 76.037 59.375 76.4054 58.4474 76.4054H37.4624C36.5348 76.4054 35.6452 76.037 34.9892 75.381C34.3333 74.7251 33.9648 73.8355 33.9648 72.9079L33.9651 32.6865C33.9651 31.7589 34.3336 30.8693 34.9895 30.2134C35.6454 29.5575 36.535 29.189 37.4626 29.189H58.4477Z" stroke="white" stroke-width="2.18919" stroke-linecap="round" stroke-linejoin="round"/>
<path d="M42.486 51.9496V57.7874H52.2157V51.9496H42.486ZM50.2698 45.1388C50.2698 44.7555 50.1943 44.3759 50.0476 44.0218C49.9009 43.6676 49.6859 43.3458 49.4148 43.0748C49.1438 42.8038 48.822 42.5888 48.4679 42.4421C48.1137 42.2954 47.7342 42.2199 47.3508 42.2199C46.9675 42.2199 46.588 42.2954 46.2338 42.4421C45.8797 42.5888 45.5579 42.8038 45.2869 43.0748C45.0158 43.3458 44.8008 43.6676 44.6541 44.0218C44.5074 44.3759 44.4319 44.7555 44.4319 45.1388V50.0037H52.2157C52.7318 50.0037 53.2268 50.2087 53.5917 50.5736C53.9566 50.9385 54.1617 51.4335 54.1617 51.9496V57.7874C54.1617 58.3035 53.9566 58.7985 53.5917 59.1634C53.2268 59.5284 52.7318 59.7334 52.2157 59.7334H42.486C41.9699 59.7334 41.4749 59.5284 41.11 59.1634C40.7451 58.7985 40.54 58.3035 40.54 57.7874V51.9496C40.54 51.4335 40.7451 50.9385 41.11 50.5736C41.4749 50.2087 41.9699 50.0037 42.486 50.0037V45.1388C42.486 43.8485 42.9985 42.6112 43.9109 41.6988C44.8232 40.7865 46.0606 40.2739 47.3508 40.2739C48.6411 40.2739 49.8785 40.7865 50.7908 41.6988C51.7032 42.6112 52.2157 43.8485 52.2157 45.1388C52.2157 45.3968 52.1132 45.6443 51.9307 45.8268C51.7483 46.0093 51.5008 46.1118 51.2427 46.1118C50.9847 46.1118 50.7372 46.0093 50.5547 45.8268C50.3723 45.6443 50.2698 45.3968 50.2698 45.1388ZM47.3508 56.8145C46.8348 56.8145 46.3398 56.6094 45.9749 56.2445C45.6099 55.8796 45.4049 55.3846 45.4049 54.8685C45.4049 54.3524 45.6099 53.8575 45.9749 53.4925C46.3398 53.1276 46.8348 52.9226 47.3508 52.9226C47.8669 52.9226 48.3619 53.1276 48.7268 53.4925C49.0918 53.8575 49.2968 54.3524 49.2968 54.8685C49.2968 55.3846 49.0918 55.8796 48.7268 56.2445C48.3619 56.6094 47.8669 56.8145 47.3508 56.8145Z" fill="white"/>
<path d="M78.8482 27.2412H77.136L76.7763 20.3782H79.2079L78.8482 27.2412ZM76.7476 29.644C76.7476 29.2028 76.8675 28.8959 77.1073 28.7232C77.3471 28.541 77.6396 28.4498 77.9849 28.4498C78.3206 28.4498 78.6084 28.541 78.8482 28.7232C79.088 28.8959 79.2079 29.2028 79.2079 29.644C79.2079 30.0661 79.088 30.373 78.8482 30.5649C78.6084 30.7471 78.3206 30.8382 77.9849 30.8382C77.6396 30.8382 77.3471 30.7471 77.1073 30.5649C76.8675 30.373 76.7476 30.0661 76.7476 29.644Z" fill="white"/>
<path d="M74.3119 33.2235C76.033 34.1064 78.0127 34.3455 79.8945 33.8978C81.7762 33.4502 83.4362 32.3451 84.5753 30.7818C85.7143 29.2185 86.2576 27.2998 86.1071 25.3714C85.9567 23.443 85.1225 21.6317 83.7547 20.264C82.387 18.8963 80.5757 18.062 78.6473 17.9116C76.7189 17.7611 74.8002 18.3044 73.2369 19.4435C71.6736 20.5825 70.5686 22.2425 70.1209 24.1242C69.6732 26.006 69.9123 27.9857 70.7952 29.7068L68.9917 35.027L74.3119 33.2235Z" stroke="white" stroke-width="2.18919" stroke-linecap="round" stroke-linejoin="round"/>
<defs>
<linearGradient id="paint0_linear_623_207" x1="0.397461" y1="106.541" x2="115.499" y2="-0.15326" gradientUnits="userSpaceOnUse">
<stop stop-color="#5188D7"/>
<stop offset="1" stop-color="#80C9EB"/>
</linearGradient>
</defs>
</svg>
