<svg width="53" height="53" viewBox="0 0 53 53" fill="none" xmlns="http://www.w3.org/2000/svg">
<path d="M46.6477 16.7024V31.1663C46.6483 32.3062 46.4242 33.435 45.9883 34.4882C45.5525 35.5415 44.9133 36.4985 44.1074 37.3046C43.3015 38.1107 42.3446 38.7501 41.2915 39.1863C40.2384 39.6224 39.1096 39.8468 37.9698 39.8465H32.1837L27.4113 44.6189C27.2811 44.7568 27.1242 44.8666 26.9501 44.9417C26.776 45.0168 26.5884 45.0555 26.3988 45.0555C26.2092 45.0555 26.0216 45.0168 25.8475 44.9417C25.6734 44.8666 25.5164 44.7568 25.3863 44.6189L20.6139 39.8465H14.8235C13.6837 39.8465 12.555 39.6219 11.502 39.1857C10.449 38.7494 9.4923 38.11 8.68645 37.304C7.88059 36.4979 7.24143 35.541 6.80545 34.4879C6.36947 33.4348 6.14522 32.3061 6.14551 31.1663V16.7024C6.14551 14.4008 7.05979 12.1936 8.68722 10.5661C10.3146 8.93869 12.5219 8.02441 14.8235 8.02441H37.9676C40.2691 8.02441 42.4764 8.93869 44.1038 10.5661C45.7312 12.1936 46.6477 14.4008 46.6477 16.7024Z" stroke="white" stroke-width="2.18919" stroke-linecap="round" stroke-linejoin="round"/>
<path d="M21.0098 18.1889C21.5406 17.0311 22.4424 16.0834 23.5725 15.4958C24.7025 14.9081 25.9963 14.7142 27.249 14.9445C28.107 15.0766 28.9222 15.4077 29.6293 15.9114C30.3364 16.4151 30.9157 17.0774 31.3208 17.8452C31.613 18.4597 31.7716 19.1291 31.7863 19.8093C31.801 20.4895 31.6714 21.1651 31.406 21.7916C31.1406 22.4181 30.7455 22.9813 30.2467 23.444C29.7479 23.9068 29.1567 24.2586 28.5121 24.4762C27.8554 24.7258 27.2873 25.1641 26.8794 25.736C26.4715 26.308 26.2421 26.9878 26.22 27.69V29.0166" stroke="white" stroke-width="2.18919" stroke-miterlimit="10" stroke-linecap="round"/>
<path d="M26.1738 34.7852H26.187" stroke="white" stroke-width="2.91892" stroke-linecap="round" stroke-linejoin="round"/>
</svg>
