<svg width="113" height="107" viewBox="0 0 113 107" fill="none" xmlns="http://www.w3.org/2000/svg">
<path d="M0.397461 106.541V0L108.397 8.54955V89.4414L0.397461 106.541Z" fill="url(#paint0_linear_623_211)"/>
<path d="M74.6477 42.7024V57.1663C74.6483 58.3062 74.4242 59.435 73.9883 60.4882C73.5525 61.5415 72.9133 62.4985 72.1074 63.3046C71.3015 64.1107 70.3446 64.7501 69.2915 65.1863C68.2384 65.6224 67.1096 65.8468 65.9698 65.8465H60.1837L55.4113 70.6189C55.2811 70.7568 55.1242 70.8666 54.9501 70.9417C54.776 71.0168 54.5884 71.0555 54.3988 71.0555C54.2092 71.0555 54.0216 71.0168 53.8475 70.9417C53.6734 70.8666 53.5164 70.7568 53.3863 70.6189L48.6139 65.8465H42.8235C41.6837 65.8465 40.555 65.6219 39.502 65.1857C38.449 64.7494 37.4923 64.11 36.6864 63.304C35.8806 62.4979 35.2414 61.541 34.8054 60.4879C34.3695 59.4348 34.1452 58.3061 34.1455 57.1663V42.7024C34.1455 40.4008 35.0598 38.1936 36.6872 36.5661C38.3146 34.9387 40.5219 34.0244 42.8235 34.0244H65.9676C68.2691 34.0244 70.4764 34.9387 72.1038 36.5661C73.7312 38.1936 74.6477 40.4008 74.6477 42.7024Z" stroke="white" stroke-width="2.18919" stroke-linecap="round" stroke-linejoin="round"/>
<path d="M49.0098 44.1889C49.5406 43.0311 50.4424 42.0834 51.5725 41.4958C52.7025 40.9081 53.9963 40.7142 55.249 40.9445C56.107 41.0766 56.9222 41.4077 57.6293 41.9114C58.3364 42.4151 58.9157 43.0774 59.3208 43.8452C59.613 44.4597 59.7716 45.1291 59.7863 45.8093C59.801 46.4895 59.6714 47.1651 59.406 47.7916C59.1406 48.4181 58.7455 48.9813 58.2467 49.444C57.7479 49.9068 57.1567 50.2586 56.5121 50.4762C55.8554 50.7258 55.2873 51.1641 54.8794 51.736C54.4715 52.308 54.2421 52.9878 54.22 53.69V55.0166" stroke="white" stroke-width="2.18919" stroke-miterlimit="10" stroke-linecap="round"/>
<path d="M54.1738 60.7852H54.187" stroke="white" stroke-width="2.91892" stroke-linecap="round" stroke-linejoin="round"/>
<defs>
<linearGradient id="paint0_linear_623_211" x1="0.397461" y1="106.541" x2="115.499" y2="-0.15326" gradientUnits="userSpaceOnUse">
<stop stop-color="#5188D7"/>
<stop offset="1" stop-color="#80C9EB"/>
</linearGradient>
</defs>
</svg>
