<svg width="115" height="111" viewBox="0 0 115 111" fill="none" xmlns="http://www.w3.org/2000/svg">
<path d="M1.46582 108.919V1.45947L110.397 10.0828V91.6724L1.46582 108.919Z" fill="white" stroke="url(#paint0_linear_623_205)" stroke-width="2"/>
<path d="M50.0301 67.3444H60.6132M65.9049 25.0122C66.8405 25.0122 67.7378 25.3839 68.3994 26.0454C69.061 26.707 69.4326 27.6043 69.4326 28.5399L69.4324 69.1083C69.4324 70.0439 69.0607 70.9411 68.3991 71.6027C67.7376 72.2643 66.8403 72.6359 65.9047 72.6359H44.7386C43.803 72.6359 42.9057 72.2643 42.2442 71.6027C41.5826 70.9411 41.2109 70.0439 41.2109 69.1083L41.2112 28.5399C41.2112 27.6043 41.5829 26.707 42.2444 26.0454C42.906 25.3839 43.8033 25.0122 44.7389 25.0122H65.9049Z" stroke="url(#paint1_linear_623_205)" stroke-width="2.20807" stroke-linecap="round" stroke-linejoin="round"/>
<path d="M49.8055 47.969V53.8572H59.6192V47.969H49.8055ZM57.6564 41.0995C57.6564 40.7128 57.5803 40.33 57.4323 39.9728C57.2844 39.6156 57.0675 39.291 56.7941 39.0177C56.5207 38.7443 56.1962 38.5274 55.839 38.3795C55.4818 38.2315 55.099 38.1554 54.7123 38.1554C54.3257 38.1554 53.9429 38.2315 53.5857 38.3795C53.2285 38.5274 52.9039 38.7443 52.6305 39.0177C52.3572 39.291 52.1403 39.6156 51.9923 39.9728C51.8444 40.33 51.7682 40.7128 51.7682 41.0995V46.0063H59.6192C60.1397 46.0063 60.6389 46.2131 61.007 46.5811C61.3751 46.9492 61.5819 47.4485 61.5819 47.969V53.8572C61.5819 54.3777 61.3751 54.877 61.007 55.2451C60.6389 55.6131 60.1397 55.8199 59.6192 55.8199H49.8055C49.285 55.8199 48.7857 55.6131 48.4176 55.2451C48.0496 54.877 47.8428 54.3777 47.8428 53.8572V47.969C47.8428 47.4485 48.0496 46.9492 48.4176 46.5811C48.7857 46.2131 49.285 46.0063 49.8055 46.0063V41.0995C49.8055 39.7981 50.3225 38.55 51.2427 37.6298C52.1629 36.7096 53.411 36.1926 54.7123 36.1926C56.0137 36.1926 57.2618 36.7096 58.182 37.6298C59.1022 38.55 59.6192 39.7981 59.6192 41.0995C59.6192 41.3597 59.5158 41.6093 59.3317 41.7934C59.1477 41.9774 58.8981 42.0808 58.6378 42.0808C58.3775 42.0808 58.1279 41.9774 57.9439 41.7934C57.7598 41.6093 57.6564 41.3597 57.6564 41.0995ZM54.7123 52.8758C54.1918 52.8758 53.6926 52.669 53.3245 52.301C52.9564 51.9329 52.7496 51.4337 52.7496 50.9131C52.7496 50.3926 52.9564 49.8933 53.3245 49.5252C53.6926 49.1572 54.1918 48.9504 54.7123 48.9504C55.2329 48.9504 55.7321 49.1572 56.1002 49.5252C56.4683 49.8933 56.6751 50.3926 56.6751 50.9131C56.6751 51.4337 56.4683 51.9329 56.1002 52.301C55.7321 52.669 55.2329 52.8758 54.7123 52.8758Z" fill="url(#paint2_linear_623_205)"/>
<defs>
<linearGradient id="paint0_linear_623_205" x1="1.46582" y1="108.919" x2="117.56" y2="1.30489" gradientUnits="userSpaceOnUse">
<stop stop-color="#5188D7"/>
<stop offset="1" stop-color="#80C9EB"/>
</linearGradient>
<linearGradient id="paint1_linear_623_205" x1="41.2109" y1="72.6359" x2="84.4387" y2="49.2114" gradientUnits="userSpaceOnUse">
<stop stop-color="#5188D7"/>
<stop offset="1" stop-color="#80C9EB"/>
</linearGradient>
<linearGradient id="paint2_linear_623_205" x1="47.8428" y1="55.8199" x2="67.1544" y2="43.4586" gradientUnits="userSpaceOnUse">
<stop stop-color="#5188D7"/>
<stop offset="1" stop-color="#80C9EB"/>
</linearGradient>
</defs>
</svg>
