<svg width="114" height="111" viewBox="0 0 114 111" fill="none" xmlns="http://www.w3.org/2000/svg">
<path d="M1 109V2L109.466 10.5864V91.8272L1 109Z" fill="white" stroke="url(#paint0_linear_623_200)" stroke-width="2"/>
<path d="M61.0963 79.6851H56.699C56.1159 79.6851 55.5567 79.4507 55.1444 79.0337C54.732 78.6166 54.5004 78.051 54.5004 77.4611V69.6775C53.9173 69.6775 53.358 69.4432 52.9457 69.0261C52.5334 68.6091 52.3018 68.0434 52.3018 67.4536V60.7819C52.3018 59.8972 52.6492 59.0487 53.2677 58.4231C53.8862 57.7975 54.725 57.446 55.5997 57.446H62.1956C63.0703 57.446 63.9091 57.7975 64.5276 58.4231C65.1461 59.0487 65.4935 59.8972 65.4935 60.7819V67.4536C65.4935 68.0434 65.2619 68.6091 64.8496 69.0261C64.4373 69.4432 63.878 69.6775 63.2949 69.6775V77.4611C63.2949 78.051 63.0633 78.6166 62.6509 79.0337C62.2386 79.4507 61.6794 79.6851 61.0963 79.6851ZM55.5997 59.6699C55.4528 59.6601 55.3056 59.6821 55.1678 59.7345C55.03 59.7869 54.9049 59.8685 54.8008 59.9738C54.6967 60.0791 54.6161 60.2056 54.5643 60.345C54.5124 60.4844 54.4907 60.6333 54.5004 60.7819V67.4536H56.699V77.4611H61.0963V67.4536H63.2949V60.7819C63.3046 60.6333 63.2829 60.4844 63.231 60.345C63.1792 60.2056 63.0986 60.0791 62.9945 59.9738C62.8904 59.8685 62.7653 59.7869 62.6275 59.7345C62.4897 59.6821 62.3425 59.6601 62.1956 59.6699H55.5997ZM58.8976 56.3341C58.028 56.3341 57.1778 56.0732 56.4547 55.5845C55.7315 55.0958 55.1679 54.4011 54.8351 53.5884C54.5023 52.7757 54.4152 51.8813 54.5849 51.0186C54.7545 50.1558 55.1733 49.3632 55.7883 48.7412C56.4033 48.1192 57.1868 47.6956 58.0398 47.5239C58.8928 47.3523 59.7769 47.4404 60.5804 47.777C61.3839 48.1137 62.0707 48.6838 62.5538 49.4152C63.037 50.1467 63.2949 51.0066 63.2949 51.8863C63.2949 53.0659 62.8316 54.1972 62.007 55.0314C61.1823 55.8655 60.0639 56.3341 58.8976 56.3341ZM58.8976 49.6624C58.4628 49.6624 58.0377 49.7928 57.6762 50.0372C57.3146 50.2815 57.0328 50.6289 56.8664 51.0352C56.7 51.4416 56.6564 51.8887 56.7413 52.3201C56.8261 52.7515 57.0355 53.1478 57.343 53.4588C57.6505 53.7698 58.0422 53.9816 58.4687 54.0675C58.8952 54.1533 59.3373 54.1092 59.739 53.9409C60.1408 53.7726 60.4842 53.4875 60.7257 53.1218C60.9673 52.7561 61.0963 52.3261 61.0963 51.8863C61.0963 51.2965 60.8646 50.7308 60.4523 50.3137C60.04 49.8967 59.4808 49.6624 58.8976 49.6624Z" fill="url(#paint1_linear_623_200)"/>
<path d="M30.5596 37.9108C30.5596 37.0037 30.9199 36.1338 31.5613 35.4924C32.2027 34.8511 33.0726 34.4907 33.9797 34.4907H44.2399C45.147 34.4907 46.0169 34.8511 46.6583 35.4924C47.2997 36.1338 47.66 37.0037 47.66 37.9108V48.1711C47.66 49.0782 47.2997 49.9481 46.6583 50.5895C46.0169 51.2308 45.147 51.5912 44.2399 51.5912H33.9797C33.0726 51.5912 32.2027 51.2308 31.5613 50.5895C30.9199 49.9481 30.5596 49.0782 30.5596 48.1711V37.9108Z" stroke="url(#paint2_linear_623_200)" stroke-width="1.71005" stroke-linecap="round" stroke-linejoin="round"/>
<path d="M36.117 42.1858C37.2976 42.1858 38.2546 41.2287 38.2546 40.0482C38.2546 38.8677 37.2976 37.9106 36.117 37.9106C34.9365 37.9106 33.9795 38.8677 33.9795 40.0482C33.9795 41.2287 34.9365 42.1858 36.117 42.1858Z" stroke="url(#paint3_linear_623_200)" stroke-width="1.71005" stroke-linecap="round" stroke-linejoin="round"/>
<path d="M41.2694 43.5718L33.9795 51.5911H44.3535C45.2304 51.5911 46.0714 51.2427 46.6914 50.6227C47.3115 50.0026 47.6599 49.1616 47.6599 48.2847V48.171C47.6599 47.7725 47.5102 47.6195 47.2409 47.3245L43.7952 43.5667C43.6346 43.3915 43.4392 43.2517 43.2216 43.1563C43.0039 43.0608 42.7688 43.0117 42.5312 43.0122C42.2935 43.0127 42.0586 43.0627 41.8413 43.1591C41.6241 43.2554 41.4293 43.396 41.2694 43.5718Z" stroke="url(#paint4_linear_623_200)" stroke-width="1.71005" stroke-linecap="round" stroke-linejoin="round"/>
<g clip-path="url(#clip0_623_200)">
<path d="M65.0049 31.3152C65.0049 30.7969 65.2108 30.2998 65.5773 29.9333C65.9438 29.5667 66.4409 29.3608 66.9592 29.3608H72.8222C73.3406 29.3608 73.8376 29.5667 74.2042 29.9333C74.5707 30.2998 74.7766 30.7969 74.7766 31.3152V37.1782C74.7766 37.6965 74.5707 38.1936 74.2042 38.5601C73.8376 38.9266 73.3406 39.1325 72.8222 39.1325H66.9592C66.4409 39.1325 65.9438 38.9266 65.5773 38.5601C65.2108 38.1936 65.0049 37.6965 65.0049 37.1782V31.3152Z" stroke="url(#paint5_linear_623_200)" stroke-width="1.46575" stroke-linecap="round" stroke-linejoin="round"/>
<path d="M69.1582 35.5161L69.1582 32.9771L71.3574 34.2466L69.1582 35.5161Z" stroke="url(#paint6_linear_623_200)" stroke-width="1.46575"/>
</g>
<g clip-path="url(#clip1_623_200)">
<path d="M73.5547 54.0344C73.5547 53.6456 73.7091 53.2728 73.984 52.9979C74.2589 52.723 74.6317 52.5686 75.0204 52.5686H79.4177C79.8064 52.5686 80.1793 52.723 80.4541 52.9979C80.729 53.2728 80.8835 53.6456 80.8835 54.0344V58.4316C80.8835 58.8204 80.729 59.1932 80.4541 59.4681C80.1793 59.7429 79.8064 59.8974 79.4177 59.8974H75.0204C74.6317 59.8974 74.2589 59.7429 73.984 59.4681C73.7091 59.1932 73.5547 58.8204 73.5547 58.4316V54.0344Z" stroke="url(#paint7_linear_623_200)" stroke-width="1.09932" stroke-linecap="round" stroke-linejoin="round"/>
<path d="M75.9366 55.8666C76.4425 55.8666 76.8527 55.4565 76.8527 54.9505C76.8527 54.4446 76.4425 54.0344 75.9366 54.0344C75.4307 54.0344 75.0205 54.4446 75.0205 54.9505C75.0205 55.4565 75.4307 55.8666 75.9366 55.8666Z" stroke="url(#paint8_linear_623_200)" stroke-width="0.732877" stroke-linecap="round" stroke-linejoin="round"/>
<path d="M78.1448 56.4605L75.0205 59.8974H79.4665C79.8423 59.8974 80.2027 59.7481 80.4685 59.4823C80.7342 59.2166 80.8835 58.8562 80.8835 58.4803V58.4316C80.8835 58.2608 80.8194 58.1953 80.704 58.0688L79.2272 56.4583C79.1584 56.3833 79.0747 56.3234 78.9814 56.2824C78.8881 56.2415 78.7874 56.2205 78.6855 56.2207C78.5837 56.2209 78.483 56.2423 78.3899 56.2836C78.2968 56.3249 78.2133 56.3852 78.1448 56.4605Z" stroke="url(#paint9_linear_623_200)" stroke-width="1.09932" stroke-linecap="round" stroke-linejoin="round"/>
</g>
<defs>
<linearGradient id="paint0_linear_623_200" x1="1" y1="109" x2="116.598" y2="1.84608" gradientUnits="userSpaceOnUse">
<stop stop-color="#5188D7"/>
<stop offset="1" stop-color="#80C9EB"/>
</linearGradient>
<linearGradient id="paint1_linear_623_200" x1="52.3018" y1="79.6851" x2="75.2324" y2="71.1071" gradientUnits="userSpaceOnUse">
<stop stop-color="#5188D7"/>
<stop offset="1" stop-color="#80C9EB"/>
</linearGradient>
<linearGradient id="paint2_linear_623_200" x1="30.5596" y1="51.5912" x2="49.0135" y2="34.7165" gradientUnits="userSpaceOnUse">
<stop stop-color="#5188D7"/>
<stop offset="1" stop-color="#80C9EB"/>
</linearGradient>
<linearGradient id="paint3_linear_623_200" x1="33.9795" y1="42.1858" x2="38.593" y2="37.9671" gradientUnits="userSpaceOnUse">
<stop stop-color="#5188D7"/>
<stop offset="1" stop-color="#80C9EB"/>
</linearGradient>
<linearGradient id="paint4_linear_623_200" x1="33.9795" y1="51.5911" x2="42.6502" y2="38.9474" gradientUnits="userSpaceOnUse">
<stop stop-color="#5188D7"/>
<stop offset="1" stop-color="#80C9EB"/>
</linearGradient>
<linearGradient id="paint5_linear_623_200" x1="65.0049" y1="39.1325" x2="75.55" y2="29.4898" gradientUnits="userSpaceOnUse">
<stop stop-color="#5188D7"/>
<stop offset="1" stop-color="#80C9EB"/>
</linearGradient>
<linearGradient id="paint6_linear_623_200" x1="66.9593" y1="31.3149" x2="72.7449" y2="37.642" gradientUnits="userSpaceOnUse">
<stop stop-color="#5188D7"/>
<stop offset="1" stop-color="#80C9EB"/>
</linearGradient>
<linearGradient id="paint7_linear_623_200" x1="73.5547" y1="59.8974" x2="81.4635" y2="52.6654" gradientUnits="userSpaceOnUse">
<stop stop-color="#5188D7"/>
<stop offset="1" stop-color="#80C9EB"/>
</linearGradient>
<linearGradient id="paint8_linear_623_200" x1="75.0205" y1="55.8666" x2="76.9977" y2="54.0586" gradientUnits="userSpaceOnUse">
<stop stop-color="#5188D7"/>
<stop offset="1" stop-color="#80C9EB"/>
</linearGradient>
<linearGradient id="paint9_linear_623_200" x1="75.0205" y1="59.8974" x2="78.7365" y2="54.4787" gradientUnits="userSpaceOnUse">
<stop stop-color="#5188D7"/>
<stop offset="1" stop-color="#80C9EB"/>
</linearGradient>
<clipPath id="clip0_623_200">
<rect width="11.726" height="11.726" fill="white" transform="translate(64.0273 28.3835)"/>
</clipPath>
<clipPath id="clip1_623_200">
<rect width="8.79452" height="8.79452" fill="white" transform="translate(72.8223 51.8357)"/>
</clipPath>
</defs>
</svg>
