<svg width="114" height="108" viewBox="0 0 114 108" fill="none" xmlns="http://www.w3.org/2000/svg">
<path d="M0.46582 107.459V0L109.397 8.62329V90.2129L0.46582 107.459Z" fill="url(#paint0_linear_623_206)"/>
<path d="M49.0301 65.8849H59.6132M64.9049 23.5527C65.8405 23.5527 66.7378 23.9244 67.3994 24.586C68.061 25.2475 68.4326 26.1448 68.4326 27.0804L68.4324 67.6488C68.4324 68.5844 68.0607 69.4817 67.3991 70.1432C66.7376 70.8048 65.8403 71.1765 64.9047 71.1765H43.7386C42.803 71.1765 41.9057 70.8048 41.2442 70.1432C40.5826 69.4817 40.2109 68.5844 40.2109 67.6488L40.2112 27.0804C40.2112 26.1448 40.5829 25.2475 41.2444 24.586C41.906 23.9244 42.8033 23.5527 43.7389 23.5527H64.9049Z" stroke="white" stroke-width="2.20807" stroke-linecap="round" stroke-linejoin="round"/>
<path d="M48.8055 46.5095V52.3977H58.6192V46.5095H48.8055ZM56.6564 39.64C56.6564 39.2534 56.5803 38.8705 56.4323 38.5133C56.2844 38.1561 56.0675 37.8316 55.7941 37.5582C55.5207 37.2848 55.1962 37.0679 54.839 36.92C54.4818 36.772 54.099 36.6959 53.7123 36.6959C53.3257 36.6959 52.9429 36.772 52.5857 36.92C52.2285 37.0679 51.9039 37.2848 51.6305 37.5582C51.3572 37.8316 51.1403 38.1561 50.9923 38.5133C50.8444 38.8705 50.7682 39.2534 50.7682 39.64V44.5468H58.6192C59.1397 44.5468 59.6389 44.7536 60.007 45.1217C60.3751 45.4898 60.5819 45.989 60.5819 46.5095V52.3977C60.5819 52.9183 60.3751 53.4175 60.007 53.7856C59.6389 54.1537 59.1397 54.3605 58.6192 54.3605H48.8055C48.285 54.3605 47.7857 54.1537 47.4176 53.7856C47.0496 53.4175 46.8428 52.9183 46.8428 52.3977V46.5095C46.8428 45.989 47.0496 45.4898 47.4176 45.1217C47.7857 44.7536 48.285 44.5468 48.8055 44.5468V39.64C48.8055 38.3386 49.3225 37.0905 50.2427 36.1703C51.1629 35.2501 52.411 34.7332 53.7123 34.7332C55.0137 34.7332 56.2618 35.2501 57.182 36.1703C58.1022 37.0905 58.6192 38.3386 58.6192 39.64C58.6192 39.9003 58.5158 40.1499 58.3317 40.3339C58.1477 40.518 57.8981 40.6213 57.6378 40.6213C57.3775 40.6213 57.1279 40.518 56.9439 40.3339C56.7598 40.1499 56.6564 39.9003 56.6564 39.64ZM53.7123 51.4164C53.1918 51.4164 52.6926 51.2096 52.3245 50.8415C51.9564 50.4734 51.7496 49.9742 51.7496 49.4536C51.7496 48.9331 51.9564 48.4339 52.3245 48.0658C52.6926 47.6977 53.1918 47.4909 53.7123 47.4909C54.2329 47.4909 54.7321 47.6977 55.1002 48.0658C55.4683 48.4339 55.6751 48.9331 55.6751 49.4536C55.6751 49.9742 55.4683 50.4734 55.1002 50.8415C54.7321 51.2096 54.2329 51.4164 53.7123 51.4164Z" fill="white"/>
<defs>
<linearGradient id="paint0_linear_623_206" x1="0.46582" y1="107.459" x2="116.56" y2="-0.154583" gradientUnits="userSpaceOnUse">
<stop stop-color="#5188D7"/>
<stop offset="1" stop-color="#80C9EB"/>
</linearGradient>
</defs>
</svg>
