<svg width="31" height="51" viewBox="0 0 31 51" fill="none" xmlns="http://www.w3.org/2000/svg">
<path d="M10.0301 43.8849H20.6132M25.9049 1.55273C26.8405 1.55273 27.7378 1.9244 28.3994 2.58597C29.061 3.24754 29.4326 4.14481 29.4326 5.08041L29.4324 45.6488C29.4324 46.5844 29.0607 47.4817 28.3991 48.1432C27.7376 48.8048 26.8403 49.1765 25.9047 49.1765H4.73862C3.80302 49.1765 2.90574 48.8048 2.24417 48.1432C1.5826 47.4817 1.21094 46.5844 1.21094 45.6488L1.2112 5.08041C1.2112 4.14481 1.58287 3.24754 2.24444 2.58597C2.906 1.9244 3.80328 1.55273 4.73888 1.55273H25.9049Z" stroke="white" stroke-width="2.20807" stroke-linecap="round" stroke-linejoin="round"/>
<path d="M9.8055 24.5095V30.3977H19.6192V24.5095H9.8055ZM17.6564 17.64C17.6564 17.2534 17.5803 16.8705 17.4323 16.5133C17.2844 16.1561 17.0675 15.8316 16.7941 15.5582C16.5207 15.2848 16.1962 15.0679 15.839 14.92C15.4818 14.772 15.099 14.6959 14.7123 14.6959C14.3257 14.6959 13.9429 14.772 13.5857 14.92C13.2285 15.0679 12.9039 15.2848 12.6305 15.5582C12.3572 15.8316 12.1403 16.1561 11.9923 16.5133C11.8444 16.8705 11.7682 17.2534 11.7682 17.64V22.5468H19.6192C20.1397 22.5468 20.6389 22.7536 21.007 23.1217C21.3751 23.4898 21.5819 23.989 21.5819 24.5095V30.3977C21.5819 30.9183 21.3751 31.4175 21.007 31.7856C20.6389 32.1537 20.1397 32.3605 19.6192 32.3605H9.8055C9.28496 32.3605 8.78573 32.1537 8.41764 31.7856C8.04956 31.4175 7.84277 30.9183 7.84277 30.3977V24.5095C7.84277 23.989 8.04956 23.4898 8.41764 23.1217C8.78573 22.7536 9.28496 22.5468 9.8055 22.5468V17.64C9.8055 16.3386 10.3225 15.0905 11.2427 14.1703C12.1629 13.2501 13.411 12.7332 14.7123 12.7332C16.0137 12.7332 17.2618 13.2501 18.182 14.1703C19.1022 15.0905 19.6192 16.3386 19.6192 17.64C19.6192 17.9003 19.5158 18.1499 19.3317 18.3339C19.1477 18.518 18.8981 18.6213 18.6378 18.6213C18.3775 18.6213 18.1279 18.518 17.9439 18.3339C17.7598 18.1499 17.6564 17.9003 17.6564 17.64ZM14.7123 29.4164C14.1918 29.4164 13.6926 29.2096 13.3245 28.8415C12.9564 28.4734 12.7496 27.9742 12.7496 27.4536C12.7496 26.9331 12.9564 26.4339 13.3245 26.0658C13.6926 25.6977 14.1918 25.4909 14.7123 25.4909C15.2329 25.4909 15.7321 25.6977 16.1002 26.0658C16.4683 26.4339 16.6751 26.9331 16.6751 27.4536C16.6751 27.9742 16.4683 28.4734 16.1002 28.8415C15.7321 29.2096 15.2329 29.4164 14.7123 29.4164Z" fill="white"/>
</svg>
