<svg width="114" height="110" viewBox="0 0 114 110" fill="none" xmlns="http://www.w3.org/2000/svg">
<path d="M1.46582 108.081V1.54053L109.466 10.0901V90.982L1.46582 108.081Z" fill="white" stroke="url(#paint0_linear_623_204)" stroke-width="2"/>
<path d="M32.3877 36.9326C33.547 36.9326 34.4862 37.871 34.4863 39.0303V51.8164C34.4863 53.3584 35.0557 54.8439 36.0869 55.9834L36.2988 56.2061L40.3779 60.2852C41.4072 61.314 43.0237 61.4799 44.2354 60.668L44.2344 60.667C45.835 59.5982 46.0627 57.3263 44.6943 55.9668H44.6953L43.4814 54.7539L40.9277 52.2002C40.3576 51.6301 40.3578 50.703 40.9277 50.1328C41.4624 49.5982 42.311 49.5643 42.8848 50.0322L42.9951 50.1328L45.5498 52.6865L48.7822 55.9189C50.2528 57.3896 51.079 59.3857 51.0791 61.4658V67.7637C51.079 69.2742 49.8533 70.5 48.3428 70.5H43.0195C42.0172 70.5 41.056 70.1298 40.3213 69.4648L40.1777 69.3281L32.2129 61.3555L32.2119 61.3545C30.981 60.1235 30.29 58.4543 30.29 56.709V39.0303C30.2901 37.8711 31.2285 36.9327 32.3877 36.9326ZM77.0762 36.9326H77.084C78.2432 36.9327 79.1815 37.871 79.1816 39.0303V56.709C79.1816 58.3453 78.5747 59.915 77.4844 61.1191L77.2598 61.3545L69.2861 69.3281C68.5354 70.0788 67.5134 70.5 66.4443 70.5H61.1211C59.6106 70.5 58.3848 69.2742 58.3848 67.7637V61.4658C58.3849 59.3857 59.2111 57.3896 60.6816 55.9189L63.9141 52.6865L66.4688 50.1328C67.0033 49.5983 67.851 49.5646 68.4248 50.0322L68.5361 50.1328C69.0704 50.6674 69.1035 51.5152 68.6357 52.0889L68.5361 52.2002L65.9814 54.7539L64.7686 55.9668C63.4042 57.3312 63.6249 59.5957 65.2285 60.667V60.668C66.3646 61.4292 67.8567 61.331 68.8867 60.4678L69.0859 60.2852L73.165 56.2061C74.3297 55.0412 74.9775 53.4609 74.9775 51.8164V39.0303C74.9776 37.871 75.9169 36.9326 77.0762 36.9326Z" stroke="url(#paint1_linear_623_204)" stroke-width="2.18919"/>
<path d="M55.4644 29.635C56.487 29.635 57.475 30.0275 58.2095 30.7366L58.3442 30.8723C58.9965 31.568 59.3656 32.482 59.3657 33.4397C59.3657 34.3976 58.9967 35.3122 58.3442 36.0081L58.2095 36.1438C58.0876 36.2615 57.9576 36.3691 57.8228 36.469C58.8245 36.7519 59.7714 37.2115 60.6089 37.8333L60.8989 38.0588L60.9009 38.0608L62.8589 39.6594L62.8618 39.6624L63.0708 39.8518C63.9894 40.7774 64.1269 42.2255 63.3618 43.2981L63.1841 43.5217C62.3444 44.4739 60.9786 44.7204 59.8716 44.1946C60.0709 45.7832 60.3757 47.2827 60.4399 47.5911L60.4604 47.6995L60.478 47.8411L60.4878 48.1174C60.4688 49.3917 59.5507 50.4545 58.3237 50.7288L58.0571 50.7756C57.0341 50.9038 56.0496 50.4592 55.4673 49.6809C54.9377 50.3924 54.0718 50.8198 53.1509 50.7961L52.8726 50.7756C51.3874 50.5908 50.2597 49.2707 50.4624 47.7327L50.9106 44.2678C49.9143 44.6715 48.7382 44.478 47.9341 43.7249L47.7407 43.5237C46.7395 42.375 46.8801 40.6349 48.0708 39.6663H48.0698L50.0269 38.0676L50.3179 37.8411C51.1559 37.2153 52.1028 36.7527 53.105 36.469C53.0212 36.4069 52.9388 36.3427 52.8599 36.2737L52.7192 36.1438C51.9835 35.4334 51.562 34.4615 51.562 33.4397C51.5621 32.4181 51.9836 31.4468 52.7192 30.7366L52.8599 30.6067C53.5773 29.9795 54.5057 29.635 55.4644 29.635Z" stroke="url(#paint2_linear_623_204)" stroke-width="2.18919"/>
<defs>
<linearGradient id="paint0_linear_623_204" x1="1.46582" y1="108.081" x2="116.568" y2="1.38727" gradientUnits="userSpaceOnUse">
<stop stop-color="#5188D7"/>
<stop offset="1" stop-color="#80C9EB"/>
</linearGradient>
<linearGradient id="paint1_linear_623_204" x1="29.1953" y1="71.5946" x2="66.5934" y2="22.7407" gradientUnits="userSpaceOnUse">
<stop stop-color="#5188D7"/>
<stop offset="1" stop-color="#80C9EB"/>
</linearGradient>
<linearGradient id="paint2_linear_623_204" x1="48.1685" y1="49.7027" x2="67.5153" y2="36.0941" gradientUnits="userSpaceOnUse">
<stop stop-color="#5188D7"/>
<stop offset="1" stop-color="#80C9EB"/>
</linearGradient>
</defs>
</svg>
