<svg width="52" height="44" viewBox="0 0 52 44" fill="none" xmlns="http://www.w3.org/2000/svg">
<path d="M3.3877 8.39209C4.547 8.39209 5.48623 9.33047 5.48633 10.4897V23.2759C5.48633 24.8178 6.05573 26.3034 7.08691 27.4429L7.29883 27.6655L11.3779 31.7446C12.4072 32.7735 14.0237 32.9394 15.2354 32.1274L15.2344 32.1265C16.835 31.0577 17.0627 28.7858 15.6943 27.4263H15.6953L14.4814 26.2134L11.9277 23.6597C11.3576 23.0895 11.3578 22.1625 11.9277 21.5923C12.4624 21.0576 13.311 21.0238 13.8848 21.4917L13.9951 21.5923L16.5498 24.146L19.7822 27.3784C21.2528 28.849 22.079 30.8452 22.0791 32.9253V39.2231C22.079 40.7336 20.8533 41.9595 19.3428 41.9595H14.0195C13.0172 41.9595 12.056 41.5892 11.3213 40.9243L11.1777 40.7876L3.21289 32.8149L3.21191 32.814C1.98098 31.5829 1.29004 29.9138 1.29004 28.1685V10.4897C1.29014 9.33053 2.22848 8.39219 3.3877 8.39209ZM48.0762 8.39209H48.084C49.2432 8.39218 50.1815 9.33052 50.1816 10.4897V28.1685C50.1816 29.8048 49.5747 31.3745 48.4844 32.5786L48.2598 32.814L40.2861 40.7876C39.5354 41.5383 38.5134 41.9595 37.4443 41.9595H32.1211C30.6106 41.9595 29.3848 40.7336 29.3848 39.2231V32.9253C29.3849 30.8452 30.2111 28.849 31.6816 27.3784L34.9141 24.146L37.4688 21.5923C38.0033 21.0577 38.851 21.024 39.4248 21.4917L39.5361 21.5923C40.0704 22.1269 40.1035 22.9747 39.6357 23.5483L39.5361 23.6597L36.9814 26.2134L35.7686 27.4263C34.4042 28.7906 34.6249 31.0552 36.2285 32.1265V32.1274C37.3646 32.8887 38.8567 32.7905 39.8867 31.9272L40.0859 31.7446L44.165 27.6655C45.3297 26.5007 45.9775 24.9204 45.9775 23.2759V10.4897C45.9776 9.33047 46.9169 8.39209 48.0762 8.39209Z" stroke="white" stroke-width="2.18919"/>
<path d="M26.4644 1.09448C27.487 1.09449 28.475 1.48694 29.2095 2.19604L29.3442 2.33179C29.9965 3.0275 30.3656 3.94147 30.3657 4.89917C30.3657 5.85705 29.9967 6.7717 29.3442 7.46753L29.2095 7.60327C29.0876 7.72096 28.9576 7.82859 28.8228 7.92847C29.8245 8.2114 30.7714 8.67102 31.6089 9.29272L31.8989 9.51831L31.9009 9.52026L33.8589 11.1189L33.8618 11.1218L34.0708 11.3113C34.9894 12.2368 35.1269 13.6849 34.3618 14.7576L34.1841 14.9812C33.3444 15.9334 31.9786 16.1799 30.8716 15.6541C31.0709 17.2427 31.3757 18.7421 31.4399 19.0505L31.4604 19.1589L31.478 19.3005L31.4878 19.5769C31.4688 20.8512 30.5507 21.914 29.3237 22.1882L29.0571 22.2351C28.0341 22.3633 27.0496 21.9186 26.4673 21.1404C25.9377 21.8519 25.0718 22.2792 24.1509 22.2556L23.8726 22.2351C22.3874 22.0503 21.2597 20.7301 21.4624 19.1921L21.9106 15.7273C20.9143 16.131 19.7382 15.9375 18.9341 15.1843L18.7407 14.9832C17.7395 13.8345 17.8801 12.0943 19.0708 11.1257H19.0698L21.0269 9.5271L21.3179 9.30054C22.1559 8.6748 23.1028 8.2122 24.105 7.92847C24.0212 7.86641 23.9388 7.80214 23.8599 7.73315L23.7192 7.60327C22.9835 6.8929 22.562 5.92095 22.562 4.89917C22.5621 3.87757 22.9836 2.90631 23.7192 2.19604L23.8599 2.06616C24.5773 1.43896 25.5057 1.09448 26.4644 1.09448Z" stroke="white" stroke-width="2.18919"/>
</svg>
