<?xml version="1.0" standalone="no"?>
<!DOCTYPE svg PUBLIC "-//W3C//DTD SVG 1.1//EN" "http://www.w3.org/Graphics/SVG/1.1/DTD/svg11.dtd" >
<svg xmlns="http://www.w3.org/2000/svg" xmlns:xlink="http://www.w3.org/1999/xlink" version="1.1">
<metadata>
Created by FontForge 20170731 at Thu Jul 27 19:06:50 2017
 By Aleksey,,,
Copyright 2017 The Mardoto Project Authors (https://github.com/vahanhovh/mardoto)
</metadata>
<defs>
<font id="Mardoto-Thin" horiz-adv-x="1121" >
  <font-face 
    font-family="Mardoto Thin"
    font-weight="250"
    font-stretch="normal"
    units-per-em="2048"
    panose-1="0 0 3 0 0 0 0 0 0 0"
    ascent="1536"
    descent="-512"
    x-height="1082"
    cap-height="1456"
    bbox="-475 -555 3104 2146"
    underline-thickness="100"
    underline-position="-300"
    unicode-range="U+000D-2212"
  />
<missing-glyph horiz-adv-x="1351" 
d="M1107 -555h-856v2701h856v-2701zM454 1965v-89h175v-100h-178v-89h448v89h-178v100h178v89h-445zM451 1617v-281h448v92h-178v189h-270zM629 1428h-89v97h89v-97zM451 1263v-89h178v-100h-178v-89h270v189h178v89h-448zM810 1101v-179h-359v-91h448v270h-89zM629 771
v-151h92v62h89v-127h-270v216h-89v-305h448v305h-270zM451 304v-305h448v305h-448zM810 88h-270v127h270v-127zM451 -63v-90h189l-189 -126v-90h448v90h-275l189 126h86v90h-448z" />
    <glyph glyph-name="uni0535054E.liga" unicode="&#x535;&#x54e;" horiz-adv-x="2940" 
d="M2860 54v-54h-385v647q-61 -126 -178 -198.5t-265 -72.5q-145 0 -257.5 55t-176.5 165t-64 269v163h-1285v-559q0 -137 57.5 -235t158.5 -149t228 -51t227.5 51t158 149t57.5 235v181h54v-181q0 -159 -64 -269t-176 -165t-257 -55t-257.5 55t-176.5 165t-64 269v1067h54
v-454h1339v-217q0 -137 57.5 -235t158.5 -149t228 -51q126 0 227 58t158.5 163.5t57.5 243.5v641h54v-1482h331z" />
    <glyph glyph-name="uni05390545.liga" unicode="&#x539;&#x545;" horiz-adv-x="3232" 
d="M3021 664.5q83 -99.5 83 -256.5q0 -135 -64.5 -231.5t-184 -147t-281.5 -50.5q-152 0 -274 55t-192 156.5t-70 236.5h55q0 -113 60.5 -203t170 -140.5t250.5 -50.5q235 0 355.5 98t120.5 273q0 182 -122 267.5t-363 85.5l-1063 1v-338q0 -211 -91.5 -325.5t-315.5 -114.5
q-132 0 -228.5 47.5t-147.5 138t-51 215.5v30q0 125 51 215t147.5 137.5t228.5 47.5h353v210q0 147 -73.5 256t-209 167t-316.5 58q-183 0 -318.5 -58t-208.5 -166.5t-73 -256.5v-1021h-54v1021q0 163 80 283.5t228 186t346 65.5q202 0 349 -65t225.5 -186t78.5 -284v-210
h1068q232 0 344 88.5t112 246.5q0 105 -51 185t-156 125.5t-260 45.5q-123 0 -224.5 -45t-161 -129t-59.5 -195h-54q0 127 67.5 223t181.5 148t250 52q159 0 276 -47.5t181 -140.5t64 -226q0 -84 -32 -158.5t-100 -127.5t-171 -70q161 -22 244 -121.5zM1448 758l-353 -1
q-179 -1 -276 -94.5t-97 -271.5q0 -173 97.5 -265t275.5 -92q138 0 215.5 47t107.5 131t30 208v338z" />
    <glyph glyph-name="uni0544053E.liga" unicode="&#x544;&#x53e;" horiz-adv-x="2939" 
d="M2989 1222h-467q137 -64 213.5 -194.5t76.5 -304.5v-189q0 -164 -67.5 -289.5t-191.5 -195t-289 -69.5t-290 69.5t-192.5 195t-67.5 289.5v189q0 174 76 304.5t213 194.5h-119q-168 0 -260.5 65.5t-107.5 194.5h-326v-1013q0 -159 -64 -269t-176.5 -165t-257.5 -55
t-257 55t-176 165t-64 269v1067h54v-1067q0 -137 57.5 -235t158 -149t227.5 -51t228 51t158.5 149t57.5 235v1067h431q0 -131 78 -195.5t239 -64.5h1105v-54zM2699 982q-59 113 -171.5 176.5t-265.5 63.5t-264.5 -63.5t-170 -176.5t-58.5 -259v-188q0 -147 59 -260.5
t171 -177t265 -63.5t265 63.5t170.5 177t58.5 260.5v188q0 146 -59 259z" />
    <glyph glyph-name="uni05440546.liga" unicode="&#x544;&#x546;" horiz-adv-x="3137" 
d="M2967 880v-411q0 -159 -64 -269t-176.5 -165t-257.5 -55t-257 55t-176 165t-64 269v939q-44 -2 -62 -2q-78 0 -139 9.5t-141 28.5q-83 19 -142 28.5t-135 9.5q-46 0 -83.5 -21t-58.5 -58.5t-21 -83.5v-850q0 -159 -64 -269t-176.5 -165t-257.5 -55t-257 55t-176 165
t-64 269v1067h54v-1067q0 -137 57.5 -235t158 -149t227.5 -51t228 51t158.5 149t57.5 235v853q0 61 27.5 110t76.5 76.5t110 27.5q77 0 136.5 -9.5t140.5 -28.5q84 -19 144 -28.5t139 -9.5q53 0 116 6v-997q0 -137 57.5 -235t158 -149t227.5 -51t228 51t158.5 149t57.5 235
v411h54z" />
    <glyph glyph-name="uni05440576.liga" unicode="&#x544;&#x576;" horiz-adv-x="2746" 
d="M2564 1082v-1082h-55v175q-50 -93 -143 -144t-230 -51q-168 0 -262 98t-94 312v1026q-56 -3 -103.5 5.5t-115.5 26.5q-64 17 -109.5 25.5t-98.5 8.5q-46 0 -83.5 -21t-58.5 -58.5t-21 -83.5v-850q0 -159 -64 -269t-176.5 -165t-257.5 -55t-257 55t-176 165t-64 269v1067
h54v-1067q0 -137 57.5 -235t158 -149t227.5 -51t228 51t158.5 149t57.5 235v853q0 61 27.5 110t76.5 76.5t110 27.5q54 0 100.5 -8.5t108.5 -25.5q63 -16 105 -24t91 -8q37 0 79 6v-1088q1 -186 81 -270t219 -84q169 0 260 79t115 208v761h55z" />
    <glyph glyph-name="uni0574056F.liga" unicode="&#x574;&#x56f;" horiz-adv-x="2252" 
d="M2070 1082v-1498h-55v591q-50 -93 -143 -144t-230 -51q-168 0 -262 98t-94 312v1042q-39 5 -94 23q-39 13 -66.5 19.5t-60.5 6.5q-55 0 -92 -36.5t-37 -92.5v-1352h-55v175q-50 -93 -143 -144t-230 -51q-168 0 -261.5 98t-94.5 312v692h54v-694q1 -186 81 -270t219 -84
q169 0 260 79t115 208v1031q0 52 24 94t66 66t94 24q33 0 62 -6.5t66 -19.5q36 -12 63.5 -18.5t58.5 -6.5q17 0 25 1v-1098q1 -186 81 -270t219 -84q169 0 260 79t115 208v761h55z" />
    <glyph glyph-name="uni0578055B0582.liga" unicode="&#x578;&#x55b;&#x582;" horiz-adv-x="1608" 
d="M989 1772h54l-239 -497h-47zM875.5 1006.5q87.5 -95.5 88.5 -301.5v-705h-54v705q-1 191 -77 267.5t-216 76.5q-111 0 -191.5 -55.5t-128.5 -146.5q-44 -83 -61 -154v-693h-54v1082h54v-251q51 120 152.5 195.5t231.5 75.5q168 0 255.5 -95.5zM1578 55v-55h-344v1082h55
v-1027h289z" />
    <glyph glyph-name="uni0578055C0582.liga" unicode="&#x578;&#x55c;&#x582;" horiz-adv-x="1608" 
d="M1088 1795h53v-25q0 -60 -12.5 -100t-53.5 -75t-122 -65q-52 -19 -76.5 -66t-29.5 -94t-5 -107v-9h-54v57q0 100 43 173.5t132 101.5q76 24 100.5 76.5t24.5 123.5v9zM875.5 1006.5q87.5 -95.5 88.5 -301.5v-705h-54v705q-1 191 -77 267.5t-216 76.5q-111 0 -191.5 -55.5
t-128.5 -146.5q-44 -83 -61 -154v-693h-54v1082h54v-251q51 120 152.5 195.5t231.5 75.5q168 0 255.5 -95.5zM1578 55v-55h-344v1082h55v-1027h289z" />
    <glyph glyph-name="uni0578055E0582.liga" unicode="&#x578;&#x55e;&#x582;" horiz-adv-x="1608" 
d="M1159 1398q52 25 86.5 80t34.5 139q0 101 -55.5 169.5t-173.5 68.5q-286 0 -286 -317v-283h-54v296q0 186 93 272t247 86q94 0 158 -39t94.5 -105t30.5 -148q0 -85 -35 -153t-99 -106.5t-148 -38.5v54q55 0 107 25zM875.5 1006.5q87.5 -95.5 88.5 -301.5v-705h-54v705
q-1 191 -77 267.5t-216 76.5q-111 0 -191.5 -55.5t-128.5 -146.5q-44 -83 -61 -154v-693h-54v1082h54v-251q51 120 152.5 195.5t231.5 75.5q168 0 255.5 -95.5zM1578 55v-55h-344v1082h55v-1027h289z" />
    <glyph glyph-name="uniFB13.liga" unicode="&#x574;&#x576;" horiz-adv-x="2299" 
d="M2117 1082v-1082h-55v175q-50 -93 -143 -144t-230 -51q-168 0 -262 98t-94 312v1041q-40 4 -120 24q-48 13 -81.5 19.5t-66.5 6.5q-55 0 -92 -36.5t-37 -92.5v-1352h-55v175q-50 -93 -143 -144t-230 -51q-168 0 -261.5 98t-94.5 312v692h54v-694q1 -186 81 -270t219 -84
q169 0 260 79t115 208v1031q0 52 24 94t66 66t94 24q33 0 63 -6t86 -19q48 -13 81.5 -19.5t66.5 -6.5q17 0 25 1v-1098q1 -186 81 -270t219 -84q169 0 260 79t115 208v761h55z" />
    <glyph glyph-name="uniFB14.liga" unicode="&#x574;&#x565;" horiz-adv-x="2229" 
d="M1340 1027v-639q1 -186 81 -270t219 -84q169 0 260 79t115 208v364h55v-685h-55v175q-50 -93 -143 -144t-230 -51q-168 0 -262 98t-94 312v1042q-39 5 -94 23q-39 13 -66.5 19.5t-60.5 6.5q-55 0 -92 -36.5t-37 -92.5v-1352h-55v175q-50 -93 -143 -144t-230 -51
q-168 0 -261.5 98t-94.5 312v692h54v-694q1 -186 81 -270t219 -84q169 0 260 79t115 208v1031q0 52 24 94t66 66t94 24q33 0 62 -6.5t66 -19.5q36 -12 63.5 -18.5t58.5 -6.5q17 0 25 1v-404h777v-55h-777z" />
    <glyph glyph-name=".notdef" horiz-adv-x="1351" 
d="M1107 -555h-856v2701h856v-2701zM454 1965v-89h175v-100h-178v-89h448v89h-178v100h178v89h-445zM451 1617v-281h448v92h-178v189h-270zM629 1428h-89v97h89v-97zM451 1263v-89h178v-100h-178v-89h270v189h178v89h-448zM810 1101v-179h-359v-91h448v270h-89zM629 771
v-151h92v62h89v-127h-270v216h-89v-305h448v305h-270zM451 304v-305h448v305h-448zM810 88h-270v127h270v-127zM451 -63v-90h189l-189 -126v-90h448v90h-275l189 126h86v90h-448z" />
    <glyph glyph-name=".null" horiz-adv-x="0" 
 />
    <glyph glyph-name="nonmarkingreturn" unicode="&#xd;" horiz-adv-x="490" 
 />
    <glyph glyph-name="NULL" horiz-adv-x="0" 
 />
    <glyph glyph-name="NULL" horiz-adv-x="0" 
 />
    <glyph glyph-name="space" unicode=" " horiz-adv-x="490" 
 />
    <glyph glyph-name="exclam" unicode="!" horiz-adv-x="397" 
d="M221 1456v-1055h-54v1055h54zM202 105q56 0 56 -56q0 -55 -56 -55q-55 0 -55 55q0 56 55 56z" />
    <glyph glyph-name="quotedbl" unicode="&#x22;" horiz-adv-x="521" 
d="M210 1536v-143l-10 -271h-50q5 298 5 414h55zM411 1536v-143l-10 -271h-50l6 268v146h54z" />
    <glyph glyph-name="numbersign" unicode="#" 
d="M667 0l75 410h-364l-74 -410h-56l74 410h-271v52h281l95 524h-300v54h310l75 416h56l-75 -416h364l76 416h56l-76 -416h254v-54h-264l-96 -524h285v-52h-294l-75 -410h-56zM388 462h363l96 524h-364z" />
    <glyph glyph-name="dollar" unicode="$" 
d="M953.5 158.5q-47.5 -80.5 -133.5 -126.5t-200 -52v-188h-55v187q-119 4 -218 48t-161 132q-65 94 -65 250h54q0 -138 59.5 -222.5t161.5 -120.5q93 -34 190 -34q109 0 191 43.5t126 115t44 153.5q0 91 -37.5 153.5t-119.5 111t-226 98.5q-148 51 -232 101t-124 121.5
t-40 180.5q0 106 47.5 187t134.5 128t204 52v186h55v-187q182 -8 283 -119.5t101 -309.5h-54q0 109 -42 194.5t-123 134t-195 48.5q-117 0 -197.5 -44t-120 -115t-39.5 -153q0 -85 27.5 -143.5t103 -108t218.5 -98.5q159 -55 249 -105.5t135.5 -123.5t45.5 -187
q0 -107 -47.5 -187.5z" />
    <glyph glyph-name="percent" unicode="%" horiz-adv-x="1527" 
d="M114 1176q0 82 34.5 151t96.5 109.5t141 40.5t141 -40.5t96 -109.5t34 -151v-77q0 -81 -34 -149.5t-95.5 -109t-139.5 -40.5q-80 0 -142.5 40.5t-97 108.5t-34.5 150v77zM169 1099q0 -63 24.5 -119t74 -90.5t120.5 -34.5q69 0 117.5 34.5t72.5 90.5t24 119v77
q0 64 -24 120.5t-73 91t-119 34.5q-69 0 -118 -35t-74 -91t-25 -120v-77zM1133 1269l-711 -1138l-45 31l711 1138zM870 357q0 82 34.5 150.5t96 109t140.5 40.5q80 0 142 -40.5t96 -109t34 -150.5v-78q0 -82 -34 -150.5t-95.5 -109t-140.5 -40.5q-80 0 -142 40.5t-96.5 109
t-34.5 150.5v78zM925 279q0 -63 24.5 -119t73.5 -91t120 -35q69 0 117.5 34.5t73 90.5t24.5 120v78q0 69 -24 124.5t-73 88t-120 32.5q-69 0 -118 -32.5t-73.5 -88t-24.5 -124.5v-78z" />
    <glyph glyph-name="ampersand" unicode="&#x26;" horiz-adv-x="1247" 
d="M1129 0l-156 177q-192 -197 -424 -197q-133 0 -231 45.5t-150.5 129.5t-52.5 197t67.5 210.5t188.5 199.5l51 41q-84 105 -124.5 190t-40.5 174q0 91 37 161.5t106 109.5t162 39q87 0 149.5 -35t94.5 -95t32 -134q0 -135 -191 -294l-152 -122l474 -539q115 160 115 374
h55q0 -238 -133 -416l190 -216h-67zM462 834l170 135q150 123 150 244q0 57 -25.5 105t-75.5 76.5t-119 28.5q-79 0 -135.5 -34t-85.5 -92t-29 -128q0 -158 150 -335zM211.5 194q42.5 -72 128 -116t209.5 -44q230 0 388 183l-483 548l-52 -42q-150 -130 -191 -217
q-42 -88 -42 -154q0 -86 42.5 -158z" />
    <glyph glyph-name="quotesingle" unicode="'" horiz-adv-x="340" 
d="M200 1536v-169l-14 -245h-50l9 243v171h55z" />
    <glyph glyph-name="parenleft" unicode="(" horiz-adv-x="607" 
d="M204 1022.5q56 211.5 152 372.5q95 159 206 228l19 -43q-99 -65 -185.5 -217t-139.5 -354q-54 -202 -54 -445q0 -211 52.5 -414t141.5 -359q86 -153 185 -218l-19 -43q-113 70 -206.5 222.5t-150.5 360.5q-57 209 -57 473q0 225 56 436.5z" />
    <glyph glyph-name="parenright" unicode=")" horiz-adv-x="623" 
d="M405.5 119q-55.5 -210 -152.5 -367q-94 -151 -206 -222l-19 43q99 65 185.5 217.5t140.5 354.5q53 204 53 445q0 211 -52 413.5t-141 359.5q-88 153 -186 217l19 43q111 -71 205.5 -228.5t151.5 -366.5q57 -211 57 -462q0 -237 -55.5 -447z" />
    <glyph glyph-name="asterisk" unicode="*" horiz-adv-x="856" 
d="M159 693l234 324l-363 124l18 54l362 -133l1 394h56l-7 -395l352 143l20 -53l-360 -137l249 -317l-47 -33l-242 322l-228 -325z" />
    <glyph glyph-name="plus" unicode="+" horiz-adv-x="1151" 
d="M1071 649h-481v-503h-55v503h-462v53h462v504h55v-504h481v-53z" />
    <glyph glyph-name="comma" unicode="," horiz-adv-x="383" 
d="M235 159v-141q-3 -164 -106 -273l-37 32q47 62 68 118t21 130v134h54z" />
    <glyph glyph-name="hyphen" unicode="-" horiz-adv-x="607" 
d="M531 693v-54h-470v54h470z" />
    <glyph glyph-name="period" unicode="." horiz-adv-x="439" 
d="M202 105q56 0 56 -56q0 -55 -56 -55q-55 0 -55 55q0 56 55 56z" />
    <glyph glyph-name="slash" unicode="/" horiz-adv-x="782" 
d="M709 1456l-608 -1581h-59l608 1581h59z" />
    <glyph glyph-name="zero" unicode="0" 
d="M996 594q0 -191 -50 -328.5t-147 -211.5t-237 -74q-138 0 -236.5 74t-149.5 212t-51 328v268q0 190 50.5 328.5t148.5 212.5t236 74q139 0 237 -74t148.5 -212.5t50.5 -328.5v-268zM942 862q0 169 -42 295.5t-128 196t-212 69.5t-211 -70t-127.5 -196t-42.5 -295v-266
q0 -167 43 -293.5t129 -197.5t211 -71q126 0 211 71t127 197t42 294v266z" />
    <glyph glyph-name="one" unicode="1" 
d="M659 1460v-1460h-54v1388l-418 -157v59l461 170h11z" />
    <glyph glyph-name="two" unicode="2" 
d="M1024 54v-54h-871v54l502 579q236 281 236 452q0 158 -91.5 247.5t-263.5 89.5q-103 0 -186.5 -49t-131 -135t-47.5 -193h-54q0 118 53.5 216.5t149 156.5t216.5 58q126 0 218 -45t142 -132.5t50 -213.5q0 -84 -41.5 -174t-105 -175.5t-160.5 -197.5l-415 -484h800z" />
    <glyph glyph-name="three" unicode="3" 
d="M417 714v56h115q122 0 210 43t133.5 115t45.5 157q0 95 -38.5 171t-119 121t-199.5 45q-106 0 -191.5 -42.5t-135 -121.5t-49.5 -184h-54q0 121 57.5 212.5t156 140.5t216.5 49q125 0 217.5 -47.5t143 -137t50.5 -210.5q0 -115 -73 -206t-199 -130q145 -33 224.5 -125
t79.5 -234q0 -127 -55.5 -218.5t-154 -139.5t-224.5 -48q-114 0 -221.5 47t-176.5 137q-72 95 -72 241h54q0 -106 54.5 -191t149.5 -132.5t212 -47.5q119 0 204.5 41.5t130.5 120t45 186.5q0 170 -114 251t-311 81h-111z" />
    <glyph glyph-name="four" unicode="4" 
d="M82 427l695 1029h65v-1005h252v-54h-252v-397h-54v397h-706v30zM166 451h622v941l-84 -139z" />
    <glyph glyph-name="five" unicode="5" 
d="M231 762l68 694h710v-53h-661l-59 -584q42 36 127 66.5t178 30.5q126 0 223.5 -54t152 -156.5t54.5 -241.5q0 -222 -100 -353t-310 -131q-117 0 -211 44.5t-152.5 135.5t-68.5 223h55q31 -349 377 -349q355 0 355 428q0 115 -44 206t-128.5 142.5t-201.5 51.5
q-109 0 -185.5 -29.5t-137.5 -86.5z" />
    <glyph glyph-name="six" unicode="6" 
d="M961 225q-52 -114 -146 -179.5t-213 -65.5q-135 0 -242.5 63t-169.5 179t-62 270v168q0 281 91.5 463.5t255.5 269.5q158 83 346 83h19v-54q-348 0 -496.5 -196.5t-160.5 -492.5q57 100 165 162t244 62q131 0 226 -61t145 -169.5t50 -246.5q0 -141 -52 -255zM182 493
q0 -137 53.5 -241.5t149 -161.5t217.5 -57q106 0 187.5 61.5t125.5 164t44 221.5q0 121 -42 216.5t-126 151t-206 55.5q-92 0 -178 -37t-146 -101t-79 -143v-129z" />
    <glyph glyph-name="seven" unicode="7" 
d="M1007 1456v-34l-641 -1422h-55l634 1402h-868v54h930z" />
    <glyph glyph-name="eight" unicode="8" 
d="M966 161q-61 -90 -166 -135.5t-236 -45.5q-134 0 -239 45.5t-165.5 135t-60.5 218.5q0 89 39 163.5t108.5 126.5t161.5 76q-122 37 -195 128t-73 213q0 123 54.5 211t149.5 133.5t216 45.5q119 0 216 -45.5t153 -133.5t56 -211q0 -121 -74 -212t-196 -129
q91 -24 161.5 -76t110.5 -126.5t40 -163.5q0 -128 -61 -218zM881.5 1261q-49.5 76 -134.5 118.5t-187 42.5q-105 0 -188 -40t-130.5 -115t-47.5 -176q0 -96 47.5 -168.5t131 -111.5t189.5 -39q103 0 187 39t133 111.5t49 168.5q0 94 -49.5 170zM917.5 555
q-54.5 78 -148 120.5t-207.5 42.5q-116 0 -209 -42.5t-146.5 -120.5t-53.5 -181q0 -107 53.5 -184t146.5 -116.5t211 -39.5q115 0 208 40t146.5 116.5t53.5 183.5q0 103 -54.5 181z" />
    <glyph glyph-name="nine" unicode="9" 
d="M993 740q0 -366 -163 -561.5t-488 -198.5h-44l2 54h46q299 4 446 183.5t147 506.5q-55 -118 -166 -187t-250 -69q-124 0 -220 66.5t-148 179t-52 244.5q0 141 54 260t151.5 188.5t222.5 69.5q218 0 338.5 -141.5t123.5 -417.5v-177zM201 744q44 -100 127.5 -161
t194.5 -61q114 0 201 47t140.5 120t74.5 152v61q0 257 -105 388.5t-299 131.5q-113 0 -198.5 -65t-133.5 -175q-46 -105 -46 -224q0 -114 44 -214z" />
    <glyph glyph-name="colon" unicode=":" horiz-adv-x="364" 
d="M179 1067q56 0 56 -56q0 -55 -56 -55q-55 0 -55 55q0 56 55 56zM174 105q56 0 56 -56q0 -55 -56 -55q-55 0 -55 55q0 56 55 56z" />
    <glyph glyph-name="semicolon" unicode=";" horiz-adv-x="364" 
d="M180 1067q56 0 56 -56q0 -55 -56 -55q-55 0 -55 55q0 56 55 56zM223 159v-141q-3 -164 -106 -273l-37 32q47 62 68 118t21 130v134h54z" />
    <glyph glyph-name="less" unicode="&#x3c;" horiz-adv-x="1053" 
d="M919 262l-837 379v50l837 378v-58l-764 -345l764 -345v-59z" />
    <glyph glyph-name="equal" unicode="=" horiz-adv-x="1142" 
d="M981 897v-54h-834v54h834zM981 490v-54h-834v54h834z" />
    <glyph glyph-name="greater" unicode="&#x3e;" horiz-adv-x="1053" 
d="M114 1072l836 -378v-50l-836 -379v59l759 344l-759 345v59z" />
    <glyph glyph-name="question" unicode="?" horiz-adv-x="893" 
d="M395 400q1 75 15.5 131t48.5 105t94 104q75 72 112.5 117.5t59.5 106.5t22 148q0 91 -32.5 161.5t-97.5 110t-159 39.5q-95 0 -164.5 -39t-107 -108.5t-39.5 -159.5h-54q1 111 50.5 192.5t132.5 124.5t182 43q109 0 186 -47.5t117 -130.5t40 -188q0 -87 -23 -154
t-70 -126.5t-127 -131.5q-132 -103 -132 -298h-54zM426 105q56 0 56 -56q0 -55 -56 -55q-55 0 -55 55q0 56 55 56z" />
    <glyph glyph-name="at" unicode="@" horiz-adv-x="1902" 
d="M1264 -364q-61 -41 -163 -65t-195 -24q-242 0 -417 104.5t-268 300t-93 462.5q0 42 1 64q12 283 124 494t305 325t443 114q259 0 430 -98t254.5 -281t83.5 -439q0 -22 -2 -70q-6 -136 -47 -258.5t-118 -201.5q-80 -83 -205 -83q-99 0 -161.5 61t-73.5 169
q-111 -230 -333 -230q-81 0 -138.5 45.5t-87 129.5t-29.5 198q0 44 4 83q15 166 75.5 291t154.5 193t207 68q58 0 102 -14.5t74.5 -36t73.5 -59.5l-49 -585q-2 -32 -2 -44q0 -87 29.5 -134.5t77.5 -63.5q45 -16 79 -16q95 0 162.5 62.5t104.5 172.5t43 253q2 29 2 84
q0 358 -175.5 552.5t-539.5 194.5q-220 0 -399 -106.5t-289 -302.5q-62 -110 -94 -246.5t-32 -277.5q0 -105 18 -205t52 -184q83 -203 251 -316.5t406 -113.5q193 0 330 80zM627 347q0 -141 51 -227t149 -86q108 0 194 66t144 244l43 507q-69 82 -196 82q-91 0 -170.5 -54
t-135.5 -166t-74 -277q-5 -52 -5 -89z" />
    <glyph glyph-name="A" unicode="A" horiz-adv-x="1223" 
d="M33 0l545 1456h66l545 -1456h-59l-162 435h-714l-162 -435h-59zM274 489h674l-337 902z" />
    <glyph glyph-name="B" unicode="B" horiz-adv-x="1235" 
d="M1068.5 183.5q-56.5 -90.5 -158.5 -137t-235 -46.5h-475v1456h383q228 0 352 -92.5t124 -280.5q0 -129 -67 -217.5t-189 -111.5q90 -12 164 -62.5t116 -127t42 -163.5q0 -127 -56.5 -217.5zM254 1402v-629h349q401 0 401 314q0 308 -403 315h-347zM1027 558
q-44 73 -131.5 117t-210.5 44h-431v-665h421q122 0 211 41t137 118.5t48 185.5q0 86 -44 159z" />
    <glyph glyph-name="C" unicode="C" horiz-adv-x="1327" 
d="M1190 446q-21 -231 -157.5 -348.5t-361.5 -117.5q-158 0 -277.5 80t-184.5 225t-65 334v218q0 189 65 334t184.5 225t277.5 80q224 0 361 -117.5t158 -346.5h-54q-47 410 -465 410q-140 0 -247.5 -72.5t-166.5 -204.5t-59 -306v-220q0 -175 59 -307.5t166.5 -205
t247.5 -72.5q423 0 465 412h54z" />
    <glyph glyph-name="D" unicode="D" horiz-adv-x="1340" 
d="M200 0v1456h403q171 0 308 -81t215 -226.5t78 -331.5v-178q0 -186 -78 -331.5t-215 -226.5t-308 -81h-403zM254 1402v-1348h349q155 0 280 75t196 208t71 302v181q0 167 -71 299.5t-196 207.5t-280 75h-349z" />
    <glyph glyph-name="E" unicode="E" horiz-adv-x="1166" 
d="M200 0v1456h886v-54h-832v-626h730v-54h-730v-668h832v-54h-886z" />
    <glyph glyph-name="F" unicode="F" horiz-adv-x="1172" 
d="M200 0v1456h902v-54h-848v-630h746v-56h-746v-716h-54z" />
    <glyph glyph-name="G" unicode="G" horiz-adv-x="1406" 
d="M1226 660v-504q-35 -50 -159 -113t-338 -63q-164 0 -291.5 80.5t-198.5 226t-71 333.5v238q0 181 69 321.5t192.5 218.5t282.5 78q153 0 263.5 -54t172.5 -147.5t76 -212.5h-54q-24 158 -135 259t-323 101q-146 0 -257.5 -71.5t-172 -199.5t-60.5 -291v-240
q0 -171 62.5 -304t177.5 -207.5t267 -74.5q111 0 203.5 23t153.5 57t86 67v424h-445v55h499z" />
    <glyph glyph-name="H" unicode="H" horiz-adv-x="1438" 
d="M1184 0v722h-930v-722h-54v1456h54v-680h930v680h54v-1456h-54z" />
    <glyph glyph-name="I" unicode="I" horiz-adv-x="534" 
d="M294 1456v-1456h-54v1456h54z" />
    <glyph glyph-name="J" unicode="J" horiz-adv-x="1125" 
d="M876 1456h54v-1014q0 -145 -54.5 -249.5t-150 -158.5t-215.5 -54q-198 0 -309 106t-111 315h54q0 -367 366 -367q102 0 185 47t132 139t49 222v1014z" />
    <glyph glyph-name="K" unicode="K" horiz-adv-x="1300" 
d="M1156 0l-669 766l-233 -215v-551h-54v1456h54v-841l240 234l604 607h78l-648 -652l698 -804h-70z" />
    <glyph glyph-name="L" unicode="L" horiz-adv-x="1057" 
d="M1002 54v-54h-802v1456h55v-1402h747z" />
    <glyph glyph-name="M" unicode="M" horiz-adv-x="1756" 
d="M876 79l601 1377h79v-1456h-54v1376l-604 -1376h-43l-601 1369v-1369h-54v1456h77z" />
    <glyph glyph-name="N" unicode="N" horiz-adv-x="1449" 
d="M1249 1456v-1456h-54l-940 1364v-1364h-55v1456h55l940 -1361v1361h54z" />
    <glyph glyph-name="O" unicode="O" horiz-adv-x="1364" 
d="M1231 619q0 -189 -67.5 -334t-191.5 -225t-289 -80t-290 80t-192.5 225t-67.5 334v218q0 189 67.5 334t191.5 225t289 80t290 -80t192.5 -225t67.5 -334v-218zM1177 839q0 171 -59 303t-171.5 206t-265.5 74t-264.5 -74t-170 -206t-58.5 -303v-220q0 -172 59 -304.5
t171 -206.5t265 -74t265 74t170.5 206.5t58.5 304.5v220z" />
    <glyph glyph-name="P" unicode="P" horiz-adv-x="1230" 
d="M254 615v-615h-54v1456h455q153 0 258.5 -52.5t158.5 -148t53 -224.5t-53 -222.5t-158.5 -143.5t-258.5 -50h-401zM254 1402v-733h401q142 0 235 47t137 128t44 185q0 108 -44 191.5t-137 132.5t-235 49h-401z" />
    <glyph glyph-name="Q" unicode="Q" horiz-adv-x="1364" 
d="M1191 -228l-39 -35l-283 273q-87 -30 -186 -30q-165 0 -290 80t-192.5 225t-67.5 334v218q0 189 67.5 334t191.5 225t289 80t290 -80t192.5 -225t67.5 -334v-218q0 -208 -81 -361t-226 -225zM1177 839q0 171 -59 303t-171.5 206t-265.5 74t-264.5 -74t-170 -206
t-58.5 -303v-220q0 -172 59 -304.5t171 -206.5t265 -74t265 74t170.5 206.5t58.5 304.5v220z" />
    <glyph glyph-name="R" unicode="R" horiz-adv-x="1340" 
d="M1141 0l-387 623h-505v-623h-54v1456h464q141 0 249 -49t168.5 -143.5t60.5 -227.5q0 -101 -43.5 -186t-118 -140.5t-166.5 -72.5l389 -623v-14h-57zM249 1402v-725h459q119 0 204 50.5t128 132.5t43 176q0 113 -52 195.5t-148 126.5t-224 44h-410z" />
    <glyph glyph-name="S" unicode="S" horiz-adv-x="1211" 
d="M1028.5 506q-43.5 65 -139.5 115t-261 96q-176 49 -278.5 98t-154.5 121.5t-52 183.5q0 108 62.5 188.5t172.5 124t248 43.5q140 0 250.5 -54t172.5 -151.5t62 -224.5h-54q0 107 -54 192.5t-152 134.5t-225 49q-132 0 -229.5 -41.5t-148.5 -110t-51 -148.5t37.5 -140.5
t130.5 -111.5t257 -95q179 -48 287 -101t163 -130t55 -193t-65.5 -200t-178 -127.5t-250.5 -43.5q-135 0 -255.5 42.5t-198.5 131.5q-83 95 -83 257h54q0 -137 72.5 -222t193.5 -121q111 -34 217 -34q127 0 227 40t156 111.5t56 163.5t-43.5 157z" />
    <glyph glyph-name="T" unicode="T" horiz-adv-x="1224" 
d="M55 1402v54h1114v-54h-530v-1402h-54v1402h-530z" />
    <glyph glyph-name="U" unicode="U" horiz-adv-x="1365" 
d="M1126 1456h54v-987q0 -159 -64 -269t-176 -165t-257 -55t-257.5 55t-176.5 165t-64 269v987h54v-987q0 -137 57.5 -235t158.5 -149t228 -51t227.5 51t158 149t57.5 235v987z" />
    <glyph glyph-name="V" unicode="V" horiz-adv-x="1223" 
d="M1189 1456l-544 -1456h-66l-544 1456h59l489 -1314l29 -88l29 88l489 1314h59z" />
    <glyph glyph-name="W" unicode="W" horiz-adv-x="1855" 
d="M1793 1456l-392 -1456h-61l-361 1214l-50 154l-50 -154l-364 -1214h-61l-393 1456h60l302 -1126l66 -239l66 239l344 1126h60l342 -1126l65 -240l68 240l300 1126h59z" />
    <glyph glyph-name="X" unicode="X" horiz-adv-x="1223" 
d="M141 1456l470 -671l470 671h68l-504 -713l523 -743h-67l-490 701l-492 -701h-65l523 743l-504 713h68z" />
    <glyph glyph-name="Y" unicode="Y" horiz-adv-x="1223" 
d="M105 1456l504 -854l510 854h66l-549 -903v-553h-54v553l-549 903h72z" />
    <glyph glyph-name="Z" unicode="Z" horiz-adv-x="1224" 
d="M134 1403v53h964v-38l-930 -1364h962v-54h-1036v44l929 1359h-889z" />
    <glyph glyph-name="bracketleft" unicode="[" horiz-adv-x="439" 
d="M464 1664v-54h-229v-1868h229v-54h-283v1976h283z" />
    <glyph glyph-name="backslash" unicode="\" horiz-adv-x="774" 
d="M665 -125l-608 1581h58l608 -1581h-58z" />
    <glyph glyph-name="bracketright" unicode="]" horiz-adv-x="439" 
d="M-8 1610v54h283v-1976h-283v54h228v1868h-228z" />
    <glyph glyph-name="asciicircum" unicode="^" horiz-adv-x="849" 
d="M91 729l299 727h52l299 -727h-61l-264 653l-266 -653h-59z" />
    <glyph glyph-name="underscore" unicode="_" horiz-adv-x="845" 
d="M845 0v-54h-846v54h846z" />
    <glyph glyph-name="grave" unicode="`" horiz-adv-x="537" 
d="M215 1536l188 -266h-59l-195 266h66z" />
    <glyph glyph-name="a" unicode="a" horiz-adv-x="1081" 
d="M871 0q-20 72 -20 198q-59 -96 -167 -157t-259 -61q-99 0 -174.5 37.5t-117 104.5t-41.5 152q0 97 60 171.5t173 116.5t267 42h259v158q0 136 -86 211t-244 75q-97 0 -176 -35t-124.5 -95.5t-45.5 -133.5l-54 2q0 84 52 156.5t143.5 116t204.5 43.5q114 0 200.5 -38.5
t135 -115.5t48.5 -188v-518q0 -164 28 -233v-9h-62zM687 101.5q109 68.5 164 190.5v257h-261q-136 0 -236.5 -35.5t-154 -99t-53.5 -144.5q0 -65 35.5 -119.5t99.5 -86t144 -31.5q153 0 262 68.5z" />
    <glyph glyph-name="b" unicode="b" 
d="M999 531q0 -165 -48.5 -289.5t-140 -193t-217.5 -68.5q-127 0 -221 51.5t-148 139.5v-171h-54v1536h54v-650q54 101 147 158.5t220 57.5t219 -66t140.5 -190t48.5 -295v-20zM347.5 967.5q-86.5 -80.5 -123.5 -197.5v-496q39 -109 132.5 -174.5t237.5 -65.5
q114 0 192.5 62.5t117 173.5t39.5 256v26q0 146 -39 258t-118 175t-194 63q-158 0 -244.5 -80.5z" />
    <glyph glyph-name="c" unicode="c" horiz-adv-x="1039" 
d="M704.5 65.5q76.5 31.5 126 97.5t55.5 165h54q-5 -107 -60 -186t-144.5 -120.5t-196.5 -41.5q-138 0 -237.5 68t-152 190.5t-52.5 281.5v42q0 159 52 281t151.5 190.5t236.5 68.5q107 0 196.5 -43.5t145.5 -128.5t61 -205h-54q-5 104 -54 176.5t-126.5 109.5t-168.5 37
q-128 0 -214.5 -64t-129 -173.5t-42.5 -248.5v-42q0 -140 42.5 -249.5t129.5 -173t216 -63.5q89 0 165.5 31.5z" />
    <glyph glyph-name="d" unicode="d" 
d="M897 0v174q-53 -89 -147 -141.5t-222 -52.5q-126 0 -217.5 68.5t-140 193t-48.5 289.5v21q0 170 48.5 294t140.5 190t219 66q129 0 221.5 -58t145.5 -161v653h54v-1536h-54zM178 531q0 -147 38.5 -259t117 -175t193.5 -63q143 0 236 64t134 171v506q-37 116 -124.5 194.5
t-243.5 78.5q-115 0 -193.5 -62.5t-117.5 -173t-40 -255.5v-26z" />
    <glyph glyph-name="e" unicode="e" horiz-adv-x="1032" 
d="M920 155q-123 -175 -359 -175q-131 0 -239.5 69t-171.5 192t-63 277v44q0 154 61 277.5t165 193t228 69.5q119 0 212.5 -58t146 -163t52.5 -241v-63h-811v-59q0 -133 55 -244t151.5 -176t213.5 -65q100 0 178 33.5t143 115.5zM348.5 993.5q-85.5 -54.5 -138.5 -149.5
t-65 -213h753v13q0 109 -44.5 201.5t-126 147.5t-186.5 55q-107 0 -192.5 -54.5z" />
    <glyph glyph-name="f" unicode="f" horiz-adv-x="645" 
d="M594 1027h-286v-1027h-54v1027h-188v55h188v158q1 152 76 234.5t207 82.5q74 0 128 -17l-8 -52q-54 15 -119 15q-107 0 -168.5 -70.5t-61.5 -196.5v-154h286v-55z" />
    <glyph glyph-name="g" unicode="g" horiz-adv-x="1123" 
d="M338.5 -387.5q-88.5 48.5 -151.5 133.5l38 36q65 -83 140.5 -124t173.5 -41q173 0 264.5 106t91.5 292v157q-53 -88 -147 -140t-221 -52q-126 0 -217.5 68.5t-140 193t-48.5 289.5v21q0 170 48.5 294t140.5 190t219 66q128 0 220.5 -58t145.5 -159v197h55v-1067
q0 -138 -49 -239.5t-141.5 -156.5t-218.5 -55q-114 0 -202.5 48.5zM176 531q0 -147 39 -259t117.5 -175t193.5 -63q145 0 237.5 66t131.5 176v491q-37 119 -122.5 200t-244.5 81q-115 0 -194 -62.5t-118 -173t-40 -255.5v-26z" />
    <glyph glyph-name="h" unicode="h" 
d="M415.5 993.5q-80.5 -55.5 -128.5 -146.5q-44 -83 -61 -154v-693h-54v1536h54v-705q51 120 152.5 195.5t231.5 75.5q168 0 255.5 -95.5t88.5 -301.5v-705h-54v705q-1 191 -77 267.5t-216 76.5q-111 0 -191.5 -55.5z" />
    <glyph glyph-name="i" unicode="i" horiz-adv-x="422" 
d="M212 1476q56 0 56 -56q0 -55 -56 -55q-55 0 -55 55q0 56 55 56zM239 1082v-1082h-54v1082h54z" />
    <glyph glyph-name="j" unicode="j" horiz-adv-x="445" 
d="M218 1476q56 0 56 -56q0 -55 -56 -55q-55 0 -55 55q0 56 55 56zM186 1082h54v-1211q0 -148 -75 -228t-210 -80q-47 0 -98 20l3 52q48 -18 95 -18q230 0 231 252v1213z" />
    <glyph glyph-name="k" unicode="k" horiz-adv-x="969" 
d="M383 583l-157 -134v-449h-54v1536h54v-1029l127 120l492 455h77l-497 -460l528 -622h-70l-498 585z" />
    <glyph glyph-name="l" unicode="l" horiz-adv-x="422" 
d="M239 1536v-1536h-54v1536h54z" />
    <glyph glyph-name="m" unicode="m" horiz-adv-x="1836" 
d="M402.5 991.5q-80.5 -57.5 -128.5 -151.5q-45 -89 -58 -156v-684h-55v1082h55v-255q51 122 151 198.5t232 76.5q140 0 225 -62t111 -194q31 73 88 131t136.5 91.5t173.5 33.5q168 0 257 -95.5t90 -301.5v-705h-54v705q-1 190 -77.5 267t-215.5 77q-121 0 -207 -54
t-132 -140q-43 -76 -48 -135v-720h-54v725q-1 178 -78 251t-218 73q-113 0 -193.5 -57.5z" />
    <glyph glyph-name="n" unicode="n" 
d="M415.5 993.5q-80.5 -55.5 -128.5 -146.5q-44 -83 -61 -154v-693h-54v1082h54v-251q51 120 152.5 195.5t231.5 75.5q168 0 255.5 -95.5t88.5 -301.5v-705h-54v705q-1 191 -77 267.5t-216 76.5q-111 0 -191.5 -55.5z" />
    <glyph glyph-name="o" unicode="o" horiz-adv-x="1127" 
d="M90 562q0 157 60 280t167.5 191.5t245.5 68.5q140 0 247.5 -68.5t167 -191.5t59.5 -280v-42q0 -157 -59.5 -280t-166.5 -191.5t-246 -68.5t-247 68.5t-168 191.5t-60 280v42zM144 520q0 -131 51 -242.5t146.5 -177.5t223.5 -66q127 0 222 66t145.5 177.5t50.5 242.5v42
q0 129 -50.5 240t-146 178.5t-223.5 67.5q-127 0 -222.5 -67.5t-146 -178.5t-50.5 -240v-42z" />
    <glyph glyph-name="p" unicode="p" 
d="M372 31.5q-94 51.5 -148 137.5v-585h-54v1498h54v-193q56 100 148 156.5t219 56.5t219 -66t140.5 -190t48.5 -295v-20q0 -165 -48.5 -289.5t-140 -193t-217.5 -68.5q-127 0 -221 51.5zM348.5 969.5q-87.5 -78.5 -124.5 -194.5v-506q41 -107 134 -171t236 -64
q115 0 193.5 63t117.5 175t39 259v21q0 146 -39.5 258t-118.5 175t-194 63q-156 0 -243.5 -78.5z" />
    <glyph glyph-name="q" unicode="q" 
d="M951 1082v-1498h-54v584q-54 -86 -148.5 -137t-220.5 -51t-217.5 68.5t-140 193t-48.5 289.5v21q0 170 48.5 294t140.5 190t219 66q128 0 220.5 -56.5t146.5 -156.5v193h54zM178 531q0 -147 38.5 -259t117 -175t193.5 -63q143 0 236 64t134 171v506q-38 113 -126.5 193
t-241.5 80q-115 0 -193.5 -62.5t-117.5 -173t-40 -255.5v-26z" />
    <glyph glyph-name="r" unicode="r" horiz-adv-x="685" 
d="M579 1049q-145 0 -235 -93.5t-118 -247.5v-708h-54v1082h54v-225q46 117 135 181t218 64q43 0 76 -11l-6 -48z" />
    <glyph glyph-name="s" unicode="s" horiz-adv-x="1019" 
d="M775 413q-65 74 -262 118q-137 31 -216 67t-116.5 90.5t-37.5 140.5q0 76 44 138t126 98.5t192 36.5q119 0 206.5 -38.5t134 -108.5t46.5 -162h-55q0 69 -39 127t-114 93t-179 35q-103 0 -172.5 -32t-102.5 -81.5t-33 -103.5q0 -82 57 -142t263 -108q139 -32 220.5 -73.5
t118.5 -100t37 -143.5q0 -83 -46.5 -147.5t-132.5 -100.5t-201 -36q-127 0 -218.5 40t-139 107t-47.5 148h54q6 -87 58 -141t129 -77t164 -23q102 0 176 33t112 86.5t38 111.5q0 74 -64 148z" />
    <glyph glyph-name="t" unicode="t" horiz-adv-x="648" 
d="M572 -8q-33 -12 -113 -12q-110 0 -165.5 62t-55.5 217v768h-200v55h200v292h55v-292h246v-55h-246v-768q0 -131 43.5 -178t119.5 -47q44 0 107 9z" />
    <glyph glyph-name="u" unicode="u" 
d="M897 0v175q-50 -93 -143 -144t-230 -51q-168 0 -261.5 98t-94.5 312v692h54v-694q1 -186 81 -270t219 -84q169 0 260 79t115 208v761h55v-1082h-55z" />
    <glyph glyph-name="v" unicode="v" horiz-adv-x="978" 
d="M937 1082l-421 -1082h-53l-420 1082h58l389 -995l389 995h58z" />
    <glyph glyph-name="w" unicode="w" horiz-adv-x="1550" 
d="M1456 1082l-315 -1082h-54l-267 813l-51 194l-55 -194l-263 -813h-54l-314 1082h62l221 -769l59 -233l317 1002h55l316 -1002l60 233l220 769h63z" />
    <glyph glyph-name="x" unicode="x" horiz-adv-x="978" 
d="M143 1082l346 -480l345 480h68l-380 -527l400 -555h-67l-367 508l-366 -508h-67l400 555l-380 527h68z" />
    <glyph glyph-name="y" unicode="y" horiz-adv-x="978" 
d="M98 -426l-1 51q34 -9 73 -9q93 0 146 54.5t93 159.5l65 176l-431 1076h59l401 -998l7 20l374 978h60l-483 -1267q-41 -110 -82.5 -161.5t-91.5 -71.5q-44 -19 -109 -19q-53 0 -80 11z" />
    <glyph glyph-name="z" unicode="z" horiz-adv-x="978" 
d="M118 1027v55h753v-48l-711 -980h770v-54h-843v44l711 983h-680z" />
    <glyph glyph-name="braceleft" unicode="{" horiz-adv-x="660" 
d="M73 609q128 0 189 72.5t61 203.5v247q0 172 73 291.5t246 173.5l15 -45q-280 -88 -280 -431v-222q0 -274 -211 -323q211 -51 211 -325v-224q0 -328 285 -422l-20 -46q-173 55 -246 172.5t-73 288.5v245q0 132 -61 205t-189 73v66z" />
    <glyph glyph-name="bar" unicode="|" horiz-adv-x="406" 
d="M235 1456v-1726h-54v1726h54z" />
    <glyph glyph-name="braceright" unicode="}" horiz-adv-x="660" 
d="M588 543q-250 0 -250 -285v-238q0 -172 -73 -289t-246 -172l-19 46q284 95 284 423v223q0 274 211 325q-211 49 -211 323v233q0 156 -68 265t-211 155l14 45q173 -54 246 -173.5t73 -291.5v-240q0 -283 250 -283v-66z" />
    <glyph glyph-name="asciitilde" unicode="~" horiz-adv-x="1412" 
d="M1246 752q0 -84 -30.5 -154.5t-91 -112.5t-147.5 -42q-58 0 -104.5 16.5t-89 47t-103.5 85.5q-57 51 -95 77.5t-74 38.5t-83 12q-213 0 -213 -258h-55q0 88 29 158.5t89.5 112t149.5 41.5q59 0 109.5 -19t94.5 -51t101 -84q74 -68 128 -96t116 -28q103 0 158 68.5
t55 188.5z" />
    <glyph glyph-name="uni00A0" unicode="&#xa0;" horiz-adv-x="490" 
 />
    <glyph glyph-name="exclamdown" unicode="&#xa1;" horiz-adv-x="406" 
d="M198 992q-56 0 -56 56q0 55 56 55q55 0 55 -55q0 -56 -55 -56zM179 -359v1055h54v-1055h-54z" />
    <glyph glyph-name="cent" unicode="&#xa2;" horiz-adv-x="1110" 
d="M976 328q-5 -103 -55.5 -179.5t-133.5 -119t-184 -48.5v-226h-55v226q-130 6 -223.5 76t-142.5 189.5t-49 273.5v42q0 154 49 274t142.5 189.5t223.5 75.5v217h55v-217q100 -6 183.5 -51t134.5 -128t55 -197h-54q-4 104 -52.5 176.5t-126.5 109.5t-170 37
q-128 0 -214.5 -64t-129 -173.5t-42.5 -248.5v-42q0 -140 42.5 -249.5t129.5 -173t216 -63.5q89 0 165.5 31.5t126 97.5t55.5 165h54z" />
    <glyph glyph-name="sterling" unicode="&#xa3;" horiz-adv-x="1150" 
d="M99 0v54h120q50 15 75 98t22 184l-10 331h-211v54h209l-9 318q0 136 45 234.5t127.5 150.5t193.5 52q118 0 202.5 -48.5t128 -136t43.5 -202.5h-54q0 113 -42.5 188t-114.5 110t-163 35q-96 0 -166.5 -44.5t-108 -130.5t-37.5 -208l9 -318h370v-54h-368l10 -331
q5 -194 -67 -282h757l1 -54h-962z" />
    <glyph glyph-name="currency" unicode="&#xa4;" horiz-adv-x="1502" 
d="M1380 13l-41 -40l-179 183q-83 -83 -189.5 -129.5t-225.5 -46.5t-225.5 46t-188.5 128l-177 -180l-40 39l179 183q-68 84 -106 189.5t-38 222.5q0 246 154 424l-189 193l40 39l188 -192q82 77 185 119.5t218 42.5t219 -43t184 -120l191 194l41 -40l-192 -196
q71 -84 111 -192t40 -229q0 -117 -37 -221.5t-104 -187.5zM276.5 320.5q72.5 -130.5 197.5 -209.5q123 -78 271 -78q145 0 269 77t198 209q73 130 73 289q0 156 -72.5 287t-197.5 209q-124 77 -270 77t-269.5 -76t-197.5 -208q-74 -131 -74 -289q0 -157 72.5 -287.5z" />
    <glyph glyph-name="yen" unicode="&#xa5;" horiz-adv-x="1038" 
d="M935 326h-392v-326h-54v326h-390v55h390v240h-390v55h365l-431 780h62l392 -718l25 -51h9l26 51l391 718h62l-432 -780h367v-55h-392v-240h392v-55z" />
    <glyph glyph-name="brokenbar" unicode="&#xa6;" horiz-adv-x="398" 
d="M226 1456v-758h-54v758h54zM226 -270h-54v752h54v-752z" />
    <glyph glyph-name="section" unicode="&#xa7;" horiz-adv-x="1223" 
d="M994.5 -334q-55.5 -78 -157 -119.5t-237.5 -41.5q-128 0 -236.5 43t-176.5 132q-72 94 -72 256l54 2q0 -139 62.5 -224t169.5 -121q98 -34 199 -34q124 0 213 37t135.5 102.5t46.5 150.5q0 80 -32.5 134.5t-116 98t-239.5 84.5q-160 38 -264.5 84.5t-163 119.5t-58.5 181
t76 179.5t211 92.5q-122 48 -182 119.5t-60 186.5q0 104 55.5 182.5t158 121.5t238.5 43q142 0 244 -50t156 -146.5t54 -234.5h-54q0 106 -47 191.5t-137 135.5t-216 50q-133 0 -222 -38t-132.5 -103.5t-43.5 -148.5q0 -85 33 -139.5t117 -98t246 -90.5q168 -42 268 -85
t155 -111.5t55 -176.5q0 -105 -81.5 -176t-222.5 -91q132 -50 196 -122t64 -191q0 -107 -55.5 -185zM693 196q107 1 185.5 32.5t120 84t41.5 115.5q0 124 -95 196q-98 72 -355 142l-108 30q-102 -4 -171 -37t-102.5 -86.5t-33.5 -119.5q0 -84 32 -136.5t114 -94t244 -90.5z
" />
    <glyph glyph-name="dieresis" unicode="&#xa8;" horiz-adv-x="906" 
d="M229 1477q56 0 56 -56q0 -55 -56 -55q-55 0 -55 55q0 56 55 56zM674 1477q56 0 56 -56q0 -55 -56 -55q-55 0 -55 55q0 56 55 56z" />
    <glyph glyph-name="copyright" unicode="&#xa9;" horiz-adv-x="1666" 
d="M217.5 1107q94.5 170 259.5 271q161 98 356 98q194 0 355.5 -97.5t258.5 -268.5q96 -169 96 -381q0 -208 -94.5 -378.5t-258.5 -271.5q-160 -100 -357 -100q-193 0 -355 98.5t-259 270.5q-96 170 -96 381q0 208 94.5 378zM266 379.5q87 -158.5 239 -252.5
q149 -93 328 -93q177 0 325.5 92t239.5 252q89 158 89 351q0 191 -87.5 348.5t-238.5 251.5q-149 92 -328 92q-177 0 -326 -91t-239 -250q-89 -158 -89 -351q0 -191 87 -349.5zM1124 616q0 -155 -79.5 -234.5t-218.5 -79.5q-94 0 -167 48.5t-113 136.5t-40 202v79
q0 113 40 201t113 137t167 49q139 0 219 -80t80 -233h-52q0 260 -247 260q-82 0 -142 -44t-91.5 -119.5t-31.5 -169.5v-80q0 -94 31.5 -169.5t91.5 -119t142 -43.5q246 0 246 259h52z" />
    <glyph glyph-name="ordfeminine" unicode="&#xaa;" horiz-adv-x="898" 
d="M680 705q-17 54 -22 119q-37 -56 -101 -94.5t-140 -38.5q-119 0 -184 56.5t-65 152.5q0 109 84.5 170.5t234.5 61.5h170v69q0 105 -51 163t-148 58q-112 0 -174.5 -45t-62.5 -134h-54q0 67 36.5 120t102.5 83t152 30q115 0 184.5 -71t69.5 -205v-314q0 -91 26 -181h-58z
M519 769q51 23 88.5 59t49.5 72v178h-181q-254 -5 -254 -174q0 -74 47.5 -116t148.5 -42q50 0 101 23z" />
    <glyph glyph-name="guillemotleft" unicode="&#xab;" horiz-adv-x="905" 
d="M440 145l-295 370v19l295 370h70l-294 -380l294 -379h-70zM727 145l-295 370v19l295 370h70l-294 -380l294 -379h-70z" />
    <glyph glyph-name="logicalnot" unicode="&#xac;" horiz-adv-x="1101" 
d="M122 753h793v-357h-54v304h-739v53z" />
    <glyph glyph-name="uni00AD" unicode="&#xad;" horiz-adv-x="607" 
d="M531 693v-54h-470v54h470z" />
    <glyph glyph-name="registered" unicode="&#xae;" horiz-adv-x="1674" 
d="M209.5 1107q94.5 170 258.5 271q161 98 357 98q194 0 355.5 -97.5t258.5 -268.5q96 -169 96 -381q0 -208 -94.5 -378.5t-258.5 -271.5q-160 -100 -357 -100q-194 0 -355.5 98.5t-258.5 270.5q-96 170 -96 381q0 208 94.5 378zM257.5 380q87.5 -158 239.5 -253
q149 -93 328 -93q177 0 325.5 92t239.5 252q89 158 89 351q0 191 -87.5 348.5t-238.5 251.5q-149 92 -328 92q-177 0 -326.5 -91t-239.5 -250q-89 -158 -89 -351q0 -191 87.5 -349zM648 678v-352h-55v830h239q289 0 289 -240q0 -145 -154 -206q73 -21 103 -75.5t30 -152.5
q0 -92 17 -140v-16h-59q-14 37 -14 175q0 66 -18.5 104.5t-58 55.5t-107.5 17h-212zM648 1101v-367h205q59 0 107.5 21t77 62.5t28.5 99.5q0 64 -22 104.5t-73 60t-139 19.5h-184z" />
    <glyph glyph-name="macron" unicode="&#xaf;" horiz-adv-x="811" 
d="M699 1436v-53h-567v53h567z" />
    <glyph glyph-name="degree" unicode="&#xb0;" horiz-adv-x="783" 
d="M187.5 1356q31.5 55 86 87.5t118.5 32.5q62 0 115.5 -32.5t85 -88t31.5 -119.5q0 -65 -31.5 -119.5t-84.5 -86t-116 -31.5q-65 0 -119 31.5t-85.5 86t-31.5 119.5t31.5 120zM234.5 1143q23.5 -41 65 -64.5t92.5 -23.5q50 0 90 23.5t63 64.5t23 93q0 53 -23 95t-63 66
t-90 24q-51 0 -92.5 -24t-65 -66t-23.5 -95q0 -52 23.5 -93z" />
    <glyph glyph-name="plusminus" unicode="&#xb1;" horiz-adv-x="1077" 
d="M988 751h-419v-462h-54v462h-443v54h443v462h54v-462h419v-54zM957 53v-54h-835v54h835z" />
    <glyph glyph-name="uni00B2" unicode="&#xb2;" horiz-adv-x="728" 
d="M651 713v-49h-543v44l300 305q143 146 143 234q0 79 -50 123.5t-145 44.5q-103 0 -159.5 -52.5t-56.5 -136.5h-54q0 66 33 120.5t94 86t143 31.5q113 0 181 -57.5t68 -158.5q0 -46 -24 -93t-60 -89.5t-95 -104.5l-251 -248h476z" />
    <glyph glyph-name="uni00B3" unicode="&#xb3;" horiz-adv-x="728" 
d="M270 1041v49h71q70 0 120.5 21t76.5 57.5t26 80.5q0 73 -51 119.5t-151 46.5q-60 0 -108 -20.5t-76 -59t-28 -89.5h-53q0 64 35 113.5t96 77t134 27.5q118 0 187 -57.5t69 -160.5q0 -58 -41 -106.5t-113 -71.5q173 -42 173 -193q0 -69 -35 -119t-96 -76.5t-139 -26.5
q-72 0 -138 25.5t-107.5 77t-41.5 125.5h54q0 -52 30 -93t83 -64t120 -23q216 0 216 173q0 167 -251 167h-62z" />
    <glyph glyph-name="acute" unicode="&#xb4;" horiz-adv-x="511" 
d="M126 1270l189 266h66l-195 -266h-60z" />
    <glyph glyph-name="uni00B5" unicode="&#xb5;" 
d="M353.5 25q-82.5 45 -130.5 146v-587h-52v1498h52v-647q1 -220 86 -310.5t220 -90.5q191 0 274 99.5t96 279.5v669h54v-1082h-51l-2 204q-101 -224 -362 -224q-102 0 -184.5 45z" />
    <glyph glyph-name="paragraph" unicode="&#xb6;" horiz-adv-x="946" 
d="M770 0h-54v520h-132q-153 1 -262.5 61.5t-166 166t-56.5 240.5q0 136 57 242t168.5 166t266.5 60h179v-1456z" />
    <glyph glyph-name="periodcentered" unicode="&#xb7;" horiz-adv-x="472" 
d="M234 762q56 0 56 -56q0 -55 -56 -55q-55 0 -55 55q0 56 55 56z" />
    <glyph glyph-name="cedilla" unicode="&#xb8;" horiz-adv-x="490" 
d="M154 0h53l-11 -76q78 -8 127.5 -47t49.5 -122q0 -56 -34.5 -99t-99 -67t-151.5 -24l-7 49q57 0 111.5 15.5t90 47t35.5 78.5q0 43 -21 67.5t-61 37t-107 19.5z" />
    <glyph glyph-name="uni00B9" unicode="&#xb9;" horiz-adv-x="728" 
d="M433 1455v-791h-54v722l-248 -81v53l293 97h9z" />
    <glyph glyph-name="ordmasculine" unicode="&#xba;" horiz-adv-x="914" 
d="M148 1141q0 97 37 173t106 119t161 43q93 0 162 -42.5t106 -119t37 -173.5v-117q0 -97 -37 -173t-105.5 -118.5t-160.5 -42.5q-93 0 -162 42.5t-106.5 118.5t-37.5 173v117zM202 1024q0 -124 63 -202t189 -78q81 0 137.5 37t84.5 100.5t28 142.5v117q0 79 -28 142.5
t-85 101t-139 37.5q-81 0 -137.5 -37.5t-84.5 -101t-28 -142.5v-117z" />
    <glyph glyph-name="guillemotright" unicode="&#xbb;" horiz-adv-x="897" 
d="M198 940l294 -380v-19l-294 -370h-70l294 380l-294 389h70zM488 940l294 -380v-19l-294 -370h-70l294 380l-294 389h70z" />
    <glyph glyph-name="onequarter" unicode="&#xbc;" horiz-adv-x="1467" 
d="M447 1455v-791h-54v722l-248 -81v53l293 97h9zM1097 1277l-711 -1138l-45 31l711 1138zM748 236l417 553h60v-536h147v-49h-147v-204h-53v204h-423zM818 253h354v474l-44 -71z" />
    <glyph glyph-name="onehalf" unicode="&#xbd;" horiz-adv-x="1508" 
d="M423 1455v-791h-54v722l-248 -81v53l293 97h9zM1054 1277l-711 -1138l-45 31l711 1138zM1392 49v-49h-543v44l300 305q143 146 143 234q0 79 -50 123.5t-145 44.5q-103 0 -159.5 -52.5t-56.5 -136.5h-54q0 66 33 120.5t94 86t143 31.5q113 0 181 -57.5t68 -158.5
q0 -46 -24 -93t-60 -89.5t-95 -104.5l-251 -248h476z" />
    <glyph glyph-name="threequarters" unicode="&#xbe;" horiz-adv-x="1586" 
d="M314 1041v49h71q70 0 120.5 21t76.5 57.5t26 80.5q0 73 -51 119.5t-151 46.5q-60 0 -108 -20.5t-76 -59t-28 -89.5h-53q0 64 35 113.5t96 77t134 27.5q118 0 187 -57.5t69 -160.5q0 -58 -41 -106.5t-113 -71.5q173 -42 173 -193q0 -69 -35 -119t-96 -76.5t-139 -26.5
q-72 0 -138 25.5t-107.5 77t-41.5 125.5h54q0 -52 30 -93t83 -64t120 -23q216 0 216 173q0 167 -251 167h-62zM1259 1277l-711 -1138l-45 31l711 1138zM888 236l417 553h60v-536h147v-49h-147v-204h-53v204h-423zM958 253h354v474l-44 -71z" />
    <glyph glyph-name="questiondown" unicode="&#xbf;" horiz-adv-x="912" 
d="M483 990q-56 0 -56 56q0 55 56 55q55 0 55 -55q0 -56 -55 -56zM514 695q-2 -85 -8.5 -124.5t-31.5 -76.5t-85 -91q-84 -81 -126 -130t-71.5 -120.5t-29.5 -169.5q0 -146 78 -228.5t221 -82.5q94 0 161 38.5t102.5 108t37.5 160.5h54q-1 -117 -48 -198t-127 -121.5
t-180 -40.5q-110 0 -189.5 46t-121.5 128.5t-42 191.5q0 97 30.5 175.5t84 143.5t138.5 141q48 37 69 71.5t25.5 71.5t4.5 107h54z" />
    <glyph glyph-name="Agrave" unicode="&#xc0;" horiz-adv-x="1223" 
d="M467 1855l188 -266h-59l-195 266h66zM33 0l545 1456h66l545 -1456h-59l-162 435h-714l-162 -435h-59zM274 489h674l-337 902z" />
    <glyph glyph-name="Aacute" unicode="&#xc1;" horiz-adv-x="1223" 
d="M572 1589l189 266h66l-195 -266h-60zM33 0l545 1456h66l545 -1456h-59l-162 435h-714l-162 -435h-59zM274 489h674l-337 902z" />
    <glyph glyph-name="Acircumflex" unicode="&#xc2;" horiz-adv-x="1223" 
d="M632 1836l234 -243v-10h-68l-187 196l-185 -196h-64v14l230 239h40zM33 0l545 1456h66l545 -1456h-59l-162 435h-714l-162 -435h-59zM274 489h674l-337 902z" />
    <glyph glyph-name="Atilde" unicode="&#xc3;" horiz-adv-x="1223" 
d="M940 1806q0 -54 -23.5 -96.5t-64 -66t-88.5 -23.5q-56 0 -93 20t-80 58l-17 15q-36 30 -93 32h-4q-53 0 -87 -32.5t-34 -92.5h-55q0 53 23 94t63.5 63t89.5 22q54 0 91.5 -19.5t83.5 -57.5l18 -15q36 -30 90 -32h4q51 0 86 35t35 96h55zM33 0l545 1456h66l545 -1456h-59
l-162 435h-714l-162 -435h-59zM274 489h674l-337 902z" />
    <glyph glyph-name="Adieresis" unicode="&#xc4;" horiz-adv-x="1223" 
d="M391 1796q56 0 56 -56q0 -55 -56 -55q-55 0 -55 55q0 56 55 56zM836 1796q56 0 56 -56q0 -55 -56 -55q-55 0 -55 55q0 56 55 56zM33 0l545 1456h66l545 -1456h-59l-162 435h-714l-162 -435h-59zM274 489h674l-337 902z" />
    <glyph glyph-name="Aring" unicode="&#xc5;" horiz-adv-x="1223" 
d="M465.5 1789.5q22.5 39.5 62 62.5t86.5 23t86 -23t62 -62.5t23 -88.5q0 -48 -23 -87t-62 -61t-86 -22q-48 0 -87 22t-61.5 60.5t-22.5 87.5t22.5 88.5zM530 1617.5q33 -32.5 84 -32.5t84 32.5t33 83.5q0 53 -33 86.5t-84 33.5t-84 -33.5t-33 -86.5q0 -51 33 -83.5zM33 0
l545 1456h66l545 -1456h-59l-162 435h-714l-162 -435h-59zM274 489h674l-337 902z" />
    <glyph glyph-name="AE" unicode="&#xc6;" horiz-adv-x="1816" 
d="M1768 54v-54h-752l-18 425h-627l-256 -425h-65l881 1456h776v-54h-696l26 -616h588v-54h-586l29 -678h700zM403 478h593l-39 921z" />
    <glyph glyph-name="Ccedilla" unicode="&#xc7;" horiz-adv-x="1327" 
d="M1136 446h54q-21 -222 -148 -339.5t-337 -125.5l-10 -67q78 -8 127.5 -47t49.5 -122q0 -56 -34.5 -99t-99 -67t-151.5 -24l-7 49q57 0 111.5 15.5t90 47t35.5 78.5q0 43 -21 67.5t-61 37t-107 19.5l23 111q-153 5 -267.5 86.5t-177 224.5t-62.5 328v218q0 189 65 334
t184.5 225t277.5 80q224 0 361 -117.5t158 -346.5h-54q-47 410 -465 410q-140 0 -247.5 -72.5t-166.5 -204.5t-59 -306v-220q0 -175 59 -307.5t166.5 -205t247.5 -72.5q423 0 465 412z" />
    <glyph glyph-name="Egrave" unicode="&#xc8;" horiz-adv-x="1166" 
d="M474 1855l188 -266h-59l-195 266h66zM200 0v1456h886v-54h-832v-626h730v-54h-730v-668h832v-54h-886z" />
    <glyph glyph-name="Eacute" unicode="&#xc9;" horiz-adv-x="1166" 
d="M579 1589l189 266h66l-195 -266h-60zM200 0v1456h886v-54h-832v-626h730v-54h-730v-668h832v-54h-886z" />
    <glyph glyph-name="Ecircumflex" unicode="&#xca;" horiz-adv-x="1166" 
d="M639 1836l234 -243v-10h-68l-187 196l-185 -196h-64v14l230 239h40zM200 0v1456h886v-54h-832v-626h730v-54h-730v-668h832v-54h-886z" />
    <glyph glyph-name="Edieresis" unicode="&#xcb;" horiz-adv-x="1166" 
d="M398 1796q56 0 56 -56q0 -55 -56 -55q-55 0 -55 55q0 56 55 56zM843 1796q56 0 56 -56q0 -55 -56 -55q-55 0 -55 55q0 56 55 56zM200 0v1456h886v-54h-832v-626h730v-54h-730v-668h832v-54h-886z" />
    <glyph glyph-name="Igrave" unicode="&#xcc;" horiz-adv-x="534" 
d="M123 1855l188 -266h-59l-195 266h66zM294 1456v-1456h-54v1456h54z" />
    <glyph glyph-name="Iacute" unicode="&#xcd;" horiz-adv-x="534" 
d="M228 1589l189 266h66l-195 -266h-60zM294 1456v-1456h-54v1456h54z" />
    <glyph glyph-name="Icircumflex" unicode="&#xce;" horiz-adv-x="534" 
d="M288 1836l234 -243v-10h-68l-187 196l-185 -196h-64v14l230 239h40zM294 1456v-1456h-54v1456h54z" />
    <glyph glyph-name="Idieresis" unicode="&#xcf;" horiz-adv-x="534" 
d="M47 1796q56 0 56 -56q0 -55 -56 -55q-55 0 -55 55q0 56 55 56zM492 1796q56 0 56 -56q0 -55 -56 -55q-55 0 -55 55q0 56 55 56zM294 1456v-1456h-54v1456h54z" />
    <glyph glyph-name="Eth" unicode="&#xd0;" horiz-adv-x="1370" 
d="M90 767h140v689h403q171 0 308 -81t215 -226.5t78 -331.5v-178q0 -186 -78 -331.5t-215 -226.5t-308 -81h-403v713h-140v54zM677 713h-393v-659h349q155 0 280 75t196 208t71 302v181q0 167 -71 299.5t-196 207.5t-280 75h-349v-635h393v-54z" />
    <glyph glyph-name="Ntilde" unicode="&#xd1;" horiz-adv-x="1449" 
d="M1054 1806q0 -54 -23.5 -96.5t-64 -66t-88.5 -23.5q-56 0 -93 20t-80 58l-17 15q-36 30 -93 32h-4q-53 0 -87 -32.5t-34 -92.5h-55q0 53 23 94t63.5 63t89.5 22q54 0 91.5 -19.5t83.5 -57.5l18 -15q36 -30 90 -32h4q51 0 86 35t35 96h55zM1249 1456v-1456h-54l-940 1364
v-1364h-55v1456h55l940 -1361v1361h54z" />
    <glyph glyph-name="Ograve" unicode="&#xd2;" horiz-adv-x="1364" 
d="M531 1876l188 -266h-59l-195 266h66zM1231 619q0 -189 -67.5 -334t-191.5 -225t-289 -80t-290 80t-192.5 225t-67.5 334v218q0 189 67.5 334t191.5 225t289 80t290 -80t192.5 -225t67.5 -334v-218zM1177 839q0 171 -59 303t-171.5 206t-265.5 74t-264.5 -74t-170 -206
t-58.5 -303v-220q0 -172 59 -304.5t171 -206.5t265 -74t265 74t170.5 206.5t58.5 304.5v220z" />
    <glyph glyph-name="Oacute" unicode="&#xd3;" horiz-adv-x="1364" 
d="M636 1610l189 266h66l-195 -266h-60zM1231 619q0 -189 -67.5 -334t-191.5 -225t-289 -80t-290 80t-192.5 225t-67.5 334v218q0 189 67.5 334t191.5 225t289 80t290 -80t192.5 -225t67.5 -334v-218zM1177 839q0 171 -59 303t-171.5 206t-265.5 74t-264.5 -74t-170 -206
t-58.5 -303v-220q0 -172 59 -304.5t171 -206.5t265 -74t265 74t170.5 206.5t58.5 304.5v220z" />
    <glyph glyph-name="Ocircumflex" unicode="&#xd4;" horiz-adv-x="1364" 
d="M696 1857l234 -243v-10h-68l-187 196l-185 -196h-64v14l230 239h40zM1231 619q0 -189 -67.5 -334t-191.5 -225t-289 -80t-290 80t-192.5 225t-67.5 334v218q0 189 67.5 334t191.5 225t289 80t290 -80t192.5 -225t67.5 -334v-218zM1177 839q0 171 -59 303t-171.5 206
t-265.5 74t-264.5 -74t-170 -206t-58.5 -303v-220q0 -172 59 -304.5t171 -206.5t265 -74t265 74t170.5 206.5t58.5 304.5v220z" />
    <glyph glyph-name="Otilde" unicode="&#xd5;" horiz-adv-x="1364" 
d="M1004 1827q0 -54 -23.5 -96.5t-64 -66t-88.5 -23.5q-56 0 -93 20t-80 58l-17 15q-36 30 -93 32h-4q-53 0 -87 -32.5t-34 -92.5h-55q0 53 23 94t63.5 63t89.5 22q54 0 91.5 -19.5t83.5 -57.5l18 -15q36 -30 90 -32h4q51 0 86 35t35 96h55zM1231 619q0 -189 -67.5 -334
t-191.5 -225t-289 -80t-290 80t-192.5 225t-67.5 334v218q0 189 67.5 334t191.5 225t289 80t290 -80t192.5 -225t67.5 -334v-218zM1177 839q0 171 -59 303t-171.5 206t-265.5 74t-264.5 -74t-170 -206t-58.5 -303v-220q0 -172 59 -304.5t171 -206.5t265 -74t265 74
t170.5 206.5t58.5 304.5v220z" />
    <glyph glyph-name="Odieresis" unicode="&#xd6;" horiz-adv-x="1364" 
d="M455 1817q56 0 56 -56q0 -55 -56 -55q-55 0 -55 55q0 56 55 56zM900 1817q56 0 56 -56q0 -55 -56 -55q-55 0 -55 55q0 56 55 56zM1231 619q0 -189 -67.5 -334t-191.5 -225t-289 -80t-290 80t-192.5 225t-67.5 334v218q0 189 67.5 334t191.5 225t289 80t290 -80
t192.5 -225t67.5 -334v-218zM1177 839q0 171 -59 303t-171.5 206t-265.5 74t-264.5 -74t-170 -206t-58.5 -303v-220q0 -172 59 -304.5t171 -206.5t265 -74t265 74t170.5 206.5t58.5 304.5v220z" />
    <glyph glyph-name="multiply" unicode="&#xd7;" horiz-adv-x="1052" 
d="M944 36l-39 -37l-384 391l-384 -391l-39 37l385 393l-358 364l39 39l357 -364l356 364l39 -39l-357 -364z" />
    <glyph glyph-name="Oslash" unicode="&#xd8;" horiz-adv-x="1364" 
d="M349 92l-106 -167h-66l130 205q-173 176 -174 482v225q0 189 67.5 334t191.5 225t289 80q234 0 382 -156l111 175h66l-139 -220q127 -167 130 -426v-230q0 -189 -67.5 -334t-191.5 -225t-289 -80q-195 0 -334 112zM188 619q0 -281 149 -442l697 1097q-133 148 -353 148
q-153 0 -264.5 -74t-170 -206t-58.5 -303v-220zM1177 839q0 233 -107 388l-692 -1089q125 -104 305 -104q153 0 265 74t170.5 206.5t58.5 304.5v220z" />
    <glyph glyph-name="Ugrave" unicode="&#xd9;" horiz-adv-x="1365" 
d="M552 1855l188 -266h-59l-195 266h66zM1126 1456h54v-987q0 -159 -64 -269t-176 -165t-257 -55t-257.5 55t-176.5 165t-64 269v987h54v-987q0 -137 57.5 -235t158.5 -149t228 -51t227.5 51t158 149t57.5 235v987z" />
    <glyph glyph-name="Uacute" unicode="&#xda;" horiz-adv-x="1365" 
d="M657 1589l189 266h66l-195 -266h-60zM1126 1456h54v-987q0 -159 -64 -269t-176 -165t-257 -55t-257.5 55t-176.5 165t-64 269v987h54v-987q0 -137 57.5 -235t158.5 -149t228 -51t227.5 51t158 149t57.5 235v987z" />
    <glyph glyph-name="Ucircumflex" unicode="&#xdb;" horiz-adv-x="1365" 
d="M717 1836l234 -243v-10h-68l-187 196l-185 -196h-64v14l230 239h40zM1126 1456h54v-987q0 -159 -64 -269t-176 -165t-257 -55t-257.5 55t-176.5 165t-64 269v987h54v-987q0 -137 57.5 -235t158.5 -149t228 -51t227.5 51t158 149t57.5 235v987z" />
    <glyph glyph-name="Udieresis" unicode="&#xdc;" horiz-adv-x="1365" 
d="M476 1796q56 0 56 -56q0 -55 -56 -55q-55 0 -55 55q0 56 55 56zM921 1796q56 0 56 -56q0 -55 -56 -55q-55 0 -55 55q0 56 55 56zM1126 1456h54v-987q0 -159 -64 -269t-176 -165t-257 -55t-257.5 55t-176.5 165t-64 269v987h54v-987q0 -137 57.5 -235t158.5 -149t228 -51
t227.5 51t158 149t57.5 235v987z" />
    <glyph glyph-name="Yacute" unicode="&#xdd;" horiz-adv-x="1223" 
d="M568 1578l189 266h66l-195 -266h-60zM105 1456l504 -854l510 854h66l-549 -903v-553h-54v553l-549 903h72z" />
    <glyph glyph-name="Thorn" unicode="&#xde;" horiz-adv-x="1219" 
d="M254 334v-334h-54v1456h54v-313h375q140 0 240.5 -52.5t153 -144t52.5 -208.5q0 -118 -52.5 -209.5t-154 -143t-243.5 -51.5h-371zM254 1089v-701h371q133 0 222 50.5t131.5 130t42.5 167.5q0 92 -42 172.5t-131.5 130.5t-222.5 50h-371z" />
    <glyph glyph-name="germandbls" unicode="&#xdf;" horiz-adv-x="1183" 
d="M218 0h-54v1143q0 190 85 291t244 101q80 0 151.5 -35t115.5 -98.5t44 -144.5q0 -94 -30 -150l-16 -30q-36 -63 -54.5 -115.5t-18.5 -132.5q0 -49 25 -90t63 -74t101 -78q89 -64 138.5 -130.5t49.5 -159.5q0 -97 -55 -168.5t-145 -111.5q-87 -38 -167 -38
q-87 0 -179 26.5t-133 62.5l25 49q43 -33 123.5 -59t155.5 -26q92 0 165 37.5t114.5 100.5t41.5 136q0 78 -48.5 136t-139.5 121q-90 61 -139.5 122.5t-49.5 145.5q0 79 18 133.5t51 116.5l15 30q29 60 29 148q0 61 -34.5 112t-90.5 80.5t-116 29.5q-285 0 -285 -338v-1143z
" />
    <glyph glyph-name="agrave" unicode="&#xe0;" horiz-adv-x="1081" 
d="M432 1535l188 -266h-59l-195 266h66zM871 0q-20 72 -20 198q-59 -96 -167 -157t-259 -61q-99 0 -174.5 37.5t-117 104.5t-41.5 152q0 97 60 171.5t173 116.5t267 42h259v158q0 136 -86 211t-244 75q-97 0 -176 -35t-124.5 -95.5t-45.5 -133.5l-54 2q0 84 52 156.5
t143.5 116t204.5 43.5q114 0 200.5 -38.5t135 -115.5t48.5 -188v-518q0 -164 28 -233v-9h-62zM687 101.5q109 68.5 164 190.5v257h-261q-136 0 -236.5 -35.5t-154 -99t-53.5 -144.5q0 -65 35.5 -119.5t99.5 -86t144 -31.5q153 0 262 68.5z" />
    <glyph glyph-name="aacute" unicode="&#xe1;" horiz-adv-x="1081" 
d="M537 1269l189 266h66l-195 -266h-60zM871 0q-20 72 -20 198q-59 -96 -167 -157t-259 -61q-99 0 -174.5 37.5t-117 104.5t-41.5 152q0 97 60 171.5t173 116.5t267 42h259v158q0 136 -86 211t-244 75q-97 0 -176 -35t-124.5 -95.5t-45.5 -133.5l-54 2q0 84 52 156.5
t143.5 116t204.5 43.5q114 0 200.5 -38.5t135 -115.5t48.5 -188v-518q0 -164 28 -233v-9h-62zM687 101.5q109 68.5 164 190.5v257h-261q-136 0 -236.5 -35.5t-154 -99t-53.5 -144.5q0 -65 35.5 -119.5t99.5 -86t144 -31.5q153 0 262 68.5z" />
    <glyph glyph-name="acircumflex" unicode="&#xe2;" horiz-adv-x="1081" 
d="M597 1516l234 -243v-10h-68l-187 196l-185 -196h-64v14l230 239h40zM871 0q-20 72 -20 198q-59 -96 -167 -157t-259 -61q-99 0 -174.5 37.5t-117 104.5t-41.5 152q0 97 60 171.5t173 116.5t267 42h259v158q0 136 -86 211t-244 75q-97 0 -176 -35t-124.5 -95.5
t-45.5 -133.5l-54 2q0 84 52 156.5t143.5 116t204.5 43.5q114 0 200.5 -38.5t135 -115.5t48.5 -188v-518q0 -164 28 -233v-9h-62zM687 101.5q109 68.5 164 190.5v257h-261q-136 0 -236.5 -35.5t-154 -99t-53.5 -144.5q0 -65 35.5 -119.5t99.5 -86t144 -31.5q153 0 262 68.5z
" />
    <glyph glyph-name="atilde" unicode="&#xe3;" horiz-adv-x="1081" 
d="M905 1486q0 -54 -23.5 -96.5t-64 -66t-88.5 -23.5q-56 0 -93 20t-80 58l-17 15q-36 30 -93 32h-4q-53 0 -87 -32.5t-34 -92.5h-55q0 53 23 94t63.5 63t89.5 22q54 0 91.5 -19.5t83.5 -57.5l18 -15q36 -30 90 -32h4q51 0 86 35t35 96h55zM871 0q-20 72 -20 198
q-59 -96 -167 -157t-259 -61q-99 0 -174.5 37.5t-117 104.5t-41.5 152q0 97 60 171.5t173 116.5t267 42h259v158q0 136 -86 211t-244 75q-97 0 -176 -35t-124.5 -95.5t-45.5 -133.5l-54 2q0 84 52 156.5t143.5 116t204.5 43.5q114 0 200.5 -38.5t135 -115.5t48.5 -188v-518
q0 -164 28 -233v-9h-62zM687 101.5q109 68.5 164 190.5v257h-261q-136 0 -236.5 -35.5t-154 -99t-53.5 -144.5q0 -65 35.5 -119.5t99.5 -86t144 -31.5q153 0 262 68.5z" />
    <glyph glyph-name="adieresis" unicode="&#xe4;" horiz-adv-x="1081" 
d="M356 1476q56 0 56 -56q0 -55 -56 -55q-55 0 -55 55q0 56 55 56zM801 1476q56 0 56 -56q0 -55 -56 -55q-55 0 -55 55q0 56 55 56zM871 0q-20 72 -20 198q-59 -96 -167 -157t-259 -61q-99 0 -174.5 37.5t-117 104.5t-41.5 152q0 97 60 171.5t173 116.5t267 42h259v158
q0 136 -86 211t-244 75q-97 0 -176 -35t-124.5 -95.5t-45.5 -133.5l-54 2q0 84 52 156.5t143.5 116t204.5 43.5q114 0 200.5 -38.5t135 -115.5t48.5 -188v-518q0 -164 28 -233v-9h-62zM687 101.5q109 68.5 164 190.5v257h-261q-136 0 -236.5 -35.5t-154 -99t-53.5 -144.5
q0 -65 35.5 -119.5t99.5 -86t144 -31.5q153 0 262 68.5z" />
    <glyph glyph-name="aring" unicode="&#xe5;" horiz-adv-x="1081" 
d="M430.5 1469.5q22.5 39.5 62 62.5t86.5 23t86 -23t62 -62.5t23 -88.5q0 -48 -23 -87t-62 -61t-86 -22q-48 0 -87 22t-61.5 60.5t-22.5 87.5t22.5 88.5zM495 1297.5q33 -32.5 84 -32.5t84 32.5t33 83.5q0 53 -33 86.5t-84 33.5t-84 -33.5t-33 -86.5q0 -51 33 -83.5zM871 0
q-20 72 -20 198q-59 -96 -167 -157t-259 -61q-99 0 -174.5 37.5t-117 104.5t-41.5 152q0 97 60 171.5t173 116.5t267 42h259v158q0 136 -86 211t-244 75q-97 0 -176 -35t-124.5 -95.5t-45.5 -133.5l-54 2q0 84 52 156.5t143.5 116t204.5 43.5q114 0 200.5 -38.5t135 -115.5
t48.5 -188v-518q0 -164 28 -233v-9h-62zM687 101.5q109 68.5 164 190.5v257h-261q-136 0 -236.5 -35.5t-154 -99t-53.5 -144.5q0 -65 35.5 -119.5t99.5 -86t144 -31.5q153 0 262 68.5z" />
    <glyph glyph-name="ae" unicode="&#xe6;" horiz-adv-x="1735" 
d="M1630 122q-64 -65 -147.5 -103.5t-214.5 -38.5q-143 0 -245 66t-155 184v-12h1q-27 -59 -83 -113t-142.5 -89.5t-195.5 -35.5q-112 0 -192 37.5t-121.5 106t-41.5 160.5q0 103 49.5 181t146 121.5t234.5 43.5h290v90q0 159 -72.5 243.5t-219.5 84.5q-108 0 -186.5 -35.5
t-119.5 -98.5t-41 -143l-53 7q0 93 49 167t140 115.5t211 41.5q139 0 227.5 -73t112.5 -214q52 133 156.5 210t235.5 77q125 0 216 -53t139.5 -152.5t48.5 -236.5v-83h-787v-77q0 -134 42.5 -239t131.5 -166t224 -61q202 0 332 130zM1065 994q-82 -54 -131 -148.5
t-61 -213.5h730v32q0 110 -40 197t-119 137t-191 50q-106 0 -188 -54zM615.5 64q79.5 32 132 77.5t65.5 84.5v349h-288q-124 0 -208.5 -39.5t-126.5 -106.5t-42 -149q0 -117 77.5 -182.5t221.5 -65.5q89 0 168.5 32z" />
    <glyph glyph-name="ccedilla" unicode="&#xe7;" horiz-adv-x="1039" 
d="M704.5 65.5q76.5 31.5 126 97.5t55.5 165h54q-5 -101 -54.5 -177.5t-131 -119.5t-180.5 -50l-10 -67q78 -8 127.5 -47t49.5 -122q0 -56 -34.5 -99t-99 -67t-151.5 -24l-7 49q57 0 111.5 15.5t90 47t35.5 78.5q0 43 -21 67.5t-61 37t-107 19.5l23 111q-132 5 -227.5 74.5
t-145.5 190t-50 275.5v42q0 159 52 281t151.5 190.5t236.5 68.5q107 0 196.5 -43.5t145.5 -128.5t61 -205h-54q-5 104 -54 176.5t-126.5 109.5t-168.5 37q-128 0 -214.5 -64t-129 -173.5t-42.5 -248.5v-42q0 -140 42.5 -249.5t129.5 -173t216 -63.5q89 0 165.5 31.5z" />
    <glyph glyph-name="egrave" unicode="&#xe8;" horiz-adv-x="1032" 
d="M422 1534l188 -266h-59l-195 266h66zM920 155q-123 -175 -359 -175q-131 0 -239.5 69t-171.5 192t-63 277v44q0 154 61 277.5t165 193t228 69.5q119 0 212.5 -58t146 -163t52.5 -241v-63h-811v-59q0 -133 55 -244t151.5 -176t213.5 -65q100 0 178 33.5t143 115.5z
M348.5 993.5q-85.5 -54.5 -138.5 -149.5t-65 -213h753v13q0 109 -44.5 201.5t-126 147.5t-186.5 55q-107 0 -192.5 -54.5z" />
    <glyph glyph-name="eacute" unicode="&#xe9;" horiz-adv-x="1032" 
d="M527 1268l189 266h66l-195 -266h-60zM920 155q-123 -175 -359 -175q-131 0 -239.5 69t-171.5 192t-63 277v44q0 154 61 277.5t165 193t228 69.5q119 0 212.5 -58t146 -163t52.5 -241v-63h-811v-59q0 -133 55 -244t151.5 -176t213.5 -65q100 0 178 33.5t143 115.5z
M348.5 993.5q-85.5 -54.5 -138.5 -149.5t-65 -213h753v13q0 109 -44.5 201.5t-126 147.5t-186.5 55q-107 0 -192.5 -54.5z" />
    <glyph glyph-name="ecircumflex" unicode="&#xea;" horiz-adv-x="1032" 
d="M587 1515l234 -243v-10h-68l-187 196l-185 -196h-64v14l230 239h40zM920 155q-123 -175 -359 -175q-131 0 -239.5 69t-171.5 192t-63 277v44q0 154 61 277.5t165 193t228 69.5q119 0 212.5 -58t146 -163t52.5 -241v-63h-811v-59q0 -133 55 -244t151.5 -176t213.5 -65
q100 0 178 33.5t143 115.5zM348.5 993.5q-85.5 -54.5 -138.5 -149.5t-65 -213h753v13q0 109 -44.5 201.5t-126 147.5t-186.5 55q-107 0 -192.5 -54.5z" />
    <glyph glyph-name="edieresis" unicode="&#xeb;" horiz-adv-x="1032" 
d="M346 1475q56 0 56 -56q0 -55 -56 -55q-55 0 -55 55q0 56 55 56zM791 1475q56 0 56 -56q0 -55 -56 -55q-55 0 -55 55q0 56 55 56zM920 155q-123 -175 -359 -175q-131 0 -239.5 69t-171.5 192t-63 277v44q0 154 61 277.5t165 193t228 69.5q119 0 212.5 -58t146 -163
t52.5 -241v-63h-811v-59q0 -133 55 -244t151.5 -176t213.5 -65q100 0 178 33.5t143 115.5zM348.5 993.5q-85.5 -54.5 -138.5 -149.5t-65 -213h753v13q0 109 -44.5 201.5t-126 147.5t-186.5 55q-107 0 -192.5 -54.5z" />
    <glyph glyph-name="igrave" unicode="&#xec;" horiz-adv-x="406" 
d="M64 1512l188 -266h-59l-195 266h66zM235 1082v-1082h-54v1082h54z" />
    <glyph glyph-name="iacute" unicode="&#xed;" horiz-adv-x="406" 
d="M169 1246l189 266h66l-195 -266h-60zM235 1082v-1082h-54v1082h54z" />
    <glyph glyph-name="icircumflex" unicode="&#xee;" horiz-adv-x="406" 
d="M229 1493l234 -243v-10h-68l-187 196l-185 -196h-64v14l230 239h40zM235 1082v-1082h-54v1082h54z" />
    <glyph glyph-name="idieresis" unicode="&#xef;" horiz-adv-x="406" 
d="M-12 1453q56 0 56 -56q0 -55 -56 -55q-55 0 -55 55q0 56 55 56zM433 1453q56 0 56 -56q0 -55 -56 -55q-55 0 -55 55q0 56 55 56zM235 1082v-1082h-54v1082h54z" />
    <glyph glyph-name="eth" unicode="&#xf0;" horiz-adv-x="1183" 
d="M1041 535q0 -162 -53 -288.5t-146.5 -196.5t-212.5 -70q-131 0 -235 64.5t-162.5 175t-58.5 245.5q0 154 51 263.5t147 167t230 57.5q116 0 217 -45.5t160 -127.5q-38 310 -226 500l-235 -131l-28 48l220 123q-138 121 -371 207l20 50q249 -91 402 -229l202 113l29 -48
l-189 -105q234 -243 239 -678v-95zM276 257q48 -98 140 -158.5t217 -60.5q107 0 187 63.5t123.5 176.5t43.5 257v82l-1 55q-25 59 -76 109.5t-129.5 82t-179.5 31.5q-127 0 -210.5 -56t-123 -152.5t-39.5 -221.5q0 -110 48 -208z" />
    <glyph glyph-name="ntilde" unicode="&#xf1;" 
d="M906 1484q0 -54 -23.5 -96.5t-64 -66t-88.5 -23.5q-56 0 -93 20t-80 58l-17 15q-36 30 -93 32h-4q-53 0 -87 -32.5t-34 -92.5h-55q0 53 23 94t63.5 63t89.5 22q54 0 91.5 -19.5t83.5 -57.5l18 -15q36 -30 90 -32h4q51 0 86 35t35 96h55zM415.5 993.5
q-80.5 -55.5 -128.5 -146.5q-44 -83 -61 -154v-693h-54v1082h54v-251q51 120 152.5 195.5t231.5 75.5q168 0 255.5 -95.5t88.5 -301.5v-705h-54v705q-1 191 -77 267.5t-216 76.5q-111 0 -191.5 -55.5z" />
    <glyph glyph-name="ograve" unicode="&#xf2;" horiz-adv-x="1127" 
d="M422 1533l188 -266h-59l-195 266h66zM90 562q0 157 60 280t167.5 191.5t245.5 68.5q140 0 247.5 -68.5t167 -191.5t59.5 -280v-42q0 -157 -59.5 -280t-166.5 -191.5t-246 -68.5t-247 68.5t-168 191.5t-60 280v42zM144 520q0 -131 51 -242.5t146.5 -177.5t223.5 -66
q127 0 222 66t145.5 177.5t50.5 242.5v42q0 129 -50.5 240t-146 178.5t-223.5 67.5q-127 0 -222.5 -67.5t-146 -178.5t-50.5 -240v-42z" />
    <glyph glyph-name="oacute" unicode="&#xf3;" horiz-adv-x="1127" 
d="M527 1267l189 266h66l-195 -266h-60zM90 562q0 157 60 280t167.5 191.5t245.5 68.5q140 0 247.5 -68.5t167 -191.5t59.5 -280v-42q0 -157 -59.5 -280t-166.5 -191.5t-246 -68.5t-247 68.5t-168 191.5t-60 280v42zM144 520q0 -131 51 -242.5t146.5 -177.5t223.5 -66
q127 0 222 66t145.5 177.5t50.5 242.5v42q0 129 -50.5 240t-146 178.5t-223.5 67.5q-127 0 -222.5 -67.5t-146 -178.5t-50.5 -240v-42z" />
    <glyph glyph-name="ocircumflex" unicode="&#xf4;" horiz-adv-x="1127" 
d="M587 1514l234 -243v-10h-68l-187 196l-185 -196h-64v14l230 239h40zM90 562q0 157 60 280t167.5 191.5t245.5 68.5q140 0 247.5 -68.5t167 -191.5t59.5 -280v-42q0 -157 -59.5 -280t-166.5 -191.5t-246 -68.5t-247 68.5t-168 191.5t-60 280v42zM144 520q0 -131 51 -242.5
t146.5 -177.5t223.5 -66q127 0 222 66t145.5 177.5t50.5 242.5v42q0 129 -50.5 240t-146 178.5t-223.5 67.5q-127 0 -222.5 -67.5t-146 -178.5t-50.5 -240v-42z" />
    <glyph glyph-name="otilde" unicode="&#xf5;" horiz-adv-x="1127" 
d="M895 1484q0 -54 -23.5 -96.5t-64 -66t-88.5 -23.5q-56 0 -93 20t-80 58l-17 15q-36 30 -93 32h-4q-53 0 -87 -32.5t-34 -92.5h-55q0 53 23 94t63.5 63t89.5 22q54 0 91.5 -19.5t83.5 -57.5l18 -15q36 -30 90 -32h4q51 0 86 35t35 96h55zM90 562q0 157 60 280t167.5 191.5
t245.5 68.5q140 0 247.5 -68.5t167 -191.5t59.5 -280v-42q0 -157 -59.5 -280t-166.5 -191.5t-246 -68.5t-247 68.5t-168 191.5t-60 280v42zM144 520q0 -131 51 -242.5t146.5 -177.5t223.5 -66q127 0 222 66t145.5 177.5t50.5 242.5v42q0 129 -50.5 240t-146 178.5
t-223.5 67.5q-127 0 -222.5 -67.5t-146 -178.5t-50.5 -240v-42z" />
    <glyph glyph-name="odieresis" unicode="&#xf6;" horiz-adv-x="1127" 
d="M346 1474q56 0 56 -56q0 -55 -56 -55q-55 0 -55 55q0 56 55 56zM791 1474q56 0 56 -56q0 -55 -56 -55q-55 0 -55 55q0 56 55 56zM90 562q0 157 60 280t167.5 191.5t245.5 68.5q140 0 247.5 -68.5t167 -191.5t59.5 -280v-42q0 -157 -59.5 -280t-166.5 -191.5t-246 -68.5
t-247 68.5t-168 191.5t-60 280v42zM144 520q0 -131 51 -242.5t146.5 -177.5t223.5 -66q127 0 222 66t145.5 177.5t50.5 242.5v42q0 129 -50.5 240t-146 178.5t-223.5 67.5q-127 0 -222.5 -67.5t-146 -178.5t-50.5 -240v-42z" />
    <glyph glyph-name="divide" unicode="&#xf7;" horiz-adv-x="1159" 
d="M584 1135q56 0 56 -56q0 -55 -56 -55q-55 0 -55 55q0 56 55 56zM1071 738v-52h-998v52h998zM584 357q56 0 56 -56q0 -55 -56 -55q-55 0 -55 55q0 56 55 56z" />
    <glyph glyph-name="oslash" unicode="&#xf8;" 
d="M352 28l-84 -173h-63l98 202q-102 69 -159 189.5t-57 273.5v42q0 157 60 280t167.5 191.5t245.5 68.5q124 0 224 -55l84 172h63l-99 -203q199 -145 202 -445v-51q0 -157 -59.5 -280t-166.5 -191.5t-246 -68.5q-115 0 -210 48zM141 520q0 -129 48.5 -238.5t138.5 -174.5
l431 889q-88 52 -199 52q-127 0 -222.5 -67.5t-146 -178.5t-50.5 -240v-42zM980 562q0 122 -45 228t-128 173l-431 -886q83 -43 186 -43q127 0 222 66t145.5 177.5t50.5 242.5v42z" />
    <glyph glyph-name="ugrave" unicode="&#xf9;" 
d="M435 1536l188 -266h-59l-195 266h66zM897 0v175q-50 -93 -143 -144t-230 -51q-168 0 -261.5 98t-94.5 312v692h54v-694q1 -186 81 -270t219 -84q169 0 260 79t115 208v761h55v-1082h-55z" />
    <glyph glyph-name="uacute" unicode="&#xfa;" 
d="M540 1270l189 266h66l-195 -266h-60zM897 0v175q-50 -93 -143 -144t-230 -51q-168 0 -261.5 98t-94.5 312v692h54v-694q1 -186 81 -270t219 -84q169 0 260 79t115 208v761h55v-1082h-55z" />
    <glyph glyph-name="ucircumflex" unicode="&#xfb;" 
d="M600 1517l234 -243v-10h-68l-187 196l-185 -196h-64v14l230 239h40zM897 0v175q-50 -93 -143 -144t-230 -51q-168 0 -261.5 98t-94.5 312v692h54v-694q1 -186 81 -270t219 -84q169 0 260 79t115 208v761h55v-1082h-55z" />
    <glyph glyph-name="udieresis" unicode="&#xfc;" 
d="M359 1477q56 0 56 -56q0 -55 -56 -55q-55 0 -55 55q0 56 55 56zM804 1477q56 0 56 -56q0 -55 -56 -55q-55 0 -55 55q0 56 55 56zM897 0v175q-50 -93 -143 -144t-230 -51q-168 0 -261.5 98t-94.5 312v692h54v-694q1 -186 81 -270t219 -84q169 0 260 79t115 208v761h55
v-1082h-55z" />
    <glyph glyph-name="yacute" unicode="&#xfd;" horiz-adv-x="978" 
d="M479 1270l189 266h66l-195 -266h-60zM98 -426l-1 51q34 -9 73 -9q93 0 146 54.5t93 159.5l65 176l-431 1076h59l401 -998l7 20l374 978h60l-483 -1267q-41 -110 -82.5 -161.5t-91.5 -71.5q-44 -19 -109 -19q-53 0 -80 11z" />
    <glyph glyph-name="thorn" unicode="&#xfe;" 
d="M372 31.5q-94 51.5 -148 137.5v-585h-54v1952h54v-647q56 100 148 156.5t219 56.5t219 -66t140.5 -190t48.5 -295v-20q0 -165 -48.5 -289.5t-140 -193t-217.5 -68.5q-127 0 -221 51.5zM348.5 969.5q-87.5 -78.5 -124.5 -194.5v-506q41 -107 134 -171t236 -64
q115 0 193.5 63t117.5 175t39 259v21q0 146 -39.5 258t-118.5 175t-194 63q-156 0 -243.5 -78.5z" />
    <glyph glyph-name="ydieresis" unicode="&#xff;" horiz-adv-x="978" 
d="M298 1477q56 0 56 -56q0 -55 -56 -55q-55 0 -55 55q0 56 55 56zM743 1477q56 0 56 -56q0 -55 -56 -55q-55 0 -55 55q0 56 55 56zM98 -426l-1 51q34 -9 73 -9q93 0 146 54.5t93 159.5l65 176l-431 1076h59l401 -998l7 20l374 978h60l-483 -1267q-41 -110 -82.5 -161.5
t-91.5 -71.5q-44 -19 -109 -19q-53 0 -80 11z" />
    <glyph glyph-name="dotlessi" unicode="&#x131;" horiz-adv-x="406" 
d="M235 1082v-1082h-54v1082h54z" />
    <glyph glyph-name="OE" unicode="&#x152;" horiz-adv-x="1873" 
d="M1801 54v-54h-840q-199 -21 -330 -21q-152 0 -270 75.5t-183.5 211t-65.5 310.5v304q0 175 65 310t182.5 210.5t269.5 75.5q137 0 332 -20h840v-54h-832v-626h730v-54h-730v-668h832zM166 576q0 -157 58 -280.5t163.5 -193t243.5 -69.5q167 0 284 14v1362
q-103 13 -286 13q-139 0 -244 -67.5t-162 -190t-57 -282.5v-306z" />
    <glyph glyph-name="oe" unicode="&#x153;" horiz-adv-x="1924" 
d="M1815 123q-128 -143 -371 -143q-95 0 -182.5 44t-152.5 123.5t-95 183.5q-31 -107 -94 -186t-153.5 -122t-199.5 -43q-139 0 -247 68.5t-168 191.5t-60 280v42q0 157 60 280t167.5 191.5t245.5 68.5q110 0 201.5 -43.5t155 -123t93.5 -187.5q30 107 92.5 187t148.5 123.5
t185 43.5q120 0 214 -53.5t147 -153.5t53 -235v-83h-811v-77q0 -128 52.5 -235t144.5 -169t203 -62q122 0 203.5 33t138.5 98zM146 520q0 -131 51 -242.5t146.5 -177.5t223.5 -66q127 0 222 66t145.5 177.5t50.5 242.5v42q0 129 -50.5 240t-146 178.5t-223.5 67.5
q-127 0 -222.5 -67.5t-146 -178.5t-50.5 -240v-42zM1249 993.5q-85 -54.5 -137.5 -149.5t-64.5 -213h754v33q0 108 -45 195.5t-127 138t-188 50.5q-107 0 -192 -54.5z" />
    <glyph glyph-name="circumflex" unicode="&#x2c6;" horiz-adv-x="796" 
d="M422 1517l234 -243v-10h-68l-187 196l-185 -196h-64v14l230 239h40z" />
    <glyph glyph-name="ring" unicode="&#x2da;" horiz-adv-x="586" 
d="M136.5 1470.5q22.5 39.5 62 62.5t86.5 23t86 -23t62 -62.5t23 -88.5q0 -48 -23 -87t-62 -61t-86 -22q-48 0 -87 22t-61.5 60.5t-22.5 87.5t22.5 88.5zM201 1298.5q33 -32.5 84 -32.5t84 32.5t33 83.5q0 53 -33 86.5t-84 33.5t-84 -33.5t-33 -86.5q0 -51 33 -83.5z" />
    <glyph glyph-name="tilde" unicode="&#x2dc;" horiz-adv-x="817" 
d="M729 1472q0 -54 -23.5 -96.5t-64 -66t-88.5 -23.5q-56 0 -93 20t-80 58l-17 15q-36 30 -93 32h-4q-53 0 -87 -32.5t-34 -92.5h-55q0 53 23 94t63.5 63t89.5 22q54 0 91.5 -19.5t83.5 -57.5l18 -15q36 -30 90 -32h4q51 0 86 35t35 96h55z" />
    <glyph glyph-name="uni0531" unicode="&#x531;" horiz-adv-x="1578" 
d="M1477 -33l-308 337q-45 -159 -171.5 -241.5t-304.5 -82.5q-145 0 -257.5 55t-176.5 165t-64 269v1067h54v-1067q0 -137 57.5 -235t158.5 -149t228 -51t227.5 51t158 149t57.5 235v1067h54v-1067q0 -46 -7 -102l294 -321v-79z" />
    <glyph glyph-name="uni0532" unicode="&#x532;" horiz-adv-x="1374" 
d="M1255 454h-1006v-454h-54v1067q0 159 64 269t176.5 165t257.5 55t257 -55t176 -165t64 -269v-181h-54v181q0 137 -57.5 235t-158 149t-227.5 51t-228 -51t-158.5 -149t-57.5 -235v-559h1006v-54z" />
    <glyph glyph-name="uni0533" unicode="&#x533;" horiz-adv-x="1557" 
d="M1504 560h-331v-560h-54v701q-63 -133 -188.5 -206t-292.5 -73q-159 0 -282 66t-191.5 189t-68.5 289v46q0 165 68.5 288.5t191.5 189.5t282 66t280.5 -66t188.5 -189t67 -289v-46q0 -26 -1 -39v-313h331v-54zM895.5 535.5q108.5 59.5 166 167.5t57.5 251v67
q0 148 -57 257t-165.5 167.5t-258.5 58.5t-260 -58.5t-169 -167.5t-59 -257v-67q0 -143 59 -251t169.5 -167.5t259.5 -59.5t257.5 59.5z" />
    <glyph glyph-name="uni0534" unicode="&#x534;" horiz-adv-x="1549" 
d="M1496 560h-331v-560h-54v1067q0 137 -57.5 235t-158 149t-227.5 51t-228 -51t-158.5 -149t-57.5 -235v-411h-54v411q0 159 64 269t176.5 165t257.5 55t257 -55t176 -165t64 -269v-453h331v-54z" />
    <glyph glyph-name="uni0535" unicode="&#x535;" horiz-adv-x="1374" 
d="M249 1028v-559q0 -137 57.5 -235t158.5 -149t228 -51t227.5 51t158 149t57.5 235v181h54v-181q0 -159 -64 -269t-176 -165t-257 -55t-257.5 55t-176.5 165t-64 269v1067h54v-454h1006v-54h-1006z" />
    <glyph glyph-name="uni0536" unicode="&#x536;" horiz-adv-x="1402" 
d="M1193.5 246q88.5 -82 88.5 -244v-2h-54q0 134 -74 204t-223 70h-717v-274h-54v599h54v-271h351q235 71 429 224.5t194 436.5q0 150 -54.5 266t-160.5 181.5t-256 65.5q-230 0 -342.5 -124.5t-112.5 -347.5v-64h-54v64q0 249 126 387.5t383 138.5q168 0 286.5 -72
t178.5 -200t60 -295q0 -192 -90.5 -329t-208.5 -214t-232 -118h220q174 0 262.5 -82z" />
    <glyph glyph-name="uni0537" unicode="&#x537;" horiz-adv-x="1271" 
d="M259 1028v-974h362q122 0 212.5 -29.5t139.5 -82.5t49 -121h-54q0 52 -42 92.5t-121 63.5t-184 23h-416v1536h54v-454h893v-54h-893z" />
    <glyph glyph-name="uni0538" unicode="&#x538;" horiz-adv-x="1374" 
d="M1255 54v-54h-1060v1067q0 159 64 269t176 165t257 55t257.5 -55t176.5 -165t64 -269v-411h-54v411q0 137 -57.5 235t-158.5 149t-228 51t-227.5 -51t-158 -149t-57.5 -235v-1013h1006z" />
    <glyph glyph-name="uni0539" unicode="&#x539;" horiz-adv-x="1882" 
d="M1763 811v-54l-261 1v-338q0 -211 -91.5 -325.5t-315.5 -114.5q-132 0 -228.5 47.5t-147.5 138t-51 215.5v30q0 125 51 215t147.5 137.5t228.5 47.5h353v210q0 147 -73.5 256t-209 167t-316.5 58q-183 0 -318.5 -58t-208.5 -166.5t-73 -256.5v-1021h-54v1021
q0 163 80 283.5t228 186t346 65.5q202 0 349 -65t225.5 -186t78.5 -284v-210h261zM1448 758l-353 -1q-179 -1 -276 -94.5t-97 -271.5q0 -173 97.5 -265t275.5 -92q138 0 215.5 47t107.5 131t30 208v338z" />
    <glyph glyph-name="uni053A" unicode="&#x53a;" horiz-adv-x="1520" 
d="M1401 1028h-332v-488q-1 -188 -40 -309.5t-136 -186t-268 -64.5q-161 0 -277 64.5t-177 185t-61 285.5v32q0 165 61 285.5t180.5 185t290.5 64.5h373v454h54v-454h332v-54zM1015 1028h-373q-234 0 -356 -131t-122 -370q0 -154 53.5 -265t156.5 -169.5t248 -58.5
q156 0 242 59t118.5 168t32.5 279v488z" />
    <glyph glyph-name="uni053B" unicode="&#x53b;" horiz-adv-x="1360" 
d="M959.5 1105q112.5 -55 176.5 -165t64 -269v-287h-54v287q0 137 -57.5 235t-158.5 149t-228 51q-126 0 -227 -58t-158.5 -163.5t-57.5 -243.5v-641h-54v1536h54v-647q61 126 178 198.5t265 72.5q145 0 257.5 -55z" />
    <glyph glyph-name="uni053C" unicode="&#x53c;" horiz-adv-x="1112" 
d="M978 24.5q86 -29.5 130 -82t44 -121.5h-54q0 52 -37.5 92.5t-111 63.5t-178.5 23h-566v1536h54v-1482h512q121 0 207 -29.5z" />
    <glyph glyph-name="uni053D" unicode="&#x53d;" horiz-adv-x="1779" 
d="M1584 1082v-613q0 -159 -53.5 -269t-146 -165t-210.5 -55t-211.5 55t-147 165t-53.5 269v559h-503v-1028h-54v1536h54v-454h557v-613q0 -137 46 -235t127 -149t185 -51t184.5 51t126 149t45.5 235v613h54z" />
    <glyph glyph-name="uni053E" unicode="&#x53e;" horiz-adv-x="1358" 
d="M1408 1222h-467q137 -64 213.5 -194.5t76.5 -304.5v-189q0 -164 -67.5 -289.5t-191.5 -195t-289 -69.5t-290 69.5t-192.5 195t-67.5 289.5v189q0 174 76 304.5t213 194.5h-119q-185 0 -278 79t-93 235h54q0 -131 78 -195.5t239 -64.5h1105v-54zM1118 982
q-59 113 -171.5 176.5t-265.5 63.5t-264.5 -63.5t-170 -176.5t-58.5 -259v-188q0 -147 59 -260.5t171 -177t265 -63.5t265 63.5t170.5 177t58.5 260.5v188q0 146 -59 259z" />
    <glyph glyph-name="uni053F" unicode="&#x53f;" horiz-adv-x="1350" 
d="M1155 1082v-1082h-54v647q-61 -126 -178 -198.5t-265 -72.5q-145 0 -257.5 55t-176.5 165t-64 269v671h54v-671q0 -137 57.5 -235t158.5 -149t228 -51q126 0 227 58t158.5 163.5t57.5 243.5v187h54z" />
    <glyph glyph-name="uni0540" unicode="&#x540;" horiz-adv-x="1228" 
d="M118 1536h473q150 0 248.5 -37t149 -121t50.5 -223q0 -120 -33.5 -193.5t-86 -110.5t-127.5 -61q128 -43 202 -125.5t74 -207.5v-458h-54v438q0 93 -52 169t-137.5 119t-183.5 43h-473v54h473q95 0 172.5 33.5t124.5 107.5t47 189q0 175 -100 252.5t-294 77.5h-473v54z
" />
    <glyph glyph-name="uni0541" unicode="&#x541;" horiz-adv-x="1385" 
d="M1245 -15q-7 10 -34 47.5t-73 96t-102 118.5q-109 -127 -250 -197t-290 -70q-112 0 -203 36.5t-145 112t-54 186.5q0 163 112 238.5t290 75.5q133 0 270 -83.5t266 -213.5q84 114 131.5 256.5t47.5 300.5v29q0 151 -53.5 284t-169 216.5t-290.5 83.5t-288.5 -58
t-165.5 -149t-52 -194v-43h-54v45q0 118 58.5 221t184 167.5t317.5 64.5q191 0 318.5 -89.5t188 -232.5t60.5 -306v-29q0 -176 -51 -331t-143 -277q58 -62 105.5 -121.5t75 -98t34.5 -48.5zM764 101q131 67 233 187q-122 126 -251 206.5t-250 80.5q-154 0 -251 -61t-97 -199
q0 -95 47.5 -158t126 -93t174.5 -30q137 0 268 67z" />
    <glyph glyph-name="uni0542" unicode="&#x542;" horiz-adv-x="1576" 
d="M1496 54v-54h-385v1067q0 137 -57.5 235t-158 149t-227.5 51t-228 -51t-158.5 -149t-57.5 -235v-411h-54v411q0 159 64 269t176.5 165t257.5 55t257 -55t176 -165t64 -269v-1013h331z" />
    <glyph glyph-name="uni0543" unicode="&#x543;" horiz-adv-x="1515" 
d="M1109 1006.5q133 -75.5 196.5 -210.5t63.5 -318v-478h-1099v573q0 261 52 455h-282v54h298q78 239 234.5 356.5t374.5 117.5q104 0 193.5 -17.5t149 -38t59.5 -22.5l-7 -51q0 2 -58 22t-145.5 36.5t-191.5 16.5q-195 0 -337 -103.5t-215 -316.5h378q203 0 336 -75.5z
M1315 54v424q0 256 -132.5 403t-409.5 147h-395q-54 -193 -54 -455v-519h991z" />
    <glyph glyph-name="uni0544" unicode="&#x544;" horiz-adv-x="1581" 
d="M1521 1482h-331v-1013q0 -159 -64 -269t-176.5 -165t-257.5 -55t-257 55t-176 165t-64 269v1067h54v-1067q0 -137 57.5 -235t158 -149t227.5 -51t228 51t158.5 149t57.5 235v1067h385v-54z" />
    <glyph glyph-name="uni0545" unicode="&#x545;" horiz-adv-x="1350" 
d="M138 757v54h550q232 0 344 88.5t112 246.5q0 105 -51 185t-156 125.5t-260 45.5q-123 0 -224.5 -45t-161 -129t-59.5 -195h-54q0 127 67.5 223t181.5 148t250 52q159 0 276 -47.5t181 -140.5t64 -226q0 -84 -32 -158.5t-100 -127.5t-171 -70q161 -22 244 -121.5
t83 -256.5q0 -135 -64.5 -231.5t-184 -147t-281.5 -50.5q-152 0 -274 55t-192 156.5t-70 236.5h55q0 -113 60.5 -203t170 -140.5t250.5 -50.5q235 0 355.5 98t120.5 273q0 182 -122 267.5t-363 85.5h-545z" />
    <glyph glyph-name="uni0546" unicode="&#x546;" horiz-adv-x="1556" 
d="M1386 880v-411q0 -159 -64 -269t-176.5 -165t-257.5 -55t-257 55t-176 165t-64 269v1013h-331v54h385v-1067q0 -137 57.5 -235t158 -149t227.5 -51t228 51t158.5 149t57.5 235v411h54z" />
    <glyph glyph-name="uni0547" unicode="&#x547;" horiz-adv-x="1378" 
d="M561 1140q-141 -50 -265 -189.5t-126 -384.5q-1 -142 64 -264t182.5 -195t265.5 -73q147 0 257.5 60.5t171 168t60.5 244.5v23h54v-25q0 -159 -64.5 -277.5t-187 -183t-291.5 -64.5q-170 0 -299 77t-198.5 210.5t-68.5 298.5q1 262 131.5 409.5t264 197t249.5 69.5
l-495 254v60l996 -511v-60l-432 222q-128 -17 -269 -67z" />
    <glyph glyph-name="uni0548" unicode="&#x548;" horiz-adv-x="1385" 
d="M1078.5 1302q-57.5 98 -158 149t-227.5 51t-228 -51t-158.5 -149t-57.5 -235v-1067h-54v1067q0 159 64 269t176.5 165t257.5 55t257 -55t176 -165t64 -269v-1067h-54v1067q0 137 -57.5 235z" />
    <glyph glyph-name="uni0549" unicode="&#x549;" horiz-adv-x="1378" 
d="M1131 610.5q-130 -162.5 -266 -233.5t-249 -108l496 -255v-57l-996 506v62l428 -219q127 36 269 105.5t267.5 221.5t127.5 387q1 140 -63.5 250t-181.5 171t-267 61q-147 0 -257.5 -60.5t-171 -168t-60.5 -244.5v-23h-54v25q0 159 64.5 277.5t187 183t291.5 64.5
q173 0 301 -65.5t196.5 -186.5t68.5 -284q-1 -247 -131 -409.5z" />
    <glyph glyph-name="uni054A" unicode="&#x54a;" horiz-adv-x="1672" 
d="M1169 1490.5q148 -65.5 228 -186t80 -283.5v-1021h-54v1021q0 144 -69.5 251t-198.5 166.5t-304 63.5v-1049h-54v1049q-174 -4 -303.5 -63.5t-199.5 -166.5t-70 -251v-263h-54v263q0 163 78.5 284t225.5 186t349 65q198 0 346 -65.5z" />
    <glyph glyph-name="uni054B" unicode="&#x54b;" horiz-adv-x="1380" 
d="M1171.5 246q88.5 -82 88.5 -244v-2h-54q0 134 -74 204t-223 70h-695v-274h-54v579h54v-251h289q66 22 110 40q54 64 54 120q0 53 -49.5 108t-164.5 115q-93 49 -143.5 84.5t-88.5 100.5t-38 164q0 150 56.5 261.5t171.5 173t285 61.5q167 0 284.5 -73t177 -197.5
t59.5 -276.5q0 -196 -105 -338.5t-232 -221t-238 -121.5h267q174 0 262.5 -82zM719 493q0 -42 -22 -86q193 95 329.5 244t136.5 358q0 140 -53.5 252t-159 176.5t-254.5 64.5q-227 0 -343 -116.5t-116 -323.5q0 -81 32.5 -137.5t84.5 -94.5t140 -84q225 -117 225 -253z" />
    <glyph glyph-name="uni054C" unicode="&#x54c;" horiz-adv-x="1574" 
d="M1521 560h-331v-560h-54v1067q0 137 -57.5 235t-158 149t-227.5 51t-228 -51t-158.5 -149t-57.5 -235v-1067h-54v1067q0 159 64 269t176.5 165t257.5 55t257 -55t176 -165t64 -269v-453h331v-54z" />
    <glyph glyph-name="uni054D" unicode="&#x54d;" horiz-adv-x="1385" 
d="M1136 1536h54v-1067q0 -159 -64 -269t-176 -165t-257 -55t-257.5 55t-176.5 165t-64 269v1067h54v-1067q0 -137 57.5 -235t158.5 -149t228 -51t227.5 51t158 149t57.5 235v1067z" />
    <glyph glyph-name="uni054E" unicode="&#x54e;" horiz-adv-x="1566" 
d="M1486 54v-54h-385v647q-61 -126 -178 -198.5t-265 -72.5q-145 0 -257.5 55t-176.5 165t-64 269v217h54v-217q0 -137 57.5 -235t158.5 -149t228 -51q126 0 227 58t158.5 163.5t57.5 243.5v641h54v-1482h331z" />
    <glyph glyph-name="uni054F" unicode="&#x54f;" horiz-adv-x="1243" 
d="M1041 535.5q-41 68.5 -135 121.5t-258 101q-178 52 -283.5 103.5t-160.5 127.5t-55 192q0 114 62.5 199t172.5 130.5t248 45.5q142 0 252 -52t171.5 -150t61.5 -231h-54q0 112 -53.5 198t-151.5 133.5t-226 47.5q-132 0 -229.5 -44.5t-148.5 -117.5t-51 -157
q0 -83 40.5 -147.5t137 -118.5t261.5 -101q178 -50 284 -105.5t158.5 -136.5t52.5 -203t-65.5 -210.5t-178 -134.5t-250.5 -46q-157 0 -278.5 51.5t-190 153.5t-68.5 249h54q0 -127 63 -217t172.5 -136.5t247.5 -46.5q127 0 227 42.5t156 119t56 173.5q0 98 -41 166.5z" />
    <glyph glyph-name="uni0550" unicode="&#x550;" horiz-adv-x="1360" 
d="M249 0h-54v1067q0 159 64 269t176 165t257 55t257.5 -55t176.5 -165t64 -269v-411h-54v411q0 137 -57.5 235t-158.5 149t-228 51t-227.5 -51t-158 -149t-57.5 -235v-1067z" />
    <glyph glyph-name="uni0551" unicode="&#x551;" horiz-adv-x="1378" 
d="M138 812h349q-179 121 -179 327q0 200 104 308.5t305 108.5q200 0 304 -108t104 -306q0 -131 -57 -214.5t-167 -135.5q77 -15 156.5 -58t136 -122t56.5 -194q0 -219 -135.5 -328.5t-393.5 -109.5q-159 0 -278.5 54t-185.5 155t-66 239h54q0 -123 59 -211.5t166.5 -135.5
t250.5 -47q475 0 475 384q0 106 -61 183t-169.5 117t-248.5 40h-579v54zM405.5 964.5q43.5 -73.5 124 -113t187.5 -39.5q111 0 191 40t121.5 114.5t41.5 175.5q0 174 -89 267t-265 93q-179 0 -267 -94t-88 -271q0 -99 43.5 -172.5z" />
    <glyph glyph-name="uni0552" unicode="&#x552;" horiz-adv-x="618" 
d="M565 741h-331v-741h-54v1536h54v-741h331v-54z" />
    <glyph glyph-name="uni0553" unicode="&#x553;" horiz-adv-x="1534" 
d="M793 219v-219h-55v219h-32q-186 1 -324.5 74.5t-212 200t-73.5 283.5q0 158 74.5 285t214 200.5t328.5 73.5h25v200h55v-200h38q186 -2 323.5 -75.5t210.5 -199.5t73 -282q0 -157 -73.5 -284t-212 -201t-324.5 -75h-35zM738 273v1009h-25q-173 0 -300 -65.5t-194.5 -180
t-67.5 -259.5t66 -258.5t191 -178.5t295 -67h35zM793 1282v-1009h30q173 0 299.5 65t193.5 179.5t67 261.5q0 144 -66 257.5t-190.5 178.5t-293.5 67h-40z" />
    <glyph glyph-name="uni0554" unicode="&#x554;" horiz-adv-x="1573" 
d="M1454 259h-1133v-259h-54v259h-231v54h231v662q-2 32 -2 49v42q0 149 68.5 260t191.5 170.5t282 59.5t280.5 -59.5t188.5 -170.5t67 -260v-42q0 -149 -67 -260t-188.5 -170.5t-280.5 -59.5q-168 0 -295 66t-191 186v-473h1133v-54zM547 1450q-110 -52 -169 -149t-59 -228
v-34h2v-71q10 -115 72 -200.5t168 -132.5t246 -47q149 0 257.5 52.5t166 149t57.5 223.5v60q0 132 -57 228.5t-165.5 148.5t-258.5 52t-260 -52z" />
    <glyph glyph-name="uni0555" unicode="&#x555;" horiz-adv-x="1384" 
d="M1241 653q0 -199 -67.5 -351.5t-191.5 -236.5t-289 -84t-290 84.5t-192.5 236.5t-67.5 351v230q0 199 67.5 351.5t191.5 237t289 84.5t290 -84.5t192.5 -237t67.5 -351.5v-230zM1187 886q0 181 -59 320.5t-171.5 217.5t-265.5 78t-264.5 -78t-170 -217.5t-58.5 -320.5
v-233q0 -182 59 -322t171 -218t265 -78q154 0 265.5 78t170 218t58.5 322v233z" />
    <glyph glyph-name="uni0556" unicode="&#x556;" horiz-adv-x="1491" 
d="M1286.5 788q134.5 -113 134.5 -330v-35q0 -218 -157 -330.5t-490 -112.5q-351 0 -514.5 133t-163.5 393h54v-8q0 -144 67 -248t199 -160t323 -56h8v813h-109q-209 0 -322.5 74.5t-113.5 261.5q0 183 114 268t302 85h183v-635h108q243 0 377.5 -113zM747 901v581h-129
q-163 0 -262.5 -71.5t-99.5 -231.5q0 -109 48.5 -170t131.5 -84.5t202 -23.5h109zM1367 460q0 125 -56 212t-159 131t-243 44h-108v-813h8q272 0 415 101.5t143 294.5v30z" />
    <glyph glyph-name="uni0559" unicode="&#x559;" horiz-adv-x="340" 
d="M164 1667q0 -74 21 -130t68 -118l-37 -32q-103 109 -106 273v112h54v-105z" />
    <glyph glyph-name="uni055A" unicode="&#x55a;" horiz-adv-x="340" 
d="M230 1772v-112q-3 -164 -106 -273l-37 32q47 62 68 118t21 130v105h54z" />
    <glyph glyph-name="uni055B" unicode="&#x55b;" horiz-adv-x="121" 
d="M-189 1772l-239 -497h-47l232 497h54z" />
    <glyph glyph-name="uni055C" unicode="&#x55c;" horiz-adv-x="188" 
d="M-475 1311q0 100 43 173.5t132 101.5q76 24 100.5 76.5t24.5 123.5v9h53v-25q0 -60 -12.5 -100t-53.5 -75t-122 -65q-52 -19 -76.5 -66t-29.5 -94t-5 -107v-9h-54v57z" />
    <glyph glyph-name="uni055D" unicode="&#x55d;" horiz-adv-x="76" 
d="M76 1275h-47l-239 497h54z" />
    <glyph glyph-name="uni055E" unicode="&#x55e;" horiz-adv-x="458" 
d="M-27 1398q52 25 86.5 80t34.5 139q0 101 -55.5 169.5t-173.5 68.5q-286 0 -286 -317v-283h-54v296q0 186 93 272t247 86q94 0 158 -39t94.5 -105t30.5 -148q0 -85 -35 -153t-99 -106.5t-148 -38.5v54q55 0 107 25z" />
    <glyph glyph-name="uni055F" unicode="&#x55f;" horiz-adv-x="835" 
d="M230.5 1369.5q-86.5 41.5 -117 106t-30.5 149.5q0 127 72.5 206.5t242.5 79.5h88v-54h-31q-124 0 -194 -28t-97 -78.5t-27 -125.5q0 -114 76 -178.5t263 -64.5h339v-54h-339q-159 0 -245.5 41.5z" />
    <glyph glyph-name="uni0561" unicode="&#x561;" horiz-adv-x="1853" 
d="M1429.5 90.5q80.5 57.5 128.5 151.5q45 89 58 156v684h55v-1082h-55v255q-51 -122 -151 -198.5t-232 -76.5q-140 0 -225 62t-111 194q-31 -73 -88 -131t-136.5 -91.5t-173.5 -33.5q-168 0 -257 95.5t-90 301.5v705h54v-705q0 -190 76.5 -267t216.5 -77q120 0 205.5 54
t133.5 140q44 76 48 135v720h54v-725q0 -178 77.5 -251t218.5 -73q113 0 193.5 57.5z" />
    <glyph glyph-name="uni0562" unicode="&#x562;" horiz-adv-x="1125" 
d="M1013 0h-776v-416h-55v1498h55v-251q51 120 152.5 195.5t231.5 75.5q168 0 255.5 -95.5t88.5 -301.5v-325h-54v325q0 191 -76 267.5t-217 76.5q-111 0 -191.5 -55.5t-128.5 -146.5q-44 -83 -61 -154v-638h776v-55z" />
    <glyph glyph-name="uni0563" unicode="&#x563;" horiz-adv-x="1301" 
d="M1251 0h-289v-416h-55v584q-54 -86 -148.5 -137t-220.5 -51t-217.5 68.5t-140 193t-48.5 289.5v21q0 170 48.5 294t140.5 190t219 66q128 0 220.5 -56.5t146.5 -156.5v193h55v-1027h289v-55zM907 775q-38 113 -126.5 193t-241.5 80q-115 0 -194 -62.5t-118 -173
t-39 -255.5v-26q0 -147 38.5 -259t117 -175t193.5 -63q143 0 236 64t134 171v506z" />
    <glyph glyph-name="uni0564" unicode="&#x564;" horiz-adv-x="1303" 
d="M1253 0h-289v-416h-54v1121q-1 191 -77 267.5t-216 76.5q-111 0 -191.5 -55.5t-128.5 -146.5q-44 -83 -61 -154v-693h-54v1082h54v-251q51 120 152.5 195.5t231.5 75.5q168 0 255.5 -95.5t88.5 -301.5v-650h289v-55z" />
    <glyph glyph-name="uni0565" unicode="&#x565;" horiz-adv-x="1095" 
d="M206 1027v-639q1 -186 81 -270t219 -84q169 0 260 79t115 208v364h55v-685h-55v175q-50 -93 -143 -144t-230 -51q-168 0 -262 98t-94 312v1146h54v-454h777v-55h-777z" />
    <glyph glyph-name="uni0566" unicode="&#x566;" horiz-adv-x="1221" 
d="M1251 -361v-55h-344v584q-54 -86 -148.5 -137t-220.5 -51t-217.5 68.5t-140 193t-48.5 289.5v21q0 170 48.5 294t140.5 190t219 66q128 0 220.5 -56.5t146.5 -156.5v193h54v-1443h290zM907 775q-38 113 -126.5 193t-241.5 80q-115 0 -194 -62.5t-118 -173t-39 -255.5v-26
q0 -147 38.5 -259t117 -175t193.5 -63q143 0 236 64t134 171v506z" />
    <glyph glyph-name="uni0567" unicode="&#x567;" horiz-adv-x="1047" 
d="M237 1027v-974l227 1q126 1 197 -52.5t71 -169.5q0 -119 -71 -172.5t-201 -53.5v54q103 -1 160.5 38t57.5 130q0 88 -58 130t-160 42h-277v1027h-1v55h1v454h54v-454h698v-55h-698z" />
    <glyph glyph-name="uni0568" unicode="&#x568;" horiz-adv-x="1125" 
d="M1013 -361v-55h-831v1498h55v-251q51 120 152.5 195.5t231.5 75.5q168 0 255.5 -95.5t88.5 -301.5v-705h-54v705q0 191 -76 267.5t-217 76.5q-111 0 -191.5 -55.5t-128.5 -146.5q-44 -83 -61 -154v-1054h776z" />
    <glyph glyph-name="uni0569" unicode="&#x569;" horiz-adv-x="1573" 
d="M1461 656h-197v-300q0 -111 -43.5 -194t-129.5 -129t-208 -46q-127 0 -215 50t-132 134t-44 185q0 165 96.5 260.5t294.5 95.5h327q-3 170 -134 253.5t-359 83.5q-99 0 -184.5 -28.5t-146 -74.5t-89.5 -99q-43 -79 -61 -154v-1109h-54v1498h54v-251q33 77 103.5 138.5
t169 97t211.5 35.5q164 0 285 -44t189 -131.5t70 -214.5v-1h197v-55zM1208 656v2h-325q-172 0 -254.5 -83t-82.5 -219q0 -93 37 -164t113 -111t189 -40q168 0 246.5 87t78.5 228v300h-2z" />
    <glyph glyph-name="uni056A" unicode="&#x56a;" horiz-adv-x="1394" 
d="M1282 1027h-288v-507q0 -267 -112 -403.5t-331 -136.5q-138 0 -243.5 68.5t-163.5 191.5t-58 280v42q0 152 63 270t177.5 184t262.5 66h350v454h55v-454h288v-55zM589 1028q-137 0 -239 -64.5t-156 -171t-54 -230.5v-42q0 -132 48.5 -243t141.5 -177t221 -66
q199 0 293.5 126.5t94.5 359.5v507z" />
    <glyph glyph-name="uni056B" unicode="&#x56b;" horiz-adv-x="1116" 
d="M425.5 993.5q-80.5 -55.5 -128.5 -146.5q-44 -83 -61 -154v-1109h-54v1952h54v-705q51 120 152.5 195.5t231.5 75.5q168 0 255.5 -95.5t88.5 -301.5v-705h-54v705q-1 191 -77 267.5t-216 76.5q-111 0 -191.5 -55.5z" />
    <glyph glyph-name="uni056C" unicode="&#x56c;" horiz-adv-x="496" 
d="M526 -361v-55h-344v1498h55v-1443h289z" />
    <glyph glyph-name="uni056D" unicode="&#x56d;" horiz-adv-x="1743" 
d="M1555 1082v-1082h-55v175q-50 -93 -143 -144t-230 -51q-168 0 -262 98t-94 312v637h-534v-1443h-55v1952h55v-454h588v-694q1 -186 81 -270t219 -84q169 0 260 79t115 208v761h55z" />
    <glyph glyph-name="uni056E" unicode="&#x56e;" horiz-adv-x="1182" 
d="M1070 1028h-334q86 -60 147.5 -123t100.5 -153.5t39 -210.5v-21q0 -171 -56.5 -292.5t-160.5 -184.5t-245 -63q-140 0 -248 65t-167.5 187t-59.5 288v42q0 156 59.5 273.5t166 182t245.5 64.5q-98 68 -150 138.5t-52 170.5q0 40 2.5 72t5 50t3.5 23h54q-1 -3 -3.5 -18.5
t-5 -48t-2.5 -78.5q0 -68 32 -121t81.5 -93t132.5 -95h415v-54zM923 751.5q-46 89.5 -113 148.5t-173 128h-78q-128 0 -223 -62.5t-145.5 -169t-50.5 -234.5v-42q0 -140 50.5 -250.5t145.5 -173t225 -62.5q129 0 221 60.5t139.5 170.5t47.5 255v17q0 125 -46 214.5z" />
    <glyph glyph-name="uni056F" unicode="&#x56f;" horiz-adv-x="1118" 
d="M881 -416v591q-50 -93 -143 -144t-230 -51q-168 0 -261.5 98t-94.5 312v1146h54v-1148q1 -186 81 -270t219 -84q169 0 260 79t115 208v761h55v-1498h-55z" />
    <glyph glyph-name="uni0570" unicode="&#x570;" horiz-adv-x="1116" 
d="M425.5 993.5q-80.5 -55.5 -128.5 -146.5q-44 -83 -61 -154v-693h-54v1536h54v-705q51 120 152.5 195.5t231.5 75.5q168 0 255.5 -95.5t88.5 -301.5v-705h-54v705q-1 191 -77 267.5t-216 76.5q-111 0 -191.5 -55.5z" />
    <glyph glyph-name="uni0571" unicode="&#x571;" horiz-adv-x="1090" 
d="M739.5 953q97.5 -69 151 -181.5t53.5 -248.5v-523h-53v168q-52 -86 -148 -137t-212 -51q-153 0 -250 67.5t-140.5 181t-44.5 257.5v27q0 136 61.5 244.5t177.5 206.5t318 231l147 94l-338 4q-113 2 -185 47t-72 140v53h55q0 -79 23 -119t67 -53.5t119 -13.5h342
q27 0 41 -12.5t14 -33.5v-5q0 -19 -23.5 -39t-96.5 -68q-9 -6 -47 -31q-125 -83 -185 -127q128 -9 225.5 -78zM751.5 93.5q92.5 59.5 138.5 160.5l-1 269q-1 128 -53 234t-149 168.5t-227 62.5h-3q-110 -84 -176.5 -157t-98 -149.5t-31.5 -168.5v-23q-1 -124 38 -227.5
t124 -166t215 -62.5q131 0 223.5 59.5z" />
    <glyph glyph-name="uni0572" unicode="&#x572;" horiz-adv-x="1223" 
d="M1253 -361v-55h-343v1121q-1 191 -77 267.5t-216 76.5q-111 0 -191.5 -55.5t-128.5 -146.5q-44 -83 -61 -154v-693h-54v1082h54v-251q51 120 152.5 195.5t231.5 75.5q168 0 255.5 -95.5t88.5 -301.5v-1066h289z" />
    <glyph glyph-name="uni0573" unicode="&#x573;" horiz-adv-x="1239" 
d="M599 1391q-126 -112 -203 -309h190q195 0 308.5 -62t161 -178.5t47.5 -294.5v-547h-54v174q-50 -90 -145.5 -142t-239.5 -52q-129 0 -225.5 52t-149 156t-52.5 254q0 328 80 586h-231v54h249q80 222 221 348.5t342 126.5q134 0 222 -28l-6 -52q-116 26 -216 26
q-173 0 -299 -112zM377 1028q-43 -129 -64.5 -279t-21.5 -309q0 -134 46 -225t129.5 -136t197.5 -45q154 0 251 64t134 171v278q0 159 -41.5 264t-143.5 161t-278 56h-209z" />
    <glyph glyph-name="uni0574" unicode="&#x574;" horiz-adv-x="1134" 
d="M1224 1481h-288v-1481h-55v175q-50 -93 -143 -144t-230 -51q-168 0 -261.5 98t-94.5 312v692h54v-694q1 -186 81 -270t219 -84q169 0 260 79t115 208v1215h343v-55z" />
    <glyph glyph-name="uni0575" unicode="&#x575;" horiz-adv-x="491" 
d="M249 1082h54v-1211q0 -148 -75 -228t-210 -80q-47 0 -98 20l3 52q48 -18 95 -18q231 0 231 252v1213z" />
    <glyph glyph-name="uni0576" unicode="&#x576;" horiz-adv-x="1165" 
d="M983 1082v-1082h-55v175q-50 -93 -143 -144t-230 -51q-168 0 -261.5 98t-94.5 312v1091h-289v55h343v-1148q1 -186 81 -270t219 -84q169 0 260 79t115 208v761h55z" />
    <glyph glyph-name="uni0577" unicode="&#x577;" horiz-adv-x="1146" 
d="M273.5 -313.5q103.5 -48.5 280.5 -48.5h480v-54h-482q-130 0 -224.5 22t-153 84.5t-58.5 179.5q0 100 45 166.5t113.5 109t192.5 100.5l81 38l70 33q118 55 185 98t111.5 113t44.5 177q0 93 -43 171t-128 125t-205 47q-114 0 -200 -47.5t-131.5 -126t-45.5 -169.5v-33
h-54v33q0 103 52 194t150 147t229 56q137 0 234.5 -55.5t146.5 -146.5t49 -195q0 -118 -47.5 -195.5t-118 -124t-195.5 -106.5q-18 -9 -39.5 -19t-46.5 -23q-39 -20 -86 -42q-111 -54 -171.5 -92t-99.5 -94.5t-39 -138.5q0 -135 103.5 -183.5z" />
    <glyph glyph-name="uni0578" unicode="&#x578;" horiz-adv-x="1116" 
d="M425.5 993.5q-80.5 -55.5 -128.5 -146.5q-44 -83 -61 -154v-693h-54v1082h54v-251q51 120 152.5 195.5t231.5 75.5q168 0 255.5 -95.5t88.5 -301.5v-705h-54v705q-1 191 -77 267.5t-216 76.5q-111 0 -191.5 -55.5z" />
    <glyph glyph-name="uni0579" unicode="&#x579;" horiz-adv-x="946" 
d="M158 13q48 87 124.5 170t222.5 224q78 75 80 77q4 4 4 9t-4 9l-43 26q-81 48 -133.5 88t-90.5 102.5t-38 146.5q0 56 15.5 104t34.5 82t19 31h61q0 4 -21 -26.5t-38 -79t-17 -111.5q0 -71 34.5 -124.5t81 -88.5t119.5 -77q51 -30 66 -40q22 -15 22 -36q0 -19 -22 -43
l-107 -106q-131 -128 -202.5 -206t-116.5 -156t-45 -152q0 -57 27 -102t78.5 -70.5t121.5 -25.5h445v-54h-445q-72 0 -136.5 28.5t-104.5 85.5t-40 138q0 90 48 177z" />
    <glyph glyph-name="uni057A" unicode="&#x57a;" horiz-adv-x="1853" 
d="M1429.5 90.5q80.5 57.5 128.5 151.5q45 89 58 156v684h55v-1498h-55v671q-51 -122 -151 -198.5t-232 -76.5q-140 0 -225 62t-111 194q-31 -73 -88 -131t-136.5 -91.5t-173.5 -33.5q-168 0 -257 95.5t-90 301.5v705h54v-705q0 -190 76.5 -267t216.5 -77q120 0 205.5 54
t133.5 140q44 76 48 135v720h54v-725q0 -178 77.5 -251t218.5 -73q113 0 193.5 57.5z" />
    <glyph glyph-name="uni057B" unicode="&#x57b;" horiz-adv-x="1162" 
d="M163.5 -30q47.5 60 116 101.5t186.5 97.5q3 15 3 27q0 29 -14.5 53t-35.5 44t-62 52q-60 46 -99.5 86t-67.5 101.5t-28 145.5q0 125 51.5 221t148.5 149.5t229 53.5q133 0 229.5 -53.5t147.5 -149.5t51 -221q0 -131 -55 -222.5t-132 -147t-201 -121.5l-23 -12
q-30 -16 -80 -37q-101 -44 -173.5 -83.5t-128.5 -97.5t-56 -128q0 -98 79 -144.5t241 -46.5h580v-54h-633q-140 0 -230.5 56t-90.5 190q0 80 47.5 140zM241 555.5q25 -52.5 60 -88t93 -81.5q45 -36 71 -61t43.5 -56.5t17.5 -70.5v-1q18 8 54 26q120 60 194.5 108
t132.5 134.5t58 212.5q0 107 -42.5 190.5t-126.5 131.5t-205 48t-205 -48t-127 -131.5t-43 -190.5q0 -70 25 -122.5z" />
    <glyph glyph-name="uni057C" unicode="&#x57c;" horiz-adv-x="1129" 
d="M1017 54v-55h-433v55h-1q0 -11 91 87t163.5 243t72.5 321q0 191 -76 267.5t-217 76.5q-111 0 -191.5 -55.5t-128.5 -146.5q-44 -83 -61 -154v-693h-54v1082h54v-251q51 120 152.5 195.5t231.5 75.5q168 0 255.5 -95.5t88.5 -301.5q0 -176 -69 -321t-155.5 -243t-86.5 -87
h364z" />
    <glyph glyph-name="uni057D" unicode="&#x57d;" horiz-adv-x="1118" 
d="M881 0v175q-50 -93 -143 -144t-230 -51q-168 0 -261.5 98t-94.5 312v692h54v-694q1 -186 81 -270t219 -84q169 0 260 79t115 208v761h55v-1082h-55z" />
    <glyph glyph-name="uni057E" unicode="&#x57e;" horiz-adv-x="1195" 
d="M1225 -361v-55h-344v591q-50 -93 -143 -144t-230 -51q-168 0 -261.5 98t-94.5 312v692h54v-694q1 -186 81 -270t219 -84q169 0 260 79t115 208v1215h55v-1897h289z" />
    <glyph glyph-name="uni057F" unicode="&#x57f;" horiz-adv-x="1823" 
d="M1581 1006.5q89 -95.5 90 -301.5v-705h-54v705q0 190 -76.5 267t-216.5 77q-120 0 -205.5 -54t-133.5 -140q-20 -35 -31.5 -76.5t-14.5 -74.5v-704h-55v233q-54 -119 -152 -186t-233 -67q-168 0 -257 95.5t-90 301.5v705h54v-705q0 -190 76.5 -267t216.5 -77
q120 0 205.5 54t133.5 140q20 35 31.5 76.5t14.5 74.5v704h55v-233q54 119 152 186t233 67q168 0 257 -95.5z" />
    <glyph glyph-name="uni0580" unicode="&#x580;" horiz-adv-x="1116" 
d="M425.5 993.5q-80.5 -55.5 -128.5 -146.5q-44 -83 -61 -154v-1109h-54v1498h54v-251q51 120 152.5 195.5t231.5 75.5q168 0 255.5 -95.5t88.5 -301.5v-705h-54v705q-1 191 -77 267.5t-216 76.5q-111 0 -191.5 -55.5z" />
    <glyph glyph-name="uni0581" unicode="&#x581;" horiz-adv-x="1142" 
d="M348.5 -387.5q-88.5 48.5 -151.5 133.5l38 36q65 -83 140.5 -124t173.5 -41q173 0 264.5 106t91.5 292v157q-53 -88 -147 -140t-221 -52q-126 0 -217.5 68.5t-140 193t-48.5 289.5v21q0 170 48.5 294t140.5 190t219 66q128 0 220.5 -58t145.5 -159v197h55v-1067
q0 -138 -49 -239.5t-141.5 -156.5t-218.5 -55q-114 0 -202.5 48.5zM186 531q0 -147 39 -259t117.5 -175t193.5 -63q145 0 237.5 66t131.5 176v491q-37 119 -122.5 200t-244.5 81q-115 0 -194 -62.5t-118.5 -173t-39.5 -255.5v-26z" />
    <glyph glyph-name="uni0582" unicode="&#x582;" horiz-adv-x="514" 
d="M464 55v-55h-344v1082h55v-1027h289z" />
    <glyph glyph-name="uni0583" unicode="&#x583;" horiz-adv-x="1823" 
d="M1581 1006.5q89 -95.5 90 -301.5v-705h-54v705q0 190 -76.5 267t-216.5 77q-120 0 -205.5 -54t-133.5 -140q-20 -35 -31.5 -76.5t-14.5 -74.5v-1120h-55v649q-54 -119 -152 -186t-233 -67q-168 0 -257 95.5t-90 301.5v705h54v-705q0 -190 76.5 -267t216.5 -77
q120 0 205.5 54t133.5 140q20 35 31.5 76.5t14.5 74.5v1158h55v-687q54 119 152 186t233 67q168 0 257 -95.5z" />
    <glyph glyph-name="uni0584" unicode="&#x584;" horiz-adv-x="1235" 
d="M1123 -55h-818v-361h-54v361h-159v55h159v1082h54v-193q56 100 148 156.5t219 56.5q125 0 216.5 -51t141.5 -152t50 -248v-20q0 -148 -49.5 -249t-141 -151.5t-215.5 -50.5q-127 0 -221 51.5t-148 137.5v-369h818v-55zM305 469q41 -107 134 -171t236 -64q170 0 260 102
t90 295v21q0 192 -90.5 294t-261.5 102q-156 0 -243.5 -78.5t-124.5 -194.5v-306z" />
    <glyph glyph-name="uni0585" unicode="&#x585;" horiz-adv-x="1147" 
d="M100 562q0 157 60 280t167.5 191.5t245.5 68.5q140 0 247.5 -68.5t167 -191.5t59.5 -280v-42q0 -157 -59.5 -280t-166.5 -191.5t-246 -68.5t-247 68.5t-168 191.5t-60 280v42zM154 520q0 -131 51 -242.5t146.5 -177.5t223.5 -66q127 0 222 66t145.5 177.5t50.5 242.5v42
q0 129 -50.5 240t-146 178.5t-223.5 67.5q-127 0 -222.5 -67.5t-146 -178.5t-50.5 -240v-42z" />
    <glyph glyph-name="uni0586" unicode="&#x586;" horiz-adv-x="1473" 
d="M1263.5 791.5q161.5 -110.5 161.5 -328.5v-34q0 -218 -158.5 -331t-455.5 -118v-396h-54v396q-209 4 -355.5 70t-221 182.5t-74.5 273.5h54v-8q0 -145 72.5 -249.5t207 -159.5t317.5 -55v814q-182 0 -294.5 36t-165.5 111.5t-53 197.5t52 197.5t164 111t294 35.5h38v-1
h19v-634q291 0 452.5 -110.5zM345.5 1021.5q47.5 -63.5 147.5 -91.5t264 -28v581h-3q-163 0 -262 -28t-146.5 -91t-47.5 -171t47.5 -171.5zM1371 458q0 204 -147 297t-413 93v-814q265 0 412.5 95t147.5 299v30z" />
    <glyph glyph-name="uni0587" unicode="&#x587;" horiz-adv-x="1274" 
d="M1224 55v-55h-343v175q-50 -93 -143 -144t-230 -51q-168 0 -262 98t-94 312v1066h54v-1068q1 -186 81 -270t219 -84q169 0 260 79t115 208v761h55v-1027h288z" />
    <glyph glyph-name="uni0589" unicode="&#x589;" horiz-adv-x="384" 
d="M189 1067q56 0 56 -56q0 -55 -56 -55q-55 0 -55 55q0 56 55 56zM184 105q56 0 56 -56q0 -55 -56 -55q-55 0 -55 55q0 56 55 56z" />
    <glyph glyph-name="uni058A" unicode="&#x58a;" horiz-adv-x="858" 
d="M666 574q-115 -26 -240 -26q-225 0 -379 92l31 54q7 -2 16.5 -7t14.5 -8q69 -35 158.5 -52.5t186.5 -17.5q104 0 204 19.5t180 57.5v-54q-57 -32 -172 -58z" />
    <glyph glyph-name="uni058F" unicode="&#x58f;" horiz-adv-x="1549" 
d="M1165 680v-266h331v-54h-331v-360h-54v360h-331v54h331v266h-331v54h331v333q0 137 -57.5 235t-158 149t-227.5 51t-228 -51t-158.5 -149t-57.5 -235v-411h-54v411q0 159 64 269t176.5 165t257.5 55t257 -55t176 -165t64 -269v-333h331v-54h-331z" />
    <glyph glyph-name="endash" unicode="&#x2013;" horiz-adv-x="1324" 
d="M1157 775v-54h-1002v54h1002z" />
    <glyph glyph-name="emdash" unicode="&#x2014;" horiz-adv-x="1561" 
d="M1444 775v-54h-1336v54h1336z" />
    <glyph glyph-name="quoteleft" unicode="&#x2018;" horiz-adv-x="320" 
d="M101 1168v113q3 164 106 273l37 -32q-80 -103 -88 -215l-1 -139h-54z" />
    <glyph glyph-name="quoteright" unicode="&#x2019;" horiz-adv-x="320" 
d="M220 1536v-112q-3 -164 -106 -273l-37 32q47 62 68 118t21 130v105h54z" />
    <glyph glyph-name="quotesinglbase" unicode="&#x201a;" horiz-adv-x="300" 
d="M190 228v-137q-3 -164 -106 -273l-37 32q80 103 88 215l1 163h54z" />
    <glyph glyph-name="quotedblleft" unicode="&#x201c;" horiz-adv-x="500" 
d="M95 1168v113q3 164 106 273l37 -32q-80 -103 -88 -215l-1 -139h-54zM281 1168v113q3 164 106 273l37 -32q-80 -103 -88 -215l-1 -139h-54z" />
    <glyph glyph-name="quotedblright" unicode="&#x201d;" horiz-adv-x="502" 
d="M220 1536v-112q-3 -164 -106 -273l-37 32q47 62 68 118t21 130v105h54zM402 1536v-112q-3 -164 -106 -273l-37 32q47 62 68 118t21 130v105h54z" />
    <glyph glyph-name="quotedblbase" unicode="&#x201e;" horiz-adv-x="481" 
d="M190 228v-137q-3 -164 -106 -273l-37 32q80 103 88 215l1 163h54zM361 228v-137q-3 -164 -106 -273l-37 32q80 103 88 215l1 163h54z" />
    <glyph glyph-name="bullet" unicode="&#x2022;" horiz-adv-x="635" 
d="M155 733q0 70 45 115t121 45q77 0 122.5 -45t45.5 -115v-30q0 -69 -45.5 -113.5t-121.5 -44.5t-121.5 44.5t-45.5 113.5v30z" />
    <glyph glyph-name="ellipsis" unicode="&#x2026;" horiz-adv-x="1255" 
d="M240 105q56 0 56 -56q0 -55 -56 -55q-55 0 -55 55q0 56 55 56zM624 105q56 0 56 -56q0 -55 -56 -55q-55 0 -55 55q0 56 55 56zM993 105q56 0 56 -56q0 -55 -56 -55q-55 0 -55 55q0 56 55 56z" />
    <glyph glyph-name="guilsinglleft" unicode="&#x2039;" horiz-adv-x="604" 
d="M403 181l-295 370v19l295 370h70l-294 -380l294 -379h-70z" />
    <glyph glyph-name="guilsinglright" unicode="&#x203a;" horiz-adv-x="604" 
d="M176 940l294 -380v-19l-294 -370h-70l294 380l-294 389h70z" />
    <glyph glyph-name="fraction" unicode="&#x2044;" horiz-adv-x="905" 
d="M821 1269l-711 -1138l-45 31l711 1138z" />
    <glyph glyph-name="uni2074" unicode="&#x2074;" horiz-adv-x="728" 
d="M65 900l417 553h60v-536h147v-49h-147v-204h-53v204h-423zM135 917h354v474l-44 -71z" />
    <glyph glyph-name="Euro" unicode="&#x20ac;" 
d="M1032 10q-103 -31 -220 -31q-159 0 -280 63.5t-188 188.5t-67 303v50h-205v55h205v191h-205v56h205v47q2 174 69 296.5t186.5 184.5t277.5 62q98 0 222 -31v-58q-111 35 -222 35q-148 0 -255.5 -55.5t-165.5 -167t-58 -275.5v-38h455v-56h-455v-191h455v-55h-455v-50
q0 -161 59 -273.5t167 -170t255 -57.5q118 0 220 34v-57z" />
    <glyph glyph-name="minus" unicode="&#x2212;" horiz-adv-x="1167" 
d="M998 775v-54h-835v54h835z" />
    </font>
</defs>
</svg>
