<?xml version="1.0" standalone="no"?>
<!DOCTYPE svg PUBLIC "-//W3C//DTD SVG 1.1//EN" "http://www.w3.org/Graphics/SVG/1.1/DTD/svg11.dtd" >
<svg xmlns="http://www.w3.org/2000/svg" xmlns:xlink="http://www.w3.org/1999/xlink" version="1.1">
<metadata>
Created by FontForge 20170731 at Thu Jul 27 19:06:40 2017
 By Aleksey,,,
Copyright 2017 The Mardoto Project Authors (https://github.com/vahanhovh/mardoto)
</metadata>
<defs>
<font id="Mardoto-LightItalic" horiz-adv-x="1102" >
  <font-face 
    font-family="Mardoto Light"
    font-weight="300"
    font-style="italic"
    font-stretch="normal"
    units-per-em="2048"
    panose-1="0 0 4 0 0 0 0 0 0 0"
    ascent="1536"
    descent="-512"
    x-height="1082"
    cap-height="1456"
    bbox="-360 -555 3209 2146"
    underline-thickness="100"
    underline-position="-300"
    slope="-12"
    unicode-range="U+000D-2212"
  />
<missing-glyph horiz-adv-x="1351" 
d="M1107 -555h-856v2701h856v-2701zM454 1965v-89h175v-100h-178v-89h448v89h-178v100h178v89h-445zM451 1617v-281h448v92h-178v189h-270zM629 1428h-89v97h89v-97zM451 1263v-89h178v-100h-178v-89h270v189h178v89h-448zM810 1101v-179h-359v-91h448v270h-89zM629 771
v-151h92v62h89v-127h-270v216h-89v-305h448v305h-270zM451 304v-305h448v305h-448zM810 88h-270v127h270v-127zM451 -63v-90h189l-189 -126v-90h448v90h-275l189 126h86v90h-448z" />
    <glyph glyph-name="uni0535054E.liga" unicode="&#x535;&#x54e;" horiz-adv-x="2994" 
d="M2794 105l-17 -105h-435l84 534q-81 -84 -186 -131t-220 -47q-130 0 -232.5 45t-161.5 134t-59 217q0 41 8 94l21 131h-1230l-80 -507q-7 -41 -7 -82q0 -147 90.5 -225.5t244.5 -78.5q115 0 210 44t158 131t83 211l26 160h123l-26 -160q-25 -159 -107.5 -269.5
t-205 -165.5t-267.5 -55q-132 0 -234 44t-160 132.5t-58 215.5q0 44 8 98l96 608l1 4l72 454h122l-72 -454h1352l-37 -236q-7 -41 -7 -82q0 -147 90.5 -225.5t245.5 -78.5q107 0 200.5 49t159 138.5t90.5 206.5l108 682h123l-78 -490h1l-20 -121l-129 -820h312z" />
    <glyph glyph-name="uni05390545.liga" unicode="&#x539;&#x545;" horiz-adv-x="3274" 
d="M3071 926.5q-86 -91.5 -225 -138.5q127 -35 192 -109.5t65 -186.5q0 -34 -6 -72q-22 -137 -107 -236.5t-220 -151.5t-305 -52q-145 0 -258.5 45t-177 130.5t-63.5 201.5q0 35 6 71h123q-4 -23 -4 -49q0 -84 46.5 -151t133 -105.5t200.5 -38.5q141 0 249 41.5t173 116
t81 173.5q5 35 5 60q0 131 -103.5 194t-297.5 63h-1042l-50 -312q-32 -203 -149 -321.5t-341 -118.5q-122 0 -210 41t-135 117t-47 179q0 38 6 78l4 28q20 126 85.5 219.5t171 144t241.5 50.5h318l32 204q5 33 5 57q0 108 -64.5 188t-177 123t-252.5 43q-154 0 -289 -50
t-224 -143.5t-108 -217.5l-165 -1041h-123l165 1041q25 160 130.5 276.5t266.5 177.5t353 61q179 0 317.5 -51.5t216.5 -150t78 -234.5q0 -38 -6 -79l-32 -204h1049q203 0 316 80.5t135 218.5q4 24 4 52q0 78 -40 137.5t-122.5 93.5t-206.5 34q-108 0 -206 -40.5
t-163.5 -113.5t-80.5 -166h-123q20 128 103.5 224t208.5 148t268 52q150 0 259 -40t168 -118.5t59 -191.5q0 -36 -6 -75q-18 -114 -104 -205.5zM1413 732h-308q-105 0 -183 -43t-125.5 -117t-62.5 -167q-6 -36 -6 -68q0 -115 69 -184t205 -69q156 0 246.5 91t114.5 245z" />
    <glyph glyph-name="uni0544053E.liga" unicode="&#x544;&#x53e;" horiz-adv-x="3140" 
d="M3192 1196h-383q77 -62 117.5 -156t40.5 -213q0 -59 -10 -118l-22 -138q-28 -179 -116.5 -312.5t-225 -206t-307.5 -72.5q-150 0 -261.5 57.5t-172.5 164.5t-61 251q0 47 8 105l24 151q25 160 100.5 285t190.5 202h-60q-143 0 -233 62.5t-107 172.5h-374l-152 -961
q-25 -160 -106 -270t-202.5 -165t-269.5 -55q-130 0 -233 44.5t-162 133.5t-59 217q0 42 8 95l169 1066h123l-169 -1066q-7 -41 -7 -82q0 -147 90.5 -225.5t245.5 -78.5q114 0 209 44t158.5 131t82.5 211l169 1066h604q-3 -18 -3 -34q0 -58 31.5 -103.5t90.5 -71.5t138 -26
h1113zM2844 821q0 176 -97.5 274t-280.5 98q-136 0 -245.5 -59t-180.5 -168t-94 -257l-21 -137q-9 -58 -9 -110q0 -117 44.5 -201t129 -128.5t203.5 -44.5q140 0 249 58.5t178.5 167.5t93.5 258l21 137q9 59 9 112z" />
    <glyph glyph-name="uni05440546.liga" unicode="&#x544;&#x546;" horiz-adv-x="3159" 
d="M2988 880l-65 -410q-25 -160 -106 -270t-202.5 -165t-269.5 -55q-130 0 -233 44.5t-162 133.5t-59 217q0 42 8 95l143 899q-14 -1 -39 -1q-53 0 -94 6t-104 19q-84 18 -160 28t-192 10q-49 0 -86 -31.5t-44 -80.5l-135 -849q-25 -159 -108.5 -269.5t-207.5 -165.5
t-272 -55q-129 0 -229.5 44t-157.5 132.5t-57 215.5q0 42 8 98l169 1066h123l-169 -1066q-7 -41 -7 -82q0 -147 90.5 -225.5t245.5 -78.5q114 0 208.5 44t158 131t83.5 211l137 862q15 94 80.5 149t155.5 55q122 0 201 -8.5t179 -24.5q67 -12 117.5 -18t112.5 -6t135 7
l-3 -20l-159 -996q-7 -41 -7 -83q0 -147 90.5 -225t245.5 -78q114 0 209 44t158.5 131t82.5 211l65 410h122z" />
    <glyph glyph-name="uni05440576.liga" unicode="&#x544;&#x576;" horiz-adv-x="2757" 
d="M2665 1082l-171 -1082h-115l19 137q-67 -80 -154.5 -118.5t-204.5 -38.5q-145 0 -228 72.5t-83 226.5q0 49 9 106l156 983q-65 -3 -111.5 5t-110.5 25q-62 17 -108 25t-110 8q-49 0 -86 -31.5t-44 -80.5l-135 -849q-25 -159 -108.5 -269.5t-207.5 -165.5t-272 -55
q-129 0 -229.5 44t-157.5 132.5t-57 215.5q0 42 8 98l169 1066h123l-169 -1066q-7 -41 -7 -82q0 -147 90.5 -225.5t245.5 -78.5q114 0 208.5 44t158 131t83.5 211l137 862q15 94 80.5 149t155.5 55q69 0 119.5 -7t121.5 -22q68 -14 116 -21t112 -7q58 0 124 7l-6 -37
l-169 -1061q-8 -51 -8 -88q0 -114 57 -165t153 -51q136 0 225.5 57t136.5 156l124 785h120z" />
    <glyph glyph-name="uni0574056F.liga" unicode="&#x574;&#x56f;" horiz-adv-x="2398" 
d="M2284 1082l-237 -1498h-120l88 553q-66 -79 -153 -118t-204 -39q-145 0 -228 72.5t-83 226.5q0 49 9 106l155 980q-37 2 -67 9t-79 21q-46 14 -81 21.5t-75 7.5q-44 0 -77.5 -29t-40.5 -73l-209 -1322h-115l19 137q-133 -157 -369 -157q-143 0 -222 71t-79 223
q0 51 9 111l110 697h120l-110 -694q-8 -51 -8 -88q0 -114 57 -165t153 -51q136 0 225.5 57t136.5 156l164 1035q16 102 77 153t159 51q42 0 79.5 -7.5t85.5 -21.5q56 -16 93.5 -23.5t83.5 -7.5q47 0 100 10l-10 -57l-165 -1041q-8 -51 -8 -88q0 -114 57 -165t153 -51
q136 0 225.5 57t136.5 156l124 785h120z" />
    <glyph glyph-name="uni0578055B0582.liga" unicode="&#x578;&#x55b;&#x582;" horiz-adv-x="1671" 
d="M460.5 926q-93.5 -73 -150.5 -182l-118 -744h-120l171 1082h115l-25 -183q74 96 168.5 149.5t206.5 53.5q144 0 223 -69.5t79 -217.5q0 -48 -9 -105l-112 -710h-120l112 710q7 45 7 86q0 110 -55 156.5t-161 46.5q-118 0 -211.5 -73zM1351 1772l-361 -497h-97l311 497
h147zM1540 102l-16 -102h-393l16 102l155 980h119l-155 -980h274z" />
    <glyph glyph-name="uni0578055C0582.liga" unicode="&#x578;&#x55c;&#x582;" horiz-adv-x="1671" 
d="M826 1311q7 45 38 102t80.5 107t110.5 74q55 22 85 52t42 63t19 77l1 9h120l-4 -25q-13 -87 -67.5 -156.5t-162.5 -107.5q-82 -29 -114.5 -95t-45.5 -148l-1 -9h-110zM460.5 926q-93.5 -73 -150.5 -182l-118 -744h-120l171 1082h115l-25 -183q74 96 168.5 149.5
t206.5 53.5q144 0 223 -69.5t79 -217.5q0 -48 -9 -105l-112 -710h-120l112 710q7 45 7 86q0 110 -55 156.5t-161 46.5q-118 0 -211.5 -73zM1540 102l-16 -102h-393l16 102l155 980h119l-155 -980h274z" />
    <glyph glyph-name="uni0578055E0582.liga" unicode="&#x578;&#x55e;&#x582;" horiz-adv-x="1671" 
d="M1241.5 1457q67.5 50 84.5 160q2 10 2 30q0 44 -18.5 82.5t-58.5 62.5t-99 24q-112 0 -186 -63t-98 -215l-45 -283h-100l47 296q29 186 135.5 272t260.5 86q85 0 144.5 -31.5t89.5 -86t30 -123.5q0 -28 -4 -51q-22 -142 -115 -220t-237 -78l14 88q86 0 153.5 50z
M460.5 926q-93.5 -73 -150.5 -182l-118 -744h-120l171 1082h115l-25 -183q74 96 168.5 149.5t206.5 53.5q144 0 223 -69.5t79 -217.5q0 -48 -9 -105l-112 -710h-120l112 710q7 45 7 86q0 110 -55 156.5t-161 46.5q-118 0 -211.5 -73zM1540 102l-16 -102h-393l16 102l155 980
h119l-155 -980h274z" />
    <glyph glyph-name="uniFB13.liga" unicode="&#x574;&#x576;" horiz-adv-x="2430" 
d="M2338 1082l-171 -1082h-115l19 137q-67 -80 -154.5 -118.5t-204.5 -38.5q-145 0 -228 72.5t-83 226.5q0 49 9 106l155 980q-36 2 -66 8t-81 19q-59 16 -105 24t-104 8q-44 0 -77.5 -29t-40.5 -73l-209 -1322h-115l19 137q-133 -157 -369 -157q-143 0 -222 71t-79 223
q0 51 9 111l110 697h120l-110 -694q-8 -51 -8 -88q0 -114 57 -165t153 -51q136 0 225.5 57t136.5 156l164 1035q16 102 77 153t159 51q59 0 104 -8t114 -24q59 -15 96 -21.5t81 -6.5q47 0 100 10l-5 -32l-169 -1066q-8 -51 -8 -88q0 -114 57 -165t153 -51q136 0 225.5 57
t136.5 156l124 785h120z" />
    <glyph glyph-name="uniFB14.liga" unicode="&#x574;&#x565;" horiz-adv-x="2398" 
d="M1476 388q-8 -51 -8 -88q0 -114 57 -165t153 -51q136 0 225.5 57t136.5 156l61 385h120l-108 -682h-115l19 137q-67 -80 -154.5 -118.5t-204.5 -38.5q-145 0 -228 72.5t-83 226.5q0 49 9 106l155 980q-36 2 -66 9t-79 21q-47 14 -82 21.5t-75 7.5q-44 0 -77.5 -29
t-40.5 -73l-209 -1322h-115l19 137q-133 -157 -369 -157q-143 0 -222 71t-79 223q0 51 9 111l110 697h120l-110 -694q-8 -51 -8 -88q0 -114 57 -165t153 -51q136 0 225.5 57t136.5 156l164 1035q16 102 77 153t159 51q42 0 79.5 -7.5t85.5 -21.5q56 -16 93.5 -23.5
t83.5 -7.5q47 0 100 10l-19 -110l-46 -294h781l-16 -102h-781z" />
    <glyph glyph-name=".notdef" horiz-adv-x="1351" 
d="M1107 -555h-856v2701h856v-2701zM454 1965v-89h175v-100h-178v-89h448v89h-178v100h178v89h-445zM451 1617v-281h448v92h-178v189h-270zM629 1428h-89v97h89v-97zM451 1263v-89h178v-100h-178v-89h270v189h178v89h-448zM810 1101v-179h-359v-91h448v270h-89zM629 771
v-151h92v62h89v-127h-270v216h-89v-305h448v305h-270zM451 304v-305h448v305h-448zM810 88h-270v127h270v-127zM451 -63v-90h189l-189 -126v-90h448v90h-275l189 126h86v90h-448z" />
    <glyph glyph-name=".null" horiz-adv-x="0" 
 />
    <glyph glyph-name="nonmarkingreturn" unicode="&#xd;" horiz-adv-x="494" 
 />
    <glyph glyph-name="NULL" horiz-adv-x="0" 
 />
    <glyph glyph-name="NULL" horiz-adv-x="0" 
 />
    <glyph glyph-name="space" unicode=" " horiz-adv-x="494" 
 />
    <glyph glyph-name="exclam" unicode="!" horiz-adv-x="448" 
d="M433 1456l-190 -1050h-109l175 1050h124zM79.5 130q22.5 22 64.5 22q32 0 53.5 -21t21.5 -53q0 -35 -25.5 -61t-60.5 -27q-32 0 -54 21t-22 53q0 44 22.5 66z" />
    <glyph glyph-name="quotedbl" unicode="&#x22;" horiz-adv-x="571" 
d="M385 1536l-23 -145l-68 -308h-82l75 453h98zM613 1536l-23 -145l-67 -308h-82l75 453h97z" />
    <glyph glyph-name="numbersign" unicode="#" horiz-adv-x="1155" 
d="M549 0l147 410h-299l-146 -410h-103l147 410h-247l17 94h263l157 441h-270l17 95h286l149 416h103l-149 -416h299l149 416h102l-149 -416h221l-17 -95h-237l-158 -441h247l-17 -94h-263l-147 -410h-102zM430 504h299l157 441h-298z" />
    <glyph glyph-name="dollar" unicode="$" 
d="M886.5 169.5q-58.5 -83.5 -151.5 -130.5t-208 -58l-33 -189h-102l33 190q-110 11 -187 62.5t-116 134.5t-39 190q0 16 2 50h118q-2 -28 -2 -42q0 -87 33 -153t98 -103t158 -37q85 0 161 34t125.5 98t58.5 150q2 24 2 34q0 101 -69.5 162.5t-192.5 111.5
q-103 41 -176 89.5t-117 120.5t-44 171q0 22 1 33q9 113 65.5 197t147.5 132.5t203 58.5l35 201h102l-35 -204q150 -21 222 -125t72 -256q0 -32 -3 -64h-118q2 16 2 49q0 81 -26.5 147.5t-83 106.5t-142.5 40q-84 0 -154 -34.5t-114.5 -98t-53.5 -147.5q-2 -26 -2 -38
q0 -68 29 -115t86 -83t154 -75q158 -63 244 -149.5t86 -227.5q0 -22 -1 -34q-9 -116 -67.5 -199.5z" />
    <glyph glyph-name="percent" unicode="%" horiz-adv-x="1469" 
d="M202 1175q10 82 51 151.5t107.5 110.5t149.5 41q77 0 133.5 -37.5t86 -100t29.5 -136.5q0 -19 -1 -28l-7 -77q-10 -81 -51 -150t-107 -109.5t-148 -40.5q-77 0 -134 37t-87 99.5t-30 136.5q0 18 1 27zM292 1096q-1 -8 -1 -24q0 -79 39.5 -132.5t117.5 -53.5
q57 0 101 29.5t70 78t34 105.5l8 78q1 9 1 28q0 80 -38 133t-117 53q-57 0 -102 -30t-71.5 -79t-33.5 -105zM1226 1258l-880 -1136l-73 53l885 1131zM770 356q10 82 51 151t107.5 110t149.5 41q77 0 133.5 -37t86 -99.5t29.5 -136.5q0 -19 -1 -28l-7 -78q-10 -82 -50.5 -151
t-106.5 -109.5t-149 -40.5q-78 0 -135 37t-86.5 99.5t-29.5 136.5q0 19 1 28zM861 276q-1 -8 -1 -25q0 -79 37.5 -132t114.5 -54q59 -1 103.5 28.5t71 78.5t34.5 107l8 79q1 10 1 29q0 80 -38 132t-117 52q-58 0 -102.5 -29.5t-70.5 -78t-33 -105.5z" />
    <glyph glyph-name="ampersand" unicode="&#x26;" horiz-adv-x="1223" 
d="M964 0l-97 145q-98 -84 -201.5 -124.5t-203.5 -40.5q-84 0 -159.5 27.5t-132.5 75.5q-52 45 -78.5 107.5t-26.5 133.5q0 79 31.5 155.5t87.5 130.5q107 103 218 175l19 13q-52 88 -80.5 160t-28.5 148q0 21 1 31q8 98 55 175.5t125 121.5t176 44q78 0 141.5 -32
t100.5 -90.5t37 -134.5q0 -102 -63.5 -184t-164.5 -152l-151 -105l312 -462q110 145 142 334h108q-32 -251 -187 -421l153 -231h-133zM429 1109q0 -60 22.5 -119t61.5 -127l144 98q75 54 122 110t54 129q1 6 1 17q0 71 -47.5 115t-121.5 44q-64 0 -114.5 -32t-81 -85.5
t-38.5 -116.5q-2 -22 -2 -33zM186 324q0 -75 37.5 -129.5t102.5 -83.5t144 -29q164 0 335 148l-316 471l-10 16l-51 -37q-97 -71 -162.5 -148.5t-76.5 -168.5q-3 -21 -3 -39z" />
    <glyph glyph-name="quotesingle" unicode="'" horiz-adv-x="339" 
d="M368 1536l-23 -146l-64 -299h-90l76 445h101z" />
    <glyph glyph-name="parenleft" unicode="(" horiz-adv-x="634" 
d="M754 1551q-156 -106 -265 -282t-177 -422q-67 -238 -78 -478l-3 -126q-1 -204 51 -371.5t168 -263.5l-34 -77q-141 103 -213.5 280.5t-82.5 393.5q-3 62 -3 119q0 171 29.5 328.5t90.5 330.5q76 215 199.5 386.5t297.5 264.5z" />
    <glyph glyph-name="parenright" unicode=")" horiz-adv-x="648" 
d="M495 578q-32 -207 -105 -410t-188 -367q-122 -173 -305 -272l-21 78q154 104 260 274.5t175 404.5q67 226 83 444l6 102q1 23 1 68q0 228 -56 397.5t-164 257.5l34 77q139 -103 211 -280t84 -393q3 -64 3 -124q0 -130 -15 -241z" />
    <glyph glyph-name="asterisk" unicode="*" horiz-adv-x="843" 
d="M155 705l263 299l-305 107l48 97l302 -123l61 371h105l-73 -368l334 125l15 -107l-345 -114l167 -297l-90 -59l-154 305l-250 -302z" />
    <glyph glyph-name="plus" unicode="+" horiz-adv-x="1121" 
d="M1048 628h-430l-84 -482h-120l85 482h-422l20 113h421l81 465h119l-81 -465h431z" />
    <glyph glyph-name="comma" unicode="," horiz-adv-x="381" 
d="M195 189l-23 -139q-32 -194 -188 -324l-67 55q112 128 136 264l25 144h117z" />
    <glyph glyph-name="hyphen" unicode="-" horiz-adv-x="568" 
d="M529 694l-18 -102h-467l18 102h467z" />
    <glyph glyph-name="period" unicode="." horiz-adv-x="474" 
d="M74.5 130q25.5 27 63.5 27q34 0 56 -22.5t22 -55.5q0 -37 -27 -63t-65 -26q-32 0 -53.5 21.5t-21.5 53.5q0 38 25.5 65z" />
    <glyph glyph-name="slash" unicode="/" horiz-adv-x="790" 
d="M878 1456l-865 -1581h-114l865 1581h114z" />
    <glyph glyph-name="zero" unicode="0" 
d="M989 609q-26 -168 -85 -309t-159 -229q-50 -44 -122 -67.5t-148 -23.5q-84 0 -155 27t-110 78q-52 68 -76.5 163.5t-24.5 204.5q0 80 13 168l35 232q24 164 84.5 305.5t162.5 229.5q51 44 122.5 67t147.5 23q83 0 154 -27t110 -77q100 -128 100 -364q0 -77 -11 -157z
M912 869q11 88 11 157q0 165 -56 259q-27 44 -81 68t-118 24q-57 0 -110.5 -19t-90.5 -54q-76 -72 -121.5 -186t-66.5 -249l-43 -276q-10 -77 -10 -152q0 -171 57 -267q26 -45 79.5 -69t117.5 -24q57 0 110 18.5t90 54.5q77 73 122.5 188t68.5 263z" />
    <glyph glyph-name="one" unicode="1" 
d="M820 1462l-249 -1462h-120l228 1308l-410 -146l21 118l508 182h22z" />
    <glyph glyph-name="two" unicode="2" 
d="M942 102l-17 -102h-888l15 98l544 536l33 33q79 80 130 138.5t92 130t50 146.5q3 23 3 45q0 73 -31 129t-89.5 87.5t-137.5 31.5q-96 0 -172 -44.5t-123.5 -121t-63.5 -172.5l-116 -1q15 126 80.5 226.5t169.5 157.5t231 57q109 0 193 -41t131.5 -118t47.5 -181
q0 -14 -2 -44q-9 -98 -62.5 -191t-119 -166t-169.5 -175l-469 -459h740z" />
    <glyph glyph-name="three" unicode="3" 
d="M404 691l16 103l113 -1q94 1 177 33.5t137.5 98.5t64.5 159q2 28 2 40q0 116 -68.5 183.5t-192.5 67.5q-90 0 -163 -38t-120.5 -106t-62.5 -156l-115 -1q14 118 79 210t166.5 142.5t221.5 50.5q111 0 196 -44t131.5 -124.5t46.5 -187.5q0 -13 -2 -41q-11 -119 -92 -204.5
t-202 -132.5q103 -36 158 -117t55 -189q0 -22 -1 -33q-10 -126 -75.5 -222.5t-170.5 -149t-231 -52.5q-117 0 -210 47t-146 133t-53 199q0 24 1 36h118q-1 -11 -1 -33q0 -84 37 -147.5t104 -98t156 -34.5q95 0 172 39t124.5 111t56.5 168q1 11 1 33q0 125 -81.5 189
t-217.5 68z" />
    <glyph glyph-name="four" unicode="4" 
d="M36 437l825 1019h134l-171 -986h220l-18 -102h-219l-65 -368h-119l64 368h-660zM190 470h515l143 819l-62 -83z" />
    <glyph glyph-name="five" unicode="5" 
d="M232 750l180 706h710l-18 -111h-605l-133 -492q56 38 127 59.5t142 21.5q90 0 166 -35.5t121 -107.5q36 -59 55 -129t19 -146q0 -106 -37 -209.5t-108 -186.5q-61 -71 -147 -106.5t-180 -35.5q-89 0 -168 31t-127 87q-98 112 -100 288h113q2 -138 72.5 -220.5
t207.5 -82.5q106 0 182 53.5t118 141.5t52 194q2 32 2 47q0 83 -29 152t-88.5 111t-146.5 44q-149 4 -284 -103z" />
    <glyph glyph-name="six" unicode="6" 
d="M908 235.5q-62 -116.5 -164 -186.5q-49 -34 -110 -51.5t-125 -17.5q-70 0 -135 21.5t-111 61.5q-76 67 -115 165.5t-39 211.5q0 42 4 75l17 128q34 231 132 416t259 295q167 113 409 114h22l-11 -104h-23q-256 -2 -416.5 -159.5t-235.5 -422.5q149 174 363 174
q129 0 213.5 -66.5t119.5 -180.5q23 -80 23 -162q0 -30 -3 -62q-12 -133 -74 -249.5zM232 512q-3 -31 -3 -65q0 -86 24 -163.5t74 -131.5q31 -35 79.5 -53t102.5 -18q49 0 96 14.5t83 43.5q75 58 120.5 150t55.5 191q3 29 3 59q0 84 -27 155.5t-85.5 115.5t-147.5 44
q-71 0 -148 -31t-136 -86.5t-78 -123.5z" />
    <glyph glyph-name="seven" unicode="7" 
d="M1135 1456l-7 -67l-818 -1389h-129l811 1354h-801l16 102h928z" />
    <glyph glyph-name="eight" unicode="8" 
d="M883.5 173q-69.5 -94 -178.5 -143.5t-236 -49.5q-115 0 -208 42.5t-146 124t-53 192.5q0 13 2 39q12 135 101.5 230t225.5 144q-82 43 -125.5 120t-43.5 170q0 20 1 31q10 122 74.5 215t167 142t224.5 46q106 -2 188 -45.5t128 -121t46 -179.5q0 -13 -2 -39
q-11 -122 -88.5 -209t-200.5 -138q97 -45 151 -129t54 -189q0 -21 -1 -31q-11 -128 -80.5 -222zM932 1122q0 72 -32.5 129.5t-91.5 90.5t-134 33q-87 0 -160 -38.5t-119 -107.5t-55 -156q-2 -22 -2 -32q0 -72 32.5 -127.5t90.5 -86t134 -30.5q85 0 159 37.5t121 104.5
t55 152q2 22 2 31zM848 427q0 80 -37.5 141t-103.5 95t-149 34q-94 0 -176 -40t-135 -113t-63 -167q-2 -26 -2 -38q0 -79 37 -137.5t102.5 -89.5t149.5 -31q96 0 177.5 38t134.5 109t63 167q2 22 2 32z" />
    <glyph glyph-name="nine" unicode="9" 
d="M198 -12l12 104h31q265 2 415.5 154.5t218.5 427.5q-74 -91 -168 -144t-201 -53q-128 0 -211.5 70t-118.5 188q-24 80 -24 167q0 158 78 308q64 123 168.5 195t240.5 72q158 0 249 -84.5t121 -228.5q16 -81 16 -167q0 -51 -6 -102l-13 -101q-30 -233 -123 -413.5
t-249 -283.5q-162 -108 -401 -109h-35zM270 907q0 -77 22 -146t67 -117q28 -31 73.5 -47.5t98.5 -16.5q54 0 109.5 18t103.5 55q102 78 154 186l7 70q4 52 4 82q0 89 -19.5 168.5t-62.5 135.5q-30 39 -79.5 59t-107.5 20q-51 0 -99 -15t-85 -44q-77 -61 -124 -155t-59 -197
q-3 -27 -3 -56z" />
    <glyph glyph-name="colon" unicode=":" horiz-adv-x="427" 
d="M217.5 1053q25.5 27 63.5 27q34 0 56 -22.5t22 -55.5q0 -37 -27 -63t-65 -26q-32 0 -53.5 21.5t-21.5 53.5q0 38 25.5 65zM56.5 130q25.5 27 63.5 27q34 0 56 -22.5t22 -55.5q0 -37 -27 -63t-65 -26q-32 0 -53.5 21.5t-21.5 53.5q0 38 25.5 65z" />
    <glyph glyph-name="semicolon" unicode=";" horiz-adv-x="397" 
d="M207.5 1053q25.5 27 63.5 27q34 0 56 -22.5t22 -55.5q0 -37 -27 -63t-65 -26q-32 0 -53.5 21.5t-21.5 53.5q0 38 25.5 65zM195 189l-23 -139q-32 -194 -188 -324l-67 55q112 128 136 264l25 144h117z" />
    <glyph glyph-name="less" unicode="&#x3c;" horiz-adv-x="1016" 
d="M819 230l-741 379l15 99l871 379l-23 -132l-728 -302l624 -300z" />
    <glyph glyph-name="equal" unicode="=" horiz-adv-x="1099" 
d="M1015 935l-19 -106h-812l19 106h812zM943 524l-19 -106h-812l19 106h812z" />
    <glyph glyph-name="greater" unicode="&#x3e;" horiz-adv-x="1030" 
d="M200 1086l757 -378l-15 -100l-888 -380l24 131l743 304l-640 302z" />
    <glyph glyph-name="question" unicode="?" horiz-adv-x="902" 
d="M449 405l-115 -1q17 116 66.5 197.5t144.5 164.5q77 66 121.5 111.5t76.5 103.5t40 130q2 14 2 42q0 98 -52.5 158.5t-154.5 60.5q-114 0 -190.5 -70t-100.5 -185l-116 -1q15 107 71.5 188.5t145 127t196.5 45.5q100 0 173 -41t111.5 -114t38.5 -168q0 -15 -2 -43
q-9 -88 -49 -162.5t-100.5 -136.5t-146.5 -130q-114 -91 -151 -236zM341 152q33 0 55 -21t22 -54q0 -36 -26 -61.5t-62 -25.5q-32 0 -53 20.5t-21 52.5q0 87 85 89z" />
    <glyph glyph-name="at" unicode="@" horiz-adv-x="1815" 
d="M1062 -366q-69 -41 -163 -64t-195 -23q-122 0 -232 34.5t-185 104.5q-107 100 -160 246t-53 319q0 106 20 221q45 252 180 469t339 349q100 65 221.5 98t245.5 33q126 0 235.5 -34t181.5 -98q107 -96 159 -237t52 -313q0 -106 -20 -221q-23 -131 -79 -253.5t-144 -202.5
q-47 -42 -102.5 -62.5t-112.5 -20.5q-51 0 -94.5 14.5t-70.5 40.5q-57 53 -61 141q-64 -89 -139.5 -142.5t-168.5 -53.5q-113 0 -163 76t-50 198q0 157 49.5 303t129.5 249q75 97 154 141t177 44q78 0 139 -27.5t124 -82.5l-137 -571q-8 -43 -8 -86q0 -71 26 -115
q28 -43 102 -43q99 0 168.5 70t111.5 186q76 212 76 419q0 89 -13 170q-32 195 -162.5 306t-370.5 111q-227 0 -409.5 -119.5t-306.5 -324.5q-90 -150 -134 -309t-44 -315q0 -87 14 -174q34 -206 162.5 -327t356.5 -121q171 0 330 78zM609 286q-1 -10 -1 -31
q0 -80 33 -129.5t108 -49.5q65 0 124 37t102 95.5t64 121.5l130 520q-29 24 -70.5 37.5t-87.5 13.5q-52 0 -101.5 -19.5t-91.5 -60.5q-80 -80 -135 -213.5t-69 -260.5z" />
    <glyph glyph-name="A" unicode="A" horiz-adv-x="1242" 
d="M-79 0l786 1456h117l281 -1456h-121l-75 408h-639l-217 -408h-132zM325 513h565l-145 791z" />
    <glyph glyph-name="B" unicode="B" horiz-adv-x="1217" 
d="M995 191q-70 -94 -181 -142t-242 -49h-498l253 1456l410 -1q181 -4 293.5 -85t112.5 -244q0 -14 -2 -42q-11 -120 -85 -202t-193 -126q101 -31 157 -115t56 -192q0 -21 -1 -31q-10 -133 -80 -227zM431 1351l-95 -547l302 -1q97 1 179.5 30.5t136.5 93t64 160.5q2 26 2 37
q0 115 -77 169t-207 57zM955 456q0 112 -72 176t-193 68l-372 1l-104 -597l350 -1q100 0 184.5 36t139 106.5t65.5 170.5q2 14 2 40z" />
    <glyph glyph-name="C" unicode="C" horiz-adv-x="1290" 
d="M1149 454q-32 -144 -110 -251t-195.5 -165t-264.5 -58q-179 0 -286.5 96t-144.5 258q-21 93 -21 188q0 60 7 115l28 182q28 176 110.5 326t212.5 241q62 44 143.5 67.5t167.5 23.5q102 0 191.5 -34.5t148.5 -101.5q113 -133 112 -341l-121 1q-1 171 -84 271t-253 100
q-144 0 -250 -77.5t-171 -211.5q-64 -128 -85 -268l-27 -179q-9 -58 -9 -120q0 -99 25 -186.5t77 -151.5q36 -45 103 -69.5t145 -24.5q76 0 147.5 24t123.5 72q113 101 162 273z" />
    <glyph glyph-name="D" unicode="D" horiz-adv-x="1302" 
d="M74 0l253 1456l388 -1q179 -4 299 -95t170 -245q33 -102 33 -215q0 -55 -7 -105l-18 -122q-30 -198 -128.5 -350t-248.5 -236.5t-331 -86.5h-410zM431 1351l-217 -1247l259 -1q159 0 284.5 72.5t205 198t105.5 281.5l21 143q7 48 7 102q0 112 -35 206.5t-106 158.5
q-88 80 -243 85z" />
    <glyph glyph-name="E" unicode="E" horiz-adv-x="1130" 
d="M74 0l253 1456h876l-19 -105h-753l-96 -548h661l-19 -105h-659l-104 -594h759l-18 -104h-881z" />
    <glyph glyph-name="F" unicode="F" horiz-adv-x="1117" 
d="M73 0l253 1456h878l-19 -105h-755l-98 -565h658l-19 -106h-657l-119 -680h-122z" />
    <glyph glyph-name="G" unicode="G" horiz-adv-x="1359" 
d="M1215 692l-84 -518q-82 -105 -224.5 -151t-297.5 -43q-177 3 -288.5 98t-153.5 254q-26 95 -26 202q0 59 7 111l28 177q27 178 110.5 327.5t215.5 238.5q64 43 144.5 65.5t165.5 22.5q98 0 185.5 -30t149.5 -88q121 -114 127 -313h-120q-7 155 -96.5 240.5t-247.5 85.5
q-145 0 -252 -75.5t-173 -207.5q-64 -127 -87 -270l-27 -174q-8 -58 -8 -110q0 -107 29.5 -200.5t90.5 -158.5q84 -91 249 -91q88 0 192 27q106 27 185 100l66 376h-379l18 105h501z" />
    <glyph glyph-name="H" unicode="H" horiz-adv-x="1406" 
d="M999 0l122 698h-804l-122 -698h-122l253 1456h122l-114 -653h805l113 653h123l-254 -1456h-122z" />
    <glyph glyph-name="I" unicode="I" horiz-adv-x="530" 
d="M475 1456l-253 -1456h-122l253 1456h122z" />
    <glyph glyph-name="J" unicode="J" horiz-adv-x="1094" 
d="M950 1456h122l-175 -1022q-18 -131 -82 -234t-167 -162t-234 -59q-121 0 -207 45t-130.5 127.5t-44.5 194.5q0 28 3 56h122q-2 -17 -2 -48q0 -125 65.5 -198t196.5 -73q98 0 174 47t123 126.5t61 176.5z" />
    <glyph glyph-name="K" unicode="K" horiz-adv-x="1253" 
d="M973 0l-451 721l-237 -204l-90 -517h-122l253 1456h122l-135 -774l237 213l613 561h163l-711 -653l495 -803h-137z" />
    <glyph glyph-name="L" unicode="L" horiz-adv-x="1048" 
d="M912 104l-18 -104h-820l253 1456h123l-235 -1352h697z" />
    <glyph glyph-name="M" unicode="M" horiz-adv-x="1719" 
d="M781 175l743 1281h165l-253 -1456h-122l111 640l120 631l-742 -1271h-94l-302 1280l-102 -646l-110 -634h-122l253 1456h157z" />
    <glyph glyph-name="N" unicode="N" horiz-adv-x="1411" 
d="M1380 1456l-252 -1456h-119l-596 1248l-217 -1248h-123l253 1456h118l597 -1248l217 1248h122z" />
    <glyph glyph-name="O" unicode="O" horiz-adv-x="1345" 
d="M1234 651q-28 -180 -111.5 -333t-216.5 -246q-64 -45 -145.5 -68.5t-166.5 -23.5q-91 0 -171.5 27t-134.5 78q-82 78 -123 194.5t-41 249.5q0 68 8 121l23 156q28 178 112.5 331.5t217.5 246.5q64 45 146 68.5t167 23.5q91 0 171 -26.5t133 -77.5q82 -78 122.5 -193.5
t40.5 -249.5q0 -68 -8 -123zM1137 809q9 60 9 123q0 103 -26.5 192.5t-82.5 152.5q-40 45 -105.5 68.5t-141.5 23.5q-68 0 -134.5 -20t-117.5 -58q-106 -79 -172 -207.5t-88 -275.5l-24 -159q-8 -62 -8 -118q0 -104 26.5 -195t82.5 -156q39 -45 104.5 -68.5t141.5 -23.5
q69 0 135 19.5t116 57.5q105 77 170 203.5t90 275.5z" />
    <glyph glyph-name="P" unicode="P" horiz-adv-x="1223" 
d="M298 593l-103 -593h-122l253 1456l474 -1q121 -4 214 -49t145 -129t52 -200q0 -16 -2 -48q-14 -143 -88.5 -241.5t-192.5 -147t-262 -48.5zM430 1351l-114 -653l356 -1q108 0 197 37.5t147 112t71 181.5q3 24 3 48q0 125 -79 197.5t-214 76.5z" />
    <glyph glyph-name="Q" unicode="Q" horiz-adv-x="1345" 
d="M1067 -183l-91 -72l-242 257q-81 -21 -154 -21q-181 0 -290 96.5t-148 261.5q-24 98 -24 196q0 54 8 115l23 156q28 178 112.5 331.5t217.5 246.5q64 45 146 68.5t167 23.5q91 0 171.5 -26.5t133.5 -77.5q83 -79 123.5 -195t40.5 -251q0 -56 -8 -120l-24 -156
q-31 -200 -123.5 -355.5t-254.5 -243.5zM1131 810q9 62 9 123q0 103 -26.5 192.5t-81.5 152.5q-39 44 -104.5 67.5t-140.5 23.5q-68 0 -134.5 -19.5t-117.5 -57.5q-105 -78 -170.5 -204.5t-90.5 -273.5l-25 -165q-8 -62 -8 -118q0 -104 26.5 -195t82.5 -156
q39 -45 104.5 -68.5t141.5 -23.5q69 0 135 19.5t116 57.5q104 77 169 203.5t90 275.5z" />
    <glyph glyph-name="R" unicode="R" horiz-adv-x="1262" 
d="M945 0l-234 607h-412l-106 -607h-122l253 1456l452 -1q122 -4 215.5 -47.5t146.5 -126t53 -198.5q0 -31 -2 -48q-14 -151 -111.5 -256t-247.5 -149l247 -616l-1 -14h-131zM428 1351l-111 -640l360 -1q99 1 184 40.5t140 113t67 172.5q3 24 3 46q0 125 -80 194.5
t-215 73.5z" />
    <glyph glyph-name="S" unicode="S" horiz-adv-x="1177" 
d="M938 408q0 56 -24 98t-78 81q-64 46 -215 96t-241 106.5t-130 127.5q-16 28 -24.5 65.5t-8.5 78.5q0 68 23.5 133.5t70.5 115.5q76 81 188.5 123.5t233.5 42.5q123 0 222 -48.5t156.5 -137.5t57.5 -207q0 -14 -2 -42h-122q2 28 2 41q0 89 -39.5 154t-112 100t-167.5 35
q-91 0 -175.5 -30t-142.5 -92t-69 -153q-3 -19 -3 -36q0 -54 25.5 -95t81.5 -80q67 -45 201 -88q144 -47 235 -102t138 -131q41 -65 41 -163q0 -71 -24 -138.5t-72 -117.5q-79 -82 -194 -123.5t-240 -41.5q-130 0 -239 46t-174 135.5t-65 214.5q0 12 2 40h123q-2 -26 -2 -38
q0 -95 47 -161.5t128 -100t181 -33.5q95 0 183 30.5t148.5 94.5t72.5 158q3 23 3 42z" />
    <glyph glyph-name="T" unicode="T" horiz-adv-x="1186" 
d="M179 1351l19 105h1089l-19 -105h-483l-235 -1351h-121l235 1351h-485z" />
    <glyph glyph-name="U" unicode="U" horiz-adv-x="1307" 
d="M1180 1456h122l-169 -984q-22 -147 -98.5 -258.5t-196.5 -173t-269 -61.5q-133 0 -232 52.5t-152 147t-53 218.5q0 31 5 73l169 986h121l-168 -987q-4 -42 -4 -61q0 -96 37.5 -169t110.5 -114t177 -41q112 0 202.5 46.5t149 131.5t77.5 196z" />
    <glyph glyph-name="V" unicode="V" horiz-adv-x="1226" 
d="M1333 1456l-754 -1456h-117l-297 1456h128l242 -1275l3 -31l13 31l645 1275h137z" />
    <glyph glyph-name="W" unicode="W" horiz-adv-x="1781" 
d="M1867 1456l-589 -1456h-117l-144 1144l-11 134l-58 -142l-503 -1136h-117l-135 1456h122l93 -1067l8 -215l87 214l472 1068h110l135 -1075l17 -209l82 226l420 1058h128z" />
    <glyph glyph-name="X" unicode="X" horiz-adv-x="1216" 
d="M342 1456l300 -614l492 614h153l-585 -723l364 -733h-137l-311 634l-512 -634h-151l602 745l-353 711h138z" />
    <glyph glyph-name="Y" unicode="Y" horiz-adv-x="1190" 
d="M311 1456l289 -792l568 792h149l-673 -913l-94 -543h-122l97 556l-351 900h137z" />
    <glyph glyph-name="Z" unicode="Z" horiz-adv-x="1188" 
d="M242 1352l19 104h962l-16 -94l-1055 -1258h868l-19 -104h-1019l17 99l1053 1253h-810z" />
    <glyph glyph-name="bracketleft" unicode="[" horiz-adv-x="476" 
d="M647 1664l-16 -102h-204l-276 -1772h204l-17 -102h-323l309 1976h323z" />
    <glyph glyph-name="backslash" unicode="\" horiz-adv-x="783" 
d="M512 -125l-315 1581h110l316 -1581h-111z" />
    <glyph glyph-name="bracketright" unicode="]" horiz-adv-x="476" 
d="M150 1562l16 102h323l-309 -1976h-323l16 102h204l277 1772h-204z" />
    <glyph glyph-name="asciicircum" unicode="^" horiz-adv-x="827" 
d="M98 730l409 725l92 1l163 -727h-109l-121 566l-320 -565h-114z" />
    <glyph glyph-name="underscore" unicode="_" horiz-adv-x="858" 
d="M754 0l-19 -102h-857l18 102h858z" />
    <glyph glyph-name="grave" unicode="`" horiz-adv-x="567" 
d="M384 1536l142 -279h-100l-177 279h135z" />
    <glyph glyph-name="a" unicode="a" horiz-adv-x="1065" 
d="M716 0q-4 23 -4 51q0 17 1 25l8 75q-75 -82 -169 -126.5t-200 -44.5q-86 0 -156.5 34t-112 97t-41.5 147l1 21q9 127 89.5 206t209.5 114q120 32 232 32l220 -1l18 123q2 26 2 37q0 100 -62.5 156.5t-171.5 56.5q-71 0 -136 -25.5t-111 -75t-61 -118.5h-117
q13 99 78.5 171.5t160.5 110t195 37.5q101 0 179 -36.5t121.5 -106t43.5 -165.5q0 -30 -2 -45l-90 -543l-8 -87q-1 -9 -1 -28q0 -40 9 -79l-2 -13h-123zM580.5 142q95.5 57 157.5 156l41 240l-191 1q-94 0 -186 -22.5t-157 -72.5q-39 -30 -60.5 -77.5t-21.5 -97.5
q0 -38 13 -71t38 -56q62 -57 158 -57q113 0 208.5 57z" />
    <glyph glyph-name="b" unicode="b" horiz-adv-x="1101" 
d="M323 21.5q-84 42.5 -132 128.5l-35 -150h-112l267 1536h119l-113 -610q71 91 160.5 134t180.5 43q73 0 134.5 -25.5t96.5 -66.5q55 -66 80 -159t25 -198q0 -60 -5 -101q-47 -339 -236 -494q-98 -80 -242 -80q-104 0 -188 42.5zM436.5 940q-82.5 -59 -139.5 -162l-82 -491
q33 -107 107 -156.5t165 -49.5q58 0 112.5 19t88.5 49q74 65 117.5 167t59.5 217l2 20q7 60 7 109q0 166 -65 260q-55 77 -181 77q-109 0 -191.5 -59z" />
    <glyph glyph-name="c" unicode="c" horiz-adv-x="1024" 
d="M674 150q86 69 116 184l111 1q-18 -104 -81 -185t-156.5 -126t-199.5 -45q-148 0 -238.5 77t-125.5 208q-23 89 -23 179q0 41 4 74l4 43q16 145 81.5 269t173.5 200q51 36 116 55t133 19q82 0 156 -28.5t125 -84.5q97 -107 91 -273l-112 1q2 81 -28 145t-90 100.5
t-143 36.5q-113 0 -195.5 -61.5t-130.5 -167.5q-47 -104 -60 -211l-5 -42q-4 -35 -4 -79q0 -86 21 -160t67 -126q64 -72 189 -72q118 0 204 69z" />
    <glyph glyph-name="d" unicode="d" horiz-adv-x="1104" 
d="M736 0l27 144q-70 -85 -157 -125t-176 -40q-74 0 -136.5 25t-98.5 68q-56 67 -82.5 161t-26.5 199q0 43 5 95q47 342 238 496q51 41 112 60.5t125 19.5q54 0 104 -12t90 -33q79 -42 126 -128l109 606h119l-267 -1536h-111zM281 153q58 -69 174 -69q102 0 183 51.5
t139 142.5l87 514q-33 109 -106 159t-163 50q-57 0 -110.5 -18.5t-88.5 -48.5q-75 -66 -120 -168t-61 -217q-6 -66 -6 -124q0 -51 4 -88q10 -115 68 -184z" />
    <glyph glyph-name="e" unicode="e" horiz-adv-x="1027" 
d="M865 170q-149 -190 -384 -190q-145 0 -241 74.5t-138 202.5q-30 95 -30 195q0 37 2 56l4 44q15 139 84 266t179 207q54 39 119.5 58.5t131.5 19.5q68 0 128.5 -20t101.5 -56q68 -61 101.5 -153.5t33.5 -200.5q0 -33 -3 -66l-9 -73h-749l-3 -24q-4 -29 -4 -67
q0 -86 27.5 -162.5t82.5 -129.5q71 -69 190 -69q170 0 304 146zM353.5 899.5q-97.5 -106.5 -143.5 -263.5l627 -1l2 15q3 27 3 54q0 78 -27 144.5t-82.5 108t-135.5 43.5q-146 6 -243.5 -100.5z" />
    <glyph glyph-name="f" unicode="f" horiz-adv-x="658" 
d="M670 984h-250l-171 -984h-119l171 984h-175l18 98h174l19 135q14 101 59 178.5t121 121t177 43.5q56 0 138 -20l-21 -99q-58 15 -108 15q-105 0 -168.5 -67.5t-79.5 -177.5l-19 -129h252z" />
    <glyph glyph-name="g" unicode="g" horiz-adv-x="1103" 
d="M854 19q-18 -129 -80.5 -231.5t-164 -161t-230.5 -58.5q-111 0 -206.5 49.5t-154.5 139.5l74 71q53 -80 129.5 -120t160.5 -40q68 0 130 25.5t105 71.5q92 100 118 249l26 127q-71 -83 -158 -122.5t-175 -39.5q-73 0 -135 25.5t-97 67.5q-56 68 -82 162t-26 198
q0 43 5 95q47 348 240 499q50 40 110.5 58.5t123.5 18.5q54 0 104.5 -12.5t91.5 -33.5q81 -44 125 -131l37 156h111zM214 528q-7 -56 -7 -103q0 -76 16.5 -144.5t51.5 -119.5q55 -77 182 -77q198 0 322 199l85 502q-28 102 -98.5 158t-175.5 56q-113 0 -191.5 -64.5
t-124.5 -175.5q-45 -110 -58 -210z" />
    <glyph glyph-name="h" unicode="h" horiz-adv-x="1091" 
d="M440 928.5q-87 -71.5 -147 -183.5l-129 -745h-119l267 1536h119l-117 -635q69 93 159.5 147t197.5 54q151 0 221.5 -88t70.5 -232q0 -34 -5 -77l-118 -705h-119l118 706q4 46 4 67q0 227 -204 227q-112 0 -199 -71.5z" />
    <glyph glyph-name="i" unicode="i" horiz-adv-x="446" 
d="M367 1477q70 -12 77 -82q-17 -66 -86 -80q-76 12 -76 73q0 71 85 89zM367 1082l-188 -1082h-119l189 1082h118z" />
    <glyph glyph-name="j" unicode="j" horiz-adv-x="454" 
d="M302 1449.5q25 26.5 60 27.5q33 0 55 -21.5t22 -54.5q0 -35 -25.5 -60t-60.5 -26q-32 0 -54 21t-22 52q0 35 25 61.5zM243 1082h119l-205 -1211q-19 -141 -98.5 -226.5t-216.5 -85.5q-46 0 -114 20l10 101q56 -16 95 -16q88 0 138.5 57t64.5 150z" />
    <glyph glyph-name="k" unicode="k" horiz-adv-x="974" 
d="M725 0l-330 543l-160 -134l-71 -409h-118l267 1536h118l-170 -973l123 114l473 405h159l-531 -462l372 -620h-132z" />
    <glyph glyph-name="l" unicode="l" horiz-adv-x="446" 
d="M446 1536l-267 -1536h-119l267 1536h119z" />
    <glyph glyph-name="m" unicode="m" horiz-adv-x="1762" 
d="M483 966q-70 -34 -122.5 -92.5t-74.5 -129.5l-128 -744h-119l188 1082h116l-35 -175q68 92 158.5 143.5t199.5 51.5q113 0 192.5 -52t99.5 -157q71 98 167.5 153.5t212.5 55.5q154 0 226.5 -88.5t72.5 -236.5q0 -39 -4 -72l-119 -705h-118l118 707q4 42 4 62
q0 107 -49.5 169t-161.5 62q-80 0 -153.5 -37.5t-125 -102.5t-69.5 -144l-124 -716h-119l120 717q3 29 3 55q0 106 -50.5 167t-162.5 61q-73 0 -143 -34z" />
    <glyph glyph-name="n" unicode="n" horiz-adv-x="1092" 
d="M439 928.5q-87 -71.5 -147 -183.5l-128 -745h-119l188 1082h115l-36 -183q69 94 160 148.5t200 54.5q151 0 221 -88t70 -234q0 -40 -4 -75l-119 -705h-119l118 706q4 46 4 67q0 227 -205 227q-112 0 -199 -71.5z" />
    <glyph glyph-name="o" unicode="o" horiz-adv-x="1114" 
d="M80 551q18 147 88 273.5t183 203.5q55 37 122.5 56t137.5 19q74 0 140.5 -21t113.5 -62q78 -68 117.5 -171t39.5 -223q0 -33 -3 -66l-6 -49q-19 -144 -91 -266t-184 -195q-54 -35 -119.5 -53t-132.5 -18q-74 0 -140.5 21t-113.5 62q-78 67 -118 169t-40 220q0 34 3 67z
M196 518q-3 -31 -3 -64q0 -89 25.5 -167.5t77.5 -133.5q33 -35 84.5 -53t110.5 -18q54 0 105.5 15.5t93.5 46.5q86 63 139 166t68 217l3 32q3 32 3 64q0 90 -25.5 170t-77.5 135q-33 35 -85 54t-110 19q-54 0 -105.5 -16t-92.5 -47q-85 -65 -138 -166.5t-68 -214.5z" />
    <glyph glyph-name="p" unicode="p" horiz-adv-x="1101" 
d="M325.5 18q-83.5 39 -134.5 119l-100 -553h-119l260 1498h111l-28 -153q72 90 161 132.5t180 42.5q73 0 135 -25.5t97 -67.5q55 -65 80 -158t25 -199q0 -60 -5 -101q-47 -338 -233 -492q-100 -82 -245 -82q-101 0 -184.5 39zM438 944q-82 -55 -138 -152l-88 -523
q35 -98 107.5 -143.5t160.5 -45.5q57 0 110 17.5t88 46.5q151 125 190 409q6 64 6 101q0 171 -69 268q-54 77 -180 77q-105 0 -187 -55z" />
    <glyph glyph-name="q" unicode="q" horiz-adv-x="1109" 
d="M1034 1082l-260 -1498h-118l102 550q-69 -79 -155 -117.5t-173 -38.5q-74 0 -136.5 25t-98.5 68q-56 67 -82.5 161.5t-26.5 199.5q0 43 5 95q47 349 243 500q98 76 235 76q53 0 102.5 -12t89.5 -32q78 -40 127 -124l34 147h112zM213 528q-7 -56 -7 -103q0 -76 16.5 -145
t51.5 -120q27 -39 75 -59t106 -20q47 0 94 13t85 37q84 54 142 138l90 530q-36 106 -108.5 155t-160.5 49q-57 0 -110 -19t-89 -49q-76 -66 -121.5 -168.5t-61.5 -217.5z" />
    <glyph glyph-name="r" unicode="r" horiz-adv-x="669" 
d="M629 991q-73 0 -143 -31t-121.5 -86.5t-72.5 -126.5l-128 -747h-119l188 1082h117l-35 -169q58 90 137 140.5t178 50.5q44 0 93 -13l-17 -109z" />
    <glyph glyph-name="s" unicode="s" horiz-adv-x="1007" 
d="M731 304q0 83 -67.5 128t-173.5 73q-97 24 -167 56.5t-114 84.5q-21 25 -32.5 61t-11.5 77q0 51 18 101t52 86q58 63 144.5 97t178.5 34q102 0 187 -37t133 -110t42 -176h-119q4 68 -27.5 118t-87.5 76.5t-124 26.5q-69 0 -133.5 -23.5t-105.5 -73t-41 -121.5
q0 -64 51.5 -104t174.5 -73q133 -36 205.5 -77t106.5 -98q14 -23 21.5 -55t7.5 -68q0 -54 -18 -105t-54 -90q-62 -65 -152 -98.5t-187 -33.5q-103 0 -193.5 36.5t-144 110t-47.5 178.5l117 -1q0 -109 74 -165.5t189 -56.5q68 0 133 21.5t110.5 66.5t53.5 113q1 7 1 21z" />
    <glyph glyph-name="t" unicode="t" horiz-adv-x="639" 
d="M469 -4q-56 -16 -111 -16q-57 0 -101.5 20.5t-66.5 69.5q-30 68 -30 150q0 14 2 44l119 720h-193l18 98h191l49 278h121l-49 -278h216l-17 -98h-216l-120 -721q-3 -24 -3 -48q0 -58 23.5 -92.5t83.5 -34.5q23 0 90 8z" />
    <glyph glyph-name="u" unicode="u" horiz-adv-x="1091" 
d="M723 0l29 137q-63 -78 -153 -118t-183 -40q-88 0 -158.5 34t-100.5 94q-48 96 -48 215q0 22 4 68l116 692h119l-115 -695q-4 -44 -4 -65q0 -103 44 -169t146 -69q72 -3 145 21t129 73t78 118l135 786h120l-188 -1082h-115z" />
    <glyph glyph-name="v" unicode="v" horiz-adv-x="955" 
d="M993 1081l-556 -1081h-100l-224 1082h118l178 -913l462 913z" />
    <glyph glyph-name="w" unicode="w" horiz-adv-x="1499" 
d="M1517 1082l-494 -1082h-102l-120 859v59l-24 -60l-414 -858h-102l-116 1082h118l79 -838v-78l38 90l395 826h103l106 -826l7 -103l40 104l358 825h128z" />
    <glyph glyph-name="x" unicode="x" horiz-adv-x="967" 
d="M271 1082l213 -436l351 436h148l-444 -537l282 -545h-131l-227 456l-368 -456h-148l463 557l-271 525h132z" />
    <glyph glyph-name="y" unicode="y" horiz-adv-x="945" 
d="M343 -175q-59 -121 -136.5 -193t-192.5 -72q-47 0 -102 15l12 99l60 -8q93 -3 155 48.5t109 147.5l79 155l-210 1065h124l168 -906l462 906h133z" />
    <glyph glyph-name="z" unicode="z" horiz-adv-x="967" 
d="M169 979l18 103h766l-17 -94l-787 -886h678l-19 -102h-828l17 95l784 884h-612z" />
    <glyph glyph-name="braceleft" unicode="{" horiz-adv-x="657" 
d="M238 286q3 27 3 51q0 191 -182 205l12 104q236 11 270 265l32 236q52 346 387 454l25 -84q-252 -79 -297 -398l-30 -214q-32 -227 -228 -314q68 -37 98.5 -103.5t30.5 -150.5q0 -26 -3 -52l-30 -227q-5 -45 -5 -79q0 -107 43 -186t139 -117l-34 -79q-134 46 -200 147.5
t-66 241.5q0 40 4 73z" />
    <glyph glyph-name="bar" unicode="|" horiz-adv-x="439" 
d="M407 1456l-270 -1726h-102l270 1726h102z" />
    <glyph glyph-name="braceright" unicode="}" horiz-adv-x="657" 
d="M417 904q-3 -27 -3 -52q0 -90 43.5 -143t138.5 -59l-12 -105q-238 -11 -272 -273l-28 -213q-49 -359 -399 -466l-21 81q261 92 303 399l30 219q33 226 238 307q-72 35 -105.5 102t-33.5 152q0 27 3 52l30 228q5 47 5 84q0 231 -180 301l32 77q135 -47 200.5 -147.5
t65.5 -239.5q0 -33 -5 -76z" />
    <glyph glyph-name="asciitilde" unicode="~" horiz-adv-x="1361" 
d="M1237 766q-10 -91 -49.5 -169.5t-108 -126.5t-159.5 -48q-80 0 -146.5 38.5t-135.5 107.5q-63 63 -106 88.5t-99 25.5q-92 0 -142.5 -65t-68.5 -166l-105 -1q11 91 51 168.5t108.5 124.5t161.5 47q80 0 146.5 -39t135.5 -108q63 -63 106.5 -88.5t97.5 -25.5
q93 0 145.5 67t70.5 168z" />
    <glyph glyph-name="uni00A0" unicode="&#xa0;" horiz-adv-x="494" 
 />
    <glyph glyph-name="exclamdown" unicode="&#xa1;" horiz-adv-x="439" 
d="M345.5 967.5q-25.5 -26.5 -61.5 -26.5q-34 0 -55.5 23.5t-19.5 58.5q6 78 86 80q33 0 54.5 -20.5t21.5 -52.5q0 -36 -25.5 -62.5zM-5 -360l189 1050h111l-177 -1050h-123z" />
    <glyph glyph-name="cent" unicode="&#xa2;" horiz-adv-x="1082" 
d="M920 334q-18 -99 -75.5 -174t-142.5 -119.5t-187 -57.5l-43 -228h-120l44 230q-123 23 -192.5 103.5t-91.5 201.5q-13 69 -13 144q0 46 4 83l5 43q18 140 77 255.5t159.5 191t237.5 92.5l42 219h120l-43 -221q95 -17 160.5 -70.5t97.5 -133t27 -176.5l-112 1
q4 80 -25.5 144t-88.5 101t-143 37q-115 0 -198.5 -62.5t-133.5 -171.5q-48 -104 -62 -215l-4 -33q-5 -48 -5 -88q0 -83 19.5 -154t62.5 -122q29 -35 78.5 -53.5t108.5 -18.5q55 0 108.5 16.5t95.5 49.5q89 69 121 186h112z" />
    <glyph glyph-name="sterling" unicode="&#xa3;" horiz-adv-x="1135" 
d="M-8 0l13 103l101 -2q64 27 94 99t42 166l38 279h-183l18 105h180l38 289q15 122 73.5 221.5t154 158t217.5 58.5q108 0 185 -43.5t117.5 -120.5t40.5 -177q0 -32 -2 -48h-121q2 28 2 41q0 110 -59 177t-175 67q-88 0 -154 -46.5t-105.5 -123t-51.5 -164.5l-38 -289h335
l-19 -105h-331l-39 -284q-23 -162 -111 -259l725 2l-18 -104h-967z" />
    <glyph glyph-name="currency" unicode="&#xa4;" horiz-adv-x="1437" 
d="M1241 54l-95 -82l-122 159q-94 -75 -197 -113t-204 -38q-103 0 -195 39t-163 113l-180 -158l-73 92l183 157q-60 135 -60 285q0 134 50.5 263t153.5 238l-133 175l92 81l131 -169q90 68 188.5 102.5t196.5 34.5q99 0 189.5 -35.5t161.5 -104.5l195 172l75 -93l-198 -170
q66 -141 66 -295q0 -129 -48 -254t-143 -230zM247 528q0 -106 40 -201t116 -158q46 -39 108 -59.5t130 -20.5q65 0 129 18t120 54q119 75 197.5 196.5t96.5 258.5q4 31 4 70q0 106 -40 200.5t-115 158.5q-46 39 -107.5 59t-130.5 20q-64 0 -128 -18t-121 -53
q-119 -75 -197.5 -196.5t-96.5 -257.5q-5 -40 -5 -71z" />
    <glyph glyph-name="yen" unicode="&#xa5;" horiz-adv-x="1025" 
d="M870 324h-346l-57 -324h-124l57 324h-344l16 89h343l36 204h-344l16 89h308l-257 750h131l227 -722l479 722h142l-517 -750h301l-16 -89h-347l-36 -204h348z" />
    <glyph glyph-name="brokenbar" unicode="&#xa6;" horiz-adv-x="432" 
d="M421 1456l-132 -758h-119l132 758h119zM121 -270h-119l134 771h120z" />
    <glyph glyph-name="section" unicode="&#xa7;" horiz-adv-x="1203" 
d="M831 -339q-74 -83 -192 -121q-108 -36 -223 -36q-92 0 -176 27t-150 88q-107 95 -107 263q0 25 3 54l119 2q-2 -28 -2 -42q0 -91 40 -156t113.5 -99t171.5 -34q87 0 167 28t135.5 86.5t65.5 144.5q2 12 2 36q0 49 -22 86t-71 71q-58 40 -199 85q-149 47 -230.5 91
t-131.5 109q-24 32 -36.5 74t-12.5 89q0 64 22.5 122.5t64.5 96.5q78 69 178 104q-64 46 -94 111t-30 138q0 70 25 135t66 108q72 76 180 115t225 39q126 0 219 -45t143.5 -130t50.5 -203q0 -26 -3 -53h-118q2 15 2 44q0 85 -35.5 149.5t-103.5 100.5t-160 36
q-88 0 -168 -27.5t-135 -86t-65 -145.5q-2 -12 -2 -35q0 -73 41 -120.5t114 -76.5q71 -30 145 -54q129 -42 215.5 -84.5t138.5 -108.5q24 -31 36.5 -73t12.5 -89q0 -65 -23.5 -124t-67.5 -95q-79 -66 -183 -101q131 -89 131 -251q0 -23 -1 -35q-11 -125 -85 -208zM659 213
q108 14 187 69t93 153q2 22 2 30q0 77 -49.5 128.5t-138.5 85.5q-72 28 -161 56q-87 28 -114 38q-107 -16 -178 -71.5t-83 -155.5q-2 -12 -2 -36q0 -78 47.5 -127t140.5 -84z" />
    <glyph glyph-name="dieresis" unicode="&#xa8;" horiz-adv-x="855" 
d="M342 1478q33 0 55.5 -21.5t22.5 -54.5q0 -34 -25.5 -59.5t-60.5 -26.5q-34 0 -56.5 23t-20.5 58q6 80 85 81zM706 1451q25 26 60 27q35 0 57.5 -23.5t20.5 -58.5q-6 -78 -86 -80q-33 0 -55 20.5t-22 53.5q0 35 25 61z" />
    <glyph glyph-name="copyright" unicode="&#xa9;" horiz-adv-x="1589" 
d="M256.5 1094.5q111.5 173.5 283.5 279.5q83 51 177 77t189 26q99 0 190 -28.5t161 -82.5q119 -94 184 -236t65 -304q0 -52 -5 -91q-23 -199 -133.5 -372.5t-283.5 -280.5q-82 -52 -176.5 -78t-189.5 -26q-100 0 -190.5 29t-160.5 84q-120 94 -185 236.5t-65 305.5
q0 39 5 89q23 199 134.5 372.5zM203 633q0 -139 54.5 -262t154.5 -205q59 -49 138.5 -74.5t167.5 -25.5q84 0 167 23t156 69q153 95 252.5 249.5t121.5 328.5q6 45 6 89q0 139 -54.5 261t-154.5 205q-60 49 -139.5 74.5t-167.5 25.5q-83 0 -166 -23t-156 -69
q-153 -95 -252.5 -249t-121.5 -328q-6 -45 -6 -89zM1089 607q-19 -145 -103.5 -230t-225.5 -85q-97 0 -162 47.5t-96 125t-31 169.5q0 16 2 46l9 97q12 103 58.5 191.5t125 142.5t182.5 54q133 0 205.5 -75.5t72.5 -202.5q0 -24 -1 -36h-98q2 24 2 34q0 88 -45 139t-139 51
q-76 0 -132 -42.5t-88 -110t-41 -143.5l-11 -100q-2 -32 -2 -48q0 -104 45 -176t146 -72q191 0 232 223z" />
    <glyph glyph-name="ordfeminine" unicode="&#xaa;" horiz-adv-x="880" 
d="M653 703q-3 27 -3 55q0 14 2 40q-103 -108 -228 -108q-62 0 -111.5 23.5t-78 68.5t-28.5 106q0 93 51.5 149.5t130.5 80.5t170 24l136 -1l9 61q2 13 2 37q0 65 -33 103t-103 38q-159 0 -195 -142l-105 6q10 75 53.5 127.5t109.5 79t142 26.5q77 0 131 -31.5t81.5 -87
t27.5 -127.5q0 -20 -1 -31l-49 -314q-9 -57 -9 -109q0 -41 4 -73zM559 814q54 29 96 75l30 169l-126 1q-94 -1 -164.5 -36t-79.5 -117q-1 -5 -1 -16q0 -52 37.5 -78.5t96.5 -26.5q57 0 111 29z" />
    <glyph glyph-name="guillemotleft" unicode="&#xab;" horiz-adv-x="915" 
d="M334 148l-228 377l2 19l349 381h114l-341 -395l197 -382h-93zM634 148l-228 377l2 19l349 381h114l-341 -395l197 -382h-93z" />
    <glyph glyph-name="logicalnot" unicode="&#xac;" horiz-adv-x="1084" 
d="M150 776h790l-68 -390h-119l50 284h-672z" />
    <glyph glyph-name="uni00AD" unicode="&#xad;" horiz-adv-x="568" 
d="M529 694l-18 -102h-467l18 102h467z" />
    <glyph glyph-name="registered" unicode="&#xae;" horiz-adv-x="1593" 
d="M252.5 1094.5q111.5 173.5 283.5 279.5q83 51 177 77t189 26q99 0 190 -28.5t161 -82.5q120 -94 184.5 -236.5t64.5 -304.5q0 -40 -5 -90q-23 -198 -134 -372t-283 -281q-82 -52 -176.5 -78t-189.5 -26q-100 0 -190.5 28.5t-160.5 83.5q-120 94 -185 237t-65 306
q0 39 5 89q23 199 134.5 372.5zM198 635q0 -140 54 -263.5t155 -205.5q60 -49 139.5 -74.5t167.5 -25.5q84 0 167 23t156 69q153 95 252.5 249.5t121.5 328.5q6 45 6 89q0 139 -54.5 261t-154.5 205q-60 49 -140 74.5t-168 25.5q-83 0 -166 -23t-156 -68
q-152 -94 -252 -248.5t-123 -329.5q-5 -36 -5 -87zM643 667l-55 -345h-98l132 839l243 -1q117 -3 191 -57t74 -161q0 -82 -44 -136.5t-123 -93.5q93 -45 93 -168q0 -10 -2 -34q-10 -71 -8 -109l1 -63l-2 -16h-98q-4 36 -3 72l11 116q1 9 1 25q0 124 -127 131zM706 1070
l-50 -312l170 -1q56 2 104 23t77.5 63t29.5 102q0 66 -44.5 93.5t-123.5 30.5z" />
    <glyph glyph-name="macron" unicode="&#xaf;" horiz-adv-x="849" 
d="M867 1441l-16 -97h-604l15 97h605z" />
    <glyph glyph-name="degree" unicode="&#xb0;" horiz-adv-x="751" 
d="M282 1339q35 62 94.5 100t128.5 38q64 0 114 -33.5t77 -89.5t25 -118q-3 -67 -38 -126.5t-92.5 -95t-125.5 -35.5q-62 0 -112 31.5t-78 84t-28 113.5q0 69 35 131zM372 1109.5q36 -39.5 93 -39.5q47 0 85.5 25t60.5 66.5t22 87.5q0 57 -34.5 97.5t-91.5 40.5
q-47 0 -86 -26t-62 -68t-23 -88q0 -56 36 -95.5z" />
    <glyph glyph-name="plusminus" unicode="&#xb1;" horiz-adv-x="1053" 
d="M991 728h-378l-70 -439h-110l69 439h-402l16 101h401l69 438h111l-69 -438h380zM858 102l-16 -102h-813l16 102h813z" />
    <glyph glyph-name="uni00B2" unicode="&#xb2;" horiz-adv-x="728" 
d="M674 753l-16 -88h-556l14 81l340 294l84 81q34 33 51.5 71.5t17.5 75.5q0 50 -30 78q-37 34 -102 34q-158 0 -194 -163h-105q10 76 52 132.5t107 87t143 30.5q65 0 118.5 -23.5t85.5 -69t32 -109.5q0 -62 -33 -118t-75.5 -97.5t-110.5 -97.5l-242 -199h419z" />
    <glyph glyph-name="uni00B3" unicode="&#xb3;" horiz-adv-x="728" 
d="M336 1026l11 80h70q83 3 144 42.5t61 118.5q0 55 -39.5 83.5t-99.5 28.5q-68 0 -117.5 -34t-67.5 -97l-105 -1q10 70 51 120t103 75t134 25q65 0 121.5 -22.5t90.5 -67.5t34 -110q0 -74 -46 -122t-122 -80q62 -21 93.5 -67t31.5 -103q0 -54 -27.5 -104.5t-74.5 -79.5
q-93 -57 -198 -57q-53 0 -101.5 15.5t-88.5 44.5q-78 59 -74 172h104q-4 -70 42.5 -107t119.5 -37q51 0 95.5 19t71.5 56.5t27 90.5q0 62 -46 88t-117 29z" />
    <glyph glyph-name="acute" unicode="&#xb4;" horiz-adv-x="560" 
d="M218 1257l229 279l151 -1l-269 -277z" />
    <glyph glyph-name="uni00B5" unicode="&#xb5;" horiz-adv-x="1107" 
d="M192 107l-95 -523h-117l260 1498h117l-105 -633q-6 -48 -6 -100q0 -134 51 -206q21 -31 63 -47t96 -16q50 0 101.5 14.5t97.5 42.5q99 62 130 179l131 766h119l-188 -1082h-108l27 155q-120 -175 -317 -175q-182 0 -257 127z" />
    <glyph glyph-name="paragraph" unicode="&#xb6;" horiz-adv-x="945" 
d="M674 0h-120l91 520l-94 1q-124 3 -216 53t-141.5 139t-49.5 206q0 30 3 61q15 145 90.5 253t195.5 166t265 58l229 -1z" />
    <glyph glyph-name="periodcentered" unicode="&#xb7;" horiz-adv-x="489" 
d="M204 774.5q26 27.5 64 27.5q33 0 55.5 -23t22.5 -56q0 -36 -27.5 -62t-63.5 -26q-33 0 -55 21t-22 54q0 37 26 64.5z" />
    <glyph glyph-name="cedilla" unicode="&#xb8;" horiz-adv-x="484" 
d="M41 0h92l-22 -67q70 -14 102.5 -55t32.5 -96q0 -40 -16 -78t-40 -59q-48 -41 -118 -60t-147 -22l2 78q81 3 145 32t73 96q1 5 1 14q0 35 -23 53t-48.5 23.5t-78.5 12.5z" />
    <glyph glyph-name="uni00B9" unicode="&#xb9;" horiz-adv-x="728" 
d="M596 1455l-134 -790h-104l115 660l-238 -68l17 94l328 104h16z" />
    <glyph glyph-name="ordmasculine" unicode="&#xba;" horiz-adv-x="895" 
d="M216 1131q11 96 57.5 174.5t122.5 125t173 46.5q90 0 153.5 -40.5t95.5 -110t32 -154.5q0 -14 -2 -40l-10 -99q-12 -96 -58 -174.5t-121.5 -124t-171.5 -45.5q-90 0 -154 41.5t-96 112t-32 157.5q0 22 1 33zM318 1030q-2 -26 -2 -38q0 -90 42.5 -148.5t133.5 -58.5
q68 0 118.5 34t80 90t38.5 123l12 101q2 24 2 37q0 91 -43 151t-135 60q-68 0 -118 -34t-80 -90.5t-38 -123.5z" />
    <glyph glyph-name="guillemotright" unicode="&#xbb;" horiz-adv-x="911" 
d="M269 945l225 -381l-2 -20l-347 -382h-114l341 395l-197 388h94zM579 945l225 -381l-2 -20l-347 -382h-114l341 395l-197 388h94z" />
    <glyph glyph-name="onequarter" unicode="&#xbc;" horiz-adv-x="1449" 
d="M584 1454l-134 -790h-104l115 660l-238 -68l17 94l328 104h16zM1209 1265l-881 -1135l-73 53l885 1131zM680 253l475 536h114l-89 -513h123l-16 -89h-123l-33 -187h-105l34 187h-385zM802 276h272l73 384l-38 -51z" />
    <glyph glyph-name="onehalf" unicode="&#xbd;" horiz-adv-x="1513" 
d="M569 1454l-134 -790h-104l115 660l-238 -68l17 94l328 104h16zM1165 1265l-881 -1135l-73 53l885 1131zM1305 88l-16 -88h-556l14 81l340 294l84 81q34 33 51.5 71.5t17.5 75.5q0 50 -30 78q-37 34 -101 34q-159 0 -195 -163h-104q10 76 52 132.5t106.5 87t142.5 30.5
q65 0 118.5 -23.5t85.5 -69t32 -109.5q0 -62 -33 -118t-75.5 -97.5t-110.5 -97.5l-242 -199h419z" />
    <glyph glyph-name="threequarters" unicode="&#xbe;" horiz-adv-x="1552" 
d="M381 1026l11 80h70q78 3 137.5 38t67.5 105q1 5 1 15q0 56 -40 85.5t-100 29.5q-68 0 -117.5 -34t-67.5 -97l-105 -1q10 70 51.5 120t103.5 75t133 25q66 0 122 -22.5t90 -67.5t34 -110q0 -73 -46 -121.5t-122 -80.5q62 -21 93.5 -67t31.5 -103q0 -54 -27 -104.5
t-74 -79.5q-93 -57 -198 -57q-53 0 -102 15.5t-89 44.5q-78 59 -74 172h104q-3 -70 43 -107t120 -37q50 0 94.5 19t71.5 56.5t27 90.5q0 62 -46 88t-117 29zM1349 1265l-881 -1135l-73 53l885 1131zM791 253l475 536h114l-89 -513h123l-16 -89h-123l-33 -187h-105l34 187
h-385zM913 276h272l73 384l-38 -51z" />
    <glyph glyph-name="questiondown" unicode="&#xbf;" horiz-adv-x="913" 
d="M597.5 966.5q-25.5 -26.5 -61.5 -26.5q-33 0 -55 24t-20 58q6 78 86 80q33 0 54.5 -20t21.5 -52q0 -37 -25.5 -63.5zM545 689q-15 -111 -57 -184t-134 -153q-80 -70 -126.5 -117.5t-82 -111t-44.5 -141.5q-2 -14 -2 -41q0 -100 55 -160t161 -60q114 0 188.5 71.5
t98.5 185.5h116q-15 -107 -70 -189t-142 -127.5t-196 -45.5q-102 0 -177 40t-115 112.5t-40 168.5q0 13 2 43q9 94 52.5 174.5t107.5 146.5t152 137q61 49 79 132q18 82 61 118z" />
    <glyph glyph-name="Agrave" unicode="&#xc0;" horiz-adv-x="1242" 
d="M718 1851l142 -279h-100l-177 279h135zM-79 0l786 1456h117l281 -1456h-121l-75 408h-639l-217 -408h-132zM325 513h565l-145 791z" />
    <glyph glyph-name="Aacute" unicode="&#xc1;" horiz-adv-x="1242" 
d="M717 1572l229 279l151 -1l-269 -277zM-79 0l786 1456h117l281 -1456h-121l-75 408h-639l-217 -408h-132zM325 513h565l-145 791z" />
    <glyph glyph-name="Acircumflex" unicode="&#xc2;" horiz-adv-x="1242" 
d="M867 1841l197 -256l-1 -12l-107 1l-130 181l-194 -180l-109 -1l1 13l270 254h73zM-79 0l786 1456h117l281 -1456h-121l-75 408h-639l-217 -408h-132zM325 513h565l-145 791z" />
    <glyph glyph-name="Atilde" unicode="&#xc3;" horiz-adv-x="1242" 
d="M1159 1811q-12 -91 -66 -153t-143 -62q-54 0 -95 29l-80 57q-37 27 -88 27q-94 -1 -126 -119l-91 4q14 91 68.5 152t142.5 61q53 0 93 -28l82 -58q39 -27 86 -27q98 0 132 122zM-79 0l786 1456h117l281 -1456h-121l-75 408h-639l-217 -408h-132zM325 513h565l-145 791z
" />
    <glyph glyph-name="Adieresis" unicode="&#xc4;" horiz-adv-x="1242" 
d="M606 1793q33 0 55.5 -21.5t22.5 -54.5q0 -34 -25.5 -59.5t-60.5 -26.5q-34 0 -56.5 23t-20.5 58q6 80 85 81zM970 1766q25 26 60 27q35 0 57.5 -23.5t20.5 -58.5q-6 -78 -86 -80q-33 0 -55 20.5t-22 53.5q0 35 25 61zM-79 0l786 1456h117l281 -1456h-121l-75 408h-639
l-217 -408h-132zM325 513h565l-145 791z" />
    <glyph glyph-name="Aring" unicode="&#xc5;" horiz-adv-x="1242" 
d="M656 1804.5q27 47.5 73 75.5t100 28q49 0 89.5 -24t63.5 -65t23 -89q0 -55 -27 -101t-73 -73.5t-101 -27.5q-49 0 -89 23t-63 63t-23 88q0 55 27 102.5zM704 1697q0 -40 26.5 -68t67.5 -28q36 0 66 19t47.5 50t17.5 66q0 41 -26 70t-68 29q-33 0 -62 -17.5t-47.5 -46.5
t-20.5 -61q-1 -4 -1 -13zM-79 0l786 1456h117l281 -1456h-121l-75 408h-639l-217 -408h-132zM325 513h565l-145 791z" />
    <glyph glyph-name="AE" unicode="&#xc6;" horiz-adv-x="1809" 
d="M1685 102l-18 -102h-796l52 390h-571l-292 -390h-152l1108 1456h843l-18 -102h-672l-72 -545h572l-18 -101h-567l-81 -606h682zM435 502h502l110 818z" />
    <glyph glyph-name="Ccedilla" unicode="&#xc7;" horiz-adv-x="1290" 
d="M257 636q-9 -58 -9 -120q0 -99 25 -186.5t77 -151.5q36 -45 103 -69.5t145 -24.5q76 0 147.5 24t123.5 72q113 101 162 273l118 1q-32 -141 -107.5 -247t-189 -165t-256.5 -62l-19 -57q70 -14 102.5 -55t32.5 -96q0 -40 -16 -78t-40 -59q-48 -41 -118 -60t-147 -22l2 78
q81 3 145 32t73 96q1 5 1 14q0 35 -23 53t-48.5 23.5t-78.5 12.5l43 122q-146 19 -235.5 112t-121.5 238q-21 93 -21 188q0 60 7 115l28 182q28 176 110.5 326t212.5 241q62 44 143.5 67.5t167.5 23.5q102 0 191.5 -34.5t148.5 -101.5q113 -133 112 -341l-121 1
q-1 171 -84 271t-253 100q-144 0 -250 -77.5t-171 -211.5q-64 -128 -85 -268z" />
    <glyph glyph-name="Egrave" unicode="&#xc8;" horiz-adv-x="1130" 
d="M697 1856l142 -279h-100l-177 279h135zM74 0l253 1456h876l-19 -105h-753l-96 -548h661l-19 -105h-659l-104 -594h759l-18 -104h-881z" />
    <glyph glyph-name="Eacute" unicode="&#xc9;" horiz-adv-x="1130" 
d="M696 1577l229 279l151 -1l-269 -277zM74 0l253 1456h876l-19 -105h-753l-96 -548h661l-19 -105h-659l-104 -594h759l-18 -104h-881z" />
    <glyph glyph-name="Ecircumflex" unicode="&#xca;" horiz-adv-x="1130" 
d="M847 1846l197 -256l-1 -12l-107 1l-130 181l-194 -180l-109 -1l1 13l270 254h73zM74 0l253 1456h876l-19 -105h-753l-96 -548h661l-19 -105h-659l-104 -594h759l-18 -104h-881z" />
    <glyph glyph-name="Edieresis" unicode="&#xcb;" horiz-adv-x="1130" 
d="M586 1798q33 0 55.5 -21.5t22.5 -54.5q0 -34 -25.5 -59.5t-60.5 -26.5q-34 0 -56.5 23t-20.5 58q6 80 85 81zM950 1771q25 26 60 27q35 0 57.5 -23.5t20.5 -58.5q-6 -78 -86 -80q-33 0 -55 20.5t-22 53.5q0 35 25 61zM74 0l253 1456h876l-19 -105h-753l-96 -548h661
l-19 -105h-659l-104 -594h759l-18 -104h-881z" />
    <glyph glyph-name="Igrave" unicode="&#xcc;" horiz-adv-x="530" 
d="M362 1856l142 -279h-100l-177 279h135zM475 1456l-253 -1456h-122l253 1456h122z" />
    <glyph glyph-name="Iacute" unicode="&#xcd;" horiz-adv-x="530" 
d="M361 1577l229 279l151 -1l-269 -277zM475 1456l-253 -1456h-122l253 1456h122z" />
    <glyph glyph-name="Icircumflex" unicode="&#xce;" horiz-adv-x="530" 
d="M511 1846l197 -256l-1 -12l-107 1l-130 181l-194 -180l-109 -1l1 13l270 254h73zM475 1456l-253 -1456h-122l253 1456h122z" />
    <glyph glyph-name="Idieresis" unicode="&#xcf;" horiz-adv-x="530" 
d="M250 1798q33 0 55.5 -21.5t22.5 -54.5q0 -34 -25.5 -59.5t-60.5 -26.5q-34 0 -56.5 23t-20.5 58q6 80 85 81zM614 1771q25 26 60 27q35 0 57.5 -23.5t20.5 -58.5q-6 -78 -86 -80q-33 0 -55 20.5t-22 53.5q0 35 25 61zM475 1456l-253 -1456h-122l253 1456h122z" />
    <glyph glyph-name="Eth" unicode="&#xd0;" horiz-adv-x="1332" 
d="M104 0l120 690h-147l18 102h147l115 664l388 -1q179 -4 299 -95t170 -245q33 -102 33 -215q0 -55 -7 -105l-18 -122q-30 -198 -128.5 -350t-248.5 -236.5t-331 -86.5h-410zM244 104l259 -1q159 0 284.5 72.5t205 198t105.5 281.5l21 143q7 48 7 102q0 112 -35 206.5
t-106 158.5q-88 80 -243 85l-281 1l-97 -559h327l-18 -102h-327z" />
    <glyph glyph-name="Ntilde" unicode="&#xd1;" horiz-adv-x="1411" 
d="M1240 1811q-12 -91 -66 -153t-143 -62q-54 0 -95 29l-80 57q-38 27 -88 27q-94 -1 -126 -119l-91 4q14 91 68.5 152t142.5 61q53 0 93 -28l82 -58q39 -27 86 -27q98 0 132 122zM1380 1456l-252 -1456h-119l-596 1248l-217 -1248h-123l253 1456h118l597 -1248l217 1248
h122z" />
    <glyph glyph-name="Ograve" unicode="&#xd2;" horiz-adv-x="1345" 
d="M768 1862l142 -279h-100l-177 279h135zM1234 651q-28 -180 -111.5 -333t-216.5 -246q-64 -45 -145.5 -68.5t-166.5 -23.5q-91 0 -171.5 27t-134.5 78q-82 78 -123 194.5t-41 249.5q0 68 8 121l23 156q28 178 112.5 331.5t217.5 246.5q64 45 146 68.5t167 23.5
q91 0 171 -26.5t133 -77.5q82 -78 122.5 -193.5t40.5 -249.5q0 -68 -8 -123zM1137 809q9 60 9 123q0 103 -26.5 192.5t-82.5 152.5q-40 45 -105.5 68.5t-141.5 23.5q-68 0 -134.5 -20t-117.5 -58q-106 -79 -172 -207.5t-88 -275.5l-24 -159q-8 -62 -8 -118q0 -104 26.5 -195
t82.5 -156q39 -45 104.5 -68.5t141.5 -23.5q69 0 135 19.5t116 57.5q105 77 170 203.5t90 275.5z" />
    <glyph glyph-name="Oacute" unicode="&#xd3;" horiz-adv-x="1345" 
d="M767 1583l229 279l151 -1l-269 -277zM1234 651q-28 -180 -111.5 -333t-216.5 -246q-64 -45 -145.5 -68.5t-166.5 -23.5q-91 0 -171.5 27t-134.5 78q-82 78 -123 194.5t-41 249.5q0 68 8 121l23 156q28 178 112.5 331.5t217.5 246.5q64 45 146 68.5t167 23.5
q91 0 171 -26.5t133 -77.5q82 -78 122.5 -193.5t40.5 -249.5q0 -68 -8 -123zM1137 809q9 60 9 123q0 103 -26.5 192.5t-82.5 152.5q-40 45 -105.5 68.5t-141.5 23.5q-68 0 -134.5 -20t-117.5 -58q-106 -79 -172 -207.5t-88 -275.5l-24 -159q-8 -62 -8 -118q0 -104 26.5 -195
t82.5 -156q39 -45 104.5 -68.5t141.5 -23.5q69 0 135 19.5t116 57.5q105 77 170 203.5t90 275.5z" />
    <glyph glyph-name="Ocircumflex" unicode="&#xd4;" horiz-adv-x="1345" 
d="M918 1852l197 -256l-1 -12l-107 1l-130 181l-194 -180l-109 -1l1 13l270 254h73zM1234 651q-28 -180 -111.5 -333t-216.5 -246q-64 -45 -145.5 -68.5t-166.5 -23.5q-91 0 -171.5 27t-134.5 78q-82 78 -123 194.5t-41 249.5q0 68 8 121l23 156q28 178 112.5 331.5
t217.5 246.5q64 45 146 68.5t167 23.5q91 0 171 -26.5t133 -77.5q82 -78 122.5 -193.5t40.5 -249.5q0 -68 -8 -123zM1137 809q9 60 9 123q0 103 -26.5 192.5t-82.5 152.5q-40 45 -105.5 68.5t-141.5 23.5q-68 0 -134.5 -20t-117.5 -58q-106 -79 -172 -207.5t-88 -275.5
l-24 -159q-8 -62 -8 -118q0 -104 26.5 -195t82.5 -156q39 -45 104.5 -68.5t141.5 -23.5q69 0 135 19.5t116 57.5q105 77 170 203.5t90 275.5z" />
    <glyph glyph-name="Otilde" unicode="&#xd5;" horiz-adv-x="1345" 
d="M1209 1822q-12 -91 -66 -153t-143 -62q-54 0 -95 29l-80 57q-37 27 -88 27q-94 -1 -126 -119l-91 4q14 91 68.5 152t142.5 61q53 0 93 -28l82 -58q39 -27 86 -27q98 0 132 122zM1234 651q-28 -180 -111.5 -333t-216.5 -246q-64 -45 -145.5 -68.5t-166.5 -23.5
q-91 0 -171.5 27t-134.5 78q-82 78 -123 194.5t-41 249.5q0 68 8 121l23 156q28 178 112.5 331.5t217.5 246.5q64 45 146 68.5t167 23.5q91 0 171 -26.5t133 -77.5q82 -78 122.5 -193.5t40.5 -249.5q0 -68 -8 -123zM1137 809q9 60 9 123q0 103 -26.5 192.5t-82.5 152.5
q-40 45 -105.5 68.5t-141.5 23.5q-68 0 -134.5 -20t-117.5 -58q-106 -79 -172 -207.5t-88 -275.5l-24 -159q-8 -62 -8 -118q0 -104 26.5 -195t82.5 -156q39 -45 104.5 -68.5t141.5 -23.5q69 0 135 19.5t116 57.5q105 77 170 203.5t90 275.5z" />
    <glyph glyph-name="Odieresis" unicode="&#xd6;" horiz-adv-x="1345" 
d="M656 1804q33 0 55.5 -21.5t22.5 -54.5q0 -34 -25.5 -59.5t-60.5 -26.5q-34 0 -56.5 23t-20.5 58q6 80 85 81zM1020 1777q25 26 60 27q35 0 57.5 -23.5t20.5 -58.5q-6 -78 -86 -80q-33 0 -55 20.5t-22 53.5q0 35 25 61zM1234 651q-28 -180 -111.5 -333t-216.5 -246
q-64 -45 -145.5 -68.5t-166.5 -23.5q-91 0 -171.5 27t-134.5 78q-82 78 -123 194.5t-41 249.5q0 68 8 121l23 156q28 178 112.5 331.5t217.5 246.5q64 45 146 68.5t167 23.5q91 0 171 -26.5t133 -77.5q82 -78 122.5 -193.5t40.5 -249.5q0 -68 -8 -123zM1137 809q9 60 9 123
q0 103 -26.5 192.5t-82.5 152.5q-40 45 -105.5 68.5t-141.5 23.5q-68 0 -134.5 -20t-117.5 -58q-106 -79 -172 -207.5t-88 -275.5l-24 -159q-8 -62 -8 -118q0 -104 26.5 -195t82.5 -156q39 -45 104.5 -68.5t141.5 -23.5q69 0 135 19.5t116 57.5q105 77 170 203.5t90 275.5z
" />
    <glyph glyph-name="multiply" unicode="&#xd7;" horiz-adv-x="1040" 
d="M866 174l-86 -75l-284 364l-410 -364l-68 87l411 364l-274 350l87 76l272 -349l393 349l68 -88l-394 -349z" />
    <glyph glyph-name="Oslash" unicode="&#xd8;" horiz-adv-x="1345" 
d="M280 77l-128 -160h-111l178 219q-99 151 -99 368q0 71 11 146l23 156q28 178 112.5 331.5t217.5 246.5q63 44 145.5 68t169.5 24q103 0 196.5 -35t157.5 -105l134 168h112l-193 -237q62 -138 62 -313q0 -72 -11 -147l-24 -157q-28 -180 -111.5 -332.5t-216.5 -245.5
q-134 -93 -319 -93q-180 0 -306 98zM292 235l788 1006q-48 64 -124.5 96.5t-163.5 32.5q-70 0 -137 -20.5t-116 -57.5q-104 -78 -170 -204.5t-91 -274.5l-26 -164q-12 -79 -12 -163q0 -31 1 -47q5 -110 51 -204zM1127 1161l-777 -992q46 -41 110.5 -62t136.5 -21
q67 0 131 19t116 55q104 74 171.5 198t93.5 274q41 232 42 354q0 90 -24 175z" />
    <glyph glyph-name="Ugrave" unicode="&#xd9;" horiz-adv-x="1307" 
d="M758 1851l142 -279h-100l-177 279h135zM1180 1456h122l-169 -984q-22 -147 -98.5 -258.5t-196.5 -173t-269 -61.5q-133 0 -232 52.5t-152 147t-53 218.5q0 31 5 73l169 986h121l-168 -987q-4 -42 -4 -61q0 -96 37.5 -169t110.5 -114t177 -41q112 0 202.5 46.5t149 131.5
t77.5 196z" />
    <glyph glyph-name="Uacute" unicode="&#xda;" horiz-adv-x="1307" 
d="M757 1572l229 279l151 -1l-269 -277zM1180 1456h122l-169 -984q-22 -147 -98.5 -258.5t-196.5 -173t-269 -61.5q-133 0 -232 52.5t-152 147t-53 218.5q0 31 5 73l169 986h121l-168 -987q-4 -42 -4 -61q0 -96 37.5 -169t110.5 -114t177 -41q112 0 202.5 46.5t149 131.5
t77.5 196z" />
    <glyph glyph-name="Ucircumflex" unicode="&#xdb;" horiz-adv-x="1307" 
d="M907 1841l197 -256l-1 -12l-107 1l-130 181l-194 -180l-109 -1l1 13l270 254h73zM1180 1456h122l-169 -984q-22 -147 -98.5 -258.5t-196.5 -173t-269 -61.5q-133 0 -232 52.5t-152 147t-53 218.5q0 31 5 73l169 986h121l-168 -987q-4 -42 -4 -61q0 -96 37.5 -169
t110.5 -114t177 -41q112 0 202.5 46.5t149 131.5t77.5 196z" />
    <glyph glyph-name="Udieresis" unicode="&#xdc;" horiz-adv-x="1307" 
d="M646 1793q33 0 55.5 -21.5t22.5 -54.5q0 -34 -25.5 -59.5t-60.5 -26.5q-34 0 -56.5 23t-20.5 58q6 80 85 81zM1010 1766q25 26 60 27q35 0 57.5 -23.5t20.5 -58.5q-6 -78 -86 -80q-33 0 -55 20.5t-22 53.5q0 35 25 61zM1180 1456h122l-169 -984q-22 -147 -98.5 -258.5
t-196.5 -173t-269 -61.5q-133 0 -232 52.5t-152 147t-53 218.5q0 31 5 73l169 986h121l-168 -987q-4 -42 -4 -61q0 -96 37.5 -169t110.5 -114t177 -41q112 0 202.5 46.5t149 131.5t77.5 196z" />
    <glyph glyph-name="Yacute" unicode="&#xdd;" horiz-adv-x="1190" 
d="M689 1566l229 279l151 -1l-269 -277zM311 1456l289 -792l568 792h149l-673 -913l-94 -543h-122l97 556l-351 900h137z" />
    <glyph glyph-name="Thorn" unicode="&#xde;" horiz-adv-x="1179" 
d="M247 324l-57 -324h-119l253 1456h119l-53 -303l305 -1q114 -4 203.5 -48t140 -124.5t50.5 -190.5q0 -14 -2 -44q-13 -133 -86.5 -228.5t-187 -144.5t-246.5 -49zM373 1051l-109 -625l307 -1q99 1 185.5 38.5t142.5 109.5t68 171q3 23 3 45q0 78 -34.5 136t-97.5 90.5
t-145 34.5z" />
    <glyph glyph-name="germandbls" unicode="&#xdf;" horiz-adv-x="1165" 
d="M159 0h-118l193 1128q16 117 65 210.5t133 149.5t200 56q86 0 155.5 -32.5t109.5 -93.5t40 -143q0 -52 -15 -100t-37 -87t-60 -98l-17 -27q-25 -41 -39.5 -85.5t-14.5 -87.5q0 -61 31 -107q41 -60 94 -110q64 -62 99 -116.5t35 -122.5l-1 -17q-7 -103 -64 -180
t-146.5 -118t-190.5 -41q-83 0 -163.5 20t-139.5 64l45 99q52 -41 112 -61t122 -20q55 0 107.5 16t96.5 45q53 36 79.5 89.5t26.5 109.5q0 68 -32 112q-37 53 -97 109q-63 59 -97.5 113t-34.5 122q0 86 49 169l80 129q25 39 39 84t14 87q0 68 -38 118q-22 29 -64.5 46.5
t-91.5 17.5q-54 0 -104 -23.5t-83 -71.5q-68 -100 -86 -223z" />
    <glyph glyph-name="agrave" unicode="&#xe0;" horiz-adv-x="1065" 
d="M603 1535l142 -279h-100l-177 279h135zM716 0q-4 23 -4 51q0 17 1 25l8 75q-75 -82 -169 -126.5t-200 -44.5q-86 0 -156.5 34t-112 97t-41.5 147l1 21q9 127 89.5 206t209.5 114q120 32 232 32l220 -1l18 123q2 26 2 37q0 100 -62.5 156.5t-171.5 56.5q-71 0 -136 -25.5
t-111 -75t-61 -118.5h-117q13 99 78.5 171.5t160.5 110t195 37.5q101 0 179 -36.5t121.5 -106t43.5 -165.5q0 -30 -2 -45l-90 -543l-8 -87q-1 -9 -1 -28q0 -40 9 -79l-2 -13h-123zM580.5 142q95.5 57 157.5 156l41 240l-191 1q-94 0 -186 -22.5t-157 -72.5
q-39 -30 -60.5 -77.5t-21.5 -97.5q0 -38 13 -71t38 -56q62 -57 158 -57q113 0 208.5 57z" />
    <glyph glyph-name="aacute" unicode="&#xe1;" horiz-adv-x="1065" 
d="M602 1256l229 279l151 -1l-269 -277zM716 0q-4 23 -4 51q0 17 1 25l8 75q-75 -82 -169 -126.5t-200 -44.5q-86 0 -156.5 34t-112 97t-41.5 147l1 21q9 127 89.5 206t209.5 114q120 32 232 32l220 -1l18 123q2 26 2 37q0 100 -62.5 156.5t-171.5 56.5q-71 0 -136 -25.5
t-111 -75t-61 -118.5h-117q13 99 78.5 171.5t160.5 110t195 37.5q101 0 179 -36.5t121.5 -106t43.5 -165.5q0 -30 -2 -45l-90 -543l-8 -87q-1 -9 -1 -28q0 -40 9 -79l-2 -13h-123zM580.5 142q95.5 57 157.5 156l41 240l-191 1q-94 0 -186 -22.5t-157 -72.5
q-39 -30 -60.5 -77.5t-21.5 -97.5q0 -38 13 -71t38 -56q62 -57 158 -57q113 0 208.5 57z" />
    <glyph glyph-name="acircumflex" unicode="&#xe2;" horiz-adv-x="1065" 
d="M753 1525l197 -256l-1 -12l-107 1l-130 181l-194 -180l-109 -1l1 13l270 254h73zM716 0q-4 23 -4 51q0 17 1 25l8 75q-75 -82 -169 -126.5t-200 -44.5q-86 0 -156.5 34t-112 97t-41.5 147l1 21q9 127 89.5 206t209.5 114q120 32 232 32l220 -1l18 123q2 26 2 37
q0 100 -62.5 156.5t-171.5 56.5q-71 0 -136 -25.5t-111 -75t-61 -118.5h-117q13 99 78.5 171.5t160.5 110t195 37.5q101 0 179 -36.5t121.5 -106t43.5 -165.5q0 -30 -2 -45l-90 -543l-8 -87q-1 -9 -1 -28q0 -40 9 -79l-2 -13h-123zM580.5 142q95.5 57 157.5 156l41 240
l-191 1q-94 0 -186 -22.5t-157 -72.5q-39 -30 -60.5 -77.5t-21.5 -97.5q0 -38 13 -71t38 -56q62 -57 158 -57q113 0 208.5 57z" />
    <glyph glyph-name="atilde" unicode="&#xe3;" horiz-adv-x="1065" 
d="M1044 1495q-12 -91 -66 -153t-143 -62q-54 0 -95 29l-80 57q-37 27 -88 27q-94 -1 -126 -119l-91 4q14 91 68.5 152t142.5 61q53 0 93 -28l82 -58q39 -27 86 -27q98 0 132 122zM716 0q-4 23 -4 51q0 17 1 25l8 75q-75 -82 -169 -126.5t-200 -44.5q-86 0 -156.5 34
t-112 97t-41.5 147l1 21q9 127 89.5 206t209.5 114q120 32 232 32l220 -1l18 123q2 26 2 37q0 100 -62.5 156.5t-171.5 56.5q-71 0 -136 -25.5t-111 -75t-61 -118.5h-117q13 99 78.5 171.5t160.5 110t195 37.5q101 0 179 -36.5t121.5 -106t43.5 -165.5q0 -30 -2 -45
l-90 -543l-8 -87q-1 -9 -1 -28q0 -40 9 -79l-2 -13h-123zM580.5 142q95.5 57 157.5 156l41 240l-191 1q-94 0 -186 -22.5t-157 -72.5q-39 -30 -60.5 -77.5t-21.5 -97.5q0 -38 13 -71t38 -56q62 -57 158 -57q113 0 208.5 57z" />
    <glyph glyph-name="adieresis" unicode="&#xe4;" horiz-adv-x="1065" 
d="M491 1477q33 0 55.5 -21.5t22.5 -54.5q0 -34 -25.5 -59.5t-60.5 -26.5q-34 0 -56.5 23t-20.5 58q6 80 85 81zM855 1450q25 26 60 27q35 0 57.5 -23.5t20.5 -58.5q-6 -78 -86 -80q-33 0 -55 20.5t-22 53.5q0 35 25 61zM716 0q-4 23 -4 51q0 17 1 25l8 75
q-75 -82 -169 -126.5t-200 -44.5q-86 0 -156.5 34t-112 97t-41.5 147l1 21q9 127 89.5 206t209.5 114q120 32 232 32l220 -1l18 123q2 26 2 37q0 100 -62.5 156.5t-171.5 56.5q-71 0 -136 -25.5t-111 -75t-61 -118.5h-117q13 99 78.5 171.5t160.5 110t195 37.5
q101 0 179 -36.5t121.5 -106t43.5 -165.5q0 -30 -2 -45l-90 -543l-8 -87q-1 -9 -1 -28q0 -40 9 -79l-2 -13h-123zM580.5 142q95.5 57 157.5 156l41 240l-191 1q-94 0 -186 -22.5t-157 -72.5q-39 -30 -60.5 -77.5t-21.5 -97.5q0 -38 13 -71t38 -56q62 -57 158 -57
q113 0 208.5 57z" />
    <glyph glyph-name="aring" unicode="&#xe5;" horiz-adv-x="1065" 
d="M541 1488.5q27 47.5 73 75.5t100 28q49 0 89.5 -24t63.5 -65t23 -89q0 -55 -27 -101t-73 -73.5t-101 -27.5q-49 0 -89 23t-63 63t-23 88q0 55 27 102.5zM589 1381q0 -40 26.5 -68t67.5 -28q36 0 66 19t47.5 50t17.5 66q0 41 -26 70t-68 29q-33 0 -62 -17.5t-47.5 -46.5
t-20.5 -61q-1 -4 -1 -13zM716 0q-4 23 -4 51q0 17 1 25l8 75q-75 -82 -169 -126.5t-200 -44.5q-86 0 -156.5 34t-112 97t-41.5 147l1 21q9 127 89.5 206t209.5 114q120 32 232 32l220 -1l18 123q2 26 2 37q0 100 -62.5 156.5t-171.5 56.5q-71 0 -136 -25.5t-111 -75
t-61 -118.5h-117q13 99 78.5 171.5t160.5 110t195 37.5q101 0 179 -36.5t121.5 -106t43.5 -165.5q0 -30 -2 -45l-90 -543l-8 -87q-1 -9 -1 -28q0 -40 9 -79l-2 -13h-123zM580.5 142q95.5 57 157.5 156l41 240l-191 1q-94 0 -186 -22.5t-157 -72.5q-39 -30 -60.5 -77.5
t-21.5 -97.5q0 -38 13 -71t38 -56q62 -57 158 -57q113 0 208.5 57z" />
    <glyph glyph-name="ae" unicode="&#xe6;" horiz-adv-x="1680" 
d="M1506 110q-149 -134 -376 -129q-117 1 -212 53.5t-140 153.5q-77 -101 -189.5 -154.5t-241.5 -53.5q-93 0 -165 33t-112.5 96t-40.5 152q0 16 1 25q9 121 78 199.5t181 114.5q105 34 219 34l253 -1l13 88q3 27 3 52q0 103 -50.5 165.5t-158.5 62.5q-75 0 -140.5 -27
t-110.5 -80t-60 -127l-115 11q13 104 76 177t156.5 110t198.5 37q117 0 204 -53t110 -159q75 98 169.5 155t206.5 57q118 0 198.5 -51t119.5 -138.5t39 -197.5q0 -34 -5 -77l-15 -100h-732l-4 -29q-7 -54 -7 -92q0 -82 23.5 -151t71.5 -117q67 -67 195 -67q161 0 320 117z
M1020.5 895.5q-93.5 -105.5 -138.5 -259.5h613l5 33q4 28 4 62q0 119 -62.5 194.5t-186.5 75.5q-141 0 -234.5 -105.5zM535.5 121q89.5 43 156.5 114l54 301l-239 1q-85 0 -163 -27.5t-132 -85t-63 -142.5q-1 -8 -1 -24q0 -84 57.5 -130.5t148.5 -47.5q92 -2 181.5 41z" />
    <glyph glyph-name="ccedilla" unicode="&#xe7;" horiz-adv-x="1024" 
d="M849 718q2 81 -28 145t-90 100.5t-143 36.5q-113 0 -195.5 -61.5t-130.5 -167.5q-47 -104 -60 -211l-5 -42q-4 -35 -4 -79q0 -86 21 -160t67 -126q64 -72 189 -72q118 0 204 69t116 184l111 1q-18 -103 -79.5 -183.5t-153.5 -126t-197 -46.5l-18 -56q70 -14 102.5 -55
t32.5 -96q0 -40 -16 -78t-40 -59q-48 -41 -118 -60t-147 -22l2 78q81 3 145 32t73 96q1 5 1 14q0 35 -23 53t-48.5 23.5t-78.5 12.5l44 124q-112 20 -182.5 93t-99.5 185q-23 89 -23 179q0 41 4 74l4 43q16 145 81.5 269t173.5 200q51 36 116 55t133 19q82 0 156 -28.5
t125 -84.5q97 -107 91 -273z" />
    <glyph glyph-name="egrave" unicode="&#xe8;" horiz-adv-x="1027" 
d="M578 1535l142 -279h-100l-177 279h135zM865 170q-149 -190 -384 -190q-145 0 -241 74.5t-138 202.5q-30 95 -30 195q0 37 2 56l4 44q15 139 84 266t179 207q54 39 119.5 58.5t131.5 19.5q68 0 128.5 -20t101.5 -56q68 -61 101.5 -153.5t33.5 -200.5q0 -33 -3 -66l-9 -73
h-749l-3 -24q-4 -29 -4 -67q0 -86 27.5 -162.5t82.5 -129.5q71 -69 190 -69q170 0 304 146zM353.5 899.5q-97.5 -106.5 -143.5 -263.5l627 -1l2 15q3 27 3 54q0 78 -27 144.5t-82.5 108t-135.5 43.5q-146 6 -243.5 -100.5z" />
    <glyph glyph-name="eacute" unicode="&#xe9;" horiz-adv-x="1027" 
d="M577 1256l229 279l151 -1l-269 -277zM865 170q-149 -190 -384 -190q-145 0 -241 74.5t-138 202.5q-30 95 -30 195q0 37 2 56l4 44q15 139 84 266t179 207q54 39 119.5 58.5t131.5 19.5q68 0 128.5 -20t101.5 -56q68 -61 101.5 -153.5t33.5 -200.5q0 -33 -3 -66l-9 -73
h-749l-3 -24q-4 -29 -4 -67q0 -86 27.5 -162.5t82.5 -129.5q71 -69 190 -69q170 0 304 146zM353.5 899.5q-97.5 -106.5 -143.5 -263.5l627 -1l2 15q3 27 3 54q0 78 -27 144.5t-82.5 108t-135.5 43.5q-146 6 -243.5 -100.5z" />
    <glyph glyph-name="ecircumflex" unicode="&#xea;" horiz-adv-x="1027" 
d="M727 1525l197 -256l-1 -12l-107 1l-130 181l-194 -180l-109 -1l1 13l270 254h73zM865 170q-149 -190 -384 -190q-145 0 -241 74.5t-138 202.5q-30 95 -30 195q0 37 2 56l4 44q15 139 84 266t179 207q54 39 119.5 58.5t131.5 19.5q68 0 128.5 -20t101.5 -56
q68 -61 101.5 -153.5t33.5 -200.5q0 -33 -3 -66l-9 -73h-749l-3 -24q-4 -29 -4 -67q0 -86 27.5 -162.5t82.5 -129.5q71 -69 190 -69q170 0 304 146zM353.5 899.5q-97.5 -106.5 -143.5 -263.5l627 -1l2 15q3 27 3 54q0 78 -27 144.5t-82.5 108t-135.5 43.5
q-146 6 -243.5 -100.5z" />
    <glyph glyph-name="edieresis" unicode="&#xeb;" horiz-adv-x="1027" 
d="M466 1477q33 0 55.5 -21.5t22.5 -54.5q0 -34 -25.5 -59.5t-60.5 -26.5q-34 0 -56.5 23t-20.5 58q6 80 85 81zM830 1450q25 26 60 27q35 0 57.5 -23.5t20.5 -58.5q-6 -78 -86 -80q-33 0 -55 20.5t-22 53.5q0 35 25 61zM865 170q-149 -190 -384 -190q-145 0 -241 74.5
t-138 202.5q-30 95 -30 195q0 37 2 56l4 44q15 139 84 266t179 207q54 39 119.5 58.5t131.5 19.5q68 0 128.5 -20t101.5 -56q68 -61 101.5 -153.5t33.5 -200.5q0 -33 -3 -66l-9 -73h-749l-3 -24q-4 -29 -4 -67q0 -86 27.5 -162.5t82.5 -129.5q71 -69 190 -69q170 0 304 146z
M353.5 899.5q-97.5 -106.5 -143.5 -263.5l627 -1l2 15q3 27 3 54q0 78 -27 144.5t-82.5 108t-135.5 43.5q-146 6 -243.5 -100.5z" />
    <glyph glyph-name="igrave" unicode="&#xec;" horiz-adv-x="442" 
d="M263 1522l142 -279h-100l-177 279h135zM365 1082l-188 -1082h-120l189 1082h119z" />
    <glyph glyph-name="iacute" unicode="&#xed;" horiz-adv-x="442" 
d="M262 1243l229 279l151 -1l-269 -277zM365 1082l-188 -1082h-120l189 1082h119z" />
    <glyph glyph-name="icircumflex" unicode="&#xee;" horiz-adv-x="442" 
d="M413 1512l197 -256l-1 -12l-107 1l-130 181l-194 -180l-109 -1l1 13l270 254h73zM365 1082l-188 -1082h-120l189 1082h119z" />
    <glyph glyph-name="idieresis" unicode="&#xef;" horiz-adv-x="442" 
d="M152 1464q33 0 55.5 -21.5t22.5 -54.5q0 -34 -25.5 -59.5t-60.5 -26.5q-34 0 -56.5 23t-20.5 58q6 80 85 81zM516 1437q25 26 60 27q35 0 57.5 -23.5t20.5 -58.5q-6 -78 -86 -80q-33 0 -55 20.5t-22 53.5q0 35 25 61zM365 1082l-188 -1082h-120l189 1082h119z" />
    <glyph glyph-name="eth" unicode="&#xf0;" horiz-adv-x="1156" 
d="M302.5 36q-89.5 57 -136.5 154t-47 214q0 27 3 54q15 139 78 255t168 186q103 68 233 68q101 0 189 -39q80 -36 135 -106q2 242 -124 417l-242 -139l-39 80l221 125q-108 104 -303 171l47 103q227 -77 362 -211l213 121l40 -79l-192 -108q133 -209 133 -485
q0 -70 -8 -147q-16 -152 -41 -240q-65 -230 -192.5 -340.5t-285.5 -110.5q-122 0 -211.5 57zM239 406q0 -87 32 -160.5t96 -118t156 -44.5q110 0 188.5 68t126.5 182q44 108 58 209l18 144q-32 88 -109.5 132t-177.5 44q-110 0 -193 -55t-131.5 -147t-60.5 -202
q-3 -25 -3 -52z" />
    <glyph glyph-name="ntilde" unicode="&#xf1;" horiz-adv-x="1092" 
d="M1039 1494q-12 -91 -66 -153t-143 -62q-54 0 -95 29l-80 57q-38 27 -88 27q-94 -1 -126 -119l-91 4q14 91 68.5 152t142.5 61q53 0 93 -28l82 -58q39 -27 86 -27q98 0 132 122zM439 928.5q-87 -71.5 -147 -183.5l-128 -745h-119l188 1082h115l-36 -183q69 94 160 148.5
t200 54.5q151 0 221 -88t70 -234q0 -40 -4 -75l-119 -705h-119l118 706q4 46 4 67q0 227 -205 227q-112 0 -199 -71.5z" />
    <glyph glyph-name="ograve" unicode="&#xf2;" horiz-adv-x="1114" 
d="M584 1534l142 -279h-100l-177 279h135zM80 551q18 147 88 273.5t183 203.5q55 37 122.5 56t137.5 19q74 0 140.5 -21t113.5 -62q78 -68 117.5 -171t39.5 -223q0 -33 -3 -66l-6 -49q-19 -144 -91 -266t-184 -195q-54 -35 -119.5 -53t-132.5 -18q-74 0 -140.5 21t-113.5 62
q-78 67 -118 169t-40 220q0 34 3 67zM196 518q-3 -31 -3 -64q0 -89 25.5 -167.5t77.5 -133.5q33 -35 84.5 -53t110.5 -18q54 0 105.5 15.5t93.5 46.5q86 63 139 166t68 217l3 32q3 32 3 64q0 90 -25.5 170t-77.5 135q-33 35 -85 54t-110 19q-54 0 -105.5 -16t-92.5 -47
q-85 -65 -138 -166.5t-68 -214.5z" />
    <glyph glyph-name="oacute" unicode="&#xf3;" horiz-adv-x="1114" 
d="M582 1255l229 279l151 -1l-269 -277zM80 551q18 147 88 273.5t183 203.5q55 37 122.5 56t137.5 19q74 0 140.5 -21t113.5 -62q78 -68 117.5 -171t39.5 -223q0 -33 -3 -66l-6 -49q-19 -144 -91 -266t-184 -195q-54 -35 -119.5 -53t-132.5 -18q-74 0 -140.5 21t-113.5 62
q-78 67 -118 169t-40 220q0 34 3 67zM196 518q-3 -31 -3 -64q0 -89 25.5 -167.5t77.5 -133.5q33 -35 84.5 -53t110.5 -18q54 0 105.5 15.5t93.5 46.5q86 63 139 166t68 217l3 32q3 32 3 64q0 90 -25.5 170t-77.5 135q-33 35 -85 54t-110 19q-54 0 -105.5 -16t-92.5 -47
q-85 -65 -138 -166.5t-68 -214.5z" />
    <glyph glyph-name="ocircumflex" unicode="&#xf4;" horiz-adv-x="1114" 
d="M733 1524l197 -256l-1 -12l-107 1l-130 181l-194 -180l-109 -1l1 13l270 254h73zM80 551q18 147 88 273.5t183 203.5q55 37 122.5 56t137.5 19q74 0 140.5 -21t113.5 -62q78 -68 117.5 -171t39.5 -223q0 -33 -3 -66l-6 -49q-19 -144 -91 -266t-184 -195
q-54 -35 -119.5 -53t-132.5 -18q-74 0 -140.5 21t-113.5 62q-78 67 -118 169t-40 220q0 34 3 67zM196 518q-3 -31 -3 -64q0 -89 25.5 -167.5t77.5 -133.5q33 -35 84.5 -53t110.5 -18q54 0 105.5 15.5t93.5 46.5q86 63 139 166t68 217l3 32q3 32 3 64q0 90 -25.5 170
t-77.5 135q-33 35 -85 54t-110 19q-54 0 -105.5 -16t-92.5 -47q-85 -65 -138 -166.5t-68 -214.5z" />
    <glyph glyph-name="otilde" unicode="&#xf5;" horiz-adv-x="1114" 
d="M1024 1494q-12 -91 -66 -153t-143 -62q-54 0 -95 29l-80 57q-37 27 -88 27q-94 -1 -126 -119l-91 4q14 91 68.5 152t142.5 61q53 0 93 -28l82 -58q39 -27 86 -27q98 0 132 122zM80 551q18 147 88 273.5t183 203.5q55 37 122.5 56t137.5 19q74 0 140.5 -21t113.5 -62
q78 -68 117.5 -171t39.5 -223q0 -33 -3 -66l-6 -49q-19 -144 -91 -266t-184 -195q-54 -35 -119.5 -53t-132.5 -18q-74 0 -140.5 21t-113.5 62q-78 67 -118 169t-40 220q0 34 3 67zM196 518q-3 -31 -3 -64q0 -89 25.5 -167.5t77.5 -133.5q33 -35 84.5 -53t110.5 -18
q54 0 105.5 15.5t93.5 46.5q86 63 139 166t68 217l3 32q3 32 3 64q0 90 -25.5 170t-77.5 135q-33 35 -85 54t-110 19q-54 0 -105.5 -16t-92.5 -47q-85 -65 -138 -166.5t-68 -214.5z" />
    <glyph glyph-name="odieresis" unicode="&#xf6;" horiz-adv-x="1114" 
d="M472 1476q33 0 55.5 -21.5t22.5 -54.5q0 -34 -25.5 -59.5t-60.5 -26.5q-34 0 -56.5 23t-20.5 58q6 80 85 81zM836 1449q25 26 60 27q35 0 57.5 -23.5t20.5 -58.5q-6 -78 -86 -80q-33 0 -55 20.5t-22 53.5q0 35 25 61zM80 551q18 147 88 273.5t183 203.5q55 37 122.5 56
t137.5 19q74 0 140.5 -21t113.5 -62q78 -68 117.5 -171t39.5 -223q0 -33 -3 -66l-6 -49q-19 -144 -91 -266t-184 -195q-54 -35 -119.5 -53t-132.5 -18q-74 0 -140.5 21t-113.5 62q-78 67 -118 169t-40 220q0 34 3 67zM196 518q-3 -31 -3 -64q0 -89 25.5 -167.5t77.5 -133.5
q33 -35 84.5 -53t110.5 -18q54 0 105.5 15.5t93.5 46.5q86 63 139 166t68 217l3 32q3 32 3 64q0 90 -25.5 170t-77.5 135q-33 35 -85 54t-110 19q-54 0 -105.5 -16t-92.5 -47q-85 -65 -138 -166.5t-68 -214.5z" />
    <glyph glyph-name="divide" unicode="&#xf7;" horiz-adv-x="1129" 
d="M589 1145.5q26 27.5 64 27.5q34 0 56 -22.5t22 -55.5q0 -36 -27.5 -62.5t-63.5 -26.5q-33 0 -55 21t-22 54q0 37 26 64.5zM1067 761l-21 -117h-971l21 117h971zM451 349q26 27 64 27q34 0 56 -22t22 -55q0 -37 -27 -63.5t-64 -26.5q-33 0 -55 21.5t-22 54.5q0 37 26 64z
" />
    <glyph glyph-name="oslash" unicode="&#xf8;" horiz-adv-x="1107" 
d="M266 22l-106 -162l-99 1l138 204q-131 130 -131 363q0 42 5 94q22 176 97.5 307.5t192 202.5t258.5 71q114 0 212 -49l107 160l99 -1l-139 -205q120 -129 120 -353q0 -43 -5 -95q-22 -176 -97.5 -308t-192.5 -203t-259 -71q-104 0 -200 44zM258 164l517 797
q-33 20 -76.5 31t-90.5 11q-52 0 -103 -15.5t-95 -47.5q-87 -65 -143 -168t-72 -217q-9 -73 -9 -136q0 -48 4 -83q11 -97 68 -172zM839 906l-514 -793q67 -34 145 -34q136 0 239.5 87.5t155.5 243.5q39 117 39 244q0 46 -4 85q-10 91 -61 167z" />
    <glyph glyph-name="ugrave" unicode="&#xf9;" horiz-adv-x="1091" 
d="M597 1536l142 -279h-100l-177 279h135zM723 0l29 137q-63 -78 -153 -118t-183 -40q-88 0 -158.5 34t-100.5 94q-48 96 -48 215q0 22 4 68l116 692h119l-115 -695q-4 -44 -4 -65q0 -103 44 -169t146 -69q72 -3 145 21t129 73t78 118l135 786h120l-188 -1082h-115z" />
    <glyph glyph-name="uacute" unicode="&#xfa;" horiz-adv-x="1091" 
d="M596 1257l229 279l151 -1l-269 -277zM723 0l29 137q-63 -78 -153 -118t-183 -40q-88 0 -158.5 34t-100.5 94q-48 96 -48 215q0 22 4 68l116 692h119l-115 -695q-4 -44 -4 -65q0 -103 44 -169t146 -69q72 -3 145 21t129 73t78 118l135 786h120l-188 -1082h-115z" />
    <glyph glyph-name="ucircumflex" unicode="&#xfb;" horiz-adv-x="1091" 
d="M747 1526l197 -256l-1 -12l-107 1l-130 181l-194 -180l-109 -1l1 13l270 254h73zM723 0l29 137q-63 -78 -153 -118t-183 -40q-88 0 -158.5 34t-100.5 94q-48 96 -48 215q0 22 4 68l116 692h119l-115 -695q-4 -44 -4 -65q0 -103 44 -169t146 -69q72 -3 145 21t129 73
t78 118l135 786h120l-188 -1082h-115z" />
    <glyph glyph-name="udieresis" unicode="&#xfc;" horiz-adv-x="1091" 
d="M486 1478q33 0 55.5 -21.5t22.5 -54.5q0 -34 -25.5 -59.5t-60.5 -26.5q-34 0 -56.5 23t-20.5 58q6 80 85 81zM850 1451q25 26 60 27q35 0 57.5 -23.5t20.5 -58.5q-6 -78 -86 -80q-33 0 -55 20.5t-22 53.5q0 35 25 61zM723 0l29 137q-63 -78 -153 -118t-183 -40
q-88 0 -158.5 34t-100.5 94q-48 96 -48 215q0 22 4 68l116 692h119l-115 -695q-4 -44 -4 -65q0 -103 44 -169t146 -69q72 -3 145 21t129 73t78 118l135 786h120l-188 -1082h-115z" />
    <glyph glyph-name="yacute" unicode="&#xfd;" horiz-adv-x="945" 
d="M539 1257l229 279l151 -1l-269 -277zM343 -175q-59 -121 -136.5 -193t-192.5 -72q-47 0 -102 15l12 99l60 -8q93 -3 155 48.5t109 147.5l79 155l-210 1065h124l168 -906l462 906h133z" />
    <glyph glyph-name="thorn" unicode="&#xfe;" horiz-adv-x="1116" 
d="M330 18q-84 39 -135 119l-100 -553h-118l339 1952h118l-112 -604q71 88 159.5 129.5t178.5 41.5q74 0 136 -25t97 -67q55 -65 80 -157t25 -197q0 -53 -6 -104q-47 -341 -236 -495q-97 -79 -240 -79q-102 0 -186 39zM442.5 944.5q-81.5 -55.5 -139.5 -153.5l-87 -521
q35 -98 108 -144t161 -46q59 0 113 18.5t89 49.5q76 65 121 167.5t61 217.5l2 20q7 58 7 105q0 77 -16.5 146t-52.5 119q-54 77 -180 77q-105 0 -186.5 -55.5z" />
    <glyph glyph-name="ydieresis" unicode="&#xff;" horiz-adv-x="945" 
d="M428 1478q33 0 55.5 -21.5t22.5 -54.5q0 -34 -25.5 -59.5t-60.5 -26.5q-34 0 -56.5 23t-20.5 58q6 80 85 81zM792 1451q25 26 60 27q35 0 57.5 -23.5t20.5 -58.5q-6 -78 -86 -80q-33 0 -55 20.5t-22 53.5q0 35 25 61zM343 -175q-59 -121 -136.5 -193t-192.5 -72
q-47 0 -102 15l12 99l60 -8q93 -3 155 48.5t109 147.5l79 155l-210 1065h124l168 -906l462 906h133z" />
    <glyph glyph-name="dotlessi" unicode="&#x131;" horiz-adv-x="442" 
d="M365 1082l-188 -1082h-120l189 1082h119z" />
    <glyph glyph-name="OE" unicode="&#x152;" horiz-adv-x="1856" 
d="M1663 104l-19 -104h-812l-231 -18l-73 -1q-158 3 -261.5 87t-145.5 225q-27 90 -27 185q0 40 7 98l46 293q29 184 115 321.5t216 212.5t288 75l67 -2l236 -20h823l-18 -105h-754l-95 -548h660l-19 -105h-659l-103 -594h759zM222 575q-6 -46 -6 -95q0 -95 27 -177.5
t82 -139.5q43 -45 106 -63t147 -18q68 0 200 13l223 1267l-26 3q-119 17 -190 17q-108 0 -199.5 -34t-161.5 -121q-123 -152 -155 -352z" />
    <glyph glyph-name="oe" unicode="&#x153;" horiz-adv-x="1835" 
d="M1654 116q-72 -69 -166.5 -102t-200.5 -33q-87 0 -163.5 32.5t-131.5 93.5t-80 142q-78 -125 -189 -197t-250 -72q-150 0 -244 77t-130 210q-24 87 -24 178q0 42 4 77l4 33q18 146 90 272t185 202q55 37 119.5 55.5t131.5 18.5q69 0 134.5 -19.5t117.5 -55.5
q102 -71 137 -197q77 123 183.5 197.5t237.5 74.5q117 0 198 -51.5t121 -140t40 -198.5q0 -40 -4 -73l-15 -102h-739l-5 -29q-6 -39 -6 -78q0 -80 24 -153t71 -124q66 -72 189 -72q177 0 319 118zM1178 896q-95 -105 -143 -256h620l5 30q4 25 4 55q0 76 -29 139t-86 100
t-139 37q-137 0 -232 -105zM192 443q0 -85 23.5 -161.5t72.5 -129.5q31 -33 81.5 -53t109.5 -20q71 0 141.5 31t128.5 96q116 131 144 353q5 42 5 77q0 85 -23.5 161.5t-72.5 130.5q-32 35 -83 54t-110 19q-54 0 -106.5 -16.5t-94.5 -48.5q-88 -67 -142 -175t-70 -244
q-4 -32 -4 -74z" />
    <glyph glyph-name="circumflex" unicode="&#x2c6;" horiz-adv-x="854" 
d="M615 1526l197 -256l-1 -12l-107 1l-130 181l-194 -180l-109 -1l1 13l270 254h73z" />
    <glyph glyph-name="ring" unicode="&#x2da;" horiz-adv-x="617" 
d="M279 1483.5q27 47.5 73 75.5t100 28q49 0 89.5 -24t63.5 -65t23 -89q0 -55 -27 -101t-73 -73.5t-101 -27.5q-49 0 -89 23t-63 63t-23 88q0 55 27 102.5zM327 1376q0 -40 26.5 -68t67.5 -28q36 0 66 19t47.5 50t17.5 66q0 41 -26 70t-68 29q-33 0 -62 -17.5t-47.5 -46.5
t-20.5 -61q-1 -4 -1 -13z" />
    <glyph glyph-name="tilde" unicode="&#x2dc;" horiz-adv-x="865" 
d="M894 1486q-12 -91 -66 -153t-143 -62q-54 0 -95 29l-80 57q-37 27 -88 27q-94 -1 -126 -119l-91 4q14 91 68.5 152t142.5 61q53 0 93 -28l82 -58q39 -27 86 -27q98 0 132 122z" />
    <glyph glyph-name="uni0531" unicode="&#x531;" horiz-adv-x="1591" 
d="M1379 -33l-262 291q-75 -136 -209.5 -207t-299.5 -71q-132 0 -234 44t-160 132.5t-58 215.5q0 44 8 98l169 1066h122l-169 -1066q-7 -41 -7 -82q0 -147 90.5 -225.5t244.5 -78.5q115 0 210 44t158 131t83 211l169 1066h123l-169 -1066q-7 -44 -20 -90l235 -262z" />
    <glyph glyph-name="uni0532" unicode="&#x532;" horiz-adv-x="1379" 
d="M1136 1066q7 41 7 82q0 147 -90.5 225.5t-245.5 78.5q-114 0 -209 -44t-158.5 -131t-82.5 -211l-80 -507h967l-16 -105h-968l-72 -454h-122l73 458l15 101h1l80 507q25 160 106 270t202.5 165t269.5 55q130 0 233 -44.5t162 -133.5t59 -217q0 -42 -8 -95l-26 -160h-123z
" />
    <glyph glyph-name="uni0533" unicode="&#x533;" horiz-adv-x="1601" 
d="M1520 534h-313l-85 -534h-122l95 600l1 5q-85 -87 -197.5 -135t-241.5 -48q-144 0 -253 53t-168.5 152.5t-59.5 235.5q0 55 8 103l7 46q26 166 112.5 289t219 189t293.5 66q143 0 250.5 -52.5t166 -151.5t58.5 -234q0 -50 -9 -106l-3 -21l-56 -352h313zM988 638
q124 108 160 297l9 56l4 26q9 54 9 102q0 157 -91 243t-270 86q-208 0 -335.5 -114t-159.5 -317l-9 -60q-8 -53 -8 -94q0 -156 93.5 -244.5t273.5 -88.5q200 0 324 108z" />
    <glyph glyph-name="uni0534" unicode="&#x534;" horiz-adv-x="1558" 
d="M1477 534h-312l-85 -534h-123l93 589l8 50l68 427q7 41 7 82q0 147 -90.5 225.5t-245.5 78.5q-114 0 -209 -44t-158.5 -131t-82.5 -211l-65 -410h-122l65 410q25 160 106 270t202.5 165t269.5 55q130 0 233 -44.5t162 -133.5t59 -217q0 -42 -8 -95l-68 -427h312z" />
    <glyph glyph-name="uni0535" unicode="&#x535;" horiz-adv-x="1385" 
d="M286 470q-7 -41 -7 -82q0 -147 90.5 -225.5t244.5 -78.5q115 0 210 44t158 131t83 211l26 160h123l-26 -160q-25 -159 -107.5 -269.5t-205 -165.5t-267.5 -55q-132 0 -234 44t-160 132.5t-58 215.5q0 44 8 98l96 608l1 4l72 454h122l-72 -454h968l-16 -105h-969z" />
    <glyph glyph-name="uni0536" unicode="&#x536;" horiz-adv-x="1393" 
d="M1158 658.5q-116 -134.5 -238.5 -205t-210.5 -100.5h176q311 0 311 -262q0 -38 -8 -89v-2h-122q5 33 5 59q0 90 -55 139.5t-174 49.5h-634l-39 -248h-122l95 599h122l-39 -246h212q136 38 286 105.5t290 204t171 338.5q8 47 8 101q0 107 -40 186t-118 121.5t-187 42.5
q-192 0 -316.5 -102.5t-159.5 -320.5l-13 -83h-122l13 85q84 525 604 525q151 0 254 -54.5t155 -155t52 -236.5q0 -64 -10 -127q-30 -190 -146 -324.5z" />
    <glyph glyph-name="uni0537" unicode="&#x537;" horiz-adv-x="1231" 
d="M376 977l-138 -872h324q165 0 249 -57.5t84 -170.5q0 -23 -5 -56h-123q3 16 3 32q0 71 -57 109t-168 38h-447l166 1052l5 30l72 454h123l-72 -454h815l-16 -105h-815z" />
    <glyph glyph-name="uni0538" unicode="&#x538;" horiz-adv-x="1404" 
d="M1049 1512q102 -44 160 -132.5t58 -215.5q0 -44 -8 -98l-65 -410h-122l65 410q7 41 7 82q0 147 -90.5 225.5t-244.5 78.5q-115 0 -210 -44t-158 -131t-83 -211l-152 -961h967l-17 -105h-1090l169 1066q25 159 107.5 269.5t205 165.5t267.5 55q132 0 234 -44z" />
    <glyph glyph-name="uni0539" unicode="&#x539;" horiz-adv-x="1855" 
d="M1780 837l-17 -105h-227l-50 -312q-32 -203 -149 -321.5t-341 -118.5q-122 0 -210 41t-135 117t-47 179q0 38 6 78l4 28q20 126 85.5 219.5t171 144t241.5 50.5h318l32 204q5 33 5 57q0 108 -64.5 188t-177 123t-252.5 43q-154 0 -289 -50t-224 -143.5t-108 -217.5
l-165 -1041h-123l165 1041q25 160 130.5 276.5t266.5 177.5t353 61q179 0 317.5 -51.5t216.5 -150t78 -234.5q0 -38 -6 -79l-32 -204h227zM1413 732h-308q-105 0 -183 -43t-125.5 -117t-62.5 -167q-6 -36 -6 -68q0 -115 69 -184t205 -69q156 0 246.5 91t114.5 245z" />
    <glyph glyph-name="uni053A" unicode="&#x53a;" horiz-adv-x="1542" 
d="M1502 977h-314l-69 -437q-29 -185 -93 -308t-177.5 -187.5t-285.5 -64.5q-142 0 -244.5 50.5t-156 146t-53.5 226.5q0 54 9 112l5 32q26 165 105 285.5t207.5 185t298.5 64.5h348l72 454h123l-72 -454h313zM1065 977h-337q-203 0 -327 -116t-158 -331q-10 -67 -10 -114
q0 -160 85 -246t248 -86q137 0 224 53t134.5 152.5t71.5 250.5z" />
    <glyph glyph-name="uni053B" unicode="&#x53b;" horiz-adv-x="1374" 
d="M1018.5 1135.5q102.5 -44.5 161.5 -133.5t59 -217q0 -42 -8 -95l-48 -306h-123l48 306q7 41 7 83q0 147 -90.5 225t-245.5 78q-107 0 -200.5 -49t-159 -138.5t-90.5 -206.5l-108 -682h-123l243 1536h123l-85 -535q82 84 187.5 131.5t219.5 47.5q130 0 232.5 -44.5z" />
    <glyph glyph-name="uni053C" unicode="&#x53c;" horiz-adv-x="1135" 
d="M940.5 44q93.5 -61 93.5 -176q0 -26 -4 -47h-123q2 16 2 24q0 73 -71.5 114t-196.5 41h-543l243 1536h123l-226 -1431h445q164 0 257.5 -61z" />
    <glyph glyph-name="uni053D" unicode="&#x53d;" horiz-adv-x="1806" 
d="M1719 1082l-97 -612q-25 -159 -99.5 -269t-182 -165.5t-231.5 -55.5q-112 0 -199 43t-137 129t-50 210q0 51 9 108l80 507h-436l-155 -977h-123l166 1052l5 30l72 454h123l-72 -454h560l-97 -612q-8 -47 -8 -99q0 -140 71 -213.5t197 -73.5q98 0 177.5 44t133 130.5
t73.5 211.5l97 612h123z" />
    <glyph glyph-name="uni053E" unicode="&#x53e;" horiz-adv-x="1605" 
d="M1657 1196h-383q77 -62 117.5 -156t40.5 -213q0 -59 -10 -118l-22 -138q-28 -179 -116.5 -312.5t-225 -206t-307.5 -72.5q-150 0 -261.5 57.5t-172.5 164.5t-61 251q0 47 8 105l24 151q25 160 100.5 285t190.5 202h-60q-105 0 -182.5 34t-119 97.5t-41.5 148.5q0 25 5 60
h123q-3 -18 -3 -34q0 -58 31.5 -103.5t90.5 -71.5t138 -26h1113zM1309 821q0 176 -97.5 274t-280.5 98q-136 0 -245.5 -59t-180.5 -168t-94 -257l-21 -137q-9 -58 -9 -110q0 -117 44.5 -201t129 -128.5t203.5 -44.5q140 0 249 58.5t178.5 167.5t93.5 258l21 137q9 59 9 112z
" />
    <glyph glyph-name="uni053F" unicode="&#x53f;" horiz-adv-x="1387" 
d="M1246 898l-142 -898h-123l84 534q-81 -84 -186 -131t-220 -47q-130 0 -232.5 44.5t-161.5 133.5t-59 217q0 42 8 95l109 690h123l-109 -690q-7 -41 -7 -82q0 -147 90.5 -225.5t245.5 -78.5q107 0 200 49t158.5 138t91.5 205l36 230h123l-15 -96z" />
    <glyph glyph-name="uni0540" unicode="&#x540;" horiz-adv-x="1269" 
d="M231 1536h463q217 0 326 -76t109 -240q0 -44 -7 -87q-10 -64 -46 -130.5t-91.5 -122.5t-121.5 -90q99 -42 143.5 -104.5t44.5 -151.5q0 -30 -7 -77l-72 -458h-123l69 438q6 35 6 66q0 117 -85.5 178t-270.5 61h-413l17 105h413q188 0 290.5 76t124.5 213q4 25 4 54
q0 111 -80.5 176t-245.5 65h-463z" />
    <glyph glyph-name="uni0541" unicode="&#x541;" horiz-adv-x="1456" 
d="M1152 1489.5q111 -66.5 160 -176.5t49 -248q0 -65 -11 -137l-5 -29q-26 -166 -98.5 -316t-179.5 -272q65 -85 145 -220q19 -33 25 -41l-86 -75q-6 8 -12.5 19t-13.5 23q-78 131 -138 212q-127 -118 -275 -183.5t-296 -65.5q-102 0 -185.5 30.5t-133 93t-49.5 154.5
q0 24 5 57q17 111 82 187.5t161 114t207 37.5q257 0 489 -253q89 107 148.5 233t80.5 255l4 29q11 68 11 129q0 177 -89.5 290.5t-286.5 113.5q-155 0 -265.5 -47.5t-173 -130.5t-80.5 -192l-5 -33h-123l5 35q21 132 97 238.5t214.5 170.5t336.5 64q175 0 286 -66.5z
M676 146.5q128 61.5 239 170.5q-207 232 -419 232q-76 0 -144.5 -26.5t-116 -79.5t-59.5 -128q-3 -19 -3 -37q0 -62 33.5 -105.5t90 -65.5t125.5 -22q126 0 254 61.5z" />
    <glyph glyph-name="uni0542" unicode="&#x542;" horiz-adv-x="1609" 
d="M1409 105l-17 -105h-435l169 1066q7 41 7 82q0 147 -90.5 225.5t-245.5 78.5q-114 0 -209 -44t-158.5 -131t-82.5 -211l-65 -410h-122l65 410q25 160 106 270t202.5 165t269.5 55q130 0 233 -44.5t162 -133.5t59 -217q0 -42 -8 -95l-152 -961h312z" />
    <glyph glyph-name="uni0543" unicode="&#x543;" horiz-adv-x="1610" 
d="M578 1082h325q170 0 287 -60t175.5 -167t58.5 -247q0 -56 -9 -116l-78 -492h-1123l7 46l84 527q35 227 104 404h-270l16 105h299q115 239 291.5 356.5t401.5 117.5q109 0 203.5 -16t158 -34.5t63.5 -20.5l-32 -107q0 2 -59.5 21.5t-150.5 36t-199 16.5q-367 0 -553 -370z
M531 977q-66 -175 -103 -404l-75 -468h878l56 358q11 69 11 127q0 183 -107.5 285t-333.5 102h-326z" />
    <glyph glyph-name="uni0544" unicode="&#x544;" horiz-adv-x="1535" 
d="M1654 1431h-314l-152 -961q-25 -160 -106 -270t-202.5 -165t-269.5 -55q-130 0 -233 44.5t-162 133.5t-59 217q0 42 8 95l169 1066h123l-169 -1066q-7 -41 -7 -82q0 -147 90.5 -225.5t245.5 -78.5q114 0 209 44t158.5 131t82.5 211l169 1066h435z" />
    <glyph glyph-name="uni0545" unicode="&#x545;" horiz-adv-x="1419" 
d="M146 732l17 105h584q203 0 316 80.5t135 218.5q4 24 4 52q0 78 -40 137.5t-122.5 93.5t-206.5 34q-108 0 -206 -40.5t-163.5 -113.5t-80.5 -166h-123q20 128 103.5 224t208.5 148t268 52q150 0 259 -40t168 -118.5t59 -191.5q0 -36 -6 -75q-18 -114 -104 -205.5
t-225 -138.5q127 -35 192 -109.5t65 -186.5q0 -34 -6 -72q-22 -137 -107 -236.5t-220 -151.5t-305 -52q-145 0 -258.5 45t-177 130.5t-63.5 201.5q0 35 6 71h123q-4 -23 -4 -49q0 -84 46.5 -151t133 -105.5t200.5 -38.5q141 0 249 41.5t173 116t81 173.5q5 35 5 60
q0 131 -103.5 194t-297.5 63h-577z" />
    <glyph glyph-name="uni0546" unicode="&#x546;" horiz-adv-x="1624" 
d="M1453 880l-65 -410q-25 -160 -106 -270t-202.5 -165t-269.5 -55q-130 0 -233 44.5t-162 133.5t-59 217q0 42 8 95l152 961h-311l16 105h435l-16 -105h-1l-152 -961q-7 -41 -7 -82q0 -147 90.5 -225.5t245.5 -78.5q114 0 209 44t158.5 131t82.5 211l65 410h122z" />
    <glyph glyph-name="uni0547" unicode="&#x547;" horiz-adv-x="1447" 
d="M682.5 1077q-135.5 -53 -258.5 -178t-158 -333q-8 -43 -8 -95q0 -110 45 -198t130.5 -138.5t203.5 -50.5q134 0 237.5 51.5t168.5 147t86 224.5l4 23h122l-4 -25q-40 -253 -199 -389t-421 -136q-155 0 -267 57t-171 162t-59 247q0 60 10 120q37 230 163 371.5t258.5 202
t245.5 85.5l-376 210l19 121l915 -511l-19 -121l-407 227q-125 -21 -260.5 -74z" />
    <glyph glyph-name="uni0548" unicode="&#x548;" horiz-adv-x="1373" 
d="M1143 1148q0 147 -90.5 225.5t-245.5 78.5q-114 0 -209 -44t-158.5 -131t-82.5 -211l-169 -1066h-122l169 1066q25 160 106 270t202.5 165t269.5 55q130 0 233 -44.5t162 -133.5t59 -217q0 -42 -8 -95l-169 -1066h-123l169 1066q7 41 7 82z" />
    <glyph glyph-name="uni0549" unicode="&#x549;" horiz-adv-x="1444" 
d="M1243.5 1447.5q132.5 -108.5 132.5 -314.5q0 -53 -9 -113q-39 -239 -172 -397t-266 -231.5t-241 -109.5l375 -209l-20 -121l-915 511l19 121l395 -221q125 28 263 89t269.5 201t170.5 367q8 50 8 88q0 105 -46 182.5t-133.5 119.5t-208.5 42q-134 0 -237.5 -51.5
t-168.5 -147t-86 -224.5l-4 -23h-122l4 25q40 253 199 389t421 136q240 0 372.5 -108.5z" />
    <glyph glyph-name="uni054A" unicode="&#x54a;" horiz-adv-x="1693" 
d="M1288.5 1503q138.5 -53 215 -153t76.5 -237q0 -33 -7 -82l-163 -1031h-123l163 1031q5 37 5 63q0 100 -53 177.5t-150 123.5t-228 55l-158 -997h-123l158 997q-147 -9 -267.5 -63.5t-197.5 -146t-96 -209.5l-43 -273h-123l43 273q26 162 126 280.5t260.5 181.5t363.5 63
q183 0 321.5 -53z" />
    <glyph glyph-name="uni054B" unicode="&#x54b;" horiz-adv-x="1399" 
d="M1172.5 676q-109.5 -139 -223 -212.5t-202.5 -110.5h144q311 0 311 -262q0 -38 -8 -89v-2h-122q5 33 5 59q0 90 -55 139.5t-174 49.5h-641l-39 -248h-122l92 579h122l-36 -226h257l20 6q9 3 22.5 7t30.5 10q71 74 71 147q0 103 -149 178q-75 38 -121.5 70.5t-79 87
t-32.5 135.5q0 33 6 70q38 232 189.5 362t405.5 130q149 0 257 -57t164 -158.5t56 -231.5q0 -46 -8 -100q-31 -194 -140.5 -333zM1022.5 668.5q133.5 139.5 168.5 340.5q8 51 8 93q0 99 -38.5 177t-120 123.5t-203.5 45.5q-404 0 -465 -384q-5 -33 -5 -55q0 -57 22.5 -94.5
t57.5 -62t101 -60.5l43 -23q154 -85 154 -206q0 -53 -32 -120q176 86 309.5 225.5z" />
    <glyph glyph-name="uni054C" unicode="&#x54c;" horiz-adv-x="1568" 
d="M1487 534h-312l-85 -534h-123l93 589l8 50l68 427q7 41 7 82q0 147 -90.5 225.5t-245.5 78.5q-114 0 -209 -44t-158.5 -131t-82.5 -211l-169 -1066h-122l169 1066q25 160 106 270t202.5 165t269.5 55q130 0 233 -44.5t162 -133.5t59 -217q0 -42 -8 -95l-68 -427h312z" />
    <glyph glyph-name="uni054D" unicode="&#x54d;" horiz-adv-x="1372" 
d="M1234 1536h123l-169 -1066q-25 -159 -107.5 -269.5t-205 -165.5t-267.5 -55q-132 0 -234 44t-160 132.5t-58 215.5q0 44 8 98l169 1066h122l-169 -1066q-7 -41 -7 -82q0 -147 90.5 -225.5t244.5 -78.5q115 0 210 44t158 131t83 211z" />
    <glyph glyph-name="uni054E" unicode="&#x54e;" horiz-adv-x="1609" 
d="M1409 105l-17 -105h-435l84 534q-81 -84 -186 -131t-220 -47q-130 0 -232.5 45t-161.5 134t-59 217q0 41 8 94l37 236h123l-37 -236q-7 -41 -7 -82q0 -147 90.5 -225.5t245.5 -78.5q107 0 200.5 49t159 138.5t90.5 206.5l108 682h123l-78 -490h1l-20 -121l-129 -820h312z
" />
    <glyph glyph-name="uni054F" unicode="&#x54f;" horiz-adv-x="1280" 
d="M1006 437q0 68 -33.5 118t-107 90.5t-199.5 79.5q-137 43 -226.5 90.5t-138.5 115t-49 161.5q0 31 6 67q18 117 93.5 207t193 140t259.5 50q136 0 235.5 -46t152.5 -129t53 -192q0 -35 -6 -73h-123q5 37 5 63q0 83 -38 144.5t-112 94.5t-178 33q-116 0 -205 -39.5
t-141.5 -105.5t-64.5 -144q-3 -21 -3 -42q0 -108 89.5 -173t256.5 -115q137 -41 225.5 -91t134.5 -120t46 -166q0 -36 -6 -75q-19 -123 -95 -213.5t-195 -138.5t-264 -48q-140 0 -249.5 45t-172.5 134t-63 215q0 43 7 85h124q-6 -39 -6 -74q0 -148 99 -224.5t267 -76.5
q113 0 204.5 37t148.5 104t71 153q5 35 5 59z" />
    <glyph glyph-name="uni0550" unicode="&#x550;" horiz-adv-x="1390" 
d="M189 0h-123l169 1066q25 159 107.5 269.5t205 165.5t267.5 55q132 0 234 -44t160 -132.5t58 -215.5q0 -44 -8 -98l-65 -410h-122l65 410q7 41 7 82q0 147 -90.5 225.5t-244.5 78.5q-115 0 -210 -44t-158 -131t-83 -211z" />
    <glyph glyph-name="uni0551" unicode="&#x551;" horiz-adv-x="1419" 
d="M163 838h269q-35 31 -52.5 88t-17.5 127q0 46 8 96q31 196 150.5 301.5t326.5 105.5q183 0 278.5 -84t95.5 -244q0 -43 -8 -99q-17 -108 -74 -195t-152 -141q261 -73 261 -301q0 -34 -6 -72q-22 -137 -107 -236.5t-220 -151.5t-305 -52q-145 0 -258.5 45t-177 130.5
t-63.5 201.5q0 35 6 71h123q-4 -23 -4 -49q0 -84 46.5 -151t133 -105.5t200.5 -38.5q141 0 249 41.5t173 116t81 173.5q5 28 5 63q0 254 -391 254h-587zM485 1062q0 -110 61.5 -167t196.5 -57q161 0 243 78t106 229q7 41 7 82q0 227 -259 227q-157 0 -240.5 -80t-107.5 -229
q-7 -42 -7 -83z" />
    <glyph glyph-name="uni0552" unicode="&#x552;" horiz-adv-x="637" 
d="M594 716h-312l-113 -716h-123l113 716l12 74l118 746h123l-113 -715h312z" />
    <glyph glyph-name="uni0553" unicode="&#x553;" horiz-adv-x="1553" 
d="M766 203l-32 -203h-121l32 203h-33q-159 0 -277 59t-180.5 164.5t-62.5 243.5q0 46 8 100q26 163 121 292t243 202.5t326 73.5h35l31 198h121l-31 -198h34q159 0 277 -59t181 -164.5t63 -243.5q0 -45 -8 -99q-26 -164 -122.5 -293.5t-247 -202.5t-330.5 -73h-27zM661 305
l148 932h-26q-154 0 -273.5 -58.5t-194 -164t-96.5 -244.5q-8 -51 -8 -93q0 -113 48.5 -197t144 -129.5t231.5 -45.5h26zM930 1237l-148 -932h29q153 0 272 58.5t193.5 164t96.5 244.5q8 51 8 92q0 113 -48.5 197t-143.5 130t-230 46h-29z" />
    <glyph glyph-name="uni0554" unicode="&#x554;" horiz-adv-x="1597" 
d="M1221.5 1507.5q110.5 -48.5 172 -139.5t61.5 -215q0 -33 -7 -82l-7 -40q-23 -148 -107.5 -257.5t-216 -168.5t-292.5 -59q-133 0 -236.5 45.5t-165.5 126.5l-60 -380h1052l-16 -105h-1053l-37 -233h-122l37 233h-243l16 105h244l106 667q0 9 1 15t2 11l7 40
q23 148 105.5 257.5t212 168.5t290.5 59q146 0 256.5 -48.5zM1332 1151q0 142 -95 219.5t-279 77.5q-207 0 -329 -98t-150 -275l-6 -36h1l-6 -40q-3 -25 -3 -49q0 -139 93 -217.5t275 -78.5q138 0 241 45.5t164.5 129t79.5 195.5l8 51q6 41 6 76z" />
    <glyph glyph-name="uni0555" unicode="&#x555;" horiz-adv-x="1427" 
d="M1306 686q-34 -214 -126.5 -373.5t-231.5 -246t-310 -86.5q-145 0 -254 65t-168.5 186t-59.5 285q0 66 13 154l29 181q34 213 127 372.5t232.5 246t307.5 86.5q148 0 256.5 -65t166.5 -187t58 -287q0 -76 -14 -166zM1210 853q14 90 14 164q0 204 -94.5 317.5
t-271.5 113.5q-136 0 -247.5 -72.5t-186 -206.5t-103.5 -316l-26 -167q-14 -90 -14 -162q0 -136 42.5 -234t124.5 -150t197 -52q140 0 251 72t185 207t103 319z" />
    <glyph glyph-name="uni0556" unicode="&#x556;" horiz-adv-x="1539" 
d="M1319.5 833.5q120.5 -92.5 120.5 -268.5q0 -40 -8 -91l-6 -35q-36 -227 -211.5 -343t-521.5 -116q-315 0 -471.5 110.5t-156.5 316.5q0 45 8 99h123l-1 -8q-6 -37 -6 -73q0 -101 48 -177.5t143.5 -119t233.5 -42.5h24l116 736h-84q-188 0 -294 68t-106 216q0 34 6 73
q29 187 163 272t344 85h207l-97 -610h85q221 0 341.5 -92.5zM770 926l81 506h-84q-151 0 -249 -60t-119 -193q-4 -24 -4 -51q0 -106 78 -154t214 -48h83zM1315 540q0 87 -43.5 151t-123.5 97.5t-187 33.5h-84l-116 -736h23q235 0 363.5 90.5t157.5 273.5l5 30q5 35 5 60z
" />
    <glyph glyph-name="uni0559" unicode="&#x559;" horiz-adv-x="385" 
d="M320 1618q-1 -11 -1 -32q0 -101 56 -198l-79 -52q-96 101 -96 246q0 36 6 75l19 115h119z" />
    <glyph glyph-name="uni055A" unicode="&#x55a;" horiz-adv-x="385" 
d="M408 1772l-19 -115q-30 -194 -190 -321l-63 52q102 112 127 230l26 154h119z" />
    <glyph glyph-name="uni055B" unicode="&#x55b;" horiz-adv-x="247" 
d="M99 1772l-361 -497h-97l311 497h147z" />
    <glyph glyph-name="uni055C" unicode="&#x55c;" horiz-adv-x="290" 
d="M-351 1311q7 45 38 102t80.5 107t110.5 74q55 22 85 52t42 63t19 77l1 9h120l-4 -25q-13 -87 -67.5 -156.5t-162.5 -107.5q-82 -29 -114.5 -95t-45.5 -148l-1 -9h-110z" />
    <glyph glyph-name="uni055D" unicode="&#x55d;" horiz-adv-x="38" 
d="M194 1275h-97l-203 497h147z" />
    <glyph glyph-name="uni055E" unicode="&#x55e;" horiz-adv-x="539" 
d="M172.5 1457q67.5 50 84.5 160q2 10 2 30q0 44 -18.5 82.5t-58.5 62.5t-99 24q-112 0 -186 -63t-98 -215l-45 -283h-100l47 296q29 186 135.5 272t260.5 86q85 0 144.5 -31.5t89.5 -86t30 -123.5q0 -28 -4 -51q-22 -142 -115 -220t-237 -78l14 88q86 0 153.5 50z" />
    <glyph glyph-name="uni055F" unicode="&#x55f;" horiz-adv-x="949" 
d="M311.5 1383q-85.5 73 -85.5 185q0 25 5 57q13 80 59.5 149t130 112t199.5 43h88l-14 -90h-31q-161 0 -235.5 -54.5t-91.5 -159.5q-4 -24 -4 -50q0 -86 64 -130.5t219 -44.5h339l-15 -90h-339q-203 0 -288.5 73z" />
    <glyph glyph-name="uni0561" unicode="&#x561;" horiz-adv-x="1845" 
d="M1375.5 155.5q89.5 72.5 139.5 182.5l118 744h120l-171 -1082h-116l25 176q-150 -196 -372 -196q-129 0 -206.5 53t-94.5 157q-70 -97 -169.5 -153.5t-223.5 -56.5q-150 0 -230.5 70.5t-80.5 218.5q0 48 9 103l112 710h119l-112 -711q-7 -43 -7 -85q0 -110 57.5 -156.5
t163.5 -46.5q96 0 173.5 42.5t126.5 107.5t66 133l113 716h120l-113 -716q-7 -41 -7 -80q0 -109 58.5 -156t166.5 -47q126 0 215.5 72.5z" />
    <glyph glyph-name="uni0562" unicode="&#x562;" horiz-adv-x="1190" 
d="M891 710q8 51 8 88q0 108 -55.5 154.5t-161.5 46.5q-118 0 -211.5 -73t-150.5 -182l-102 -642h781l-16 -102h-781l-66 -416h-120l237 1498h115l-25 -183q74 96 168.5 149.5t206.5 53.5q144 0 223 -69.5t79 -217.5q0 -48 -9 -105l-49 -310h-120z" />
    <glyph glyph-name="uni0563" unicode="&#x563;" horiz-adv-x="1328" 
d="M1151 0h-274l-66 -416h-119l87 550q-142 -154 -358 -154q-109 0 -186 50.5t-116.5 143t-39.5 216.5q0 53 10 128l5 33q26 168 95.5 292t175 191.5t235.5 67.5q218 0 308 -166l28 146h112l-155 -980h274zM658 132.5q85 50.5 143 137.5l83 528q-27 89 -94 145.5t-183 56.5
q-106 0 -188 -58.5t-133 -159.5t-72 -231l-3 -21q-11 -69 -11 -126q0 -147 65.5 -234.5t194.5 -87.5q113 0 198 50.5z" />
    <glyph glyph-name="uni0564" unicode="&#x564;" horiz-adv-x="1340" 
d="M1163 0h-274l-66 -416h-120l178 1126q8 51 8 88q0 108 -55.5 154.5t-161.5 46.5q-118 0 -211.5 -73t-150.5 -182l-118 -744h-120l171 1082h115l-25 -183q74 96 168.5 149.5t206.5 53.5q144 0 223 -69.5t79 -217.5q0 -48 -9 -105l-96 -608h274z" />
    <glyph glyph-name="uni0565" unicode="&#x565;" horiz-adv-x="1191" 
d="M269 388q-7 -45 -7 -87q0 -115 56.5 -166t152.5 -51q136 0 225.5 57t136.5 156l61 385h120l-108 -682h-115l19 137q-67 -80 -154.5 -118.5t-204.5 -38.5q-145 0 -228 73t-83 228q0 47 9 104l94 595l16 102l72 454h120l-72 -454h781l-16 -102h-781z" />
    <glyph glyph-name="uni0566" unicode="&#x566;" horiz-adv-x="1218" 
d="M1101 -314l-16 -102h-393l16 102l71 448q-142 -154 -358 -154q-109 0 -186 50.5t-116.5 143t-39.5 216.5q0 53 10 128l5 33q26 168 95.5 292t175 191.5t235.5 67.5q218 0 308 -166l28 146h112l-221 -1396h274zM658 132.5q85 50.5 143 137.5l83 528q-27 89 -94 145.5
t-183 56.5q-106 0 -188 -58.5t-133 -159.5t-72 -231l-3 -21q-11 -69 -11 -126q0 -147 65.5 -234.5t194.5 -87.5q113 0 198 50.5z" />
    <glyph glyph-name="uni0567" unicode="&#x567;" horiz-adv-x="985" 
d="M370 980l-139 -877l162 1q113 1 184 -53t71 -152q0 -14 -4 -44q-13 -80 -60 -135.5t-118 -84t-155 -28.5l16 102q85 0 136.5 41t61.5 105q2 18 2 26q0 54 -39 86.5t-115 32.5h-277l16 102l139 878l16 102l72 454h119l-72 -454h616l-16 -102h-616z" />
    <glyph glyph-name="uni0568" unicode="&#x568;" horiz-adv-x="1212" 
d="M891 710q8 51 8 88q0 108 -55.5 154.5t-161.5 46.5q-118 0 -211.5 -73t-150.5 -182l-168 -1058h781l-16 -102h-901l16 102l221 1396h115l-25 -183q74 96 168.5 149.5t206.5 53.5q144 0 223 -69.5t79 -217.5q0 -48 -9 -105l-112 -710h-120z" />
    <glyph glyph-name="uni0569" unicode="&#x569;" horiz-adv-x="1582" 
d="M1504 609h-203l-40 -258q-17 -111 -72.5 -194.5t-147 -130t-213.5 -46.5q-109 0 -190.5 40t-125 110.5t-43.5 159.5q0 26 5 61q18 114 77.5 194.5t154.5 123t218 42.5h273q4 30 4 44q0 125 -116 184.5t-301 59.5q-96 0 -190 -36t-167 -94.5t-107 -124.5l-184 -1160h-120
l237 1498h115l-25 -183q46 60 125.5 106t174.5 71.5t187 25.5q143 0 254 -36t174.5 -110t63.5 -184q0 -26 -5 -61h204zM978.5 115.5q64.5 33.5 107 94t55.5 141.5l37 239l3 16v3h-264q-144 0 -225 -72.5t-98 -185.5q-4 -23 -4 -52q0 -95 60 -156t186 -61q78 0 142.5 33.5z
" />
    <glyph glyph-name="uni056A" unicode="&#x56a;" horiz-adv-x="1348" 
d="M1076 981l-70 -440h1l-3 -16q-41 -268 -175 -406.5t-352 -138.5q-123 0 -215 53t-142 150.5t-50 226.5q0 55 9 115l5 32q25 158 113 277.5t217 184t275 64.5h284l72 453h119l-72 -453h274l-16 -102h-274zM957 981h-274q-115 0 -218 -55t-172.5 -152t-88.5 -218l-5 -31
q-8 -48 -8 -104q0 -100 33 -176.5t99 -119.5t160 -43q332 0 402 443l3 15h-1z" />
    <glyph glyph-name="uni056B" unicode="&#x56b;" horiz-adv-x="1178" 
d="M494.5 926q-93.5 -73 -150.5 -182l-184 -1160h-120l309 1952h120l-101 -637q74 96 168 149.5t206 53.5q144 0 223 -69.5t79 -217.5q0 -48 -9 -105l-112 -710h-120l112 710q7 45 7 86q0 110 -55 156.5t-161 46.5q-118 0 -211.5 -73z" />
    <glyph glyph-name="uni056C" unicode="&#x56c;" horiz-adv-x="542" 
d="M425 -314l-16 -102h-393l16 102l221 1396h119l-221 -1396h274z" />
    <glyph glyph-name="uni056D" unicode="&#x56d;" horiz-adv-x="1726" 
d="M1634 1082l-171 -1082h-115l19 137q-67 -80 -154.5 -118.5t-204.5 -38.5q-145 0 -228 72.5t-83 226.5q0 49 9 106l94 595h-420l-221 -1396h-119l223 1406l14 92l72 454h119l-72 -454h540l-16 -102l-94 -592q-7 -45 -7 -87q0 -115 56.5 -166t152.5 -51q136 0 225.5 57
t136.5 156l124 785h120z" />
    <glyph glyph-name="uni056E" unicode="&#x56e;" horiz-adv-x="1175" 
d="M1176 980h-289q70 -80 110 -163t40 -185q0 -48 -8 -91l-3 -16q-25 -159 -97.5 -282.5t-185 -193t-255.5 -69.5q-130 0 -224 54t-143.5 152t-49.5 226q0 55 9 113l5 32q25 156 100.5 274.5t191.5 184t259 66.5q-77 73 -117 135t-40 139q0 24 4 45q6 40 14 70t14 45.5
t8 19.5h120q-2 -3 -8 -15t-14 -37.5t-14 -63.5q-3 -18 -3 -35q0 -55 25 -104.5t62 -91.5t102 -107h403zM915 621q0 110 -45 193.5t-126 165.5h-119h-1q-113 0 -201 -56t-143.5 -152t-74.5 -216l-5 -31q-9 -54 -9 -105q0 -98 33 -174.5t101 -120t169 -43.5q112 0 198.5 59.5
t140 160t73.5 223.5l2 12q7 42 7 84z" />
    <glyph glyph-name="uni056F" unicode="&#x56f;" horiz-adv-x="1191" 
d="M720 -416l88 553q-66 -79 -153 -118t-204 -39q-145 0 -228 73t-83 228q0 47 9 104l182 1151h120l-182 -1148q-7 -45 -7 -87q0 -115 56.5 -166t152.5 -51q136 0 225.5 57t136.5 156l124 785h120l-237 -1498h-120z" />
    <glyph glyph-name="uni0570" unicode="&#x570;" horiz-adv-x="1168" 
d="M484.5 926q-93.5 -73 -150.5 -182l-118 -744h-120l243 1536h120l-100 -635q74 95 167.5 148t205.5 53q144 0 223 -69.5t79 -217.5q0 -48 -9 -105l-112 -710h-120l112 710q7 45 7 86q0 110 -55 156.5t-161 46.5q-118 0 -211.5 -73z" />
    <glyph glyph-name="uni0571" unicode="&#x571;" horiz-adv-x="1157" 
d="M1028.5 1377q32.5 -14 32.5 -48q0 -8 -1 -13v-5q-6 -35 -43.5 -68.5t-135.5 -95.5q-87 -54 -167 -107q94 -26 158 -90.5t96 -150t32 -177.5q0 -40 -6 -79l-84 -543h-112l8 107q-69 -61 -159 -94t-191 -33q-112 0 -196.5 48t-131 139.5t-46.5 217.5q0 54 9 114l4 17
q22 139 112.5 253t219 206.5t347.5 226.5l143 87h-365q-91 0 -145.5 47t-54.5 122q0 16 3 32l7 43h119q-3 -16 -3 -31q0 -111 157 -111h292q69 0 101.5 -14zM877 601q0 143 -69.5 242.5t-209.5 120.5q-136 -94 -212.5 -164.5t-114.5 -138.5t-52 -155l-2 -12q-8 -53 -8 -97
q0 -91 30.5 -162.5t93.5 -112t156 -40.5q107 0 192 35t143 104l45 282q8 53 8 98z" />
    <glyph glyph-name="uni0572" unicode="&#x572;" horiz-adv-x="1230" 
d="M1113 -314l-16 -102h-394l178 1126q8 51 8 88q0 108 -55.5 154.5t-161.5 46.5q-118 0 -211.5 -73t-150.5 -182l-118 -744h-120l171 1082h115l-25 -183q74 96 168.5 149.5t206.5 53.5q144 0 223 -69.5t79 -217.5q0 -48 -9 -105l-162 -1024h274z" />
    <glyph glyph-name="uni0573" unicode="&#x573;" horiz-adv-x="1253" 
d="M724.5 1355q-134.5 -97 -230.5 -273h172q223 0 327 -97.5t104 -283.5q0 -65 -12 -139l-89 -562h-113l17 145l61 387q16 98 16 165q0 99 -36 161.5t-121 94t-232 31.5h-143q-102 -231 -151 -544q-8 -51 -8 -89q0 -128 69.5 -198t201.5 -70q123 0 211 52t153 144l-21 -134
q-54 -60 -102 -94.5t-112 -52.5t-158 -18q-109 0 -190 42t-126 123.5t-45 195.5q0 53 8 101q49 308 146 542h-211l15 98h241q116 229 284 352t386 123q69 0 120.5 -7t103.5 -20l-24 -100q-85 22 -204 22q-173 0 -307.5 -97z" />
    <glyph glyph-name="uni0574" unicode="&#x574;" horiz-adv-x="1207" 
d="M1382 1434h-273l-227 -1434h-115l19 137q-67 -80 -154.5 -118.5t-204.5 -38.5q-145 0 -228 73t-83 228q0 47 9 104l110 697h120l-110 -694q-7 -45 -7 -87q0 -115 56.5 -166t152.5 -51q136 0 225.5 57t136.5 156l196 1239h393z" />
    <glyph glyph-name="uni0575" unicode="&#x575;" horiz-adv-x="530" 
d="M318 1082h120l-191 -1211q-50 -308 -333 -308q-58 0 -103 19l16 99q50 -14 88 -14q179 0 212 204z" />
    <glyph glyph-name="uni0576" unicode="&#x576;" horiz-adv-x="1222" 
d="M1130 1082l-171 -1082h-115l19 137q-67 -80 -154.5 -118.5t-204.5 -38.5q-145 0 -228 73t-83 228q0 47 9 104l166 1049h-273l16 102h393l-16 -102l-166 -1046q-7 -45 -7 -87q0 -115 56.5 -166t152.5 -51q136 0 225.5 57t136.5 156l124 785h120z" />
    <glyph glyph-name="uni0577" unicode="&#x577;" horiz-adv-x="1142" 
d="M106 -161q0 -67 43 -100.5t105 -43t145 -9.5h506l-16 -102h-506q-183 0 -291 49t-108 184q0 24 5 57q15 95 75.5 164.5t140.5 117t215 111.5l84 41l62 30q113 54 178 94.5t113.5 103.5t63.5 155q4 30 4 46q0 65 -27.5 125t-89 98.5t-157.5 38.5q-111 0 -190 -48
t-122 -118.5t-54 -141.5l-6 -38h-120l6 38q16 100 81 195t171 155.5t240 60.5q121 0 209 -51t133.5 -132.5t45.5 -172.5q0 -31 -4 -55q-19 -123 -85.5 -207.5t-152.5 -138t-227 -120.5l-41 -20q-16 -8 -34 -16.5t-38 -18.5q-117 -55 -183.5 -93t-113.5 -88t-57 -115
q-3 -20 -3 -35z" />
    <glyph glyph-name="uni0578" unicode="&#x578;" horiz-adv-x="1144" 
d="M460.5 926q-93.5 -73 -150.5 -182l-118 -744h-120l171 1082h115l-25 -183q74 96 168.5 149.5t206.5 53.5q144 0 223 -69.5t79 -217.5q0 -48 -9 -105l-112 -710h-120l112 710q7 45 7 86q0 110 -55 156.5t-161 46.5q-118 0 -211.5 -73z" />
    <glyph glyph-name="uni0579" unicode="&#x579;" horiz-adv-x="962" 
d="M92.5 22q56.5 87 140 163t247.5 207q27 22 50 40.5t41 32.5q13 12 13 26q0 12 -6 19q-24 30 -91 83q-56 46 -90 80t-58.5 79t-24.5 98q0 21 2 32q6 44 34.5 88t60.5 79t32 33h126q0 3 -33 -28.5t-62.5 -76t-37.5 -95.5q-1 -6 -1 -17q0 -36 23 -71t55.5 -63.5t85.5 -69.5
q45 -35 66 -52.5t36 -36.5q26 -34 26 -67q0 -53 -65 -106q-30 -25 -138 -113q-136 -111 -207 -174.5t-118 -130t-58 -138.5q-2 -16 -2 -24q0 -65 53.5 -99t125.5 -34h437l-16 -102h-473q-59 0 -117 24t-95.5 71.5t-37.5 113.5q0 18 3 36q17 106 73.5 193z" />
    <glyph glyph-name="uni057A" unicode="&#x57a;" horiz-adv-x="1867" 
d="M1375.5 155.5q89.5 72.5 139.5 182.5l118 744h120l-237 -1498h-120l94 592q-148 -196 -371 -196q-129 0 -206.5 53t-94.5 157q-70 -97 -169.5 -153.5t-223.5 -56.5q-150 0 -230.5 70.5t-80.5 218.5q0 48 9 103l112 710h119l-112 -711q-7 -43 -7 -85q0 -110 57.5 -156.5
t163.5 -46.5q96 0 173.5 42.5t126.5 107.5t66 133l113 716h120l-113 -716q-7 -41 -7 -80q0 -109 58.5 -156t166.5 -47q126 0 215.5 72.5z" />
    <glyph glyph-name="uni057B" unicode="&#x57b;" horiz-adv-x="1189" 
d="M45 -24.5q43 56.5 117.5 106.5t192.5 109q27 31 27 57q0 23 -17.5 43t-56.5 51q-46 38 -77 70.5t-53.5 83t-22.5 117.5q0 36 5 65q18 116 79 212t167 154t252 58q122 0 209.5 -47.5t132 -128.5t44.5 -179q0 -34 -6 -69q-23 -145 -107.5 -248t-183.5 -163.5t-245 -129.5
l-56 -25q-92 -40 -156 -73.5t-117 -82.5t-62 -108q-2 -10 -2 -27q0 -75 69 -105t184 -30h540l-16 -102h-593q-80 0 -149 22.5t-113 72t-44 126.5q0 12 4 44q11 70 54 126.5zM276 631q0 -48 16.5 -83t40.5 -58.5t62 -53.5q49 -38 73 -68t24 -75q0 -20 -6 -46
q113 50 196.5 101t150.5 133t85 197q5 37 5 63q0 76 -31.5 134.5t-92.5 91t-147 32.5q-106 0 -184.5 -41t-125.5 -113.5t-62 -166.5q-4 -23 -4 -47z" />
    <glyph glyph-name="uni057C" unicode="&#x57c;" horiz-adv-x="1132" 
d="M894 421q-83 -135 -174.5 -231t-91.5 -88h313l-16 -102h-433l16 102q0 -8 91.5 88t174.5 231t107 289q8 51 8 88q0 108 -55.5 154.5t-161.5 46.5q-118 0 -211.5 -73t-150.5 -182l-118 -744h-120l171 1082h115l-25 -183q74 96 168.5 149.5t206.5 53.5q144 0 223 -69.5
t79 -217.5q0 -48 -9 -105q-24 -154 -107 -289z" />
    <glyph glyph-name="uni057D" unicode="&#x57d;" horiz-adv-x="1145" 
d="M767 0l19 137q-67 -80 -154.5 -118.5t-204.5 -38.5q-145 0 -228 73t-83 228q0 47 9 104l110 697h120l-110 -694q-7 -45 -7 -87q0 -115 56.5 -166t152.5 -51q136 0 225.5 57t136.5 156l124 785h120l-171 -1082h-115z" />
    <glyph glyph-name="uni057E" unicode="&#x57e;" horiz-adv-x="1222" 
d="M832 -314h273l-16 -102h-393l16 102l72 451q-66 -79 -153 -118t-204 -39q-145 0 -228 73t-83 228q0 47 9 104l110 697h120l-110 -694q-7 -45 -7 -87q0 -115 56.5 -166t152.5 -51q136 0 225.5 57t136.5 156l196 1239h120z" />
    <glyph glyph-name="uni057F" unicode="&#x57f;" horiz-adv-x="1835" 
d="M1620.5 1031.5q80.5 -70.5 80.5 -218.5q0 -47 -9 -103l-112 -710h-119l113 711q7 43 7 83q0 112 -58.5 158.5t-167.5 46.5q-126 0 -215.5 -72.5t-139.5 -182.5v2l-118 -746h-120l27 171q-71 -88 -163 -139.5t-201 -51.5q-150 0 -230.5 70.5t-80.5 218.5q0 48 9 103
l112 710h119l-112 -711q-7 -43 -7 -85q0 -111 58.5 -157t166.5 -46q126 0 215.5 72.5t139.5 182.5v-2l118 746h120l-27 -171q71 88 163 139.5t201 51.5q150 0 230.5 -70.5z" />
    <glyph glyph-name="uni0580" unicode="&#x580;" horiz-adv-x="1154" 
d="M470.5 926q-93.5 -73 -150.5 -182l-184 -1160h-120l237 1498h115l-25 -183q74 96 168.5 149.5t206.5 53.5q144 0 223 -69.5t79 -217.5q0 -48 -9 -105l-112 -710h-120l112 710q7 45 7 86q0 110 -55 156.5t-161 46.5q-118 0 -211.5 -73z" />
    <glyph glyph-name="uni0581" unicode="&#x581;" horiz-adv-x="1123" 
d="M172.5 -383.5q-96.5 48.5 -144.5 136.5l78 73q101 -156 279 -156q153 0 251 91t124 254l20 126q-141 -161 -361 -161q-108 0 -184.5 51t-116 143.5t-39.5 216.5q0 54 10 127l5 33q26 167 96 291.5t174.5 192t233.5 67.5q222 0 310 -175l29 155h112l-168 -1063
q-22 -139 -91.5 -240.5t-176 -156t-237.5 -54.5q-107 0 -203.5 48.5zM211 530q-11 -69 -11 -127q0 -147 64.5 -233t193.5 -86q117 0 203 53.5t142 146.5l79 500q-23 95 -89 154.5t-188 59.5q-106 0 -187.5 -58t-132 -158.5t-71.5 -230.5z" />
    <glyph glyph-name="uni0582" unicode="&#x582;" horiz-adv-x="574" 
d="M413 102l-16 -102h-393l16 102l155 980h119l-155 -980h274z" />
    <glyph glyph-name="uni0583" unicode="&#x583;" horiz-adv-x="1835" 
d="M1620.5 1031.5q80.5 -70.5 80.5 -218.5q0 -47 -9 -103l-112 -710h-119l113 711q7 43 7 83q0 112 -58.5 158.5t-167.5 46.5q-126 0 -215.5 -72.5t-139.5 -182.5v2l-184 -1162h-120l93 587q-71 -88 -163 -139.5t-201 -51.5q-150 0 -230.5 70.5t-80.5 218.5q0 48 9 103
l112 710h119l-112 -711q-7 -43 -7 -85q0 -111 58.5 -157t166.5 -46q126 0 215.5 72.5t139.5 182.5v-2l190 1200h120l-99 -625q71 88 163 139.5t201 51.5q150 0 230.5 -70.5z" />
    <glyph glyph-name="uni0584" unicode="&#x584;" horiz-adv-x="1217" 
d="M1010 1013.5q92 -88.5 92 -261.5q0 -60 -10 -121l-3 -21q-22 -136 -89 -238t-169.5 -157t-226.5 -55q-220 0 -314 157l-50 -317h764l-16 -102h-764l-50 -314h-120l50 314h-177l16 102h177l171 1082h112l-18 -153q143 173 366 173q167 0 259 -88.5zM980 726
q0 131 -69.5 201.5t-202.5 70.5q-119 0 -203.5 -57t-139.5 -149l-54 -342q28 -87 97.5 -137.5t184.5 -50.5q100 0 180 46t130 125.5t66 176.5l3 21q8 54 8 95z" />
    <glyph glyph-name="uni0585" unicode="&#x585;" horiz-adv-x="1211" 
d="M115 557q25 157 102 281t195 194t261 70q128 0 222 -55t144.5 -154t50.5 -227q0 -51 -7 -99l-7 -42q-25 -158 -102 -281.5t-195 -193.5t-261 -70q-127 0 -221.5 55t-145 153.5t-50.5 227.5q0 52 9 109zM230 525q-8 -54 -8 -99q0 -99 34 -177t102 -122.5t166 -44.5
q113 0 204 59.5t150 160.5t78 223l5 32q8 51 8 95q0 98 -34 177t-102 125t-166 46q-112 0 -204 -60.5t-150.5 -162t-77.5 -221.5z" />
    <glyph glyph-name="uni0586" unicode="&#x586;" horiz-adv-x="1490" 
d="M1171.5 879q122.5 -47 184.5 -132.5t62 -200.5q0 -35 -6 -73l-5 -34q-34 -221 -202 -335.5t-484 -122.5l-63 -397h-120l63 397q-292 12 -434 124t-142 305q0 43 8 96h120l-1 -8q-6 -39 -6 -73q0 -109 56 -186t162 -117t253 -40l117 742q-245 0 -353.5 71.5t-108.5 210.5
q0 35 6 74q28 175 160.5 265.5t408.5 90.5h120l-97 -610h1q178 0 300.5 -47zM394 1131q0 -112 91.5 -158.5t264.5 -46.5l81 508q-192 0 -301.5 -57.5t-131.5 -196.5q-4 -24 -4 -49zM1296 522q0 90 -48 158t-147 106t-247 38l-117 -742q163 0 281 45.5t185.5 126t83.5 184.5
l5 30q4 25 4 54z" />
    <glyph glyph-name="uni0587" unicode="&#x587;" horiz-adv-x="1361" 
d="M1200 102l-16 -102h-393l19 137q-67 -80 -154.5 -118.5t-204.5 -38.5q-145 0 -228 73t-83 228q0 47 9 104l182 1151h120l-182 -1148q-7 -45 -7 -87q0 -115 56.5 -166t152.5 -51q136 0 225.5 57t136.5 156l124 785h120l-155 -980h278z" />
    <glyph glyph-name="uni0589" unicode="&#x589;" horiz-adv-x="548" 
d="M363 1079q74 0 74 -64q0 -12 -1 -19q-13 -82 -99 -82q-73 0 -73 61q0 5 2 21q12 83 97 83zM215 156q74 0 74 -64q0 -12 -1 -19q-13 -82 -99 -82q-73 0 -73 61q0 5 2 21q12 83 97 83z" />
    <glyph glyph-name="uni058A" unicode="&#x58a;" horiz-adv-x="600" 
d="M600 574q-119 -26 -244 -26q-226 0 -365 92l50 117q6 -2 14.5 -7t13.5 -8q73 -39 171 -60t204 -21q94 0 185 16.5t167 50.5l-15 -96q-62 -32 -181 -58z" />
    <glyph glyph-name="uni058F" unicode="&#x58f;" horiz-adv-x="1572" 
d="M1177 614l-34 -215h312l-16 -105h-312l-47 -294h-123l47 294h-312l16 105h312l34 215h-312l17 105h312l55 347q7 41 7 82q0 147 -90.5 225.5t-245.5 78.5q-114 0 -209 -44t-158.5 -131t-82.5 -211l-65 -410h-122l65 410q25 159 108.5 269.5t207.5 165.5t272 55
q129 0 229.5 -44t157.5 -132.5t57 -215.5q0 -42 -8 -98l-55 -347h312l-17 -105h-312z" />
    <glyph glyph-name="endash" unicode="&#x2013;" horiz-adv-x="1304" 
d="M1167 789l-23 -102h-974l22 102h975z" />
    <glyph glyph-name="emdash" unicode="&#x2014;" horiz-adv-x="1543" 
d="M1474 789l-31 -102h-1299l29 102h1301z" />
    <glyph glyph-name="quoteleft" unicode="&#x2018;" horiz-adv-x="354" 
d="M184 1122l17 111q30 193 185 324l70 -56q-110 -130 -134 -264l-20 -115h-118z" />
    <glyph glyph-name="quoteright" unicode="&#x2019;" horiz-adv-x="354" 
d="M430 1536l-18 -114q-30 -194 -184 -324l-71 56q104 121 131 248l24 134h118z" />
    <glyph glyph-name="quotesinglbase" unicode="&#x201a;" horiz-adv-x="343" 
d="M178 206l-18 -115q-32 -194 -188 -324l-67 55q109 127 133 265l21 119h119z" />
    <glyph glyph-name="quotedblleft" unicode="&#x201c;" horiz-adv-x="604" 
d="M185 1122l17 111q30 193 185 324l70 -56q-110 -130 -134 -264l-20 -115h-118zM428 1122l17 111q30 193 185 324l70 -56q-110 -130 -134 -264l-20 -115h-118z" />
    <glyph glyph-name="quotedblright" unicode="&#x201d;" horiz-adv-x="608" 
d="M435 1536l-18 -114q-30 -194 -184 -324l-71 56q104 121 131 248l24 134h118zM671 1536l-18 -114q-30 -194 -184 -324l-71 56q104 121 131 248l24 134h118z" />
    <glyph glyph-name="quotedblbase" unicode="&#x201e;" horiz-adv-x="576" 
d="M185 237l-24 -146q-31 -199 -190 -333l-67 55q110 130 135 273l26 151h120zM411 237l-22 -145q-30 -198 -188 -335l-71 56q107 125 134 263l29 161h118z" />
    <glyph glyph-name="bullet" unicode="&#x2022;" horiz-adv-x="643" 
d="M166 745q6 82 57.5 134t132.5 52q78 0 124.5 -49t45.5 -127l-1 -37q-6 -80 -58 -129.5t-132 -49.5q-78 0 -124 47t-46 124z" />
    <glyph glyph-name="ellipsis" unicode="&#x2026;" horiz-adv-x="1284" 
d="M95.5 130q25.5 27 63.5 27q34 0 56 -22.5t22 -55.5q0 -37 -27 -63t-65 -26q-32 0 -53.5 21.5t-21.5 53.5q0 38 25.5 65zM493.5 130q25.5 27 63.5 27q34 0 56 -22.5t22 -55.5q0 -37 -27 -63t-65 -26q-32 0 -53.5 21.5t-21.5 53.5q0 38 25.5 65zM873.5 130q25.5 27 63.5 27
q34 0 56 -22.5t22 -55.5q0 -37 -27 -63t-65 -26q-32 0 -53.5 21.5t-21.5 53.5q0 38 25.5 65z" />
    <glyph glyph-name="guilsinglleft" unicode="&#x2039;" horiz-adv-x="591" 
d="M323 168l-228 377l2 19l349 381h114l-341 -395l197 -382h-93z" />
    <glyph glyph-name="guilsinglright" unicode="&#x203a;" horiz-adv-x="591" 
d="M251 945l225 -381l-2 -20l-347 -382h-114l341 395l-197 388h94z" />
    <glyph glyph-name="fraction" unicode="&#x2044;" horiz-adv-x="890" 
d="M937 1257l-881 -1135l-73 53l885 1131z" />
    <glyph glyph-name="uni2074" unicode="&#x2074;" horiz-adv-x="728" 
d="M111 918l475 536h114l-89 -513h123l-16 -89h-123l-33 -187h-105l34 187h-385zM233 941h272l73 384l-38 -51z" />
    <glyph glyph-name="Euro" unicode="&#x20ac;" 
d="M913 9q-114 -31 -221 -31q-109 0 -202 39.5t-155 133.5q-83 127 -83 286q0 52 9 109l3 18l-191 -1l16 89h184l29 165h-186l17 90l180 -5l1 8q33 167 110 294t201.5 200t293.5 73q104 0 237 -33l-23 -107q-118 40 -228 40q-198 0 -310 -134q-114 -138 -157 -330l-2 -12
l412 5l-17 -89h-405l-30 -165h407l-16 -89l-402 1l-3 -18q-8 -54 -8 -101q0 -102 35 -183t108.5 -129t185.5 -48q99 0 211 32z" />
    <glyph glyph-name="minus" unicode="&#x2212;" horiz-adv-x="1134" 
d="M1005 789l-19 -102h-812l18 102h813z" />
    </font>
</defs>
</svg>
