<svg width="20" height="21" viewBox="0 0 20 21" fill="none" xmlns="http://www.w3.org/2000/svg">
<path d="M5.1459 18.5832L5.54231 15.0155C5.55522 14.8993 5.51885 14.7843 5.44465 14.694C4.45465 13.4889 2.83872 10.6322 3.47924 7.74984C4.31257 3.99984 7.646 3.1665 8.896 3.1665C10.146 3.1665 12.2293 3.1665 13.896 5.24984C15.1813 6.85648 14.6052 8.8118 14.7245 9.79655C14.7275 9.82136 14.7333 9.8451 14.7412 9.86881L15.7965 13.0347C15.8865 13.3045 15.6856 13.5832 15.4012 13.5832H15.0436C14.8576 13.5832 14.6941 13.7065 14.643 13.8854L13.9823 16.1976C13.9312 16.3765 13.7677 16.4998 13.5817 16.4998H12.2293C11.9992 16.4998 11.8127 16.6864 11.8127 16.9165V18.5832" stroke="#5188D7" stroke-width="1.66667" stroke-linecap="round"/>
<g clip-path="url(#clip0_1041_5533)">
<path d="M7.71411 8.72501C7.71417 8.49461 7.76904 8.26752 7.87419 8.06251C7.97935 7.85751 8.13176 7.68045 8.31885 7.54598C8.50594 7.41151 8.72234 7.32348 8.95017 7.28916C9.178 7.25483 9.41073 7.2752 9.62914 7.34859C9.84754 7.42197 10.0454 7.54626 10.2062 7.71119C10.3671 7.87612 10.4865 8.07695 10.5544 8.29711C10.6223 8.51727 10.6369 8.75043 10.597 8.97734C10.557 9.20425 10.4636 9.4184 10.3245 9.60209L10.2783 9.65244C10.2558 9.67674 10.1777 9.75174 10.1523 9.77292C10.1132 9.80595 10.0723 9.83678 10.0297 9.86529L9.503 10.2281C9.3728 10.3179 9.26638 10.438 9.19288 10.578C9.11939 10.718 9.08104 10.8738 9.08113 11.032" stroke="#5188D7" stroke-width="1.66667" stroke-linecap="round" stroke-linejoin="round"/>
<path d="M9.16683 13.9997C9.62707 13.9997 10.0002 13.6266 10.0002 13.1663C10.0002 12.7061 9.62707 12.333 9.16683 12.333C8.70659 12.333 8.3335 12.7061 8.3335 13.1663C8.3335 13.6266 8.70659 13.9997 9.16683 13.9997Z" fill="#5188D7"/>
</g>
<defs>
<clipPath id="clip0_1041_5533">
<rect width="8.33333" height="8.33333" fill="white" transform="translate(5 5.6665)"/>
</clipPath>
</defs>
</svg>
