<svg width="21" height="21" viewBox="0 0 21 21" fill="none" xmlns="http://www.w3.org/2000/svg">
<path d="M5.87492 6.05301C6.10171 6.13284 6.3431 6.16266 6.5825 6.14041C6.82191 6.11817 7.05367 6.04439 7.26187 5.92414C7.47007 5.80388 7.6498 5.64001 7.7887 5.44376C7.9276 5.2475 8.0224 5.02352 8.06659 4.78718L8.33325 3.35384C9.42976 3.10406 10.5684 3.10406 11.6649 3.35384L11.9333 4.78718C11.9774 5.02352 12.0722 5.2475 12.2111 5.44376C12.35 5.64001 12.5298 5.80388 12.738 5.92414C12.9462 6.04439 13.1779 6.11817 13.4173 6.14041C13.6567 6.16266 13.8981 6.13284 14.1249 6.05301L15.4991 5.56968C16.264 6.39365 16.8339 7.37906 17.1666 8.45301L16.0583 9.40301C15.8757 9.55948 15.7292 9.75358 15.6287 9.97201C15.5283 10.1904 15.4763 10.428 15.4763 10.6684C15.4763 10.9088 15.5283 11.1464 15.6287 11.3648C15.7292 11.5833 15.8757 11.7774 16.0583 11.9338L17.1666 12.883C16.8339 13.957 16.264 14.9424 15.4991 15.7663L14.1241 15.283C13.8973 15.2032 13.6559 15.1734 13.4165 15.1956C13.1771 15.2179 12.9453 15.2916 12.7371 15.4119C12.5289 15.5321 12.3492 15.696 12.2103 15.8923C12.0714 16.0885 11.9766 16.3125 11.9324 16.5488L11.6666 17.9822C10.5701 18.232 9.43143 18.232 8.33492 17.9822L8.06659 16.5488C8.0224 16.3125 7.9276 16.0885 7.7887 15.8923C7.6498 15.696 7.47007 15.5321 7.26187 15.4119C7.05367 15.2916 6.82191 15.2179 6.5825 15.1956C6.3431 15.1734 6.10171 15.2032 5.87492 15.283L4.50075 15.7663C3.73583 14.9424 3.16594 13.957 2.83325 12.883L3.94159 11.933C4.12398 11.7765 4.27039 11.5825 4.37076 11.3641C4.47113 11.1458 4.5231 10.9083 4.5231 10.668C4.5231 10.4277 4.47113 10.1902 4.37076 9.97188C4.27039 9.75353 4.12398 9.55948 3.94159 9.40301L2.83325 8.45301C3.1657 7.37914 3.7353 6.39374 4.49992 5.56968L5.87492 6.05301ZM9.99992 8.16801C10.663 8.16801 11.2988 8.4314 11.7677 8.90024C12.2365 9.36908 12.4999 10.005 12.4999 10.668C12.4999 11.3311 12.2365 11.9669 11.7677 12.4358C11.2988 12.9046 10.663 13.168 9.99992 13.168C9.33688 13.168 8.70099 12.9046 8.23215 12.4358C7.76331 11.9669 7.49992 11.3311 7.49992 10.668C7.49992 10.005 7.76331 9.36908 8.23215 8.90024C8.70099 8.4314 9.33688 8.16801 9.99992 8.16801Z" stroke="#5188D7" stroke-width="1.66667" stroke-linecap="round" stroke-linejoin="round"/>
</svg>
