<svg xmlns="http://www.w3.org/2000/svg" xmlns:xlink="http://www.w3.org/1999/xlink" width="20" height="20" viewBox="0 0 20 20">
  <defs>
    <path id="insta-a" d="M21.7248014,6.66666667 C23.7144847,6.66666667 25.3326723,8.28419326 25.3326723,10.2738766 L25.3326723,21.7254624 C25.3326723,23.7158067 23.7144847,25.3333333 21.7254624,25.3333333 L10.2738766,25.3333333 C8.28419326,25.3333333 6.66666667,23.7158067 6.66666667,21.7254624 L6.66666667,10.2738766 C6.66666667,8.28419326 8.28419326,6.66666667 10.2738766,6.66666667 L21.7248014,6.66666667 Z M11.2707013,14.0840209 L8.48448363,14.0840209 L8.48448363,21.7254624 C8.48448363,22.7130328 9.28630617,23.5128723 10.2732155,23.5128723 L21.7241404,23.5128723 C22.7097277,23.5128723 23.5128723,22.7130328 23.5128723,21.7254624 L23.5128723,14.0840209 L20.7253326,14.0840209 C20.9679285,14.6749767 21.1047606,15.3221195 21.1047606,15.9990085 C21.1047606,18.8129891 18.8149722,21.1040995 15.9996695,21.1040995 C13.1843668,21.1040995 10.8952394,18.8129891 10.8952394,15.9990085 C10.8952394,15.3221195 11.0300884,14.6749767 11.2707013,14.0840209 Z M16.0009915,12.7137174 C14.9043521,12.7137174 13.9346294,13.2557574 13.3364024,14.0833599 C12.9477201,14.6227558 12.7157005,15.2831191 12.7150395,15.9983474 C12.7130564,17.8102152 14.1878017,19.2842995 15.9990085,19.2842995 C17.8095542,19.2842995 19.2856215,17.8108762 19.2856215,15.9990085 C19.2856215,15.2837801 19.0516189,14.6234168 18.6642586,14.0840209 C18.0673537,13.2564184 17.0969699,12.7137174 16.0009915,12.7137174 Z M23.1731058,8.81631786 L22.7612876,8.81763991 L20.0087822,8.82623322 L20.0193586,11.9905568 L23.1731058,11.9799804 L23.1731058,8.81631786 Z"/>
  </defs>
  <use fill="#605F65" transform="translate(-6 -6)" xlink:href="#insta-a"/>
</svg>
