<?xml version="1.0" encoding="UTF-8"?>
<svg width="157px" height="27px" viewBox="0 0 157 27" version="1.1" xmlns="http://www.w3.org/2000/svg" xmlns:xlink="http://www.w3.org/1999/xlink">
    <!-- Generator: Sketch 63.1 (92452) - https://sketch.com -->
    <title>logo@2x</title>
    <desc>Created with Sketch.</desc>
    <g id="Page-1" stroke="none" stroke-width="1" fill="none" fill-rule="evenodd">
        <g id="1-home" transform="translate(-33.000000, -80.000000)" fill="#2B2B30" fill-rule="nonzero">
            <g id="menu" transform="translate(0.000000, 50.000000)">
                <g id="CyberHUB-LOGO" transform="translate(32.000000, 28.000000)">
                    <path d="M11.704,23.336 C13.4026667,23.336 14.9426667,23.0373333 16.324,22.44 C17.7053333,21.8426667 18.8626667,20.9746667 19.796,19.836 L19.796,19.836 L16.884,17.148 C15.5586667,18.6973333 13.916,19.472 11.956,19.472 C10.7426667,19.472 9.66,19.206 8.708,18.674 C7.756,18.142 7.014,17.4 6.482,16.448 C5.95,15.496 5.684,14.4133333 5.684,13.2 C5.684,11.9866667 5.95,10.904 6.482,9.952 C7.014,9 7.756,8.258 8.708,7.726 C9.66,7.194 10.7426667,6.928 11.956,6.928 C13.916,6.928 15.5586667,7.69333333 16.884,9.224 L16.884,9.224 L19.796,6.536 C18.8626667,5.416 17.71,4.55733333 16.338,3.96 C14.966,3.36266667 13.4306667,3.064 11.732,3.064 C9.716,3.064 7.90066667,3.498 6.286,4.366 C4.67133333,5.234 3.402,6.438 2.478,7.978 C1.554,9.518 1.092,11.2586667 1.092,13.2 C1.092,15.1413333 1.554,16.882 2.478,18.422 C3.402,19.962 4.67133333,21.166 6.286,22.034 C7.90066667,22.902 9.70666667,23.336 11.704,23.336 Z M25.444,28.656 C26.8813333,28.656 28.1086667,28.3013333 29.126,27.592 C30.1433333,26.8826667 30.9973333,25.66 31.688,23.924 L31.688,23.924 L38.492,7.936 L34.292,7.936 L30.036,18.156 L25.808,7.936 L21.3,7.936 L27.824,23.112 L27.768,23.252 C27.4693333,23.924 27.1333333,24.4046667 26.76,24.694 C26.3866667,24.9833333 25.9013333,25.128 25.304,25.128 C24.8746667,25.128 24.4406667,25.044 24.002,24.876 C23.5633333,24.708 23.176,24.4746667 22.84,24.176 L22.84,24.176 L21.244,27.284 C21.7293333,27.7133333 22.3546667,28.0493333 23.12,28.292 C23.8853333,28.5346667 24.66,28.656 25.444,28.656 Z M50.188,23.224 C51.588,23.224 52.862,22.902 54.01,22.258 C55.158,21.614 56.0586667,20.7086667 56.712,19.542 C57.3653333,18.3753333 57.692,17.0173333 57.692,15.468 C57.692,13.9186667 57.3653333,12.5606667 56.712,11.394 C56.0586667,10.2273333 55.158,9.322 54.01,8.678 C52.862,8.034 51.588,7.712 50.188,7.712 C48.2653333,7.712 46.7533333,8.31866667 45.652,9.532 L45.652,9.532 L45.652,2.224 L41.284,2.224 L41.284,23 L45.456,23 L45.456,21.264 C46.5386667,22.5706667 48.116,23.224 50.188,23.224 Z M49.432,19.64 C48.312,19.64 47.3926667,19.262 46.674,18.506 C45.9553333,17.75 45.596,16.7373333 45.596,15.468 C45.596,14.1986667 45.9553333,13.186 46.674,12.43 C47.3926667,11.674 48.312,11.296 49.432,11.296 C50.552,11.296 51.4713333,11.674 52.19,12.43 C52.9086667,13.186 53.268,14.1986667 53.268,15.468 C53.268,16.7373333 52.9086667,17.75 52.19,18.506 C51.4713333,19.262 50.552,19.64 49.432,19.64 Z M69.08,23.224 C71.8053333,23.224 73.8773333,22.412 75.296,20.788 L75.296,20.788 L72.972,18.268 C72.4493333,18.772 71.8846667,19.1406667 71.278,19.374 C70.6713333,19.6073333 69.976,19.724 69.192,19.724 C68.0533333,19.724 67.1013333,19.4533333 66.336,18.912 C65.5706667,18.3706667 65.0853333,17.6333333 64.88,16.7 L64.88,16.7 L76.276,16.7 C76.332,15.972 76.36,15.58 76.36,15.524 C76.36,13.956 76.0193333,12.5793333 75.338,11.394 C74.6566667,10.2086667 73.7186667,9.29866667 72.524,8.664 C71.3293333,8.02933333 69.9946667,7.712 68.52,7.712 C67.008,7.712 65.6406667,8.04333333 64.418,8.706 C63.1953333,9.36866667 62.234,10.2926667 61.534,11.478 C60.834,12.6633333 60.484,13.9933333 60.484,15.468 C60.484,16.9613333 60.8386667,18.296 61.548,19.472 C62.2573333,20.648 63.2653333,21.5673333 64.572,22.23 C65.8786667,22.8926667 67.3813333,23.224 69.08,23.224 Z M72.244,14.152 L64.824,14.152 C64.9733333,13.1813333 65.384,12.416 66.056,11.856 C66.728,11.296 67.5586667,11.016 68.548,11.016 C69.5186667,11.016 70.34,11.3006667 71.012,11.87 C71.684,12.4393333 72.0946667,13.2 72.244,14.152 L72.244,14.152 Z M84.64,23 L84.64,15.888 C84.64,14.488 84.9946667,13.438 85.704,12.738 C86.4133333,12.038 87.3933333,11.688 88.644,11.688 C88.812,11.688 89.1386667,11.7066667 89.624,11.744 L89.624,11.744 L89.624,7.712 C88.4666667,7.712 87.4446667,7.89866667 86.558,8.272 C85.6713333,8.64533333 84.9666667,9.196 84.444,9.924 L84.444,9.924 L84.444,7.936 L80.272,7.936 L80.272,23 L84.64,23 Z M96.588,23 L96.588,13.956 L108.852,13.956 L108.852,23 L110.896,23 L110.896,3.4 L108.852,3.4 L108.852,12.136 L96.588,12.136 L96.588,3.4 L94.516,3.4 L94.516,23 L96.588,23 Z M126.176,23.168 C128.714667,23.168 130.688667,22.44 132.098,20.984 C133.507333,19.528 134.212,17.4093333 134.212,14.628 L134.212,14.628 L134.212,3.4 L132.196,3.4 L132.196,14.544 C132.196,16.8213333 131.682667,18.52 130.656,19.64 C129.629333,20.76 128.136,21.32 126.176,21.32 C124.234667,21.32 122.750667,20.76 121.724,19.64 C120.697333,18.52 120.184,16.8213333 120.184,14.544 L120.184,14.544 L120.184,3.4 L118.112,3.4 L118.112,14.628 C118.112,17.4093333 118.821333,19.528 120.24,20.984 C121.658667,22.44 123.637333,23.168 126.176,23.168 Z M150.472,23 C152.898667,23 154.732667,22.5473333 155.974,21.642 C157.215333,20.7366667 157.836,19.444 157.836,17.764 C157.836,16.4573333 157.486,15.3886667 156.786,14.558 C156.086,13.7273333 155.092,13.172 153.804,12.892 C154.737333,12.5186667 155.47,11.954 156.002,11.198 C156.534,10.442 156.8,9.52266667 156.8,8.44 C156.8,6.83466667 156.198,5.59333333 154.994,4.716 C153.79,3.83866667 152.096,3.4 149.912,3.4 L149.912,3.4 L141.456,3.4 L141.456,23 L150.472,23 Z M149.772,12.22 L143.528,12.22 L143.528,5.108 L149.772,5.108 C151.358667,5.108 152.581333,5.41133333 153.44,6.018 C154.298667,6.62466667 154.728,7.50666667 154.728,8.664 C154.728,9.82133333 154.298667,10.7033333 153.44,11.31 C152.581333,11.9166667 151.358667,12.22 149.772,12.22 L149.772,12.22 Z M150.444,21.292 L143.528,21.292 L143.528,13.928 L150.444,13.928 C153.990667,13.928 155.764,15.1506667 155.764,17.596 C155.764,18.8653333 155.316,19.7986667 154.42,20.396 C153.524,20.9933333 152.198667,21.292 150.444,21.292 L150.444,21.292 Z" id="CyberHUB"></path>
                </g>
            </g>
        </g>
    </g>
</svg>