<svg xmlns="http://www.w3.org/2000/svg" xmlns:xlink="http://www.w3.org/1999/xlink" width="29" height="21" viewBox="0 0 29 21">
  <defs>
    <path id="twitter-a" d="M24.6767968,8.65717718 L24.6271872,8.6241041 C23.6019219,7.64844845 22.3947548,7.18542543 21.0056857,7.25157157 L20.9560761,7.15235235 L20.9891491,7.13581582 C22.2459259,6.85469469 22.9900701,6.55703704 23.2215816,6.22630631 C23.2877277,5.96172172 23.205045,5.81289289 22.9239239,5.77981982 C22.2955355,5.8625025 21.7002202,5.99479479 21.1875876,6.20976977 C21.849049,5.77981982 22.0970971,5.48216216 21.9482683,5.33333333 C21.3033433,5.34986987 20.5922723,5.6806006 19.8646647,6.34206206 C20.1292492,5.87903904 20.245005,5.61445445 20.1788589,5.58138138 C19.8150551,5.81289289 19.5173974,6.07747748 19.2528128,6.3585986 C18.6905706,6.98698699 18.2440841,7.56576577 17.8968168,8.09493493 L17.8802803,8.12800801 C17.0038438,9.56668669 16.3754555,11.0053654 16.0116517,12.4771171 L15.8793594,12.5928729 L15.8462863,12.6094094 C15.3171171,11.9479479 14.6721922,11.3857057 13.9115115,10.9392192 C13.0185385,10.3439039 11.9602002,9.7981982 10.7364965,9.25249249 C9.41357357,8.55795796 8.05757758,7.99571572 6.70158158,7.54922923 C6.68504505,9.08712713 7.44572573,10.2942943 8.91747748,11.1872673 L8.91747748,11.2038038 C8.40484484,11.2038038 7.89221221,11.2864865 7.39611612,11.4353153 C7.49533534,12.8574575 8.50406406,13.8331131 10.4057658,14.3622823 L10.3892292,14.3953554 C9.64508509,14.3457457 9.03323323,14.6103303 8.55367367,15.156036 C9.18206206,16.3797397 10.29001,16.9585185 11.8940541,16.9254454 C11.5798599,17.0908108 11.3318118,17.2561762 11.1664464,17.4546146 C10.8687888,17.7688088 10.7695696,18.1326126 10.8687888,18.546026 C11.2160561,19.1744144 11.8279079,19.4555355 12.7374174,19.4059259 L12.787027,19.4720721 L12.7704905,19.5051451 C11.1995195,21.1257257 9.29781782,21.8533333 7.08192192,21.7045045 L7.04884885,21.721041 C5.69285285,21.7045045 4.23763764,21.0595796 2.66666667,19.7697297 C4.23763764,22.0352352 6.33777778,23.6723524 8.93401401,24.7141542 C11.8940541,25.6898098 14.8706306,25.7724925 17.8306707,24.9291291 L17.8802803,24.9291291 C20.7576376,24.1023023 23.1885085,22.3825025 25.205966,19.8028028 C26.132012,18.4633433 26.7107908,17.1734935 26.9423023,15.9332533 C28.4471271,15.9828629 29.522002,15.5529129 30.2,14.6268669 L30.1834635,14.5937938 C29.6708308,14.7756957 28.6951752,14.7260861 27.2564965,14.4284284 L27.2564965,14.2630631 C28.844004,14.0811612 29.7865866,13.5685285 30.0842442,12.7251652 C28.9762963,13.1551151 27.8848849,13.1716517 26.81001,12.7582382 C26.6115716,11.2699499 25.9005005,9.89741742 24.6767968,8.65717718"/>
  </defs>
  <use fill="#605F65" fill-rule="evenodd" transform="translate(-2 -5)" xlink:href="#twitter-a"/>
</svg>
