<svg xmlns="http://www.w3.org/2000/svg" xmlns:xlink="http://www.w3.org/1999/xlink" width="80" height="85" viewBox="0 0 80 85">
  <defs>
    <linearGradient id="email-c" x1="100%" x2="0%" y1="0%" y2="100%">
      <stop offset="0%" stop-color="#83CEEC"/>
      <stop offset="100%" stop-color="#598DDC"/>
    </linearGradient>
    <polygon id="email-b" points="0 0 64 5.12 64 53.76 0 64"/>
    <filter id="email-a" width="162.5%" height="171.8%" x="-31.2%" y="-18.8%" filterUnits="objectBoundingBox">
      <feMorphology in="SourceAlpha" radius="6" result="shadowSpreadOuter1"/>
      <feOffset dy="16" in="shadowSpreadOuter1" result="shadowOffsetOuter1"/>
      <feGaussianBlur in="shadowOffsetOuter1" result="shadowBlurOuter1" stdDeviation="10"/>
      <feColorMatrix in="shadowBlurOuter1" values="0 0 0 0 0.0183033484   0 0 0 0 0.292829697   0 0 0 0 0.581804801  0 0 0 0.32 0"/>
    </filter>
    <path id="email-d" d="M26.6666667,4 C28.869713,4 30.6666667,5.79695367 30.6666667,8 L30.6666667,24 C30.6666667,26.2030463 28.869713,28 26.6666667,28 L5.3333338,28 C3.130287,28 1.3333338,26.2030463 1.3333338,23.9988889 L1.34666667,8 C1.34666667,5.79646502 3.13074228,4 5.3333338,4 L26.6666667,4 Z M23.8365089,9.35278804 L15.9603338,14.097 L8.40280128,9.5440722 C7.96353847,9.27940489 7.40227503,9.39192788 7.09612764,9.78810506 L7.03017858,9.88452327 L6.68612137,10.4555479 C6.40109505,10.9286001 6.55352019,11.5431442 7.02657245,11.8281706 L7.02657245,11.8281706 L16.0049314,17.237866 L16.0123338,17.224 L25.2171515,11.6379736 C25.6882092,11.3520779 25.8392253,10.7389925 25.5548477,10.2670168 L25.2091316,9.69323911 C24.9241053,9.22018685 24.3095612,9.06776172 23.8365089,9.35278804 Z"/>
  </defs>
  <g fill="none" fill-rule="evenodd" transform="translate(8)">
    <use fill="#000" filter="url(#email-a)" xlink:href="#email-b"/>
    <use fill="url(#email-c)" xlink:href="#email-b"/>
    <use fill="#FFF" fill-rule="nonzero" transform="translate(16 16)" xlink:href="#email-d"/>
  </g>
</svg>
