<svg width="45" height="45" viewBox="0 0 45 45" fill="none" xmlns="http://www.w3.org/2000/svg">
<path d="M19.6463 39.6097C21.5314 39.923 23.4552 39.9242 25.3407 39.6135M19.6463 39.6097C15.5972 38.9338 11.9171 36.8435 9.26426 33.7107C6.61138 30.5778 5.15576 26.6055 5.15631 22.5003C5.15699 19.1916 6.10409 15.9522 7.88585 13.1642C9.6676 10.3762 12.2097 8.15607 15.2121 6.76572C18.2145 5.37538 21.5519 4.87286 24.8306 5.31746C28.1093 5.76207 31.1924 7.13524 33.7161 9.27494C36.2398 11.4146 38.0988 14.2316 39.0738 17.3934C40.0487 20.5552 40.0989 23.9299 39.2184 27.1193C38.338 30.3087 36.5635 33.1797 34.1046 35.3935C31.6456 37.6073 28.6047 39.0716 25.3407 39.6135M19.6463 39.6097L19.6444 30.2253H16.0876C15.7892 30.2253 15.503 30.1068 15.2921 29.8958C15.0811 29.6849 14.9626 29.3987 14.9626 29.1003V25.6541C14.9626 25.3557 15.0811 25.0696 15.2921 24.8586C15.503 24.6476 15.7892 24.5291 16.0876 24.5291H19.6444V18.6566C19.6444 17.1647 20.2371 15.734 21.292 14.6791C22.3469 13.6242 23.7776 13.0316 25.2694 13.0316H28.6632C29.1605 13.0316 29.6374 13.2291 29.989 13.5808C30.3406 13.9324 30.5382 14.4093 30.5382 14.9066V16.8566C30.5382 17.3539 30.3406 17.8308 29.989 18.1824C29.6374 18.534 29.1605 18.7316 28.6632 18.7316H27.2157C26.7184 18.7316 26.2415 18.9291 25.8899 19.2808C25.5382 19.6324 25.3407 20.1093 25.3407 20.6066V24.5291H29.6476C29.8109 24.5291 29.9722 24.5646 30.1204 24.6332C30.2685 24.7018 30.4 24.8019 30.5056 24.9264C30.6113 25.0509 30.6885 25.197 30.732 25.3544C30.7755 25.5118 30.7842 25.6767 30.7576 25.8378L30.2888 28.6578C30.216 29.0957 29.9903 29.4934 29.6518 29.7805C29.3132 30.0675 28.8839 30.2251 28.4401 30.2253H25.3407V39.6135" stroke="url(#paint0_linear_582_1266)" stroke-width="2.72727" stroke-linecap="round"/>
<defs>
<linearGradient id="paint0_linear_582_1266" x1="5.15631" y1="39.8456" x2="42.5872" y2="5.61588" gradientUnits="userSpaceOnUse">
<stop stop-color="#639BDF"/>
<stop offset="1" stop-color="#80C9EB"/>
</linearGradient>
</defs>
</svg>
