<svg width="45" height="45" viewBox="0 0 45 45" fill="none" xmlns="http://www.w3.org/2000/svg">
<path d="M23.1113 17.8125H21.5625C19.7944 17.8125 18.9113 17.8125 18.3619 18.3619C17.8125 18.9113 17.8125 19.7944 17.8125 21.5625V37.5C17.8125 39.2681 17.8125 40.1513 18.3619 40.7006C18.9113 41.25 19.7944 41.25 21.5625 41.25H22.5C24.2681 41.25 25.1512 41.25 25.7006 40.7006C26.25 40.1513 26.25 39.2681 26.25 37.5V30.9375C26.25 27.8306 27.24 25.3125 30.165 25.3125C31.6275 25.3125 32.8125 26.5725 32.8125 28.125V36.5625C32.8125 38.3306 32.8125 39.2138 33.3619 39.7631C33.9112 40.3125 34.7944 40.3125 36.5625 40.3125H37.4981C39.2644 40.3125 40.1494 40.3125 40.6987 39.7631C41.2462 39.2138 41.2481 38.3306 41.2481 36.5644L41.25 26.25C41.25 21.5887 36.8175 17.8125 32.4319 17.8125C29.9344 17.8125 27.7069 19.035 26.25 20.9494C26.25 19.7681 26.25 19.1775 25.9931 18.7388C25.8307 18.4611 25.5995 18.23 25.3219 18.0675C24.8831 17.8106 24.2925 17.8106 23.1113 17.8106M8.4375 17.8125H7.5C5.73187 17.8125 4.84875 17.8125 4.29937 18.3619C3.75 18.9113 3.75 19.7944 3.75 21.5625V37.5C3.75 39.2681 3.75 40.1513 4.29937 40.7006C4.84875 41.25 5.73187 41.25 7.5 41.25H8.4375C10.2056 41.25 11.0887 41.25 11.6381 40.7006C12.1875 40.1513 12.1875 39.2681 12.1875 37.5V21.5625C12.1875 19.7944 12.1875 18.9113 11.6381 18.3619C11.0887 17.8125 10.2056 17.8125 8.4375 17.8125ZM12.1875 7.96875C12.1875 9.08763 11.743 10.1607 10.9519 10.9519C10.1607 11.743 9.08763 12.1875 7.96875 12.1875C6.84987 12.1875 5.77681 11.743 4.98564 10.9519C4.19447 10.1607 3.75 9.08763 3.75 7.96875C3.75 6.84987 4.19447 5.77681 4.98564 4.98564C5.77681 4.19447 6.84987 3.75 7.96875 3.75C9.08763 3.75 10.1607 4.19447 10.9519 4.98564C11.743 5.77681 12.1875 6.84987 12.1875 7.96875Z" stroke="url(#paint0_linear_582_1265)" stroke-width="2.72727" stroke-linecap="round" stroke-linejoin="round"/>
<defs>
<linearGradient id="paint0_linear_582_1265" x1="3.75" y1="41.25" x2="44.218" y2="4.24508" gradientUnits="userSpaceOnUse">
<stop stop-color="#639BDF"/>
<stop offset="1" stop-color="#80C9EB"/>
</linearGradient>
</defs>
</svg>
