<?xml version="1.0" encoding="UTF-8"?>
<svg width="19px" height="19px" viewBox="0 0 19 19" version="1.1" xmlns="http://www.w3.org/2000/svg" xmlns:xlink="http://www.w3.org/1999/xlink">
    <!-- Generator: sketchtool 58 (101010) - https://sketch.com -->
    <title>9CA73325-1B92-4C47-AD9F-B23C20A847BB</title>
    <desc>Created with sketchtool.</desc>
    <defs>
        <rect id="path-1" x="0" y="0" width="24" height="24"></rect>
    </defs>
    <g id="Final-1440" stroke="none" stroke-width="1" fill="none" fill-rule="evenodd">
        <g id="StatumWebFinal-01-01-Home" transform="translate(-294.000000, -22.000000)">
            <g id="header-/-large">
                <g id="eyebrow">
                    <g id="phone-@-Icons-/-Other-/-Call" transform="translate(292.000000, 20.000000)">
                        <mask id="mask-2" fill="white">
                            <use xlink:href="#path-1"></use>
                        </mask>
                        <g id="boundbox"></g>
                        <path d="M16.1800069,14.3109864 C15.8552069,14.1205864 15.4560068,14.1245864 15.1328068,14.3165864 L13.4960068,15.2917864 C13.1296068,15.5101863 12.6720067,15.4845863 12.3360067,15.2221864 C11.7552067,14.7685864 10.8200067,14.0053864 10.0064066,13.1917864 C9.19280662,12.3781864 8.42960659,11.4429864 7.97600658,10.8621864 C7.71360657,10.5261864 7.68800657,10.0685864 7.90640657,9.70218638 L8.88160661,8.06538639 C9.07440662,7.74218639 9.07600662,7.33978639 8.88560661,7.01498639 L6.48400652,2.91258641 C6.25120652,2.51578642 5.7888065,2.32058642 5.34160648,2.43018642 C4.90720647,2.53578642 4.34320645,2.79338641 3.75200643,3.38538641 C1.90080636,5.2365864 0.917606324,8.35898639 7.87920657,15.3205864 C14.8408068,22.2821863 17.9624069,21.2997863 19.814407,19.4477863 C20.407207,18.8549863 20.664007,18.2901863 20.770407,17.8549863 C20.878407,17.4085863 20.686407,16.9493863 20.290407,16.7173863 C19.301607,16.1389863 17.1688069,14.8901864 16.1800069,14.3109864 Z" id="Path" fill="#8E8E93" mask="url(#mask-2)"></path>
                    </g>
                </g>
            </g>
        </g>
    </g>
</svg>