<svg width="46" height="45" viewBox="0 0 46 45" fill="none" xmlns="http://www.w3.org/2000/svg">
<path d="M34.6592 16.4062C34.6592 -0.46875 12.1592 -0.46875 12.1592 16.4062V19.2188H9.10668C8.01356 19.2188 7.56356 20.6231 8.45418 21.2588L12.1592 23.9062C11.5348 26.0944 8.97168 30.8438 3.72168 32.3438C4.34605 33.2812 6.15918 35.1562 8.40918 35.1562L10.2842 37.9688L14.9717 37.0312C16.5336 38.2819 20.4092 40.7812 23.4092 40.7812C26.4092 40.7812 30.2848 38.2819 31.8467 37.0312L36.5342 37.9688L38.4092 35.1562C40.6592 35.1562 42.4723 33.2812 43.0967 32.3438C37.8467 30.8438 35.2836 26.0944 34.6592 23.9062L38.3642 21.2588C39.2548 20.6231 38.8048 19.2188 37.7117 19.2188H34.6592V16.4062Z" fill="url(#paint0_linear_582_1225)" stroke="url(#paint1_linear_582_1225)" stroke-width="2.72727" stroke-linecap="round" stroke-linejoin="round"/>
<defs>
<linearGradient id="paint0_linear_582_1225" x1="3.72168" y1="40.7812" x2="43.828" y2="1.78589" gradientUnits="userSpaceOnUse">
<stop stop-color="#639BDF"/>
<stop offset="1" stop-color="#80C9EB"/>
</linearGradient>
<linearGradient id="paint1_linear_582_1225" x1="3.72168" y1="40.7812" x2="43.828" y2="1.78589" gradientUnits="userSpaceOnUse">
<stop stop-color="#639BDF"/>
<stop offset="1" stop-color="#80C9EB"/>
</linearGradient>
</defs>
</svg>
