<svg width="45" height="45" viewBox="0 0 45 45" fill="none" xmlns="http://www.w3.org/2000/svg">
<path d="M20.6249 17.4375C17.9812 16.6493 15.1564 16.7142 12.5516 17.6229C9.94688 18.5316 7.69469 20.2379 6.11495 22.4995C4.53521 24.7611 3.70826 27.463 3.75156 30.2214C3.79485 32.9797 4.70619 35.6543 6.35613 37.8652C8.00607 40.0762 10.3107 41.711 12.9427 42.5375C15.5747 43.364 18.4002 43.3402 21.0178 42.4694C23.6355 41.5986 25.9122 39.9251 27.5246 37.6867C29.1371 35.4483 30.0032 32.7587 29.9999 30V16.875C32.4999 19.375 36.2499 20.625 41.2499 20.625V11.25C36.2499 11.25 32.4999 8.125 29.9999 1.875H20.6249V30M20.6249 30C20.6249 29.2583 20.405 28.5333 19.9929 27.9166C19.5809 27.2999 18.9952 26.8193 18.31 26.5355C17.6248 26.2516 16.8708 26.1774 16.1433 26.3221C15.4159 26.4667 14.7477 26.8239 14.2233 27.3484C13.6988 27.8728 13.3417 28.541 13.197 29.2684C13.0523 29.9958 13.1266 30.7498 13.4104 31.4351C13.6942 32.1203 14.1749 32.706 14.7915 33.118C15.4082 33.5301 16.1333 33.75 16.8749 33.75C17.8695 33.75 18.8233 33.3549 19.5266 32.6516C20.2298 31.9484 20.6249 30.9946 20.6249 30Z" stroke="url(#paint0_linear_582_1269)" stroke-width="2.72727" stroke-linecap="round" stroke-linejoin="round"/>
<defs>
<linearGradient id="paint0_linear_582_1269" x1="3.74994" y1="43.1404" x2="47.7041" y2="6.6151" gradientUnits="userSpaceOnUse">
<stop stop-color="#639BDF"/>
<stop offset="1" stop-color="#80C9EB"/>
</linearGradient>
</defs>
</svg>
