<svg width="46" height="45" viewBox="0 0 46 45" fill="none" xmlns="http://www.w3.org/2000/svg">
<path d="M19.8279 39.6097C21.713 39.923 23.6368 39.9242 25.5223 39.6135L19.8279 39.6097ZM19.8279 39.6097C15.7787 38.9338 12.0987 36.8435 9.44584 33.7107C6.79296 30.5778 5.33734 26.6055 5.33789 22.5003C5.33857 19.1916 6.28567 15.9522 8.06743 13.1642C9.84918 10.3762 12.3912 8.15607 15.3936 6.76572C18.396 5.37538 21.7335 4.87286 25.0122 5.31746C28.2909 5.76207 31.374 7.13524 33.8977 9.27494C36.4214 11.4146 38.2804 14.2316 39.2554 17.3934C40.2303 20.5552 40.2805 23.9299 39.4 27.1193C38.5195 30.3087 36.7451 33.1797 34.2861 35.3935C31.8272 37.6073 28.7863 39.0716 25.5223 39.6135M19.8279 39.6097L19.826 30.2253H16.2691C15.9708 30.2253 15.6846 30.1068 15.4736 29.8958C15.2627 29.6849 15.1441 29.3987 15.1441 29.1003V25.6541C15.1441 25.3557 15.2627 25.0696 15.4736 24.8586C15.6846 24.6476 15.9708 24.5291 16.2691 24.5291H19.826V18.6566C19.826 17.1647 20.4186 15.734 21.4735 14.6791C22.5284 13.6242 23.9592 13.0316 25.451 13.0316H28.8448C29.342 13.0316 29.819 13.2291 30.1706 13.5808C30.5222 13.9324 30.7198 14.4093 30.7198 14.9066V16.8566C30.7198 17.3539 30.5222 17.8308 30.1706 18.1824C29.819 18.534 29.342 18.7316 28.8448 18.7316H27.3973C26.9 18.7316 26.4231 18.9291 26.0714 19.2808C25.7198 19.6324 25.5223 20.1093 25.5223 20.6066V24.5291H29.8291C29.9924 24.5291 30.1538 24.5646 30.302 24.6332C30.4501 24.7018 30.5816 24.8019 30.6872 24.9264C30.7928 25.0509 30.8701 25.197 30.9136 25.3544C30.9571 25.5118 30.9658 25.6767 30.9391 25.8378L30.4704 28.6578C30.3976 29.0957 30.1719 29.4935 29.8333 29.7805C29.4948 30.0675 29.0655 30.2251 28.6216 30.2253H25.5223V39.6135" fill="url(#paint0_linear_582_1230)"/>
<path d="M19.8279 39.6097C21.713 39.923 23.6368 39.9242 25.5223 39.6135M19.8279 39.6097C15.7787 38.9338 12.0987 36.8435 9.44584 33.7107C6.79296 30.5778 5.33734 26.6055 5.33789 22.5003C5.33857 19.1916 6.28567 15.9522 8.06743 13.1642C9.84918 10.3762 12.3912 8.15607 15.3936 6.76572C18.396 5.37538 21.7335 4.87286 25.0122 5.31746C28.2909 5.76207 31.374 7.13524 33.8977 9.27494C36.4214 11.4146 38.2804 14.2316 39.2554 17.3934C40.2303 20.5552 40.2805 23.9299 39.4 27.1193C38.5195 30.3087 36.7451 33.1797 34.2861 35.3935C31.8272 37.6073 28.7863 39.0716 25.5223 39.6135M19.8279 39.6097L19.826 30.2253H16.2691C15.9708 30.2253 15.6846 30.1068 15.4736 29.8958C15.2627 29.6849 15.1441 29.3987 15.1441 29.1003V25.6541C15.1441 25.3557 15.2627 25.0696 15.4736 24.8586C15.6846 24.6476 15.9708 24.5291 16.2691 24.5291H19.826V18.6566C19.826 17.1647 20.4186 15.734 21.4735 14.6791C22.5284 13.6242 23.9592 13.0316 25.451 13.0316H28.8448C29.342 13.0316 29.819 13.2291 30.1706 13.5808C30.5222 13.9324 30.7198 14.4093 30.7198 14.9066V16.8566C30.7198 17.3539 30.5222 17.8308 30.1706 18.1824C29.819 18.534 29.342 18.7316 28.8448 18.7316H27.3973C26.9 18.7316 26.4231 18.9291 26.0714 19.2808C25.7198 19.6324 25.5223 20.1093 25.5223 20.6066V24.5291H29.8291C29.9924 24.5291 30.1538 24.5646 30.302 24.6332C30.4501 24.7018 30.5816 24.8019 30.6872 24.9264C30.7928 25.0509 30.8701 25.197 30.9136 25.3544C30.9571 25.5118 30.9658 25.6767 30.9391 25.8378L30.4704 28.6578C30.3976 29.0957 30.1719 29.4935 29.8333 29.7805C29.4948 30.0675 29.0655 30.2251 28.6216 30.2253H25.5223V39.6135" stroke="url(#paint1_linear_582_1230)" stroke-width="2.72727" stroke-linecap="round"/>
<path d="M25.4507 14.3948H28.8442C28.9799 14.3948 29.1106 14.4493 29.2065 14.5452C29.3023 14.641 29.356 14.771 29.356 14.9065V16.8567C29.3559 16.9922 29.3023 17.1222 29.2065 17.218C29.1106 17.3139 28.9799 17.3674 28.8442 17.3674H27.397C26.5381 17.3675 25.7142 17.7093 25.1069 18.3167C24.4997 18.924 24.1587 19.7478 24.1587 20.6067V25.8928H29.5483L29.1255 28.4338C29.1056 28.5532 29.0439 28.6622 28.9517 28.7405C28.8593 28.8188 28.7416 28.8615 28.6206 28.8616H24.1587V39.7981C23.1713 39.8889 22.1782 39.8884 21.1909 39.7961L21.1899 30.2249L21.189 28.8616H16.5073V25.8928H21.1899V18.6565C21.1899 17.597 21.5837 16.5778 22.2915 15.7961L22.438 15.6428C23.2371 14.8439 24.3208 14.3948 25.4507 14.3948Z" fill="white" stroke="white" stroke-width="2.72727" stroke-linecap="round"/>
<defs>
<linearGradient id="paint0_linear_582_1230" x1="5.33789" y1="39.8456" x2="42.7687" y2="5.61588" gradientUnits="userSpaceOnUse">
<stop stop-color="#639BDF"/>
<stop offset="1" stop-color="#80C9EB"/>
</linearGradient>
<linearGradient id="paint1_linear_582_1230" x1="5.33789" y1="39.8456" x2="42.7687" y2="5.61588" gradientUnits="userSpaceOnUse">
<stop stop-color="#639BDF"/>
<stop offset="1" stop-color="#80C9EB"/>
</linearGradient>
</defs>
</svg>
