<svg width="45" height="45" viewBox="0 0 45 45" fill="none" xmlns="http://www.w3.org/2000/svg">
<path d="M33.75 16.4062C33.75 -0.46875 11.25 -0.46875 11.25 16.4062V19.2188H8.1975C7.10438 19.2188 6.65438 20.6231 7.545 21.2588L11.25 23.9062C10.6256 26.0944 8.0625 30.8437 2.8125 32.3438C3.43688 33.2812 5.25 35.1562 7.5 35.1562L9.375 37.9688L14.0625 37.0312C15.6244 38.2819 19.5 40.7812 22.5 40.7812C25.5 40.7812 29.3756 38.2819 30.9375 37.0312L35.625 37.9688L37.5 35.1562C39.75 35.1562 41.5631 33.2812 42.1875 32.3438C36.9375 30.8437 34.3744 26.0944 33.75 23.9062L37.455 21.2588C38.3456 20.6231 37.8956 19.2188 36.8025 19.2188H33.75V16.4062Z" stroke="url(#paint0_linear_582_1270)" stroke-width="2.72727" stroke-linecap="round" stroke-linejoin="round"/>
<defs>
<linearGradient id="paint0_linear_582_1270" x1="2.8125" y1="40.7812" x2="42.9188" y2="1.78589" gradientUnits="userSpaceOnUse">
<stop stop-color="#639BDF"/>
<stop offset="1" stop-color="#80C9EB"/>
</linearGradient>
</defs>
</svg>
