<svg width="45" height="45" viewBox="0 0 45 45" fill="none" xmlns="http://www.w3.org/2000/svg">
<path d="M10.3724 9.76312C15.5687 9.50437 19.6105 9.375 22.498 9.375C25.3855 9.375 29.429 9.50469 34.6284 9.76406C35.9889 9.83197 37.2786 10.3913 38.258 11.3382C39.2373 12.2852 39.8397 13.5553 39.9534 14.9128C40.1915 17.7566 40.3105 20.2619 40.3105 22.4287C40.3105 24.6212 40.1887 27.1612 39.9449 30.0487C39.8318 31.3907 39.2409 32.6475 38.2797 33.5907C37.3186 34.534 36.0509 35.1011 34.7071 35.1891C30.2627 35.4797 26.193 35.625 22.498 35.625C18.8043 35.625 14.7362 35.4797 10.2937 35.1891C8.9503 35.1012 7.68298 34.5345 6.72189 33.5918C5.76079 32.6491 5.16966 31.393 5.05586 30.0516C4.80898 27.1422 4.68555 24.6012 4.68555 22.4287C4.68555 20.2819 4.80586 17.7756 5.04648 14.91C5.16056 13.5528 5.76317 12.2831 6.74246 11.3366C7.72176 10.3901 9.01121 9.83098 10.3715 9.76312H10.3724Z" stroke="url(#paint0_linear_582_1268)" stroke-width="2.72727" stroke-linejoin="round"/>
<path d="M19.6875 18.3842V26.6304C19.6874 26.7756 19.7267 26.9182 19.8012 27.0428C19.8757 27.1675 19.9826 27.2696 20.1105 27.3384C20.2384 27.4072 20.3826 27.44 20.5276 27.4333C20.6727 27.4267 20.8133 27.3809 20.9344 27.3007L27.1191 23.2132C27.2296 23.1404 27.3204 23.0413 27.3834 22.9249C27.4464 22.8084 27.4797 22.6782 27.4803 22.5458C27.4808 22.4134 27.4486 22.283 27.3866 22.166C27.3246 22.049 27.2346 21.9492 27.1247 21.8754L20.9391 17.7167C20.8182 17.6354 20.6775 17.5886 20.532 17.5811C20.3866 17.5737 20.2418 17.6059 20.1133 17.6744C19.9847 17.7428 19.8772 17.845 19.8022 17.9698C19.7272 18.0947 19.6876 18.2376 19.6875 18.3832V18.3842Z" stroke="url(#paint1_linear_582_1268)" stroke-width="2.72727" stroke-linejoin="round"/>
<defs>
<linearGradient id="paint0_linear_582_1268" x1="4.68555" y1="35.625" x2="32.4762" y2="1.13665" gradientUnits="userSpaceOnUse">
<stop stop-color="#639BDF"/>
<stop offset="1" stop-color="#80C9EB"/>
</linearGradient>
<linearGradient id="paint1_linear_582_1268" x1="19.6875" y1="27.4342" x2="29.8267" y2="20.1021" gradientUnits="userSpaceOnUse">
<stop stop-color="#639BDF"/>
<stop offset="1" stop-color="#80C9EB"/>
</linearGradient>
</defs>
</svg>
