<svg xmlns="http://www.w3.org/2000/svg" width="218" height="201" viewBox="0 0 218 201" fill="none">
  <path d="M98.2496 189.08C117.938 193.317 138.476 190.886 156.631 182.169C174.786 173.452 189.526 158.945 198.531 140.932C207.537 122.919 210.295 102.422 206.373 82.6684C202.451 62.9151 192.07 45.0272 176.866 31.8208C161.662 18.6145 142.497 10.8398 122.389 9.72071C102.281 8.60164 82.3723 14.2018 65.7965 25.6394C49.2206 37.0771 36.9195 53.7027 30.8295 72.8988C24.7396 92.0949 25.2068 112.771 32.1576 131.673L9.51854 169.971L53.7404 165.103C65.9933 177.167 81.4341 185.485 98.2496 189.08Z" fill="white" stroke="url(#paint0_linear_1339_1571)" stroke-width="18.687" stroke-linecap="round" stroke-linejoin="round"/>
  <path d="M150.605 39.4239C139.911 33.5858 127.868 30.6656 115.688 30.9567C103.507 31.2478 91.6184 34.74 81.2155 41.0823C70.8125 47.4246 62.2624 56.3935 56.4243 67.0875C50.5863 77.7816 47.6661 89.8239 47.9572 102.004C48.2483 114.185 51.7405 126.074 58.0828 136.477C64.4251 146.88 73.394 155.43 84.088 161.268C94.782 167.106 106.824 170.026 119.005 169.735C131.185 169.444 143.074 165.952 153.477 159.609L129.04 119.527C125.673 121.58 121.825 122.71 117.883 122.804C113.941 122.899 110.043 121.953 106.582 120.064C103.121 118.174 100.218 115.407 98.1649 112.04C96.1122 108.673 94.9819 104.825 94.8877 100.883C94.7934 96.9403 95.7386 93.0426 97.6282 89.5814C99.5177 86.1201 102.285 83.2172 105.652 81.1645C109.019 79.1117 112.867 77.9814 116.81 77.8872C120.752 77.793 124.649 78.7381 128.111 80.6277L150.605 39.4239Z" fill="url(#paint1_linear_1339_1571)"/>
  <circle cx="71.9664" cy="100.346" r="13.3479" fill="white"/>
  <defs>
    <linearGradient id="paint0_linear_1339_1571" x1="9.50528" y1="169.968" x2="238.727" y2="36.0914" gradientUnits="userSpaceOnUse">
      <stop stop-color="#5188D7"/>
      <stop offset="1" stop-color="#80C9EB"/>
    </linearGradient>
    <linearGradient id="paint1_linear_1339_1571" x1="47.9374" y1="169.755" x2="197.742" y2="32.7696" gradientUnits="userSpaceOnUse">
      <stop stop-color="#5188D7"/>
      <stop offset="1" stop-color="#80C9EB"/>
    </linearGradient>
  </defs>
</svg>
