<svg width="20" height="21" viewBox="0 0 20 21" fill="none" xmlns="http://www.w3.org/2000/svg">
<path d="M10.0001 4.83301V18.9997M10.0001 4.83301C10.3316 4.83301 10.6495 4.70131 10.8839 4.46689C11.1184 4.23247 11.2501 3.91453 11.2501 3.58301C11.2501 3.25149 11.1184 2.93354 10.8839 2.69912C10.6495 2.4647 10.3316 2.33301 10.0001 2.33301C9.66854 2.33301 9.3506 2.4647 9.11618 2.69912C8.88176 2.93354 8.75006 3.25149 8.75006 3.58301C8.75006 3.91453 8.88176 4.23247 9.11618 4.46689C9.3506 4.70131 9.66854 4.83301 10.0001 4.83301ZM10.0001 18.9997H7.50006M10.0001 18.9997H12.5001M17.5001 11.4997L15.4167 7.33301L13.3334 11.4997M6.66673 11.4997L4.58339 7.33301L2.50006 11.4997M3.33339 7.33301H4.20673C5.26006 7.33301 6.28173 6.89217 7.10339 6.08301C8.79673 4.41634 11.2034 4.41634 12.8967 6.08301C13.7184 6.89217 14.7401 7.33301 15.7934 7.33301H16.6667M15.4167 14.833C16.5459 14.833 17.5284 14.138 18.0392 13.1122C18.3151 12.558 18.4526 12.2813 18.2017 11.8905C17.9501 11.4997 17.5334 11.4997 16.7001 11.4997H14.1317C13.2992 11.4997 12.8826 11.4997 12.6317 11.8905C12.3801 12.2813 12.5176 12.558 12.7934 13.1122C13.3051 14.138 14.2876 14.833 15.4167 14.833ZM4.58339 14.833C5.71256 14.833 6.69506 14.138 7.20589 13.1122C7.48173 12.558 7.61923 12.2813 7.36839 11.8905C7.11673 11.4997 6.70006 11.4997 5.86673 11.4997H3.29923C2.46673 11.4997 2.05006 11.4997 1.79923 11.8905C1.54756 12.2813 1.68506 12.558 1.96089 13.1122C2.47173 14.138 3.45423 14.833 4.58339 14.833Z" stroke="#5188D7" stroke-width="1.66667" stroke-linecap="round" stroke-linejoin="round"/>
</svg>
