<svg xmlns="http://www.w3.org/2000/svg" width="246" height="246" viewBox="0 0 246 246" fill="none">
  <g opacity="0.5">
    <path d="M123 41C109.408 41 96.372 46.3995 86.7608 56.0108C77.1495 65.622 71.75 78.6577 71.75 92.25C71.75 94.9685 72.8299 97.5756 74.7522 99.4978C76.6744 101.42 79.2815 102.5 82 102.5C84.7185 102.5 87.3256 101.42 89.2478 99.4978C91.1701 97.5756 92.25 94.9685 92.25 92.25C92.25 75.2555 106.006 61.5 123 61.5C139.994 61.5 153.75 75.2555 153.75 92.25C153.75 100.614 151.71 105.513 149.261 108.947C146.575 112.688 142.854 115.487 137.699 119.044L136.509 119.843C131.928 122.98 126.024 127.008 121.452 132.625C116.05 139.267 112.75 147.661 112.75 158.875V164C112.75 166.718 113.83 169.326 115.752 171.248C117.674 173.17 120.282 174.25 123 174.25C125.718 174.25 128.326 173.17 130.248 171.248C132.17 169.326 133.25 166.718 133.25 164V158.875C133.25 152.151 135.074 148.379 137.35 145.56C139.984 142.342 143.531 139.902 148.769 136.305L149.312 135.925C154.396 132.44 160.925 127.869 165.917 120.878C171.175 113.58 174.25 104.376 174.25 92.25C174.25 78.6577 168.85 65.622 159.239 56.0108C149.628 46.3995 136.592 41 123 41ZM123 217.812C126.398 217.812 129.657 216.463 132.06 214.06C134.463 211.657 135.812 208.398 135.812 205C135.812 201.602 134.463 198.343 132.06 195.94C129.657 193.537 126.398 192.188 123 192.188C119.602 192.188 116.343 193.537 113.94 195.94C111.537 198.343 110.188 201.602 110.188 205C110.188 208.398 111.537 211.657 113.94 214.06C116.343 216.463 119.602 217.812 123 217.812Z" fill="url(#paint0_linear_1339_1580)"/>
  </g>
  <defs>
    <linearGradient id="paint0_linear_1339_1580" x1="71.75" y1="217.812" x2="230.3" y2="133.765" gradientUnits="userSpaceOnUse">
      <stop stop-color="#5188D7"/>
      <stop offset="1" stop-color="#80C9EB"/>
    </linearGradient>
  </defs>
</svg>
