<svg xmlns="http://www.w3.org/2000/svg" width="246" height="246" viewBox="0 0 246 246" fill="none">
  <g opacity="0.5">
    <path fill-rule="evenodd" clip-rule="evenodd" d="M111.7 12.4769C115.121 10.1967 119.132 9 123.206 9C127.281 9 131.292 10.1968 134.713 12.4772L134.728 12.4871L141.751 17.1546C159.058 28.6801 179.089 35.8254 200.016 37.9092L200.133 37.9214C204.796 38.427 209.178 40.6017 212.4 44.131C215.614 47.6522 217.433 52.271 217.412 57.1129V112.364C217.412 142.711 201.066 169.81 184.024 190.062C166.766 210.57 147.178 225.965 137.319 233.16C133.217 236.182 128.261 237.786 123.206 237.786C118.134 237.786 113.162 236.171 109.052 233.13C108.885 233.006 108.722 232.879 108.562 232.749C98.534 225.401 79.338 210.198 62.3891 190.06C45.3459 169.81 29.0005 142.711 29.0005 112.364V57.116C28.9786 52.2729 30.798 47.6529 34.0128 44.131C37.2341 40.6018 41.6166 38.4271 46.2792 37.9214L46.3967 37.9092C67.3237 35.8254 87.3542 28.6801 104.661 17.1546L111.684 12.4871L111.7 12.4769Z" fill="url(#paint0_linear_1339_1575)"/>
    <path d="M131.934 33.6053L128 31L128.015 218C138.241 210.413 156.073 196.015 171.637 177.584C188.498 157.616 201 134.919 201 112.319V59.8764C176.278 56.3182 152.651 47.3539 131.934 33.6053Z" fill="#FAFAFA"/>
  </g>
  <defs>
    <linearGradient id="paint0_linear_1339_1575" x1="29.0003" y1="237.786" x2="267.236" y2="58.3809" gradientUnits="userSpaceOnUse">
      <stop stop-color="#5188D7"/>
      <stop offset="1" stop-color="#80C9EB"/>
    </linearGradient>
  </defs>
</svg>
