<svg width="246" height="246" viewBox="0 0 246 246" fill="none" xmlns="http://www.w3.org/2000/svg">
<g opacity="0.5">
<path d="M123 102.5C133.874 102.5 144.302 98.1804 151.991 90.4914C159.68 82.8024 164 72.3739 164 61.5C164 50.6261 159.68 40.1976 151.991 32.5086C144.302 24.8196 133.874 20.5 123 20.5C112.126 20.5 101.698 24.8196 94.0086 32.5086C86.3196 40.1976 82 50.6261 82 61.5C82 72.3739 86.3196 82.8024 94.0086 90.4914C101.698 98.1804 112.126 102.5 123 102.5ZM56.375 133.25C63.1712 133.25 69.689 130.55 74.4946 125.745C79.3002 120.939 82 114.421 82 107.625C82 100.829 79.3002 94.311 74.4946 89.5054C69.689 84.6998 63.1712 82 56.375 82C49.5788 82 43.061 84.6998 38.2554 89.5054C33.4498 94.311 30.75 100.829 30.75 107.625C30.75 114.421 33.4498 120.939 38.2554 125.745C43.061 130.55 49.5788 133.25 56.375 133.25ZM215.25 107.625C215.25 114.421 212.55 120.939 207.745 125.745C202.939 130.55 196.421 133.25 189.625 133.25C182.829 133.25 176.311 130.55 171.505 125.745C166.7 120.939 164 114.421 164 107.625C164 100.829 166.7 94.311 171.505 89.5054C176.311 84.6998 182.829 82 189.625 82C196.421 82 202.939 84.6998 207.745 89.5054C212.55 94.311 215.25 100.829 215.25 107.625ZM123 112.75C136.592 112.75 149.628 118.15 159.239 127.761C168.85 137.372 174.25 150.408 174.25 164V225.5H71.75V164C71.75 150.408 77.1495 137.372 86.7608 127.761C96.372 118.15 109.408 112.75 123 112.75ZM51.25 164C51.25 156.897 52.275 150.039 54.202 143.561L52.4595 143.705C43.674 144.67 35.5538 148.843 29.6559 155.426C23.7581 162.009 20.4977 170.537 20.5 179.375V225.5H51.25V164ZM225.5 225.5V179.375C225.501 170.236 222.014 161.441 215.751 154.785C209.488 148.129 200.92 144.115 191.798 143.561C193.715 150.039 194.75 156.897 194.75 164V225.5H225.5Z" fill="url(#paint0_linear_1339_1578)"/>
</g>
<defs>
<linearGradient id="paint0_linear_1339_1578" x1="20.5" y1="225.5" x2="241.725" y2="23.2065" gradientUnits="userSpaceOnUse">
<stop stop-color="#5188D7"/>
<stop offset="1" stop-color="#80C9EB"/>
</linearGradient>
</defs>
</svg>
