<svg width="295" height="71" viewBox="0 0 295 71" fill="none" xmlns="http://www.w3.org/2000/svg">
<g clip-path="url(#clip0_20_410)">
<path d="M253.984 0C238.659 0 226.039 12.3968 226.039 27.9492C226.039 43.2762 238.434 55.8984 253.984 55.8984C269.309 55.8984 281.929 43.5016 281.929 27.9492C281.929 12.3968 269.309 0 253.984 0ZM275.619 12.3968C274.267 13.2984 272.689 14.2 271.112 15.1016C270.21 13.2984 269.083 11.4952 267.731 9.91746C268.858 9.24127 269.985 8.33968 270.886 7.66349C272.914 8.79048 274.492 10.5937 275.619 12.3968ZM263.9 3.15556C266.154 4.05714 268.182 5.18413 270.21 6.7619C269.309 7.66349 268.182 8.33968 267.055 9.01587C265.703 7.4381 264.125 6.08571 262.548 4.73333C262.998 4.05714 263.449 3.60635 263.9 3.15556ZM266.154 9.46667C264.576 10.3683 262.998 10.819 261.421 11.4952C260.745 9.91746 260.069 8.33968 259.167 6.9873C260.069 6.53651 260.97 6.08571 261.646 5.40952C263.224 6.53651 264.801 7.88889 266.154 9.46667ZM262.773 2.70476C262.322 3.15556 261.872 3.60635 261.646 4.05714C260.069 3.15556 258.717 2.25397 256.914 1.57778C258.942 1.57778 260.97 2.02857 262.773 2.70476ZM260.745 4.73333C260.069 5.18413 259.393 5.63492 258.717 5.86032C257.815 4.50794 256.914 3.38095 256.012 2.02857C257.59 2.70476 259.167 3.60635 260.745 4.73333ZM254.435 2.25397C255.562 3.38095 256.463 4.73333 257.364 6.31111C256.463 6.53651 255.562 6.7619 254.435 6.7619V2.25397ZM254.435 7.88889C255.562 7.88889 256.914 7.66349 258.04 7.2127C258.942 8.56508 259.618 10.1429 260.294 11.7206C258.491 12.1714 256.463 12.3968 254.435 12.6222V7.88889ZM253.308 2.25397V6.7619C252.406 6.7619 251.505 6.53651 250.378 6.31111C251.505 4.95873 252.406 3.60635 253.308 2.25397ZM249.477 5.86032C248.801 5.63492 247.899 5.18413 247.448 4.73333C249.026 3.83175 250.604 2.93016 252.181 2.25397C251.054 3.38095 250.153 4.50794 249.477 5.86032ZM251.054 1.35238C249.477 2.02857 247.899 2.93016 246.322 3.83175C245.871 3.38095 245.42 2.93016 245.195 2.47937C246.998 2.02857 249.026 1.57778 251.054 1.35238ZM270.21 49.1365C266.604 47.1079 266.379 44.1778 266.604 43.2762C266.83 42.1492 267.506 42.6 267.956 42.6C270.435 42.6 272.914 41.9238 276.07 38.5429C279.675 34.9365 280.802 26.8222 275.168 21.6381C269.309 16.0032 262.998 16.9048 258.942 22.0889C258.04 23.2159 256.012 23.8921 254.435 23.8921C251.73 23.8921 253.533 25.9206 253.533 26.3714C253.533 26.8222 253.082 27.0476 252.857 27.0476C251.956 26.8222 252.406 28.1746 252.406 28.4C252.406 28.6254 251.956 29.0762 251.956 29.0762C250.829 29.0762 251.054 29.9778 251.28 30.4286C251.28 30.654 251.28 31.1048 250.829 31.3302C250.378 31.5556 250.153 32.4571 250.153 33.1333C250.153 34.2603 251.28 35.1619 253.083 36.5143C254.885 37.8667 255.111 39.219 255.111 40.1206C255.111 41.0222 255.336 42.6 255.562 43.5016C256.012 44.6286 256.012 46.8825 253.533 46.8825C250.378 47.1079 244.969 49.3619 244.519 49.5873C242.716 50.2635 240.462 50.4889 238.659 50.0381C237.758 49.3619 236.856 48.6857 235.955 47.7841C235.504 46.6571 236.18 45.3048 236.856 44.4032C237.983 45.5302 239.335 45.3048 240.237 45.3048C241.138 45.3048 245.195 44.6286 245.871 44.4032C246.547 44.1778 246.772 44.1778 246.998 44.4032C248.575 45.0794 250.829 45.0794 251.73 42.1492C252.632 38.9937 250.604 39.8952 250.153 40.1206C249.927 40.346 249.477 40.1206 249.702 39.8952C250.153 39.2191 249.477 39.219 249.251 39.219C248.35 39.219 247.223 40.1206 246.998 40.346C246.547 40.5714 246.322 40.5714 246.096 40.5714C244.969 39.8952 241.589 40.7968 240.462 38.9936C240.462 38.5429 239.561 31.1048 239.11 29.7524C239.11 29.527 238.885 29.0762 239.335 28.6254C240.237 27.273 242.49 28.6254 243.843 28.6254C245.42 28.6254 245.646 27.9492 246.096 27.4984C246.547 27.0476 246.772 27.273 246.998 27.0476C247.223 26.8222 246.998 26.5968 246.998 26.3714C246.998 26.146 247.223 26.3714 247.448 26.146C247.674 25.9206 247.448 25.4698 247.448 25.2444C247.899 24.5683 248.801 25.019 248.35 23.6667C248.125 22.7651 248.575 21.8635 249.026 21.4127C249.702 20.5111 252.632 16.454 247.674 12.1714C242.941 8.11429 237.983 8.56508 234.828 11.946C231.673 15.327 233.251 20.2857 233.476 21.6381C233.701 22.9905 232.8 24.1175 231.673 24.5683C230.772 25.019 228.743 26.3714 227.391 27.4984C227.617 16.6794 234.152 7.2127 244.068 3.38095C244.519 3.83175 244.969 4.50794 245.42 4.95873C244.293 5.86032 241.814 7.88889 241.814 7.88889C241.814 7.88889 242.04 7.88889 242.49 8.11429C242.716 8.11429 243.167 8.33968 243.167 8.33968C243.167 8.33968 245.195 6.53651 246.322 5.86032C246.998 6.53651 247.899 6.9873 248.801 7.4381C248.35 8.33968 246.998 10.5936 246.998 10.5936C246.998 10.5936 247.223 10.819 247.448 10.819C247.674 11.0444 247.899 11.0444 247.899 11.0444C247.899 11.0444 249.251 8.56508 249.702 7.66349C250.829 8.11429 251.956 8.33968 253.083 8.33968V12.8476C252.406 12.8476 250.829 12.8476 250.153 12.6222H249.702L249.927 13.073C250.153 13.2984 250.153 13.5238 250.378 13.7492C250.829 13.7492 252.406 13.7492 253.083 13.7492V22.0889H254.209V20.0603C256.012 20.0603 257.364 19.8349 258.942 19.6095L260.519 18.2571H259.618C257.815 18.4825 256.238 18.7079 254.885 18.7079C254.885 18.7079 254.435 18.7079 254.209 18.7079V13.5238C256.238 13.5238 258.491 13.2984 260.519 12.6222C260.97 13.9746 262.097 17.3556 262.097 17.3556L263.224 16.9048C263.224 16.9048 262.097 13.5238 261.646 12.1714C263.449 11.7206 265.027 10.819 266.604 10.1429C267.956 11.7206 269.083 13.5238 269.985 15.327C269.083 15.7778 267.731 16.2286 267.731 16.2286C268.858 16.454 269.759 16.6794 269.759 16.6794C269.759 16.6794 270.21 16.454 270.435 16.454C270.435 16.6794 270.661 17.1302 270.661 17.1302L272.238 17.8063L272.013 17.3556C272.013 17.3556 271.562 16.2286 271.337 16.0032C272.914 15.327 274.492 14.4254 276.07 13.2984C278.999 17.581 280.351 22.7651 280.351 27.9492C280.802 36.5143 276.52 44.1778 270.21 49.1365Z" fill="#009EDB"/>
<path d="M223.56 7.4381L223.109 7.88889C221.532 9.24127 217.701 13.073 218.377 17.3556V17.581L218.602 18.4825L219.053 18.0317C221.306 16.0032 223.109 12.3968 223.785 8.33968L224.011 7.2127L223.56 7.4381Z" fill="#009EDB"/>
<path d="M215.898 14.6508L215.672 15.1016C215.447 15.7778 214.996 17.3556 214.771 19.1587C214.32 21.8635 214.545 25.9206 216.799 28.8508L217.25 29.7524L217.701 27.9492C218.151 24.7936 217.475 18.2571 216.348 15.327L215.898 14.4254V14.6508Z" fill="#009EDB"/>
<path d="M213.193 25.9206V26.3714C212.968 29.0762 213.193 36.0635 218.827 39.8952L219.503 40.346V39.4444C219.503 36.7397 216.348 28.8508 214.095 26.146L213.419 25.2444L213.193 25.9206Z" fill="#009EDB"/>
<path d="M214.095 38.7683C214.996 42.8254 218.602 49.1365 224.461 51.1651L225.363 51.3905L225.138 50.4889C224.011 47.5587 218.377 40.5714 214.771 38.3175L214.095 37.8667V38.7683Z" fill="#009EDB"/>
<path d="M226.039 13.5238L225.363 13.7492C221.081 16.454 219.053 19.6095 219.053 23.6667V24.5683L219.729 24.1175C221.982 22.0889 225.138 17.1302 225.814 14.4254L226.039 13.2984V13.5238Z" fill="#009EDB"/>
<path d="M223.335 22.0889L223.109 22.5397C221.982 23.6667 218.377 27.4984 218.602 32.2317C218.602 32.9079 218.827 33.8095 219.053 34.4857L219.278 35.1619L219.729 34.4857C221.532 32.0063 223.785 25.6952 223.56 22.7651V21.8635L223.335 22.0889Z" fill="#009EDB"/>
<path d="M223.56 30.4286L223.335 30.8794C221.532 33.5841 220.63 36.2889 220.63 38.9936C220.63 40.7968 221.306 42.6 222.433 44.4032L222.884 45.0794L223.109 44.4032C223.785 42.8254 224.461 38.0921 224.461 34.2603C224.461 32.9079 224.236 31.781 224.011 31.1048L223.785 30.2032L223.56 30.4286Z" fill="#009EDB"/>
<path d="M225.363 39.6698C224.912 41.473 224.461 43.0508 224.687 44.854C224.687 48.4603 226.49 51.3905 229.645 53.4191L230.096 53.6444L230.321 52.9683V52.2921C230.321 49.3619 228.067 41.6984 226.264 39.4444L225.814 38.7683L225.363 39.6698Z" fill="#009EDB"/>
<path d="M219.503 50.9397L219.729 51.3905C221.982 55.2222 226.039 60.4064 233.476 59.054H234.152L233.701 58.6032C232.349 56.5746 223.335 51.3905 220.18 50.9397L219.278 50.7143L219.503 50.9397Z" fill="#009EDB"/>
<path d="M230.546 60.8571L229.419 61.0825L230.546 61.5333C235.279 63.5619 241.138 64.0127 244.744 62.8857C246.096 62.4349 246.772 61.7587 247.674 60.8571C253.759 61.5333 259.393 66.4921 262.773 70.5492L262.998 70.7746H263.224C263.675 70.5492 264.125 70.0984 264.351 69.873L264.576 69.6476L264.351 69.4222C260.97 64.9143 255.562 62.2095 255.336 61.9841C250.378 59.7302 241.814 57.927 230.546 60.8571Z" fill="#009EDB"/>
<path d="M230.772 48.2349V48.6857C231.448 53.1936 233.251 59.054 240.913 58.3778H241.364L241.138 57.927C240.688 55.8984 233.701 50.0381 231.222 48.4603L230.546 48.0095L230.772 48.2349Z" fill="#009EDB"/>
<path d="M283.957 6.9873L284.183 8.11429C284.859 12.1714 286.662 15.7778 288.915 17.8063L289.366 18.2571L289.591 17.3556V17.1302C290.267 12.8476 286.436 9.01587 284.859 7.66349L284.408 7.2127L283.957 6.9873Z" fill="#009EDB"/>
<path d="M291.845 14.2L291.394 15.1016C290.267 18.0317 289.817 24.5683 290.042 27.7238L290.493 29.527L290.718 29.3016L290.944 28.8508C293.423 25.9206 293.422 22.0889 292.972 19.1587C292.746 17.1302 292.296 15.7778 292.07 15.1016L291.845 14.6508V14.2Z" fill="#009EDB"/>
<path d="M294.775 25.4698L294.099 26.3714C291.845 29.3016 288.69 36.9651 288.69 39.6698V40.5714L289.366 40.1206C295 36.5143 295.225 29.527 295 26.5968V26.146L294.775 25.4698Z" fill="#009EDB"/>
<path d="M293.873 37.8667L292.972 38.3175C289.366 40.5714 283.732 47.5587 282.605 50.4889L282.38 51.3905L283.281 51.1651C289.141 49.3619 292.972 42.8254 293.648 38.7683V38.3175L293.873 37.8667Z" fill="#009EDB"/>
<path d="M281.929 13.073L282.154 14.2C283.056 17.1302 285.76 22.0889 288.239 24.1175L288.915 24.5683V23.6667C289.141 19.6095 287.112 16.454 282.83 13.7492L282.38 13.5238L281.929 13.073Z" fill="#009EDB"/>
<path d="M284.408 21.8635V22.7651C284.183 25.6952 286.662 32.2317 288.239 34.4857L288.69 35.1619L288.915 34.4857C289.141 33.5841 289.366 32.9079 289.366 32.2317C289.591 27.4984 285.985 23.6667 284.859 22.5397L284.633 22.3143L284.408 21.8635Z" fill="#009EDB"/>
<path d="M284.183 29.9778L283.957 30.8794C283.732 31.5556 283.507 32.6825 283.507 34.0349C283.507 37.8667 283.957 42.6 284.859 44.1778L285.084 44.854L285.535 44.1778C286.662 42.6 287.338 40.7968 287.338 38.7683C287.338 36.2889 286.436 33.3587 284.633 30.654L284.408 30.2032L284.183 29.9778Z" fill="#009EDB"/>
<path d="M282.154 38.7683L281.704 39.4444C279.901 41.6984 277.647 49.3619 277.647 52.2921C277.647 52.2921 277.647 52.7429 277.647 52.9683L277.872 53.6444L278.323 53.4191C281.478 51.3905 283.056 48.4603 283.281 44.854C283.281 43.2762 283.056 41.473 282.605 39.6698L282.154 38.7683Z" fill="#009EDB"/>
<path d="M288.69 50.4889L287.788 50.7143C284.633 51.1651 275.619 56.3492 274.267 58.3778L273.816 58.8286H274.492C281.929 60.181 285.986 54.9968 288.239 51.1651L288.465 50.7143L288.69 50.4889Z" fill="#009EDB"/>
<path d="M252.857 61.9841C252.632 61.9841 247.223 64.9143 243.843 69.4222L243.617 69.6476L243.843 69.873C244.068 70.0984 244.744 70.5492 244.969 70.7746H245.195L245.42 70.5492C248.801 66.4921 254.435 61.3079 260.52 60.8571C261.421 61.7587 262.322 62.4349 263.449 62.8857C266.83 64.0127 272.914 63.5619 277.647 61.5333L278.774 61.0825L277.647 60.8571C266.154 57.927 257.59 59.7302 252.857 61.9841Z" fill="#009EDB"/>
<path d="M277.196 47.7841L276.52 48.2349C274.041 49.8127 267.28 55.673 266.604 57.7016L266.379 58.1524H266.83C274.267 58.8286 276.07 52.9683 276.971 48.4603V48.0095L277.196 47.7841Z" fill="#009EDB"/>
<path d="M86.9901 2.70476H96.4553V11.2698H86.9901V2.70476ZM87.8915 21.1873H95.7792V63.1111H87.8915V21.1873Z" fill="#009EDB"/>
<path d="M36.0581 21.1873V63.1111H28.3957V57.0254H28.1704C25.0153 62.2095 19.6066 64.4635 13.7471 64.4635C4.95798 64.4635 0 57.7016 0 49.3619V21.1873H7.8877V45.981C7.8877 53.1937 9.46524 58.6032 17.1276 58.6032C20.2827 58.6032 24.7899 57.0254 26.3675 52.5175C27.945 48.6857 27.945 43.727 27.945 42.6V21.1873H36.0581Z" fill="#009EDB"/>
<path d="M51.8335 27.273C54.7632 22.0889 60.3973 19.8349 64.6791 19.8349C67.6089 19.8349 80.4546 20.5111 80.4546 34.0349V62.8857H72.5668V36.5143C72.5668 29.527 69.6371 25.9206 62.8762 25.9206C62.8762 25.9206 58.5943 25.6952 55.2139 29.0762C54.0871 30.2032 51.8335 32.0063 51.8335 40.346V63.1111H43.9458V21.1873H51.8335V27.273Z" fill="#009EDB"/>
<path d="M128.908 34.4857C128.457 29.3016 125.978 25.6952 120.344 25.6952C112.907 25.6952 109.977 32.2317 109.977 41.9238C109.977 51.6159 112.907 58.1524 120.344 58.1524C125.527 58.1524 128.682 54.7714 129.133 48.6857H137.021C136.345 58.1524 129.358 63.7873 120.118 63.7873C106.822 63.7873 101.413 54.3206 101.413 42.1492C101.413 29.9778 107.498 19.8349 120.795 19.8349C129.584 19.8349 136.119 25.4698 136.57 34.4857H128.908Z" fill="#009EDB"/>
<path d="M148.74 43.5016C148.063 50.7143 151.219 58.3778 159.106 58.3778C165.191 58.3778 168.346 55.8984 169.248 49.8127H177.586C176.234 59.2794 169.022 64.0127 159.106 64.0127C145.81 64.0127 140.401 54.546 140.401 42.3746C140.401 30.2032 146.486 20.0603 159.782 20.0603C172.177 20.2857 178.037 28.1746 178.037 39.6698V43.5016H148.74ZM169.924 38.0921C170.149 31.1048 166.994 25.6952 159.332 25.6952C152.796 25.6952 148.965 31.3302 148.965 38.0921H169.924Z" fill="#009EDB"/>
<path d="M187.051 62.6603V26.5968H179.84V21.1873H187.051V12.1714C187.277 3.15556 194.263 0.67619 200.122 0.67619C201.925 0.67619 203.953 1.12698 205.756 1.57778V8.11429C204.404 8.11429 203.052 7.88889 201.7 7.88889C197.193 7.88889 194.714 9.01587 194.939 13.5238V21.1873H204.63V26.5968H194.939V62.6603H187.051Z" fill="#009EDB"/>
</g>
<defs>
<clipPath id="clip0_20_410">
<rect width="295" height="71" fill="white"/>
</clipPath>
</defs>
</svg>
